G04 #@! TF.GenerationSoftware,KiCad,Pcbnew,8.0.9-8.0.9-0~ubuntu24.04.1*
G04 #@! TF.CreationDate,2025-04-11T12:42:37+02:00*
G04 #@! TF.ProjectId,Sensor_Nodes,53656e73-6f72-45f4-9e6f-6465732e6b69,rev?*
G04 #@! TF.SameCoordinates,Original*
G04 #@! TF.FileFunction,Legend,Top*
G04 #@! TF.FilePolarity,Positive*
%FSLAX46Y46*%
G04 Gerber Fmt 4.6, Leading zero omitted, Abs format (unit mm)*
G04 Created by KiCad (PCBNEW 8.0.9-8.0.9-0~ubuntu24.04.1) date 2025-04-11 12:42:37*
%MOMM*%
%LPD*%
G01*
G04 APERTURE LIST*
%ADD10C,0.150000*%
%ADD11C,0.120000*%
%ADD12C,0.127000*%
%ADD13C,0.240000*%
G04 APERTURE END LIST*
D10*
X94784285Y-80855819D02*
X94784285Y-81570104D01*
X94784285Y-81570104D02*
X94736666Y-81712961D01*
X94736666Y-81712961D02*
X94641428Y-81808200D01*
X94641428Y-81808200D02*
X94498571Y-81855819D01*
X94498571Y-81855819D02*
X94403333Y-81855819D01*
X95212857Y-80951057D02*
X95260476Y-80903438D01*
X95260476Y-80903438D02*
X95355714Y-80855819D01*
X95355714Y-80855819D02*
X95593809Y-80855819D01*
X95593809Y-80855819D02*
X95689047Y-80903438D01*
X95689047Y-80903438D02*
X95736666Y-80951057D01*
X95736666Y-80951057D02*
X95784285Y-81046295D01*
X95784285Y-81046295D02*
X95784285Y-81141533D01*
X95784285Y-81141533D02*
X95736666Y-81284390D01*
X95736666Y-81284390D02*
X95165238Y-81855819D01*
X95165238Y-81855819D02*
X95784285Y-81855819D01*
X96403333Y-80855819D02*
X96498571Y-80855819D01*
X96498571Y-80855819D02*
X96593809Y-80903438D01*
X96593809Y-80903438D02*
X96641428Y-80951057D01*
X96641428Y-80951057D02*
X96689047Y-81046295D01*
X96689047Y-81046295D02*
X96736666Y-81236771D01*
X96736666Y-81236771D02*
X96736666Y-81474866D01*
X96736666Y-81474866D02*
X96689047Y-81665342D01*
X96689047Y-81665342D02*
X96641428Y-81760580D01*
X96641428Y-81760580D02*
X96593809Y-81808200D01*
X96593809Y-81808200D02*
X96498571Y-81855819D01*
X96498571Y-81855819D02*
X96403333Y-81855819D01*
X96403333Y-81855819D02*
X96308095Y-81808200D01*
X96308095Y-81808200D02*
X96260476Y-81760580D01*
X96260476Y-81760580D02*
X96212857Y-81665342D01*
X96212857Y-81665342D02*
X96165238Y-81474866D01*
X96165238Y-81474866D02*
X96165238Y-81236771D01*
X96165238Y-81236771D02*
X96212857Y-81046295D01*
X96212857Y-81046295D02*
X96260476Y-80951057D01*
X96260476Y-80951057D02*
X96308095Y-80903438D01*
X96308095Y-80903438D02*
X96403333Y-80855819D01*
X97689047Y-81855819D02*
X97117619Y-81855819D01*
X97403333Y-81855819D02*
X97403333Y-80855819D01*
X97403333Y-80855819D02*
X97308095Y-80998676D01*
X97308095Y-80998676D02*
X97212857Y-81093914D01*
X97212857Y-81093914D02*
X97117619Y-81141533D01*
D11*
X100567836Y-107401000D02*
X100352164Y-107401000D01*
X100567836Y-108121000D02*
X100352164Y-108121000D01*
X98350000Y-84413836D02*
X98350000Y-84198164D01*
X99070000Y-84413836D02*
X99070000Y-84198164D01*
X116350000Y-94423164D02*
X116350000Y-94638836D01*
X117070000Y-94423164D02*
X117070000Y-94638836D01*
X98587836Y-88546000D02*
X98372164Y-88546000D01*
X98587836Y-89266000D02*
X98372164Y-89266000D01*
X107152164Y-101501000D02*
X107367836Y-101501000D01*
X107152164Y-102221000D02*
X107367836Y-102221000D01*
X87140000Y-88133500D02*
G75*
G02*
X85940000Y-88133500I-600000J0D01*
G01*
X85940000Y-88133500D02*
G75*
G02*
X87140000Y-88133500I600000J0D01*
G01*
X97220000Y-126858500D02*
X97220000Y-126058500D01*
X97220000Y-126858500D02*
X97220000Y-127658500D01*
X100340000Y-126858500D02*
X100340000Y-126058500D01*
X100340000Y-126858500D02*
X100340000Y-127658500D01*
X100620000Y-125798500D02*
X100290000Y-125558500D01*
X100620000Y-125318500D01*
X100620000Y-125798500D01*
G36*
X100620000Y-125798500D02*
G01*
X100290000Y-125558500D01*
X100620000Y-125318500D01*
X100620000Y-125798500D01*
G37*
X89930000Y-93946000D02*
X89930000Y-91946000D01*
X90930000Y-90646000D02*
X91380000Y-90196000D01*
X90930000Y-95246000D02*
X91380000Y-95696000D01*
X93980000Y-90196000D02*
X91380000Y-90196000D01*
X93980000Y-95696000D02*
X91380000Y-95696000D01*
X94430000Y-90646000D02*
X93980000Y-90196000D01*
X94430000Y-95246000D02*
X93980000Y-95696000D01*
X95430000Y-93946000D02*
X95430000Y-91946000D01*
X102550000Y-101768836D02*
X102550000Y-101553164D01*
X103270000Y-101768836D02*
X103270000Y-101553164D01*
X115330000Y-94674641D02*
X115330000Y-94367359D01*
X116090000Y-94674641D02*
X116090000Y-94367359D01*
X96760000Y-121751000D02*
G75*
G02*
X95560000Y-121751000I-600000J0D01*
G01*
X95560000Y-121751000D02*
G75*
G02*
X96760000Y-121751000I600000J0D01*
G01*
X98587836Y-87546000D02*
X98372164Y-87546000D01*
X98587836Y-88266000D02*
X98372164Y-88266000D01*
X95570000Y-125358836D02*
X95570000Y-125143164D01*
X96290000Y-125358836D02*
X96290000Y-125143164D01*
X100590000Y-84790000D02*
X100590000Y-90880000D01*
X101720000Y-92010000D02*
X107810000Y-92010000D01*
X107810000Y-84790000D02*
X100590000Y-84790000D01*
X107810000Y-92010000D02*
X107810000Y-84790000D01*
X100590000Y-92510000D02*
X100090000Y-92010000D01*
X100590000Y-92010000D01*
X100590000Y-92510000D01*
G36*
X100590000Y-92510000D02*
G01*
X100090000Y-92010000D01*
X100590000Y-92010000D01*
X100590000Y-92510000D01*
G37*
X86501359Y-86328500D02*
X86808641Y-86328500D01*
X86501359Y-87088500D02*
X86808641Y-87088500D01*
X94256359Y-125353500D02*
X94563641Y-125353500D01*
X94256359Y-126113500D02*
X94563641Y-126113500D01*
X98780000Y-120201000D02*
X98130000Y-120201000D01*
X98780000Y-120201000D02*
X99430000Y-120201000D01*
X98780000Y-123321000D02*
X98130000Y-123321000D01*
X98780000Y-123321000D02*
X99430000Y-123321000D01*
X97617500Y-120251000D02*
X97377500Y-119921000D01*
X97857500Y-119921000D01*
X97617500Y-120251000D01*
G36*
X97617500Y-120251000D02*
G01*
X97377500Y-119921000D01*
X97857500Y-119921000D01*
X97617500Y-120251000D01*
G37*
X105026359Y-98121000D02*
X105333641Y-98121000D01*
X105026359Y-98881000D02*
X105333641Y-98881000D01*
X114920000Y-106731000D02*
G75*
G02*
X113320000Y-106731000I-800000J0D01*
G01*
X113320000Y-106731000D02*
G75*
G02*
X114920000Y-106731000I800000J0D01*
G01*
X88640000Y-88133500D02*
G75*
G02*
X87440000Y-88133500I-600000J0D01*
G01*
X87440000Y-88133500D02*
G75*
G02*
X88640000Y-88133500I600000J0D01*
G01*
X107985000Y-111971000D02*
G75*
G02*
X106385000Y-111971000I-800000J0D01*
G01*
X106385000Y-111971000D02*
G75*
G02*
X107985000Y-111971000I800000J0D01*
G01*
X95110000Y-104911000D02*
X94310000Y-104911000D01*
X95110000Y-104911000D02*
X95910000Y-104911000D01*
X95110000Y-108031000D02*
X94310000Y-108031000D01*
X95110000Y-108031000D02*
X95910000Y-108031000D01*
X96650000Y-108311000D02*
X96170000Y-108311000D01*
X96410000Y-107981000D01*
X96650000Y-108311000D01*
G36*
X96650000Y-108311000D02*
G01*
X96170000Y-108311000D01*
X96410000Y-107981000D01*
X96650000Y-108311000D01*
G37*
X98350000Y-86198164D02*
X98350000Y-86413836D01*
X99070000Y-86198164D02*
X99070000Y-86413836D01*
X107082164Y-109631000D02*
X107297836Y-109631000D01*
X107082164Y-110351000D02*
X107297836Y-110351000D01*
X100385580Y-105001000D02*
X100104420Y-105001000D01*
X100385580Y-106021000D02*
X100104420Y-106021000D01*
X93800000Y-127297359D02*
X93800000Y-127604641D01*
X94560000Y-127297359D02*
X94560000Y-127604641D01*
X113473641Y-118911000D02*
X113166359Y-118911000D01*
X113473641Y-119671000D02*
X113166359Y-119671000D01*
X106590000Y-93867359D02*
X106590000Y-94174641D01*
X107350000Y-93867359D02*
X107350000Y-94174641D01*
X109590000Y-99401000D02*
G75*
G02*
X108390000Y-99401000I-600000J0D01*
G01*
X108390000Y-99401000D02*
G75*
G02*
X109590000Y-99401000I600000J0D01*
G01*
X110150000Y-82391000D02*
G75*
G02*
X108950000Y-82391000I-600000J0D01*
G01*
X108950000Y-82391000D02*
G75*
G02*
X110150000Y-82391000I600000J0D01*
G01*
X100567836Y-106401000D02*
X100352164Y-106401000D01*
X100567836Y-107121000D02*
X100352164Y-107121000D01*
D12*
X115687050Y-80161000D02*
X123142950Y-80161000D01*
X115687050Y-83231000D02*
X115687050Y-80161000D01*
X115687050Y-88981000D02*
X115687050Y-85631000D01*
X115687050Y-92501000D02*
X115687050Y-91281000D01*
X123142950Y-80161000D02*
X123142950Y-82981000D01*
X123142950Y-85831000D02*
X123142950Y-88681000D01*
X123142950Y-91581000D02*
X123142950Y-92501000D01*
X123142950Y-92501000D02*
X115687050Y-92501000D01*
D13*
X123916280Y-88931000D02*
G75*
G02*
X123676280Y-88931000I-120000J0D01*
G01*
X123676280Y-88931000D02*
G75*
G02*
X123916280Y-88931000I120000J0D01*
G01*
D11*
X113176359Y-119911000D02*
X113483641Y-119911000D01*
X113176359Y-120671000D02*
X113483641Y-120671000D01*
X103825000Y-103361000D02*
X103825000Y-103836000D01*
X103825000Y-108581000D02*
X103825000Y-108106000D01*
X104300000Y-103361000D02*
X103825000Y-103361000D01*
X104300000Y-108581000D02*
X103825000Y-108581000D01*
X108570000Y-103361000D02*
X109045000Y-103361000D01*
X108570000Y-108581000D02*
X108745000Y-108581000D01*
X109045000Y-103361000D02*
X109045000Y-103836000D01*
X109045000Y-108106000D02*
X109045000Y-108341000D01*
X109285000Y-108911000D02*
X108805000Y-108911000D01*
X109045000Y-108581000D01*
X109285000Y-108911000D01*
G36*
X109285000Y-108911000D02*
G01*
X108805000Y-108911000D01*
X109045000Y-108581000D01*
X109285000Y-108911000D01*
G37*
X107620000Y-93893164D02*
X107620000Y-94108836D01*
X108340000Y-93893164D02*
X108340000Y-94108836D01*
X86760000Y-81308500D02*
X86760000Y-80558500D01*
X88480000Y-82058500D02*
X88480000Y-80558500D01*
X101107500Y-101418258D02*
X101107500Y-100943742D01*
X102152500Y-101418258D02*
X102152500Y-100943742D01*
X85350000Y-117151000D02*
X85350000Y-124871000D01*
X85350000Y-124871000D02*
X86650000Y-124871000D01*
X86650000Y-117151000D02*
X85350000Y-117151000D01*
X90970000Y-117151000D02*
X93070000Y-117151000D01*
X90970000Y-124871000D02*
X93070000Y-124871000D01*
X93070000Y-117151000D02*
X93070000Y-119601000D01*
X93070000Y-119601000D02*
X94960000Y-119601000D01*
X93070000Y-124871000D02*
X93070000Y-122421000D01*
X100850000Y-94048164D02*
X100850000Y-94263836D01*
X101570000Y-94048164D02*
X101570000Y-94263836D01*
X95030000Y-128096000D02*
X95030000Y-126736000D01*
X96830000Y-128301000D02*
X96830000Y-126731000D01*
X95030000Y-128696000D02*
X94750000Y-128416000D01*
X95030000Y-128416000D01*
X95030000Y-128696000D01*
G36*
X95030000Y-128696000D02*
G01*
X94750000Y-128416000D01*
X95030000Y-128416000D01*
X95030000Y-128696000D01*
G37*
X97460000Y-118747359D02*
X97460000Y-119054641D01*
X98220000Y-118747359D02*
X98220000Y-119054641D01*
X102557836Y-78791000D02*
X102342164Y-78791000D01*
X102557836Y-79511000D02*
X102342164Y-79511000D01*
X104450000Y-110698500D02*
X104450000Y-112983500D01*
X105920000Y-110698500D02*
X104450000Y-110698500D01*
X105920000Y-112983500D02*
X105920000Y-110698500D01*
X100170000Y-109061000D02*
G75*
G02*
X98970000Y-109061000I-600000J0D01*
G01*
X98970000Y-109061000D02*
G75*
G02*
X100170000Y-109061000I600000J0D01*
G01*
X102557836Y-77791000D02*
X102342164Y-77791000D01*
X102557836Y-78511000D02*
X102342164Y-78511000D01*
X109922164Y-85291000D02*
X110137836Y-85291000D01*
X109922164Y-86011000D02*
X110137836Y-86011000D01*
X105587500Y-93910664D02*
X105587500Y-94126336D01*
X106307500Y-93910664D02*
X106307500Y-94126336D01*
X94810000Y-82806000D02*
X94810000Y-86806000D01*
X98110000Y-82806000D02*
X94810000Y-82806000D01*
X111544420Y-108211000D02*
X111825580Y-108211000D01*
X111544420Y-109231000D02*
X111825580Y-109231000D01*
X102557836Y-79791000D02*
X102342164Y-79791000D01*
X102557836Y-80511000D02*
X102342164Y-80511000D01*
X99840000Y-94053164D02*
X99840000Y-94268836D01*
X100560000Y-94053164D02*
X100560000Y-94268836D01*
X101875000Y-94048164D02*
X101875000Y-94263836D01*
X102595000Y-94048164D02*
X102595000Y-94263836D01*
X118265000Y-101846000D02*
X118265000Y-99246000D01*
X118715000Y-98796000D02*
X118265000Y-99246000D01*
X118715000Y-102296000D02*
X118265000Y-101846000D01*
X120015000Y-97796000D02*
X122015000Y-97796000D01*
X120015000Y-103296000D02*
X122015000Y-103296000D01*
X123315000Y-98796000D02*
X123765000Y-99246000D01*
X123315000Y-102296000D02*
X123765000Y-101846000D01*
X123765000Y-101846000D02*
X123765000Y-99246000D01*
X105060000Y-99801000D02*
G75*
G02*
X103860000Y-99801000I-600000J0D01*
G01*
X103860000Y-99801000D02*
G75*
G02*
X105060000Y-99801000I600000J0D01*
G01*
X100910000Y-103828836D02*
X100910000Y-103613164D01*
X101630000Y-103828836D02*
X101630000Y-103613164D01*
X106923641Y-100141000D02*
X106616359Y-100141000D01*
X106923641Y-100901000D02*
X106616359Y-100901000D01*
X102557836Y-82791000D02*
X102342164Y-82791000D01*
X102557836Y-83511000D02*
X102342164Y-83511000D01*
X104100000Y-82763836D02*
X104100000Y-82548164D01*
X104820000Y-82763836D02*
X104820000Y-82548164D01*
X85255000Y-111051000D02*
X85255000Y-101891000D01*
X87285000Y-111051000D02*
X89205000Y-111051000D01*
X89205000Y-101891000D02*
X87285000Y-101891000D01*
X96450000Y-116094641D02*
X96450000Y-115787359D01*
X97210000Y-116094641D02*
X97210000Y-115787359D01*
X100600000Y-82763836D02*
X100600000Y-82548164D01*
X101320000Y-82763836D02*
X101320000Y-82548164D01*
X95026359Y-89231000D02*
X95333641Y-89231000D01*
X95026359Y-89991000D02*
X95333641Y-89991000D01*
X110730000Y-123651000D02*
X113180000Y-123651000D01*
X110730000Y-125751000D02*
X110730000Y-123651000D01*
X110730000Y-130071000D02*
X110730000Y-131371000D01*
X110730000Y-131371000D02*
X118450000Y-131371000D01*
X113180000Y-123651000D02*
X113180000Y-121761000D01*
X118450000Y-123651000D02*
X116000000Y-123651000D01*
X118450000Y-125751000D02*
X118450000Y-123651000D01*
X118450000Y-131371000D02*
X118450000Y-130071000D01*
X110379420Y-89911000D02*
X110660580Y-89911000D01*
X110379420Y-90931000D02*
X110660580Y-90931000D01*
X112185000Y-102971000D02*
G75*
G02*
X110985000Y-102971000I-600000J0D01*
G01*
X110985000Y-102971000D02*
G75*
G02*
X112185000Y-102971000I600000J0D01*
G01*
X111544420Y-104211000D02*
X111825580Y-104211000D01*
X111544420Y-105231000D02*
X111825580Y-105231000D01*
X103540000Y-101829641D02*
X103540000Y-101522359D01*
X104300000Y-101829641D02*
X104300000Y-101522359D01*
X106230000Y-122211000D02*
G75*
G02*
X104630000Y-122211000I-800000J0D01*
G01*
X104630000Y-122211000D02*
G75*
G02*
X106230000Y-122211000I800000J0D01*
G01*
X109630000Y-97771000D02*
G75*
G02*
X108430000Y-97771000I-600000J0D01*
G01*
X108430000Y-97771000D02*
G75*
G02*
X109630000Y-97771000I600000J0D01*
G01*
X93470000Y-80401000D02*
X93470000Y-72661000D01*
X96070000Y-77801000D02*
X96070000Y-80401000D01*
X96070000Y-80401000D02*
X93470000Y-80401000D01*
X98670000Y-72661000D02*
X93470000Y-72661000D01*
X98670000Y-77801000D02*
X96070000Y-77801000D01*
X98670000Y-77801000D02*
X98670000Y-72661000D01*
X98670000Y-79071000D02*
X98670000Y-80401000D01*
X98670000Y-80401000D02*
X97340000Y-80401000D01*
X88728641Y-86328500D02*
X88421359Y-86328500D01*
X88728641Y-87088500D02*
X88421359Y-87088500D01*
X99600000Y-82783836D02*
X99600000Y-82568164D01*
X100320000Y-82783836D02*
X100320000Y-82568164D01*
X104655000Y-95626000D02*
X104655000Y-97096000D01*
X104655000Y-97096000D02*
X106940000Y-97096000D01*
X106940000Y-95626000D02*
X104655000Y-95626000D01*
X96450000Y-118034641D02*
X96450000Y-117727359D01*
X97210000Y-118034641D02*
X97210000Y-117727359D01*
X110181920Y-83783500D02*
X110463080Y-83783500D01*
X110181920Y-84803500D02*
X110463080Y-84803500D01*
X102705000Y-110713500D02*
X102705000Y-112998500D01*
X104175000Y-110713500D02*
X102705000Y-110713500D01*
X104175000Y-112998500D02*
X104175000Y-110713500D01*
X87727836Y-77398500D02*
X87512164Y-77398500D01*
X87727836Y-78118500D02*
X87512164Y-78118500D01*
X96580000Y-119251000D02*
G75*
G02*
X95380000Y-119251000I-600000J0D01*
G01*
X95380000Y-119251000D02*
G75*
G02*
X96580000Y-119251000I600000J0D01*
G01*
X90140000Y-88133500D02*
G75*
G02*
X88940000Y-88133500I-600000J0D01*
G01*
X88940000Y-88133500D02*
G75*
G02*
X90140000Y-88133500I600000J0D01*
G01*
X123490000Y-95131000D02*
G75*
G02*
X122290000Y-95131000I-600000J0D01*
G01*
X122290000Y-95131000D02*
G75*
G02*
X123490000Y-95131000I600000J0D01*
G01*
M02*
