G04 #@! TF.GenerationSoftware,KiCad,Pcbnew,8.0.9-8.0.9-0~ubuntu24.04.1*
G04 #@! TF.CreationDate,2025-04-11T12:42:36+02:00*
G04 #@! TF.ProjectId,Sensor_Nodes,53656e73-6f72-45f4-9e6f-6465732e6b69,rev?*
G04 #@! TF.SameCoordinates,Original*
G04 #@! TF.FileFunction,Copper,L2,Inr*
G04 #@! TF.FilePolarity,Positive*
%FSLAX46Y46*%
G04 Gerber Fmt 4.6, Leading zero omitted, Abs format (unit mm)*
G04 Created by KiCad (PCBNEW 8.0.9-8.0.9-0~ubuntu24.04.1) date 2025-04-11 12:42:36*
%MOMM*%
%LPD*%
G01*
G04 APERTURE LIST*
G04 #@! TA.AperFunction,ComponentPad*
%ADD10C,1.300000*%
G04 #@! TD*
G04 #@! TA.AperFunction,ComponentPad*
%ADD11C,0.800000*%
G04 #@! TD*
G04 #@! TA.AperFunction,ComponentPad*
%ADD12C,5.000000*%
G04 #@! TD*
G04 #@! TA.AperFunction,HeatsinkPad*
%ADD13C,0.500000*%
G04 #@! TD*
G04 #@! TA.AperFunction,ComponentPad*
%ADD14C,0.400000*%
G04 #@! TD*
G04 #@! TA.AperFunction,ComponentPad*
%ADD15R,0.900000X0.500000*%
G04 #@! TD*
G04 #@! TA.AperFunction,ComponentPad*
%ADD16O,2.100000X1.000000*%
G04 #@! TD*
G04 #@! TA.AperFunction,ComponentPad*
%ADD17O,1.800000X1.000000*%
G04 #@! TD*
G04 #@! TA.AperFunction,ComponentPad*
%ADD18R,1.700000X1.700000*%
G04 #@! TD*
G04 #@! TA.AperFunction,ComponentPad*
%ADD19O,1.700000X1.700000*%
G04 #@! TD*
G04 #@! TA.AperFunction,ViaPad*
%ADD20C,0.500000*%
G04 #@! TD*
G04 #@! TA.AperFunction,ViaPad*
%ADD21C,0.800000*%
G04 #@! TD*
G04 #@! TA.AperFunction,ViaPad*
%ADD22C,0.200000*%
G04 #@! TD*
G04 APERTURE END LIST*
D10*
X114120000Y-106731000D03*
X107185000Y-111971000D03*
D11*
X86115000Y-74376000D03*
X86664175Y-73050175D03*
X86664175Y-75701825D03*
X87990000Y-72501000D03*
D12*
X87990000Y-74376000D03*
D11*
X87990000Y-76251000D03*
X89315825Y-73050175D03*
X89315825Y-75701825D03*
X89865000Y-74376000D03*
D13*
X107435000Y-106971000D03*
X107435000Y-105971000D03*
X107435000Y-104971000D03*
X106435000Y-106971000D03*
X106435000Y-105971000D03*
X106435000Y-104971000D03*
X105435000Y-106971000D03*
X105435000Y-105971000D03*
X105435000Y-104971000D03*
D14*
X87320000Y-81308500D03*
X87920000Y-81308500D03*
D15*
X100830000Y-77146000D03*
D11*
X120509175Y-74386825D03*
X121058350Y-73061000D03*
X121058350Y-75712650D03*
X122384175Y-72511825D03*
D12*
X122384175Y-74386825D03*
D11*
X122384175Y-76261825D03*
X123710000Y-73061000D03*
X123710000Y-75712650D03*
X124259175Y-74386825D03*
X86129175Y-128756825D03*
X86678350Y-127431000D03*
X86678350Y-130082650D03*
X88004175Y-126881825D03*
D12*
X88004175Y-128756825D03*
D11*
X88004175Y-130631825D03*
X89330000Y-127431000D03*
X89330000Y-130082650D03*
X89879175Y-128756825D03*
D16*
X90480000Y-102151000D03*
D17*
X86280000Y-102151000D03*
D16*
X90480000Y-110791000D03*
D17*
X86280000Y-110791000D03*
D10*
X105430000Y-122211000D03*
D18*
X97340000Y-79071000D03*
D19*
X94800000Y-79071000D03*
X97340000Y-76531000D03*
X94800000Y-76531000D03*
X97340000Y-73991000D03*
X94800000Y-73991000D03*
D11*
X120500000Y-128751000D03*
X121049175Y-127425175D03*
X121049175Y-130076825D03*
X122375000Y-126876000D03*
D12*
X122375000Y-128751000D03*
D11*
X122375000Y-130626000D03*
X123700825Y-127425175D03*
X123700825Y-130076825D03*
X124250000Y-128751000D03*
D20*
X100960000Y-125721000D03*
X100440000Y-103241000D03*
X113480000Y-104721000D03*
X98710000Y-83091000D03*
X101240000Y-78161000D03*
X104210000Y-90401000D03*
X97270000Y-88901000D03*
X89680000Y-95591000D03*
X100960000Y-124661000D03*
X100200000Y-95361000D03*
D21*
X115340000Y-125201000D03*
D20*
X104210000Y-87401000D03*
X104210000Y-88401000D03*
X98605000Y-105511000D03*
X107740000Y-101261000D03*
X99295000Y-107761000D03*
X107980000Y-95171000D03*
X94180000Y-128711000D03*
X104210000Y-89401000D03*
X113500000Y-108711000D03*
X111290000Y-91361000D03*
X116710000Y-95711000D03*
X120890000Y-87601000D03*
X120000000Y-97541000D03*
X96830000Y-114761000D03*
X99730000Y-126821000D03*
X100960000Y-81451000D03*
X95610000Y-87151000D03*
X101970000Y-82391000D03*
X102240000Y-95351000D03*
X118250000Y-88341000D03*
X105950000Y-95231000D03*
X100960000Y-126821000D03*
X101240000Y-79151000D03*
X117940000Y-86331000D03*
X97260000Y-87901000D03*
X99730000Y-124661000D03*
X104210000Y-86401000D03*
X86430000Y-77761000D03*
X106210000Y-88401000D03*
X103210000Y-88401000D03*
X105210000Y-88401000D03*
X101240000Y-80151000D03*
X95160000Y-106481000D03*
X97310000Y-82461000D03*
X101210000Y-95351000D03*
X95680000Y-95621000D03*
X99960000Y-81461000D03*
X111250000Y-85651000D03*
X119960000Y-103551000D03*
X112000000Y-84291000D03*
X104460000Y-81471000D03*
X103470000Y-100541000D03*
X117940000Y-87601000D03*
X119410000Y-84431000D03*
X102610000Y-100361000D03*
X102210000Y-88401000D03*
X115710000Y-95731000D03*
X113830000Y-118441000D03*
X108490000Y-88151000D03*
X101210000Y-92681000D03*
X99725000Y-86326000D03*
X103950000Y-98501000D03*
X110910000Y-109601000D03*
X105830000Y-110111000D03*
X109550000Y-83421000D03*
X108140000Y-100521000D03*
X120580000Y-88341000D03*
X94670000Y-90371000D03*
X105320000Y-93531000D03*
X88810000Y-77761000D03*
X85810000Y-87421000D03*
X89085000Y-87381000D03*
X87190000Y-90451000D03*
X87950000Y-111621000D03*
X114410000Y-88801000D03*
D22*
X106960000Y-88406000D03*
D20*
X100200000Y-91231000D03*
X101967500Y-84143500D03*
X108690000Y-90091000D03*
D22*
X106950000Y-90091000D03*
D20*
X101990000Y-106761000D03*
X92230000Y-104071000D03*
X92230000Y-108871000D03*
X92870000Y-106471000D03*
X109850000Y-105331000D03*
X108540000Y-109251000D03*
X101880000Y-105721000D03*
X107460000Y-92461000D03*
X100658198Y-108609198D03*
X101610000Y-110081000D03*
X96800000Y-110091000D03*
X102050000Y-108551000D03*
X89460000Y-108061000D03*
X113590000Y-96761000D03*
X113610000Y-99331000D03*
X116515000Y-79671000D03*
X116515000Y-80971000D03*
X120050000Y-85061000D03*
X104090000Y-92541000D03*
X105350000Y-92731000D03*
X119410000Y-86921000D03*
X104700000Y-94941000D03*
D22*
X104700000Y-91151000D03*
D20*
X110070000Y-95411000D03*
D22*
X106950000Y-88901000D03*
D20*
X108850000Y-101801000D03*
X110100000Y-92001000D03*
X97180000Y-94021000D03*
X93240000Y-90081000D03*
X93350000Y-89171000D03*
D22*
X103200000Y-91150000D03*
D20*
X113337500Y-101218500D03*
X118470000Y-92541000D03*
D22*
X106950000Y-89400000D03*
D20*
X112790000Y-90221000D03*
D21*
X104490000Y-80371000D03*
X104940000Y-79371000D03*
D22*
X106890000Y-85671000D03*
D21*
X94040000Y-96271000D03*
G04 #@! TA.AperFunction,Conductor*
G36*
X120753122Y-71596458D02*
G01*
X120820156Y-71616143D01*
X120865910Y-71668948D01*
X120875851Y-71738107D01*
X120846825Y-71801662D01*
X120821253Y-71824057D01*
X120589669Y-71976372D01*
X120589662Y-71976377D01*
X120446992Y-72096089D01*
X121694049Y-73343145D01*
X121569855Y-73433379D01*
X121430729Y-73572505D01*
X121340495Y-73696698D01*
X120090323Y-72446526D01*
X120090321Y-72446526D01*
X120082148Y-72455191D01*
X119873464Y-72735502D01*
X119698736Y-73038141D01*
X119698730Y-73038154D01*
X119560320Y-73359024D01*
X119460091Y-73693813D01*
X119460089Y-73693821D01*
X119458218Y-73704432D01*
X119427188Y-73767033D01*
X119367239Y-73802920D01*
X119297405Y-73800700D01*
X119248422Y-73770574D01*
X119156866Y-73679018D01*
X119156862Y-73679015D01*
X119021492Y-73588563D01*
X119021490Y-73588562D01*
X118871082Y-73526262D01*
X118871073Y-73526259D01*
X118711406Y-73494500D01*
X118711403Y-73494500D01*
X118548597Y-73494500D01*
X118548594Y-73494500D01*
X118388926Y-73526259D01*
X118388917Y-73526262D01*
X118238509Y-73588562D01*
X118238507Y-73588563D01*
X118103137Y-73679015D01*
X118103133Y-73679018D01*
X117988018Y-73794133D01*
X117988015Y-73794137D01*
X117897563Y-73929507D01*
X117897562Y-73929509D01*
X117835262Y-74079917D01*
X117835259Y-74079926D01*
X117803500Y-74239592D01*
X117803500Y-74402407D01*
X117835259Y-74562073D01*
X117835262Y-74562082D01*
X117897562Y-74712490D01*
X117897563Y-74712492D01*
X117988015Y-74847862D01*
X117988018Y-74847866D01*
X118103133Y-74962981D01*
X118103137Y-74962984D01*
X118238505Y-75053435D01*
X118238506Y-75053435D01*
X118238507Y-75053436D01*
X118238509Y-75053437D01*
X118302226Y-75079829D01*
X118388919Y-75115738D01*
X118388921Y-75115738D01*
X118388926Y-75115740D01*
X118548592Y-75147499D01*
X118548595Y-75147500D01*
X118548597Y-75147500D01*
X118711405Y-75147500D01*
X118711406Y-75147499D01*
X118764629Y-75136912D01*
X118871073Y-75115740D01*
X118871076Y-75115738D01*
X118871081Y-75115738D01*
X119021495Y-75053435D01*
X119156863Y-74962984D01*
X119228689Y-74891157D01*
X119290010Y-74857674D01*
X119359702Y-74862658D01*
X119415636Y-74904529D01*
X119438485Y-74957307D01*
X119460089Y-75079829D01*
X119460091Y-75079836D01*
X119560320Y-75414625D01*
X119698730Y-75735495D01*
X119698736Y-75735508D01*
X119873464Y-76038147D01*
X120082147Y-76318456D01*
X120082151Y-76318461D01*
X120090322Y-76327122D01*
X120090323Y-76327123D01*
X121340495Y-75076950D01*
X121430729Y-75201145D01*
X121569855Y-75340271D01*
X121694048Y-75430503D01*
X120446992Y-76677558D01*
X120446993Y-76677559D01*
X120589655Y-76797267D01*
X120881636Y-76989305D01*
X121193914Y-77146139D01*
X121193920Y-77146141D01*
X121522305Y-77265663D01*
X121522308Y-77265664D01*
X121862346Y-77346254D01*
X122209451Y-77386824D01*
X122209452Y-77386825D01*
X122558898Y-77386825D01*
X122558898Y-77386824D01*
X122906002Y-77346254D01*
X122906004Y-77346254D01*
X123246041Y-77265664D01*
X123246044Y-77265663D01*
X123574429Y-77146141D01*
X123574435Y-77146139D01*
X123886713Y-76989305D01*
X124178690Y-76797270D01*
X124321355Y-76677559D01*
X124321356Y-76677558D01*
X123074301Y-75430503D01*
X123198495Y-75340271D01*
X123337621Y-75201145D01*
X123427854Y-75076950D01*
X124678025Y-76327122D01*
X124686207Y-76318450D01*
X124894883Y-76038150D01*
X124933137Y-75971891D01*
X124983704Y-75923675D01*
X125052310Y-75910451D01*
X125117176Y-75936418D01*
X125157705Y-75993332D01*
X125164525Y-76033888D01*
X125165285Y-127121139D01*
X125145601Y-127188179D01*
X125092798Y-127233935D01*
X125023640Y-127243879D01*
X124960084Y-127214855D01*
X124933898Y-127183141D01*
X124885710Y-127099677D01*
X124677029Y-126819371D01*
X124668850Y-126810701D01*
X124668850Y-126810700D01*
X123418678Y-128060873D01*
X123328446Y-127936680D01*
X123189320Y-127797554D01*
X123065125Y-127707320D01*
X124312181Y-126460265D01*
X124312180Y-126460264D01*
X124169519Y-126340557D01*
X123877538Y-126148519D01*
X123565260Y-125991685D01*
X123565254Y-125991683D01*
X123236869Y-125872161D01*
X123236866Y-125872160D01*
X122896828Y-125791570D01*
X122549723Y-125751000D01*
X122200277Y-125751000D01*
X121853172Y-125791570D01*
X121853170Y-125791570D01*
X121513133Y-125872160D01*
X121513130Y-125872161D01*
X121372527Y-125923336D01*
X121302798Y-125927767D01*
X121241742Y-125893796D01*
X121208745Y-125832209D01*
X121208500Y-125782622D01*
X121216500Y-125742405D01*
X121216500Y-125579594D01*
X121216499Y-125579592D01*
X121184740Y-125419926D01*
X121184737Y-125419917D01*
X121122437Y-125269509D01*
X121122436Y-125269507D01*
X121031984Y-125134137D01*
X121031981Y-125134133D01*
X120916866Y-125019018D01*
X120916862Y-125019015D01*
X120781492Y-124928563D01*
X120781490Y-124928562D01*
X120631082Y-124866262D01*
X120631073Y-124866259D01*
X120471406Y-124834500D01*
X120471403Y-124834500D01*
X120308597Y-124834500D01*
X120308594Y-124834500D01*
X120148926Y-124866259D01*
X120148917Y-124866262D01*
X119998509Y-124928562D01*
X119998507Y-124928563D01*
X119863137Y-125019015D01*
X119863133Y-125019018D01*
X119748018Y-125134133D01*
X119748015Y-125134137D01*
X119657563Y-125269507D01*
X119657562Y-125269509D01*
X119595262Y-125419917D01*
X119595259Y-125419926D01*
X119563500Y-125579592D01*
X119563500Y-125742407D01*
X119595259Y-125902073D01*
X119595262Y-125902082D01*
X119657562Y-126052490D01*
X119657563Y-126052492D01*
X119748015Y-126187862D01*
X119748018Y-126187866D01*
X119863133Y-126302981D01*
X119863137Y-126302984D01*
X119998505Y-126393435D01*
X119998506Y-126393435D01*
X119998507Y-126393436D01*
X119998509Y-126393437D01*
X120098781Y-126434970D01*
X120148919Y-126455738D01*
X120148921Y-126455738D01*
X120148926Y-126455740D01*
X120308592Y-126487499D01*
X120308595Y-126487500D01*
X120413691Y-126487500D01*
X120480730Y-126507185D01*
X120501372Y-126523819D01*
X121684873Y-127707320D01*
X121560680Y-127797554D01*
X121421554Y-127936680D01*
X121331320Y-128060873D01*
X120081148Y-126810701D01*
X120081146Y-126810701D01*
X120072973Y-126819366D01*
X119864289Y-127099677D01*
X119689561Y-127402316D01*
X119689555Y-127402329D01*
X119551145Y-127723199D01*
X119450916Y-128057988D01*
X119450914Y-128057997D01*
X119390236Y-128402119D01*
X119390235Y-128402130D01*
X119369916Y-128750996D01*
X119369916Y-128751003D01*
X119390235Y-129099869D01*
X119390236Y-129099880D01*
X119450914Y-129444002D01*
X119450916Y-129444011D01*
X119551145Y-129778800D01*
X119689555Y-130099670D01*
X119689561Y-130099683D01*
X119864289Y-130402322D01*
X120072972Y-130682631D01*
X120072976Y-130682636D01*
X120081147Y-130691297D01*
X120081148Y-130691298D01*
X121331320Y-129441125D01*
X121421554Y-129565320D01*
X121560680Y-129704446D01*
X121684873Y-129794678D01*
X120437817Y-131041733D01*
X120437818Y-131041734D01*
X120580480Y-131161442D01*
X120834039Y-131328210D01*
X120879233Y-131381495D01*
X120888444Y-131450755D01*
X120858749Y-131514000D01*
X120799575Y-131551151D01*
X120765864Y-131555811D01*
X89635772Y-131546815D01*
X89568738Y-131527111D01*
X89522999Y-131474294D01*
X89513075Y-131405132D01*
X89542119Y-131341585D01*
X89567669Y-131319214D01*
X89798691Y-131167270D01*
X89941355Y-131047559D01*
X89941356Y-131047558D01*
X88694300Y-129800504D01*
X88818495Y-129710271D01*
X88957621Y-129571145D01*
X89047854Y-129446951D01*
X90298025Y-130697122D01*
X90306207Y-130688450D01*
X90514885Y-130408147D01*
X90689613Y-130105508D01*
X90689619Y-130105495D01*
X90828029Y-129784625D01*
X90928258Y-129449836D01*
X90928260Y-129449827D01*
X90988938Y-129105705D01*
X90988939Y-129105694D01*
X91009259Y-128756828D01*
X91009259Y-128756821D01*
X90988939Y-128407955D01*
X90988938Y-128407944D01*
X90928260Y-128063822D01*
X90928258Y-128063813D01*
X90836424Y-127757064D01*
X90836055Y-127687195D01*
X90873518Y-127628218D01*
X90936919Y-127598857D01*
X90955215Y-127597500D01*
X91111405Y-127597500D01*
X91111406Y-127597499D01*
X91164629Y-127586912D01*
X91271073Y-127565740D01*
X91271076Y-127565738D01*
X91271081Y-127565738D01*
X91421495Y-127503435D01*
X91556863Y-127412984D01*
X91671984Y-127297863D01*
X91762435Y-127162495D01*
X91824738Y-127012081D01*
X91856500Y-126852403D01*
X91856500Y-126689597D01*
X91856500Y-126689594D01*
X91856499Y-126689592D01*
X91824740Y-126529926D01*
X91824737Y-126529917D01*
X91762437Y-126379509D01*
X91762436Y-126379507D01*
X91740302Y-126346382D01*
X91671984Y-126244137D01*
X91671981Y-126244133D01*
X91556866Y-126129018D01*
X91556862Y-126129015D01*
X91421492Y-126038563D01*
X91421490Y-126038562D01*
X91271082Y-125976262D01*
X91271073Y-125976259D01*
X91111406Y-125944500D01*
X91111403Y-125944500D01*
X90948597Y-125944500D01*
X90948594Y-125944500D01*
X90788926Y-125976259D01*
X90788917Y-125976262D01*
X90638509Y-126038562D01*
X90638507Y-126038563D01*
X90503137Y-126129015D01*
X90503133Y-126129018D01*
X90388018Y-126244133D01*
X90388015Y-126244137D01*
X90297563Y-126379507D01*
X90297562Y-126379509D01*
X90235262Y-126529917D01*
X90235259Y-126529926D01*
X90203500Y-126689592D01*
X90203500Y-126858494D01*
X90200915Y-126858494D01*
X90189983Y-126916090D01*
X90167288Y-126947263D01*
X89047853Y-128066698D01*
X88957621Y-127942505D01*
X88818495Y-127803379D01*
X88694300Y-127713145D01*
X89941356Y-126466090D01*
X89941355Y-126466089D01*
X89798694Y-126346382D01*
X89506713Y-126154344D01*
X89194435Y-125997510D01*
X89194429Y-125997508D01*
X88866044Y-125877986D01*
X88866041Y-125877985D01*
X88526003Y-125797395D01*
X88178898Y-125756825D01*
X87829452Y-125756825D01*
X87482347Y-125797395D01*
X87482345Y-125797395D01*
X87142308Y-125877985D01*
X87142305Y-125877986D01*
X86813920Y-125997508D01*
X86813914Y-125997510D01*
X86501636Y-126154344D01*
X86209660Y-126346379D01*
X86066992Y-126466089D01*
X87314049Y-127713145D01*
X87189855Y-127803379D01*
X87050729Y-127942505D01*
X86960495Y-128066699D01*
X85710323Y-126816526D01*
X85710321Y-126816526D01*
X85702148Y-126825191D01*
X85493464Y-127105502D01*
X85446075Y-127187584D01*
X85395508Y-127235800D01*
X85326901Y-127249023D01*
X85262036Y-127223055D01*
X85221508Y-127166141D01*
X85214688Y-127125584D01*
X85214688Y-122210999D01*
X104275073Y-122210999D01*
X104275073Y-122211000D01*
X104294737Y-122423216D01*
X104294738Y-122423219D01*
X104353058Y-122628196D01*
X104353066Y-122628216D01*
X104448060Y-122818990D01*
X104456834Y-122830609D01*
X104456835Y-122830609D01*
X105030000Y-122257445D01*
X105030000Y-122263661D01*
X105057259Y-122365394D01*
X105109920Y-122456606D01*
X105184394Y-122531080D01*
X105275606Y-122583741D01*
X105377339Y-122611000D01*
X105383553Y-122611000D01*
X104812991Y-123181559D01*
X104915204Y-123244847D01*
X104915208Y-123244849D01*
X105113936Y-123321836D01*
X105113941Y-123321837D01*
X105323439Y-123361000D01*
X105536561Y-123361000D01*
X105746058Y-123321837D01*
X105746063Y-123321836D01*
X105944791Y-123244849D01*
X105944798Y-123244846D01*
X106047006Y-123181560D01*
X106047006Y-123181559D01*
X105476448Y-122611000D01*
X105482661Y-122611000D01*
X105584394Y-122583741D01*
X105675606Y-122531080D01*
X105750080Y-122456606D01*
X105802741Y-122365394D01*
X105830000Y-122263661D01*
X105830000Y-122257447D01*
X106403163Y-122830610D01*
X106411935Y-122818996D01*
X106411938Y-122818991D01*
X106506935Y-122628211D01*
X106506941Y-122628196D01*
X106565261Y-122423219D01*
X106565262Y-122423216D01*
X106584927Y-122211000D01*
X106584927Y-122210999D01*
X106565262Y-121998783D01*
X106565261Y-121998780D01*
X106506941Y-121793803D01*
X106506933Y-121793783D01*
X106411940Y-121603010D01*
X106403163Y-121591388D01*
X105830000Y-122164551D01*
X105830000Y-122158339D01*
X105802741Y-122056606D01*
X105750080Y-121965394D01*
X105675606Y-121890920D01*
X105584394Y-121838259D01*
X105482661Y-121811000D01*
X105476447Y-121811000D01*
X106047007Y-121240439D01*
X105944793Y-121177151D01*
X105944789Y-121177149D01*
X105746063Y-121100163D01*
X105746058Y-121100162D01*
X105536561Y-121061000D01*
X105323439Y-121061000D01*
X105113941Y-121100162D01*
X105113936Y-121100163D01*
X104915210Y-121177149D01*
X104915201Y-121177154D01*
X104812992Y-121240438D01*
X104812991Y-121240439D01*
X105383554Y-121811000D01*
X105377339Y-121811000D01*
X105275606Y-121838259D01*
X105184394Y-121890920D01*
X105109920Y-121965394D01*
X105057259Y-122056606D01*
X105030000Y-122158339D01*
X105030000Y-122164554D01*
X104456835Y-121591389D01*
X104448056Y-121603015D01*
X104353066Y-121793783D01*
X104353058Y-121793803D01*
X104294738Y-121998780D01*
X104294737Y-121998783D01*
X104275073Y-122210999D01*
X85214688Y-122210999D01*
X85214688Y-118440996D01*
X113424508Y-118440996D01*
X113424508Y-118441003D01*
X113444352Y-118566300D01*
X113444352Y-118566301D01*
X113444354Y-118566304D01*
X113501950Y-118679342D01*
X113501952Y-118679344D01*
X113501954Y-118679347D01*
X113591652Y-118769045D01*
X113591654Y-118769046D01*
X113591658Y-118769050D01*
X113704696Y-118826646D01*
X113704697Y-118826646D01*
X113704699Y-118826647D01*
X113829997Y-118846492D01*
X113830000Y-118846492D01*
X113830003Y-118846492D01*
X113955300Y-118826647D01*
X113955301Y-118826647D01*
X113955302Y-118826646D01*
X113955304Y-118826646D01*
X114068342Y-118769050D01*
X114158050Y-118679342D01*
X114215646Y-118566304D01*
X114215646Y-118566302D01*
X114215647Y-118566301D01*
X114215647Y-118566300D01*
X114235492Y-118441003D01*
X114235492Y-118440996D01*
X114215647Y-118315699D01*
X114215647Y-118315698D01*
X114215646Y-118315696D01*
X114158050Y-118202658D01*
X114158046Y-118202654D01*
X114158045Y-118202652D01*
X114068347Y-118112954D01*
X114068344Y-118112952D01*
X114068342Y-118112950D01*
X113955304Y-118055354D01*
X113955303Y-118055353D01*
X113955300Y-118055352D01*
X113830003Y-118035508D01*
X113829997Y-118035508D01*
X113704699Y-118055352D01*
X113704698Y-118055352D01*
X113629337Y-118093751D01*
X113591658Y-118112950D01*
X113591657Y-118112951D01*
X113591652Y-118112954D01*
X113501954Y-118202652D01*
X113501951Y-118202657D01*
X113444352Y-118315698D01*
X113444352Y-118315699D01*
X113424508Y-118440996D01*
X85214688Y-118440996D01*
X85214688Y-111781131D01*
X85234373Y-111714092D01*
X85287177Y-111668337D01*
X85356335Y-111658393D01*
X85400425Y-111675290D01*
X85400947Y-111674316D01*
X85406328Y-111677192D01*
X85588306Y-111752569D01*
X85588318Y-111752572D01*
X85781504Y-111790999D01*
X85781508Y-111791000D01*
X86030000Y-111791000D01*
X86030000Y-111091000D01*
X86530000Y-111091000D01*
X86530000Y-111791000D01*
X86778492Y-111791000D01*
X86778495Y-111790999D01*
X86971681Y-111752572D01*
X86971693Y-111752569D01*
X87153671Y-111677192D01*
X87153684Y-111677185D01*
X87317462Y-111567751D01*
X87317465Y-111567749D01*
X87334097Y-111551117D01*
X87395419Y-111517630D01*
X87465111Y-111522613D01*
X87521045Y-111564483D01*
X87544253Y-111619398D01*
X87564352Y-111746300D01*
X87564352Y-111746301D01*
X87582099Y-111781131D01*
X87621950Y-111859342D01*
X87621952Y-111859344D01*
X87621954Y-111859347D01*
X87711652Y-111949045D01*
X87711654Y-111949046D01*
X87711658Y-111949050D01*
X87824696Y-112006646D01*
X87824697Y-112006646D01*
X87824699Y-112006647D01*
X87949997Y-112026492D01*
X87950000Y-112026492D01*
X87950003Y-112026492D01*
X88075300Y-112006647D01*
X88075301Y-112006647D01*
X88075302Y-112006646D01*
X88075304Y-112006646D01*
X88145271Y-111970996D01*
X106379435Y-111970996D01*
X106379435Y-111971003D01*
X106399630Y-112150249D01*
X106399631Y-112150254D01*
X106459211Y-112320523D01*
X106555184Y-112473262D01*
X106682738Y-112600816D01*
X106835478Y-112696789D01*
X107005745Y-112756368D01*
X107005750Y-112756369D01*
X107184996Y-112776565D01*
X107185000Y-112776565D01*
X107185004Y-112776565D01*
X107364249Y-112756369D01*
X107364252Y-112756368D01*
X107364255Y-112756368D01*
X107534522Y-112696789D01*
X107687262Y-112600816D01*
X107814816Y-112473262D01*
X107910789Y-112320522D01*
X107970368Y-112150255D01*
X107990565Y-111971000D01*
X107988091Y-111949045D01*
X107970369Y-111791750D01*
X107970368Y-111791745D01*
X107956660Y-111752569D01*
X107910789Y-111621478D01*
X107814816Y-111468738D01*
X107687262Y-111341184D01*
X107534523Y-111245211D01*
X107364254Y-111185631D01*
X107364249Y-111185630D01*
X107185004Y-111165435D01*
X107184996Y-111165435D01*
X107005750Y-111185630D01*
X107005745Y-111185631D01*
X106835476Y-111245211D01*
X106682737Y-111341184D01*
X106555184Y-111468737D01*
X106459211Y-111621476D01*
X106399631Y-111791745D01*
X106399630Y-111791750D01*
X106379435Y-111970996D01*
X88145271Y-111970996D01*
X88188342Y-111949050D01*
X88278050Y-111859342D01*
X88335646Y-111746304D01*
X88335646Y-111746302D01*
X88335647Y-111746301D01*
X88335647Y-111746300D01*
X88355492Y-111621003D01*
X88355492Y-111620996D01*
X88335647Y-111495699D01*
X88335647Y-111495698D01*
X88321910Y-111468738D01*
X88278050Y-111382658D01*
X88278046Y-111382654D01*
X88278045Y-111382652D01*
X88188347Y-111292954D01*
X88188344Y-111292952D01*
X88188342Y-111292950D01*
X88075304Y-111235354D01*
X88075303Y-111235353D01*
X88075300Y-111235352D01*
X87950003Y-111215508D01*
X87949997Y-111215508D01*
X87824699Y-111235352D01*
X87824693Y-111235354D01*
X87811907Y-111241869D01*
X87743238Y-111254763D01*
X87678498Y-111228483D01*
X87638244Y-111171375D01*
X87635254Y-111101570D01*
X87641060Y-111083918D01*
X87641571Y-111082684D01*
X87649862Y-111041000D01*
X86846988Y-111041000D01*
X86864205Y-111031060D01*
X86920060Y-110975205D01*
X86959556Y-110906796D01*
X86980000Y-110830496D01*
X86980000Y-110751504D01*
X86959556Y-110675204D01*
X86920060Y-110606795D01*
X86864205Y-110550940D01*
X86846988Y-110541000D01*
X87649862Y-110541000D01*
X88960138Y-110541000D01*
X89763012Y-110541000D01*
X89745795Y-110550940D01*
X89689940Y-110606795D01*
X89650444Y-110675204D01*
X89630000Y-110751504D01*
X89630000Y-110830496D01*
X89650444Y-110906796D01*
X89689940Y-110975205D01*
X89745795Y-111031060D01*
X89763012Y-111041000D01*
X88960138Y-111041000D01*
X88968430Y-111082690D01*
X88968430Y-111082692D01*
X89043807Y-111264671D01*
X89043814Y-111264684D01*
X89153248Y-111428462D01*
X89153251Y-111428466D01*
X89292533Y-111567748D01*
X89292537Y-111567751D01*
X89456315Y-111677185D01*
X89456328Y-111677192D01*
X89638306Y-111752569D01*
X89638318Y-111752572D01*
X89831504Y-111790999D01*
X89831508Y-111791000D01*
X90230000Y-111791000D01*
X90230000Y-111091000D01*
X90730000Y-111091000D01*
X90730000Y-111791000D01*
X91128492Y-111791000D01*
X91128495Y-111790999D01*
X91321681Y-111752572D01*
X91321693Y-111752569D01*
X91503671Y-111677192D01*
X91503684Y-111677185D01*
X91667462Y-111567751D01*
X91667466Y-111567748D01*
X91806748Y-111428466D01*
X91806751Y-111428462D01*
X91916185Y-111264684D01*
X91916192Y-111264671D01*
X91991569Y-111082692D01*
X91991569Y-111082690D01*
X91999862Y-111041000D01*
X91196988Y-111041000D01*
X91214205Y-111031060D01*
X91270060Y-110975205D01*
X91309556Y-110906796D01*
X91330000Y-110830496D01*
X91330000Y-110751504D01*
X91309556Y-110675204D01*
X91270060Y-110606795D01*
X91214205Y-110550940D01*
X91196988Y-110541000D01*
X91999862Y-110541000D01*
X91991569Y-110499309D01*
X91991569Y-110499307D01*
X91916192Y-110317328D01*
X91916185Y-110317315D01*
X91806751Y-110153537D01*
X91806748Y-110153533D01*
X91744211Y-110090996D01*
X96394508Y-110090996D01*
X96394508Y-110091003D01*
X96414352Y-110216300D01*
X96414352Y-110216301D01*
X96432805Y-110252517D01*
X96471950Y-110329342D01*
X96471952Y-110329344D01*
X96471954Y-110329347D01*
X96561652Y-110419045D01*
X96561654Y-110419046D01*
X96561658Y-110419050D01*
X96674696Y-110476646D01*
X96674697Y-110476646D01*
X96674699Y-110476647D01*
X96799997Y-110496492D01*
X96800000Y-110496492D01*
X96800003Y-110496492D01*
X96925300Y-110476647D01*
X96925301Y-110476647D01*
X96925302Y-110476646D01*
X96925304Y-110476646D01*
X97038342Y-110419050D01*
X97128050Y-110329342D01*
X97185646Y-110216304D01*
X97185646Y-110216302D01*
X97185647Y-110216301D01*
X97185647Y-110216300D01*
X97205492Y-110091003D01*
X97205492Y-110090996D01*
X97203908Y-110080996D01*
X101204508Y-110080996D01*
X101204508Y-110081003D01*
X101224352Y-110206300D01*
X101224352Y-110206301D01*
X101229449Y-110216304D01*
X101281950Y-110319342D01*
X101281952Y-110319344D01*
X101281954Y-110319347D01*
X101371652Y-110409045D01*
X101371654Y-110409046D01*
X101371658Y-110409050D01*
X101484696Y-110466646D01*
X101484697Y-110466646D01*
X101484699Y-110466647D01*
X101609997Y-110486492D01*
X101610000Y-110486492D01*
X101610003Y-110486492D01*
X101735300Y-110466647D01*
X101735301Y-110466647D01*
X101735302Y-110466646D01*
X101735304Y-110466646D01*
X101848342Y-110409050D01*
X101938050Y-110319342D01*
X101995646Y-110206304D01*
X101995646Y-110206302D01*
X101995647Y-110206301D01*
X101995647Y-110206300D01*
X102010742Y-110110996D01*
X105424508Y-110110996D01*
X105424508Y-110111003D01*
X105444352Y-110236300D01*
X105444352Y-110236301D01*
X105444354Y-110236304D01*
X105501950Y-110349342D01*
X105501952Y-110349344D01*
X105501954Y-110349347D01*
X105591652Y-110439045D01*
X105591654Y-110439046D01*
X105591658Y-110439050D01*
X105704696Y-110496646D01*
X105704697Y-110496646D01*
X105704699Y-110496647D01*
X105829997Y-110516492D01*
X105830000Y-110516492D01*
X105830003Y-110516492D01*
X105955300Y-110496647D01*
X105955301Y-110496647D01*
X105955302Y-110496646D01*
X105955304Y-110496646D01*
X106068342Y-110439050D01*
X106158050Y-110349342D01*
X106215646Y-110236304D01*
X106215646Y-110236302D01*
X106215647Y-110236301D01*
X106215647Y-110236300D01*
X106235492Y-110111003D01*
X106235492Y-110110996D01*
X106215647Y-109985699D01*
X106215647Y-109985698D01*
X106205455Y-109965696D01*
X106158050Y-109872658D01*
X106158046Y-109872654D01*
X106158045Y-109872652D01*
X106068347Y-109782954D01*
X106068344Y-109782952D01*
X106068342Y-109782950D01*
X105955304Y-109725354D01*
X105955303Y-109725353D01*
X105955300Y-109725352D01*
X105830003Y-109705508D01*
X105829997Y-109705508D01*
X105704699Y-109725352D01*
X105704698Y-109725352D01*
X105650536Y-109752950D01*
X105591658Y-109782950D01*
X105591657Y-109782951D01*
X105591652Y-109782954D01*
X105501954Y-109872652D01*
X105501951Y-109872657D01*
X105501950Y-109872658D01*
X105485569Y-109904807D01*
X105444352Y-109985698D01*
X105444352Y-109985699D01*
X105424508Y-110110996D01*
X102010742Y-110110996D01*
X102015492Y-110081003D01*
X102015492Y-110080996D01*
X101995647Y-109955699D01*
X101995647Y-109955698D01*
X101982068Y-109929048D01*
X101938050Y-109842658D01*
X101938046Y-109842654D01*
X101938045Y-109842652D01*
X101848347Y-109752954D01*
X101848344Y-109752952D01*
X101848342Y-109752950D01*
X101735304Y-109695354D01*
X101735303Y-109695353D01*
X101735300Y-109695352D01*
X101610003Y-109675508D01*
X101609997Y-109675508D01*
X101484699Y-109695352D01*
X101484698Y-109695352D01*
X101425818Y-109725354D01*
X101371658Y-109752950D01*
X101371657Y-109752951D01*
X101371652Y-109752954D01*
X101281954Y-109842652D01*
X101281951Y-109842657D01*
X101281950Y-109842658D01*
X101262751Y-109880337D01*
X101224352Y-109955698D01*
X101224352Y-109955699D01*
X101204508Y-110080996D01*
X97203908Y-110080996D01*
X97185647Y-109965699D01*
X97185647Y-109965698D01*
X97173183Y-109941237D01*
X97128050Y-109852658D01*
X97128046Y-109852654D01*
X97128045Y-109852652D01*
X97038347Y-109762954D01*
X97038344Y-109762952D01*
X97038342Y-109762950D01*
X96925304Y-109705354D01*
X96925303Y-109705353D01*
X96925300Y-109705352D01*
X96800003Y-109685508D01*
X96799997Y-109685508D01*
X96674699Y-109705352D01*
X96674698Y-109705352D01*
X96633585Y-109726301D01*
X96561658Y-109762950D01*
X96561657Y-109762951D01*
X96561652Y-109762954D01*
X96471954Y-109852652D01*
X96471951Y-109852657D01*
X96471950Y-109852658D01*
X96460975Y-109874198D01*
X96414352Y-109965698D01*
X96414352Y-109965699D01*
X96394508Y-110090996D01*
X91744211Y-110090996D01*
X91667466Y-110014251D01*
X91667462Y-110014248D01*
X91503684Y-109904814D01*
X91503671Y-109904807D01*
X91321693Y-109829430D01*
X91321681Y-109829427D01*
X91128495Y-109791000D01*
X90730000Y-109791000D01*
X90730000Y-110491000D01*
X90230000Y-110491000D01*
X90230000Y-109941237D01*
X90249685Y-109874198D01*
X90292000Y-109833850D01*
X90313365Y-109821515D01*
X90420515Y-109714365D01*
X90496281Y-109583135D01*
X90535500Y-109436766D01*
X90535500Y-109285234D01*
X90496281Y-109138865D01*
X90420515Y-109007635D01*
X90313365Y-108900485D01*
X90262289Y-108870996D01*
X91824508Y-108870996D01*
X91824508Y-108871003D01*
X91844352Y-108996300D01*
X91844352Y-108996301D01*
X91844354Y-108996304D01*
X91901950Y-109109342D01*
X91901952Y-109109344D01*
X91901954Y-109109347D01*
X91991652Y-109199045D01*
X91991654Y-109199046D01*
X91991658Y-109199050D01*
X92104696Y-109256646D01*
X92104697Y-109256646D01*
X92104699Y-109256647D01*
X92229997Y-109276492D01*
X92230000Y-109276492D01*
X92230003Y-109276492D01*
X92355300Y-109256647D01*
X92355301Y-109256647D01*
X92355302Y-109256646D01*
X92355304Y-109256646D01*
X92366393Y-109250996D01*
X108134508Y-109250996D01*
X108134508Y-109251003D01*
X108154352Y-109376300D01*
X108154352Y-109376301D01*
X108154354Y-109376304D01*
X108211950Y-109489342D01*
X108211952Y-109489344D01*
X108211954Y-109489347D01*
X108301652Y-109579045D01*
X108301654Y-109579046D01*
X108301658Y-109579050D01*
X108414696Y-109636646D01*
X108414697Y-109636646D01*
X108414699Y-109636647D01*
X108539997Y-109656492D01*
X108540000Y-109656492D01*
X108540003Y-109656492D01*
X108665300Y-109636647D01*
X108665301Y-109636647D01*
X108665302Y-109636646D01*
X108665304Y-109636646D01*
X108735271Y-109600996D01*
X110504508Y-109600996D01*
X110504508Y-109601003D01*
X110524352Y-109726300D01*
X110524352Y-109726301D01*
X110524354Y-109726304D01*
X110581950Y-109839342D01*
X110581952Y-109839344D01*
X110581954Y-109839347D01*
X110671652Y-109929045D01*
X110671654Y-109929046D01*
X110671658Y-109929050D01*
X110784696Y-109986646D01*
X110784697Y-109986646D01*
X110784699Y-109986647D01*
X110909997Y-110006492D01*
X110910000Y-110006492D01*
X110910003Y-110006492D01*
X111035300Y-109986647D01*
X111035301Y-109986647D01*
X111035302Y-109986646D01*
X111035304Y-109986646D01*
X111148342Y-109929050D01*
X111238050Y-109839342D01*
X111295646Y-109726304D01*
X111295646Y-109726302D01*
X111295647Y-109726301D01*
X111295647Y-109726300D01*
X111315492Y-109601003D01*
X111315492Y-109600996D01*
X111295647Y-109475699D01*
X111295647Y-109475698D01*
X111275810Y-109436766D01*
X111238050Y-109362658D01*
X111238046Y-109362654D01*
X111238045Y-109362652D01*
X111148347Y-109272954D01*
X111148344Y-109272952D01*
X111148342Y-109272950D01*
X111035304Y-109215354D01*
X111035303Y-109215353D01*
X111035300Y-109215352D01*
X110910003Y-109195508D01*
X110909997Y-109195508D01*
X110784699Y-109215352D01*
X110784698Y-109215352D01*
X110714745Y-109250996D01*
X110671658Y-109272950D01*
X110671657Y-109272951D01*
X110671652Y-109272954D01*
X110581954Y-109362652D01*
X110581951Y-109362657D01*
X110524352Y-109475698D01*
X110524352Y-109475699D01*
X110504508Y-109600996D01*
X108735271Y-109600996D01*
X108778342Y-109579050D01*
X108868050Y-109489342D01*
X108925646Y-109376304D01*
X108925646Y-109376302D01*
X108925647Y-109376301D01*
X108925647Y-109376300D01*
X108945492Y-109251003D01*
X108945492Y-109250996D01*
X108925647Y-109125699D01*
X108925647Y-109125698D01*
X108925646Y-109125696D01*
X108868050Y-109012658D01*
X108868046Y-109012654D01*
X108868045Y-109012652D01*
X108778347Y-108922954D01*
X108778344Y-108922952D01*
X108778342Y-108922950D01*
X108665304Y-108865354D01*
X108665303Y-108865353D01*
X108665300Y-108865352D01*
X108540003Y-108845508D01*
X108539997Y-108845508D01*
X108414699Y-108865352D01*
X108414698Y-108865352D01*
X108345748Y-108900485D01*
X108301658Y-108922950D01*
X108301657Y-108922951D01*
X108301652Y-108922954D01*
X108211954Y-109012652D01*
X108211951Y-109012657D01*
X108154352Y-109125698D01*
X108154352Y-109125699D01*
X108134508Y-109250996D01*
X92366393Y-109250996D01*
X92468342Y-109199050D01*
X92558050Y-109109342D01*
X92615646Y-108996304D01*
X92615646Y-108996302D01*
X92615647Y-108996301D01*
X92615647Y-108996300D01*
X92635492Y-108871003D01*
X92635492Y-108870996D01*
X92615647Y-108745699D01*
X92615647Y-108745698D01*
X92609940Y-108734498D01*
X92558050Y-108632658D01*
X92558046Y-108632654D01*
X92558045Y-108632652D01*
X92534587Y-108609194D01*
X100252706Y-108609194D01*
X100252706Y-108609201D01*
X100272550Y-108734498D01*
X100272550Y-108734499D01*
X100278257Y-108745699D01*
X100330148Y-108847540D01*
X100330150Y-108847542D01*
X100330152Y-108847545D01*
X100419850Y-108937243D01*
X100419852Y-108937244D01*
X100419856Y-108937248D01*
X100532894Y-108994844D01*
X100532895Y-108994844D01*
X100532897Y-108994845D01*
X100658195Y-109014690D01*
X100658198Y-109014690D01*
X100658201Y-109014690D01*
X100783498Y-108994845D01*
X100783499Y-108994845D01*
X100783500Y-108994844D01*
X100783502Y-108994844D01*
X100896540Y-108937248D01*
X100986248Y-108847540D01*
X101043844Y-108734502D01*
X101043844Y-108734500D01*
X101043845Y-108734499D01*
X101043845Y-108734498D01*
X101063690Y-108609201D01*
X101063690Y-108609194D01*
X101054472Y-108550996D01*
X101644508Y-108550996D01*
X101644508Y-108551003D01*
X101664352Y-108676300D01*
X101664352Y-108676301D01*
X101664354Y-108676304D01*
X101721950Y-108789342D01*
X101721952Y-108789344D01*
X101721954Y-108789347D01*
X101811652Y-108879045D01*
X101811654Y-108879046D01*
X101811658Y-108879050D01*
X101924696Y-108936646D01*
X101924697Y-108936646D01*
X101924699Y-108936647D01*
X102049997Y-108956492D01*
X102050000Y-108956492D01*
X102050003Y-108956492D01*
X102175300Y-108936647D01*
X102175301Y-108936647D01*
X102175302Y-108936646D01*
X102175304Y-108936646D01*
X102288342Y-108879050D01*
X102378050Y-108789342D01*
X102435646Y-108676304D01*
X102435646Y-108676302D01*
X102435647Y-108676301D01*
X102435647Y-108676300D01*
X102455492Y-108551003D01*
X102455492Y-108550996D01*
X102435647Y-108425699D01*
X102435647Y-108425698D01*
X102435646Y-108425696D01*
X102378050Y-108312658D01*
X102378046Y-108312654D01*
X102378045Y-108312652D01*
X102288347Y-108222954D01*
X102288344Y-108222952D01*
X102288342Y-108222950D01*
X102175304Y-108165354D01*
X102175303Y-108165353D01*
X102175300Y-108165352D01*
X102050003Y-108145508D01*
X102049997Y-108145508D01*
X101924699Y-108165352D01*
X101924698Y-108165352D01*
X101883585Y-108186301D01*
X101811658Y-108222950D01*
X101811657Y-108222951D01*
X101811652Y-108222954D01*
X101721954Y-108312652D01*
X101721951Y-108312657D01*
X101664352Y-108425698D01*
X101664352Y-108425699D01*
X101644508Y-108550996D01*
X101054472Y-108550996D01*
X101043845Y-108483897D01*
X101043845Y-108483896D01*
X101034476Y-108465508D01*
X100986248Y-108370856D01*
X100986244Y-108370852D01*
X100986243Y-108370850D01*
X100896545Y-108281152D01*
X100896542Y-108281150D01*
X100896540Y-108281148D01*
X100783502Y-108223552D01*
X100783501Y-108223551D01*
X100783498Y-108223550D01*
X100658201Y-108203706D01*
X100658195Y-108203706D01*
X100532897Y-108223550D01*
X100532896Y-108223550D01*
X100457535Y-108261949D01*
X100419856Y-108281148D01*
X100419855Y-108281149D01*
X100419850Y-108281152D01*
X100330152Y-108370850D01*
X100330149Y-108370855D01*
X100272550Y-108483896D01*
X100272550Y-108483897D01*
X100252706Y-108609194D01*
X92534587Y-108609194D01*
X92468347Y-108542954D01*
X92468344Y-108542952D01*
X92468342Y-108542950D01*
X92355304Y-108485354D01*
X92355303Y-108485353D01*
X92355300Y-108485352D01*
X92230003Y-108465508D01*
X92229997Y-108465508D01*
X92104699Y-108485352D01*
X92104698Y-108485352D01*
X92029337Y-108523751D01*
X91991658Y-108542950D01*
X91991657Y-108542951D01*
X91991652Y-108542954D01*
X91901954Y-108632652D01*
X91901951Y-108632657D01*
X91844352Y-108745698D01*
X91844352Y-108745699D01*
X91824508Y-108870996D01*
X90262289Y-108870996D01*
X90221662Y-108847540D01*
X90182136Y-108824719D01*
X90050123Y-108789347D01*
X90035766Y-108785500D01*
X89884234Y-108785500D01*
X89737863Y-108824719D01*
X89606635Y-108900485D01*
X89606632Y-108900487D01*
X89499487Y-109007632D01*
X89499485Y-109007635D01*
X89423719Y-109138863D01*
X89384500Y-109285234D01*
X89384500Y-109436765D01*
X89423719Y-109583136D01*
X89434031Y-109600996D01*
X89499485Y-109714365D01*
X89499486Y-109714366D01*
X89499489Y-109714371D01*
X89501592Y-109717112D01*
X89502646Y-109719839D01*
X89503549Y-109721403D01*
X89503305Y-109721543D01*
X89526784Y-109782282D01*
X89512744Y-109850726D01*
X89463928Y-109900714D01*
X89461676Y-109901949D01*
X89456321Y-109904811D01*
X89292536Y-110014248D01*
X89153251Y-110153533D01*
X89153248Y-110153537D01*
X89043814Y-110317315D01*
X89043807Y-110317328D01*
X88968430Y-110499307D01*
X88968430Y-110499309D01*
X88960138Y-110541000D01*
X87649862Y-110541000D01*
X87641569Y-110499309D01*
X87641569Y-110499307D01*
X87566192Y-110317328D01*
X87566185Y-110317315D01*
X87456751Y-110153537D01*
X87456748Y-110153533D01*
X87317466Y-110014251D01*
X87317462Y-110014248D01*
X87153684Y-109904814D01*
X87153671Y-109904807D01*
X86971693Y-109829430D01*
X86971681Y-109829427D01*
X86778495Y-109791000D01*
X86530000Y-109791000D01*
X86530000Y-110491000D01*
X86030000Y-110491000D01*
X86030000Y-109791000D01*
X85781504Y-109791000D01*
X85588318Y-109829427D01*
X85588306Y-109829430D01*
X85406328Y-109904807D01*
X85400947Y-109907684D01*
X85400198Y-109906283D01*
X85340892Y-109924848D01*
X85273513Y-109906358D01*
X85226827Y-109854376D01*
X85214688Y-109800868D01*
X85214688Y-108060996D01*
X89054508Y-108060996D01*
X89054508Y-108061003D01*
X89074352Y-108186300D01*
X89074352Y-108186301D01*
X89074354Y-108186304D01*
X89131950Y-108299342D01*
X89131952Y-108299344D01*
X89131954Y-108299347D01*
X89221652Y-108389045D01*
X89221654Y-108389046D01*
X89221658Y-108389050D01*
X89334696Y-108446646D01*
X89334697Y-108446646D01*
X89334699Y-108446647D01*
X89459997Y-108466492D01*
X89460000Y-108466492D01*
X89460003Y-108466492D01*
X89585300Y-108446647D01*
X89585301Y-108446647D01*
X89585302Y-108446646D01*
X89585304Y-108446646D01*
X89698342Y-108389050D01*
X89788050Y-108299342D01*
X89845646Y-108186304D01*
X89845646Y-108186302D01*
X89845647Y-108186301D01*
X89845647Y-108186300D01*
X89865492Y-108061003D01*
X89865492Y-108060996D01*
X89845647Y-107935699D01*
X89845647Y-107935698D01*
X89845646Y-107935696D01*
X89788050Y-107822658D01*
X89788046Y-107822654D01*
X89788045Y-107822652D01*
X89698347Y-107732954D01*
X89698344Y-107732952D01*
X89698342Y-107732950D01*
X89585304Y-107675354D01*
X89585303Y-107675353D01*
X89585300Y-107675352D01*
X89460003Y-107655508D01*
X89459997Y-107655508D01*
X89334699Y-107675352D01*
X89334698Y-107675352D01*
X89272935Y-107706823D01*
X89221658Y-107732950D01*
X89221657Y-107732951D01*
X89221652Y-107732954D01*
X89131954Y-107822652D01*
X89131951Y-107822657D01*
X89074352Y-107935698D01*
X89074352Y-107935699D01*
X89054508Y-108060996D01*
X85214688Y-108060996D01*
X85214688Y-107651267D01*
X105108284Y-107651267D01*
X105267053Y-107706823D01*
X105267058Y-107706824D01*
X105434996Y-107725746D01*
X105435004Y-107725746D01*
X105602938Y-107706824D01*
X105602943Y-107706823D01*
X105761713Y-107651267D01*
X105761714Y-107651267D01*
X106108284Y-107651267D01*
X106267053Y-107706823D01*
X106267058Y-107706824D01*
X106434996Y-107725746D01*
X106435004Y-107725746D01*
X106602938Y-107706824D01*
X106602943Y-107706823D01*
X106761713Y-107651267D01*
X106761714Y-107651267D01*
X107108284Y-107651267D01*
X107267053Y-107706823D01*
X107267058Y-107706824D01*
X107434996Y-107725746D01*
X107435004Y-107725746D01*
X107602938Y-107706824D01*
X107602943Y-107706823D01*
X107761713Y-107651267D01*
X107761714Y-107651267D01*
X107435001Y-107324554D01*
X107435000Y-107324554D01*
X107108284Y-107651267D01*
X106761714Y-107651267D01*
X106435001Y-107324554D01*
X106435000Y-107324554D01*
X106108284Y-107651267D01*
X105761714Y-107651267D01*
X105435001Y-107324554D01*
X105435000Y-107324554D01*
X105108284Y-107651267D01*
X85214688Y-107651267D01*
X85214688Y-106470996D01*
X92464508Y-106470996D01*
X92464508Y-106471003D01*
X92484352Y-106596300D01*
X92484352Y-106596301D01*
X92484354Y-106596304D01*
X92541950Y-106709342D01*
X92541952Y-106709344D01*
X92541954Y-106709347D01*
X92631652Y-106799045D01*
X92631654Y-106799046D01*
X92631658Y-106799050D01*
X92744696Y-106856646D01*
X92744697Y-106856646D01*
X92744699Y-106856647D01*
X92869997Y-106876492D01*
X92870000Y-106876492D01*
X92870003Y-106876492D01*
X92995300Y-106856647D01*
X92995301Y-106856647D01*
X92995302Y-106856646D01*
X92995304Y-106856646D01*
X93108342Y-106799050D01*
X93146396Y-106760996D01*
X101584508Y-106760996D01*
X101584508Y-106761003D01*
X101604352Y-106886300D01*
X101604352Y-106886301D01*
X101616557Y-106910254D01*
X101661950Y-106999342D01*
X101661952Y-106999344D01*
X101661954Y-106999347D01*
X101751652Y-107089045D01*
X101751654Y-107089046D01*
X101751658Y-107089050D01*
X101864696Y-107146646D01*
X101864697Y-107146646D01*
X101864699Y-107146647D01*
X101989997Y-107166492D01*
X101990000Y-107166492D01*
X101990003Y-107166492D01*
X102115300Y-107146647D01*
X102115301Y-107146647D01*
X102115302Y-107146646D01*
X102115304Y-107146646D01*
X102228342Y-107089050D01*
X102318050Y-106999342D01*
X102332493Y-106970996D01*
X104680254Y-106970996D01*
X104680254Y-106971003D01*
X104699176Y-107138944D01*
X104754731Y-107297713D01*
X105081446Y-106971000D01*
X105061555Y-106951109D01*
X105335000Y-106951109D01*
X105335000Y-106990891D01*
X105350224Y-107027645D01*
X105378355Y-107055776D01*
X105415109Y-107071000D01*
X105454891Y-107071000D01*
X105491645Y-107055776D01*
X105519776Y-107027645D01*
X105535000Y-106990891D01*
X105535000Y-106971000D01*
X105788554Y-106971000D01*
X105935000Y-107117446D01*
X106081446Y-106971000D01*
X106061555Y-106951109D01*
X106335000Y-106951109D01*
X106335000Y-106990891D01*
X106350224Y-107027645D01*
X106378355Y-107055776D01*
X106415109Y-107071000D01*
X106454891Y-107071000D01*
X106491645Y-107055776D01*
X106519776Y-107027645D01*
X106535000Y-106990891D01*
X106535000Y-106971000D01*
X106788554Y-106971000D01*
X106935000Y-107117446D01*
X107081446Y-106971000D01*
X107061555Y-106951109D01*
X107335000Y-106951109D01*
X107335000Y-106990891D01*
X107350224Y-107027645D01*
X107378355Y-107055776D01*
X107415109Y-107071000D01*
X107454891Y-107071000D01*
X107491645Y-107055776D01*
X107519776Y-107027645D01*
X107535000Y-106990891D01*
X107535000Y-106970999D01*
X107788554Y-106970999D01*
X107788554Y-106971001D01*
X108115267Y-107297714D01*
X108115267Y-107297713D01*
X108170823Y-107138943D01*
X108170824Y-107138938D01*
X108189746Y-106971003D01*
X108189746Y-106970996D01*
X108170824Y-106803058D01*
X108170823Y-106803053D01*
X108145609Y-106730996D01*
X113314435Y-106730996D01*
X113314435Y-106731003D01*
X113334630Y-106910249D01*
X113334631Y-106910254D01*
X113394211Y-107080523D01*
X113490184Y-107233262D01*
X113617738Y-107360816D01*
X113770478Y-107456789D01*
X113940745Y-107516368D01*
X113940750Y-107516369D01*
X114119996Y-107536565D01*
X114120000Y-107536565D01*
X114120004Y-107536565D01*
X114299249Y-107516369D01*
X114299252Y-107516368D01*
X114299255Y-107516368D01*
X114469522Y-107456789D01*
X114622262Y-107360816D01*
X114749816Y-107233262D01*
X114845789Y-107080522D01*
X114905368Y-106910255D01*
X114911408Y-106856647D01*
X114925565Y-106731003D01*
X114925565Y-106730996D01*
X114905369Y-106551750D01*
X114905368Y-106551745D01*
X114845788Y-106381476D01*
X114806582Y-106319080D01*
X114749816Y-106228738D01*
X114622262Y-106101184D01*
X114597066Y-106085352D01*
X114469523Y-106005211D01*
X114299254Y-105945631D01*
X114299249Y-105945630D01*
X114120004Y-105925435D01*
X114119996Y-105925435D01*
X113940750Y-105945630D01*
X113940745Y-105945631D01*
X113770476Y-106005211D01*
X113617737Y-106101184D01*
X113490184Y-106228737D01*
X113394211Y-106381476D01*
X113334631Y-106551745D01*
X113334630Y-106551750D01*
X113314435Y-106730996D01*
X108145609Y-106730996D01*
X108115267Y-106644285D01*
X108115267Y-106644284D01*
X107788554Y-106970999D01*
X107535000Y-106970999D01*
X107535000Y-106951109D01*
X107519776Y-106914355D01*
X107491645Y-106886224D01*
X107454891Y-106871000D01*
X107415109Y-106871000D01*
X107378355Y-106886224D01*
X107350224Y-106914355D01*
X107335000Y-106951109D01*
X107061555Y-106951109D01*
X106935000Y-106824554D01*
X106788554Y-106971000D01*
X106535000Y-106971000D01*
X106535000Y-106951109D01*
X106519776Y-106914355D01*
X106491645Y-106886224D01*
X106454891Y-106871000D01*
X106415109Y-106871000D01*
X106378355Y-106886224D01*
X106350224Y-106914355D01*
X106335000Y-106951109D01*
X106061555Y-106951109D01*
X105935000Y-106824554D01*
X105788554Y-106971000D01*
X105535000Y-106971000D01*
X105535000Y-106951109D01*
X105519776Y-106914355D01*
X105491645Y-106886224D01*
X105454891Y-106871000D01*
X105415109Y-106871000D01*
X105378355Y-106886224D01*
X105350224Y-106914355D01*
X105335000Y-106951109D01*
X105061555Y-106951109D01*
X104754731Y-106644285D01*
X104699176Y-106803055D01*
X104680254Y-106970996D01*
X102332493Y-106970996D01*
X102375646Y-106886304D01*
X102375646Y-106886302D01*
X102375647Y-106886301D01*
X102375647Y-106886300D01*
X102395492Y-106761003D01*
X102395492Y-106760996D01*
X102375647Y-106635699D01*
X102375647Y-106635698D01*
X102366347Y-106617446D01*
X102318050Y-106522658D01*
X102318046Y-106522654D01*
X102318045Y-106522652D01*
X102266393Y-106471000D01*
X105288554Y-106471000D01*
X105435000Y-106617446D01*
X105581446Y-106471000D01*
X106288554Y-106471000D01*
X106435000Y-106617446D01*
X106581446Y-106471000D01*
X107288554Y-106471000D01*
X107435000Y-106617446D01*
X107581446Y-106471000D01*
X107435000Y-106324554D01*
X107288554Y-106471000D01*
X106581446Y-106471000D01*
X106435000Y-106324554D01*
X106288554Y-106471000D01*
X105581446Y-106471000D01*
X105435000Y-106324554D01*
X105288554Y-106471000D01*
X102266393Y-106471000D01*
X102228347Y-106432954D01*
X102228344Y-106432952D01*
X102228342Y-106432950D01*
X102115304Y-106375354D01*
X102115303Y-106375353D01*
X102115300Y-106375352D01*
X101985293Y-106354762D01*
X101949621Y-106337852D01*
X101945166Y-106344572D01*
X101884711Y-106372183D01*
X101864697Y-106375353D01*
X101808177Y-106404152D01*
X101751658Y-106432950D01*
X101751657Y-106432951D01*
X101751652Y-106432954D01*
X101661954Y-106522652D01*
X101661951Y-106522657D01*
X101604352Y-106635698D01*
X101604352Y-106635699D01*
X101584508Y-106760996D01*
X93146396Y-106760996D01*
X93198050Y-106709342D01*
X93255646Y-106596304D01*
X93255646Y-106596302D01*
X93255647Y-106596301D01*
X93255647Y-106596300D01*
X93275492Y-106471003D01*
X93275492Y-106470996D01*
X93255647Y-106345699D01*
X93255647Y-106345698D01*
X93251649Y-106337852D01*
X93198050Y-106232658D01*
X93198046Y-106232654D01*
X93198045Y-106232652D01*
X93108347Y-106142954D01*
X93108344Y-106142952D01*
X93108342Y-106142950D01*
X92995304Y-106085354D01*
X92995303Y-106085353D01*
X92995300Y-106085352D01*
X92870003Y-106065508D01*
X92869997Y-106065508D01*
X92744699Y-106085352D01*
X92744698Y-106085352D01*
X92681712Y-106117446D01*
X92631658Y-106142950D01*
X92631657Y-106142951D01*
X92631652Y-106142954D01*
X92541954Y-106232652D01*
X92541951Y-106232657D01*
X92484352Y-106345698D01*
X92484352Y-106345699D01*
X92464508Y-106470996D01*
X85214688Y-106470996D01*
X85214688Y-105720996D01*
X101474508Y-105720996D01*
X101474508Y-105721003D01*
X101494352Y-105846300D01*
X101494352Y-105846301D01*
X101494354Y-105846304D01*
X101551950Y-105959342D01*
X101551952Y-105959344D01*
X101551954Y-105959347D01*
X101641652Y-106049045D01*
X101641654Y-106049046D01*
X101641658Y-106049050D01*
X101754696Y-106106646D01*
X101880000Y-106126492D01*
X101880004Y-106126491D01*
X101884706Y-106127236D01*
X101920377Y-106144146D01*
X101924833Y-106137426D01*
X101985291Y-106109815D01*
X102005304Y-106106646D01*
X102118342Y-106049050D01*
X102196396Y-105970996D01*
X104680254Y-105970996D01*
X104680254Y-105971003D01*
X104699176Y-106138944D01*
X104754731Y-106297713D01*
X105081446Y-105971000D01*
X105061555Y-105951109D01*
X105335000Y-105951109D01*
X105335000Y-105990891D01*
X105350224Y-106027645D01*
X105378355Y-106055776D01*
X105415109Y-106071000D01*
X105454891Y-106071000D01*
X105491645Y-106055776D01*
X105519776Y-106027645D01*
X105535000Y-105990891D01*
X105535000Y-105971000D01*
X105788554Y-105971000D01*
X105935000Y-106117446D01*
X106081446Y-105971000D01*
X106061555Y-105951109D01*
X106335000Y-105951109D01*
X106335000Y-105990891D01*
X106350224Y-106027645D01*
X106378355Y-106055776D01*
X106415109Y-106071000D01*
X106454891Y-106071000D01*
X106491645Y-106055776D01*
X106519776Y-106027645D01*
X106535000Y-105990891D01*
X106535000Y-105971000D01*
X106788554Y-105971000D01*
X106935000Y-106117446D01*
X107081446Y-105971000D01*
X107061555Y-105951109D01*
X107335000Y-105951109D01*
X107335000Y-105990891D01*
X107350224Y-106027645D01*
X107378355Y-106055776D01*
X107415109Y-106071000D01*
X107454891Y-106071000D01*
X107491645Y-106055776D01*
X107519776Y-106027645D01*
X107535000Y-105990891D01*
X107535000Y-105970999D01*
X107788554Y-105970999D01*
X107788554Y-105971001D01*
X108115267Y-106297714D01*
X108115267Y-106297713D01*
X108170823Y-106138943D01*
X108170824Y-106138938D01*
X108189746Y-105971003D01*
X108189746Y-105970996D01*
X108170824Y-105803058D01*
X108170823Y-105803053D01*
X108115267Y-105644285D01*
X108115267Y-105644284D01*
X107788554Y-105970999D01*
X107535000Y-105970999D01*
X107535000Y-105951109D01*
X107519776Y-105914355D01*
X107491645Y-105886224D01*
X107454891Y-105871000D01*
X107415109Y-105871000D01*
X107378355Y-105886224D01*
X107350224Y-105914355D01*
X107335000Y-105951109D01*
X107061555Y-105951109D01*
X106935000Y-105824554D01*
X106788554Y-105971000D01*
X106535000Y-105971000D01*
X106535000Y-105951109D01*
X106519776Y-105914355D01*
X106491645Y-105886224D01*
X106454891Y-105871000D01*
X106415109Y-105871000D01*
X106378355Y-105886224D01*
X106350224Y-105914355D01*
X106335000Y-105951109D01*
X106061555Y-105951109D01*
X105935000Y-105824554D01*
X105788554Y-105971000D01*
X105535000Y-105971000D01*
X105535000Y-105951109D01*
X105519776Y-105914355D01*
X105491645Y-105886224D01*
X105454891Y-105871000D01*
X105415109Y-105871000D01*
X105378355Y-105886224D01*
X105350224Y-105914355D01*
X105335000Y-105951109D01*
X105061555Y-105951109D01*
X104754731Y-105644285D01*
X104699176Y-105803055D01*
X104680254Y-105970996D01*
X102196396Y-105970996D01*
X102208050Y-105959342D01*
X102265646Y-105846304D01*
X102265646Y-105846302D01*
X102265647Y-105846301D01*
X102265647Y-105846300D01*
X102285492Y-105721003D01*
X102285492Y-105720996D01*
X102265647Y-105595699D01*
X102265647Y-105595698D01*
X102252218Y-105569342D01*
X102208050Y-105482658D01*
X102208046Y-105482654D01*
X102208045Y-105482652D01*
X102196393Y-105471000D01*
X105288554Y-105471000D01*
X105435000Y-105617446D01*
X105581446Y-105471000D01*
X106288554Y-105471000D01*
X106435000Y-105617446D01*
X106581446Y-105471000D01*
X107288554Y-105471000D01*
X107435000Y-105617446D01*
X107581446Y-105471000D01*
X107441442Y-105330996D01*
X109444508Y-105330996D01*
X109444508Y-105331003D01*
X109464352Y-105456300D01*
X109464352Y-105456301D01*
X109477782Y-105482658D01*
X109521950Y-105569342D01*
X109521952Y-105569344D01*
X109521954Y-105569347D01*
X109611652Y-105659045D01*
X109611654Y-105659046D01*
X109611658Y-105659050D01*
X109724696Y-105716646D01*
X109724697Y-105716646D01*
X109724699Y-105716647D01*
X109849997Y-105736492D01*
X109850000Y-105736492D01*
X109850003Y-105736492D01*
X109975300Y-105716647D01*
X109975301Y-105716647D01*
X109975302Y-105716646D01*
X109975304Y-105716646D01*
X110088342Y-105659050D01*
X110178050Y-105569342D01*
X110235646Y-105456304D01*
X110235646Y-105456302D01*
X110235647Y-105456301D01*
X110235647Y-105456300D01*
X110255492Y-105331003D01*
X110255492Y-105330996D01*
X110235647Y-105205699D01*
X110235647Y-105205698D01*
X110235646Y-105205696D01*
X110178050Y-105092658D01*
X110178046Y-105092654D01*
X110178045Y-105092652D01*
X110088347Y-105002954D01*
X110088344Y-105002952D01*
X110088342Y-105002950D01*
X109975304Y-104945354D01*
X109975303Y-104945353D01*
X109975300Y-104945352D01*
X109850003Y-104925508D01*
X109849997Y-104925508D01*
X109724699Y-104945352D01*
X109724698Y-104945352D01*
X109674361Y-104971001D01*
X109611658Y-105002950D01*
X109611657Y-105002951D01*
X109611652Y-105002954D01*
X109521954Y-105092652D01*
X109521951Y-105092657D01*
X109464352Y-105205698D01*
X109464352Y-105205699D01*
X109444508Y-105330996D01*
X107441442Y-105330996D01*
X107435000Y-105324554D01*
X107288554Y-105471000D01*
X106581446Y-105471000D01*
X106435000Y-105324554D01*
X106288554Y-105471000D01*
X105581446Y-105471000D01*
X105435000Y-105324554D01*
X105288554Y-105471000D01*
X102196393Y-105471000D01*
X102118347Y-105392954D01*
X102118344Y-105392952D01*
X102118342Y-105392950D01*
X102005304Y-105335354D01*
X102005303Y-105335353D01*
X102005300Y-105335352D01*
X101880003Y-105315508D01*
X101879997Y-105315508D01*
X101754699Y-105335352D01*
X101754698Y-105335352D01*
X101679337Y-105373751D01*
X101641658Y-105392950D01*
X101641657Y-105392951D01*
X101641652Y-105392954D01*
X101551954Y-105482652D01*
X101551951Y-105482657D01*
X101494352Y-105595698D01*
X101494352Y-105595699D01*
X101474508Y-105720996D01*
X85214688Y-105720996D01*
X85214688Y-104970996D01*
X104680254Y-104970996D01*
X104680254Y-104971003D01*
X104699176Y-105138944D01*
X104754731Y-105297713D01*
X105081446Y-104971000D01*
X105061555Y-104951109D01*
X105335000Y-104951109D01*
X105335000Y-104990891D01*
X105350224Y-105027645D01*
X105378355Y-105055776D01*
X105415109Y-105071000D01*
X105454891Y-105071000D01*
X105491645Y-105055776D01*
X105519776Y-105027645D01*
X105535000Y-104990891D01*
X105535000Y-104971000D01*
X105788554Y-104971000D01*
X105935000Y-105117446D01*
X106081446Y-104971000D01*
X106061555Y-104951109D01*
X106335000Y-104951109D01*
X106335000Y-104990891D01*
X106350224Y-105027645D01*
X106378355Y-105055776D01*
X106415109Y-105071000D01*
X106454891Y-105071000D01*
X106491645Y-105055776D01*
X106519776Y-105027645D01*
X106535000Y-104990891D01*
X106535000Y-104971000D01*
X106788554Y-104971000D01*
X106935000Y-105117446D01*
X107081446Y-104971000D01*
X107061555Y-104951109D01*
X107335000Y-104951109D01*
X107335000Y-104990891D01*
X107350224Y-105027645D01*
X107378355Y-105055776D01*
X107415109Y-105071000D01*
X107454891Y-105071000D01*
X107491645Y-105055776D01*
X107519776Y-105027645D01*
X107535000Y-104990891D01*
X107535000Y-104970999D01*
X107788554Y-104970999D01*
X107788554Y-104971001D01*
X108115267Y-105297714D01*
X108115267Y-105297713D01*
X108170823Y-105138943D01*
X108170824Y-105138938D01*
X108189746Y-104971003D01*
X108189746Y-104970996D01*
X108170824Y-104803058D01*
X108170823Y-104803053D01*
X108115267Y-104644285D01*
X108115267Y-104644284D01*
X107788554Y-104970999D01*
X107535000Y-104970999D01*
X107535000Y-104951109D01*
X107519776Y-104914355D01*
X107491645Y-104886224D01*
X107454891Y-104871000D01*
X107415109Y-104871000D01*
X107378355Y-104886224D01*
X107350224Y-104914355D01*
X107335000Y-104951109D01*
X107061555Y-104951109D01*
X106935000Y-104824554D01*
X106788554Y-104971000D01*
X106535000Y-104971000D01*
X106535000Y-104951109D01*
X106519776Y-104914355D01*
X106491645Y-104886224D01*
X106454891Y-104871000D01*
X106415109Y-104871000D01*
X106378355Y-104886224D01*
X106350224Y-104914355D01*
X106335000Y-104951109D01*
X106061555Y-104951109D01*
X105935000Y-104824554D01*
X105788554Y-104971000D01*
X105535000Y-104971000D01*
X105535000Y-104951109D01*
X105519776Y-104914355D01*
X105491645Y-104886224D01*
X105454891Y-104871000D01*
X105415109Y-104871000D01*
X105378355Y-104886224D01*
X105350224Y-104914355D01*
X105335000Y-104951109D01*
X105061555Y-104951109D01*
X104754731Y-104644285D01*
X104699176Y-104803055D01*
X104680254Y-104970996D01*
X85214688Y-104970996D01*
X85214688Y-103141131D01*
X85234373Y-103074092D01*
X85287177Y-103028337D01*
X85356335Y-103018393D01*
X85400425Y-103035290D01*
X85400947Y-103034316D01*
X85406328Y-103037192D01*
X85588306Y-103112569D01*
X85588318Y-103112572D01*
X85781504Y-103150999D01*
X85781508Y-103151000D01*
X86030000Y-103151000D01*
X86030000Y-102451000D01*
X86530000Y-102451000D01*
X86530000Y-103151000D01*
X86778492Y-103151000D01*
X86778495Y-103150999D01*
X86971681Y-103112572D01*
X86971693Y-103112569D01*
X87153671Y-103037192D01*
X87153684Y-103037185D01*
X87317462Y-102927751D01*
X87317466Y-102927748D01*
X87456748Y-102788466D01*
X87456751Y-102788462D01*
X87566185Y-102624684D01*
X87566192Y-102624671D01*
X87641569Y-102442692D01*
X87641569Y-102442690D01*
X87649862Y-102401000D01*
X86846988Y-102401000D01*
X86864205Y-102391060D01*
X86920060Y-102335205D01*
X86959556Y-102266796D01*
X86980000Y-102190496D01*
X86980000Y-102111504D01*
X86959556Y-102035204D01*
X86920060Y-101966795D01*
X86864205Y-101910940D01*
X86846988Y-101901000D01*
X87649862Y-101901000D01*
X88960138Y-101901000D01*
X89763012Y-101901000D01*
X89745795Y-101910940D01*
X89689940Y-101966795D01*
X89650444Y-102035204D01*
X89630000Y-102111504D01*
X89630000Y-102190496D01*
X89650444Y-102266796D01*
X89689940Y-102335205D01*
X89745795Y-102391060D01*
X89763012Y-102401000D01*
X88960138Y-102401000D01*
X88968430Y-102442690D01*
X88968430Y-102442692D01*
X89043807Y-102624671D01*
X89043814Y-102624684D01*
X89153248Y-102788462D01*
X89153251Y-102788466D01*
X89292533Y-102927748D01*
X89292537Y-102927751D01*
X89456318Y-103037187D01*
X89461660Y-103040042D01*
X89511508Y-103089001D01*
X89526973Y-103157138D01*
X89503145Y-103222819D01*
X89501596Y-103224882D01*
X89499490Y-103227626D01*
X89423719Y-103358863D01*
X89384500Y-103505234D01*
X89384500Y-103656766D01*
X89392160Y-103685352D01*
X89423719Y-103803136D01*
X89440764Y-103832658D01*
X89499485Y-103934365D01*
X89606635Y-104041515D01*
X89737865Y-104117281D01*
X89884234Y-104156500D01*
X89884236Y-104156500D01*
X90035764Y-104156500D01*
X90035766Y-104156500D01*
X90182135Y-104117281D01*
X90262303Y-104070996D01*
X91824508Y-104070996D01*
X91824508Y-104071003D01*
X91844352Y-104196300D01*
X91844352Y-104196301D01*
X91844354Y-104196304D01*
X91901950Y-104309342D01*
X91901952Y-104309344D01*
X91901954Y-104309347D01*
X91991652Y-104399045D01*
X91991654Y-104399046D01*
X91991658Y-104399050D01*
X92104696Y-104456646D01*
X92104697Y-104456646D01*
X92104699Y-104456647D01*
X92229997Y-104476492D01*
X92230000Y-104476492D01*
X92230003Y-104476492D01*
X92355300Y-104456647D01*
X92355301Y-104456647D01*
X92355302Y-104456646D01*
X92355304Y-104456646D01*
X92468342Y-104399050D01*
X92558050Y-104309342D01*
X92567533Y-104290731D01*
X105108285Y-104290731D01*
X105435000Y-104617446D01*
X105435001Y-104617446D01*
X105761714Y-104290731D01*
X106108285Y-104290731D01*
X106435000Y-104617446D01*
X106435001Y-104617446D01*
X106761714Y-104290731D01*
X107108285Y-104290731D01*
X107435000Y-104617446D01*
X107435001Y-104617446D01*
X107761714Y-104290731D01*
X107602944Y-104235176D01*
X107435004Y-104216254D01*
X107434996Y-104216254D01*
X107267055Y-104235176D01*
X107108285Y-104290731D01*
X106761714Y-104290731D01*
X106602944Y-104235176D01*
X106435004Y-104216254D01*
X106434996Y-104216254D01*
X106267055Y-104235176D01*
X106108285Y-104290731D01*
X105761714Y-104290731D01*
X105602944Y-104235176D01*
X105435004Y-104216254D01*
X105434996Y-104216254D01*
X105267055Y-104235176D01*
X105108285Y-104290731D01*
X92567533Y-104290731D01*
X92615646Y-104196304D01*
X92615646Y-104196302D01*
X92615647Y-104196301D01*
X92615647Y-104196300D01*
X92635492Y-104071003D01*
X92635492Y-104070996D01*
X92615647Y-103945699D01*
X92615647Y-103945698D01*
X92615646Y-103945696D01*
X92558050Y-103832658D01*
X92558046Y-103832654D01*
X92558045Y-103832652D01*
X92468347Y-103742954D01*
X92468344Y-103742952D01*
X92468342Y-103742950D01*
X92355304Y-103685354D01*
X92355303Y-103685353D01*
X92355300Y-103685352D01*
X92230003Y-103665508D01*
X92229997Y-103665508D01*
X92104699Y-103685352D01*
X92104698Y-103685352D01*
X92029337Y-103723751D01*
X91991658Y-103742950D01*
X91991657Y-103742951D01*
X91991652Y-103742954D01*
X91901954Y-103832652D01*
X91901951Y-103832657D01*
X91844352Y-103945698D01*
X91844352Y-103945699D01*
X91824508Y-104070996D01*
X90262303Y-104070996D01*
X90313365Y-104041515D01*
X90420515Y-103934365D01*
X90496281Y-103803135D01*
X90535500Y-103656766D01*
X90535500Y-103505234D01*
X90496281Y-103358865D01*
X90420515Y-103227635D01*
X90313365Y-103120485D01*
X90291997Y-103108148D01*
X90243783Y-103057579D01*
X90230000Y-103000762D01*
X90230000Y-102451000D01*
X90730000Y-102451000D01*
X90730000Y-103151000D01*
X91128492Y-103151000D01*
X91128495Y-103150999D01*
X91321681Y-103112572D01*
X91321693Y-103112569D01*
X91503671Y-103037192D01*
X91503684Y-103037185D01*
X91667462Y-102927751D01*
X91667466Y-102927748D01*
X91806748Y-102788466D01*
X91806751Y-102788462D01*
X91916185Y-102624684D01*
X91916192Y-102624671D01*
X91991569Y-102442692D01*
X91991569Y-102442690D01*
X91999862Y-102401000D01*
X91196988Y-102401000D01*
X91214205Y-102391060D01*
X91270060Y-102335205D01*
X91309556Y-102266796D01*
X91330000Y-102190496D01*
X91330000Y-102111504D01*
X91309556Y-102035204D01*
X91270060Y-101966795D01*
X91214205Y-101910940D01*
X91196988Y-101901000D01*
X91999862Y-101901000D01*
X91991569Y-101859309D01*
X91991569Y-101859307D01*
X91967416Y-101800996D01*
X108444508Y-101800996D01*
X108444508Y-101801003D01*
X108464352Y-101926300D01*
X108464352Y-101926301D01*
X108464354Y-101926304D01*
X108521950Y-102039342D01*
X108521952Y-102039344D01*
X108521954Y-102039347D01*
X108611652Y-102129045D01*
X108611654Y-102129046D01*
X108611658Y-102129050D01*
X108724696Y-102186646D01*
X108724697Y-102186646D01*
X108724699Y-102186647D01*
X108849997Y-102206492D01*
X108850000Y-102206492D01*
X108850003Y-102206492D01*
X108975300Y-102186647D01*
X108975301Y-102186647D01*
X108975302Y-102186646D01*
X108975304Y-102186646D01*
X109088342Y-102129050D01*
X109178050Y-102039342D01*
X109235646Y-101926304D01*
X109235646Y-101926302D01*
X109235647Y-101926301D01*
X109235647Y-101926300D01*
X109255492Y-101801003D01*
X109255492Y-101800996D01*
X109235647Y-101675699D01*
X109235647Y-101675698D01*
X109209301Y-101623992D01*
X109178050Y-101562658D01*
X109178046Y-101562654D01*
X109178045Y-101562652D01*
X109088347Y-101472954D01*
X109088344Y-101472952D01*
X109088342Y-101472950D01*
X108975304Y-101415354D01*
X108975303Y-101415353D01*
X108975300Y-101415352D01*
X108850003Y-101395508D01*
X108849997Y-101395508D01*
X108724699Y-101415352D01*
X108724698Y-101415352D01*
X108649337Y-101453751D01*
X108611658Y-101472950D01*
X108611657Y-101472951D01*
X108611652Y-101472954D01*
X108521954Y-101562652D01*
X108521951Y-101562657D01*
X108464352Y-101675698D01*
X108464352Y-101675699D01*
X108444508Y-101800996D01*
X91967416Y-101800996D01*
X91916192Y-101677328D01*
X91916185Y-101677315D01*
X91806751Y-101513537D01*
X91806748Y-101513533D01*
X91667466Y-101374251D01*
X91667462Y-101374248D01*
X91503684Y-101264814D01*
X91503671Y-101264807D01*
X91391865Y-101218496D01*
X112932008Y-101218496D01*
X112932008Y-101218503D01*
X112951852Y-101343800D01*
X112951852Y-101343801D01*
X112951854Y-101343804D01*
X113009450Y-101456842D01*
X113009452Y-101456844D01*
X113009454Y-101456847D01*
X113099152Y-101546545D01*
X113099154Y-101546546D01*
X113099158Y-101546550D01*
X113212196Y-101604146D01*
X113212197Y-101604146D01*
X113212199Y-101604147D01*
X113337497Y-101623992D01*
X113337500Y-101623992D01*
X113337503Y-101623992D01*
X113462800Y-101604147D01*
X113462801Y-101604147D01*
X113462802Y-101604146D01*
X113462804Y-101604146D01*
X113575842Y-101546550D01*
X113665550Y-101456842D01*
X113723146Y-101343804D01*
X113723146Y-101343802D01*
X113723147Y-101343801D01*
X113723147Y-101343800D01*
X113742992Y-101218503D01*
X113742992Y-101218496D01*
X113723147Y-101093199D01*
X113723147Y-101093198D01*
X113723146Y-101093196D01*
X113665550Y-100980158D01*
X113665546Y-100980154D01*
X113665545Y-100980152D01*
X113575847Y-100890454D01*
X113575844Y-100890452D01*
X113575842Y-100890450D01*
X113462804Y-100832854D01*
X113462803Y-100832853D01*
X113462800Y-100832852D01*
X113337503Y-100813008D01*
X113337497Y-100813008D01*
X113212199Y-100832852D01*
X113212198Y-100832852D01*
X113136837Y-100871251D01*
X113099158Y-100890450D01*
X113099157Y-100890451D01*
X113099152Y-100890454D01*
X113009454Y-100980152D01*
X113009451Y-100980157D01*
X112951852Y-101093198D01*
X112951852Y-101093199D01*
X112932008Y-101218496D01*
X91391865Y-101218496D01*
X91321693Y-101189430D01*
X91321681Y-101189427D01*
X91128495Y-101151000D01*
X90730000Y-101151000D01*
X90730000Y-101851000D01*
X90230000Y-101851000D01*
X90230000Y-101151000D01*
X89831504Y-101151000D01*
X89638318Y-101189427D01*
X89638306Y-101189430D01*
X89456328Y-101264807D01*
X89456315Y-101264814D01*
X89292537Y-101374248D01*
X89292533Y-101374251D01*
X89153251Y-101513533D01*
X89153248Y-101513537D01*
X89043814Y-101677315D01*
X89043807Y-101677328D01*
X88968430Y-101859307D01*
X88968430Y-101859309D01*
X88960138Y-101901000D01*
X87649862Y-101901000D01*
X87641569Y-101859309D01*
X87641569Y-101859307D01*
X87566192Y-101677328D01*
X87566185Y-101677315D01*
X87456751Y-101513537D01*
X87456748Y-101513533D01*
X87317466Y-101374251D01*
X87317462Y-101374248D01*
X87153684Y-101264814D01*
X87153671Y-101264807D01*
X86971693Y-101189430D01*
X86971681Y-101189427D01*
X86778495Y-101151000D01*
X86530000Y-101151000D01*
X86530000Y-101851000D01*
X86030000Y-101851000D01*
X86030000Y-101151000D01*
X85781504Y-101151000D01*
X85588318Y-101189427D01*
X85588306Y-101189430D01*
X85406328Y-101264807D01*
X85400947Y-101267684D01*
X85400198Y-101266283D01*
X85340892Y-101284848D01*
X85273513Y-101266358D01*
X85226827Y-101214376D01*
X85214688Y-101160868D01*
X85214688Y-100520996D01*
X107734508Y-100520996D01*
X107734508Y-100521003D01*
X107754352Y-100646300D01*
X107754352Y-100646301D01*
X107754354Y-100646304D01*
X107811950Y-100759342D01*
X107811952Y-100759344D01*
X107811954Y-100759347D01*
X107901652Y-100849045D01*
X107901654Y-100849046D01*
X107901658Y-100849050D01*
X108014696Y-100906646D01*
X108014697Y-100906646D01*
X108014699Y-100906647D01*
X108139997Y-100926492D01*
X108140000Y-100926492D01*
X108140003Y-100926492D01*
X108265300Y-100906647D01*
X108265301Y-100906647D01*
X108265302Y-100906646D01*
X108265304Y-100906646D01*
X108378342Y-100849050D01*
X108468050Y-100759342D01*
X108525646Y-100646304D01*
X108525646Y-100646302D01*
X108525647Y-100646301D01*
X108525647Y-100646300D01*
X108545492Y-100521003D01*
X108545492Y-100520996D01*
X108525647Y-100395699D01*
X108525647Y-100395698D01*
X108525646Y-100395696D01*
X108468050Y-100282658D01*
X108468046Y-100282654D01*
X108468045Y-100282652D01*
X108378347Y-100192954D01*
X108378344Y-100192952D01*
X108378342Y-100192950D01*
X108265304Y-100135354D01*
X108265303Y-100135353D01*
X108265300Y-100135352D01*
X108140003Y-100115508D01*
X108139997Y-100115508D01*
X108014699Y-100135352D01*
X108014698Y-100135352D01*
X107939337Y-100173751D01*
X107901658Y-100192950D01*
X107901657Y-100192951D01*
X107901652Y-100192954D01*
X107811954Y-100282652D01*
X107811951Y-100282657D01*
X107754352Y-100395698D01*
X107754352Y-100395699D01*
X107734508Y-100520996D01*
X85214688Y-100520996D01*
X85214688Y-99330996D01*
X113204508Y-99330996D01*
X113204508Y-99331003D01*
X113224352Y-99456300D01*
X113224352Y-99456301D01*
X113224354Y-99456304D01*
X113281950Y-99569342D01*
X113281952Y-99569344D01*
X113281954Y-99569347D01*
X113371652Y-99659045D01*
X113371654Y-99659046D01*
X113371658Y-99659050D01*
X113484696Y-99716646D01*
X113484697Y-99716646D01*
X113484699Y-99716647D01*
X113609997Y-99736492D01*
X113610000Y-99736492D01*
X113610003Y-99736492D01*
X113735300Y-99716647D01*
X113735301Y-99716647D01*
X113735302Y-99716646D01*
X113735304Y-99716646D01*
X113848342Y-99659050D01*
X113938050Y-99569342D01*
X113995646Y-99456304D01*
X113995646Y-99456302D01*
X113995647Y-99456301D01*
X113995647Y-99456300D01*
X114015492Y-99331003D01*
X114015492Y-99330996D01*
X113995647Y-99205699D01*
X113995647Y-99205698D01*
X113995646Y-99205696D01*
X113938050Y-99092658D01*
X113938046Y-99092654D01*
X113938045Y-99092652D01*
X113848347Y-99002954D01*
X113848344Y-99002952D01*
X113848342Y-99002950D01*
X113735304Y-98945354D01*
X113735303Y-98945353D01*
X113735300Y-98945352D01*
X113610003Y-98925508D01*
X113609997Y-98925508D01*
X113484699Y-98945352D01*
X113484698Y-98945352D01*
X113409337Y-98983751D01*
X113371658Y-99002950D01*
X113371657Y-99002951D01*
X113371652Y-99002954D01*
X113281954Y-99092652D01*
X113281951Y-99092657D01*
X113224352Y-99205698D01*
X113224352Y-99205699D01*
X113204508Y-99330996D01*
X85214688Y-99330996D01*
X85214688Y-98500996D01*
X103544508Y-98500996D01*
X103544508Y-98501003D01*
X103564352Y-98626300D01*
X103564352Y-98626301D01*
X103564354Y-98626304D01*
X103621950Y-98739342D01*
X103621952Y-98739344D01*
X103621954Y-98739347D01*
X103711652Y-98829045D01*
X103711654Y-98829046D01*
X103711658Y-98829050D01*
X103824696Y-98886646D01*
X103824697Y-98886646D01*
X103824699Y-98886647D01*
X103949997Y-98906492D01*
X103950000Y-98906492D01*
X103950003Y-98906492D01*
X104075300Y-98886647D01*
X104075301Y-98886647D01*
X104075302Y-98886646D01*
X104075304Y-98886646D01*
X104188342Y-98829050D01*
X104278050Y-98739342D01*
X104335646Y-98626304D01*
X104335646Y-98626302D01*
X104335647Y-98626301D01*
X104335647Y-98626300D01*
X104355492Y-98501003D01*
X104355492Y-98500996D01*
X104335647Y-98375699D01*
X104335647Y-98375698D01*
X104335646Y-98375696D01*
X104278050Y-98262658D01*
X104278046Y-98262654D01*
X104278045Y-98262652D01*
X104188347Y-98172954D01*
X104188344Y-98172952D01*
X104188342Y-98172950D01*
X104075304Y-98115354D01*
X104075303Y-98115353D01*
X104075300Y-98115352D01*
X103950003Y-98095508D01*
X103949997Y-98095508D01*
X103824699Y-98115352D01*
X103824698Y-98115352D01*
X103749337Y-98153751D01*
X103711658Y-98172950D01*
X103711657Y-98172951D01*
X103711652Y-98172954D01*
X103621954Y-98262652D01*
X103621951Y-98262657D01*
X103564352Y-98375698D01*
X103564352Y-98375699D01*
X103544508Y-98500996D01*
X85214688Y-98500996D01*
X85214688Y-96271000D01*
X93484750Y-96271000D01*
X93498488Y-96375352D01*
X93503670Y-96414708D01*
X93503671Y-96414712D01*
X93559137Y-96548622D01*
X93559138Y-96548624D01*
X93559139Y-96548625D01*
X93647379Y-96663621D01*
X93762375Y-96751861D01*
X93896291Y-96807330D01*
X94023280Y-96824048D01*
X94039999Y-96826250D01*
X94040000Y-96826250D01*
X94040001Y-96826250D01*
X94054977Y-96824278D01*
X94183709Y-96807330D01*
X94295571Y-96760996D01*
X113184508Y-96760996D01*
X113184508Y-96761003D01*
X113204352Y-96886300D01*
X113204352Y-96886301D01*
X113204354Y-96886304D01*
X113261950Y-96999342D01*
X113261952Y-96999344D01*
X113261954Y-96999347D01*
X113351652Y-97089045D01*
X113351654Y-97089046D01*
X113351658Y-97089050D01*
X113464696Y-97146646D01*
X113464697Y-97146646D01*
X113464699Y-97146647D01*
X113589997Y-97166492D01*
X113590000Y-97166492D01*
X113590003Y-97166492D01*
X113715300Y-97146647D01*
X113715301Y-97146647D01*
X113715302Y-97146646D01*
X113715304Y-97146646D01*
X113828342Y-97089050D01*
X113918050Y-96999342D01*
X113975646Y-96886304D01*
X113975646Y-96886302D01*
X113975647Y-96886301D01*
X113975647Y-96886300D01*
X113995492Y-96761003D01*
X113995492Y-96760996D01*
X113975647Y-96635699D01*
X113975647Y-96635698D01*
X113975646Y-96635696D01*
X113918050Y-96522658D01*
X113918046Y-96522654D01*
X113918045Y-96522652D01*
X113828347Y-96432954D01*
X113828344Y-96432952D01*
X113828342Y-96432950D01*
X113715304Y-96375354D01*
X113715303Y-96375353D01*
X113715300Y-96375352D01*
X113590003Y-96355508D01*
X113589997Y-96355508D01*
X113464699Y-96375352D01*
X113464698Y-96375352D01*
X113389337Y-96413751D01*
X113351658Y-96432950D01*
X113351657Y-96432951D01*
X113351652Y-96432954D01*
X113261954Y-96522652D01*
X113261951Y-96522657D01*
X113204352Y-96635698D01*
X113204352Y-96635699D01*
X113184508Y-96760996D01*
X94295571Y-96760996D01*
X94317625Y-96751861D01*
X94432621Y-96663621D01*
X94520861Y-96548625D01*
X94576330Y-96414709D01*
X94595250Y-96271000D01*
X94576330Y-96127291D01*
X94520861Y-95993375D01*
X94432621Y-95878379D01*
X94317625Y-95790139D01*
X94317624Y-95790138D01*
X94317622Y-95790137D01*
X94183712Y-95734671D01*
X94183710Y-95734670D01*
X94183709Y-95734670D01*
X94111854Y-95725210D01*
X94040001Y-95715750D01*
X94039999Y-95715750D01*
X93896291Y-95734670D01*
X93896287Y-95734671D01*
X93762377Y-95790137D01*
X93647379Y-95878379D01*
X93559137Y-95993377D01*
X93503671Y-96127287D01*
X93503670Y-96127291D01*
X93484750Y-96271000D01*
X85214688Y-96271000D01*
X85214688Y-95410996D01*
X109664508Y-95410996D01*
X109664508Y-95411003D01*
X109684352Y-95536300D01*
X109684352Y-95536301D01*
X109684354Y-95536304D01*
X109741950Y-95649342D01*
X109741952Y-95649344D01*
X109741954Y-95649347D01*
X109831652Y-95739045D01*
X109831654Y-95739046D01*
X109831658Y-95739050D01*
X109944696Y-95796646D01*
X109944697Y-95796646D01*
X109944699Y-95796647D01*
X110069997Y-95816492D01*
X110070000Y-95816492D01*
X110070003Y-95816492D01*
X110195300Y-95796647D01*
X110195301Y-95796647D01*
X110195302Y-95796646D01*
X110195304Y-95796646D01*
X110308342Y-95739050D01*
X110316396Y-95730996D01*
X115304508Y-95730996D01*
X115304508Y-95731003D01*
X115324352Y-95856300D01*
X115324352Y-95856301D01*
X115324354Y-95856304D01*
X115381950Y-95969342D01*
X115381952Y-95969344D01*
X115381954Y-95969347D01*
X115471652Y-96059045D01*
X115471654Y-96059046D01*
X115471658Y-96059050D01*
X115584696Y-96116646D01*
X115584697Y-96116646D01*
X115584699Y-96116647D01*
X115709997Y-96136492D01*
X115710000Y-96136492D01*
X115710003Y-96136492D01*
X115835300Y-96116647D01*
X115835301Y-96116647D01*
X115835302Y-96116646D01*
X115835304Y-96116646D01*
X115948342Y-96059050D01*
X116038050Y-95969342D01*
X116095646Y-95856304D01*
X116095646Y-95856302D01*
X116095647Y-95856301D01*
X116095647Y-95856300D01*
X116115492Y-95731003D01*
X116115492Y-95730996D01*
X116095647Y-95605699D01*
X116095647Y-95605698D01*
X116095646Y-95605696D01*
X116038050Y-95492658D01*
X116038046Y-95492654D01*
X116038045Y-95492652D01*
X115948347Y-95402954D01*
X115948344Y-95402952D01*
X115948342Y-95402950D01*
X115835304Y-95345354D01*
X115835303Y-95345353D01*
X115835300Y-95345352D01*
X115710003Y-95325508D01*
X115709997Y-95325508D01*
X115584699Y-95345352D01*
X115584698Y-95345352D01*
X115509337Y-95383751D01*
X115471658Y-95402950D01*
X115471657Y-95402951D01*
X115471652Y-95402954D01*
X115381954Y-95492652D01*
X115381951Y-95492657D01*
X115324352Y-95605698D01*
X115324352Y-95605699D01*
X115304508Y-95730996D01*
X110316396Y-95730996D01*
X110398050Y-95649342D01*
X110455646Y-95536304D01*
X110455646Y-95536302D01*
X110455647Y-95536301D01*
X110455647Y-95536300D01*
X110475492Y-95411003D01*
X110475492Y-95410996D01*
X110455647Y-95285699D01*
X110455647Y-95285698D01*
X110447162Y-95269045D01*
X110398050Y-95172658D01*
X110398046Y-95172654D01*
X110398045Y-95172652D01*
X110308347Y-95082954D01*
X110308344Y-95082952D01*
X110308342Y-95082950D01*
X110195304Y-95025354D01*
X110195303Y-95025353D01*
X110195300Y-95025352D01*
X110070003Y-95005508D01*
X110069997Y-95005508D01*
X109944699Y-95025352D01*
X109944698Y-95025352D01*
X109869337Y-95063751D01*
X109831658Y-95082950D01*
X109831657Y-95082951D01*
X109831652Y-95082954D01*
X109741954Y-95172652D01*
X109741951Y-95172657D01*
X109741950Y-95172658D01*
X109738542Y-95179347D01*
X109684352Y-95285698D01*
X109684352Y-95285699D01*
X109664508Y-95410996D01*
X85214688Y-95410996D01*
X85214688Y-94940996D01*
X104294508Y-94940996D01*
X104294508Y-94941003D01*
X104314352Y-95066300D01*
X104314352Y-95066301D01*
X104332805Y-95102517D01*
X104371950Y-95179342D01*
X104371952Y-95179344D01*
X104371954Y-95179347D01*
X104461652Y-95269045D01*
X104461654Y-95269046D01*
X104461658Y-95269050D01*
X104574696Y-95326646D01*
X104574697Y-95326646D01*
X104574699Y-95326647D01*
X104699997Y-95346492D01*
X104700000Y-95346492D01*
X104700003Y-95346492D01*
X104825300Y-95326647D01*
X104825301Y-95326647D01*
X104825302Y-95326646D01*
X104825304Y-95326646D01*
X104938342Y-95269050D01*
X105028050Y-95179342D01*
X105085646Y-95066304D01*
X105085646Y-95066302D01*
X105085647Y-95066301D01*
X105085647Y-95066300D01*
X105105492Y-94941003D01*
X105105492Y-94940996D01*
X105085647Y-94815699D01*
X105085647Y-94815698D01*
X105085646Y-94815696D01*
X105028050Y-94702658D01*
X105028046Y-94702654D01*
X105028045Y-94702652D01*
X104938347Y-94612954D01*
X104938344Y-94612952D01*
X104938342Y-94612950D01*
X104825304Y-94555354D01*
X104825303Y-94555353D01*
X104825300Y-94555352D01*
X104700003Y-94535508D01*
X104699997Y-94535508D01*
X104574699Y-94555352D01*
X104574698Y-94555352D01*
X104499337Y-94593751D01*
X104461658Y-94612950D01*
X104461657Y-94612951D01*
X104461652Y-94612954D01*
X104371954Y-94702652D01*
X104371951Y-94702657D01*
X104314352Y-94815698D01*
X104314352Y-94815699D01*
X104294508Y-94940996D01*
X85214688Y-94940996D01*
X85214688Y-94020996D01*
X96774508Y-94020996D01*
X96774508Y-94021003D01*
X96794352Y-94146300D01*
X96794352Y-94146301D01*
X96794354Y-94146304D01*
X96851950Y-94259342D01*
X96851952Y-94259344D01*
X96851954Y-94259347D01*
X96941652Y-94349045D01*
X96941654Y-94349046D01*
X96941658Y-94349050D01*
X97054696Y-94406646D01*
X97054697Y-94406646D01*
X97054699Y-94406647D01*
X97179997Y-94426492D01*
X97180000Y-94426492D01*
X97180003Y-94426492D01*
X97305300Y-94406647D01*
X97305301Y-94406647D01*
X97305302Y-94406646D01*
X97305304Y-94406646D01*
X97418342Y-94349050D01*
X97508050Y-94259342D01*
X97565646Y-94146304D01*
X97565646Y-94146302D01*
X97565647Y-94146301D01*
X97565647Y-94146300D01*
X97585492Y-94021003D01*
X97585492Y-94020996D01*
X97565647Y-93895699D01*
X97565647Y-93895698D01*
X97565646Y-93895696D01*
X97508050Y-93782658D01*
X97508046Y-93782654D01*
X97508045Y-93782652D01*
X97418347Y-93692954D01*
X97418344Y-93692952D01*
X97418342Y-93692950D01*
X97305304Y-93635354D01*
X97305303Y-93635353D01*
X97305300Y-93635352D01*
X97180003Y-93615508D01*
X97179997Y-93615508D01*
X97054699Y-93635352D01*
X97054698Y-93635352D01*
X97013585Y-93656301D01*
X96941658Y-93692950D01*
X96941657Y-93692951D01*
X96941652Y-93692954D01*
X96851954Y-93782652D01*
X96851951Y-93782657D01*
X96794352Y-93895698D01*
X96794352Y-93895699D01*
X96774508Y-94020996D01*
X85214688Y-94020996D01*
X85214688Y-93530996D01*
X104914508Y-93530996D01*
X104914508Y-93531003D01*
X104934352Y-93656300D01*
X104934352Y-93656301D01*
X104934354Y-93656304D01*
X104991950Y-93769342D01*
X104991952Y-93769344D01*
X104991954Y-93769347D01*
X105081652Y-93859045D01*
X105081654Y-93859046D01*
X105081658Y-93859050D01*
X105194696Y-93916646D01*
X105194697Y-93916646D01*
X105194699Y-93916647D01*
X105319997Y-93936492D01*
X105320000Y-93936492D01*
X105320003Y-93936492D01*
X105445300Y-93916647D01*
X105445301Y-93916647D01*
X105445302Y-93916646D01*
X105445304Y-93916646D01*
X105558342Y-93859050D01*
X105648050Y-93769342D01*
X105705646Y-93656304D01*
X105705646Y-93656302D01*
X105705647Y-93656301D01*
X105705647Y-93656300D01*
X105725492Y-93531003D01*
X105725492Y-93530996D01*
X105705647Y-93405699D01*
X105705647Y-93405698D01*
X105705646Y-93405696D01*
X105648050Y-93292658D01*
X105648046Y-93292654D01*
X105648045Y-93292652D01*
X105589074Y-93233681D01*
X105555589Y-93172358D01*
X105560573Y-93102666D01*
X105589074Y-93058319D01*
X105678045Y-92969347D01*
X105678050Y-92969342D01*
X105735646Y-92856304D01*
X105735646Y-92856302D01*
X105735647Y-92856301D01*
X105735647Y-92856300D01*
X105755492Y-92731003D01*
X105755492Y-92730996D01*
X105735647Y-92605699D01*
X105735647Y-92605698D01*
X105725765Y-92586304D01*
X105678050Y-92492658D01*
X105678046Y-92492654D01*
X105678045Y-92492652D01*
X105646389Y-92460996D01*
X107054508Y-92460996D01*
X107054508Y-92461003D01*
X107074352Y-92586300D01*
X107074352Y-92586301D01*
X107074354Y-92586304D01*
X107131950Y-92699342D01*
X107131952Y-92699344D01*
X107131954Y-92699347D01*
X107221652Y-92789045D01*
X107221654Y-92789046D01*
X107221658Y-92789050D01*
X107334696Y-92846646D01*
X107334697Y-92846646D01*
X107334699Y-92846647D01*
X107459997Y-92866492D01*
X107460000Y-92866492D01*
X107460003Y-92866492D01*
X107585300Y-92846647D01*
X107585301Y-92846647D01*
X107585302Y-92846646D01*
X107585304Y-92846646D01*
X107698342Y-92789050D01*
X107788050Y-92699342D01*
X107845646Y-92586304D01*
X107845646Y-92586302D01*
X107845647Y-92586301D01*
X107845647Y-92586300D01*
X107852822Y-92540996D01*
X118064508Y-92540996D01*
X118064508Y-92541003D01*
X118084352Y-92666300D01*
X118084352Y-92666301D01*
X118101188Y-92699342D01*
X118141950Y-92779342D01*
X118141952Y-92779344D01*
X118141954Y-92779347D01*
X118231652Y-92869045D01*
X118231654Y-92869046D01*
X118231658Y-92869050D01*
X118344696Y-92926646D01*
X118344697Y-92926646D01*
X118344699Y-92926647D01*
X118469997Y-92946492D01*
X118470000Y-92946492D01*
X118470003Y-92946492D01*
X118595300Y-92926647D01*
X118595301Y-92926647D01*
X118595302Y-92926646D01*
X118595304Y-92926646D01*
X118708342Y-92869050D01*
X118798050Y-92779342D01*
X118855646Y-92666304D01*
X118855646Y-92666302D01*
X118855647Y-92666301D01*
X118855647Y-92666300D01*
X118875492Y-92541003D01*
X118875492Y-92540996D01*
X118855647Y-92415699D01*
X118855647Y-92415698D01*
X118850956Y-92406492D01*
X118798050Y-92302658D01*
X118798046Y-92302654D01*
X118798045Y-92302652D01*
X118708347Y-92212954D01*
X118708344Y-92212952D01*
X118708342Y-92212950D01*
X118595304Y-92155354D01*
X118595303Y-92155353D01*
X118595300Y-92155352D01*
X118470003Y-92135508D01*
X118469997Y-92135508D01*
X118344699Y-92155352D01*
X118344698Y-92155352D01*
X118269337Y-92193751D01*
X118231658Y-92212950D01*
X118231657Y-92212951D01*
X118231652Y-92212954D01*
X118141954Y-92302652D01*
X118141951Y-92302657D01*
X118084352Y-92415698D01*
X118084352Y-92415699D01*
X118064508Y-92540996D01*
X107852822Y-92540996D01*
X107865492Y-92461003D01*
X107865492Y-92460996D01*
X107845647Y-92335699D01*
X107845647Y-92335698D01*
X107828812Y-92302658D01*
X107788050Y-92222658D01*
X107788046Y-92222654D01*
X107788045Y-92222652D01*
X107698347Y-92132954D01*
X107698344Y-92132952D01*
X107698342Y-92132950D01*
X107585304Y-92075354D01*
X107585303Y-92075353D01*
X107585300Y-92075352D01*
X107460003Y-92055508D01*
X107459997Y-92055508D01*
X107334699Y-92075352D01*
X107334698Y-92075352D01*
X107259337Y-92113751D01*
X107221658Y-92132950D01*
X107221657Y-92132951D01*
X107221652Y-92132954D01*
X107131954Y-92222652D01*
X107131951Y-92222657D01*
X107131950Y-92222658D01*
X107112751Y-92260337D01*
X107074352Y-92335698D01*
X107074352Y-92335699D01*
X107054508Y-92460996D01*
X105646389Y-92460996D01*
X105588347Y-92402954D01*
X105588344Y-92402952D01*
X105588342Y-92402950D01*
X105475304Y-92345354D01*
X105475303Y-92345353D01*
X105475300Y-92345352D01*
X105350003Y-92325508D01*
X105349997Y-92325508D01*
X105224699Y-92345352D01*
X105224698Y-92345352D01*
X105149337Y-92383751D01*
X105111658Y-92402950D01*
X105111657Y-92402951D01*
X105111652Y-92402954D01*
X105021954Y-92492652D01*
X105021951Y-92492657D01*
X104964352Y-92605698D01*
X104964352Y-92605699D01*
X104944508Y-92730996D01*
X104944508Y-92731003D01*
X104964352Y-92856300D01*
X104964352Y-92856301D01*
X104964354Y-92856304D01*
X105021950Y-92969342D01*
X105021952Y-92969344D01*
X105021954Y-92969347D01*
X105080926Y-93028319D01*
X105114411Y-93089642D01*
X105109427Y-93159334D01*
X105080926Y-93203681D01*
X104991954Y-93292652D01*
X104991951Y-93292657D01*
X104934352Y-93405698D01*
X104934352Y-93405699D01*
X104914508Y-93530996D01*
X85214688Y-93530996D01*
X85214688Y-92680996D01*
X100804508Y-92680996D01*
X100804508Y-92681003D01*
X100824352Y-92806300D01*
X100824352Y-92806301D01*
X100824354Y-92806304D01*
X100881950Y-92919342D01*
X100881952Y-92919344D01*
X100881954Y-92919347D01*
X100971652Y-93009045D01*
X100971654Y-93009046D01*
X100971658Y-93009050D01*
X101084696Y-93066646D01*
X101084697Y-93066646D01*
X101084699Y-93066647D01*
X101209997Y-93086492D01*
X101210000Y-93086492D01*
X101210003Y-93086492D01*
X101335300Y-93066647D01*
X101335301Y-93066647D01*
X101335302Y-93066646D01*
X101335304Y-93066646D01*
X101448342Y-93009050D01*
X101538050Y-92919342D01*
X101595646Y-92806304D01*
X101595646Y-92806302D01*
X101595647Y-92806301D01*
X101595647Y-92806300D01*
X101615492Y-92681003D01*
X101615492Y-92680996D01*
X101595647Y-92555699D01*
X101595647Y-92555698D01*
X101595646Y-92555696D01*
X101588156Y-92540996D01*
X103684508Y-92540996D01*
X103684508Y-92541003D01*
X103704352Y-92666300D01*
X103704352Y-92666301D01*
X103721188Y-92699342D01*
X103761950Y-92779342D01*
X103761952Y-92779344D01*
X103761954Y-92779347D01*
X103851652Y-92869045D01*
X103851654Y-92869046D01*
X103851658Y-92869050D01*
X103964696Y-92926646D01*
X103964697Y-92926646D01*
X103964699Y-92926647D01*
X104089997Y-92946492D01*
X104090000Y-92946492D01*
X104090003Y-92946492D01*
X104215300Y-92926647D01*
X104215301Y-92926647D01*
X104215302Y-92926646D01*
X104215304Y-92926646D01*
X104328342Y-92869050D01*
X104418050Y-92779342D01*
X104475646Y-92666304D01*
X104475646Y-92666302D01*
X104475647Y-92666301D01*
X104475647Y-92666300D01*
X104495492Y-92541003D01*
X104495492Y-92540996D01*
X104475647Y-92415699D01*
X104475647Y-92415698D01*
X104470956Y-92406492D01*
X104418050Y-92302658D01*
X104418046Y-92302654D01*
X104418045Y-92302652D01*
X104328347Y-92212954D01*
X104328344Y-92212952D01*
X104328342Y-92212950D01*
X104215304Y-92155354D01*
X104215303Y-92155353D01*
X104215300Y-92155352D01*
X104090003Y-92135508D01*
X104089997Y-92135508D01*
X103964699Y-92155352D01*
X103964698Y-92155352D01*
X103889337Y-92193751D01*
X103851658Y-92212950D01*
X103851657Y-92212951D01*
X103851652Y-92212954D01*
X103761954Y-92302652D01*
X103761951Y-92302657D01*
X103704352Y-92415698D01*
X103704352Y-92415699D01*
X103684508Y-92540996D01*
X101588156Y-92540996D01*
X101538050Y-92442658D01*
X101538046Y-92442654D01*
X101538045Y-92442652D01*
X101448347Y-92352954D01*
X101448344Y-92352952D01*
X101448342Y-92352950D01*
X101335304Y-92295354D01*
X101335303Y-92295353D01*
X101335300Y-92295352D01*
X101210003Y-92275508D01*
X101209997Y-92275508D01*
X101084699Y-92295352D01*
X101084698Y-92295352D01*
X101018574Y-92329045D01*
X100971658Y-92352950D01*
X100971657Y-92352951D01*
X100971652Y-92352954D01*
X100881954Y-92442652D01*
X100881951Y-92442657D01*
X100881950Y-92442658D01*
X100872604Y-92461000D01*
X100824352Y-92555698D01*
X100824352Y-92555699D01*
X100804508Y-92680996D01*
X85214688Y-92680996D01*
X85214688Y-92000996D01*
X109694508Y-92000996D01*
X109694508Y-92001003D01*
X109714352Y-92126300D01*
X109714352Y-92126301D01*
X109729155Y-92155352D01*
X109771950Y-92239342D01*
X109771952Y-92239344D01*
X109771954Y-92239347D01*
X109861652Y-92329045D01*
X109861654Y-92329046D01*
X109861658Y-92329050D01*
X109974696Y-92386646D01*
X109974697Y-92386646D01*
X109974699Y-92386647D01*
X110099997Y-92406492D01*
X110100000Y-92406492D01*
X110100003Y-92406492D01*
X110225300Y-92386647D01*
X110225301Y-92386647D01*
X110225302Y-92386646D01*
X110225304Y-92386646D01*
X110338342Y-92329050D01*
X110428050Y-92239342D01*
X110485646Y-92126304D01*
X110485646Y-92126302D01*
X110485647Y-92126301D01*
X110485647Y-92126300D01*
X110505492Y-92001003D01*
X110505492Y-92000996D01*
X110485647Y-91875699D01*
X110485647Y-91875698D01*
X110485646Y-91875696D01*
X110428050Y-91762658D01*
X110428046Y-91762654D01*
X110428045Y-91762652D01*
X110338347Y-91672954D01*
X110338344Y-91672952D01*
X110338342Y-91672950D01*
X110225304Y-91615354D01*
X110225303Y-91615353D01*
X110225300Y-91615352D01*
X110100003Y-91595508D01*
X110099997Y-91595508D01*
X109974699Y-91615352D01*
X109974698Y-91615352D01*
X109899337Y-91653751D01*
X109861658Y-91672950D01*
X109861657Y-91672951D01*
X109861652Y-91672954D01*
X109771954Y-91762652D01*
X109771951Y-91762657D01*
X109714352Y-91875698D01*
X109714352Y-91875699D01*
X109694508Y-92000996D01*
X85214688Y-92000996D01*
X85214688Y-91230996D01*
X99794508Y-91230996D01*
X99794508Y-91231003D01*
X99814352Y-91356300D01*
X99814352Y-91356301D01*
X99821763Y-91370845D01*
X99871950Y-91469342D01*
X99871952Y-91469344D01*
X99871954Y-91469347D01*
X99961652Y-91559045D01*
X99961654Y-91559046D01*
X99961658Y-91559050D01*
X100074696Y-91616646D01*
X100074697Y-91616646D01*
X100074699Y-91616647D01*
X100199997Y-91636492D01*
X100200000Y-91636492D01*
X100200003Y-91636492D01*
X100325300Y-91616647D01*
X100325301Y-91616647D01*
X100325302Y-91616646D01*
X100325304Y-91616646D01*
X100438342Y-91559050D01*
X100528050Y-91469342D01*
X100585646Y-91356304D01*
X100585646Y-91356302D01*
X100585647Y-91356301D01*
X100585647Y-91356300D01*
X100605492Y-91231003D01*
X100605492Y-91230996D01*
X100592664Y-91150000D01*
X102894864Y-91150000D01*
X102909146Y-91231000D01*
X102913266Y-91254362D01*
X102913268Y-91254368D01*
X102966249Y-91346134D01*
X102966250Y-91346135D01*
X102966252Y-91346138D01*
X102995696Y-91370844D01*
X103047431Y-91414256D01*
X103047433Y-91414257D01*
X103088449Y-91429184D01*
X103147014Y-91450500D01*
X103147017Y-91450500D01*
X103252983Y-91450500D01*
X103252986Y-91450500D01*
X103349818Y-91415257D01*
X103352566Y-91414257D01*
X103352568Y-91414256D01*
X103433748Y-91346138D01*
X103486734Y-91254363D01*
X103504960Y-91151000D01*
X104394864Y-91151000D01*
X104413089Y-91254362D01*
X104413266Y-91255362D01*
X104413268Y-91255368D01*
X104466249Y-91347134D01*
X104466250Y-91347135D01*
X104466252Y-91347138D01*
X104477176Y-91356304D01*
X104547431Y-91415256D01*
X104547433Y-91415257D01*
X104588449Y-91430184D01*
X104647014Y-91451500D01*
X104647017Y-91451500D01*
X104752983Y-91451500D01*
X104752986Y-91451500D01*
X104835020Y-91421642D01*
X104852566Y-91415257D01*
X104852568Y-91415256D01*
X104853760Y-91414256D01*
X104933748Y-91347138D01*
X104986734Y-91255363D01*
X105005136Y-91151000D01*
X105004959Y-91149999D01*
X104997148Y-91105698D01*
X104986734Y-91046637D01*
X104986153Y-91045631D01*
X104933750Y-90954865D01*
X104933749Y-90954864D01*
X104933748Y-90954862D01*
X104906069Y-90931636D01*
X104852568Y-90886743D01*
X104852566Y-90886742D01*
X104769449Y-90856492D01*
X104752986Y-90850500D01*
X104647014Y-90850500D01*
X104647011Y-90850500D01*
X104647011Y-90850501D01*
X104547433Y-90886742D01*
X104547431Y-90886743D01*
X104466254Y-90954860D01*
X104466249Y-90954865D01*
X104413268Y-91046631D01*
X104413266Y-91046637D01*
X104395041Y-91149999D01*
X104394864Y-91151000D01*
X103504960Y-91151000D01*
X103505136Y-91150000D01*
X103486734Y-91045637D01*
X103456146Y-90992657D01*
X103433750Y-90953865D01*
X103433749Y-90953864D01*
X103433748Y-90953862D01*
X103406069Y-90930636D01*
X103352568Y-90885743D01*
X103352566Y-90885742D01*
X103255736Y-90850501D01*
X103252986Y-90849500D01*
X103147014Y-90849500D01*
X103147011Y-90849500D01*
X103147011Y-90849501D01*
X103047433Y-90885742D01*
X103047431Y-90885743D01*
X102966254Y-90953860D01*
X102966249Y-90953865D01*
X102913268Y-91045631D01*
X102913266Y-91045637D01*
X102894864Y-91150000D01*
X100592664Y-91150000D01*
X100585647Y-91105699D01*
X100585647Y-91105698D01*
X100571413Y-91077763D01*
X100528050Y-90992658D01*
X100528046Y-90992654D01*
X100528045Y-90992652D01*
X100438347Y-90902954D01*
X100438344Y-90902952D01*
X100438342Y-90902950D01*
X100325304Y-90845354D01*
X100325303Y-90845353D01*
X100325300Y-90845352D01*
X100200003Y-90825508D01*
X100199997Y-90825508D01*
X100074699Y-90845352D01*
X100074698Y-90845352D01*
X99999337Y-90883751D01*
X99961658Y-90902950D01*
X99961657Y-90902951D01*
X99961652Y-90902954D01*
X99871954Y-90992652D01*
X99871951Y-90992657D01*
X99814352Y-91105698D01*
X99814352Y-91105699D01*
X99794508Y-91230996D01*
X85214688Y-91230996D01*
X85214688Y-90450996D01*
X86784508Y-90450996D01*
X86784508Y-90451003D01*
X86804352Y-90576300D01*
X86804352Y-90576301D01*
X86804354Y-90576304D01*
X86861950Y-90689342D01*
X86861952Y-90689344D01*
X86861954Y-90689347D01*
X86951652Y-90779045D01*
X86951654Y-90779046D01*
X86951658Y-90779050D01*
X87064696Y-90836646D01*
X87064697Y-90836646D01*
X87064699Y-90836647D01*
X87189997Y-90856492D01*
X87190000Y-90856492D01*
X87190003Y-90856492D01*
X87315300Y-90836647D01*
X87315301Y-90836647D01*
X87315302Y-90836646D01*
X87315304Y-90836646D01*
X87428342Y-90779050D01*
X87518050Y-90689342D01*
X87575646Y-90576304D01*
X87575646Y-90576302D01*
X87575647Y-90576301D01*
X87575647Y-90576300D01*
X87595492Y-90451003D01*
X87595492Y-90450996D01*
X87575647Y-90325699D01*
X87575647Y-90325698D01*
X87556000Y-90287139D01*
X87518050Y-90212658D01*
X87518046Y-90212654D01*
X87518045Y-90212652D01*
X87428347Y-90122954D01*
X87428344Y-90122952D01*
X87428342Y-90122950D01*
X87346003Y-90080996D01*
X92834508Y-90080996D01*
X92834508Y-90081003D01*
X92854352Y-90206300D01*
X92854352Y-90206301D01*
X92872805Y-90242517D01*
X92911950Y-90319342D01*
X92911952Y-90319344D01*
X92911954Y-90319347D01*
X93001652Y-90409045D01*
X93001654Y-90409046D01*
X93001658Y-90409050D01*
X93114696Y-90466646D01*
X93114697Y-90466646D01*
X93114699Y-90466647D01*
X93239997Y-90486492D01*
X93240000Y-90486492D01*
X93240003Y-90486492D01*
X93365300Y-90466647D01*
X93365301Y-90466647D01*
X93365302Y-90466646D01*
X93365304Y-90466646D01*
X93478342Y-90409050D01*
X93516396Y-90370996D01*
X94264508Y-90370996D01*
X94264508Y-90371003D01*
X94284352Y-90496300D01*
X94284352Y-90496301D01*
X94302805Y-90532517D01*
X94341950Y-90609342D01*
X94341952Y-90609344D01*
X94341954Y-90609347D01*
X94431652Y-90699045D01*
X94431654Y-90699046D01*
X94431658Y-90699050D01*
X94544696Y-90756646D01*
X94544697Y-90756646D01*
X94544699Y-90756647D01*
X94669997Y-90776492D01*
X94670000Y-90776492D01*
X94670003Y-90776492D01*
X94795300Y-90756647D01*
X94795301Y-90756647D01*
X94795302Y-90756646D01*
X94795304Y-90756646D01*
X94908342Y-90699050D01*
X94998050Y-90609342D01*
X95055646Y-90496304D01*
X95055646Y-90496302D01*
X95055647Y-90496301D01*
X95055647Y-90496300D01*
X95075492Y-90371003D01*
X95075492Y-90370996D01*
X95055647Y-90245699D01*
X95055647Y-90245698D01*
X95043064Y-90221003D01*
X94998050Y-90132658D01*
X94998046Y-90132654D01*
X94998045Y-90132652D01*
X94908347Y-90042954D01*
X94908344Y-90042952D01*
X94908342Y-90042950D01*
X94795304Y-89985354D01*
X94795303Y-89985353D01*
X94795300Y-89985352D01*
X94670003Y-89965508D01*
X94669997Y-89965508D01*
X94544699Y-89985352D01*
X94544698Y-89985352D01*
X94469337Y-90023751D01*
X94431658Y-90042950D01*
X94431657Y-90042951D01*
X94431652Y-90042954D01*
X94341954Y-90132652D01*
X94341951Y-90132657D01*
X94284352Y-90245698D01*
X94284352Y-90245699D01*
X94264508Y-90370996D01*
X93516396Y-90370996D01*
X93568050Y-90319342D01*
X93625646Y-90206304D01*
X93625646Y-90206302D01*
X93625647Y-90206301D01*
X93625647Y-90206300D01*
X93645492Y-90081003D01*
X93645492Y-90080996D01*
X93625647Y-89955699D01*
X93625647Y-89955698D01*
X93609223Y-89923465D01*
X93568050Y-89842658D01*
X93568046Y-89842654D01*
X93568045Y-89842652D01*
X93471442Y-89746049D01*
X93473236Y-89744254D01*
X93439314Y-89700261D01*
X93433336Y-89630648D01*
X93465943Y-89568853D01*
X93498567Y-89544792D01*
X93588342Y-89499050D01*
X93678050Y-89409342D01*
X93735646Y-89296304D01*
X93735646Y-89296302D01*
X93735647Y-89296301D01*
X93735647Y-89296300D01*
X93755492Y-89171003D01*
X93755492Y-89170996D01*
X93735647Y-89045699D01*
X93735647Y-89045698D01*
X93732408Y-89039342D01*
X93678050Y-88932658D01*
X93678046Y-88932654D01*
X93678045Y-88932652D01*
X93646392Y-88900999D01*
X106644864Y-88900999D01*
X106644864Y-88901000D01*
X106663266Y-89005362D01*
X106663268Y-89005368D01*
X106711264Y-89088500D01*
X106727737Y-89156401D01*
X106711264Y-89212500D01*
X106663268Y-89295631D01*
X106663266Y-89295637D01*
X106644864Y-89399999D01*
X106644864Y-89400000D01*
X106663266Y-89504362D01*
X106663268Y-89504368D01*
X106716249Y-89596134D01*
X106716250Y-89596135D01*
X106716252Y-89596138D01*
X106762636Y-89635059D01*
X106781051Y-89650511D01*
X106819753Y-89708682D01*
X106820861Y-89778543D01*
X106784024Y-89837913D01*
X106781051Y-89840489D01*
X106716254Y-89894860D01*
X106716249Y-89894865D01*
X106663268Y-89986631D01*
X106663266Y-89986637D01*
X106644864Y-90090999D01*
X106644864Y-90091000D01*
X106663266Y-90195362D01*
X106663268Y-90195368D01*
X106716249Y-90287134D01*
X106716250Y-90287135D01*
X106716252Y-90287138D01*
X106752538Y-90317585D01*
X106797431Y-90355256D01*
X106797433Y-90355257D01*
X106838449Y-90370184D01*
X106897014Y-90391500D01*
X106897017Y-90391500D01*
X107002983Y-90391500D01*
X107002986Y-90391500D01*
X107093540Y-90358542D01*
X107102566Y-90355257D01*
X107102568Y-90355256D01*
X107183748Y-90287138D01*
X107236734Y-90195363D01*
X107255136Y-90091000D01*
X107255135Y-90090996D01*
X108284508Y-90090996D01*
X108284508Y-90091003D01*
X108304352Y-90216300D01*
X108304352Y-90216301D01*
X108322805Y-90252517D01*
X108361950Y-90329342D01*
X108361952Y-90329344D01*
X108361954Y-90329347D01*
X108451652Y-90419045D01*
X108451654Y-90419046D01*
X108451658Y-90419050D01*
X108564696Y-90476646D01*
X108564697Y-90476646D01*
X108564699Y-90476647D01*
X108689997Y-90496492D01*
X108690000Y-90496492D01*
X108690003Y-90496492D01*
X108815300Y-90476647D01*
X108815301Y-90476647D01*
X108815302Y-90476646D01*
X108815304Y-90476646D01*
X108928342Y-90419050D01*
X109018050Y-90329342D01*
X109073255Y-90220996D01*
X112384508Y-90220996D01*
X112384508Y-90221003D01*
X112404352Y-90346300D01*
X112404352Y-90346301D01*
X112416935Y-90370996D01*
X112461950Y-90459342D01*
X112461952Y-90459344D01*
X112461954Y-90459347D01*
X112551652Y-90549045D01*
X112551654Y-90549046D01*
X112551658Y-90549050D01*
X112664696Y-90606646D01*
X112664697Y-90606646D01*
X112664699Y-90606647D01*
X112789997Y-90626492D01*
X112790000Y-90626492D01*
X112790003Y-90626492D01*
X112915300Y-90606647D01*
X112915301Y-90606647D01*
X112915302Y-90606646D01*
X112915304Y-90606646D01*
X113028342Y-90549050D01*
X113118050Y-90459342D01*
X113175646Y-90346304D01*
X113175646Y-90346302D01*
X113175647Y-90346301D01*
X113175647Y-90346300D01*
X113195492Y-90221003D01*
X113195492Y-90220996D01*
X113175647Y-90095699D01*
X113175647Y-90095698D01*
X113173251Y-90090996D01*
X113141067Y-90027831D01*
X115437050Y-90027831D01*
X115437050Y-90254168D01*
X115472458Y-90477722D01*
X115472458Y-90477725D01*
X115542398Y-90692978D01*
X115542400Y-90692981D01*
X115645155Y-90894650D01*
X115778193Y-91077761D01*
X115938239Y-91237807D01*
X116121350Y-91370845D01*
X116323019Y-91473600D01*
X116323021Y-91473601D01*
X116523801Y-91538837D01*
X116538279Y-91543542D01*
X116761831Y-91578950D01*
X116761832Y-91578950D01*
X116988168Y-91578950D01*
X116988169Y-91578950D01*
X117211721Y-91543542D01*
X117211724Y-91543541D01*
X117211725Y-91543541D01*
X117426978Y-91473601D01*
X117426978Y-91473600D01*
X117426981Y-91473600D01*
X117628650Y-91370845D01*
X117811761Y-91237807D01*
X117971807Y-91077761D01*
X118104845Y-90894650D01*
X118207600Y-90692981D01*
X118232476Y-90616420D01*
X118277541Y-90477725D01*
X118277541Y-90477724D01*
X118277542Y-90477721D01*
X118312950Y-90254169D01*
X118312950Y-90067540D01*
X118669200Y-90067540D01*
X118669200Y-90214459D01*
X118697858Y-90358533D01*
X118697861Y-90358544D01*
X118754078Y-90494266D01*
X118754083Y-90494275D01*
X118835698Y-90616419D01*
X118835701Y-90616423D01*
X118939576Y-90720298D01*
X118939580Y-90720301D01*
X119061724Y-90801916D01*
X119061730Y-90801919D01*
X119061731Y-90801920D01*
X119197458Y-90858140D01*
X119336226Y-90885742D01*
X119341540Y-90886799D01*
X119341544Y-90886800D01*
X119341545Y-90886800D01*
X119488456Y-90886800D01*
X119488457Y-90886799D01*
X119632542Y-90858140D01*
X119768269Y-90801920D01*
X119890420Y-90720301D01*
X119994301Y-90616420D01*
X120075920Y-90494269D01*
X120132140Y-90358542D01*
X120132794Y-90355257D01*
X120146659Y-90285546D01*
X120160800Y-90214455D01*
X120160800Y-90067545D01*
X120152901Y-90027831D01*
X120517050Y-90027831D01*
X120517050Y-90254168D01*
X120552458Y-90477722D01*
X120552458Y-90477725D01*
X120622398Y-90692978D01*
X120622400Y-90692981D01*
X120725155Y-90894650D01*
X120858193Y-91077761D01*
X121018239Y-91237807D01*
X121201350Y-91370845D01*
X121403019Y-91473600D01*
X121403021Y-91473601D01*
X121603801Y-91538837D01*
X121618279Y-91543542D01*
X121841831Y-91578950D01*
X121841832Y-91578950D01*
X122068168Y-91578950D01*
X122068169Y-91578950D01*
X122291721Y-91543542D01*
X122291724Y-91543541D01*
X122291725Y-91543541D01*
X122506978Y-91473601D01*
X122506978Y-91473600D01*
X122506981Y-91473600D01*
X122708650Y-91370845D01*
X122891761Y-91237807D01*
X123051807Y-91077761D01*
X123184845Y-90894650D01*
X123287600Y-90692981D01*
X123312476Y-90616420D01*
X123357541Y-90477725D01*
X123357541Y-90477724D01*
X123357542Y-90477721D01*
X123392950Y-90254169D01*
X123392950Y-90027831D01*
X123357542Y-89804279D01*
X123357541Y-89804275D01*
X123357541Y-89804274D01*
X123287601Y-89589021D01*
X123287599Y-89589018D01*
X123277325Y-89568853D01*
X123184845Y-89387350D01*
X123051807Y-89204239D01*
X122891761Y-89044193D01*
X122708650Y-88911155D01*
X122506981Y-88808400D01*
X122506978Y-88808398D01*
X122291723Y-88738458D01*
X122142686Y-88714852D01*
X122068169Y-88703050D01*
X121841831Y-88703050D01*
X121767313Y-88714852D01*
X121618277Y-88738458D01*
X121618274Y-88738458D01*
X121403021Y-88808398D01*
X121403018Y-88808400D01*
X121201349Y-88911155D01*
X121096878Y-88987058D01*
X121018239Y-89044193D01*
X121018237Y-89044195D01*
X121018236Y-89044195D01*
X120858195Y-89204236D01*
X120858195Y-89204237D01*
X120858193Y-89204239D01*
X120801058Y-89282878D01*
X120725155Y-89387349D01*
X120622400Y-89589018D01*
X120622398Y-89589021D01*
X120552458Y-89804274D01*
X120552458Y-89804277D01*
X120517050Y-90027831D01*
X120152901Y-90027831D01*
X120132140Y-89923458D01*
X120075920Y-89787731D01*
X120075919Y-89787730D01*
X120075916Y-89787724D01*
X119994301Y-89665580D01*
X119994298Y-89665576D01*
X119890423Y-89561701D01*
X119890419Y-89561698D01*
X119768275Y-89480083D01*
X119768266Y-89480078D01*
X119632544Y-89423861D01*
X119632545Y-89423861D01*
X119632542Y-89423860D01*
X119632538Y-89423859D01*
X119632534Y-89423858D01*
X119488459Y-89395200D01*
X119488455Y-89395200D01*
X119341545Y-89395200D01*
X119341540Y-89395200D01*
X119197465Y-89423858D01*
X119197455Y-89423861D01*
X119061733Y-89480078D01*
X119061724Y-89480083D01*
X118939580Y-89561698D01*
X118939576Y-89561701D01*
X118835701Y-89665576D01*
X118835698Y-89665580D01*
X118754083Y-89787724D01*
X118754078Y-89787733D01*
X118697861Y-89923455D01*
X118697858Y-89923465D01*
X118669200Y-90067540D01*
X118312950Y-90067540D01*
X118312950Y-90027831D01*
X118277542Y-89804279D01*
X118277541Y-89804275D01*
X118277541Y-89804274D01*
X118207601Y-89589021D01*
X118207599Y-89589018D01*
X118197325Y-89568853D01*
X118104845Y-89387350D01*
X117971807Y-89204239D01*
X117811761Y-89044193D01*
X117628650Y-88911155D01*
X117426981Y-88808400D01*
X117426978Y-88808398D01*
X117211723Y-88738458D01*
X117062686Y-88714852D01*
X116988169Y-88703050D01*
X116761831Y-88703050D01*
X116687313Y-88714852D01*
X116538277Y-88738458D01*
X116538274Y-88738458D01*
X116323021Y-88808398D01*
X116323018Y-88808400D01*
X116121349Y-88911155D01*
X116016878Y-88987058D01*
X115938239Y-89044193D01*
X115938237Y-89044195D01*
X115938236Y-89044195D01*
X115778195Y-89204236D01*
X115778195Y-89204237D01*
X115778193Y-89204239D01*
X115721058Y-89282878D01*
X115645155Y-89387349D01*
X115542400Y-89589018D01*
X115542398Y-89589021D01*
X115472458Y-89804274D01*
X115472458Y-89804277D01*
X115437050Y-90027831D01*
X113141067Y-90027831D01*
X113118050Y-89982658D01*
X113118046Y-89982654D01*
X113118045Y-89982652D01*
X113028347Y-89892954D01*
X113028344Y-89892952D01*
X113028342Y-89892950D01*
X112915304Y-89835354D01*
X112915303Y-89835353D01*
X112915300Y-89835352D01*
X112790003Y-89815508D01*
X112789997Y-89815508D01*
X112664699Y-89835352D01*
X112664698Y-89835352D01*
X112589337Y-89873751D01*
X112551658Y-89892950D01*
X112551657Y-89892951D01*
X112551652Y-89892954D01*
X112461954Y-89982652D01*
X112461951Y-89982657D01*
X112461950Y-89982658D01*
X112459926Y-89986631D01*
X112404352Y-90095698D01*
X112404352Y-90095699D01*
X112384508Y-90220996D01*
X109073255Y-90220996D01*
X109075646Y-90216304D01*
X109075646Y-90216302D01*
X109075647Y-90216301D01*
X109075647Y-90216300D01*
X109095492Y-90091003D01*
X109095492Y-90090996D01*
X109075647Y-89965699D01*
X109075647Y-89965698D01*
X109054128Y-89923465D01*
X109018050Y-89852658D01*
X109018046Y-89852654D01*
X109018045Y-89852652D01*
X108928347Y-89762954D01*
X108928344Y-89762952D01*
X108928342Y-89762950D01*
X108815304Y-89705354D01*
X108815303Y-89705353D01*
X108815300Y-89705352D01*
X108690003Y-89685508D01*
X108689997Y-89685508D01*
X108564699Y-89705352D01*
X108564698Y-89705352D01*
X108489337Y-89743751D01*
X108451658Y-89762950D01*
X108451657Y-89762951D01*
X108451652Y-89762954D01*
X108361954Y-89852652D01*
X108361951Y-89852657D01*
X108304352Y-89965698D01*
X108304352Y-89965699D01*
X108284508Y-90090996D01*
X107255135Y-90090996D01*
X107236734Y-89986637D01*
X107235993Y-89985354D01*
X107183750Y-89894865D01*
X107183746Y-89894860D01*
X107133451Y-89852658D01*
X107118947Y-89840488D01*
X107080246Y-89782319D01*
X107079137Y-89712458D01*
X107115974Y-89653088D01*
X107118922Y-89650533D01*
X107183748Y-89596138D01*
X107236734Y-89504363D01*
X107255136Y-89400000D01*
X107236734Y-89295637D01*
X107188734Y-89212498D01*
X107172262Y-89144600D01*
X107188735Y-89088500D01*
X107236734Y-89005363D01*
X107255136Y-88901000D01*
X107237503Y-88800996D01*
X114004508Y-88800996D01*
X114004508Y-88801003D01*
X114024352Y-88926300D01*
X114024352Y-88926301D01*
X114042805Y-88962517D01*
X114081950Y-89039342D01*
X114081952Y-89039344D01*
X114081954Y-89039347D01*
X114171652Y-89129045D01*
X114171654Y-89129046D01*
X114171658Y-89129050D01*
X114284696Y-89186646D01*
X114284697Y-89186646D01*
X114284699Y-89186647D01*
X114409997Y-89206492D01*
X114410000Y-89206492D01*
X114410003Y-89206492D01*
X114535300Y-89186647D01*
X114535301Y-89186647D01*
X114535302Y-89186646D01*
X114535304Y-89186646D01*
X114648342Y-89129050D01*
X114738050Y-89039342D01*
X114795646Y-88926304D01*
X114795646Y-88926302D01*
X114795647Y-88926301D01*
X114795647Y-88926300D01*
X114815492Y-88801003D01*
X114815492Y-88800996D01*
X114795647Y-88675699D01*
X114795647Y-88675698D01*
X114785743Y-88656260D01*
X114738050Y-88562658D01*
X114738046Y-88562654D01*
X114738045Y-88562652D01*
X114648347Y-88472954D01*
X114648344Y-88472952D01*
X114648342Y-88472950D01*
X114535304Y-88415354D01*
X114535303Y-88415353D01*
X114535300Y-88415352D01*
X114410003Y-88395508D01*
X114409997Y-88395508D01*
X114284699Y-88415352D01*
X114284698Y-88415352D01*
X114209337Y-88453751D01*
X114171658Y-88472950D01*
X114171657Y-88472951D01*
X114171652Y-88472954D01*
X114081954Y-88562652D01*
X114081951Y-88562657D01*
X114081950Y-88562658D01*
X114071667Y-88582839D01*
X114024352Y-88675698D01*
X114024352Y-88675699D01*
X114004508Y-88800996D01*
X107237503Y-88800996D01*
X107236734Y-88796637D01*
X107196325Y-88726647D01*
X107194890Y-88724160D01*
X107178417Y-88656260D01*
X107194890Y-88600160D01*
X107246731Y-88510368D01*
X107246730Y-88510368D01*
X107246734Y-88510363D01*
X107265136Y-88406000D01*
X107246734Y-88301637D01*
X107232106Y-88276301D01*
X107193750Y-88209865D01*
X107193749Y-88209864D01*
X107193748Y-88209862D01*
X107166069Y-88186636D01*
X107123595Y-88150996D01*
X108084508Y-88150996D01*
X108084508Y-88151003D01*
X108104352Y-88276300D01*
X108104352Y-88276301D01*
X108104354Y-88276304D01*
X108161950Y-88389342D01*
X108161952Y-88389344D01*
X108161954Y-88389347D01*
X108251652Y-88479045D01*
X108251654Y-88479046D01*
X108251658Y-88479050D01*
X108364696Y-88536646D01*
X108364697Y-88536646D01*
X108364699Y-88536647D01*
X108489997Y-88556492D01*
X108490000Y-88556492D01*
X108490003Y-88556492D01*
X108615300Y-88536647D01*
X108615301Y-88536647D01*
X108615302Y-88536646D01*
X108615304Y-88536646D01*
X108728342Y-88479050D01*
X108818050Y-88389342D01*
X108842684Y-88340996D01*
X120174508Y-88340996D01*
X120174508Y-88341003D01*
X120194352Y-88466300D01*
X120194352Y-88466301D01*
X120197742Y-88472954D01*
X120251950Y-88579342D01*
X120251952Y-88579344D01*
X120251954Y-88579347D01*
X120341652Y-88669045D01*
X120341654Y-88669046D01*
X120341658Y-88669050D01*
X120454696Y-88726646D01*
X120454697Y-88726646D01*
X120454699Y-88726647D01*
X120579997Y-88746492D01*
X120580000Y-88746492D01*
X120580003Y-88746492D01*
X120705300Y-88726647D01*
X120705301Y-88726647D01*
X120705302Y-88726646D01*
X120705304Y-88726646D01*
X120818342Y-88669050D01*
X120908050Y-88579342D01*
X120965646Y-88466304D01*
X120965646Y-88466302D01*
X120965647Y-88466301D01*
X120965647Y-88466300D01*
X120985492Y-88341003D01*
X120985492Y-88340996D01*
X120965647Y-88215699D01*
X120965647Y-88215698D01*
X120962672Y-88209860D01*
X120908050Y-88102658D01*
X120908046Y-88102654D01*
X120908045Y-88102652D01*
X120818347Y-88012954D01*
X120818344Y-88012952D01*
X120818342Y-88012950D01*
X120705304Y-87955354D01*
X120705303Y-87955353D01*
X120705300Y-87955352D01*
X120580003Y-87935508D01*
X120579997Y-87935508D01*
X120454699Y-87955352D01*
X120454698Y-87955352D01*
X120379337Y-87993751D01*
X120341658Y-88012950D01*
X120341657Y-88012951D01*
X120341652Y-88012954D01*
X120251954Y-88102652D01*
X120251951Y-88102657D01*
X120251950Y-88102658D01*
X120232751Y-88140337D01*
X120194352Y-88215698D01*
X120194352Y-88215699D01*
X120174508Y-88340996D01*
X108842684Y-88340996D01*
X108875646Y-88276304D01*
X108875646Y-88276302D01*
X108875647Y-88276301D01*
X108875647Y-88276300D01*
X108895492Y-88151003D01*
X108895492Y-88150996D01*
X108875647Y-88025699D01*
X108875647Y-88025698D01*
X108875646Y-88025696D01*
X108818050Y-87912658D01*
X108818046Y-87912654D01*
X108818045Y-87912652D01*
X108728347Y-87822954D01*
X108728344Y-87822952D01*
X108728342Y-87822950D01*
X108615304Y-87765354D01*
X108615303Y-87765353D01*
X108615300Y-87765352D01*
X108490003Y-87745508D01*
X108489997Y-87745508D01*
X108364699Y-87765352D01*
X108364698Y-87765352D01*
X108289337Y-87803751D01*
X108251658Y-87822950D01*
X108251657Y-87822951D01*
X108251652Y-87822954D01*
X108161954Y-87912652D01*
X108161951Y-87912657D01*
X108104352Y-88025698D01*
X108104352Y-88025699D01*
X108084508Y-88150996D01*
X107123595Y-88150996D01*
X107112568Y-88141743D01*
X107112566Y-88141742D01*
X107030533Y-88111886D01*
X107012986Y-88105500D01*
X106907014Y-88105500D01*
X106907011Y-88105500D01*
X106907011Y-88105501D01*
X106807433Y-88141742D01*
X106807431Y-88141743D01*
X106726254Y-88209860D01*
X106726249Y-88209865D01*
X106673268Y-88301631D01*
X106673266Y-88301637D01*
X106654864Y-88405999D01*
X106654864Y-88406000D01*
X106673266Y-88510362D01*
X106673268Y-88510368D01*
X106715109Y-88582839D01*
X106731582Y-88650739D01*
X106715110Y-88706838D01*
X106663267Y-88796633D01*
X106663266Y-88796637D01*
X106644864Y-88900999D01*
X93646392Y-88900999D01*
X93588347Y-88842954D01*
X93588344Y-88842952D01*
X93588342Y-88842950D01*
X93475304Y-88785354D01*
X93475303Y-88785353D01*
X93475300Y-88785352D01*
X93350003Y-88765508D01*
X93349997Y-88765508D01*
X93224699Y-88785352D01*
X93224698Y-88785352D01*
X93149337Y-88823751D01*
X93111658Y-88842950D01*
X93111657Y-88842951D01*
X93111652Y-88842954D01*
X93021954Y-88932652D01*
X93021951Y-88932657D01*
X92964352Y-89045698D01*
X92964352Y-89045699D01*
X92944508Y-89170996D01*
X92944508Y-89171003D01*
X92964352Y-89296300D01*
X92964352Y-89296301D01*
X92964354Y-89296304D01*
X93021950Y-89409342D01*
X93021952Y-89409344D01*
X93021954Y-89409347D01*
X93118558Y-89505951D01*
X93116762Y-89507746D01*
X93150683Y-89551733D01*
X93156664Y-89621346D01*
X93124060Y-89683142D01*
X93091429Y-89707208D01*
X93001659Y-89752949D01*
X93001652Y-89752954D01*
X92911954Y-89842652D01*
X92911951Y-89842657D01*
X92911950Y-89842658D01*
X92906855Y-89852658D01*
X92854352Y-89955698D01*
X92854352Y-89955699D01*
X92834508Y-90080996D01*
X87346003Y-90080996D01*
X87315304Y-90065354D01*
X87315303Y-90065353D01*
X87315300Y-90065352D01*
X87190003Y-90045508D01*
X87189997Y-90045508D01*
X87064699Y-90065352D01*
X87064698Y-90065352D01*
X86989337Y-90103751D01*
X86951658Y-90122950D01*
X86951657Y-90122951D01*
X86951652Y-90122954D01*
X86861954Y-90212652D01*
X86861951Y-90212657D01*
X86861950Y-90212658D01*
X86857702Y-90220996D01*
X86804352Y-90325698D01*
X86804352Y-90325699D01*
X86784508Y-90450996D01*
X85214688Y-90450996D01*
X85214688Y-87651307D01*
X85234373Y-87584268D01*
X85287177Y-87538513D01*
X85356335Y-87528569D01*
X85419891Y-87557594D01*
X85449170Y-87595008D01*
X85477856Y-87651307D01*
X85481951Y-87659343D01*
X85481954Y-87659347D01*
X85571652Y-87749045D01*
X85571654Y-87749046D01*
X85571658Y-87749050D01*
X85684696Y-87806646D01*
X85684697Y-87806646D01*
X85684699Y-87806647D01*
X85809997Y-87826492D01*
X85810000Y-87826492D01*
X85810003Y-87826492D01*
X85935300Y-87806647D01*
X85935301Y-87806647D01*
X85935302Y-87806646D01*
X85935304Y-87806646D01*
X86048342Y-87749050D01*
X86138050Y-87659342D01*
X86195646Y-87546304D01*
X86195646Y-87546302D01*
X86195647Y-87546301D01*
X86195647Y-87546300D01*
X86215492Y-87421003D01*
X86215492Y-87420996D01*
X86209157Y-87380996D01*
X88679508Y-87380996D01*
X88679508Y-87381003D01*
X88699352Y-87506300D01*
X88699352Y-87506301D01*
X88715765Y-87538513D01*
X88756950Y-87619342D01*
X88756952Y-87619344D01*
X88756954Y-87619347D01*
X88846652Y-87709045D01*
X88846654Y-87709046D01*
X88846658Y-87709050D01*
X88959696Y-87766646D01*
X88959697Y-87766646D01*
X88959699Y-87766647D01*
X89084997Y-87786492D01*
X89085000Y-87786492D01*
X89085003Y-87786492D01*
X89210300Y-87766647D01*
X89210301Y-87766647D01*
X89210302Y-87766646D01*
X89210304Y-87766646D01*
X89323342Y-87709050D01*
X89413050Y-87619342D01*
X89470646Y-87506304D01*
X89470646Y-87506302D01*
X89470647Y-87506301D01*
X89470647Y-87506300D01*
X89490492Y-87381003D01*
X89490492Y-87380996D01*
X89470647Y-87255699D01*
X89470647Y-87255698D01*
X89467257Y-87249045D01*
X89413050Y-87142658D01*
X89413046Y-87142654D01*
X89413045Y-87142652D01*
X89323347Y-87052954D01*
X89323344Y-87052952D01*
X89323342Y-87052950D01*
X89210304Y-86995354D01*
X89210303Y-86995353D01*
X89210300Y-86995352D01*
X89085003Y-86975508D01*
X89084997Y-86975508D01*
X88959699Y-86995352D01*
X88959698Y-86995352D01*
X88884337Y-87033751D01*
X88846658Y-87052950D01*
X88846657Y-87052951D01*
X88846652Y-87052954D01*
X88756954Y-87142652D01*
X88756951Y-87142657D01*
X88756950Y-87142658D01*
X88737751Y-87180337D01*
X88699352Y-87255698D01*
X88699352Y-87255699D01*
X88679508Y-87380996D01*
X86209157Y-87380996D01*
X86195647Y-87295699D01*
X86195647Y-87295698D01*
X86175266Y-87255699D01*
X86138050Y-87182658D01*
X86138046Y-87182654D01*
X86138045Y-87182652D01*
X86048347Y-87092954D01*
X86048344Y-87092952D01*
X86048342Y-87092950D01*
X85935304Y-87035354D01*
X85935303Y-87035353D01*
X85935300Y-87035352D01*
X85810003Y-87015508D01*
X85809997Y-87015508D01*
X85684699Y-87035352D01*
X85684698Y-87035352D01*
X85609337Y-87073751D01*
X85571658Y-87092950D01*
X85571657Y-87092951D01*
X85571652Y-87092954D01*
X85481954Y-87182652D01*
X85481951Y-87182657D01*
X85481950Y-87182658D01*
X85454096Y-87237325D01*
X85449173Y-87246987D01*
X85401198Y-87297783D01*
X85333377Y-87314578D01*
X85267242Y-87292040D01*
X85223791Y-87237325D01*
X85214688Y-87190692D01*
X85214688Y-86920996D01*
X119004508Y-86920996D01*
X119004508Y-86921003D01*
X119024352Y-87046300D01*
X119024352Y-87046301D01*
X119027742Y-87052954D01*
X119081950Y-87159342D01*
X119081952Y-87159344D01*
X119081954Y-87159347D01*
X119171652Y-87249045D01*
X119171654Y-87249046D01*
X119171658Y-87249050D01*
X119284696Y-87306646D01*
X119284697Y-87306646D01*
X119284699Y-87306647D01*
X119409997Y-87326492D01*
X119410000Y-87326492D01*
X119410003Y-87326492D01*
X119535300Y-87306647D01*
X119535301Y-87306647D01*
X119535302Y-87306646D01*
X119535304Y-87306646D01*
X119648342Y-87249050D01*
X119738050Y-87159342D01*
X119795646Y-87046304D01*
X119795646Y-87046302D01*
X119795647Y-87046301D01*
X119795647Y-87046300D01*
X119815492Y-86921003D01*
X119815492Y-86920996D01*
X119795647Y-86795699D01*
X119795647Y-86795698D01*
X119795646Y-86795696D01*
X119738050Y-86682658D01*
X119738046Y-86682654D01*
X119738045Y-86682652D01*
X119648347Y-86592954D01*
X119648344Y-86592952D01*
X119648342Y-86592950D01*
X119535304Y-86535354D01*
X119535303Y-86535353D01*
X119535300Y-86535352D01*
X119410003Y-86515508D01*
X119409997Y-86515508D01*
X119284699Y-86535352D01*
X119284698Y-86535352D01*
X119227804Y-86564342D01*
X119171658Y-86592950D01*
X119171657Y-86592951D01*
X119171652Y-86592954D01*
X119081954Y-86682652D01*
X119081951Y-86682657D01*
X119024352Y-86795698D01*
X119024352Y-86795699D01*
X119004508Y-86920996D01*
X85214688Y-86920996D01*
X85214688Y-86325996D01*
X99319508Y-86325996D01*
X99319508Y-86326003D01*
X99339352Y-86451300D01*
X99339352Y-86451301D01*
X99339354Y-86451304D01*
X99396950Y-86564342D01*
X99396952Y-86564344D01*
X99396954Y-86564347D01*
X99486652Y-86654045D01*
X99486654Y-86654046D01*
X99486658Y-86654050D01*
X99599696Y-86711646D01*
X99599697Y-86711646D01*
X99599699Y-86711647D01*
X99724997Y-86731492D01*
X99725000Y-86731492D01*
X99725003Y-86731492D01*
X99850300Y-86711647D01*
X99850301Y-86711647D01*
X99850302Y-86711646D01*
X99850304Y-86711646D01*
X99963342Y-86654050D01*
X100053050Y-86564342D01*
X100110646Y-86451304D01*
X100110646Y-86451302D01*
X100110647Y-86451301D01*
X100110647Y-86451300D01*
X100130492Y-86326003D01*
X100130492Y-86325996D01*
X100110647Y-86200699D01*
X100110647Y-86200698D01*
X100104432Y-86188500D01*
X100053050Y-86087658D01*
X100053046Y-86087654D01*
X100053045Y-86087652D01*
X99963347Y-85997954D01*
X99963344Y-85997952D01*
X99963342Y-85997950D01*
X99850304Y-85940354D01*
X99850303Y-85940353D01*
X99850300Y-85940352D01*
X99725003Y-85920508D01*
X99724997Y-85920508D01*
X99599699Y-85940352D01*
X99599698Y-85940352D01*
X99524337Y-85978751D01*
X99486658Y-85997950D01*
X99486657Y-85997951D01*
X99486652Y-85997954D01*
X99396954Y-86087652D01*
X99396951Y-86087657D01*
X99339352Y-86200698D01*
X99339352Y-86200699D01*
X99319508Y-86325996D01*
X85214688Y-86325996D01*
X85214688Y-86312500D01*
X85234373Y-86245461D01*
X85287177Y-86199706D01*
X85338688Y-86188500D01*
X90785000Y-86188500D01*
X90785656Y-85671000D01*
X106584864Y-85671000D01*
X106600310Y-85758601D01*
X106603266Y-85775362D01*
X106603268Y-85775368D01*
X106656249Y-85867134D01*
X106656250Y-85867135D01*
X106656252Y-85867138D01*
X106692538Y-85897585D01*
X106737431Y-85935256D01*
X106737433Y-85935257D01*
X106778449Y-85950184D01*
X106837014Y-85971500D01*
X106837017Y-85971500D01*
X106942983Y-85971500D01*
X106942986Y-85971500D01*
X107028567Y-85940352D01*
X107042566Y-85935257D01*
X107042568Y-85935256D01*
X107060144Y-85920508D01*
X107123748Y-85867138D01*
X107176734Y-85775363D01*
X107195136Y-85671000D01*
X107176734Y-85566637D01*
X107151427Y-85522804D01*
X107123750Y-85474865D01*
X107123749Y-85474864D01*
X107123748Y-85474862D01*
X107090123Y-85446647D01*
X107042568Y-85406743D01*
X107042566Y-85406742D01*
X106960533Y-85376886D01*
X106942986Y-85370500D01*
X106837014Y-85370500D01*
X106837011Y-85370500D01*
X106837011Y-85370501D01*
X106737433Y-85406742D01*
X106737431Y-85406743D01*
X106656254Y-85474860D01*
X106656249Y-85474865D01*
X106603268Y-85566631D01*
X106603266Y-85566637D01*
X106584864Y-85671000D01*
X90785656Y-85671000D01*
X90787592Y-84143496D01*
X101562008Y-84143496D01*
X101562008Y-84143503D01*
X101581852Y-84268800D01*
X101581852Y-84268801D01*
X101581854Y-84268804D01*
X101639450Y-84381842D01*
X101639452Y-84381844D01*
X101639454Y-84381847D01*
X101729152Y-84471545D01*
X101729154Y-84471546D01*
X101729158Y-84471550D01*
X101842196Y-84529146D01*
X101842197Y-84529146D01*
X101842199Y-84529147D01*
X101967497Y-84548992D01*
X101967500Y-84548992D01*
X101967503Y-84548992D01*
X102092800Y-84529147D01*
X102092801Y-84529147D01*
X102092802Y-84529146D01*
X102092804Y-84529146D01*
X102205842Y-84471550D01*
X102295550Y-84381842D01*
X102330713Y-84312831D01*
X115437050Y-84312831D01*
X115437050Y-84539168D01*
X115472458Y-84762722D01*
X115472458Y-84762725D01*
X115542398Y-84977978D01*
X115542400Y-84977981D01*
X115645155Y-85179650D01*
X115778193Y-85362761D01*
X115938239Y-85522807D01*
X116121350Y-85655845D01*
X116323019Y-85758600D01*
X116323021Y-85758601D01*
X116523801Y-85823837D01*
X116538279Y-85828542D01*
X116761831Y-85863950D01*
X116761832Y-85863950D01*
X116988168Y-85863950D01*
X116988169Y-85863950D01*
X117211721Y-85828542D01*
X117211724Y-85828541D01*
X117211725Y-85828541D01*
X117426978Y-85758601D01*
X117426978Y-85758600D01*
X117426981Y-85758600D01*
X117628650Y-85655845D01*
X117811761Y-85522807D01*
X117971807Y-85362761D01*
X118104845Y-85179650D01*
X118165302Y-85060996D01*
X119644508Y-85060996D01*
X119644508Y-85061003D01*
X119664352Y-85186300D01*
X119664352Y-85186301D01*
X119664354Y-85186304D01*
X119721950Y-85299342D01*
X119721952Y-85299344D01*
X119721954Y-85299347D01*
X119811652Y-85389045D01*
X119811654Y-85389046D01*
X119811658Y-85389050D01*
X119924696Y-85446646D01*
X119924697Y-85446646D01*
X119924699Y-85446647D01*
X120049997Y-85466492D01*
X120050000Y-85466492D01*
X120050003Y-85466492D01*
X120175300Y-85446647D01*
X120175301Y-85446647D01*
X120175302Y-85446646D01*
X120175304Y-85446646D01*
X120288342Y-85389050D01*
X120378050Y-85299342D01*
X120435646Y-85186304D01*
X120445402Y-85124705D01*
X120475330Y-85061572D01*
X120534641Y-85024641D01*
X120604504Y-85025637D01*
X120662737Y-85064247D01*
X120678359Y-85087808D01*
X120725155Y-85179650D01*
X120858193Y-85362761D01*
X121018239Y-85522807D01*
X121201350Y-85655845D01*
X121403019Y-85758600D01*
X121403021Y-85758601D01*
X121603801Y-85823837D01*
X121618279Y-85828542D01*
X121841831Y-85863950D01*
X121841832Y-85863950D01*
X122068168Y-85863950D01*
X122068169Y-85863950D01*
X122291721Y-85828542D01*
X122291724Y-85828541D01*
X122291725Y-85828541D01*
X122506978Y-85758601D01*
X122506978Y-85758600D01*
X122506981Y-85758600D01*
X122708650Y-85655845D01*
X122891761Y-85522807D01*
X123051807Y-85362761D01*
X123184845Y-85179650D01*
X123287600Y-84977981D01*
X123301339Y-84935696D01*
X123357541Y-84762725D01*
X123357541Y-84762724D01*
X123357542Y-84762721D01*
X123392950Y-84539169D01*
X123392950Y-84312831D01*
X123357542Y-84089279D01*
X123357541Y-84089275D01*
X123357541Y-84089274D01*
X123287601Y-83874021D01*
X123287599Y-83874018D01*
X123263384Y-83826492D01*
X123184845Y-83672350D01*
X123051807Y-83489239D01*
X122891761Y-83329193D01*
X122708650Y-83196155D01*
X122506981Y-83093400D01*
X122506978Y-83093398D01*
X122291723Y-83023458D01*
X122142686Y-82999852D01*
X122068169Y-82988050D01*
X121841831Y-82988050D01*
X121767313Y-82999852D01*
X121618277Y-83023458D01*
X121618274Y-83023458D01*
X121403021Y-83093398D01*
X121403018Y-83093400D01*
X121201349Y-83196155D01*
X121096878Y-83272058D01*
X121018239Y-83329193D01*
X121018237Y-83329195D01*
X121018236Y-83329195D01*
X120858195Y-83489236D01*
X120858195Y-83489237D01*
X120858193Y-83489239D01*
X120816736Y-83546300D01*
X120725155Y-83672349D01*
X120622400Y-83874018D01*
X120622398Y-83874021D01*
X120552458Y-84089274D01*
X120552458Y-84089277D01*
X120517050Y-84312831D01*
X120517050Y-84539168D01*
X120536858Y-84664232D01*
X120527903Y-84733526D01*
X120482907Y-84786978D01*
X120416155Y-84807617D01*
X120348842Y-84788892D01*
X120326704Y-84771311D01*
X120288347Y-84732954D01*
X120288344Y-84732952D01*
X120288342Y-84732950D01*
X120175304Y-84675354D01*
X120175303Y-84675353D01*
X120175300Y-84675352D01*
X120050003Y-84655508D01*
X120049997Y-84655508D01*
X119924699Y-84675352D01*
X119924698Y-84675352D01*
X119849337Y-84713751D01*
X119811658Y-84732950D01*
X119811657Y-84732951D01*
X119811652Y-84732954D01*
X119721954Y-84822652D01*
X119721951Y-84822657D01*
X119664352Y-84935698D01*
X119664352Y-84935699D01*
X119644508Y-85060996D01*
X118165302Y-85060996D01*
X118207600Y-84977981D01*
X118221339Y-84935696D01*
X118277541Y-84762725D01*
X118277541Y-84762724D01*
X118277542Y-84762721D01*
X118312950Y-84539169D01*
X118312950Y-84312831D01*
X118277542Y-84089279D01*
X118277541Y-84089275D01*
X118277541Y-84089274D01*
X118207601Y-83874021D01*
X118207599Y-83874018D01*
X118183384Y-83826492D01*
X118104845Y-83672350D01*
X117971807Y-83489239D01*
X117811761Y-83329193D01*
X117628650Y-83196155D01*
X117426981Y-83093400D01*
X117426978Y-83093398D01*
X117211723Y-83023458D01*
X117062686Y-82999852D01*
X116988169Y-82988050D01*
X116761831Y-82988050D01*
X116687313Y-82999852D01*
X116538277Y-83023458D01*
X116538274Y-83023458D01*
X116323021Y-83093398D01*
X116323018Y-83093400D01*
X116121349Y-83196155D01*
X116016878Y-83272058D01*
X115938239Y-83329193D01*
X115938237Y-83329195D01*
X115938236Y-83329195D01*
X115778195Y-83489236D01*
X115778195Y-83489237D01*
X115778193Y-83489239D01*
X115736736Y-83546300D01*
X115645155Y-83672349D01*
X115542400Y-83874018D01*
X115542398Y-83874021D01*
X115472458Y-84089274D01*
X115472458Y-84089277D01*
X115437050Y-84312831D01*
X102330713Y-84312831D01*
X102353146Y-84268804D01*
X102353146Y-84268802D01*
X102353147Y-84268801D01*
X102353147Y-84268800D01*
X102372992Y-84143503D01*
X102372992Y-84143496D01*
X102353147Y-84018199D01*
X102353147Y-84018198D01*
X102353146Y-84018196D01*
X102295550Y-83905158D01*
X102295546Y-83905154D01*
X102295545Y-83905152D01*
X102205847Y-83815454D01*
X102205844Y-83815452D01*
X102205842Y-83815450D01*
X102092804Y-83757854D01*
X102092803Y-83757853D01*
X102092800Y-83757852D01*
X101967503Y-83738008D01*
X101967497Y-83738008D01*
X101842199Y-83757852D01*
X101842198Y-83757852D01*
X101766837Y-83796251D01*
X101729158Y-83815450D01*
X101729157Y-83815451D01*
X101729152Y-83815454D01*
X101639454Y-83905152D01*
X101639451Y-83905157D01*
X101581852Y-84018198D01*
X101581852Y-84018199D01*
X101562008Y-84143496D01*
X90787592Y-84143496D01*
X90788508Y-83420996D01*
X109144508Y-83420996D01*
X109144508Y-83421003D01*
X109164352Y-83546300D01*
X109164352Y-83546301D01*
X109164354Y-83546304D01*
X109221950Y-83659342D01*
X109221952Y-83659344D01*
X109221954Y-83659347D01*
X109311652Y-83749045D01*
X109311654Y-83749046D01*
X109311658Y-83749050D01*
X109424696Y-83806646D01*
X109424697Y-83806646D01*
X109424699Y-83806647D01*
X109549997Y-83826492D01*
X109550000Y-83826492D01*
X109550003Y-83826492D01*
X109675300Y-83806647D01*
X109675301Y-83806647D01*
X109675302Y-83806646D01*
X109675304Y-83806646D01*
X109788342Y-83749050D01*
X109878050Y-83659342D01*
X109935646Y-83546304D01*
X109935646Y-83546302D01*
X109935647Y-83546301D01*
X109935647Y-83546300D01*
X109955492Y-83421003D01*
X109955492Y-83420996D01*
X109935647Y-83295699D01*
X109935647Y-83295698D01*
X109935646Y-83295696D01*
X109878050Y-83182658D01*
X109878046Y-83182654D01*
X109878045Y-83182652D01*
X109788347Y-83092954D01*
X109788344Y-83092952D01*
X109788342Y-83092950D01*
X109675304Y-83035354D01*
X109675303Y-83035353D01*
X109675300Y-83035352D01*
X109550003Y-83015508D01*
X109549997Y-83015508D01*
X109424699Y-83035352D01*
X109424698Y-83035352D01*
X109349337Y-83073751D01*
X109311658Y-83092950D01*
X109311657Y-83092951D01*
X109311652Y-83092954D01*
X109221954Y-83182652D01*
X109221951Y-83182657D01*
X109164352Y-83295698D01*
X109164352Y-83295699D01*
X109144508Y-83420996D01*
X90788508Y-83420996D01*
X90789742Y-82447540D01*
X117654200Y-82447540D01*
X117654200Y-82594459D01*
X117682858Y-82738534D01*
X117682861Y-82738544D01*
X117739078Y-82874266D01*
X117739083Y-82874275D01*
X117820698Y-82996419D01*
X117820701Y-82996423D01*
X117924576Y-83100298D01*
X117924580Y-83100301D01*
X118046724Y-83181916D01*
X118046733Y-83181921D01*
X118071800Y-83192304D01*
X118182458Y-83238140D01*
X118326540Y-83266799D01*
X118326544Y-83266800D01*
X118326545Y-83266800D01*
X118473456Y-83266800D01*
X118473457Y-83266799D01*
X118617542Y-83238140D01*
X118753269Y-83181920D01*
X118875420Y-83100301D01*
X118979301Y-82996420D01*
X119060920Y-82874269D01*
X119117140Y-82738542D01*
X119145800Y-82594455D01*
X119145800Y-82447545D01*
X119145799Y-82447540D01*
X119684200Y-82447540D01*
X119684200Y-82594459D01*
X119712858Y-82738534D01*
X119712861Y-82738544D01*
X119769078Y-82874266D01*
X119769083Y-82874275D01*
X119850698Y-82996419D01*
X119850701Y-82996423D01*
X119954576Y-83100298D01*
X119954580Y-83100301D01*
X120076724Y-83181916D01*
X120076733Y-83181921D01*
X120101800Y-83192304D01*
X120212458Y-83238140D01*
X120356540Y-83266799D01*
X120356544Y-83266800D01*
X120356545Y-83266800D01*
X120503456Y-83266800D01*
X120503457Y-83266799D01*
X120647542Y-83238140D01*
X120783269Y-83181920D01*
X120905420Y-83100301D01*
X121009301Y-82996420D01*
X121090920Y-82874269D01*
X121147140Y-82738542D01*
X121175800Y-82594455D01*
X121175800Y-82447545D01*
X121147140Y-82303458D01*
X121090920Y-82167731D01*
X121090919Y-82167730D01*
X121090916Y-82167724D01*
X121009301Y-82045580D01*
X121009298Y-82045576D01*
X120905423Y-81941701D01*
X120905419Y-81941698D01*
X120783275Y-81860083D01*
X120783266Y-81860078D01*
X120647544Y-81803861D01*
X120647545Y-81803861D01*
X120647542Y-81803860D01*
X120647538Y-81803859D01*
X120647534Y-81803858D01*
X120503459Y-81775200D01*
X120503455Y-81775200D01*
X120356545Y-81775200D01*
X120356540Y-81775200D01*
X120212465Y-81803858D01*
X120212455Y-81803861D01*
X120076733Y-81860078D01*
X120076724Y-81860083D01*
X119954580Y-81941698D01*
X119954576Y-81941701D01*
X119850701Y-82045576D01*
X119850698Y-82045580D01*
X119769083Y-82167724D01*
X119769078Y-82167733D01*
X119712861Y-82303455D01*
X119712858Y-82303465D01*
X119684200Y-82447540D01*
X119145799Y-82447540D01*
X119117140Y-82303458D01*
X119060920Y-82167731D01*
X119060919Y-82167730D01*
X119060916Y-82167724D01*
X118979301Y-82045580D01*
X118979298Y-82045576D01*
X118875423Y-81941701D01*
X118875419Y-81941698D01*
X118753275Y-81860083D01*
X118753266Y-81860078D01*
X118617544Y-81803861D01*
X118617545Y-81803861D01*
X118617542Y-81803860D01*
X118617538Y-81803859D01*
X118617534Y-81803858D01*
X118473459Y-81775200D01*
X118473455Y-81775200D01*
X118326545Y-81775200D01*
X118326540Y-81775200D01*
X118182465Y-81803858D01*
X118182455Y-81803861D01*
X118046733Y-81860078D01*
X118046724Y-81860083D01*
X117924580Y-81941698D01*
X117924576Y-81941701D01*
X117820701Y-82045576D01*
X117820698Y-82045580D01*
X117739083Y-82167724D01*
X117739078Y-82167733D01*
X117682861Y-82303455D01*
X117682858Y-82303465D01*
X117654200Y-82447540D01*
X90789742Y-82447540D01*
X90791613Y-80970996D01*
X116109508Y-80970996D01*
X116109508Y-80971003D01*
X116129352Y-81096300D01*
X116129352Y-81096301D01*
X116129354Y-81096304D01*
X116186950Y-81209342D01*
X116186952Y-81209344D01*
X116186954Y-81209347D01*
X116276652Y-81299045D01*
X116276654Y-81299046D01*
X116276658Y-81299050D01*
X116389696Y-81356646D01*
X116389697Y-81356646D01*
X116389699Y-81356647D01*
X116514997Y-81376492D01*
X116515000Y-81376492D01*
X116515003Y-81376492D01*
X116640300Y-81356647D01*
X116640301Y-81356647D01*
X116640302Y-81356646D01*
X116640304Y-81356646D01*
X116753342Y-81299050D01*
X116843050Y-81209342D01*
X116900646Y-81096304D01*
X116900646Y-81096302D01*
X116900647Y-81096301D01*
X116900647Y-81096300D01*
X116920492Y-80971003D01*
X116920492Y-80970996D01*
X116900647Y-80845699D01*
X116900647Y-80845698D01*
X116900646Y-80845696D01*
X116843050Y-80732658D01*
X116843046Y-80732654D01*
X116843045Y-80732652D01*
X116753347Y-80642954D01*
X116753344Y-80642952D01*
X116753342Y-80642950D01*
X116640304Y-80585354D01*
X116640303Y-80585353D01*
X116640300Y-80585352D01*
X116515003Y-80565508D01*
X116514997Y-80565508D01*
X116389699Y-80585352D01*
X116389698Y-80585352D01*
X116314337Y-80623751D01*
X116276658Y-80642950D01*
X116276657Y-80642951D01*
X116276652Y-80642954D01*
X116186954Y-80732652D01*
X116186951Y-80732657D01*
X116186950Y-80732658D01*
X116167751Y-80770337D01*
X116129352Y-80845698D01*
X116129352Y-80845699D01*
X116109508Y-80970996D01*
X90791613Y-80970996D01*
X90792373Y-80370999D01*
X103934750Y-80370999D01*
X103934750Y-80371000D01*
X103953670Y-80514708D01*
X103953671Y-80514712D01*
X104009137Y-80648622D01*
X104009138Y-80648624D01*
X104009139Y-80648625D01*
X104097379Y-80763621D01*
X104212375Y-80851861D01*
X104346291Y-80907330D01*
X104473280Y-80924048D01*
X104489999Y-80926250D01*
X104490000Y-80926250D01*
X104490001Y-80926250D01*
X104504977Y-80924278D01*
X104633709Y-80907330D01*
X104767625Y-80851861D01*
X104882621Y-80763621D01*
X104970861Y-80648625D01*
X105026330Y-80514709D01*
X105045250Y-80371000D01*
X105026330Y-80227291D01*
X104970861Y-80093375D01*
X104967751Y-80085866D01*
X104969415Y-80085176D01*
X104955323Y-80027101D01*
X104978172Y-79961073D01*
X105033091Y-79917880D01*
X105062996Y-79910056D01*
X105083709Y-79907330D01*
X105217625Y-79851861D01*
X105332621Y-79763621D01*
X105403695Y-79670996D01*
X116109508Y-79670996D01*
X116109508Y-79671003D01*
X116129352Y-79796300D01*
X116129352Y-79796301D01*
X116129354Y-79796304D01*
X116186950Y-79909342D01*
X116186952Y-79909344D01*
X116186954Y-79909347D01*
X116276652Y-79999045D01*
X116276654Y-79999046D01*
X116276658Y-79999050D01*
X116389696Y-80056646D01*
X116389697Y-80056646D01*
X116389699Y-80056647D01*
X116514997Y-80076492D01*
X116515000Y-80076492D01*
X116515003Y-80076492D01*
X116640300Y-80056647D01*
X116640301Y-80056647D01*
X116640302Y-80056646D01*
X116640304Y-80056646D01*
X116753342Y-79999050D01*
X116843050Y-79909342D01*
X116900646Y-79796304D01*
X116900646Y-79796302D01*
X116900647Y-79796301D01*
X116900647Y-79796300D01*
X116920492Y-79671003D01*
X116920492Y-79670996D01*
X116900647Y-79545699D01*
X116900647Y-79545698D01*
X116900646Y-79545696D01*
X116843050Y-79432658D01*
X116843046Y-79432654D01*
X116843045Y-79432652D01*
X116753347Y-79342954D01*
X116753344Y-79342952D01*
X116753342Y-79342950D01*
X116640304Y-79285354D01*
X116640303Y-79285353D01*
X116640300Y-79285352D01*
X116515003Y-79265508D01*
X116514997Y-79265508D01*
X116389699Y-79285352D01*
X116389698Y-79285352D01*
X116314337Y-79323751D01*
X116276658Y-79342950D01*
X116276657Y-79342951D01*
X116276652Y-79342954D01*
X116186954Y-79432652D01*
X116186951Y-79432657D01*
X116129352Y-79545698D01*
X116129352Y-79545699D01*
X116109508Y-79670996D01*
X105403695Y-79670996D01*
X105420861Y-79648625D01*
X105476330Y-79514709D01*
X105495250Y-79371000D01*
X105476330Y-79227291D01*
X105420861Y-79093375D01*
X105332621Y-78978379D01*
X105217625Y-78890139D01*
X105217624Y-78890138D01*
X105217622Y-78890137D01*
X105083712Y-78834671D01*
X105083710Y-78834670D01*
X105083709Y-78834670D01*
X105011854Y-78825210D01*
X104940001Y-78815750D01*
X104939999Y-78815750D01*
X104796291Y-78834670D01*
X104796287Y-78834671D01*
X104662377Y-78890137D01*
X104547379Y-78978379D01*
X104459137Y-79093377D01*
X104403671Y-79227287D01*
X104403670Y-79227291D01*
X104384750Y-79371000D01*
X104392867Y-79432657D01*
X104403670Y-79514708D01*
X104403671Y-79514712D01*
X104462249Y-79656134D01*
X104460585Y-79656822D01*
X104474675Y-79714906D01*
X104451823Y-79780932D01*
X104396901Y-79824122D01*
X104367004Y-79831943D01*
X104346291Y-79834670D01*
X104346287Y-79834671D01*
X104212377Y-79890137D01*
X104097379Y-79978379D01*
X104009137Y-80093377D01*
X103953671Y-80227287D01*
X103953670Y-80227291D01*
X103934750Y-80370999D01*
X90792373Y-80370999D01*
X90794021Y-79071000D01*
X93794659Y-79071000D01*
X93813975Y-79267129D01*
X93813976Y-79267132D01*
X93836976Y-79342954D01*
X93871188Y-79455733D01*
X93964086Y-79629532D01*
X93964090Y-79629539D01*
X94089116Y-79781883D01*
X94241460Y-79906909D01*
X94241467Y-79906913D01*
X94415266Y-79999811D01*
X94415269Y-79999811D01*
X94415273Y-79999814D01*
X94603868Y-80057024D01*
X94800000Y-80076341D01*
X94996132Y-80057024D01*
X95184727Y-79999814D01*
X95186157Y-79999050D01*
X95271632Y-79953362D01*
X95304447Y-79935822D01*
X96339499Y-79935822D01*
X96348231Y-79979717D01*
X96348232Y-79979721D01*
X96348233Y-79979722D01*
X96381496Y-80029504D01*
X96431278Y-80062767D01*
X96431281Y-80062767D01*
X96431282Y-80062768D01*
X96475177Y-80071500D01*
X96475180Y-80071500D01*
X98204822Y-80071500D01*
X98248717Y-80062768D01*
X98248717Y-80062767D01*
X98248722Y-80062767D01*
X98298504Y-80029504D01*
X98331767Y-79979722D01*
X98340500Y-79935820D01*
X98340500Y-78206180D01*
X98340500Y-78206177D01*
X98331768Y-78162282D01*
X98331767Y-78162281D01*
X98331767Y-78162278D01*
X98298504Y-78112496D01*
X98298503Y-78112495D01*
X98248724Y-78079234D01*
X98248717Y-78079231D01*
X98204822Y-78070500D01*
X98204820Y-78070500D01*
X96475180Y-78070500D01*
X96475178Y-78070500D01*
X96431282Y-78079231D01*
X96431275Y-78079234D01*
X96381496Y-78112495D01*
X96381495Y-78112496D01*
X96348234Y-78162275D01*
X96348231Y-78162282D01*
X96339500Y-78206177D01*
X96339500Y-78206180D01*
X96339500Y-79935820D01*
X96339500Y-79935822D01*
X96339499Y-79935822D01*
X95304447Y-79935822D01*
X95358538Y-79906910D01*
X95510883Y-79781883D01*
X95635910Y-79629538D01*
X95697286Y-79514712D01*
X95728811Y-79455733D01*
X95728811Y-79455732D01*
X95728814Y-79455727D01*
X95786024Y-79267132D01*
X95805341Y-79071000D01*
X95786024Y-78874868D01*
X95728814Y-78686273D01*
X95728811Y-78686269D01*
X95728811Y-78686266D01*
X95635913Y-78512467D01*
X95635909Y-78512460D01*
X95510883Y-78360116D01*
X95358539Y-78235090D01*
X95358532Y-78235086D01*
X95184733Y-78142188D01*
X95184727Y-78142186D01*
X94996132Y-78084976D01*
X94996129Y-78084975D01*
X94800000Y-78065659D01*
X94603870Y-78084975D01*
X94415266Y-78142188D01*
X94241467Y-78235086D01*
X94241460Y-78235090D01*
X94089116Y-78360116D01*
X93964090Y-78512460D01*
X93964086Y-78512467D01*
X93871188Y-78686266D01*
X93813975Y-78874870D01*
X93794659Y-79071000D01*
X90794021Y-79071000D01*
X90795000Y-78298500D01*
X89138255Y-78298500D01*
X89071216Y-78278815D01*
X89025461Y-78226011D01*
X89015517Y-78156853D01*
X89044542Y-78093297D01*
X89050574Y-78086819D01*
X89138045Y-77999347D01*
X89138050Y-77999342D01*
X89195646Y-77886304D01*
X89195646Y-77886302D01*
X89195647Y-77886301D01*
X89195647Y-77886300D01*
X89215492Y-77761003D01*
X89215492Y-77760996D01*
X89195647Y-77635699D01*
X89195647Y-77635698D01*
X89195645Y-77635695D01*
X89138050Y-77522658D01*
X89138046Y-77522654D01*
X89138045Y-77522652D01*
X89048347Y-77432954D01*
X89048342Y-77432950D01*
X89016664Y-77416809D01*
X88965869Y-77368833D01*
X88949075Y-77301012D01*
X88971614Y-77234878D01*
X89026330Y-77191427D01*
X89030551Y-77189803D01*
X89180254Y-77135316D01*
X89180260Y-77135314D01*
X89492538Y-76978480D01*
X89784515Y-76786445D01*
X89927180Y-76666734D01*
X89927181Y-76666733D01*
X89791448Y-76531000D01*
X93794659Y-76531000D01*
X93813975Y-76727129D01*
X93871188Y-76915733D01*
X93964086Y-77089532D01*
X93964090Y-77089539D01*
X94089116Y-77241883D01*
X94241460Y-77366909D01*
X94241467Y-77366913D01*
X94415266Y-77459811D01*
X94415269Y-77459811D01*
X94415273Y-77459814D01*
X94603868Y-77517024D01*
X94800000Y-77536341D01*
X94996132Y-77517024D01*
X95184727Y-77459814D01*
X95234979Y-77432954D01*
X95272169Y-77413075D01*
X95358538Y-77366910D01*
X95510883Y-77241883D01*
X95635910Y-77089538D01*
X95728814Y-76915727D01*
X95786024Y-76727132D01*
X95805341Y-76531000D01*
X95786024Y-76334868D01*
X95728814Y-76146273D01*
X95728811Y-76146269D01*
X95728811Y-76146266D01*
X95635913Y-75972467D01*
X95635909Y-75972460D01*
X95510883Y-75820116D01*
X95358539Y-75695090D01*
X95358532Y-75695086D01*
X95184733Y-75602188D01*
X95184727Y-75602186D01*
X94996132Y-75544976D01*
X94996129Y-75544975D01*
X94800000Y-75525659D01*
X94603870Y-75544975D01*
X94415266Y-75602188D01*
X94241467Y-75695086D01*
X94241460Y-75695090D01*
X94089116Y-75820116D01*
X93964090Y-75972460D01*
X93964086Y-75972467D01*
X93871188Y-76146266D01*
X93813975Y-76334870D01*
X93794659Y-76531000D01*
X89791448Y-76531000D01*
X88680126Y-75419678D01*
X88804320Y-75329446D01*
X88943446Y-75190320D01*
X89033679Y-75066126D01*
X90283850Y-76316297D01*
X90292032Y-76307625D01*
X90500710Y-76027322D01*
X90675438Y-75724683D01*
X90675444Y-75724670D01*
X90813854Y-75403800D01*
X90915116Y-75065563D01*
X90916455Y-75065963D01*
X90948242Y-75010219D01*
X91010172Y-74977871D01*
X91079760Y-74984139D01*
X91121973Y-75011821D01*
X91213133Y-75102981D01*
X91213137Y-75102984D01*
X91348505Y-75193435D01*
X91348506Y-75193435D01*
X91348507Y-75193436D01*
X91348509Y-75193437D01*
X91448781Y-75234970D01*
X91498919Y-75255738D01*
X91498921Y-75255738D01*
X91498926Y-75255740D01*
X91658592Y-75287499D01*
X91658595Y-75287500D01*
X91658597Y-75287500D01*
X91821405Y-75287500D01*
X91821406Y-75287499D01*
X91874629Y-75276912D01*
X91981073Y-75255740D01*
X91981076Y-75255738D01*
X91981081Y-75255738D01*
X92131495Y-75193435D01*
X92266863Y-75102984D01*
X92381984Y-74987863D01*
X92472435Y-74852495D01*
X92534738Y-74702081D01*
X92534778Y-74701883D01*
X92555912Y-74595629D01*
X92566500Y-74542403D01*
X92566500Y-74379597D01*
X92566500Y-74379594D01*
X92566499Y-74379592D01*
X92534740Y-74219926D01*
X92534737Y-74219917D01*
X92472437Y-74069509D01*
X92472436Y-74069507D01*
X92419979Y-73991000D01*
X93794659Y-73991000D01*
X93813975Y-74187129D01*
X93871188Y-74375733D01*
X93964086Y-74549532D01*
X93964090Y-74549539D01*
X94089116Y-74701883D01*
X94241460Y-74826909D01*
X94241467Y-74826913D01*
X94415266Y-74919811D01*
X94415269Y-74919811D01*
X94415273Y-74919814D01*
X94603868Y-74977024D01*
X94800000Y-74996341D01*
X94996132Y-74977024D01*
X95184727Y-74919814D01*
X95358538Y-74826910D01*
X95510883Y-74701883D01*
X95635910Y-74549538D01*
X95714555Y-74402403D01*
X95728812Y-74375731D01*
X95728812Y-74375730D01*
X95728814Y-74375727D01*
X95770900Y-74236988D01*
X95809197Y-74178551D01*
X95873009Y-74150095D01*
X95942076Y-74160655D01*
X95994470Y-74206879D01*
X96009335Y-74240891D01*
X96066567Y-74454486D01*
X96066570Y-74454492D01*
X96166399Y-74668578D01*
X96301894Y-74862082D01*
X96468917Y-75029105D01*
X96662421Y-75164600D01*
X96876507Y-75264429D01*
X96876516Y-75264433D01*
X97090107Y-75321664D01*
X97149768Y-75358029D01*
X97180297Y-75420876D01*
X97172002Y-75490251D01*
X97127517Y-75544129D01*
X97094010Y-75560099D01*
X96955271Y-75602186D01*
X96781467Y-75695086D01*
X96781460Y-75695090D01*
X96629116Y-75820116D01*
X96504090Y-75972460D01*
X96504086Y-75972467D01*
X96411188Y-76146266D01*
X96353975Y-76334870D01*
X96334659Y-76531000D01*
X96353975Y-76727129D01*
X96411188Y-76915733D01*
X96504086Y-77089532D01*
X96504090Y-77089539D01*
X96629116Y-77241883D01*
X96781460Y-77366909D01*
X96781467Y-77366913D01*
X96955266Y-77459811D01*
X96955269Y-77459811D01*
X96955273Y-77459814D01*
X97143868Y-77517024D01*
X97340000Y-77536341D01*
X97536132Y-77517024D01*
X97724727Y-77459814D01*
X97774979Y-77432954D01*
X97812169Y-77413075D01*
X97898538Y-77366910D01*
X98050883Y-77241883D01*
X98175910Y-77089538D01*
X98268814Y-76915727D01*
X98326024Y-76727132D01*
X98345341Y-76531000D01*
X98326024Y-76334868D01*
X98268814Y-76146273D01*
X98268811Y-76146269D01*
X98268811Y-76146266D01*
X98175913Y-75972467D01*
X98175909Y-75972460D01*
X98050883Y-75820116D01*
X97898539Y-75695090D01*
X97898532Y-75695086D01*
X97724728Y-75602186D01*
X97585989Y-75560099D01*
X97527551Y-75521801D01*
X97499094Y-75457989D01*
X97509655Y-75388922D01*
X97555880Y-75336529D01*
X97589892Y-75321664D01*
X97803483Y-75264433D01*
X97803492Y-75264429D01*
X98017578Y-75164600D01*
X98211082Y-75029105D01*
X98378105Y-74862082D01*
X98513600Y-74668578D01*
X98613429Y-74454492D01*
X98613432Y-74454486D01*
X98670636Y-74241000D01*
X97773012Y-74241000D01*
X97805925Y-74183993D01*
X97840000Y-74056826D01*
X97840000Y-73925174D01*
X97805925Y-73798007D01*
X97773012Y-73741000D01*
X98670636Y-73741000D01*
X98670635Y-73740999D01*
X98613432Y-73527513D01*
X98613429Y-73527507D01*
X98513600Y-73313422D01*
X98513599Y-73313420D01*
X98378113Y-73119926D01*
X98378108Y-73119920D01*
X98211082Y-72952894D01*
X98017578Y-72817399D01*
X97803492Y-72717570D01*
X97803486Y-72717567D01*
X97590000Y-72660364D01*
X97590000Y-73557988D01*
X97532993Y-73525075D01*
X97405826Y-73491000D01*
X97274174Y-73491000D01*
X97147007Y-73525075D01*
X97090000Y-73557988D01*
X97090000Y-72660364D01*
X97089999Y-72660364D01*
X96876513Y-72717567D01*
X96876507Y-72717570D01*
X96662422Y-72817399D01*
X96662420Y-72817400D01*
X96468926Y-72952886D01*
X96468920Y-72952891D01*
X96301891Y-73119920D01*
X96301886Y-73119926D01*
X96166400Y-73313420D01*
X96166399Y-73313422D01*
X96066570Y-73527507D01*
X96066567Y-73527513D01*
X96009335Y-73741108D01*
X95972970Y-73800768D01*
X95910123Y-73831297D01*
X95840747Y-73823002D01*
X95786869Y-73778517D01*
X95770900Y-73745013D01*
X95728814Y-73606273D01*
X95728811Y-73606269D01*
X95728811Y-73606266D01*
X95635913Y-73432467D01*
X95635909Y-73432460D01*
X95510883Y-73280116D01*
X95358539Y-73155090D01*
X95358532Y-73155086D01*
X95184733Y-73062188D01*
X95184727Y-73062186D01*
X94996132Y-73004976D01*
X94996129Y-73004975D01*
X94800000Y-72985659D01*
X94603870Y-73004975D01*
X94415266Y-73062188D01*
X94241467Y-73155086D01*
X94241460Y-73155090D01*
X94089116Y-73280116D01*
X93964090Y-73432460D01*
X93964086Y-73432467D01*
X93871188Y-73606266D01*
X93813975Y-73794870D01*
X93794659Y-73991000D01*
X92419979Y-73991000D01*
X92406983Y-73971551D01*
X92381984Y-73934137D01*
X92381981Y-73934133D01*
X92266866Y-73819018D01*
X92266862Y-73819015D01*
X92131492Y-73728563D01*
X92131490Y-73728562D01*
X91981082Y-73666262D01*
X91981073Y-73666259D01*
X91821406Y-73634500D01*
X91821403Y-73634500D01*
X91658597Y-73634500D01*
X91658594Y-73634500D01*
X91498926Y-73666259D01*
X91498917Y-73666262D01*
X91348509Y-73728562D01*
X91348507Y-73728563D01*
X91213137Y-73819015D01*
X91147734Y-73884418D01*
X91086410Y-73917902D01*
X91016719Y-73912917D01*
X90960785Y-73871046D01*
X90937937Y-73818268D01*
X90914085Y-73682997D01*
X90914083Y-73682988D01*
X90813854Y-73348199D01*
X90675444Y-73027329D01*
X90675438Y-73027316D01*
X90500710Y-72724677D01*
X90292029Y-72444371D01*
X90283850Y-72435701D01*
X90283850Y-72435700D01*
X89033678Y-73685872D01*
X88943446Y-73561680D01*
X88804320Y-73422554D01*
X88680125Y-73332320D01*
X89927181Y-72085265D01*
X89927180Y-72085264D01*
X89784519Y-71965557D01*
X89568271Y-71823329D01*
X89523077Y-71770044D01*
X89513866Y-71700784D01*
X89543561Y-71637539D01*
X89602735Y-71600388D01*
X89636406Y-71595728D01*
X120753122Y-71596458D01*
G37*
G04 #@! TD.AperFunction*
G04 #@! TA.AperFunction,Conductor*
G36*
X87036554Y-75190320D02*
G01*
X87175680Y-75329446D01*
X87299873Y-75419678D01*
X86052817Y-76666733D01*
X86052818Y-76666734D01*
X86195480Y-76786442D01*
X86487461Y-76978480D01*
X86799739Y-77135314D01*
X86799745Y-77135316D01*
X87128130Y-77254838D01*
X87128133Y-77254839D01*
X87468171Y-77335429D01*
X87815276Y-77375999D01*
X87815277Y-77376000D01*
X88164722Y-77376000D01*
X88351479Y-77354171D01*
X88420351Y-77365940D01*
X88471926Y-77413075D01*
X88489832Y-77480612D01*
X88476360Y-77533627D01*
X88424353Y-77635695D01*
X88424352Y-77635699D01*
X88404508Y-77760996D01*
X88404508Y-77761003D01*
X88424352Y-77886300D01*
X88424352Y-77886301D01*
X88424354Y-77886304D01*
X88481950Y-77999342D01*
X88481952Y-77999344D01*
X88481954Y-77999347D01*
X88569426Y-78086819D01*
X88602911Y-78148142D01*
X88597927Y-78217834D01*
X88556055Y-78273767D01*
X88490591Y-78298184D01*
X88481745Y-78298500D01*
X85338688Y-78298500D01*
X85271649Y-78278815D01*
X85225894Y-78226011D01*
X85214688Y-78174500D01*
X85214688Y-76031792D01*
X85234373Y-75964753D01*
X85287177Y-75918998D01*
X85356335Y-75909054D01*
X85419891Y-75938079D01*
X85446076Y-75969793D01*
X85479291Y-76027325D01*
X85687972Y-76307631D01*
X85687976Y-76307636D01*
X85696147Y-76316297D01*
X85696148Y-76316298D01*
X86946320Y-75066125D01*
X87036554Y-75190320D01*
G37*
G04 #@! TD.AperFunction*
M02*
