G04 #@! TF.GenerationSoftware,KiCad,Pcbnew,5.1.5+dfsg1-2build2*
G04 #@! TF.CreationDate,2021-08-01T10:53:42+02:00*
G04 #@! TF.ProjectId,Sensor_Nodes,53656e73-6f72-45f4-9e6f-6465732e6b69,rev?*
G04 #@! TF.SameCoordinates,Original*
G04 #@! TF.FileFunction,Copper,L2,Inr*
G04 #@! TF.FilePolarity,Positive*
%FSLAX46Y46*%
G04 Gerber Fmt 4.6, Leading zero omitted, Abs format (unit mm)*
G04 Created by KiCad (PCBNEW 5.1.5+dfsg1-2build2) date 2021-08-01 10:53:42*
%MOMM*%
%LPD*%
G04 APERTURE LIST*
%ADD10O,1.700000X1.700000*%
%ADD11R,1.700000X1.700000*%
%ADD12C,0.800000*%
%ADD13C,6.400000*%
%ADD14C,0.500000*%
%ADD15C,0.254000*%
G04 APERTURE END LIST*
D10*
X130870000Y-93460000D03*
X130870000Y-96000000D03*
X128330000Y-93460000D03*
X128330000Y-96000000D03*
X125790000Y-93460000D03*
X125790000Y-96000000D03*
X123250000Y-93460000D03*
D11*
X123250000Y-96000000D03*
D10*
X150158000Y-79063000D03*
X150158000Y-81603000D03*
X150158000Y-84143000D03*
X150158000Y-86683000D03*
X150158000Y-89223000D03*
D11*
X150158000Y-91763000D03*
D10*
X118540000Y-83030000D03*
X116000000Y-83030000D03*
X118540000Y-80490000D03*
X116000000Y-80490000D03*
X118540000Y-77950000D03*
D11*
X116000000Y-77950000D03*
D12*
X114772057Y-108294200D03*
X113075001Y-107591256D03*
X111377945Y-108294200D03*
X110675001Y-109991256D03*
X111377945Y-111688312D03*
X113075001Y-112391256D03*
X114772057Y-111688312D03*
X115475001Y-109991256D03*
D13*
X113075001Y-109991256D03*
D12*
X150200000Y-108294200D03*
X148502944Y-107591256D03*
X146805888Y-108294200D03*
X146102944Y-109991256D03*
X146805888Y-111688312D03*
X148502944Y-112391256D03*
X150200000Y-111688312D03*
X150902944Y-109991256D03*
D13*
X148502944Y-109991256D03*
D12*
X114497056Y-67202944D03*
X112800000Y-66500000D03*
X111102944Y-67202944D03*
X110400000Y-68900000D03*
X111102944Y-70597056D03*
X112800000Y-71300000D03*
X114497056Y-70597056D03*
X115200000Y-68900000D03*
D13*
X112800000Y-68900000D03*
D12*
X150200000Y-66950000D03*
X148502944Y-66247056D03*
X146805888Y-66950000D03*
X146102944Y-68647056D03*
X146805888Y-70344112D03*
X148502944Y-71047056D03*
X150200000Y-70344112D03*
X150902944Y-68647056D03*
D13*
X148502944Y-68647056D03*
D14*
X147700000Y-101000000D03*
X147125000Y-100050000D03*
X148275000Y-100050000D03*
X147700000Y-99100000D03*
D12*
X131350000Y-108600000D03*
X124350000Y-104100000D03*
X126500000Y-111700000D03*
X115150000Y-89700000D03*
X118350000Y-88950000D03*
X124950000Y-91550000D03*
X150700000Y-98650000D03*
X147800000Y-94800000D03*
X141650000Y-104300000D03*
X129700000Y-79750000D03*
X117400000Y-74350000D03*
X119750000Y-72350000D03*
X139200000Y-71200000D03*
X145750000Y-78400000D03*
X133200000Y-103400000D03*
X113150000Y-75250000D03*
X119700000Y-74050000D03*
X142200000Y-79300000D03*
X145750000Y-73850000D03*
X142200000Y-71800000D03*
X147800000Y-96950000D03*
X135950000Y-104250000D03*
X136000000Y-75800000D03*
X133750000Y-86950000D03*
X133600000Y-79200000D03*
X133600000Y-77950000D03*
X128300000Y-105450000D03*
X135050000Y-76300000D03*
D15*
G36*
X146382274Y-65429501D02*
G01*
X146341856Y-65456508D01*
X145981668Y-65946175D01*
X148502944Y-68467451D01*
X148517087Y-68453309D01*
X148696692Y-68632914D01*
X148682549Y-68647056D01*
X151203825Y-71168332D01*
X151693492Y-70808144D01*
X152053793Y-70144174D01*
X152093179Y-70017224D01*
X152177952Y-105113415D01*
X152070901Y-104953202D01*
X151896798Y-104779099D01*
X151692074Y-104642307D01*
X151464598Y-104548083D01*
X151223110Y-104500048D01*
X150976890Y-104500048D01*
X150735402Y-104548083D01*
X150507926Y-104642307D01*
X150303202Y-104779099D01*
X150129099Y-104953202D01*
X149992307Y-105157926D01*
X149898083Y-105385402D01*
X149850048Y-105626890D01*
X149850048Y-105873110D01*
X149898083Y-106114598D01*
X149992307Y-106342074D01*
X150090974Y-106489740D01*
X150000062Y-106440407D01*
X149278559Y-106216562D01*
X148527249Y-106137776D01*
X147775006Y-106207078D01*
X147050736Y-106421804D01*
X146382274Y-106773701D01*
X146341856Y-106800708D01*
X145981668Y-107290375D01*
X148502944Y-109811651D01*
X151024220Y-107290375D01*
X150782089Y-106961204D01*
X150976890Y-106999952D01*
X151223110Y-106999952D01*
X151464598Y-106951917D01*
X151692074Y-106857693D01*
X151896798Y-106720901D01*
X152070901Y-106546798D01*
X152181016Y-106381999D01*
X152187161Y-108926152D01*
X152072396Y-108539048D01*
X151720499Y-107870586D01*
X151693492Y-107830168D01*
X151203825Y-107469980D01*
X148682549Y-109991256D01*
X148696692Y-110005399D01*
X148517087Y-110185004D01*
X148502944Y-110170861D01*
X145981668Y-112692137D01*
X146341856Y-113181804D01*
X146914382Y-113492483D01*
X117730072Y-113533073D01*
X117857693Y-113342074D01*
X117951917Y-113114598D01*
X117999952Y-112873110D01*
X117999952Y-112626890D01*
X117951917Y-112385402D01*
X117857693Y-112157926D01*
X117720901Y-111953202D01*
X117546798Y-111779099D01*
X117342074Y-111642307D01*
X117114598Y-111548083D01*
X116873110Y-111500048D01*
X116626890Y-111500048D01*
X116618623Y-111501692D01*
X116625850Y-111488374D01*
X116849695Y-110766871D01*
X116928481Y-110015561D01*
X116924003Y-109966951D01*
X144649464Y-109966951D01*
X144718766Y-110719194D01*
X144933492Y-111443464D01*
X145285389Y-112111926D01*
X145312396Y-112152344D01*
X145802063Y-112512532D01*
X148323339Y-109991256D01*
X145802063Y-107469980D01*
X145312396Y-107830168D01*
X144952095Y-108494138D01*
X144728250Y-109215641D01*
X144649464Y-109966951D01*
X116924003Y-109966951D01*
X116859179Y-109263318D01*
X116644453Y-108539048D01*
X116292556Y-107870586D01*
X116265549Y-107830168D01*
X115775882Y-107469980D01*
X113254606Y-109991256D01*
X113268749Y-110005399D01*
X113089144Y-110185004D01*
X113075001Y-110170861D01*
X113060859Y-110185004D01*
X112881254Y-110005399D01*
X112895396Y-109991256D01*
X110374120Y-107469980D01*
X109884453Y-107830168D01*
X109524152Y-108494138D01*
X109359999Y-109023240D01*
X109359999Y-107290375D01*
X110553725Y-107290375D01*
X113075001Y-109811651D01*
X115596277Y-107290375D01*
X115236089Y-106800708D01*
X114572119Y-106440407D01*
X113850616Y-106216562D01*
X113099306Y-106137776D01*
X112347063Y-106207078D01*
X111622793Y-106421804D01*
X110954331Y-106773701D01*
X110913913Y-106800708D01*
X110553725Y-107290375D01*
X109359999Y-107290375D01*
X109359999Y-105348061D01*
X127265000Y-105348061D01*
X127265000Y-105551939D01*
X127304774Y-105751898D01*
X127382795Y-105940256D01*
X127496063Y-106109774D01*
X127640226Y-106253937D01*
X127809744Y-106367205D01*
X127998102Y-106445226D01*
X128198061Y-106485000D01*
X128401939Y-106485000D01*
X128601898Y-106445226D01*
X128790256Y-106367205D01*
X128959774Y-106253937D01*
X129103937Y-106109774D01*
X129217205Y-105940256D01*
X129295226Y-105751898D01*
X129335000Y-105551939D01*
X129335000Y-105348061D01*
X129295226Y-105148102D01*
X129217205Y-104959744D01*
X129103937Y-104790226D01*
X128959774Y-104646063D01*
X128790256Y-104532795D01*
X128601898Y-104454774D01*
X128401939Y-104415000D01*
X128198061Y-104415000D01*
X127998102Y-104454774D01*
X127809744Y-104532795D01*
X127640226Y-104646063D01*
X127496063Y-104790226D01*
X127382795Y-104959744D01*
X127304774Y-105148102D01*
X127265000Y-105348061D01*
X109359999Y-105348061D01*
X109359999Y-104148061D01*
X134915000Y-104148061D01*
X134915000Y-104351939D01*
X134954774Y-104551898D01*
X135032795Y-104740256D01*
X135146063Y-104909774D01*
X135290226Y-105053937D01*
X135459744Y-105167205D01*
X135648102Y-105245226D01*
X135848061Y-105285000D01*
X136051939Y-105285000D01*
X136251898Y-105245226D01*
X136440256Y-105167205D01*
X136609774Y-105053937D01*
X136753937Y-104909774D01*
X136867205Y-104740256D01*
X136945226Y-104551898D01*
X136985000Y-104351939D01*
X136985000Y-104148061D01*
X136945226Y-103948102D01*
X136867205Y-103759744D01*
X136753937Y-103590226D01*
X136609774Y-103446063D01*
X136440256Y-103332795D01*
X136251898Y-103254774D01*
X136051939Y-103215000D01*
X135848061Y-103215000D01*
X135648102Y-103254774D01*
X135459744Y-103332795D01*
X135290226Y-103446063D01*
X135146063Y-103590226D01*
X135032795Y-103759744D01*
X134954774Y-103948102D01*
X134915000Y-104148061D01*
X109359999Y-104148061D01*
X109359999Y-101596164D01*
X147277784Y-101596164D01*
X147281826Y-101784827D01*
X147442974Y-101851328D01*
X147613998Y-101885113D01*
X147788328Y-101884884D01*
X147959264Y-101850649D01*
X148118174Y-101784827D01*
X148122216Y-101596164D01*
X147700000Y-101173948D01*
X147277784Y-101596164D01*
X109359999Y-101596164D01*
X109359999Y-99963998D01*
X146239887Y-99963998D01*
X146240116Y-100138328D01*
X146274351Y-100309264D01*
X146340173Y-100468174D01*
X146528836Y-100472216D01*
X146951052Y-100050000D01*
X146528836Y-99627784D01*
X146340173Y-99631826D01*
X146273672Y-99792974D01*
X146239887Y-99963998D01*
X109359999Y-99963998D01*
X109359999Y-99453836D01*
X146702784Y-99453836D01*
X147125000Y-99876052D01*
X147141971Y-99859081D01*
X147315919Y-100033029D01*
X147298948Y-100050000D01*
X147315919Y-100066971D01*
X147141971Y-100240919D01*
X147125000Y-100223948D01*
X146702784Y-100646164D01*
X146706826Y-100834827D01*
X146821203Y-100882027D01*
X146814887Y-100913998D01*
X146815116Y-101088328D01*
X146849351Y-101259264D01*
X146915173Y-101418174D01*
X147103836Y-101422216D01*
X147526052Y-101000000D01*
X147509081Y-100983029D01*
X147683029Y-100809081D01*
X147700000Y-100826052D01*
X147716971Y-100809081D01*
X147890919Y-100983029D01*
X147873948Y-101000000D01*
X148296164Y-101422216D01*
X148484827Y-101418174D01*
X148551328Y-101257026D01*
X148585113Y-101086002D01*
X148584884Y-100911672D01*
X148578968Y-100882132D01*
X148693174Y-100834827D01*
X148697216Y-100646164D01*
X148275000Y-100223948D01*
X148258029Y-100240919D01*
X148084081Y-100066971D01*
X148101052Y-100050000D01*
X148448948Y-100050000D01*
X148871164Y-100472216D01*
X149059827Y-100468174D01*
X149126328Y-100307026D01*
X149160113Y-100136002D01*
X149159884Y-99961672D01*
X149125649Y-99790736D01*
X149059827Y-99631826D01*
X148871164Y-99627784D01*
X148448948Y-100050000D01*
X148101052Y-100050000D01*
X148084081Y-100033029D01*
X148258029Y-99859081D01*
X148275000Y-99876052D01*
X148697216Y-99453836D01*
X148693174Y-99265173D01*
X148578797Y-99217973D01*
X148585113Y-99186002D01*
X148584884Y-99011672D01*
X148550649Y-98840736D01*
X148484827Y-98681826D01*
X148296164Y-98677784D01*
X147873948Y-99100000D01*
X147890919Y-99116971D01*
X147716971Y-99290919D01*
X147700000Y-99273948D01*
X147683029Y-99290919D01*
X147509081Y-99116971D01*
X147526052Y-99100000D01*
X147103836Y-98677784D01*
X146915173Y-98681826D01*
X146848672Y-98842974D01*
X146814887Y-99013998D01*
X146815116Y-99188328D01*
X146821032Y-99217868D01*
X146706826Y-99265173D01*
X146702784Y-99453836D01*
X109359999Y-99453836D01*
X109359999Y-98503836D01*
X147277784Y-98503836D01*
X147700000Y-98926052D01*
X148122216Y-98503836D01*
X148118174Y-98315173D01*
X147957026Y-98248672D01*
X147786002Y-98214887D01*
X147611672Y-98215116D01*
X147440736Y-98249351D01*
X147281826Y-98315173D01*
X147277784Y-98503836D01*
X109359999Y-98503836D01*
X109359999Y-95150000D01*
X121761928Y-95150000D01*
X121761928Y-96850000D01*
X121774188Y-96974482D01*
X121810498Y-97094180D01*
X121869463Y-97204494D01*
X121948815Y-97301185D01*
X122045506Y-97380537D01*
X122155820Y-97439502D01*
X122275518Y-97475812D01*
X122400000Y-97488072D01*
X124100000Y-97488072D01*
X124224482Y-97475812D01*
X124344180Y-97439502D01*
X124454494Y-97380537D01*
X124551185Y-97301185D01*
X124630537Y-97204494D01*
X124689502Y-97094180D01*
X124711513Y-97021620D01*
X124843368Y-97153475D01*
X125086589Y-97315990D01*
X125356842Y-97427932D01*
X125643740Y-97485000D01*
X125936260Y-97485000D01*
X126223158Y-97427932D01*
X126493411Y-97315990D01*
X126736632Y-97153475D01*
X126943475Y-96946632D01*
X127060000Y-96772240D01*
X127176525Y-96946632D01*
X127383368Y-97153475D01*
X127626589Y-97315990D01*
X127896842Y-97427932D01*
X128183740Y-97485000D01*
X128476260Y-97485000D01*
X128763158Y-97427932D01*
X129033411Y-97315990D01*
X129276632Y-97153475D01*
X129483475Y-96946632D01*
X129600000Y-96772240D01*
X129716525Y-96946632D01*
X129923368Y-97153475D01*
X130166589Y-97315990D01*
X130436842Y-97427932D01*
X130723740Y-97485000D01*
X131016260Y-97485000D01*
X131303158Y-97427932D01*
X131573411Y-97315990D01*
X131816632Y-97153475D01*
X132023475Y-96946632D01*
X132089338Y-96848061D01*
X146765000Y-96848061D01*
X146765000Y-97051939D01*
X146804774Y-97251898D01*
X146882795Y-97440256D01*
X146996063Y-97609774D01*
X147140226Y-97753937D01*
X147309744Y-97867205D01*
X147498102Y-97945226D01*
X147698061Y-97985000D01*
X147901939Y-97985000D01*
X148101898Y-97945226D01*
X148290256Y-97867205D01*
X148459774Y-97753937D01*
X148603937Y-97609774D01*
X148717205Y-97440256D01*
X148795226Y-97251898D01*
X148835000Y-97051939D01*
X148835000Y-96848061D01*
X148795226Y-96648102D01*
X148717205Y-96459744D01*
X148603937Y-96290226D01*
X148459774Y-96146063D01*
X148290256Y-96032795D01*
X148101898Y-95954774D01*
X147901939Y-95915000D01*
X147698061Y-95915000D01*
X147498102Y-95954774D01*
X147309744Y-96032795D01*
X147140226Y-96146063D01*
X146996063Y-96290226D01*
X146882795Y-96459744D01*
X146804774Y-96648102D01*
X146765000Y-96848061D01*
X132089338Y-96848061D01*
X132185990Y-96703411D01*
X132297932Y-96433158D01*
X132355000Y-96146260D01*
X132355000Y-95853740D01*
X132297932Y-95566842D01*
X132185990Y-95296589D01*
X132023475Y-95053368D01*
X131816632Y-94846525D01*
X131642240Y-94730000D01*
X131816632Y-94613475D01*
X132023475Y-94406632D01*
X132185990Y-94163411D01*
X132297932Y-93893158D01*
X132355000Y-93606260D01*
X132355000Y-93313740D01*
X132297932Y-93026842D01*
X132185990Y-92756589D01*
X132023475Y-92513368D01*
X131816632Y-92306525D01*
X131573411Y-92144010D01*
X131303158Y-92032068D01*
X131016260Y-91975000D01*
X130723740Y-91975000D01*
X130436842Y-92032068D01*
X130166589Y-92144010D01*
X129923368Y-92306525D01*
X129716525Y-92513368D01*
X129600000Y-92687760D01*
X129483475Y-92513368D01*
X129276632Y-92306525D01*
X129033411Y-92144010D01*
X128763158Y-92032068D01*
X128476260Y-91975000D01*
X128183740Y-91975000D01*
X127896842Y-92032068D01*
X127626589Y-92144010D01*
X127383368Y-92306525D01*
X127176525Y-92513368D01*
X127060000Y-92687760D01*
X126943475Y-92513368D01*
X126736632Y-92306525D01*
X126493411Y-92144010D01*
X126223158Y-92032068D01*
X125936260Y-91975000D01*
X125643740Y-91975000D01*
X125356842Y-92032068D01*
X125086589Y-92144010D01*
X124843368Y-92306525D01*
X124636525Y-92513368D01*
X124520000Y-92687760D01*
X124403475Y-92513368D01*
X124196632Y-92306525D01*
X123953411Y-92144010D01*
X123683158Y-92032068D01*
X123396260Y-91975000D01*
X123103740Y-91975000D01*
X122816842Y-92032068D01*
X122546589Y-92144010D01*
X122303368Y-92306525D01*
X122096525Y-92513368D01*
X121934010Y-92756589D01*
X121822068Y-93026842D01*
X121765000Y-93313740D01*
X121765000Y-93606260D01*
X121822068Y-93893158D01*
X121934010Y-94163411D01*
X122096525Y-94406632D01*
X122228380Y-94538487D01*
X122155820Y-94560498D01*
X122045506Y-94619463D01*
X121948815Y-94698815D01*
X121869463Y-94795506D01*
X121810498Y-94905820D01*
X121774188Y-95025518D01*
X121761928Y-95150000D01*
X109359999Y-95150000D01*
X109359999Y-90913000D01*
X148669928Y-90913000D01*
X148669928Y-92613000D01*
X148682188Y-92737482D01*
X148718498Y-92857180D01*
X148777463Y-92967494D01*
X148856815Y-93064185D01*
X148953506Y-93143537D01*
X149063820Y-93202502D01*
X149183518Y-93238812D01*
X149308000Y-93251072D01*
X151008000Y-93251072D01*
X151132482Y-93238812D01*
X151252180Y-93202502D01*
X151362494Y-93143537D01*
X151459185Y-93064185D01*
X151538537Y-92967494D01*
X151597502Y-92857180D01*
X151633812Y-92737482D01*
X151646072Y-92613000D01*
X151646072Y-90913000D01*
X151633812Y-90788518D01*
X151597502Y-90668820D01*
X151538537Y-90558506D01*
X151459185Y-90461815D01*
X151362494Y-90382463D01*
X151252180Y-90323498D01*
X151179620Y-90301487D01*
X151311475Y-90169632D01*
X151473990Y-89926411D01*
X151585932Y-89656158D01*
X151643000Y-89369260D01*
X151643000Y-89076740D01*
X151585932Y-88789842D01*
X151473990Y-88519589D01*
X151311475Y-88276368D01*
X151104632Y-88069525D01*
X150930240Y-87953000D01*
X151104632Y-87836475D01*
X151311475Y-87629632D01*
X151473990Y-87386411D01*
X151585932Y-87116158D01*
X151643000Y-86829260D01*
X151643000Y-86536740D01*
X151585932Y-86249842D01*
X151473990Y-85979589D01*
X151311475Y-85736368D01*
X151104632Y-85529525D01*
X150930240Y-85413000D01*
X151104632Y-85296475D01*
X151311475Y-85089632D01*
X151473990Y-84846411D01*
X151585932Y-84576158D01*
X151643000Y-84289260D01*
X151643000Y-83996740D01*
X151585932Y-83709842D01*
X151473990Y-83439589D01*
X151311475Y-83196368D01*
X151104632Y-82989525D01*
X150930240Y-82873000D01*
X151104632Y-82756475D01*
X151311475Y-82549632D01*
X151473990Y-82306411D01*
X151585932Y-82036158D01*
X151643000Y-81749260D01*
X151643000Y-81456740D01*
X151585932Y-81169842D01*
X151473990Y-80899589D01*
X151311475Y-80656368D01*
X151104632Y-80449525D01*
X150930240Y-80333000D01*
X151104632Y-80216475D01*
X151311475Y-80009632D01*
X151473990Y-79766411D01*
X151585932Y-79496158D01*
X151643000Y-79209260D01*
X151643000Y-78916740D01*
X151585932Y-78629842D01*
X151473990Y-78359589D01*
X151311475Y-78116368D01*
X151104632Y-77909525D01*
X150861411Y-77747010D01*
X150591158Y-77635068D01*
X150304260Y-77578000D01*
X150011740Y-77578000D01*
X149724842Y-77635068D01*
X149454589Y-77747010D01*
X149211368Y-77909525D01*
X149004525Y-78116368D01*
X148842010Y-78359589D01*
X148730068Y-78629842D01*
X148673000Y-78916740D01*
X148673000Y-79209260D01*
X148730068Y-79496158D01*
X148842010Y-79766411D01*
X149004525Y-80009632D01*
X149211368Y-80216475D01*
X149385760Y-80333000D01*
X149211368Y-80449525D01*
X149004525Y-80656368D01*
X148842010Y-80899589D01*
X148730068Y-81169842D01*
X148673000Y-81456740D01*
X148673000Y-81749260D01*
X148730068Y-82036158D01*
X148842010Y-82306411D01*
X149004525Y-82549632D01*
X149211368Y-82756475D01*
X149385760Y-82873000D01*
X149211368Y-82989525D01*
X149004525Y-83196368D01*
X148842010Y-83439589D01*
X148730068Y-83709842D01*
X148673000Y-83996740D01*
X148673000Y-84289260D01*
X148730068Y-84576158D01*
X148842010Y-84846411D01*
X149004525Y-85089632D01*
X149211368Y-85296475D01*
X149385760Y-85413000D01*
X149211368Y-85529525D01*
X149004525Y-85736368D01*
X148842010Y-85979589D01*
X148730068Y-86249842D01*
X148673000Y-86536740D01*
X148673000Y-86829260D01*
X148730068Y-87116158D01*
X148842010Y-87386411D01*
X149004525Y-87629632D01*
X149211368Y-87836475D01*
X149385760Y-87953000D01*
X149211368Y-88069525D01*
X149004525Y-88276368D01*
X148842010Y-88519589D01*
X148730068Y-88789842D01*
X148673000Y-89076740D01*
X148673000Y-89369260D01*
X148730068Y-89656158D01*
X148842010Y-89926411D01*
X149004525Y-90169632D01*
X149136380Y-90301487D01*
X149063820Y-90323498D01*
X148953506Y-90382463D01*
X148856815Y-90461815D01*
X148777463Y-90558506D01*
X148718498Y-90668820D01*
X148682188Y-90788518D01*
X148669928Y-90913000D01*
X109359999Y-90913000D01*
X109359999Y-86848061D01*
X132715000Y-86848061D01*
X132715000Y-87051939D01*
X132754774Y-87251898D01*
X132832795Y-87440256D01*
X132946063Y-87609774D01*
X133090226Y-87753937D01*
X133259744Y-87867205D01*
X133448102Y-87945226D01*
X133648061Y-87985000D01*
X133851939Y-87985000D01*
X134051898Y-87945226D01*
X134240256Y-87867205D01*
X134409774Y-87753937D01*
X134553937Y-87609774D01*
X134667205Y-87440256D01*
X134745226Y-87251898D01*
X134785000Y-87051939D01*
X134785000Y-86848061D01*
X134745226Y-86648102D01*
X134667205Y-86459744D01*
X134553937Y-86290226D01*
X134409774Y-86146063D01*
X134240256Y-86032795D01*
X134051898Y-85954774D01*
X133851939Y-85915000D01*
X133648061Y-85915000D01*
X133448102Y-85954774D01*
X133259744Y-86032795D01*
X133090226Y-86146063D01*
X132946063Y-86290226D01*
X132832795Y-86459744D01*
X132754774Y-86648102D01*
X132715000Y-86848061D01*
X109359999Y-86848061D01*
X109359999Y-77100000D01*
X114511928Y-77100000D01*
X114511928Y-78800000D01*
X114524188Y-78924482D01*
X114560498Y-79044180D01*
X114619463Y-79154494D01*
X114698815Y-79251185D01*
X114795506Y-79330537D01*
X114905820Y-79389502D01*
X114978380Y-79411513D01*
X114846525Y-79543368D01*
X114684010Y-79786589D01*
X114572068Y-80056842D01*
X114515000Y-80343740D01*
X114515000Y-80636260D01*
X114572068Y-80923158D01*
X114684010Y-81193411D01*
X114846525Y-81436632D01*
X115053368Y-81643475D01*
X115227760Y-81760000D01*
X115053368Y-81876525D01*
X114846525Y-82083368D01*
X114684010Y-82326589D01*
X114572068Y-82596842D01*
X114515000Y-82883740D01*
X114515000Y-83176260D01*
X114572068Y-83463158D01*
X114684010Y-83733411D01*
X114846525Y-83976632D01*
X115053368Y-84183475D01*
X115296589Y-84345990D01*
X115566842Y-84457932D01*
X115853740Y-84515000D01*
X116146260Y-84515000D01*
X116433158Y-84457932D01*
X116703411Y-84345990D01*
X116946632Y-84183475D01*
X117153475Y-83976632D01*
X117270000Y-83802240D01*
X117386525Y-83976632D01*
X117593368Y-84183475D01*
X117836589Y-84345990D01*
X118106842Y-84457932D01*
X118393740Y-84515000D01*
X118686260Y-84515000D01*
X118973158Y-84457932D01*
X119243411Y-84345990D01*
X119486632Y-84183475D01*
X119693475Y-83976632D01*
X119855990Y-83733411D01*
X119967932Y-83463158D01*
X120025000Y-83176260D01*
X120025000Y-82883740D01*
X119967932Y-82596842D01*
X119855990Y-82326589D01*
X119693475Y-82083368D01*
X119486632Y-81876525D01*
X119304466Y-81754805D01*
X119421355Y-81685178D01*
X119637588Y-81490269D01*
X119811641Y-81256920D01*
X119936825Y-80994099D01*
X119981476Y-80846890D01*
X119860155Y-80617000D01*
X118667000Y-80617000D01*
X118667000Y-80637000D01*
X118413000Y-80637000D01*
X118413000Y-80617000D01*
X118393000Y-80617000D01*
X118393000Y-80363000D01*
X118413000Y-80363000D01*
X118413000Y-80343000D01*
X118667000Y-80343000D01*
X118667000Y-80363000D01*
X119860155Y-80363000D01*
X119981476Y-80133110D01*
X119936825Y-79985901D01*
X119811641Y-79723080D01*
X119637588Y-79489731D01*
X119421355Y-79294822D01*
X119304466Y-79225195D01*
X119486632Y-79103475D01*
X119693475Y-78896632D01*
X119855990Y-78653411D01*
X119967932Y-78383158D01*
X120025000Y-78096260D01*
X120025000Y-77848061D01*
X132565000Y-77848061D01*
X132565000Y-78051939D01*
X132604774Y-78251898D01*
X132682795Y-78440256D01*
X132772828Y-78575000D01*
X132682795Y-78709744D01*
X132604774Y-78898102D01*
X132565000Y-79098061D01*
X132565000Y-79301939D01*
X132604774Y-79501898D01*
X132682795Y-79690256D01*
X132796063Y-79859774D01*
X132940226Y-80003937D01*
X133109744Y-80117205D01*
X133298102Y-80195226D01*
X133498061Y-80235000D01*
X133701939Y-80235000D01*
X133901898Y-80195226D01*
X134090256Y-80117205D01*
X134259774Y-80003937D01*
X134403937Y-79859774D01*
X134517205Y-79690256D01*
X134595226Y-79501898D01*
X134635000Y-79301939D01*
X134635000Y-79198061D01*
X141165000Y-79198061D01*
X141165000Y-79401939D01*
X141204774Y-79601898D01*
X141282795Y-79790256D01*
X141396063Y-79959774D01*
X141540226Y-80103937D01*
X141709744Y-80217205D01*
X141898102Y-80295226D01*
X142098061Y-80335000D01*
X142301939Y-80335000D01*
X142501898Y-80295226D01*
X142690256Y-80217205D01*
X142859774Y-80103937D01*
X143003937Y-79959774D01*
X143117205Y-79790256D01*
X143195226Y-79601898D01*
X143235000Y-79401939D01*
X143235000Y-79198061D01*
X143195226Y-78998102D01*
X143117205Y-78809744D01*
X143003937Y-78640226D01*
X142859774Y-78496063D01*
X142690256Y-78382795D01*
X142501898Y-78304774D01*
X142301939Y-78265000D01*
X142098061Y-78265000D01*
X141898102Y-78304774D01*
X141709744Y-78382795D01*
X141540226Y-78496063D01*
X141396063Y-78640226D01*
X141282795Y-78809744D01*
X141204774Y-78998102D01*
X141165000Y-79198061D01*
X134635000Y-79198061D01*
X134635000Y-79098061D01*
X134595226Y-78898102D01*
X134517205Y-78709744D01*
X134427172Y-78575000D01*
X134517205Y-78440256D01*
X134595226Y-78251898D01*
X134635000Y-78051939D01*
X134635000Y-77848061D01*
X134595226Y-77648102D01*
X134517205Y-77459744D01*
X134403937Y-77290226D01*
X134259774Y-77146063D01*
X134090256Y-77032795D01*
X133901898Y-76954774D01*
X133701939Y-76915000D01*
X133498061Y-76915000D01*
X133298102Y-76954774D01*
X133109744Y-77032795D01*
X132940226Y-77146063D01*
X132796063Y-77290226D01*
X132682795Y-77459744D01*
X132604774Y-77648102D01*
X132565000Y-77848061D01*
X120025000Y-77848061D01*
X120025000Y-77803740D01*
X119967932Y-77516842D01*
X119855990Y-77246589D01*
X119693475Y-77003368D01*
X119486632Y-76796525D01*
X119243411Y-76634010D01*
X118973158Y-76522068D01*
X118686260Y-76465000D01*
X118393740Y-76465000D01*
X118106842Y-76522068D01*
X117836589Y-76634010D01*
X117593368Y-76796525D01*
X117461513Y-76928380D01*
X117439502Y-76855820D01*
X117380537Y-76745506D01*
X117301185Y-76648815D01*
X117204494Y-76569463D01*
X117094180Y-76510498D01*
X116974482Y-76474188D01*
X116850000Y-76461928D01*
X115150000Y-76461928D01*
X115025518Y-76474188D01*
X114905820Y-76510498D01*
X114795506Y-76569463D01*
X114698815Y-76648815D01*
X114619463Y-76745506D01*
X114560498Y-76855820D01*
X114524188Y-76975518D01*
X114511928Y-77100000D01*
X109359999Y-77100000D01*
X109360000Y-75148061D01*
X112115000Y-75148061D01*
X112115000Y-75351939D01*
X112154774Y-75551898D01*
X112232795Y-75740256D01*
X112346063Y-75909774D01*
X112490226Y-76053937D01*
X112659744Y-76167205D01*
X112848102Y-76245226D01*
X113048061Y-76285000D01*
X113251939Y-76285000D01*
X113451898Y-76245226D01*
X113565763Y-76198061D01*
X134015000Y-76198061D01*
X134015000Y-76401939D01*
X134054774Y-76601898D01*
X134132795Y-76790256D01*
X134246063Y-76959774D01*
X134390226Y-77103937D01*
X134559744Y-77217205D01*
X134748102Y-77295226D01*
X134948061Y-77335000D01*
X135151939Y-77335000D01*
X135351898Y-77295226D01*
X135540256Y-77217205D01*
X135709774Y-77103937D01*
X135853937Y-76959774D01*
X135937308Y-76835000D01*
X136101939Y-76835000D01*
X136301898Y-76795226D01*
X136490256Y-76717205D01*
X136659774Y-76603937D01*
X136803937Y-76459774D01*
X136917205Y-76290256D01*
X136995226Y-76101898D01*
X137035000Y-75901939D01*
X137035000Y-75698061D01*
X136995226Y-75498102D01*
X136917205Y-75309744D01*
X136895253Y-75276890D01*
X149000048Y-75276890D01*
X149000048Y-75523110D01*
X149048083Y-75764598D01*
X149142307Y-75992074D01*
X149279099Y-76196798D01*
X149453202Y-76370901D01*
X149657926Y-76507693D01*
X149885402Y-76601917D01*
X150126890Y-76649952D01*
X150373110Y-76649952D01*
X150614598Y-76601917D01*
X150842074Y-76507693D01*
X151046798Y-76370901D01*
X151220901Y-76196798D01*
X151357693Y-75992074D01*
X151451917Y-75764598D01*
X151499952Y-75523110D01*
X151499952Y-75276890D01*
X151451917Y-75035402D01*
X151357693Y-74807926D01*
X151220901Y-74603202D01*
X151046798Y-74429099D01*
X150842074Y-74292307D01*
X150614598Y-74198083D01*
X150373110Y-74150048D01*
X150126890Y-74150048D01*
X149885402Y-74198083D01*
X149657926Y-74292307D01*
X149453202Y-74429099D01*
X149279099Y-74603202D01*
X149142307Y-74807926D01*
X149048083Y-75035402D01*
X149000048Y-75276890D01*
X136895253Y-75276890D01*
X136803937Y-75140226D01*
X136659774Y-74996063D01*
X136490256Y-74882795D01*
X136301898Y-74804774D01*
X136101939Y-74765000D01*
X135898061Y-74765000D01*
X135698102Y-74804774D01*
X135509744Y-74882795D01*
X135340226Y-74996063D01*
X135196063Y-75140226D01*
X135112692Y-75265000D01*
X134948061Y-75265000D01*
X134748102Y-75304774D01*
X134559744Y-75382795D01*
X134390226Y-75496063D01*
X134246063Y-75640226D01*
X134132795Y-75809744D01*
X134054774Y-75998102D01*
X134015000Y-76198061D01*
X113565763Y-76198061D01*
X113640256Y-76167205D01*
X113809774Y-76053937D01*
X113953937Y-75909774D01*
X114067205Y-75740256D01*
X114145226Y-75551898D01*
X114185000Y-75351939D01*
X114185000Y-75148061D01*
X114145226Y-74948102D01*
X114067205Y-74759744D01*
X113953937Y-74590226D01*
X113809774Y-74446063D01*
X113640256Y-74332795D01*
X113451898Y-74254774D01*
X113251939Y-74215000D01*
X113048061Y-74215000D01*
X112848102Y-74254774D01*
X112659744Y-74332795D01*
X112490226Y-74446063D01*
X112346063Y-74590226D01*
X112232795Y-74759744D01*
X112154774Y-74948102D01*
X112115000Y-75148061D01*
X109360000Y-75148061D01*
X109360001Y-73676890D01*
X109650048Y-73676890D01*
X109650048Y-73923110D01*
X109698083Y-74164598D01*
X109792307Y-74392074D01*
X109929099Y-74596798D01*
X110103202Y-74770901D01*
X110307926Y-74907693D01*
X110535402Y-75001917D01*
X110776890Y-75049952D01*
X111023110Y-75049952D01*
X111264598Y-75001917D01*
X111492074Y-74907693D01*
X111696798Y-74770901D01*
X111870901Y-74596798D01*
X112007693Y-74392074D01*
X112101917Y-74164598D01*
X112144988Y-73948061D01*
X118665000Y-73948061D01*
X118665000Y-74151939D01*
X118704774Y-74351898D01*
X118782795Y-74540256D01*
X118896063Y-74709774D01*
X119040226Y-74853937D01*
X119209744Y-74967205D01*
X119398102Y-75045226D01*
X119598061Y-75085000D01*
X119801939Y-75085000D01*
X120001898Y-75045226D01*
X120190256Y-74967205D01*
X120359774Y-74853937D01*
X120503937Y-74709774D01*
X120617205Y-74540256D01*
X120695226Y-74351898D01*
X120735000Y-74151939D01*
X120735000Y-73948061D01*
X120695226Y-73748102D01*
X120695210Y-73748061D01*
X144715000Y-73748061D01*
X144715000Y-73951939D01*
X144754774Y-74151898D01*
X144832795Y-74340256D01*
X144946063Y-74509774D01*
X145090226Y-74653937D01*
X145259744Y-74767205D01*
X145448102Y-74845226D01*
X145648061Y-74885000D01*
X145851939Y-74885000D01*
X146051898Y-74845226D01*
X146240256Y-74767205D01*
X146409774Y-74653937D01*
X146553937Y-74509774D01*
X146667205Y-74340256D01*
X146745226Y-74151898D01*
X146785000Y-73951939D01*
X146785000Y-73748061D01*
X146745226Y-73548102D01*
X146667205Y-73359744D01*
X146553937Y-73190226D01*
X146409774Y-73046063D01*
X146240256Y-72932795D01*
X146051898Y-72854774D01*
X145851939Y-72815000D01*
X145648061Y-72815000D01*
X145448102Y-72854774D01*
X145259744Y-72932795D01*
X145090226Y-73046063D01*
X144946063Y-73190226D01*
X144832795Y-73359744D01*
X144754774Y-73548102D01*
X144715000Y-73748061D01*
X120695210Y-73748061D01*
X120617205Y-73559744D01*
X120503937Y-73390226D01*
X120359774Y-73246063D01*
X120190256Y-73132795D01*
X120001898Y-73054774D01*
X119801939Y-73015000D01*
X119598061Y-73015000D01*
X119398102Y-73054774D01*
X119209744Y-73132795D01*
X119040226Y-73246063D01*
X118896063Y-73390226D01*
X118782795Y-73559744D01*
X118704774Y-73748102D01*
X118665000Y-73948061D01*
X112144988Y-73948061D01*
X112149952Y-73923110D01*
X112149952Y-73676890D01*
X112101917Y-73435402D01*
X112007693Y-73207926D01*
X111870901Y-73003202D01*
X111696798Y-72829099D01*
X111492074Y-72692307D01*
X111264598Y-72598083D01*
X111023110Y-72550048D01*
X110776890Y-72550048D01*
X110535402Y-72598083D01*
X110307926Y-72692307D01*
X110103202Y-72829099D01*
X109929099Y-73003202D01*
X109792307Y-73207926D01*
X109698083Y-73435402D01*
X109650048Y-73676890D01*
X109360001Y-73676890D01*
X109360001Y-71600881D01*
X110278724Y-71600881D01*
X110638912Y-72090548D01*
X111302882Y-72450849D01*
X112024385Y-72674694D01*
X112775695Y-72753480D01*
X113527938Y-72684178D01*
X114252208Y-72469452D01*
X114920670Y-72117555D01*
X114961088Y-72090548D01*
X115249792Y-71698061D01*
X141165000Y-71698061D01*
X141165000Y-71901939D01*
X141204774Y-72101898D01*
X141282795Y-72290256D01*
X141396063Y-72459774D01*
X141540226Y-72603937D01*
X141709744Y-72717205D01*
X141898102Y-72795226D01*
X142098061Y-72835000D01*
X142301939Y-72835000D01*
X142501898Y-72795226D01*
X142690256Y-72717205D01*
X142859774Y-72603937D01*
X143003937Y-72459774D01*
X143117205Y-72290256D01*
X143195226Y-72101898D01*
X143235000Y-71901939D01*
X143235000Y-71698061D01*
X143195226Y-71498102D01*
X143133026Y-71347937D01*
X145981668Y-71347937D01*
X146341856Y-71837604D01*
X147005826Y-72197905D01*
X147727329Y-72421750D01*
X148478639Y-72500536D01*
X149230882Y-72431234D01*
X149955152Y-72216508D01*
X150623614Y-71864611D01*
X150664032Y-71837604D01*
X151024220Y-71347937D01*
X148502944Y-68826661D01*
X145981668Y-71347937D01*
X143133026Y-71347937D01*
X143117205Y-71309744D01*
X143003937Y-71140226D01*
X142859774Y-70996063D01*
X142690256Y-70882795D01*
X142501898Y-70804774D01*
X142301939Y-70765000D01*
X142098061Y-70765000D01*
X141898102Y-70804774D01*
X141709744Y-70882795D01*
X141540226Y-70996063D01*
X141396063Y-71140226D01*
X141282795Y-71309744D01*
X141204774Y-71498102D01*
X141165000Y-71698061D01*
X115249792Y-71698061D01*
X115321276Y-71600881D01*
X112800000Y-69079605D01*
X110278724Y-71600881D01*
X109360001Y-71600881D01*
X109360002Y-70598118D01*
X109582445Y-71020670D01*
X109609452Y-71061088D01*
X110099119Y-71421276D01*
X112620395Y-68900000D01*
X112979605Y-68900000D01*
X115500881Y-71421276D01*
X115990548Y-71061088D01*
X116350849Y-70397118D01*
X116574694Y-69675615D01*
X116653480Y-68924305D01*
X116625699Y-68622751D01*
X144649464Y-68622751D01*
X144718766Y-69374994D01*
X144933492Y-70099264D01*
X145285389Y-70767726D01*
X145312396Y-70808144D01*
X145802063Y-71168332D01*
X148323339Y-68647056D01*
X145802063Y-66125780D01*
X145312396Y-66485968D01*
X144952095Y-67149938D01*
X144728250Y-67871441D01*
X144649464Y-68622751D01*
X116625699Y-68622751D01*
X116584178Y-68172062D01*
X116369452Y-67447792D01*
X116017555Y-66779330D01*
X115990548Y-66738912D01*
X115500881Y-66378724D01*
X112979605Y-68900000D01*
X112620395Y-68900000D01*
X112606253Y-68885858D01*
X112785858Y-68706253D01*
X112800000Y-68720395D01*
X115321276Y-66199119D01*
X114961088Y-65709452D01*
X114297118Y-65349151D01*
X114159161Y-65306350D01*
X146789105Y-65215334D01*
X146382274Y-65429501D01*
G37*
X146382274Y-65429501D02*
X146341856Y-65456508D01*
X145981668Y-65946175D01*
X148502944Y-68467451D01*
X148517087Y-68453309D01*
X148696692Y-68632914D01*
X148682549Y-68647056D01*
X151203825Y-71168332D01*
X151693492Y-70808144D01*
X152053793Y-70144174D01*
X152093179Y-70017224D01*
X152177952Y-105113415D01*
X152070901Y-104953202D01*
X151896798Y-104779099D01*
X151692074Y-104642307D01*
X151464598Y-104548083D01*
X151223110Y-104500048D01*
X150976890Y-104500048D01*
X150735402Y-104548083D01*
X150507926Y-104642307D01*
X150303202Y-104779099D01*
X150129099Y-104953202D01*
X149992307Y-105157926D01*
X149898083Y-105385402D01*
X149850048Y-105626890D01*
X149850048Y-105873110D01*
X149898083Y-106114598D01*
X149992307Y-106342074D01*
X150090974Y-106489740D01*
X150000062Y-106440407D01*
X149278559Y-106216562D01*
X148527249Y-106137776D01*
X147775006Y-106207078D01*
X147050736Y-106421804D01*
X146382274Y-106773701D01*
X146341856Y-106800708D01*
X145981668Y-107290375D01*
X148502944Y-109811651D01*
X151024220Y-107290375D01*
X150782089Y-106961204D01*
X150976890Y-106999952D01*
X151223110Y-106999952D01*
X151464598Y-106951917D01*
X151692074Y-106857693D01*
X151896798Y-106720901D01*
X152070901Y-106546798D01*
X152181016Y-106381999D01*
X152187161Y-108926152D01*
X152072396Y-108539048D01*
X151720499Y-107870586D01*
X151693492Y-107830168D01*
X151203825Y-107469980D01*
X148682549Y-109991256D01*
X148696692Y-110005399D01*
X148517087Y-110185004D01*
X148502944Y-110170861D01*
X145981668Y-112692137D01*
X146341856Y-113181804D01*
X146914382Y-113492483D01*
X117730072Y-113533073D01*
X117857693Y-113342074D01*
X117951917Y-113114598D01*
X117999952Y-112873110D01*
X117999952Y-112626890D01*
X117951917Y-112385402D01*
X117857693Y-112157926D01*
X117720901Y-111953202D01*
X117546798Y-111779099D01*
X117342074Y-111642307D01*
X117114598Y-111548083D01*
X116873110Y-111500048D01*
X116626890Y-111500048D01*
X116618623Y-111501692D01*
X116625850Y-111488374D01*
X116849695Y-110766871D01*
X116928481Y-110015561D01*
X116924003Y-109966951D01*
X144649464Y-109966951D01*
X144718766Y-110719194D01*
X144933492Y-111443464D01*
X145285389Y-112111926D01*
X145312396Y-112152344D01*
X145802063Y-112512532D01*
X148323339Y-109991256D01*
X145802063Y-107469980D01*
X145312396Y-107830168D01*
X144952095Y-108494138D01*
X144728250Y-109215641D01*
X144649464Y-109966951D01*
X116924003Y-109966951D01*
X116859179Y-109263318D01*
X116644453Y-108539048D01*
X116292556Y-107870586D01*
X116265549Y-107830168D01*
X115775882Y-107469980D01*
X113254606Y-109991256D01*
X113268749Y-110005399D01*
X113089144Y-110185004D01*
X113075001Y-110170861D01*
X113060859Y-110185004D01*
X112881254Y-110005399D01*
X112895396Y-109991256D01*
X110374120Y-107469980D01*
X109884453Y-107830168D01*
X109524152Y-108494138D01*
X109359999Y-109023240D01*
X109359999Y-107290375D01*
X110553725Y-107290375D01*
X113075001Y-109811651D01*
X115596277Y-107290375D01*
X115236089Y-106800708D01*
X114572119Y-106440407D01*
X113850616Y-106216562D01*
X113099306Y-106137776D01*
X112347063Y-106207078D01*
X111622793Y-106421804D01*
X110954331Y-106773701D01*
X110913913Y-106800708D01*
X110553725Y-107290375D01*
X109359999Y-107290375D01*
X109359999Y-105348061D01*
X127265000Y-105348061D01*
X127265000Y-105551939D01*
X127304774Y-105751898D01*
X127382795Y-105940256D01*
X127496063Y-106109774D01*
X127640226Y-106253937D01*
X127809744Y-106367205D01*
X127998102Y-106445226D01*
X128198061Y-106485000D01*
X128401939Y-106485000D01*
X128601898Y-106445226D01*
X128790256Y-106367205D01*
X128959774Y-106253937D01*
X129103937Y-106109774D01*
X129217205Y-105940256D01*
X129295226Y-105751898D01*
X129335000Y-105551939D01*
X129335000Y-105348061D01*
X129295226Y-105148102D01*
X129217205Y-104959744D01*
X129103937Y-104790226D01*
X128959774Y-104646063D01*
X128790256Y-104532795D01*
X128601898Y-104454774D01*
X128401939Y-104415000D01*
X128198061Y-104415000D01*
X127998102Y-104454774D01*
X127809744Y-104532795D01*
X127640226Y-104646063D01*
X127496063Y-104790226D01*
X127382795Y-104959744D01*
X127304774Y-105148102D01*
X127265000Y-105348061D01*
X109359999Y-105348061D01*
X109359999Y-104148061D01*
X134915000Y-104148061D01*
X134915000Y-104351939D01*
X134954774Y-104551898D01*
X135032795Y-104740256D01*
X135146063Y-104909774D01*
X135290226Y-105053937D01*
X135459744Y-105167205D01*
X135648102Y-105245226D01*
X135848061Y-105285000D01*
X136051939Y-105285000D01*
X136251898Y-105245226D01*
X136440256Y-105167205D01*
X136609774Y-105053937D01*
X136753937Y-104909774D01*
X136867205Y-104740256D01*
X136945226Y-104551898D01*
X136985000Y-104351939D01*
X136985000Y-104148061D01*
X136945226Y-103948102D01*
X136867205Y-103759744D01*
X136753937Y-103590226D01*
X136609774Y-103446063D01*
X136440256Y-103332795D01*
X136251898Y-103254774D01*
X136051939Y-103215000D01*
X135848061Y-103215000D01*
X135648102Y-103254774D01*
X135459744Y-103332795D01*
X135290226Y-103446063D01*
X135146063Y-103590226D01*
X135032795Y-103759744D01*
X134954774Y-103948102D01*
X134915000Y-104148061D01*
X109359999Y-104148061D01*
X109359999Y-101596164D01*
X147277784Y-101596164D01*
X147281826Y-101784827D01*
X147442974Y-101851328D01*
X147613998Y-101885113D01*
X147788328Y-101884884D01*
X147959264Y-101850649D01*
X148118174Y-101784827D01*
X148122216Y-101596164D01*
X147700000Y-101173948D01*
X147277784Y-101596164D01*
X109359999Y-101596164D01*
X109359999Y-99963998D01*
X146239887Y-99963998D01*
X146240116Y-100138328D01*
X146274351Y-100309264D01*
X146340173Y-100468174D01*
X146528836Y-100472216D01*
X146951052Y-100050000D01*
X146528836Y-99627784D01*
X146340173Y-99631826D01*
X146273672Y-99792974D01*
X146239887Y-99963998D01*
X109359999Y-99963998D01*
X109359999Y-99453836D01*
X146702784Y-99453836D01*
X147125000Y-99876052D01*
X147141971Y-99859081D01*
X147315919Y-100033029D01*
X147298948Y-100050000D01*
X147315919Y-100066971D01*
X147141971Y-100240919D01*
X147125000Y-100223948D01*
X146702784Y-100646164D01*
X146706826Y-100834827D01*
X146821203Y-100882027D01*
X146814887Y-100913998D01*
X146815116Y-101088328D01*
X146849351Y-101259264D01*
X146915173Y-101418174D01*
X147103836Y-101422216D01*
X147526052Y-101000000D01*
X147509081Y-100983029D01*
X147683029Y-100809081D01*
X147700000Y-100826052D01*
X147716971Y-100809081D01*
X147890919Y-100983029D01*
X147873948Y-101000000D01*
X148296164Y-101422216D01*
X148484827Y-101418174D01*
X148551328Y-101257026D01*
X148585113Y-101086002D01*
X148584884Y-100911672D01*
X148578968Y-100882132D01*
X148693174Y-100834827D01*
X148697216Y-100646164D01*
X148275000Y-100223948D01*
X148258029Y-100240919D01*
X148084081Y-100066971D01*
X148101052Y-100050000D01*
X148448948Y-100050000D01*
X148871164Y-100472216D01*
X149059827Y-100468174D01*
X149126328Y-100307026D01*
X149160113Y-100136002D01*
X149159884Y-99961672D01*
X149125649Y-99790736D01*
X149059827Y-99631826D01*
X148871164Y-99627784D01*
X148448948Y-100050000D01*
X148101052Y-100050000D01*
X148084081Y-100033029D01*
X148258029Y-99859081D01*
X148275000Y-99876052D01*
X148697216Y-99453836D01*
X148693174Y-99265173D01*
X148578797Y-99217973D01*
X148585113Y-99186002D01*
X148584884Y-99011672D01*
X148550649Y-98840736D01*
X148484827Y-98681826D01*
X148296164Y-98677784D01*
X147873948Y-99100000D01*
X147890919Y-99116971D01*
X147716971Y-99290919D01*
X147700000Y-99273948D01*
X147683029Y-99290919D01*
X147509081Y-99116971D01*
X147526052Y-99100000D01*
X147103836Y-98677784D01*
X146915173Y-98681826D01*
X146848672Y-98842974D01*
X146814887Y-99013998D01*
X146815116Y-99188328D01*
X146821032Y-99217868D01*
X146706826Y-99265173D01*
X146702784Y-99453836D01*
X109359999Y-99453836D01*
X109359999Y-98503836D01*
X147277784Y-98503836D01*
X147700000Y-98926052D01*
X148122216Y-98503836D01*
X148118174Y-98315173D01*
X147957026Y-98248672D01*
X147786002Y-98214887D01*
X147611672Y-98215116D01*
X147440736Y-98249351D01*
X147281826Y-98315173D01*
X147277784Y-98503836D01*
X109359999Y-98503836D01*
X109359999Y-95150000D01*
X121761928Y-95150000D01*
X121761928Y-96850000D01*
X121774188Y-96974482D01*
X121810498Y-97094180D01*
X121869463Y-97204494D01*
X121948815Y-97301185D01*
X122045506Y-97380537D01*
X122155820Y-97439502D01*
X122275518Y-97475812D01*
X122400000Y-97488072D01*
X124100000Y-97488072D01*
X124224482Y-97475812D01*
X124344180Y-97439502D01*
X124454494Y-97380537D01*
X124551185Y-97301185D01*
X124630537Y-97204494D01*
X124689502Y-97094180D01*
X124711513Y-97021620D01*
X124843368Y-97153475D01*
X125086589Y-97315990D01*
X125356842Y-97427932D01*
X125643740Y-97485000D01*
X125936260Y-97485000D01*
X126223158Y-97427932D01*
X126493411Y-97315990D01*
X126736632Y-97153475D01*
X126943475Y-96946632D01*
X127060000Y-96772240D01*
X127176525Y-96946632D01*
X127383368Y-97153475D01*
X127626589Y-97315990D01*
X127896842Y-97427932D01*
X128183740Y-97485000D01*
X128476260Y-97485000D01*
X128763158Y-97427932D01*
X129033411Y-97315990D01*
X129276632Y-97153475D01*
X129483475Y-96946632D01*
X129600000Y-96772240D01*
X129716525Y-96946632D01*
X129923368Y-97153475D01*
X130166589Y-97315990D01*
X130436842Y-97427932D01*
X130723740Y-97485000D01*
X131016260Y-97485000D01*
X131303158Y-97427932D01*
X131573411Y-97315990D01*
X131816632Y-97153475D01*
X132023475Y-96946632D01*
X132089338Y-96848061D01*
X146765000Y-96848061D01*
X146765000Y-97051939D01*
X146804774Y-97251898D01*
X146882795Y-97440256D01*
X146996063Y-97609774D01*
X147140226Y-97753937D01*
X147309744Y-97867205D01*
X147498102Y-97945226D01*
X147698061Y-97985000D01*
X147901939Y-97985000D01*
X148101898Y-97945226D01*
X148290256Y-97867205D01*
X148459774Y-97753937D01*
X148603937Y-97609774D01*
X148717205Y-97440256D01*
X148795226Y-97251898D01*
X148835000Y-97051939D01*
X148835000Y-96848061D01*
X148795226Y-96648102D01*
X148717205Y-96459744D01*
X148603937Y-96290226D01*
X148459774Y-96146063D01*
X148290256Y-96032795D01*
X148101898Y-95954774D01*
X147901939Y-95915000D01*
X147698061Y-95915000D01*
X147498102Y-95954774D01*
X147309744Y-96032795D01*
X147140226Y-96146063D01*
X146996063Y-96290226D01*
X146882795Y-96459744D01*
X146804774Y-96648102D01*
X146765000Y-96848061D01*
X132089338Y-96848061D01*
X132185990Y-96703411D01*
X132297932Y-96433158D01*
X132355000Y-96146260D01*
X132355000Y-95853740D01*
X132297932Y-95566842D01*
X132185990Y-95296589D01*
X132023475Y-95053368D01*
X131816632Y-94846525D01*
X131642240Y-94730000D01*
X131816632Y-94613475D01*
X132023475Y-94406632D01*
X132185990Y-94163411D01*
X132297932Y-93893158D01*
X132355000Y-93606260D01*
X132355000Y-93313740D01*
X132297932Y-93026842D01*
X132185990Y-92756589D01*
X132023475Y-92513368D01*
X131816632Y-92306525D01*
X131573411Y-92144010D01*
X131303158Y-92032068D01*
X131016260Y-91975000D01*
X130723740Y-91975000D01*
X130436842Y-92032068D01*
X130166589Y-92144010D01*
X129923368Y-92306525D01*
X129716525Y-92513368D01*
X129600000Y-92687760D01*
X129483475Y-92513368D01*
X129276632Y-92306525D01*
X129033411Y-92144010D01*
X128763158Y-92032068D01*
X128476260Y-91975000D01*
X128183740Y-91975000D01*
X127896842Y-92032068D01*
X127626589Y-92144010D01*
X127383368Y-92306525D01*
X127176525Y-92513368D01*
X127060000Y-92687760D01*
X126943475Y-92513368D01*
X126736632Y-92306525D01*
X126493411Y-92144010D01*
X126223158Y-92032068D01*
X125936260Y-91975000D01*
X125643740Y-91975000D01*
X125356842Y-92032068D01*
X125086589Y-92144010D01*
X124843368Y-92306525D01*
X124636525Y-92513368D01*
X124520000Y-92687760D01*
X124403475Y-92513368D01*
X124196632Y-92306525D01*
X123953411Y-92144010D01*
X123683158Y-92032068D01*
X123396260Y-91975000D01*
X123103740Y-91975000D01*
X122816842Y-92032068D01*
X122546589Y-92144010D01*
X122303368Y-92306525D01*
X122096525Y-92513368D01*
X121934010Y-92756589D01*
X121822068Y-93026842D01*
X121765000Y-93313740D01*
X121765000Y-93606260D01*
X121822068Y-93893158D01*
X121934010Y-94163411D01*
X122096525Y-94406632D01*
X122228380Y-94538487D01*
X122155820Y-94560498D01*
X122045506Y-94619463D01*
X121948815Y-94698815D01*
X121869463Y-94795506D01*
X121810498Y-94905820D01*
X121774188Y-95025518D01*
X121761928Y-95150000D01*
X109359999Y-95150000D01*
X109359999Y-90913000D01*
X148669928Y-90913000D01*
X148669928Y-92613000D01*
X148682188Y-92737482D01*
X148718498Y-92857180D01*
X148777463Y-92967494D01*
X148856815Y-93064185D01*
X148953506Y-93143537D01*
X149063820Y-93202502D01*
X149183518Y-93238812D01*
X149308000Y-93251072D01*
X151008000Y-93251072D01*
X151132482Y-93238812D01*
X151252180Y-93202502D01*
X151362494Y-93143537D01*
X151459185Y-93064185D01*
X151538537Y-92967494D01*
X151597502Y-92857180D01*
X151633812Y-92737482D01*
X151646072Y-92613000D01*
X151646072Y-90913000D01*
X151633812Y-90788518D01*
X151597502Y-90668820D01*
X151538537Y-90558506D01*
X151459185Y-90461815D01*
X151362494Y-90382463D01*
X151252180Y-90323498D01*
X151179620Y-90301487D01*
X151311475Y-90169632D01*
X151473990Y-89926411D01*
X151585932Y-89656158D01*
X151643000Y-89369260D01*
X151643000Y-89076740D01*
X151585932Y-88789842D01*
X151473990Y-88519589D01*
X151311475Y-88276368D01*
X151104632Y-88069525D01*
X150930240Y-87953000D01*
X151104632Y-87836475D01*
X151311475Y-87629632D01*
X151473990Y-87386411D01*
X151585932Y-87116158D01*
X151643000Y-86829260D01*
X151643000Y-86536740D01*
X151585932Y-86249842D01*
X151473990Y-85979589D01*
X151311475Y-85736368D01*
X151104632Y-85529525D01*
X150930240Y-85413000D01*
X151104632Y-85296475D01*
X151311475Y-85089632D01*
X151473990Y-84846411D01*
X151585932Y-84576158D01*
X151643000Y-84289260D01*
X151643000Y-83996740D01*
X151585932Y-83709842D01*
X151473990Y-83439589D01*
X151311475Y-83196368D01*
X151104632Y-82989525D01*
X150930240Y-82873000D01*
X151104632Y-82756475D01*
X151311475Y-82549632D01*
X151473990Y-82306411D01*
X151585932Y-82036158D01*
X151643000Y-81749260D01*
X151643000Y-81456740D01*
X151585932Y-81169842D01*
X151473990Y-80899589D01*
X151311475Y-80656368D01*
X151104632Y-80449525D01*
X150930240Y-80333000D01*
X151104632Y-80216475D01*
X151311475Y-80009632D01*
X151473990Y-79766411D01*
X151585932Y-79496158D01*
X151643000Y-79209260D01*
X151643000Y-78916740D01*
X151585932Y-78629842D01*
X151473990Y-78359589D01*
X151311475Y-78116368D01*
X151104632Y-77909525D01*
X150861411Y-77747010D01*
X150591158Y-77635068D01*
X150304260Y-77578000D01*
X150011740Y-77578000D01*
X149724842Y-77635068D01*
X149454589Y-77747010D01*
X149211368Y-77909525D01*
X149004525Y-78116368D01*
X148842010Y-78359589D01*
X148730068Y-78629842D01*
X148673000Y-78916740D01*
X148673000Y-79209260D01*
X148730068Y-79496158D01*
X148842010Y-79766411D01*
X149004525Y-80009632D01*
X149211368Y-80216475D01*
X149385760Y-80333000D01*
X149211368Y-80449525D01*
X149004525Y-80656368D01*
X148842010Y-80899589D01*
X148730068Y-81169842D01*
X148673000Y-81456740D01*
X148673000Y-81749260D01*
X148730068Y-82036158D01*
X148842010Y-82306411D01*
X149004525Y-82549632D01*
X149211368Y-82756475D01*
X149385760Y-82873000D01*
X149211368Y-82989525D01*
X149004525Y-83196368D01*
X148842010Y-83439589D01*
X148730068Y-83709842D01*
X148673000Y-83996740D01*
X148673000Y-84289260D01*
X148730068Y-84576158D01*
X148842010Y-84846411D01*
X149004525Y-85089632D01*
X149211368Y-85296475D01*
X149385760Y-85413000D01*
X149211368Y-85529525D01*
X149004525Y-85736368D01*
X148842010Y-85979589D01*
X148730068Y-86249842D01*
X148673000Y-86536740D01*
X148673000Y-86829260D01*
X148730068Y-87116158D01*
X148842010Y-87386411D01*
X149004525Y-87629632D01*
X149211368Y-87836475D01*
X149385760Y-87953000D01*
X149211368Y-88069525D01*
X149004525Y-88276368D01*
X148842010Y-88519589D01*
X148730068Y-88789842D01*
X148673000Y-89076740D01*
X148673000Y-89369260D01*
X148730068Y-89656158D01*
X148842010Y-89926411D01*
X149004525Y-90169632D01*
X149136380Y-90301487D01*
X149063820Y-90323498D01*
X148953506Y-90382463D01*
X148856815Y-90461815D01*
X148777463Y-90558506D01*
X148718498Y-90668820D01*
X148682188Y-90788518D01*
X148669928Y-90913000D01*
X109359999Y-90913000D01*
X109359999Y-86848061D01*
X132715000Y-86848061D01*
X132715000Y-87051939D01*
X132754774Y-87251898D01*
X132832795Y-87440256D01*
X132946063Y-87609774D01*
X133090226Y-87753937D01*
X133259744Y-87867205D01*
X133448102Y-87945226D01*
X133648061Y-87985000D01*
X133851939Y-87985000D01*
X134051898Y-87945226D01*
X134240256Y-87867205D01*
X134409774Y-87753937D01*
X134553937Y-87609774D01*
X134667205Y-87440256D01*
X134745226Y-87251898D01*
X134785000Y-87051939D01*
X134785000Y-86848061D01*
X134745226Y-86648102D01*
X134667205Y-86459744D01*
X134553937Y-86290226D01*
X134409774Y-86146063D01*
X134240256Y-86032795D01*
X134051898Y-85954774D01*
X133851939Y-85915000D01*
X133648061Y-85915000D01*
X133448102Y-85954774D01*
X133259744Y-86032795D01*
X133090226Y-86146063D01*
X132946063Y-86290226D01*
X132832795Y-86459744D01*
X132754774Y-86648102D01*
X132715000Y-86848061D01*
X109359999Y-86848061D01*
X109359999Y-77100000D01*
X114511928Y-77100000D01*
X114511928Y-78800000D01*
X114524188Y-78924482D01*
X114560498Y-79044180D01*
X114619463Y-79154494D01*
X114698815Y-79251185D01*
X114795506Y-79330537D01*
X114905820Y-79389502D01*
X114978380Y-79411513D01*
X114846525Y-79543368D01*
X114684010Y-79786589D01*
X114572068Y-80056842D01*
X114515000Y-80343740D01*
X114515000Y-80636260D01*
X114572068Y-80923158D01*
X114684010Y-81193411D01*
X114846525Y-81436632D01*
X115053368Y-81643475D01*
X115227760Y-81760000D01*
X115053368Y-81876525D01*
X114846525Y-82083368D01*
X114684010Y-82326589D01*
X114572068Y-82596842D01*
X114515000Y-82883740D01*
X114515000Y-83176260D01*
X114572068Y-83463158D01*
X114684010Y-83733411D01*
X114846525Y-83976632D01*
X115053368Y-84183475D01*
X115296589Y-84345990D01*
X115566842Y-84457932D01*
X115853740Y-84515000D01*
X116146260Y-84515000D01*
X116433158Y-84457932D01*
X116703411Y-84345990D01*
X116946632Y-84183475D01*
X117153475Y-83976632D01*
X117270000Y-83802240D01*
X117386525Y-83976632D01*
X117593368Y-84183475D01*
X117836589Y-84345990D01*
X118106842Y-84457932D01*
X118393740Y-84515000D01*
X118686260Y-84515000D01*
X118973158Y-84457932D01*
X119243411Y-84345990D01*
X119486632Y-84183475D01*
X119693475Y-83976632D01*
X119855990Y-83733411D01*
X119967932Y-83463158D01*
X120025000Y-83176260D01*
X120025000Y-82883740D01*
X119967932Y-82596842D01*
X119855990Y-82326589D01*
X119693475Y-82083368D01*
X119486632Y-81876525D01*
X119304466Y-81754805D01*
X119421355Y-81685178D01*
X119637588Y-81490269D01*
X119811641Y-81256920D01*
X119936825Y-80994099D01*
X119981476Y-80846890D01*
X119860155Y-80617000D01*
X118667000Y-80617000D01*
X118667000Y-80637000D01*
X118413000Y-80637000D01*
X118413000Y-80617000D01*
X118393000Y-80617000D01*
X118393000Y-80363000D01*
X118413000Y-80363000D01*
X118413000Y-80343000D01*
X118667000Y-80343000D01*
X118667000Y-80363000D01*
X119860155Y-80363000D01*
X119981476Y-80133110D01*
X119936825Y-79985901D01*
X119811641Y-79723080D01*
X119637588Y-79489731D01*
X119421355Y-79294822D01*
X119304466Y-79225195D01*
X119486632Y-79103475D01*
X119693475Y-78896632D01*
X119855990Y-78653411D01*
X119967932Y-78383158D01*
X120025000Y-78096260D01*
X120025000Y-77848061D01*
X132565000Y-77848061D01*
X132565000Y-78051939D01*
X132604774Y-78251898D01*
X132682795Y-78440256D01*
X132772828Y-78575000D01*
X132682795Y-78709744D01*
X132604774Y-78898102D01*
X132565000Y-79098061D01*
X132565000Y-79301939D01*
X132604774Y-79501898D01*
X132682795Y-79690256D01*
X132796063Y-79859774D01*
X132940226Y-80003937D01*
X133109744Y-80117205D01*
X133298102Y-80195226D01*
X133498061Y-80235000D01*
X133701939Y-80235000D01*
X133901898Y-80195226D01*
X134090256Y-80117205D01*
X134259774Y-80003937D01*
X134403937Y-79859774D01*
X134517205Y-79690256D01*
X134595226Y-79501898D01*
X134635000Y-79301939D01*
X134635000Y-79198061D01*
X141165000Y-79198061D01*
X141165000Y-79401939D01*
X141204774Y-79601898D01*
X141282795Y-79790256D01*
X141396063Y-79959774D01*
X141540226Y-80103937D01*
X141709744Y-80217205D01*
X141898102Y-80295226D01*
X142098061Y-80335000D01*
X142301939Y-80335000D01*
X142501898Y-80295226D01*
X142690256Y-80217205D01*
X142859774Y-80103937D01*
X143003937Y-79959774D01*
X143117205Y-79790256D01*
X143195226Y-79601898D01*
X143235000Y-79401939D01*
X143235000Y-79198061D01*
X143195226Y-78998102D01*
X143117205Y-78809744D01*
X143003937Y-78640226D01*
X142859774Y-78496063D01*
X142690256Y-78382795D01*
X142501898Y-78304774D01*
X142301939Y-78265000D01*
X142098061Y-78265000D01*
X141898102Y-78304774D01*
X141709744Y-78382795D01*
X141540226Y-78496063D01*
X141396063Y-78640226D01*
X141282795Y-78809744D01*
X141204774Y-78998102D01*
X141165000Y-79198061D01*
X134635000Y-79198061D01*
X134635000Y-79098061D01*
X134595226Y-78898102D01*
X134517205Y-78709744D01*
X134427172Y-78575000D01*
X134517205Y-78440256D01*
X134595226Y-78251898D01*
X134635000Y-78051939D01*
X134635000Y-77848061D01*
X134595226Y-77648102D01*
X134517205Y-77459744D01*
X134403937Y-77290226D01*
X134259774Y-77146063D01*
X134090256Y-77032795D01*
X133901898Y-76954774D01*
X133701939Y-76915000D01*
X133498061Y-76915000D01*
X133298102Y-76954774D01*
X133109744Y-77032795D01*
X132940226Y-77146063D01*
X132796063Y-77290226D01*
X132682795Y-77459744D01*
X132604774Y-77648102D01*
X132565000Y-77848061D01*
X120025000Y-77848061D01*
X120025000Y-77803740D01*
X119967932Y-77516842D01*
X119855990Y-77246589D01*
X119693475Y-77003368D01*
X119486632Y-76796525D01*
X119243411Y-76634010D01*
X118973158Y-76522068D01*
X118686260Y-76465000D01*
X118393740Y-76465000D01*
X118106842Y-76522068D01*
X117836589Y-76634010D01*
X117593368Y-76796525D01*
X117461513Y-76928380D01*
X117439502Y-76855820D01*
X117380537Y-76745506D01*
X117301185Y-76648815D01*
X117204494Y-76569463D01*
X117094180Y-76510498D01*
X116974482Y-76474188D01*
X116850000Y-76461928D01*
X115150000Y-76461928D01*
X115025518Y-76474188D01*
X114905820Y-76510498D01*
X114795506Y-76569463D01*
X114698815Y-76648815D01*
X114619463Y-76745506D01*
X114560498Y-76855820D01*
X114524188Y-76975518D01*
X114511928Y-77100000D01*
X109359999Y-77100000D01*
X109360000Y-75148061D01*
X112115000Y-75148061D01*
X112115000Y-75351939D01*
X112154774Y-75551898D01*
X112232795Y-75740256D01*
X112346063Y-75909774D01*
X112490226Y-76053937D01*
X112659744Y-76167205D01*
X112848102Y-76245226D01*
X113048061Y-76285000D01*
X113251939Y-76285000D01*
X113451898Y-76245226D01*
X113565763Y-76198061D01*
X134015000Y-76198061D01*
X134015000Y-76401939D01*
X134054774Y-76601898D01*
X134132795Y-76790256D01*
X134246063Y-76959774D01*
X134390226Y-77103937D01*
X134559744Y-77217205D01*
X134748102Y-77295226D01*
X134948061Y-77335000D01*
X135151939Y-77335000D01*
X135351898Y-77295226D01*
X135540256Y-77217205D01*
X135709774Y-77103937D01*
X135853937Y-76959774D01*
X135937308Y-76835000D01*
X136101939Y-76835000D01*
X136301898Y-76795226D01*
X136490256Y-76717205D01*
X136659774Y-76603937D01*
X136803937Y-76459774D01*
X136917205Y-76290256D01*
X136995226Y-76101898D01*
X137035000Y-75901939D01*
X137035000Y-75698061D01*
X136995226Y-75498102D01*
X136917205Y-75309744D01*
X136895253Y-75276890D01*
X149000048Y-75276890D01*
X149000048Y-75523110D01*
X149048083Y-75764598D01*
X149142307Y-75992074D01*
X149279099Y-76196798D01*
X149453202Y-76370901D01*
X149657926Y-76507693D01*
X149885402Y-76601917D01*
X150126890Y-76649952D01*
X150373110Y-76649952D01*
X150614598Y-76601917D01*
X150842074Y-76507693D01*
X151046798Y-76370901D01*
X151220901Y-76196798D01*
X151357693Y-75992074D01*
X151451917Y-75764598D01*
X151499952Y-75523110D01*
X151499952Y-75276890D01*
X151451917Y-75035402D01*
X151357693Y-74807926D01*
X151220901Y-74603202D01*
X151046798Y-74429099D01*
X150842074Y-74292307D01*
X150614598Y-74198083D01*
X150373110Y-74150048D01*
X150126890Y-74150048D01*
X149885402Y-74198083D01*
X149657926Y-74292307D01*
X149453202Y-74429099D01*
X149279099Y-74603202D01*
X149142307Y-74807926D01*
X149048083Y-75035402D01*
X149000048Y-75276890D01*
X136895253Y-75276890D01*
X136803937Y-75140226D01*
X136659774Y-74996063D01*
X136490256Y-74882795D01*
X136301898Y-74804774D01*
X136101939Y-74765000D01*
X135898061Y-74765000D01*
X135698102Y-74804774D01*
X135509744Y-74882795D01*
X135340226Y-74996063D01*
X135196063Y-75140226D01*
X135112692Y-75265000D01*
X134948061Y-75265000D01*
X134748102Y-75304774D01*
X134559744Y-75382795D01*
X134390226Y-75496063D01*
X134246063Y-75640226D01*
X134132795Y-75809744D01*
X134054774Y-75998102D01*
X134015000Y-76198061D01*
X113565763Y-76198061D01*
X113640256Y-76167205D01*
X113809774Y-76053937D01*
X113953937Y-75909774D01*
X114067205Y-75740256D01*
X114145226Y-75551898D01*
X114185000Y-75351939D01*
X114185000Y-75148061D01*
X114145226Y-74948102D01*
X114067205Y-74759744D01*
X113953937Y-74590226D01*
X113809774Y-74446063D01*
X113640256Y-74332795D01*
X113451898Y-74254774D01*
X113251939Y-74215000D01*
X113048061Y-74215000D01*
X112848102Y-74254774D01*
X112659744Y-74332795D01*
X112490226Y-74446063D01*
X112346063Y-74590226D01*
X112232795Y-74759744D01*
X112154774Y-74948102D01*
X112115000Y-75148061D01*
X109360000Y-75148061D01*
X109360001Y-73676890D01*
X109650048Y-73676890D01*
X109650048Y-73923110D01*
X109698083Y-74164598D01*
X109792307Y-74392074D01*
X109929099Y-74596798D01*
X110103202Y-74770901D01*
X110307926Y-74907693D01*
X110535402Y-75001917D01*
X110776890Y-75049952D01*
X111023110Y-75049952D01*
X111264598Y-75001917D01*
X111492074Y-74907693D01*
X111696798Y-74770901D01*
X111870901Y-74596798D01*
X112007693Y-74392074D01*
X112101917Y-74164598D01*
X112144988Y-73948061D01*
X118665000Y-73948061D01*
X118665000Y-74151939D01*
X118704774Y-74351898D01*
X118782795Y-74540256D01*
X118896063Y-74709774D01*
X119040226Y-74853937D01*
X119209744Y-74967205D01*
X119398102Y-75045226D01*
X119598061Y-75085000D01*
X119801939Y-75085000D01*
X120001898Y-75045226D01*
X120190256Y-74967205D01*
X120359774Y-74853937D01*
X120503937Y-74709774D01*
X120617205Y-74540256D01*
X120695226Y-74351898D01*
X120735000Y-74151939D01*
X120735000Y-73948061D01*
X120695226Y-73748102D01*
X120695210Y-73748061D01*
X144715000Y-73748061D01*
X144715000Y-73951939D01*
X144754774Y-74151898D01*
X144832795Y-74340256D01*
X144946063Y-74509774D01*
X145090226Y-74653937D01*
X145259744Y-74767205D01*
X145448102Y-74845226D01*
X145648061Y-74885000D01*
X145851939Y-74885000D01*
X146051898Y-74845226D01*
X146240256Y-74767205D01*
X146409774Y-74653937D01*
X146553937Y-74509774D01*
X146667205Y-74340256D01*
X146745226Y-74151898D01*
X146785000Y-73951939D01*
X146785000Y-73748061D01*
X146745226Y-73548102D01*
X146667205Y-73359744D01*
X146553937Y-73190226D01*
X146409774Y-73046063D01*
X146240256Y-72932795D01*
X146051898Y-72854774D01*
X145851939Y-72815000D01*
X145648061Y-72815000D01*
X145448102Y-72854774D01*
X145259744Y-72932795D01*
X145090226Y-73046063D01*
X144946063Y-73190226D01*
X144832795Y-73359744D01*
X144754774Y-73548102D01*
X144715000Y-73748061D01*
X120695210Y-73748061D01*
X120617205Y-73559744D01*
X120503937Y-73390226D01*
X120359774Y-73246063D01*
X120190256Y-73132795D01*
X120001898Y-73054774D01*
X119801939Y-73015000D01*
X119598061Y-73015000D01*
X119398102Y-73054774D01*
X119209744Y-73132795D01*
X119040226Y-73246063D01*
X118896063Y-73390226D01*
X118782795Y-73559744D01*
X118704774Y-73748102D01*
X118665000Y-73948061D01*
X112144988Y-73948061D01*
X112149952Y-73923110D01*
X112149952Y-73676890D01*
X112101917Y-73435402D01*
X112007693Y-73207926D01*
X111870901Y-73003202D01*
X111696798Y-72829099D01*
X111492074Y-72692307D01*
X111264598Y-72598083D01*
X111023110Y-72550048D01*
X110776890Y-72550048D01*
X110535402Y-72598083D01*
X110307926Y-72692307D01*
X110103202Y-72829099D01*
X109929099Y-73003202D01*
X109792307Y-73207926D01*
X109698083Y-73435402D01*
X109650048Y-73676890D01*
X109360001Y-73676890D01*
X109360001Y-71600881D01*
X110278724Y-71600881D01*
X110638912Y-72090548D01*
X111302882Y-72450849D01*
X112024385Y-72674694D01*
X112775695Y-72753480D01*
X113527938Y-72684178D01*
X114252208Y-72469452D01*
X114920670Y-72117555D01*
X114961088Y-72090548D01*
X115249792Y-71698061D01*
X141165000Y-71698061D01*
X141165000Y-71901939D01*
X141204774Y-72101898D01*
X141282795Y-72290256D01*
X141396063Y-72459774D01*
X141540226Y-72603937D01*
X141709744Y-72717205D01*
X141898102Y-72795226D01*
X142098061Y-72835000D01*
X142301939Y-72835000D01*
X142501898Y-72795226D01*
X142690256Y-72717205D01*
X142859774Y-72603937D01*
X143003937Y-72459774D01*
X143117205Y-72290256D01*
X143195226Y-72101898D01*
X143235000Y-71901939D01*
X143235000Y-71698061D01*
X143195226Y-71498102D01*
X143133026Y-71347937D01*
X145981668Y-71347937D01*
X146341856Y-71837604D01*
X147005826Y-72197905D01*
X147727329Y-72421750D01*
X148478639Y-72500536D01*
X149230882Y-72431234D01*
X149955152Y-72216508D01*
X150623614Y-71864611D01*
X150664032Y-71837604D01*
X151024220Y-71347937D01*
X148502944Y-68826661D01*
X145981668Y-71347937D01*
X143133026Y-71347937D01*
X143117205Y-71309744D01*
X143003937Y-71140226D01*
X142859774Y-70996063D01*
X142690256Y-70882795D01*
X142501898Y-70804774D01*
X142301939Y-70765000D01*
X142098061Y-70765000D01*
X141898102Y-70804774D01*
X141709744Y-70882795D01*
X141540226Y-70996063D01*
X141396063Y-71140226D01*
X141282795Y-71309744D01*
X141204774Y-71498102D01*
X141165000Y-71698061D01*
X115249792Y-71698061D01*
X115321276Y-71600881D01*
X112800000Y-69079605D01*
X110278724Y-71600881D01*
X109360001Y-71600881D01*
X109360002Y-70598118D01*
X109582445Y-71020670D01*
X109609452Y-71061088D01*
X110099119Y-71421276D01*
X112620395Y-68900000D01*
X112979605Y-68900000D01*
X115500881Y-71421276D01*
X115990548Y-71061088D01*
X116350849Y-70397118D01*
X116574694Y-69675615D01*
X116653480Y-68924305D01*
X116625699Y-68622751D01*
X144649464Y-68622751D01*
X144718766Y-69374994D01*
X144933492Y-70099264D01*
X145285389Y-70767726D01*
X145312396Y-70808144D01*
X145802063Y-71168332D01*
X148323339Y-68647056D01*
X145802063Y-66125780D01*
X145312396Y-66485968D01*
X144952095Y-67149938D01*
X144728250Y-67871441D01*
X144649464Y-68622751D01*
X116625699Y-68622751D01*
X116584178Y-68172062D01*
X116369452Y-67447792D01*
X116017555Y-66779330D01*
X115990548Y-66738912D01*
X115500881Y-66378724D01*
X112979605Y-68900000D01*
X112620395Y-68900000D01*
X112606253Y-68885858D01*
X112785858Y-68706253D01*
X112800000Y-68720395D01*
X115321276Y-66199119D01*
X114961088Y-65709452D01*
X114297118Y-65349151D01*
X114159161Y-65306350D01*
X146789105Y-65215334D01*
X146382274Y-65429501D01*
M02*
