M48
; DRILL file {KiCad 5.1.5+dfsg1-2build2} date So 01 Aug 2021 10:53:45
; FORMAT={-:-/ absolute / inch / decimal}
; #@! TF.CreationDate,2021-08-01T10:53:45+02:00
; #@! TF.GenerationSoftware,Kicad,Pcbnew,5.1.5+dfsg1-2build2
; #@! TF.FileFunction,Plated,1,4,PTH
FMAT,2
INCH
T1C0.0079
T2C0.0157
T3C0.0197
T4C0.0394
T5C0.1260
%
G90
G05
T1
X5.7923Y-3.939
X5.815Y-3.9016
X5.815Y-3.9764
X5.8376Y-3.939
T2
X4.4547Y-2.9626
X4.5335Y-3.5315
X4.622Y-2.9272
X4.6594Y-3.502
X4.7126Y-2.9154
X4.7146Y-2.8484
X4.8957Y-4.0984
X4.9193Y-3.6043
X4.9803Y-4.3976
X5.0512Y-4.1516
X5.1063Y-3.1398
X5.1713Y-4.2756
X5.2441Y-4.0709
X5.2598Y-3.0689
X5.2598Y-3.1181
X5.2657Y-3.4232
X5.3169Y-3.0039
X5.3524Y-4.1043
X5.3543Y-2.9843
X5.4803Y-2.8031
X5.5768Y-4.1063
X5.5984Y-2.8268
X5.5984Y-3.122
X5.7382Y-2.9075
X5.7382Y-3.0866
X5.8189Y-3.7323
X5.8189Y-3.8169
X5.9331Y-3.8839
T3
X4.3465Y-2.7126
X4.3741Y-2.6458
X4.3741Y-2.7794
X4.4409Y-2.6181
X4.4409Y-2.8071
X4.5078Y-2.6458
X4.5078Y-2.7794
X4.5354Y-2.7126
X5.7521Y-4.3304
X5.7798Y-4.2636
X5.7798Y-4.3972
X5.8466Y-4.2359
X5.8466Y-4.4249
X5.9134Y-4.2636
X5.9134Y-4.3972
X5.9411Y-4.3304
X4.3573Y-4.3304
X4.385Y-4.2636
X4.385Y-4.3972
X4.4518Y-4.2359
X4.4518Y-4.4249
X4.5186Y-4.2636
X4.5186Y-4.3972
X4.5463Y-4.3304
X5.7521Y-2.7026
X5.7798Y-2.6358
X5.7798Y-2.7695
X5.8466Y-2.6082
X5.8466Y-2.7971
X5.9134Y-2.6358
X5.9134Y-2.7695
X5.9411Y-2.7026
T4
X4.5669Y-3.0689
X4.5669Y-3.1689
X4.5669Y-3.2689
X4.6669Y-3.0689
X4.6669Y-3.1689
X4.6669Y-3.2689
X5.9117Y-3.1127
X5.9117Y-3.2127
X5.9117Y-3.3127
X5.9117Y-3.4127
X5.9117Y-3.5127
X5.9117Y-3.6127
X4.8524Y-3.6795
X4.8524Y-3.7795
X4.9524Y-3.6795
X4.9524Y-3.7795
X5.0524Y-3.6795
X5.0524Y-3.7795
X5.1524Y-3.6795
X5.1524Y-3.7795
T5
X4.4409Y-2.7126
X5.8466Y-4.3304
X4.4518Y-4.3304
X5.8466Y-2.7026
T0
M30
