G04 #@! TF.GenerationSoftware,KiCad,Pcbnew,5.1.5+dfsg1-2build2*
G04 #@! TF.CreationDate,2021-08-01T10:53:42+02:00*
G04 #@! TF.ProjectId,Sensor_Nodes,53656e73-6f72-45f4-9e6f-6465732e6b69,rev?*
G04 #@! TF.SameCoordinates,Original*
G04 #@! TF.FileFunction,Copper,L1,Top*
G04 #@! TF.FilePolarity,Positive*
%FSLAX46Y46*%
G04 Gerber Fmt 4.6, Leading zero omitted, Abs format (unit mm)*
G04 Created by KiCad (PCBNEW 5.1.5+dfsg1-2build2) date 2021-08-01 10:53:42*
%MOMM*%
%LPD*%
G04 APERTURE LIST*
%ADD10O,1.700000X1.700000*%
%ADD11R,1.700000X1.700000*%
%ADD12R,2.000000X0.900000*%
%ADD13R,0.900000X2.000000*%
%ADD14R,5.000000X5.000000*%
%ADD15C,0.100000*%
%ADD16R,0.400000X0.600000*%
%ADD17R,2.400000X1.500000*%
%ADD18R,0.650000X1.060000*%
%ADD19R,0.800000X1.050000*%
%ADD20R,0.900000X0.800000*%
%ADD21R,2.500000X1.500000*%
%ADD22R,1.800000X3.900000*%
%ADD23R,1.400000X4.500000*%
%ADD24R,3.900000X1.800000*%
%ADD25R,4.500000X1.400000*%
%ADD26C,0.800000*%
%ADD27C,6.400000*%
%ADD28R,0.600000X0.240000*%
%ADD29C,0.500000*%
%ADD30C,0.500000*%
%ADD31C,0.300000*%
%ADD32C,0.250000*%
%ADD33C,1.000000*%
%ADD34C,0.750000*%
G04 APERTURE END LIST*
D10*
X130870000Y-93460000D03*
X130870000Y-96000000D03*
X128330000Y-93460000D03*
X128330000Y-96000000D03*
X125790000Y-93460000D03*
X125790000Y-96000000D03*
X123250000Y-93460000D03*
D11*
X123250000Y-96000000D03*
D12*
X139183000Y-72263000D03*
X139183000Y-73533000D03*
X139183000Y-74803000D03*
X139183000Y-76073000D03*
X139183000Y-77343000D03*
X139183000Y-78613000D03*
X139183000Y-79883000D03*
X139183000Y-81153000D03*
X139183000Y-82423000D03*
X139183000Y-83693000D03*
X139183000Y-84963000D03*
X139183000Y-86233000D03*
X139183000Y-87503000D03*
X139183000Y-88773000D03*
D13*
X136398000Y-89773000D03*
X135128000Y-89773000D03*
X133858000Y-89773000D03*
X132588000Y-89773000D03*
X131318000Y-89773000D03*
X130048000Y-89773000D03*
X128778000Y-89773000D03*
X127508000Y-89773000D03*
X126238000Y-89773000D03*
X124968000Y-89773000D03*
D12*
X122183000Y-88773000D03*
X122183000Y-87503000D03*
X122183000Y-86233000D03*
X122183000Y-84963000D03*
X122183000Y-83693000D03*
X122183000Y-82423000D03*
X122183000Y-81153000D03*
X122183000Y-79883000D03*
X122183000Y-78613000D03*
X122183000Y-77343000D03*
X122183000Y-76073000D03*
X122183000Y-74803000D03*
X122183000Y-73533000D03*
X122183000Y-72263000D03*
D14*
X129683000Y-79763000D03*
G04 #@! TA.AperFunction,SMDPad,CuDef*
D15*
G36*
X124656958Y-105230710D02*
G01*
X124671276Y-105232834D01*
X124685317Y-105236351D01*
X124698946Y-105241228D01*
X124712031Y-105247417D01*
X124724447Y-105254858D01*
X124736073Y-105263481D01*
X124746798Y-105273202D01*
X124756519Y-105283927D01*
X124765142Y-105295553D01*
X124772583Y-105307969D01*
X124778772Y-105321054D01*
X124783649Y-105334683D01*
X124787166Y-105348724D01*
X124789290Y-105363042D01*
X124790000Y-105377500D01*
X124790000Y-105722500D01*
X124789290Y-105736958D01*
X124787166Y-105751276D01*
X124783649Y-105765317D01*
X124778772Y-105778946D01*
X124772583Y-105792031D01*
X124765142Y-105804447D01*
X124756519Y-105816073D01*
X124746798Y-105826798D01*
X124736073Y-105836519D01*
X124724447Y-105845142D01*
X124712031Y-105852583D01*
X124698946Y-105858772D01*
X124685317Y-105863649D01*
X124671276Y-105867166D01*
X124656958Y-105869290D01*
X124642500Y-105870000D01*
X124347500Y-105870000D01*
X124333042Y-105869290D01*
X124318724Y-105867166D01*
X124304683Y-105863649D01*
X124291054Y-105858772D01*
X124277969Y-105852583D01*
X124265553Y-105845142D01*
X124253927Y-105836519D01*
X124243202Y-105826798D01*
X124233481Y-105816073D01*
X124224858Y-105804447D01*
X124217417Y-105792031D01*
X124211228Y-105778946D01*
X124206351Y-105765317D01*
X124202834Y-105751276D01*
X124200710Y-105736958D01*
X124200000Y-105722500D01*
X124200000Y-105377500D01*
X124200710Y-105363042D01*
X124202834Y-105348724D01*
X124206351Y-105334683D01*
X124211228Y-105321054D01*
X124217417Y-105307969D01*
X124224858Y-105295553D01*
X124233481Y-105283927D01*
X124243202Y-105273202D01*
X124253927Y-105263481D01*
X124265553Y-105254858D01*
X124277969Y-105247417D01*
X124291054Y-105241228D01*
X124304683Y-105236351D01*
X124318724Y-105232834D01*
X124333042Y-105230710D01*
X124347500Y-105230000D01*
X124642500Y-105230000D01*
X124656958Y-105230710D01*
G37*
G04 #@! TD.AperFunction*
G04 #@! TA.AperFunction,SMDPad,CuDef*
G36*
X125626958Y-105230710D02*
G01*
X125641276Y-105232834D01*
X125655317Y-105236351D01*
X125668946Y-105241228D01*
X125682031Y-105247417D01*
X125694447Y-105254858D01*
X125706073Y-105263481D01*
X125716798Y-105273202D01*
X125726519Y-105283927D01*
X125735142Y-105295553D01*
X125742583Y-105307969D01*
X125748772Y-105321054D01*
X125753649Y-105334683D01*
X125757166Y-105348724D01*
X125759290Y-105363042D01*
X125760000Y-105377500D01*
X125760000Y-105722500D01*
X125759290Y-105736958D01*
X125757166Y-105751276D01*
X125753649Y-105765317D01*
X125748772Y-105778946D01*
X125742583Y-105792031D01*
X125735142Y-105804447D01*
X125726519Y-105816073D01*
X125716798Y-105826798D01*
X125706073Y-105836519D01*
X125694447Y-105845142D01*
X125682031Y-105852583D01*
X125668946Y-105858772D01*
X125655317Y-105863649D01*
X125641276Y-105867166D01*
X125626958Y-105869290D01*
X125612500Y-105870000D01*
X125317500Y-105870000D01*
X125303042Y-105869290D01*
X125288724Y-105867166D01*
X125274683Y-105863649D01*
X125261054Y-105858772D01*
X125247969Y-105852583D01*
X125235553Y-105845142D01*
X125223927Y-105836519D01*
X125213202Y-105826798D01*
X125203481Y-105816073D01*
X125194858Y-105804447D01*
X125187417Y-105792031D01*
X125181228Y-105778946D01*
X125176351Y-105765317D01*
X125172834Y-105751276D01*
X125170710Y-105736958D01*
X125170000Y-105722500D01*
X125170000Y-105377500D01*
X125170710Y-105363042D01*
X125172834Y-105348724D01*
X125176351Y-105334683D01*
X125181228Y-105321054D01*
X125187417Y-105307969D01*
X125194858Y-105295553D01*
X125203481Y-105283927D01*
X125213202Y-105273202D01*
X125223927Y-105263481D01*
X125235553Y-105254858D01*
X125247969Y-105247417D01*
X125261054Y-105241228D01*
X125274683Y-105236351D01*
X125288724Y-105232834D01*
X125303042Y-105230710D01*
X125317500Y-105230000D01*
X125612500Y-105230000D01*
X125626958Y-105230710D01*
G37*
G04 #@! TD.AperFunction*
D10*
X150158000Y-79063000D03*
X150158000Y-81603000D03*
X150158000Y-84143000D03*
X150158000Y-86683000D03*
X150158000Y-89223000D03*
D11*
X150158000Y-91763000D03*
G04 #@! TA.AperFunction,SMDPad,CuDef*
D15*
G36*
X124610779Y-98176144D02*
G01*
X124633834Y-98179563D01*
X124656443Y-98185227D01*
X124678387Y-98193079D01*
X124699457Y-98203044D01*
X124719448Y-98215026D01*
X124738168Y-98228910D01*
X124755438Y-98244562D01*
X124771090Y-98261832D01*
X124784974Y-98280552D01*
X124796956Y-98300543D01*
X124806921Y-98321613D01*
X124814773Y-98343557D01*
X124820437Y-98366166D01*
X124823856Y-98389221D01*
X124825000Y-98412500D01*
X124825000Y-98887500D01*
X124823856Y-98910779D01*
X124820437Y-98933834D01*
X124814773Y-98956443D01*
X124806921Y-98978387D01*
X124796956Y-98999457D01*
X124784974Y-99019448D01*
X124771090Y-99038168D01*
X124755438Y-99055438D01*
X124738168Y-99071090D01*
X124719448Y-99084974D01*
X124699457Y-99096956D01*
X124678387Y-99106921D01*
X124656443Y-99114773D01*
X124633834Y-99120437D01*
X124610779Y-99123856D01*
X124587500Y-99125000D01*
X124012500Y-99125000D01*
X123989221Y-99123856D01*
X123966166Y-99120437D01*
X123943557Y-99114773D01*
X123921613Y-99106921D01*
X123900543Y-99096956D01*
X123880552Y-99084974D01*
X123861832Y-99071090D01*
X123844562Y-99055438D01*
X123828910Y-99038168D01*
X123815026Y-99019448D01*
X123803044Y-98999457D01*
X123793079Y-98978387D01*
X123785227Y-98956443D01*
X123779563Y-98933834D01*
X123776144Y-98910779D01*
X123775000Y-98887500D01*
X123775000Y-98412500D01*
X123776144Y-98389221D01*
X123779563Y-98366166D01*
X123785227Y-98343557D01*
X123793079Y-98321613D01*
X123803044Y-98300543D01*
X123815026Y-98280552D01*
X123828910Y-98261832D01*
X123844562Y-98244562D01*
X123861832Y-98228910D01*
X123880552Y-98215026D01*
X123900543Y-98203044D01*
X123921613Y-98193079D01*
X123943557Y-98185227D01*
X123966166Y-98179563D01*
X123989221Y-98176144D01*
X124012500Y-98175000D01*
X124587500Y-98175000D01*
X124610779Y-98176144D01*
G37*
G04 #@! TD.AperFunction*
G04 #@! TA.AperFunction,SMDPad,CuDef*
G36*
X122860779Y-98176144D02*
G01*
X122883834Y-98179563D01*
X122906443Y-98185227D01*
X122928387Y-98193079D01*
X122949457Y-98203044D01*
X122969448Y-98215026D01*
X122988168Y-98228910D01*
X123005438Y-98244562D01*
X123021090Y-98261832D01*
X123034974Y-98280552D01*
X123046956Y-98300543D01*
X123056921Y-98321613D01*
X123064773Y-98343557D01*
X123070437Y-98366166D01*
X123073856Y-98389221D01*
X123075000Y-98412500D01*
X123075000Y-98887500D01*
X123073856Y-98910779D01*
X123070437Y-98933834D01*
X123064773Y-98956443D01*
X123056921Y-98978387D01*
X123046956Y-98999457D01*
X123034974Y-99019448D01*
X123021090Y-99038168D01*
X123005438Y-99055438D01*
X122988168Y-99071090D01*
X122969448Y-99084974D01*
X122949457Y-99096956D01*
X122928387Y-99106921D01*
X122906443Y-99114773D01*
X122883834Y-99120437D01*
X122860779Y-99123856D01*
X122837500Y-99125000D01*
X122262500Y-99125000D01*
X122239221Y-99123856D01*
X122216166Y-99120437D01*
X122193557Y-99114773D01*
X122171613Y-99106921D01*
X122150543Y-99096956D01*
X122130552Y-99084974D01*
X122111832Y-99071090D01*
X122094562Y-99055438D01*
X122078910Y-99038168D01*
X122065026Y-99019448D01*
X122053044Y-98999457D01*
X122043079Y-98978387D01*
X122035227Y-98956443D01*
X122029563Y-98933834D01*
X122026144Y-98910779D01*
X122025000Y-98887500D01*
X122025000Y-98412500D01*
X122026144Y-98389221D01*
X122029563Y-98366166D01*
X122035227Y-98343557D01*
X122043079Y-98321613D01*
X122053044Y-98300543D01*
X122065026Y-98280552D01*
X122078910Y-98261832D01*
X122094562Y-98244562D01*
X122111832Y-98228910D01*
X122130552Y-98215026D01*
X122150543Y-98203044D01*
X122171613Y-98193079D01*
X122193557Y-98185227D01*
X122216166Y-98179563D01*
X122239221Y-98176144D01*
X122262500Y-98175000D01*
X122837500Y-98175000D01*
X122860779Y-98176144D01*
G37*
G04 #@! TD.AperFunction*
D16*
X144800000Y-74796000D03*
X145750000Y-74796000D03*
X146700000Y-74796000D03*
X146700000Y-77596000D03*
X145750000Y-77596000D03*
X144800000Y-77596000D03*
D17*
X145750000Y-76196000D03*
D18*
X125491200Y-109177600D03*
X126441200Y-109177600D03*
X127391200Y-109177600D03*
X127391200Y-106977600D03*
X125491200Y-106977600D03*
X126441200Y-106977600D03*
D19*
X115125000Y-92850000D03*
X111375000Y-92850000D03*
X111375000Y-86850000D03*
X115125000Y-86850000D03*
X118673400Y-112550800D03*
X122423400Y-112550800D03*
X122423400Y-106550800D03*
X118673400Y-106550800D03*
G04 #@! TA.AperFunction,SMDPad,CuDef*
D15*
G36*
X128377578Y-112226544D02*
G01*
X128400633Y-112229963D01*
X128423242Y-112235627D01*
X128445186Y-112243479D01*
X128466256Y-112253444D01*
X128486247Y-112265426D01*
X128504967Y-112279310D01*
X128522237Y-112294962D01*
X128537889Y-112312232D01*
X128551773Y-112330952D01*
X128563755Y-112350943D01*
X128573720Y-112372013D01*
X128581572Y-112393957D01*
X128587236Y-112416566D01*
X128590655Y-112439621D01*
X128591799Y-112462900D01*
X128591799Y-112937900D01*
X128590655Y-112961179D01*
X128587236Y-112984234D01*
X128581572Y-113006843D01*
X128573720Y-113028787D01*
X128563755Y-113049857D01*
X128551773Y-113069848D01*
X128537889Y-113088568D01*
X128522237Y-113105838D01*
X128504967Y-113121490D01*
X128486247Y-113135374D01*
X128466256Y-113147356D01*
X128445186Y-113157321D01*
X128423242Y-113165173D01*
X128400633Y-113170837D01*
X128377578Y-113174256D01*
X128354299Y-113175400D01*
X127779299Y-113175400D01*
X127756020Y-113174256D01*
X127732965Y-113170837D01*
X127710356Y-113165173D01*
X127688412Y-113157321D01*
X127667342Y-113147356D01*
X127647351Y-113135374D01*
X127628631Y-113121490D01*
X127611361Y-113105838D01*
X127595709Y-113088568D01*
X127581825Y-113069848D01*
X127569843Y-113049857D01*
X127559878Y-113028787D01*
X127552026Y-113006843D01*
X127546362Y-112984234D01*
X127542943Y-112961179D01*
X127541799Y-112937900D01*
X127541799Y-112462900D01*
X127542943Y-112439621D01*
X127546362Y-112416566D01*
X127552026Y-112393957D01*
X127559878Y-112372013D01*
X127569843Y-112350943D01*
X127581825Y-112330952D01*
X127595709Y-112312232D01*
X127611361Y-112294962D01*
X127628631Y-112279310D01*
X127647351Y-112265426D01*
X127667342Y-112253444D01*
X127688412Y-112243479D01*
X127710356Y-112235627D01*
X127732965Y-112229963D01*
X127756020Y-112226544D01*
X127779299Y-112225400D01*
X128354299Y-112225400D01*
X128377578Y-112226544D01*
G37*
G04 #@! TD.AperFunction*
G04 #@! TA.AperFunction,SMDPad,CuDef*
G36*
X130127578Y-112226544D02*
G01*
X130150633Y-112229963D01*
X130173242Y-112235627D01*
X130195186Y-112243479D01*
X130216256Y-112253444D01*
X130236247Y-112265426D01*
X130254967Y-112279310D01*
X130272237Y-112294962D01*
X130287889Y-112312232D01*
X130301773Y-112330952D01*
X130313755Y-112350943D01*
X130323720Y-112372013D01*
X130331572Y-112393957D01*
X130337236Y-112416566D01*
X130340655Y-112439621D01*
X130341799Y-112462900D01*
X130341799Y-112937900D01*
X130340655Y-112961179D01*
X130337236Y-112984234D01*
X130331572Y-113006843D01*
X130323720Y-113028787D01*
X130313755Y-113049857D01*
X130301773Y-113069848D01*
X130287889Y-113088568D01*
X130272237Y-113105838D01*
X130254967Y-113121490D01*
X130236247Y-113135374D01*
X130216256Y-113147356D01*
X130195186Y-113157321D01*
X130173242Y-113165173D01*
X130150633Y-113170837D01*
X130127578Y-113174256D01*
X130104299Y-113175400D01*
X129529299Y-113175400D01*
X129506020Y-113174256D01*
X129482965Y-113170837D01*
X129460356Y-113165173D01*
X129438412Y-113157321D01*
X129417342Y-113147356D01*
X129397351Y-113135374D01*
X129378631Y-113121490D01*
X129361361Y-113105838D01*
X129345709Y-113088568D01*
X129331825Y-113069848D01*
X129319843Y-113049857D01*
X129309878Y-113028787D01*
X129302026Y-113006843D01*
X129296362Y-112984234D01*
X129292943Y-112961179D01*
X129291799Y-112937900D01*
X129291799Y-112462900D01*
X129292943Y-112439621D01*
X129296362Y-112416566D01*
X129302026Y-112393957D01*
X129309878Y-112372013D01*
X129319843Y-112350943D01*
X129331825Y-112330952D01*
X129345709Y-112312232D01*
X129361361Y-112294962D01*
X129378631Y-112279310D01*
X129397351Y-112265426D01*
X129417342Y-112253444D01*
X129438412Y-112243479D01*
X129460356Y-112235627D01*
X129482965Y-112229963D01*
X129506020Y-112226544D01*
X129529299Y-112225400D01*
X130104299Y-112225400D01*
X130127578Y-112226544D01*
G37*
G04 #@! TD.AperFunction*
G04 #@! TA.AperFunction,SMDPad,CuDef*
G36*
X131629579Y-111363744D02*
G01*
X131652634Y-111367163D01*
X131675243Y-111372827D01*
X131697187Y-111380679D01*
X131718257Y-111390644D01*
X131738248Y-111402626D01*
X131756968Y-111416510D01*
X131774238Y-111432162D01*
X131789890Y-111449432D01*
X131803774Y-111468152D01*
X131815756Y-111488143D01*
X131825721Y-111509213D01*
X131833573Y-111531157D01*
X131839237Y-111553766D01*
X131842656Y-111576821D01*
X131843800Y-111600100D01*
X131843800Y-112175100D01*
X131842656Y-112198379D01*
X131839237Y-112221434D01*
X131833573Y-112244043D01*
X131825721Y-112265987D01*
X131815756Y-112287057D01*
X131803774Y-112307048D01*
X131789890Y-112325768D01*
X131774238Y-112343038D01*
X131756968Y-112358690D01*
X131738248Y-112372574D01*
X131718257Y-112384556D01*
X131697187Y-112394521D01*
X131675243Y-112402373D01*
X131652634Y-112408037D01*
X131629579Y-112411456D01*
X131606300Y-112412600D01*
X131131300Y-112412600D01*
X131108021Y-112411456D01*
X131084966Y-112408037D01*
X131062357Y-112402373D01*
X131040413Y-112394521D01*
X131019343Y-112384556D01*
X130999352Y-112372574D01*
X130980632Y-112358690D01*
X130963362Y-112343038D01*
X130947710Y-112325768D01*
X130933826Y-112307048D01*
X130921844Y-112287057D01*
X130911879Y-112265987D01*
X130904027Y-112244043D01*
X130898363Y-112221434D01*
X130894944Y-112198379D01*
X130893800Y-112175100D01*
X130893800Y-111600100D01*
X130894944Y-111576821D01*
X130898363Y-111553766D01*
X130904027Y-111531157D01*
X130911879Y-111509213D01*
X130921844Y-111488143D01*
X130933826Y-111468152D01*
X130947710Y-111449432D01*
X130963362Y-111432162D01*
X130980632Y-111416510D01*
X130999352Y-111402626D01*
X131019343Y-111390644D01*
X131040413Y-111380679D01*
X131062357Y-111372827D01*
X131084966Y-111367163D01*
X131108021Y-111363744D01*
X131131300Y-111362600D01*
X131606300Y-111362600D01*
X131629579Y-111363744D01*
G37*
G04 #@! TD.AperFunction*
G04 #@! TA.AperFunction,SMDPad,CuDef*
G36*
X131629579Y-109613744D02*
G01*
X131652634Y-109617163D01*
X131675243Y-109622827D01*
X131697187Y-109630679D01*
X131718257Y-109640644D01*
X131738248Y-109652626D01*
X131756968Y-109666510D01*
X131774238Y-109682162D01*
X131789890Y-109699432D01*
X131803774Y-109718152D01*
X131815756Y-109738143D01*
X131825721Y-109759213D01*
X131833573Y-109781157D01*
X131839237Y-109803766D01*
X131842656Y-109826821D01*
X131843800Y-109850100D01*
X131843800Y-110425100D01*
X131842656Y-110448379D01*
X131839237Y-110471434D01*
X131833573Y-110494043D01*
X131825721Y-110515987D01*
X131815756Y-110537057D01*
X131803774Y-110557048D01*
X131789890Y-110575768D01*
X131774238Y-110593038D01*
X131756968Y-110608690D01*
X131738248Y-110622574D01*
X131718257Y-110634556D01*
X131697187Y-110644521D01*
X131675243Y-110652373D01*
X131652634Y-110658037D01*
X131629579Y-110661456D01*
X131606300Y-110662600D01*
X131131300Y-110662600D01*
X131108021Y-110661456D01*
X131084966Y-110658037D01*
X131062357Y-110652373D01*
X131040413Y-110644521D01*
X131019343Y-110634556D01*
X130999352Y-110622574D01*
X130980632Y-110608690D01*
X130963362Y-110593038D01*
X130947710Y-110575768D01*
X130933826Y-110557048D01*
X130921844Y-110537057D01*
X130911879Y-110515987D01*
X130904027Y-110494043D01*
X130898363Y-110471434D01*
X130894944Y-110448379D01*
X130893800Y-110425100D01*
X130893800Y-109850100D01*
X130894944Y-109826821D01*
X130898363Y-109803766D01*
X130904027Y-109781157D01*
X130911879Y-109759213D01*
X130921844Y-109738143D01*
X130933826Y-109718152D01*
X130947710Y-109699432D01*
X130963362Y-109682162D01*
X130980632Y-109666510D01*
X130999352Y-109652626D01*
X131019343Y-109640644D01*
X131040413Y-109630679D01*
X131062357Y-109622827D01*
X131084966Y-109617163D01*
X131108021Y-109613744D01*
X131131300Y-109612600D01*
X131606300Y-109612600D01*
X131629579Y-109613744D01*
G37*
G04 #@! TD.AperFunction*
G04 #@! TA.AperFunction,SMDPad,CuDef*
G36*
X142460779Y-75926144D02*
G01*
X142483834Y-75929563D01*
X142506443Y-75935227D01*
X142528387Y-75943079D01*
X142549457Y-75953044D01*
X142569448Y-75965026D01*
X142588168Y-75978910D01*
X142605438Y-75994562D01*
X142621090Y-76011832D01*
X142634974Y-76030552D01*
X142646956Y-76050543D01*
X142656921Y-76071613D01*
X142664773Y-76093557D01*
X142670437Y-76116166D01*
X142673856Y-76139221D01*
X142675000Y-76162500D01*
X142675000Y-76737500D01*
X142673856Y-76760779D01*
X142670437Y-76783834D01*
X142664773Y-76806443D01*
X142656921Y-76828387D01*
X142646956Y-76849457D01*
X142634974Y-76869448D01*
X142621090Y-76888168D01*
X142605438Y-76905438D01*
X142588168Y-76921090D01*
X142569448Y-76934974D01*
X142549457Y-76946956D01*
X142528387Y-76956921D01*
X142506443Y-76964773D01*
X142483834Y-76970437D01*
X142460779Y-76973856D01*
X142437500Y-76975000D01*
X141962500Y-76975000D01*
X141939221Y-76973856D01*
X141916166Y-76970437D01*
X141893557Y-76964773D01*
X141871613Y-76956921D01*
X141850543Y-76946956D01*
X141830552Y-76934974D01*
X141811832Y-76921090D01*
X141794562Y-76905438D01*
X141778910Y-76888168D01*
X141765026Y-76869448D01*
X141753044Y-76849457D01*
X141743079Y-76828387D01*
X141735227Y-76806443D01*
X141729563Y-76783834D01*
X141726144Y-76760779D01*
X141725000Y-76737500D01*
X141725000Y-76162500D01*
X141726144Y-76139221D01*
X141729563Y-76116166D01*
X141735227Y-76093557D01*
X141743079Y-76071613D01*
X141753044Y-76050543D01*
X141765026Y-76030552D01*
X141778910Y-76011832D01*
X141794562Y-75994562D01*
X141811832Y-75978910D01*
X141830552Y-75965026D01*
X141850543Y-75953044D01*
X141871613Y-75943079D01*
X141893557Y-75935227D01*
X141916166Y-75929563D01*
X141939221Y-75926144D01*
X141962500Y-75925000D01*
X142437500Y-75925000D01*
X142460779Y-75926144D01*
G37*
G04 #@! TD.AperFunction*
G04 #@! TA.AperFunction,SMDPad,CuDef*
G36*
X142460779Y-77676144D02*
G01*
X142483834Y-77679563D01*
X142506443Y-77685227D01*
X142528387Y-77693079D01*
X142549457Y-77703044D01*
X142569448Y-77715026D01*
X142588168Y-77728910D01*
X142605438Y-77744562D01*
X142621090Y-77761832D01*
X142634974Y-77780552D01*
X142646956Y-77800543D01*
X142656921Y-77821613D01*
X142664773Y-77843557D01*
X142670437Y-77866166D01*
X142673856Y-77889221D01*
X142675000Y-77912500D01*
X142675000Y-78487500D01*
X142673856Y-78510779D01*
X142670437Y-78533834D01*
X142664773Y-78556443D01*
X142656921Y-78578387D01*
X142646956Y-78599457D01*
X142634974Y-78619448D01*
X142621090Y-78638168D01*
X142605438Y-78655438D01*
X142588168Y-78671090D01*
X142569448Y-78684974D01*
X142549457Y-78696956D01*
X142528387Y-78706921D01*
X142506443Y-78714773D01*
X142483834Y-78720437D01*
X142460779Y-78723856D01*
X142437500Y-78725000D01*
X141962500Y-78725000D01*
X141939221Y-78723856D01*
X141916166Y-78720437D01*
X141893557Y-78714773D01*
X141871613Y-78706921D01*
X141850543Y-78696956D01*
X141830552Y-78684974D01*
X141811832Y-78671090D01*
X141794562Y-78655438D01*
X141778910Y-78638168D01*
X141765026Y-78619448D01*
X141753044Y-78599457D01*
X141743079Y-78578387D01*
X141735227Y-78556443D01*
X141729563Y-78533834D01*
X141726144Y-78510779D01*
X141725000Y-78487500D01*
X141725000Y-77912500D01*
X141726144Y-77889221D01*
X141729563Y-77866166D01*
X141735227Y-77843557D01*
X141743079Y-77821613D01*
X141753044Y-77800543D01*
X141765026Y-77780552D01*
X141778910Y-77761832D01*
X141794562Y-77744562D01*
X141811832Y-77728910D01*
X141830552Y-77715026D01*
X141850543Y-77703044D01*
X141871613Y-77693079D01*
X141893557Y-77685227D01*
X141916166Y-77679563D01*
X141939221Y-77676144D01*
X141962500Y-77675000D01*
X142437500Y-77675000D01*
X142460779Y-77676144D01*
G37*
G04 #@! TD.AperFunction*
G04 #@! TA.AperFunction,SMDPad,CuDef*
G36*
X142466779Y-74247143D02*
G01*
X142489834Y-74250562D01*
X142512443Y-74256226D01*
X142534387Y-74264078D01*
X142555457Y-74274043D01*
X142575448Y-74286025D01*
X142594168Y-74299909D01*
X142611438Y-74315561D01*
X142627090Y-74332831D01*
X142640974Y-74351551D01*
X142652956Y-74371542D01*
X142662921Y-74392612D01*
X142670773Y-74414556D01*
X142676437Y-74437165D01*
X142679856Y-74460220D01*
X142681000Y-74483499D01*
X142681000Y-75058499D01*
X142679856Y-75081778D01*
X142676437Y-75104833D01*
X142670773Y-75127442D01*
X142662921Y-75149386D01*
X142652956Y-75170456D01*
X142640974Y-75190447D01*
X142627090Y-75209167D01*
X142611438Y-75226437D01*
X142594168Y-75242089D01*
X142575448Y-75255973D01*
X142555457Y-75267955D01*
X142534387Y-75277920D01*
X142512443Y-75285772D01*
X142489834Y-75291436D01*
X142466779Y-75294855D01*
X142443500Y-75295999D01*
X141968500Y-75295999D01*
X141945221Y-75294855D01*
X141922166Y-75291436D01*
X141899557Y-75285772D01*
X141877613Y-75277920D01*
X141856543Y-75267955D01*
X141836552Y-75255973D01*
X141817832Y-75242089D01*
X141800562Y-75226437D01*
X141784910Y-75209167D01*
X141771026Y-75190447D01*
X141759044Y-75170456D01*
X141749079Y-75149386D01*
X141741227Y-75127442D01*
X141735563Y-75104833D01*
X141732144Y-75081778D01*
X141731000Y-75058499D01*
X141731000Y-74483499D01*
X141732144Y-74460220D01*
X141735563Y-74437165D01*
X141741227Y-74414556D01*
X141749079Y-74392612D01*
X141759044Y-74371542D01*
X141771026Y-74351551D01*
X141784910Y-74332831D01*
X141800562Y-74315561D01*
X141817832Y-74299909D01*
X141836552Y-74286025D01*
X141856543Y-74274043D01*
X141877613Y-74264078D01*
X141899557Y-74256226D01*
X141922166Y-74250562D01*
X141945221Y-74247143D01*
X141968500Y-74245999D01*
X142443500Y-74245999D01*
X142466779Y-74247143D01*
G37*
G04 #@! TD.AperFunction*
G04 #@! TA.AperFunction,SMDPad,CuDef*
G36*
X142466779Y-72497143D02*
G01*
X142489834Y-72500562D01*
X142512443Y-72506226D01*
X142534387Y-72514078D01*
X142555457Y-72524043D01*
X142575448Y-72536025D01*
X142594168Y-72549909D01*
X142611438Y-72565561D01*
X142627090Y-72582831D01*
X142640974Y-72601551D01*
X142652956Y-72621542D01*
X142662921Y-72642612D01*
X142670773Y-72664556D01*
X142676437Y-72687165D01*
X142679856Y-72710220D01*
X142681000Y-72733499D01*
X142681000Y-73308499D01*
X142679856Y-73331778D01*
X142676437Y-73354833D01*
X142670773Y-73377442D01*
X142662921Y-73399386D01*
X142652956Y-73420456D01*
X142640974Y-73440447D01*
X142627090Y-73459167D01*
X142611438Y-73476437D01*
X142594168Y-73492089D01*
X142575448Y-73505973D01*
X142555457Y-73517955D01*
X142534387Y-73527920D01*
X142512443Y-73535772D01*
X142489834Y-73541436D01*
X142466779Y-73544855D01*
X142443500Y-73545999D01*
X141968500Y-73545999D01*
X141945221Y-73544855D01*
X141922166Y-73541436D01*
X141899557Y-73535772D01*
X141877613Y-73527920D01*
X141856543Y-73517955D01*
X141836552Y-73505973D01*
X141817832Y-73492089D01*
X141800562Y-73476437D01*
X141784910Y-73459167D01*
X141771026Y-73440447D01*
X141759044Y-73420456D01*
X141749079Y-73399386D01*
X141741227Y-73377442D01*
X141735563Y-73354833D01*
X141732144Y-73331778D01*
X141731000Y-73308499D01*
X141731000Y-72733499D01*
X141732144Y-72710220D01*
X141735563Y-72687165D01*
X141741227Y-72664556D01*
X141749079Y-72642612D01*
X141759044Y-72621542D01*
X141771026Y-72601551D01*
X141784910Y-72582831D01*
X141800562Y-72565561D01*
X141817832Y-72549909D01*
X141836552Y-72536025D01*
X141856543Y-72524043D01*
X141877613Y-72514078D01*
X141899557Y-72506226D01*
X141922166Y-72500562D01*
X141945221Y-72497143D01*
X141968500Y-72495999D01*
X142443500Y-72495999D01*
X142466779Y-72497143D01*
G37*
G04 #@! TD.AperFunction*
G04 #@! TA.AperFunction,SMDPad,CuDef*
G36*
X148943979Y-102369144D02*
G01*
X148967034Y-102372563D01*
X148989643Y-102378227D01*
X149011587Y-102386079D01*
X149032657Y-102396044D01*
X149052648Y-102408026D01*
X149071368Y-102421910D01*
X149088638Y-102437562D01*
X149104290Y-102454832D01*
X149118174Y-102473552D01*
X149130156Y-102493543D01*
X149140121Y-102514613D01*
X149147973Y-102536557D01*
X149153637Y-102559166D01*
X149157056Y-102582221D01*
X149158200Y-102605500D01*
X149158200Y-103080500D01*
X149157056Y-103103779D01*
X149153637Y-103126834D01*
X149147973Y-103149443D01*
X149140121Y-103171387D01*
X149130156Y-103192457D01*
X149118174Y-103212448D01*
X149104290Y-103231168D01*
X149088638Y-103248438D01*
X149071368Y-103264090D01*
X149052648Y-103277974D01*
X149032657Y-103289956D01*
X149011587Y-103299921D01*
X148989643Y-103307773D01*
X148967034Y-103313437D01*
X148943979Y-103316856D01*
X148920700Y-103318000D01*
X148345700Y-103318000D01*
X148322421Y-103316856D01*
X148299366Y-103313437D01*
X148276757Y-103307773D01*
X148254813Y-103299921D01*
X148233743Y-103289956D01*
X148213752Y-103277974D01*
X148195032Y-103264090D01*
X148177762Y-103248438D01*
X148162110Y-103231168D01*
X148148226Y-103212448D01*
X148136244Y-103192457D01*
X148126279Y-103171387D01*
X148118427Y-103149443D01*
X148112763Y-103126834D01*
X148109344Y-103103779D01*
X148108200Y-103080500D01*
X148108200Y-102605500D01*
X148109344Y-102582221D01*
X148112763Y-102559166D01*
X148118427Y-102536557D01*
X148126279Y-102514613D01*
X148136244Y-102493543D01*
X148148226Y-102473552D01*
X148162110Y-102454832D01*
X148177762Y-102437562D01*
X148195032Y-102421910D01*
X148213752Y-102408026D01*
X148233743Y-102396044D01*
X148254813Y-102386079D01*
X148276757Y-102378227D01*
X148299366Y-102372563D01*
X148322421Y-102369144D01*
X148345700Y-102368000D01*
X148920700Y-102368000D01*
X148943979Y-102369144D01*
G37*
G04 #@! TD.AperFunction*
G04 #@! TA.AperFunction,SMDPad,CuDef*
G36*
X147193979Y-102369144D02*
G01*
X147217034Y-102372563D01*
X147239643Y-102378227D01*
X147261587Y-102386079D01*
X147282657Y-102396044D01*
X147302648Y-102408026D01*
X147321368Y-102421910D01*
X147338638Y-102437562D01*
X147354290Y-102454832D01*
X147368174Y-102473552D01*
X147380156Y-102493543D01*
X147390121Y-102514613D01*
X147397973Y-102536557D01*
X147403637Y-102559166D01*
X147407056Y-102582221D01*
X147408200Y-102605500D01*
X147408200Y-103080500D01*
X147407056Y-103103779D01*
X147403637Y-103126834D01*
X147397973Y-103149443D01*
X147390121Y-103171387D01*
X147380156Y-103192457D01*
X147368174Y-103212448D01*
X147354290Y-103231168D01*
X147338638Y-103248438D01*
X147321368Y-103264090D01*
X147302648Y-103277974D01*
X147282657Y-103289956D01*
X147261587Y-103299921D01*
X147239643Y-103307773D01*
X147217034Y-103313437D01*
X147193979Y-103316856D01*
X147170700Y-103318000D01*
X146595700Y-103318000D01*
X146572421Y-103316856D01*
X146549366Y-103313437D01*
X146526757Y-103307773D01*
X146504813Y-103299921D01*
X146483743Y-103289956D01*
X146463752Y-103277974D01*
X146445032Y-103264090D01*
X146427762Y-103248438D01*
X146412110Y-103231168D01*
X146398226Y-103212448D01*
X146386244Y-103192457D01*
X146376279Y-103171387D01*
X146368427Y-103149443D01*
X146362763Y-103126834D01*
X146359344Y-103103779D01*
X146358200Y-103080500D01*
X146358200Y-102605500D01*
X146359344Y-102582221D01*
X146362763Y-102559166D01*
X146368427Y-102536557D01*
X146376279Y-102514613D01*
X146386244Y-102493543D01*
X146398226Y-102473552D01*
X146412110Y-102454832D01*
X146427762Y-102437562D01*
X146445032Y-102421910D01*
X146463752Y-102408026D01*
X146483743Y-102396044D01*
X146504813Y-102386079D01*
X146526757Y-102378227D01*
X146549366Y-102372563D01*
X146572421Y-102369144D01*
X146595700Y-102368000D01*
X147170700Y-102368000D01*
X147193979Y-102369144D01*
G37*
G04 #@! TD.AperFunction*
G04 #@! TA.AperFunction,SMDPad,CuDef*
G36*
X115217779Y-73694144D02*
G01*
X115240834Y-73697563D01*
X115263443Y-73703227D01*
X115285387Y-73711079D01*
X115306457Y-73721044D01*
X115326448Y-73733026D01*
X115345168Y-73746910D01*
X115362438Y-73762562D01*
X115378090Y-73779832D01*
X115391974Y-73798552D01*
X115403956Y-73818543D01*
X115413921Y-73839613D01*
X115421773Y-73861557D01*
X115427437Y-73884166D01*
X115430856Y-73907221D01*
X115432000Y-73930500D01*
X115432000Y-74405500D01*
X115430856Y-74428779D01*
X115427437Y-74451834D01*
X115421773Y-74474443D01*
X115413921Y-74496387D01*
X115403956Y-74517457D01*
X115391974Y-74537448D01*
X115378090Y-74556168D01*
X115362438Y-74573438D01*
X115345168Y-74589090D01*
X115326448Y-74602974D01*
X115306457Y-74614956D01*
X115285387Y-74624921D01*
X115263443Y-74632773D01*
X115240834Y-74638437D01*
X115217779Y-74641856D01*
X115194500Y-74643000D01*
X114619500Y-74643000D01*
X114596221Y-74641856D01*
X114573166Y-74638437D01*
X114550557Y-74632773D01*
X114528613Y-74624921D01*
X114507543Y-74614956D01*
X114487552Y-74602974D01*
X114468832Y-74589090D01*
X114451562Y-74573438D01*
X114435910Y-74556168D01*
X114422026Y-74537448D01*
X114410044Y-74517457D01*
X114400079Y-74496387D01*
X114392227Y-74474443D01*
X114386563Y-74451834D01*
X114383144Y-74428779D01*
X114382000Y-74405500D01*
X114382000Y-73930500D01*
X114383144Y-73907221D01*
X114386563Y-73884166D01*
X114392227Y-73861557D01*
X114400079Y-73839613D01*
X114410044Y-73818543D01*
X114422026Y-73798552D01*
X114435910Y-73779832D01*
X114451562Y-73762562D01*
X114468832Y-73746910D01*
X114487552Y-73733026D01*
X114507543Y-73721044D01*
X114528613Y-73711079D01*
X114550557Y-73703227D01*
X114573166Y-73697563D01*
X114596221Y-73694144D01*
X114619500Y-73693000D01*
X115194500Y-73693000D01*
X115217779Y-73694144D01*
G37*
G04 #@! TD.AperFunction*
G04 #@! TA.AperFunction,SMDPad,CuDef*
G36*
X113467779Y-73694144D02*
G01*
X113490834Y-73697563D01*
X113513443Y-73703227D01*
X113535387Y-73711079D01*
X113556457Y-73721044D01*
X113576448Y-73733026D01*
X113595168Y-73746910D01*
X113612438Y-73762562D01*
X113628090Y-73779832D01*
X113641974Y-73798552D01*
X113653956Y-73818543D01*
X113663921Y-73839613D01*
X113671773Y-73861557D01*
X113677437Y-73884166D01*
X113680856Y-73907221D01*
X113682000Y-73930500D01*
X113682000Y-74405500D01*
X113680856Y-74428779D01*
X113677437Y-74451834D01*
X113671773Y-74474443D01*
X113663921Y-74496387D01*
X113653956Y-74517457D01*
X113641974Y-74537448D01*
X113628090Y-74556168D01*
X113612438Y-74573438D01*
X113595168Y-74589090D01*
X113576448Y-74602974D01*
X113556457Y-74614956D01*
X113535387Y-74624921D01*
X113513443Y-74632773D01*
X113490834Y-74638437D01*
X113467779Y-74641856D01*
X113444500Y-74643000D01*
X112869500Y-74643000D01*
X112846221Y-74641856D01*
X112823166Y-74638437D01*
X112800557Y-74632773D01*
X112778613Y-74624921D01*
X112757543Y-74614956D01*
X112737552Y-74602974D01*
X112718832Y-74589090D01*
X112701562Y-74573438D01*
X112685910Y-74556168D01*
X112672026Y-74537448D01*
X112660044Y-74517457D01*
X112650079Y-74496387D01*
X112642227Y-74474443D01*
X112636563Y-74451834D01*
X112633144Y-74428779D01*
X112632000Y-74405500D01*
X112632000Y-73930500D01*
X112633144Y-73907221D01*
X112636563Y-73884166D01*
X112642227Y-73861557D01*
X112650079Y-73839613D01*
X112660044Y-73818543D01*
X112672026Y-73798552D01*
X112685910Y-73779832D01*
X112701562Y-73762562D01*
X112718832Y-73746910D01*
X112737552Y-73733026D01*
X112757543Y-73721044D01*
X112778613Y-73711079D01*
X112800557Y-73703227D01*
X112823166Y-73697563D01*
X112846221Y-73694144D01*
X112869500Y-73693000D01*
X113444500Y-73693000D01*
X113467779Y-73694144D01*
G37*
G04 #@! TD.AperFunction*
G04 #@! TA.AperFunction,SMDPad,CuDef*
G36*
X128377578Y-110651744D02*
G01*
X128400633Y-110655163D01*
X128423242Y-110660827D01*
X128445186Y-110668679D01*
X128466256Y-110678644D01*
X128486247Y-110690626D01*
X128504967Y-110704510D01*
X128522237Y-110720162D01*
X128537889Y-110737432D01*
X128551773Y-110756152D01*
X128563755Y-110776143D01*
X128573720Y-110797213D01*
X128581572Y-110819157D01*
X128587236Y-110841766D01*
X128590655Y-110864821D01*
X128591799Y-110888100D01*
X128591799Y-111363100D01*
X128590655Y-111386379D01*
X128587236Y-111409434D01*
X128581572Y-111432043D01*
X128573720Y-111453987D01*
X128563755Y-111475057D01*
X128551773Y-111495048D01*
X128537889Y-111513768D01*
X128522237Y-111531038D01*
X128504967Y-111546690D01*
X128486247Y-111560574D01*
X128466256Y-111572556D01*
X128445186Y-111582521D01*
X128423242Y-111590373D01*
X128400633Y-111596037D01*
X128377578Y-111599456D01*
X128354299Y-111600600D01*
X127779299Y-111600600D01*
X127756020Y-111599456D01*
X127732965Y-111596037D01*
X127710356Y-111590373D01*
X127688412Y-111582521D01*
X127667342Y-111572556D01*
X127647351Y-111560574D01*
X127628631Y-111546690D01*
X127611361Y-111531038D01*
X127595709Y-111513768D01*
X127581825Y-111495048D01*
X127569843Y-111475057D01*
X127559878Y-111453987D01*
X127552026Y-111432043D01*
X127546362Y-111409434D01*
X127542943Y-111386379D01*
X127541799Y-111363100D01*
X127541799Y-110888100D01*
X127542943Y-110864821D01*
X127546362Y-110841766D01*
X127552026Y-110819157D01*
X127559878Y-110797213D01*
X127569843Y-110776143D01*
X127581825Y-110756152D01*
X127595709Y-110737432D01*
X127611361Y-110720162D01*
X127628631Y-110704510D01*
X127647351Y-110690626D01*
X127667342Y-110678644D01*
X127688412Y-110668679D01*
X127710356Y-110660827D01*
X127732965Y-110655163D01*
X127756020Y-110651744D01*
X127779299Y-110650600D01*
X128354299Y-110650600D01*
X128377578Y-110651744D01*
G37*
G04 #@! TD.AperFunction*
G04 #@! TA.AperFunction,SMDPad,CuDef*
G36*
X130127578Y-110651744D02*
G01*
X130150633Y-110655163D01*
X130173242Y-110660827D01*
X130195186Y-110668679D01*
X130216256Y-110678644D01*
X130236247Y-110690626D01*
X130254967Y-110704510D01*
X130272237Y-110720162D01*
X130287889Y-110737432D01*
X130301773Y-110756152D01*
X130313755Y-110776143D01*
X130323720Y-110797213D01*
X130331572Y-110819157D01*
X130337236Y-110841766D01*
X130340655Y-110864821D01*
X130341799Y-110888100D01*
X130341799Y-111363100D01*
X130340655Y-111386379D01*
X130337236Y-111409434D01*
X130331572Y-111432043D01*
X130323720Y-111453987D01*
X130313755Y-111475057D01*
X130301773Y-111495048D01*
X130287889Y-111513768D01*
X130272237Y-111531038D01*
X130254967Y-111546690D01*
X130236247Y-111560574D01*
X130216256Y-111572556D01*
X130195186Y-111582521D01*
X130173242Y-111590373D01*
X130150633Y-111596037D01*
X130127578Y-111599456D01*
X130104299Y-111600600D01*
X129529299Y-111600600D01*
X129506020Y-111599456D01*
X129482965Y-111596037D01*
X129460356Y-111590373D01*
X129438412Y-111582521D01*
X129417342Y-111572556D01*
X129397351Y-111560574D01*
X129378631Y-111546690D01*
X129361361Y-111531038D01*
X129345709Y-111513768D01*
X129331825Y-111495048D01*
X129319843Y-111475057D01*
X129309878Y-111453987D01*
X129302026Y-111432043D01*
X129296362Y-111409434D01*
X129292943Y-111386379D01*
X129291799Y-111363100D01*
X129291799Y-110888100D01*
X129292943Y-110864821D01*
X129296362Y-110841766D01*
X129302026Y-110819157D01*
X129309878Y-110797213D01*
X129319843Y-110776143D01*
X129331825Y-110756152D01*
X129345709Y-110737432D01*
X129361361Y-110720162D01*
X129378631Y-110704510D01*
X129397351Y-110690626D01*
X129417342Y-110678644D01*
X129438412Y-110668679D01*
X129460356Y-110660827D01*
X129482965Y-110655163D01*
X129506020Y-110651744D01*
X129529299Y-110650600D01*
X130104299Y-110650600D01*
X130127578Y-110651744D01*
G37*
G04 #@! TD.AperFunction*
G04 #@! TA.AperFunction,SMDPad,CuDef*
G36*
X118629378Y-87344143D02*
G01*
X118652433Y-87347562D01*
X118675042Y-87353226D01*
X118696986Y-87361078D01*
X118718056Y-87371043D01*
X118738047Y-87383025D01*
X118756767Y-87396909D01*
X118774037Y-87412561D01*
X118789689Y-87429831D01*
X118803573Y-87448551D01*
X118815555Y-87468542D01*
X118825520Y-87489612D01*
X118833372Y-87511556D01*
X118839036Y-87534165D01*
X118842455Y-87557220D01*
X118843599Y-87580499D01*
X118843599Y-88055499D01*
X118842455Y-88078778D01*
X118839036Y-88101833D01*
X118833372Y-88124442D01*
X118825520Y-88146386D01*
X118815555Y-88167456D01*
X118803573Y-88187447D01*
X118789689Y-88206167D01*
X118774037Y-88223437D01*
X118756767Y-88239089D01*
X118738047Y-88252973D01*
X118718056Y-88264955D01*
X118696986Y-88274920D01*
X118675042Y-88282772D01*
X118652433Y-88288436D01*
X118629378Y-88291855D01*
X118606099Y-88292999D01*
X118031099Y-88292999D01*
X118007820Y-88291855D01*
X117984765Y-88288436D01*
X117962156Y-88282772D01*
X117940212Y-88274920D01*
X117919142Y-88264955D01*
X117899151Y-88252973D01*
X117880431Y-88239089D01*
X117863161Y-88223437D01*
X117847509Y-88206167D01*
X117833625Y-88187447D01*
X117821643Y-88167456D01*
X117811678Y-88146386D01*
X117803826Y-88124442D01*
X117798162Y-88101833D01*
X117794743Y-88078778D01*
X117793599Y-88055499D01*
X117793599Y-87580499D01*
X117794743Y-87557220D01*
X117798162Y-87534165D01*
X117803826Y-87511556D01*
X117811678Y-87489612D01*
X117821643Y-87468542D01*
X117833625Y-87448551D01*
X117847509Y-87429831D01*
X117863161Y-87412561D01*
X117880431Y-87396909D01*
X117899151Y-87383025D01*
X117919142Y-87371043D01*
X117940212Y-87361078D01*
X117962156Y-87353226D01*
X117984765Y-87347562D01*
X118007820Y-87344143D01*
X118031099Y-87342999D01*
X118606099Y-87342999D01*
X118629378Y-87344143D01*
G37*
G04 #@! TD.AperFunction*
G04 #@! TA.AperFunction,SMDPad,CuDef*
G36*
X120379378Y-87344143D02*
G01*
X120402433Y-87347562D01*
X120425042Y-87353226D01*
X120446986Y-87361078D01*
X120468056Y-87371043D01*
X120488047Y-87383025D01*
X120506767Y-87396909D01*
X120524037Y-87412561D01*
X120539689Y-87429831D01*
X120553573Y-87448551D01*
X120565555Y-87468542D01*
X120575520Y-87489612D01*
X120583372Y-87511556D01*
X120589036Y-87534165D01*
X120592455Y-87557220D01*
X120593599Y-87580499D01*
X120593599Y-88055499D01*
X120592455Y-88078778D01*
X120589036Y-88101833D01*
X120583372Y-88124442D01*
X120575520Y-88146386D01*
X120565555Y-88167456D01*
X120553573Y-88187447D01*
X120539689Y-88206167D01*
X120524037Y-88223437D01*
X120506767Y-88239089D01*
X120488047Y-88252973D01*
X120468056Y-88264955D01*
X120446986Y-88274920D01*
X120425042Y-88282772D01*
X120402433Y-88288436D01*
X120379378Y-88291855D01*
X120356099Y-88292999D01*
X119781099Y-88292999D01*
X119757820Y-88291855D01*
X119734765Y-88288436D01*
X119712156Y-88282772D01*
X119690212Y-88274920D01*
X119669142Y-88264955D01*
X119649151Y-88252973D01*
X119630431Y-88239089D01*
X119613161Y-88223437D01*
X119597509Y-88206167D01*
X119583625Y-88187447D01*
X119571643Y-88167456D01*
X119561678Y-88146386D01*
X119553826Y-88124442D01*
X119548162Y-88101833D01*
X119544743Y-88078778D01*
X119543599Y-88055499D01*
X119543599Y-87580499D01*
X119544743Y-87557220D01*
X119548162Y-87534165D01*
X119553826Y-87511556D01*
X119561678Y-87489612D01*
X119571643Y-87468542D01*
X119583625Y-87448551D01*
X119597509Y-87429831D01*
X119613161Y-87412561D01*
X119630431Y-87396909D01*
X119649151Y-87383025D01*
X119669142Y-87371043D01*
X119690212Y-87361078D01*
X119712156Y-87353226D01*
X119734765Y-87347562D01*
X119757820Y-87344143D01*
X119781099Y-87342999D01*
X120356099Y-87342999D01*
X120379378Y-87344143D01*
G37*
G04 #@! TD.AperFunction*
G04 #@! TA.AperFunction,SMDPad,CuDef*
G36*
X120373978Y-85784544D02*
G01*
X120397033Y-85787963D01*
X120419642Y-85793627D01*
X120441586Y-85801479D01*
X120462656Y-85811444D01*
X120482647Y-85823426D01*
X120501367Y-85837310D01*
X120518637Y-85852962D01*
X120534289Y-85870232D01*
X120548173Y-85888952D01*
X120560155Y-85908943D01*
X120570120Y-85930013D01*
X120577972Y-85951957D01*
X120583636Y-85974566D01*
X120587055Y-85997621D01*
X120588199Y-86020900D01*
X120588199Y-86495900D01*
X120587055Y-86519179D01*
X120583636Y-86542234D01*
X120577972Y-86564843D01*
X120570120Y-86586787D01*
X120560155Y-86607857D01*
X120548173Y-86627848D01*
X120534289Y-86646568D01*
X120518637Y-86663838D01*
X120501367Y-86679490D01*
X120482647Y-86693374D01*
X120462656Y-86705356D01*
X120441586Y-86715321D01*
X120419642Y-86723173D01*
X120397033Y-86728837D01*
X120373978Y-86732256D01*
X120350699Y-86733400D01*
X119775699Y-86733400D01*
X119752420Y-86732256D01*
X119729365Y-86728837D01*
X119706756Y-86723173D01*
X119684812Y-86715321D01*
X119663742Y-86705356D01*
X119643751Y-86693374D01*
X119625031Y-86679490D01*
X119607761Y-86663838D01*
X119592109Y-86646568D01*
X119578225Y-86627848D01*
X119566243Y-86607857D01*
X119556278Y-86586787D01*
X119548426Y-86564843D01*
X119542762Y-86542234D01*
X119539343Y-86519179D01*
X119538199Y-86495900D01*
X119538199Y-86020900D01*
X119539343Y-85997621D01*
X119542762Y-85974566D01*
X119548426Y-85951957D01*
X119556278Y-85930013D01*
X119566243Y-85908943D01*
X119578225Y-85888952D01*
X119592109Y-85870232D01*
X119607761Y-85852962D01*
X119625031Y-85837310D01*
X119643751Y-85823426D01*
X119663742Y-85811444D01*
X119684812Y-85801479D01*
X119706756Y-85793627D01*
X119729365Y-85787963D01*
X119752420Y-85784544D01*
X119775699Y-85783400D01*
X120350699Y-85783400D01*
X120373978Y-85784544D01*
G37*
G04 #@! TD.AperFunction*
G04 #@! TA.AperFunction,SMDPad,CuDef*
G36*
X118623978Y-85784544D02*
G01*
X118647033Y-85787963D01*
X118669642Y-85793627D01*
X118691586Y-85801479D01*
X118712656Y-85811444D01*
X118732647Y-85823426D01*
X118751367Y-85837310D01*
X118768637Y-85852962D01*
X118784289Y-85870232D01*
X118798173Y-85888952D01*
X118810155Y-85908943D01*
X118820120Y-85930013D01*
X118827972Y-85951957D01*
X118833636Y-85974566D01*
X118837055Y-85997621D01*
X118838199Y-86020900D01*
X118838199Y-86495900D01*
X118837055Y-86519179D01*
X118833636Y-86542234D01*
X118827972Y-86564843D01*
X118820120Y-86586787D01*
X118810155Y-86607857D01*
X118798173Y-86627848D01*
X118784289Y-86646568D01*
X118768637Y-86663838D01*
X118751367Y-86679490D01*
X118732647Y-86693374D01*
X118712656Y-86705356D01*
X118691586Y-86715321D01*
X118669642Y-86723173D01*
X118647033Y-86728837D01*
X118623978Y-86732256D01*
X118600699Y-86733400D01*
X118025699Y-86733400D01*
X118002420Y-86732256D01*
X117979365Y-86728837D01*
X117956756Y-86723173D01*
X117934812Y-86715321D01*
X117913742Y-86705356D01*
X117893751Y-86693374D01*
X117875031Y-86679490D01*
X117857761Y-86663838D01*
X117842109Y-86646568D01*
X117828225Y-86627848D01*
X117816243Y-86607857D01*
X117806278Y-86586787D01*
X117798426Y-86564843D01*
X117792762Y-86542234D01*
X117789343Y-86519179D01*
X117788199Y-86495900D01*
X117788199Y-86020900D01*
X117789343Y-85997621D01*
X117792762Y-85974566D01*
X117798426Y-85951957D01*
X117806278Y-85930013D01*
X117816243Y-85908943D01*
X117828225Y-85888952D01*
X117842109Y-85870232D01*
X117857761Y-85852962D01*
X117875031Y-85837310D01*
X117893751Y-85823426D01*
X117913742Y-85811444D01*
X117934812Y-85801479D01*
X117956756Y-85793627D01*
X117979365Y-85787963D01*
X118002420Y-85784544D01*
X118025699Y-85783400D01*
X118600699Y-85783400D01*
X118623978Y-85784544D01*
G37*
G04 #@! TD.AperFunction*
D20*
X131400000Y-100100000D03*
X131400000Y-102000000D03*
X133400000Y-101050000D03*
X126300000Y-101450000D03*
X124300000Y-102400000D03*
X124300000Y-100500000D03*
D21*
X142450000Y-99350000D03*
X142450000Y-95650000D03*
D10*
X118540000Y-83030000D03*
X116000000Y-83030000D03*
X118540000Y-80490000D03*
X116000000Y-80490000D03*
X118540000Y-77950000D03*
D11*
X116000000Y-77950000D03*
D22*
X143300000Y-112142000D03*
X134400000Y-112142000D03*
D23*
X137600000Y-104300000D03*
X140100000Y-104300000D03*
D24*
X110762000Y-104717800D03*
X110762000Y-95817800D03*
D25*
X118604000Y-99017800D03*
X118604000Y-101517800D03*
D26*
X114772057Y-108294200D03*
X113075001Y-107591256D03*
X111377945Y-108294200D03*
X110675001Y-109991256D03*
X111377945Y-111688312D03*
X113075001Y-112391256D03*
X114772057Y-111688312D03*
X115475001Y-109991256D03*
D27*
X113075001Y-109991256D03*
D26*
X150200000Y-108294200D03*
X148502944Y-107591256D03*
X146805888Y-108294200D03*
X146102944Y-109991256D03*
X146805888Y-111688312D03*
X148502944Y-112391256D03*
X150200000Y-111688312D03*
X150902944Y-109991256D03*
D27*
X148502944Y-109991256D03*
D26*
X114497056Y-67202944D03*
X112800000Y-66500000D03*
X111102944Y-67202944D03*
X110400000Y-68900000D03*
X111102944Y-70597056D03*
X112800000Y-71300000D03*
X114497056Y-70597056D03*
X115200000Y-68900000D03*
D27*
X112800000Y-68900000D03*
D26*
X150200000Y-66950000D03*
X148502944Y-66247056D03*
X146805888Y-66950000D03*
X146102944Y-68647056D03*
X146805888Y-70344112D03*
X148502944Y-71047056D03*
X150200000Y-70344112D03*
X150902944Y-68647056D03*
D27*
X148502944Y-68647056D03*
G04 #@! TA.AperFunction,SMDPad,CuDef*
D15*
G36*
X149574505Y-94301204D02*
G01*
X149598773Y-94304804D01*
X149622572Y-94310765D01*
X149645671Y-94319030D01*
X149667850Y-94329520D01*
X149688893Y-94342132D01*
X149708599Y-94356747D01*
X149726777Y-94373223D01*
X149743253Y-94391401D01*
X149757868Y-94411107D01*
X149770480Y-94432150D01*
X149780970Y-94454329D01*
X149789235Y-94477428D01*
X149795196Y-94501227D01*
X149798796Y-94525495D01*
X149800000Y-94549999D01*
X149800000Y-95200001D01*
X149798796Y-95224505D01*
X149795196Y-95248773D01*
X149789235Y-95272572D01*
X149780970Y-95295671D01*
X149770480Y-95317850D01*
X149757868Y-95338893D01*
X149743253Y-95358599D01*
X149726777Y-95376777D01*
X149708599Y-95393253D01*
X149688893Y-95407868D01*
X149667850Y-95420480D01*
X149645671Y-95430970D01*
X149622572Y-95439235D01*
X149598773Y-95445196D01*
X149574505Y-95448796D01*
X149550001Y-95450000D01*
X148649999Y-95450000D01*
X148625495Y-95448796D01*
X148601227Y-95445196D01*
X148577428Y-95439235D01*
X148554329Y-95430970D01*
X148532150Y-95420480D01*
X148511107Y-95407868D01*
X148491401Y-95393253D01*
X148473223Y-95376777D01*
X148456747Y-95358599D01*
X148442132Y-95338893D01*
X148429520Y-95317850D01*
X148419030Y-95295671D01*
X148410765Y-95272572D01*
X148404804Y-95248773D01*
X148401204Y-95224505D01*
X148400000Y-95200001D01*
X148400000Y-94549999D01*
X148401204Y-94525495D01*
X148404804Y-94501227D01*
X148410765Y-94477428D01*
X148419030Y-94454329D01*
X148429520Y-94432150D01*
X148442132Y-94411107D01*
X148456747Y-94391401D01*
X148473223Y-94373223D01*
X148491401Y-94356747D01*
X148511107Y-94342132D01*
X148532150Y-94329520D01*
X148554329Y-94319030D01*
X148577428Y-94310765D01*
X148601227Y-94304804D01*
X148625495Y-94301204D01*
X148649999Y-94300000D01*
X149550001Y-94300000D01*
X149574505Y-94301204D01*
G37*
G04 #@! TD.AperFunction*
G04 #@! TA.AperFunction,SMDPad,CuDef*
G36*
X149574505Y-96351204D02*
G01*
X149598773Y-96354804D01*
X149622572Y-96360765D01*
X149645671Y-96369030D01*
X149667850Y-96379520D01*
X149688893Y-96392132D01*
X149708599Y-96406747D01*
X149726777Y-96423223D01*
X149743253Y-96441401D01*
X149757868Y-96461107D01*
X149770480Y-96482150D01*
X149780970Y-96504329D01*
X149789235Y-96527428D01*
X149795196Y-96551227D01*
X149798796Y-96575495D01*
X149800000Y-96599999D01*
X149800000Y-97250001D01*
X149798796Y-97274505D01*
X149795196Y-97298773D01*
X149789235Y-97322572D01*
X149780970Y-97345671D01*
X149770480Y-97367850D01*
X149757868Y-97388893D01*
X149743253Y-97408599D01*
X149726777Y-97426777D01*
X149708599Y-97443253D01*
X149688893Y-97457868D01*
X149667850Y-97470480D01*
X149645671Y-97480970D01*
X149622572Y-97489235D01*
X149598773Y-97495196D01*
X149574505Y-97498796D01*
X149550001Y-97500000D01*
X148649999Y-97500000D01*
X148625495Y-97498796D01*
X148601227Y-97495196D01*
X148577428Y-97489235D01*
X148554329Y-97480970D01*
X148532150Y-97470480D01*
X148511107Y-97457868D01*
X148491401Y-97443253D01*
X148473223Y-97426777D01*
X148456747Y-97408599D01*
X148442132Y-97388893D01*
X148429520Y-97367850D01*
X148419030Y-97345671D01*
X148410765Y-97322572D01*
X148404804Y-97298773D01*
X148401204Y-97274505D01*
X148400000Y-97250001D01*
X148400000Y-96599999D01*
X148401204Y-96575495D01*
X148404804Y-96551227D01*
X148410765Y-96527428D01*
X148419030Y-96504329D01*
X148429520Y-96482150D01*
X148442132Y-96461107D01*
X148456747Y-96441401D01*
X148473223Y-96423223D01*
X148491401Y-96406747D01*
X148511107Y-96392132D01*
X148532150Y-96379520D01*
X148554329Y-96369030D01*
X148577428Y-96360765D01*
X148601227Y-96354804D01*
X148625495Y-96351204D01*
X148649999Y-96350000D01*
X149550001Y-96350000D01*
X149574505Y-96351204D01*
G37*
G04 #@! TD.AperFunction*
G04 #@! TA.AperFunction,SMDPad,CuDef*
G36*
X146849705Y-94276205D02*
G01*
X146873973Y-94279805D01*
X146897772Y-94285766D01*
X146920871Y-94294031D01*
X146943050Y-94304521D01*
X146964093Y-94317133D01*
X146983799Y-94331748D01*
X147001977Y-94348224D01*
X147018453Y-94366402D01*
X147033068Y-94386108D01*
X147045680Y-94407151D01*
X147056170Y-94429330D01*
X147064435Y-94452429D01*
X147070396Y-94476228D01*
X147073996Y-94500496D01*
X147075200Y-94525000D01*
X147075200Y-95175002D01*
X147073996Y-95199506D01*
X147070396Y-95223774D01*
X147064435Y-95247573D01*
X147056170Y-95270672D01*
X147045680Y-95292851D01*
X147033068Y-95313894D01*
X147018453Y-95333600D01*
X147001977Y-95351778D01*
X146983799Y-95368254D01*
X146964093Y-95382869D01*
X146943050Y-95395481D01*
X146920871Y-95405971D01*
X146897772Y-95414236D01*
X146873973Y-95420197D01*
X146849705Y-95423797D01*
X146825201Y-95425001D01*
X145925199Y-95425001D01*
X145900695Y-95423797D01*
X145876427Y-95420197D01*
X145852628Y-95414236D01*
X145829529Y-95405971D01*
X145807350Y-95395481D01*
X145786307Y-95382869D01*
X145766601Y-95368254D01*
X145748423Y-95351778D01*
X145731947Y-95333600D01*
X145717332Y-95313894D01*
X145704720Y-95292851D01*
X145694230Y-95270672D01*
X145685965Y-95247573D01*
X145680004Y-95223774D01*
X145676404Y-95199506D01*
X145675200Y-95175002D01*
X145675200Y-94525000D01*
X145676404Y-94500496D01*
X145680004Y-94476228D01*
X145685965Y-94452429D01*
X145694230Y-94429330D01*
X145704720Y-94407151D01*
X145717332Y-94386108D01*
X145731947Y-94366402D01*
X145748423Y-94348224D01*
X145766601Y-94331748D01*
X145786307Y-94317133D01*
X145807350Y-94304521D01*
X145829529Y-94294031D01*
X145852628Y-94285766D01*
X145876427Y-94279805D01*
X145900695Y-94276205D01*
X145925199Y-94275001D01*
X146825201Y-94275001D01*
X146849705Y-94276205D01*
G37*
G04 #@! TD.AperFunction*
G04 #@! TA.AperFunction,SMDPad,CuDef*
G36*
X146849705Y-96326205D02*
G01*
X146873973Y-96329805D01*
X146897772Y-96335766D01*
X146920871Y-96344031D01*
X146943050Y-96354521D01*
X146964093Y-96367133D01*
X146983799Y-96381748D01*
X147001977Y-96398224D01*
X147018453Y-96416402D01*
X147033068Y-96436108D01*
X147045680Y-96457151D01*
X147056170Y-96479330D01*
X147064435Y-96502429D01*
X147070396Y-96526228D01*
X147073996Y-96550496D01*
X147075200Y-96575000D01*
X147075200Y-97225002D01*
X147073996Y-97249506D01*
X147070396Y-97273774D01*
X147064435Y-97297573D01*
X147056170Y-97320672D01*
X147045680Y-97342851D01*
X147033068Y-97363894D01*
X147018453Y-97383600D01*
X147001977Y-97401778D01*
X146983799Y-97418254D01*
X146964093Y-97432869D01*
X146943050Y-97445481D01*
X146920871Y-97455971D01*
X146897772Y-97464236D01*
X146873973Y-97470197D01*
X146849705Y-97473797D01*
X146825201Y-97475001D01*
X145925199Y-97475001D01*
X145900695Y-97473797D01*
X145876427Y-97470197D01*
X145852628Y-97464236D01*
X145829529Y-97455971D01*
X145807350Y-97445481D01*
X145786307Y-97432869D01*
X145766601Y-97418254D01*
X145748423Y-97401778D01*
X145731947Y-97383600D01*
X145717332Y-97363894D01*
X145704720Y-97342851D01*
X145694230Y-97320672D01*
X145685965Y-97297573D01*
X145680004Y-97273774D01*
X145676404Y-97249506D01*
X145675200Y-97225002D01*
X145675200Y-96575000D01*
X145676404Y-96550496D01*
X145680004Y-96526228D01*
X145685965Y-96502429D01*
X145694230Y-96479330D01*
X145704720Y-96457151D01*
X145717332Y-96436108D01*
X145731947Y-96416402D01*
X145748423Y-96398224D01*
X145766601Y-96381748D01*
X145786307Y-96367133D01*
X145807350Y-96354521D01*
X145829529Y-96344031D01*
X145852628Y-96335766D01*
X145876427Y-96329805D01*
X145900695Y-96326205D01*
X145925199Y-96325001D01*
X146825201Y-96325001D01*
X146849705Y-96326205D01*
G37*
G04 #@! TD.AperFunction*
G04 #@! TA.AperFunction,SMDPad,CuDef*
G36*
X150886958Y-99220710D02*
G01*
X150901276Y-99222834D01*
X150915317Y-99226351D01*
X150928946Y-99231228D01*
X150942031Y-99237417D01*
X150954447Y-99244858D01*
X150966073Y-99253481D01*
X150976798Y-99263202D01*
X150986519Y-99273927D01*
X150995142Y-99285553D01*
X151002583Y-99297969D01*
X151008772Y-99311054D01*
X151013649Y-99324683D01*
X151017166Y-99338724D01*
X151019290Y-99353042D01*
X151020000Y-99367500D01*
X151020000Y-99662500D01*
X151019290Y-99676958D01*
X151017166Y-99691276D01*
X151013649Y-99705317D01*
X151008772Y-99718946D01*
X151002583Y-99732031D01*
X150995142Y-99744447D01*
X150986519Y-99756073D01*
X150976798Y-99766798D01*
X150966073Y-99776519D01*
X150954447Y-99785142D01*
X150942031Y-99792583D01*
X150928946Y-99798772D01*
X150915317Y-99803649D01*
X150901276Y-99807166D01*
X150886958Y-99809290D01*
X150872500Y-99810000D01*
X150527500Y-99810000D01*
X150513042Y-99809290D01*
X150498724Y-99807166D01*
X150484683Y-99803649D01*
X150471054Y-99798772D01*
X150457969Y-99792583D01*
X150445553Y-99785142D01*
X150433927Y-99776519D01*
X150423202Y-99766798D01*
X150413481Y-99756073D01*
X150404858Y-99744447D01*
X150397417Y-99732031D01*
X150391228Y-99718946D01*
X150386351Y-99705317D01*
X150382834Y-99691276D01*
X150380710Y-99676958D01*
X150380000Y-99662500D01*
X150380000Y-99367500D01*
X150380710Y-99353042D01*
X150382834Y-99338724D01*
X150386351Y-99324683D01*
X150391228Y-99311054D01*
X150397417Y-99297969D01*
X150404858Y-99285553D01*
X150413481Y-99273927D01*
X150423202Y-99263202D01*
X150433927Y-99253481D01*
X150445553Y-99244858D01*
X150457969Y-99237417D01*
X150471054Y-99231228D01*
X150484683Y-99226351D01*
X150498724Y-99222834D01*
X150513042Y-99220710D01*
X150527500Y-99220000D01*
X150872500Y-99220000D01*
X150886958Y-99220710D01*
G37*
G04 #@! TD.AperFunction*
G04 #@! TA.AperFunction,SMDPad,CuDef*
G36*
X150886958Y-100190710D02*
G01*
X150901276Y-100192834D01*
X150915317Y-100196351D01*
X150928946Y-100201228D01*
X150942031Y-100207417D01*
X150954447Y-100214858D01*
X150966073Y-100223481D01*
X150976798Y-100233202D01*
X150986519Y-100243927D01*
X150995142Y-100255553D01*
X151002583Y-100267969D01*
X151008772Y-100281054D01*
X151013649Y-100294683D01*
X151017166Y-100308724D01*
X151019290Y-100323042D01*
X151020000Y-100337500D01*
X151020000Y-100632500D01*
X151019290Y-100646958D01*
X151017166Y-100661276D01*
X151013649Y-100675317D01*
X151008772Y-100688946D01*
X151002583Y-100702031D01*
X150995142Y-100714447D01*
X150986519Y-100726073D01*
X150976798Y-100736798D01*
X150966073Y-100746519D01*
X150954447Y-100755142D01*
X150942031Y-100762583D01*
X150928946Y-100768772D01*
X150915317Y-100773649D01*
X150901276Y-100777166D01*
X150886958Y-100779290D01*
X150872500Y-100780000D01*
X150527500Y-100780000D01*
X150513042Y-100779290D01*
X150498724Y-100777166D01*
X150484683Y-100773649D01*
X150471054Y-100768772D01*
X150457969Y-100762583D01*
X150445553Y-100755142D01*
X150433927Y-100746519D01*
X150423202Y-100736798D01*
X150413481Y-100726073D01*
X150404858Y-100714447D01*
X150397417Y-100702031D01*
X150391228Y-100688946D01*
X150386351Y-100675317D01*
X150382834Y-100661276D01*
X150380710Y-100646958D01*
X150380000Y-100632500D01*
X150380000Y-100337500D01*
X150380710Y-100323042D01*
X150382834Y-100308724D01*
X150386351Y-100294683D01*
X150391228Y-100281054D01*
X150397417Y-100267969D01*
X150404858Y-100255553D01*
X150413481Y-100243927D01*
X150423202Y-100233202D01*
X150433927Y-100223481D01*
X150445553Y-100214858D01*
X150457969Y-100207417D01*
X150471054Y-100201228D01*
X150484683Y-100196351D01*
X150498724Y-100192834D01*
X150513042Y-100190710D01*
X150527500Y-100190000D01*
X150872500Y-100190000D01*
X150886958Y-100190710D01*
G37*
G04 #@! TD.AperFunction*
G04 #@! TA.AperFunction,SMDPad,CuDef*
G36*
X149328205Y-103858704D02*
G01*
X149352473Y-103862304D01*
X149376272Y-103868265D01*
X149399371Y-103876530D01*
X149421550Y-103887020D01*
X149442593Y-103899632D01*
X149462299Y-103914247D01*
X149480477Y-103930723D01*
X149496953Y-103948901D01*
X149511568Y-103968607D01*
X149524180Y-103989650D01*
X149534670Y-104011829D01*
X149542935Y-104034928D01*
X149548896Y-104058727D01*
X149552496Y-104082995D01*
X149553700Y-104107499D01*
X149553700Y-105007501D01*
X149552496Y-105032005D01*
X149548896Y-105056273D01*
X149542935Y-105080072D01*
X149534670Y-105103171D01*
X149524180Y-105125350D01*
X149511568Y-105146393D01*
X149496953Y-105166099D01*
X149480477Y-105184277D01*
X149462299Y-105200753D01*
X149442593Y-105215368D01*
X149421550Y-105227980D01*
X149399371Y-105238470D01*
X149376272Y-105246735D01*
X149352473Y-105252696D01*
X149328205Y-105256296D01*
X149303701Y-105257500D01*
X148653699Y-105257500D01*
X148629195Y-105256296D01*
X148604927Y-105252696D01*
X148581128Y-105246735D01*
X148558029Y-105238470D01*
X148535850Y-105227980D01*
X148514807Y-105215368D01*
X148495101Y-105200753D01*
X148476923Y-105184277D01*
X148460447Y-105166099D01*
X148445832Y-105146393D01*
X148433220Y-105125350D01*
X148422730Y-105103171D01*
X148414465Y-105080072D01*
X148408504Y-105056273D01*
X148404904Y-105032005D01*
X148403700Y-105007501D01*
X148403700Y-104107499D01*
X148404904Y-104082995D01*
X148408504Y-104058727D01*
X148414465Y-104034928D01*
X148422730Y-104011829D01*
X148433220Y-103989650D01*
X148445832Y-103968607D01*
X148460447Y-103948901D01*
X148476923Y-103930723D01*
X148495101Y-103914247D01*
X148514807Y-103899632D01*
X148535850Y-103887020D01*
X148558029Y-103876530D01*
X148581128Y-103868265D01*
X148604927Y-103862304D01*
X148629195Y-103858704D01*
X148653699Y-103857500D01*
X149303701Y-103857500D01*
X149328205Y-103858704D01*
G37*
G04 #@! TD.AperFunction*
G04 #@! TA.AperFunction,SMDPad,CuDef*
G36*
X147278205Y-103858704D02*
G01*
X147302473Y-103862304D01*
X147326272Y-103868265D01*
X147349371Y-103876530D01*
X147371550Y-103887020D01*
X147392593Y-103899632D01*
X147412299Y-103914247D01*
X147430477Y-103930723D01*
X147446953Y-103948901D01*
X147461568Y-103968607D01*
X147474180Y-103989650D01*
X147484670Y-104011829D01*
X147492935Y-104034928D01*
X147498896Y-104058727D01*
X147502496Y-104082995D01*
X147503700Y-104107499D01*
X147503700Y-105007501D01*
X147502496Y-105032005D01*
X147498896Y-105056273D01*
X147492935Y-105080072D01*
X147484670Y-105103171D01*
X147474180Y-105125350D01*
X147461568Y-105146393D01*
X147446953Y-105166099D01*
X147430477Y-105184277D01*
X147412299Y-105200753D01*
X147392593Y-105215368D01*
X147371550Y-105227980D01*
X147349371Y-105238470D01*
X147326272Y-105246735D01*
X147302473Y-105252696D01*
X147278205Y-105256296D01*
X147253701Y-105257500D01*
X146603699Y-105257500D01*
X146579195Y-105256296D01*
X146554927Y-105252696D01*
X146531128Y-105246735D01*
X146508029Y-105238470D01*
X146485850Y-105227980D01*
X146464807Y-105215368D01*
X146445101Y-105200753D01*
X146426923Y-105184277D01*
X146410447Y-105166099D01*
X146395832Y-105146393D01*
X146383220Y-105125350D01*
X146372730Y-105103171D01*
X146364465Y-105080072D01*
X146358504Y-105056273D01*
X146354904Y-105032005D01*
X146353700Y-105007501D01*
X146353700Y-104107499D01*
X146354904Y-104082995D01*
X146358504Y-104058727D01*
X146364465Y-104034928D01*
X146372730Y-104011829D01*
X146383220Y-103989650D01*
X146395832Y-103968607D01*
X146410447Y-103948901D01*
X146426923Y-103930723D01*
X146445101Y-103914247D01*
X146464807Y-103899632D01*
X146485850Y-103887020D01*
X146508029Y-103876530D01*
X146531128Y-103868265D01*
X146554927Y-103862304D01*
X146579195Y-103858704D01*
X146603699Y-103857500D01*
X147253701Y-103857500D01*
X147278205Y-103858704D01*
G37*
G04 #@! TD.AperFunction*
G04 #@! TA.AperFunction,SMDPad,CuDef*
G36*
X119249458Y-72032210D02*
G01*
X119263776Y-72034334D01*
X119277817Y-72037851D01*
X119291446Y-72042728D01*
X119304531Y-72048917D01*
X119316947Y-72056358D01*
X119328573Y-72064981D01*
X119339298Y-72074702D01*
X119349019Y-72085427D01*
X119357642Y-72097053D01*
X119365083Y-72109469D01*
X119371272Y-72122554D01*
X119376149Y-72136183D01*
X119379666Y-72150224D01*
X119381790Y-72164542D01*
X119382500Y-72179000D01*
X119382500Y-72474000D01*
X119381790Y-72488458D01*
X119379666Y-72502776D01*
X119376149Y-72516817D01*
X119371272Y-72530446D01*
X119365083Y-72543531D01*
X119357642Y-72555947D01*
X119349019Y-72567573D01*
X119339298Y-72578298D01*
X119328573Y-72588019D01*
X119316947Y-72596642D01*
X119304531Y-72604083D01*
X119291446Y-72610272D01*
X119277817Y-72615149D01*
X119263776Y-72618666D01*
X119249458Y-72620790D01*
X119235000Y-72621500D01*
X118890000Y-72621500D01*
X118875542Y-72620790D01*
X118861224Y-72618666D01*
X118847183Y-72615149D01*
X118833554Y-72610272D01*
X118820469Y-72604083D01*
X118808053Y-72596642D01*
X118796427Y-72588019D01*
X118785702Y-72578298D01*
X118775981Y-72567573D01*
X118767358Y-72555947D01*
X118759917Y-72543531D01*
X118753728Y-72530446D01*
X118748851Y-72516817D01*
X118745334Y-72502776D01*
X118743210Y-72488458D01*
X118742500Y-72474000D01*
X118742500Y-72179000D01*
X118743210Y-72164542D01*
X118745334Y-72150224D01*
X118748851Y-72136183D01*
X118753728Y-72122554D01*
X118759917Y-72109469D01*
X118767358Y-72097053D01*
X118775981Y-72085427D01*
X118785702Y-72074702D01*
X118796427Y-72064981D01*
X118808053Y-72056358D01*
X118820469Y-72048917D01*
X118833554Y-72042728D01*
X118847183Y-72037851D01*
X118861224Y-72034334D01*
X118875542Y-72032210D01*
X118890000Y-72031500D01*
X119235000Y-72031500D01*
X119249458Y-72032210D01*
G37*
G04 #@! TD.AperFunction*
G04 #@! TA.AperFunction,SMDPad,CuDef*
G36*
X119249458Y-73002210D02*
G01*
X119263776Y-73004334D01*
X119277817Y-73007851D01*
X119291446Y-73012728D01*
X119304531Y-73018917D01*
X119316947Y-73026358D01*
X119328573Y-73034981D01*
X119339298Y-73044702D01*
X119349019Y-73055427D01*
X119357642Y-73067053D01*
X119365083Y-73079469D01*
X119371272Y-73092554D01*
X119376149Y-73106183D01*
X119379666Y-73120224D01*
X119381790Y-73134542D01*
X119382500Y-73149000D01*
X119382500Y-73444000D01*
X119381790Y-73458458D01*
X119379666Y-73472776D01*
X119376149Y-73486817D01*
X119371272Y-73500446D01*
X119365083Y-73513531D01*
X119357642Y-73525947D01*
X119349019Y-73537573D01*
X119339298Y-73548298D01*
X119328573Y-73558019D01*
X119316947Y-73566642D01*
X119304531Y-73574083D01*
X119291446Y-73580272D01*
X119277817Y-73585149D01*
X119263776Y-73588666D01*
X119249458Y-73590790D01*
X119235000Y-73591500D01*
X118890000Y-73591500D01*
X118875542Y-73590790D01*
X118861224Y-73588666D01*
X118847183Y-73585149D01*
X118833554Y-73580272D01*
X118820469Y-73574083D01*
X118808053Y-73566642D01*
X118796427Y-73558019D01*
X118785702Y-73548298D01*
X118775981Y-73537573D01*
X118767358Y-73525947D01*
X118759917Y-73513531D01*
X118753728Y-73500446D01*
X118748851Y-73486817D01*
X118745334Y-73472776D01*
X118743210Y-73458458D01*
X118742500Y-73444000D01*
X118742500Y-73149000D01*
X118743210Y-73134542D01*
X118745334Y-73120224D01*
X118748851Y-73106183D01*
X118753728Y-73092554D01*
X118759917Y-73079469D01*
X118767358Y-73067053D01*
X118775981Y-73055427D01*
X118785702Y-73044702D01*
X118796427Y-73034981D01*
X118808053Y-73026358D01*
X118820469Y-73018917D01*
X118833554Y-73012728D01*
X118847183Y-73007851D01*
X118861224Y-73004334D01*
X118875542Y-73002210D01*
X118890000Y-73001500D01*
X119235000Y-73001500D01*
X119249458Y-73002210D01*
G37*
G04 #@! TD.AperFunction*
G04 #@! TA.AperFunction,SMDPad,CuDef*
G36*
X120519458Y-72032211D02*
G01*
X120533776Y-72034335D01*
X120547817Y-72037852D01*
X120561446Y-72042729D01*
X120574531Y-72048918D01*
X120586947Y-72056359D01*
X120598573Y-72064982D01*
X120609298Y-72074703D01*
X120619019Y-72085428D01*
X120627642Y-72097054D01*
X120635083Y-72109470D01*
X120641272Y-72122555D01*
X120646149Y-72136184D01*
X120649666Y-72150225D01*
X120651790Y-72164543D01*
X120652500Y-72179001D01*
X120652500Y-72474001D01*
X120651790Y-72488459D01*
X120649666Y-72502777D01*
X120646149Y-72516818D01*
X120641272Y-72530447D01*
X120635083Y-72543532D01*
X120627642Y-72555948D01*
X120619019Y-72567574D01*
X120609298Y-72578299D01*
X120598573Y-72588020D01*
X120586947Y-72596643D01*
X120574531Y-72604084D01*
X120561446Y-72610273D01*
X120547817Y-72615150D01*
X120533776Y-72618667D01*
X120519458Y-72620791D01*
X120505000Y-72621501D01*
X120160000Y-72621501D01*
X120145542Y-72620791D01*
X120131224Y-72618667D01*
X120117183Y-72615150D01*
X120103554Y-72610273D01*
X120090469Y-72604084D01*
X120078053Y-72596643D01*
X120066427Y-72588020D01*
X120055702Y-72578299D01*
X120045981Y-72567574D01*
X120037358Y-72555948D01*
X120029917Y-72543532D01*
X120023728Y-72530447D01*
X120018851Y-72516818D01*
X120015334Y-72502777D01*
X120013210Y-72488459D01*
X120012500Y-72474001D01*
X120012500Y-72179001D01*
X120013210Y-72164543D01*
X120015334Y-72150225D01*
X120018851Y-72136184D01*
X120023728Y-72122555D01*
X120029917Y-72109470D01*
X120037358Y-72097054D01*
X120045981Y-72085428D01*
X120055702Y-72074703D01*
X120066427Y-72064982D01*
X120078053Y-72056359D01*
X120090469Y-72048918D01*
X120103554Y-72042729D01*
X120117183Y-72037852D01*
X120131224Y-72034335D01*
X120145542Y-72032211D01*
X120160000Y-72031501D01*
X120505000Y-72031501D01*
X120519458Y-72032211D01*
G37*
G04 #@! TD.AperFunction*
G04 #@! TA.AperFunction,SMDPad,CuDef*
G36*
X120519458Y-73002211D02*
G01*
X120533776Y-73004335D01*
X120547817Y-73007852D01*
X120561446Y-73012729D01*
X120574531Y-73018918D01*
X120586947Y-73026359D01*
X120598573Y-73034982D01*
X120609298Y-73044703D01*
X120619019Y-73055428D01*
X120627642Y-73067054D01*
X120635083Y-73079470D01*
X120641272Y-73092555D01*
X120646149Y-73106184D01*
X120649666Y-73120225D01*
X120651790Y-73134543D01*
X120652500Y-73149001D01*
X120652500Y-73444001D01*
X120651790Y-73458459D01*
X120649666Y-73472777D01*
X120646149Y-73486818D01*
X120641272Y-73500447D01*
X120635083Y-73513532D01*
X120627642Y-73525948D01*
X120619019Y-73537574D01*
X120609298Y-73548299D01*
X120598573Y-73558020D01*
X120586947Y-73566643D01*
X120574531Y-73574084D01*
X120561446Y-73580273D01*
X120547817Y-73585150D01*
X120533776Y-73588667D01*
X120519458Y-73590791D01*
X120505000Y-73591501D01*
X120160000Y-73591501D01*
X120145542Y-73590791D01*
X120131224Y-73588667D01*
X120117183Y-73585150D01*
X120103554Y-73580273D01*
X120090469Y-73574084D01*
X120078053Y-73566643D01*
X120066427Y-73558020D01*
X120055702Y-73548299D01*
X120045981Y-73537574D01*
X120037358Y-73525948D01*
X120029917Y-73513532D01*
X120023728Y-73500447D01*
X120018851Y-73486818D01*
X120015334Y-73472777D01*
X120013210Y-73458459D01*
X120012500Y-73444001D01*
X120012500Y-73149001D01*
X120013210Y-73134543D01*
X120015334Y-73120225D01*
X120018851Y-73106184D01*
X120023728Y-73092555D01*
X120029917Y-73079470D01*
X120037358Y-73067054D01*
X120045981Y-73055428D01*
X120055702Y-73044703D01*
X120066427Y-73034982D01*
X120078053Y-73026359D01*
X120090469Y-73018918D01*
X120103554Y-73012729D01*
X120117183Y-73007852D01*
X120131224Y-73004335D01*
X120145542Y-73002211D01*
X120160000Y-73001501D01*
X120505000Y-73001501D01*
X120519458Y-73002211D01*
G37*
G04 #@! TD.AperFunction*
G04 #@! TA.AperFunction,SMDPad,CuDef*
G36*
X118677958Y-74046710D02*
G01*
X118692276Y-74048834D01*
X118706317Y-74052351D01*
X118719946Y-74057228D01*
X118733031Y-74063417D01*
X118745447Y-74070858D01*
X118757073Y-74079481D01*
X118767798Y-74089202D01*
X118777519Y-74099927D01*
X118786142Y-74111553D01*
X118793583Y-74123969D01*
X118799772Y-74137054D01*
X118804649Y-74150683D01*
X118808166Y-74164724D01*
X118810290Y-74179042D01*
X118811000Y-74193500D01*
X118811000Y-74488500D01*
X118810290Y-74502958D01*
X118808166Y-74517276D01*
X118804649Y-74531317D01*
X118799772Y-74544946D01*
X118793583Y-74558031D01*
X118786142Y-74570447D01*
X118777519Y-74582073D01*
X118767798Y-74592798D01*
X118757073Y-74602519D01*
X118745447Y-74611142D01*
X118733031Y-74618583D01*
X118719946Y-74624772D01*
X118706317Y-74629649D01*
X118692276Y-74633166D01*
X118677958Y-74635290D01*
X118663500Y-74636000D01*
X118318500Y-74636000D01*
X118304042Y-74635290D01*
X118289724Y-74633166D01*
X118275683Y-74629649D01*
X118262054Y-74624772D01*
X118248969Y-74618583D01*
X118236553Y-74611142D01*
X118224927Y-74602519D01*
X118214202Y-74592798D01*
X118204481Y-74582073D01*
X118195858Y-74570447D01*
X118188417Y-74558031D01*
X118182228Y-74544946D01*
X118177351Y-74531317D01*
X118173834Y-74517276D01*
X118171710Y-74502958D01*
X118171000Y-74488500D01*
X118171000Y-74193500D01*
X118171710Y-74179042D01*
X118173834Y-74164724D01*
X118177351Y-74150683D01*
X118182228Y-74137054D01*
X118188417Y-74123969D01*
X118195858Y-74111553D01*
X118204481Y-74099927D01*
X118214202Y-74089202D01*
X118224927Y-74079481D01*
X118236553Y-74070858D01*
X118248969Y-74063417D01*
X118262054Y-74057228D01*
X118275683Y-74052351D01*
X118289724Y-74048834D01*
X118304042Y-74046710D01*
X118318500Y-74046000D01*
X118663500Y-74046000D01*
X118677958Y-74046710D01*
G37*
G04 #@! TD.AperFunction*
G04 #@! TA.AperFunction,SMDPad,CuDef*
G36*
X118677958Y-75016710D02*
G01*
X118692276Y-75018834D01*
X118706317Y-75022351D01*
X118719946Y-75027228D01*
X118733031Y-75033417D01*
X118745447Y-75040858D01*
X118757073Y-75049481D01*
X118767798Y-75059202D01*
X118777519Y-75069927D01*
X118786142Y-75081553D01*
X118793583Y-75093969D01*
X118799772Y-75107054D01*
X118804649Y-75120683D01*
X118808166Y-75134724D01*
X118810290Y-75149042D01*
X118811000Y-75163500D01*
X118811000Y-75458500D01*
X118810290Y-75472958D01*
X118808166Y-75487276D01*
X118804649Y-75501317D01*
X118799772Y-75514946D01*
X118793583Y-75528031D01*
X118786142Y-75540447D01*
X118777519Y-75552073D01*
X118767798Y-75562798D01*
X118757073Y-75572519D01*
X118745447Y-75581142D01*
X118733031Y-75588583D01*
X118719946Y-75594772D01*
X118706317Y-75599649D01*
X118692276Y-75603166D01*
X118677958Y-75605290D01*
X118663500Y-75606000D01*
X118318500Y-75606000D01*
X118304042Y-75605290D01*
X118289724Y-75603166D01*
X118275683Y-75599649D01*
X118262054Y-75594772D01*
X118248969Y-75588583D01*
X118236553Y-75581142D01*
X118224927Y-75572519D01*
X118214202Y-75562798D01*
X118204481Y-75552073D01*
X118195858Y-75540447D01*
X118188417Y-75528031D01*
X118182228Y-75514946D01*
X118177351Y-75501317D01*
X118173834Y-75487276D01*
X118171710Y-75472958D01*
X118171000Y-75458500D01*
X118171000Y-75163500D01*
X118171710Y-75149042D01*
X118173834Y-75134724D01*
X118177351Y-75120683D01*
X118182228Y-75107054D01*
X118188417Y-75093969D01*
X118195858Y-75081553D01*
X118204481Y-75069927D01*
X118214202Y-75059202D01*
X118224927Y-75049481D01*
X118236553Y-75040858D01*
X118248969Y-75033417D01*
X118262054Y-75027228D01*
X118275683Y-75022351D01*
X118289724Y-75018834D01*
X118304042Y-75016710D01*
X118318500Y-75016000D01*
X118663500Y-75016000D01*
X118677958Y-75016710D01*
G37*
G04 #@! TD.AperFunction*
G04 #@! TA.AperFunction,SMDPad,CuDef*
G36*
X125641958Y-110330710D02*
G01*
X125656276Y-110332834D01*
X125670317Y-110336351D01*
X125683946Y-110341228D01*
X125697031Y-110347417D01*
X125709447Y-110354858D01*
X125721073Y-110363481D01*
X125731798Y-110373202D01*
X125741519Y-110383927D01*
X125750142Y-110395553D01*
X125757583Y-110407969D01*
X125763772Y-110421054D01*
X125768649Y-110434683D01*
X125772166Y-110448724D01*
X125774290Y-110463042D01*
X125775000Y-110477500D01*
X125775000Y-110822500D01*
X125774290Y-110836958D01*
X125772166Y-110851276D01*
X125768649Y-110865317D01*
X125763772Y-110878946D01*
X125757583Y-110892031D01*
X125750142Y-110904447D01*
X125741519Y-110916073D01*
X125731798Y-110926798D01*
X125721073Y-110936519D01*
X125709447Y-110945142D01*
X125697031Y-110952583D01*
X125683946Y-110958772D01*
X125670317Y-110963649D01*
X125656276Y-110967166D01*
X125641958Y-110969290D01*
X125627500Y-110970000D01*
X125332500Y-110970000D01*
X125318042Y-110969290D01*
X125303724Y-110967166D01*
X125289683Y-110963649D01*
X125276054Y-110958772D01*
X125262969Y-110952583D01*
X125250553Y-110945142D01*
X125238927Y-110936519D01*
X125228202Y-110926798D01*
X125218481Y-110916073D01*
X125209858Y-110904447D01*
X125202417Y-110892031D01*
X125196228Y-110878946D01*
X125191351Y-110865317D01*
X125187834Y-110851276D01*
X125185710Y-110836958D01*
X125185000Y-110822500D01*
X125185000Y-110477500D01*
X125185710Y-110463042D01*
X125187834Y-110448724D01*
X125191351Y-110434683D01*
X125196228Y-110421054D01*
X125202417Y-110407969D01*
X125209858Y-110395553D01*
X125218481Y-110383927D01*
X125228202Y-110373202D01*
X125238927Y-110363481D01*
X125250553Y-110354858D01*
X125262969Y-110347417D01*
X125276054Y-110341228D01*
X125289683Y-110336351D01*
X125303724Y-110332834D01*
X125318042Y-110330710D01*
X125332500Y-110330000D01*
X125627500Y-110330000D01*
X125641958Y-110330710D01*
G37*
G04 #@! TD.AperFunction*
G04 #@! TA.AperFunction,SMDPad,CuDef*
G36*
X126611958Y-110330710D02*
G01*
X126626276Y-110332834D01*
X126640317Y-110336351D01*
X126653946Y-110341228D01*
X126667031Y-110347417D01*
X126679447Y-110354858D01*
X126691073Y-110363481D01*
X126701798Y-110373202D01*
X126711519Y-110383927D01*
X126720142Y-110395553D01*
X126727583Y-110407969D01*
X126733772Y-110421054D01*
X126738649Y-110434683D01*
X126742166Y-110448724D01*
X126744290Y-110463042D01*
X126745000Y-110477500D01*
X126745000Y-110822500D01*
X126744290Y-110836958D01*
X126742166Y-110851276D01*
X126738649Y-110865317D01*
X126733772Y-110878946D01*
X126727583Y-110892031D01*
X126720142Y-110904447D01*
X126711519Y-110916073D01*
X126701798Y-110926798D01*
X126691073Y-110936519D01*
X126679447Y-110945142D01*
X126667031Y-110952583D01*
X126653946Y-110958772D01*
X126640317Y-110963649D01*
X126626276Y-110967166D01*
X126611958Y-110969290D01*
X126597500Y-110970000D01*
X126302500Y-110970000D01*
X126288042Y-110969290D01*
X126273724Y-110967166D01*
X126259683Y-110963649D01*
X126246054Y-110958772D01*
X126232969Y-110952583D01*
X126220553Y-110945142D01*
X126208927Y-110936519D01*
X126198202Y-110926798D01*
X126188481Y-110916073D01*
X126179858Y-110904447D01*
X126172417Y-110892031D01*
X126166228Y-110878946D01*
X126161351Y-110865317D01*
X126157834Y-110851276D01*
X126155710Y-110836958D01*
X126155000Y-110822500D01*
X126155000Y-110477500D01*
X126155710Y-110463042D01*
X126157834Y-110448724D01*
X126161351Y-110434683D01*
X126166228Y-110421054D01*
X126172417Y-110407969D01*
X126179858Y-110395553D01*
X126188481Y-110383927D01*
X126198202Y-110373202D01*
X126208927Y-110363481D01*
X126220553Y-110354858D01*
X126232969Y-110347417D01*
X126246054Y-110341228D01*
X126259683Y-110336351D01*
X126273724Y-110332834D01*
X126288042Y-110330710D01*
X126302500Y-110330000D01*
X126597500Y-110330000D01*
X126611958Y-110330710D01*
G37*
G04 #@! TD.AperFunction*
G04 #@! TA.AperFunction,SMDPad,CuDef*
G36*
X130010780Y-106526144D02*
G01*
X130033835Y-106529563D01*
X130056444Y-106535227D01*
X130078388Y-106543079D01*
X130099458Y-106553044D01*
X130119449Y-106565026D01*
X130138169Y-106578910D01*
X130155439Y-106594562D01*
X130171091Y-106611832D01*
X130184975Y-106630552D01*
X130196957Y-106650543D01*
X130206922Y-106671613D01*
X130214774Y-106693557D01*
X130220438Y-106716166D01*
X130223857Y-106739221D01*
X130225001Y-106762500D01*
X130225001Y-107237500D01*
X130223857Y-107260779D01*
X130220438Y-107283834D01*
X130214774Y-107306443D01*
X130206922Y-107328387D01*
X130196957Y-107349457D01*
X130184975Y-107369448D01*
X130171091Y-107388168D01*
X130155439Y-107405438D01*
X130138169Y-107421090D01*
X130119449Y-107434974D01*
X130099458Y-107446956D01*
X130078388Y-107456921D01*
X130056444Y-107464773D01*
X130033835Y-107470437D01*
X130010780Y-107473856D01*
X129987501Y-107475000D01*
X129412501Y-107475000D01*
X129389222Y-107473856D01*
X129366167Y-107470437D01*
X129343558Y-107464773D01*
X129321614Y-107456921D01*
X129300544Y-107446956D01*
X129280553Y-107434974D01*
X129261833Y-107421090D01*
X129244563Y-107405438D01*
X129228911Y-107388168D01*
X129215027Y-107369448D01*
X129203045Y-107349457D01*
X129193080Y-107328387D01*
X129185228Y-107306443D01*
X129179564Y-107283834D01*
X129176145Y-107260779D01*
X129175001Y-107237500D01*
X129175001Y-106762500D01*
X129176145Y-106739221D01*
X129179564Y-106716166D01*
X129185228Y-106693557D01*
X129193080Y-106671613D01*
X129203045Y-106650543D01*
X129215027Y-106630552D01*
X129228911Y-106611832D01*
X129244563Y-106594562D01*
X129261833Y-106578910D01*
X129280553Y-106565026D01*
X129300544Y-106553044D01*
X129321614Y-106543079D01*
X129343558Y-106535227D01*
X129366167Y-106529563D01*
X129389222Y-106526144D01*
X129412501Y-106525000D01*
X129987501Y-106525000D01*
X130010780Y-106526144D01*
G37*
G04 #@! TD.AperFunction*
G04 #@! TA.AperFunction,SMDPad,CuDef*
G36*
X131760780Y-106526144D02*
G01*
X131783835Y-106529563D01*
X131806444Y-106535227D01*
X131828388Y-106543079D01*
X131849458Y-106553044D01*
X131869449Y-106565026D01*
X131888169Y-106578910D01*
X131905439Y-106594562D01*
X131921091Y-106611832D01*
X131934975Y-106630552D01*
X131946957Y-106650543D01*
X131956922Y-106671613D01*
X131964774Y-106693557D01*
X131970438Y-106716166D01*
X131973857Y-106739221D01*
X131975001Y-106762500D01*
X131975001Y-107237500D01*
X131973857Y-107260779D01*
X131970438Y-107283834D01*
X131964774Y-107306443D01*
X131956922Y-107328387D01*
X131946957Y-107349457D01*
X131934975Y-107369448D01*
X131921091Y-107388168D01*
X131905439Y-107405438D01*
X131888169Y-107421090D01*
X131869449Y-107434974D01*
X131849458Y-107446956D01*
X131828388Y-107456921D01*
X131806444Y-107464773D01*
X131783835Y-107470437D01*
X131760780Y-107473856D01*
X131737501Y-107475000D01*
X131162501Y-107475000D01*
X131139222Y-107473856D01*
X131116167Y-107470437D01*
X131093558Y-107464773D01*
X131071614Y-107456921D01*
X131050544Y-107446956D01*
X131030553Y-107434974D01*
X131011833Y-107421090D01*
X130994563Y-107405438D01*
X130978911Y-107388168D01*
X130965027Y-107369448D01*
X130953045Y-107349457D01*
X130943080Y-107328387D01*
X130935228Y-107306443D01*
X130929564Y-107283834D01*
X130926145Y-107260779D01*
X130925001Y-107237500D01*
X130925001Y-106762500D01*
X130926145Y-106739221D01*
X130929564Y-106716166D01*
X130935228Y-106693557D01*
X130943080Y-106671613D01*
X130953045Y-106650543D01*
X130965027Y-106630552D01*
X130978911Y-106611832D01*
X130994563Y-106594562D01*
X131011833Y-106578910D01*
X131030553Y-106565026D01*
X131050544Y-106553044D01*
X131071614Y-106543079D01*
X131093558Y-106535227D01*
X131116167Y-106529563D01*
X131139222Y-106526144D01*
X131162501Y-106525000D01*
X131737501Y-106525000D01*
X131760780Y-106526144D01*
G37*
G04 #@! TD.AperFunction*
G04 #@! TA.AperFunction,SMDPad,CuDef*
G36*
X130549506Y-103501204D02*
G01*
X130573774Y-103504804D01*
X130597573Y-103510765D01*
X130620672Y-103519030D01*
X130642851Y-103529520D01*
X130663894Y-103542132D01*
X130683600Y-103556747D01*
X130701778Y-103573223D01*
X130718254Y-103591401D01*
X130732869Y-103611107D01*
X130745481Y-103632150D01*
X130755971Y-103654329D01*
X130764236Y-103677428D01*
X130770197Y-103701227D01*
X130773797Y-103725495D01*
X130775001Y-103749999D01*
X130775001Y-104650001D01*
X130773797Y-104674505D01*
X130770197Y-104698773D01*
X130764236Y-104722572D01*
X130755971Y-104745671D01*
X130745481Y-104767850D01*
X130732869Y-104788893D01*
X130718254Y-104808599D01*
X130701778Y-104826777D01*
X130683600Y-104843253D01*
X130663894Y-104857868D01*
X130642851Y-104870480D01*
X130620672Y-104880970D01*
X130597573Y-104889235D01*
X130573774Y-104895196D01*
X130549506Y-104898796D01*
X130525002Y-104900000D01*
X129875000Y-104900000D01*
X129850496Y-104898796D01*
X129826228Y-104895196D01*
X129802429Y-104889235D01*
X129779330Y-104880970D01*
X129757151Y-104870480D01*
X129736108Y-104857868D01*
X129716402Y-104843253D01*
X129698224Y-104826777D01*
X129681748Y-104808599D01*
X129667133Y-104788893D01*
X129654521Y-104767850D01*
X129644031Y-104745671D01*
X129635766Y-104722572D01*
X129629805Y-104698773D01*
X129626205Y-104674505D01*
X129625001Y-104650001D01*
X129625001Y-103749999D01*
X129626205Y-103725495D01*
X129629805Y-103701227D01*
X129635766Y-103677428D01*
X129644031Y-103654329D01*
X129654521Y-103632150D01*
X129667133Y-103611107D01*
X129681748Y-103591401D01*
X129698224Y-103573223D01*
X129716402Y-103556747D01*
X129736108Y-103542132D01*
X129757151Y-103529520D01*
X129779330Y-103519030D01*
X129802429Y-103510765D01*
X129826228Y-103504804D01*
X129850496Y-103501204D01*
X129875000Y-103500000D01*
X130525002Y-103500000D01*
X130549506Y-103501204D01*
G37*
G04 #@! TD.AperFunction*
G04 #@! TA.AperFunction,SMDPad,CuDef*
G36*
X132599506Y-103501204D02*
G01*
X132623774Y-103504804D01*
X132647573Y-103510765D01*
X132670672Y-103519030D01*
X132692851Y-103529520D01*
X132713894Y-103542132D01*
X132733600Y-103556747D01*
X132751778Y-103573223D01*
X132768254Y-103591401D01*
X132782869Y-103611107D01*
X132795481Y-103632150D01*
X132805971Y-103654329D01*
X132814236Y-103677428D01*
X132820197Y-103701227D01*
X132823797Y-103725495D01*
X132825001Y-103749999D01*
X132825001Y-104650001D01*
X132823797Y-104674505D01*
X132820197Y-104698773D01*
X132814236Y-104722572D01*
X132805971Y-104745671D01*
X132795481Y-104767850D01*
X132782869Y-104788893D01*
X132768254Y-104808599D01*
X132751778Y-104826777D01*
X132733600Y-104843253D01*
X132713894Y-104857868D01*
X132692851Y-104870480D01*
X132670672Y-104880970D01*
X132647573Y-104889235D01*
X132623774Y-104895196D01*
X132599506Y-104898796D01*
X132575002Y-104900000D01*
X131925000Y-104900000D01*
X131900496Y-104898796D01*
X131876228Y-104895196D01*
X131852429Y-104889235D01*
X131829330Y-104880970D01*
X131807151Y-104870480D01*
X131786108Y-104857868D01*
X131766402Y-104843253D01*
X131748224Y-104826777D01*
X131731748Y-104808599D01*
X131717133Y-104788893D01*
X131704521Y-104767850D01*
X131694031Y-104745671D01*
X131685766Y-104722572D01*
X131679805Y-104698773D01*
X131676205Y-104674505D01*
X131675001Y-104650001D01*
X131675001Y-103749999D01*
X131676205Y-103725495D01*
X131679805Y-103701227D01*
X131685766Y-103677428D01*
X131694031Y-103654329D01*
X131704521Y-103632150D01*
X131717133Y-103611107D01*
X131731748Y-103591401D01*
X131748224Y-103573223D01*
X131766402Y-103556747D01*
X131786108Y-103542132D01*
X131807151Y-103529520D01*
X131829330Y-103519030D01*
X131852429Y-103510765D01*
X131876228Y-103504804D01*
X131900496Y-103501204D01*
X131925000Y-103500000D01*
X132575002Y-103500000D01*
X132599506Y-103501204D01*
G37*
G04 #@! TD.AperFunction*
G04 #@! TA.AperFunction,SMDPad,CuDef*
G36*
X151874505Y-96551204D02*
G01*
X151898773Y-96554804D01*
X151922572Y-96560765D01*
X151945671Y-96569030D01*
X151967850Y-96579520D01*
X151988893Y-96592132D01*
X152008599Y-96606747D01*
X152026777Y-96623223D01*
X152043253Y-96641401D01*
X152057868Y-96661107D01*
X152070480Y-96682150D01*
X152080970Y-96704329D01*
X152089235Y-96727428D01*
X152095196Y-96751227D01*
X152098796Y-96775495D01*
X152100000Y-96799999D01*
X152100000Y-97450001D01*
X152098796Y-97474505D01*
X152095196Y-97498773D01*
X152089235Y-97522572D01*
X152080970Y-97545671D01*
X152070480Y-97567850D01*
X152057868Y-97588893D01*
X152043253Y-97608599D01*
X152026777Y-97626777D01*
X152008599Y-97643253D01*
X151988893Y-97657868D01*
X151967850Y-97670480D01*
X151945671Y-97680970D01*
X151922572Y-97689235D01*
X151898773Y-97695196D01*
X151874505Y-97698796D01*
X151850001Y-97700000D01*
X150949999Y-97700000D01*
X150925495Y-97698796D01*
X150901227Y-97695196D01*
X150877428Y-97689235D01*
X150854329Y-97680970D01*
X150832150Y-97670480D01*
X150811107Y-97657868D01*
X150791401Y-97643253D01*
X150773223Y-97626777D01*
X150756747Y-97608599D01*
X150742132Y-97588893D01*
X150729520Y-97567850D01*
X150719030Y-97545671D01*
X150710765Y-97522572D01*
X150704804Y-97498773D01*
X150701204Y-97474505D01*
X150700000Y-97450001D01*
X150700000Y-96799999D01*
X150701204Y-96775495D01*
X150704804Y-96751227D01*
X150710765Y-96727428D01*
X150719030Y-96704329D01*
X150729520Y-96682150D01*
X150742132Y-96661107D01*
X150756747Y-96641401D01*
X150773223Y-96623223D01*
X150791401Y-96606747D01*
X150811107Y-96592132D01*
X150832150Y-96579520D01*
X150854329Y-96569030D01*
X150877428Y-96560765D01*
X150901227Y-96554804D01*
X150925495Y-96551204D01*
X150949999Y-96550000D01*
X151850001Y-96550000D01*
X151874505Y-96551204D01*
G37*
G04 #@! TD.AperFunction*
G04 #@! TA.AperFunction,SMDPad,CuDef*
G36*
X151874505Y-94501204D02*
G01*
X151898773Y-94504804D01*
X151922572Y-94510765D01*
X151945671Y-94519030D01*
X151967850Y-94529520D01*
X151988893Y-94542132D01*
X152008599Y-94556747D01*
X152026777Y-94573223D01*
X152043253Y-94591401D01*
X152057868Y-94611107D01*
X152070480Y-94632150D01*
X152080970Y-94654329D01*
X152089235Y-94677428D01*
X152095196Y-94701227D01*
X152098796Y-94725495D01*
X152100000Y-94749999D01*
X152100000Y-95400001D01*
X152098796Y-95424505D01*
X152095196Y-95448773D01*
X152089235Y-95472572D01*
X152080970Y-95495671D01*
X152070480Y-95517850D01*
X152057868Y-95538893D01*
X152043253Y-95558599D01*
X152026777Y-95576777D01*
X152008599Y-95593253D01*
X151988893Y-95607868D01*
X151967850Y-95620480D01*
X151945671Y-95630970D01*
X151922572Y-95639235D01*
X151898773Y-95645196D01*
X151874505Y-95648796D01*
X151850001Y-95650000D01*
X150949999Y-95650000D01*
X150925495Y-95648796D01*
X150901227Y-95645196D01*
X150877428Y-95639235D01*
X150854329Y-95630970D01*
X150832150Y-95620480D01*
X150811107Y-95607868D01*
X150791401Y-95593253D01*
X150773223Y-95576777D01*
X150756747Y-95558599D01*
X150742132Y-95538893D01*
X150729520Y-95517850D01*
X150719030Y-95495671D01*
X150710765Y-95472572D01*
X150704804Y-95448773D01*
X150701204Y-95424505D01*
X150700000Y-95400001D01*
X150700000Y-94749999D01*
X150701204Y-94725495D01*
X150704804Y-94701227D01*
X150710765Y-94677428D01*
X150719030Y-94654329D01*
X150729520Y-94632150D01*
X150742132Y-94611107D01*
X150756747Y-94591401D01*
X150773223Y-94573223D01*
X150791401Y-94556747D01*
X150811107Y-94542132D01*
X150832150Y-94529520D01*
X150854329Y-94519030D01*
X150877428Y-94510765D01*
X150901227Y-94504804D01*
X150925495Y-94501204D01*
X150949999Y-94500000D01*
X151850001Y-94500000D01*
X151874505Y-94501204D01*
G37*
G04 #@! TD.AperFunction*
G04 #@! TA.AperFunction,SMDPad,CuDef*
G36*
X151574505Y-101501204D02*
G01*
X151598773Y-101504804D01*
X151622572Y-101510765D01*
X151645671Y-101519030D01*
X151667850Y-101529520D01*
X151688893Y-101542132D01*
X151708599Y-101556747D01*
X151726777Y-101573223D01*
X151743253Y-101591401D01*
X151757868Y-101611107D01*
X151770480Y-101632150D01*
X151780970Y-101654329D01*
X151789235Y-101677428D01*
X151795196Y-101701227D01*
X151798796Y-101725495D01*
X151800000Y-101749999D01*
X151800000Y-102400001D01*
X151798796Y-102424505D01*
X151795196Y-102448773D01*
X151789235Y-102472572D01*
X151780970Y-102495671D01*
X151770480Y-102517850D01*
X151757868Y-102538893D01*
X151743253Y-102558599D01*
X151726777Y-102576777D01*
X151708599Y-102593253D01*
X151688893Y-102607868D01*
X151667850Y-102620480D01*
X151645671Y-102630970D01*
X151622572Y-102639235D01*
X151598773Y-102645196D01*
X151574505Y-102648796D01*
X151550001Y-102650000D01*
X150649999Y-102650000D01*
X150625495Y-102648796D01*
X150601227Y-102645196D01*
X150577428Y-102639235D01*
X150554329Y-102630970D01*
X150532150Y-102620480D01*
X150511107Y-102607868D01*
X150491401Y-102593253D01*
X150473223Y-102576777D01*
X150456747Y-102558599D01*
X150442132Y-102538893D01*
X150429520Y-102517850D01*
X150419030Y-102495671D01*
X150410765Y-102472572D01*
X150404804Y-102448773D01*
X150401204Y-102424505D01*
X150400000Y-102400001D01*
X150400000Y-101749999D01*
X150401204Y-101725495D01*
X150404804Y-101701227D01*
X150410765Y-101677428D01*
X150419030Y-101654329D01*
X150429520Y-101632150D01*
X150442132Y-101611107D01*
X150456747Y-101591401D01*
X150473223Y-101573223D01*
X150491401Y-101556747D01*
X150511107Y-101542132D01*
X150532150Y-101529520D01*
X150554329Y-101519030D01*
X150577428Y-101510765D01*
X150601227Y-101504804D01*
X150625495Y-101501204D01*
X150649999Y-101500000D01*
X151550001Y-101500000D01*
X151574505Y-101501204D01*
G37*
G04 #@! TD.AperFunction*
G04 #@! TA.AperFunction,SMDPad,CuDef*
G36*
X151574505Y-103551204D02*
G01*
X151598773Y-103554804D01*
X151622572Y-103560765D01*
X151645671Y-103569030D01*
X151667850Y-103579520D01*
X151688893Y-103592132D01*
X151708599Y-103606747D01*
X151726777Y-103623223D01*
X151743253Y-103641401D01*
X151757868Y-103661107D01*
X151770480Y-103682150D01*
X151780970Y-103704329D01*
X151789235Y-103727428D01*
X151795196Y-103751227D01*
X151798796Y-103775495D01*
X151800000Y-103799999D01*
X151800000Y-104450001D01*
X151798796Y-104474505D01*
X151795196Y-104498773D01*
X151789235Y-104522572D01*
X151780970Y-104545671D01*
X151770480Y-104567850D01*
X151757868Y-104588893D01*
X151743253Y-104608599D01*
X151726777Y-104626777D01*
X151708599Y-104643253D01*
X151688893Y-104657868D01*
X151667850Y-104670480D01*
X151645671Y-104680970D01*
X151622572Y-104689235D01*
X151598773Y-104695196D01*
X151574505Y-104698796D01*
X151550001Y-104700000D01*
X150649999Y-104700000D01*
X150625495Y-104698796D01*
X150601227Y-104695196D01*
X150577428Y-104689235D01*
X150554329Y-104680970D01*
X150532150Y-104670480D01*
X150511107Y-104657868D01*
X150491401Y-104643253D01*
X150473223Y-104626777D01*
X150456747Y-104608599D01*
X150442132Y-104588893D01*
X150429520Y-104567850D01*
X150419030Y-104545671D01*
X150410765Y-104522572D01*
X150404804Y-104498773D01*
X150401204Y-104474505D01*
X150400000Y-104450001D01*
X150400000Y-103799999D01*
X150401204Y-103775495D01*
X150404804Y-103751227D01*
X150410765Y-103727428D01*
X150419030Y-103704329D01*
X150429520Y-103682150D01*
X150442132Y-103661107D01*
X150456747Y-103641401D01*
X150473223Y-103623223D01*
X150491401Y-103606747D01*
X150511107Y-103592132D01*
X150532150Y-103579520D01*
X150554329Y-103569030D01*
X150577428Y-103560765D01*
X150601227Y-103554804D01*
X150625495Y-103551204D01*
X150649999Y-103550000D01*
X151550001Y-103550000D01*
X151574505Y-103551204D01*
G37*
G04 #@! TD.AperFunction*
D28*
X146300000Y-99050000D03*
X146300000Y-99550000D03*
X146300000Y-100050000D03*
X146300000Y-100550000D03*
X146300000Y-101050000D03*
X149100000Y-101050000D03*
X149100000Y-100550000D03*
X149100000Y-100050000D03*
X149100000Y-99550000D03*
X149100000Y-99050000D03*
G04 #@! TA.AperFunction,SMDPad,CuDef*
D15*
G36*
X147575000Y-98850000D02*
G01*
X147825000Y-98850000D01*
X147825000Y-98350000D01*
X148075000Y-98350000D01*
X148075000Y-98850000D01*
X148525000Y-98850000D01*
X148525000Y-101250000D01*
X148075000Y-101250000D01*
X148075000Y-101750000D01*
X147825000Y-101750000D01*
X147825000Y-101250000D01*
X147575000Y-101250000D01*
X147575000Y-101750000D01*
X147325000Y-101750000D01*
X147325000Y-101250000D01*
X146875000Y-101250000D01*
X146875000Y-98850000D01*
X147325000Y-98850000D01*
X147325000Y-98350000D01*
X147575000Y-98350000D01*
X147575000Y-98850000D01*
G37*
G04 #@! TD.AperFunction*
D29*
X147700000Y-101000000D03*
X147125000Y-100050000D03*
X148275000Y-100050000D03*
X147700000Y-99100000D03*
D26*
X131350000Y-108600000D03*
X124350000Y-104100000D03*
X126500000Y-111700000D03*
X115150000Y-89700000D03*
X118350000Y-88950000D03*
X124950000Y-91550000D03*
X150700000Y-98650000D03*
X147800000Y-94800000D03*
X141650000Y-104300000D03*
X129700000Y-79750000D03*
X117400000Y-74350000D03*
X119750000Y-72350000D03*
X139200000Y-71200000D03*
X145750000Y-78400000D03*
X133200000Y-103400000D03*
X113150000Y-75250000D03*
X119700000Y-74050000D03*
X142200000Y-79300000D03*
X145750000Y-73850000D03*
X142200000Y-71800000D03*
X147800000Y-96950000D03*
X135950000Y-104250000D03*
X136000000Y-75800000D03*
X133750000Y-86950000D03*
X133600000Y-79200000D03*
X133600000Y-77950000D03*
X128300000Y-105450000D03*
X135050000Y-76300000D03*
D30*
X124300000Y-105355000D02*
X124495000Y-105550000D01*
X126441200Y-110641200D02*
X126450000Y-110650000D01*
X126441200Y-109177600D02*
X126441200Y-110641200D01*
X131368800Y-107081201D02*
X131450001Y-107000000D01*
X131368800Y-108618800D02*
X131350000Y-108600000D01*
X131368800Y-110137600D02*
X131368800Y-108618800D01*
X131368800Y-108618800D02*
X131368800Y-107081201D01*
X124300000Y-104050000D02*
X124350000Y-104100000D01*
X124300000Y-102400000D02*
X124300000Y-104050000D01*
X124300000Y-104050000D02*
X124300000Y-105355000D01*
X126450000Y-111650000D02*
X126500000Y-111700000D01*
X126450000Y-110650000D02*
X126450000Y-111650000D01*
X115125000Y-89725000D02*
X115150000Y-89700000D01*
X115125000Y-90025000D02*
X115125000Y-89725000D01*
X115125000Y-92850000D02*
X115125000Y-90025000D01*
X115125000Y-90025000D02*
X115125000Y-86850000D01*
X118318599Y-88918599D02*
X118350000Y-88950000D01*
X118318599Y-87817999D02*
X118318599Y-88918599D01*
X124968000Y-91532000D02*
X124950000Y-91550000D01*
X124968000Y-89773000D02*
X124968000Y-91532000D01*
D31*
X148978700Y-107115500D02*
X148502944Y-107591256D01*
X148978700Y-104557500D02*
X148978700Y-107115500D01*
X150666000Y-99549000D02*
X150700000Y-99515000D01*
X149172200Y-99549000D02*
X150666000Y-99549000D01*
X150700000Y-99515000D02*
X150700000Y-98650000D01*
X149075001Y-94850001D02*
X149100000Y-94875000D01*
X147799999Y-94800001D02*
X147800000Y-94800000D01*
X147799999Y-94850001D02*
X147799999Y-94800001D01*
X146375200Y-94850001D02*
X147799999Y-94850001D01*
X147799999Y-94850001D02*
X149075001Y-94850001D01*
X140100000Y-104300000D02*
X141650000Y-104300000D01*
X146372200Y-100049000D02*
X147772200Y-100049000D01*
X122119500Y-72326500D02*
X122183000Y-72263000D01*
X129687000Y-79763000D02*
X129700000Y-79750000D01*
X129683000Y-79763000D02*
X129687000Y-79763000D01*
X117409000Y-74341000D02*
X117400000Y-74350000D01*
X118491000Y-74341000D02*
X117409000Y-74341000D01*
X119726500Y-72326500D02*
X119750000Y-72350000D01*
X119062500Y-72326500D02*
X119726500Y-72326500D01*
X119750000Y-72350000D02*
X122119500Y-72326500D01*
X139183000Y-71217000D02*
X139200000Y-71200000D01*
X139183000Y-72263000D02*
X139183000Y-71217000D01*
X145750000Y-77596000D02*
X145750000Y-78400000D01*
D32*
X132400000Y-104200000D02*
X133200000Y-103400000D01*
X132100001Y-104200000D02*
X132400000Y-104200000D01*
X149411200Y-104125000D02*
X148978700Y-104557500D01*
X151100000Y-104125000D02*
X149411200Y-104125000D01*
D31*
X118171000Y-75311000D02*
X118491000Y-75311000D01*
X115432000Y-74168000D02*
X116575000Y-75311000D01*
X116575000Y-75311000D02*
X118171000Y-75311000D01*
X114907000Y-74168000D02*
X115432000Y-74168000D01*
X120883000Y-74803000D02*
X122183000Y-74803000D01*
X119319000Y-74803000D02*
X120883000Y-74803000D01*
X118811000Y-75311000D02*
X119319000Y-74803000D01*
X118491000Y-75311000D02*
X118811000Y-75311000D01*
X116575000Y-76225000D02*
X116575000Y-75311000D01*
X116000000Y-76800000D02*
X116575000Y-76225000D01*
X116000000Y-77950000D02*
X116000000Y-76800000D01*
X120646501Y-73296501D02*
X120883000Y-73533000D01*
X120883000Y-73533000D02*
X122183000Y-73533000D01*
X113553499Y-73296501D02*
X120646501Y-73296501D01*
X113157000Y-73693000D02*
X113553499Y-73296501D01*
X113157000Y-74168000D02*
X113157000Y-73693000D01*
X113157000Y-75243000D02*
X113150000Y-75250000D01*
X113157000Y-74168000D02*
X113157000Y-75243000D01*
X120332500Y-73417500D02*
X119700000Y-74050000D01*
X120332500Y-73296501D02*
X120332500Y-73417500D01*
X142200000Y-78200000D02*
X142200000Y-79300000D01*
X145750000Y-74796000D02*
X145750000Y-73850000D01*
X142206000Y-71806000D02*
X142200000Y-71800000D01*
X142206000Y-73020999D02*
X142206000Y-71806000D01*
X146372200Y-96903001D02*
X146375200Y-96900001D01*
X146372200Y-99049000D02*
X146372200Y-96903001D01*
D33*
X149075001Y-96900001D02*
X149100000Y-96925000D01*
D31*
X149172200Y-96997200D02*
X149100000Y-96925000D01*
D32*
X151400000Y-95325000D02*
X151400000Y-95075000D01*
X149800000Y-96925000D02*
X151400000Y-95325000D01*
X149100000Y-96925000D02*
X149800000Y-96925000D01*
X147750001Y-96900001D02*
X147800000Y-96950000D01*
D33*
X146375200Y-96900001D02*
X147750001Y-96900001D01*
X147750001Y-96900001D02*
X149075001Y-96900001D01*
X133400000Y-101050000D02*
X144121200Y-101050000D01*
X146883200Y-104512000D02*
X146928700Y-104557500D01*
X146883200Y-102843000D02*
X146883200Y-104512000D01*
X144565200Y-101050000D02*
X144121200Y-101050000D01*
X146883200Y-102843000D02*
X146358200Y-102843000D01*
D31*
X146372200Y-102332000D02*
X146883200Y-102843000D01*
X146372200Y-101049000D02*
X146372200Y-102332000D01*
X144551000Y-101049000D02*
X144550000Y-101050000D01*
X146372200Y-101049000D02*
X144551000Y-101049000D01*
D33*
X144550000Y-101050000D02*
X144565200Y-101050000D01*
X146358200Y-102843000D02*
X144550000Y-101050000D01*
X122182200Y-99017800D02*
X122550000Y-98650000D01*
X118604000Y-99017800D02*
X122182200Y-99017800D01*
X115653999Y-104931399D02*
X117273400Y-106550800D01*
X115653999Y-100417801D02*
X115653999Y-104931399D01*
X117054000Y-99017800D02*
X115653999Y-100417801D01*
X117273400Y-106550800D02*
X118673400Y-106550800D01*
X118604000Y-99017800D02*
X117054000Y-99017800D01*
X118673400Y-112550800D02*
X118673400Y-106550800D01*
D30*
X125480000Y-109188800D02*
X125491200Y-109177600D01*
X125480000Y-110650000D02*
X125480000Y-109188800D01*
X125491200Y-109177600D02*
X125491200Y-106977600D01*
X125465000Y-106951400D02*
X125491200Y-106977600D01*
X125465000Y-105550000D02*
X125465000Y-106951400D01*
D34*
X130200000Y-102000000D02*
X131400000Y-102000000D01*
X128695000Y-102000000D02*
X130200000Y-102000000D01*
X125465000Y-105230000D02*
X128695000Y-102000000D01*
X125465000Y-105550000D02*
X125465000Y-105230000D01*
X124416200Y-106977600D02*
X125491200Y-106977600D01*
X123474990Y-105450799D02*
X123474990Y-106036390D01*
X120923401Y-105450799D02*
X123474990Y-105450799D01*
X119823400Y-106550800D02*
X120923401Y-105450799D01*
X123474990Y-106036390D02*
X124416200Y-106977600D01*
X118673400Y-106550800D02*
X119823400Y-106550800D01*
D33*
X118604000Y-97317800D02*
X118604000Y-99017800D01*
X117093589Y-95807389D02*
X118604000Y-97317800D01*
X117093589Y-87192169D02*
X117093589Y-95807389D01*
X118027358Y-86258400D02*
X117093589Y-87192169D01*
X118313199Y-86258400D02*
X118027358Y-86258400D01*
D30*
X126232200Y-101517800D02*
X126300000Y-101450000D01*
X118604000Y-101517800D02*
X126232200Y-101517800D01*
D31*
X136000000Y-104300000D02*
X135950000Y-104250000D01*
X137600000Y-104300000D02*
X136000000Y-104300000D01*
X123483000Y-78613000D02*
X122183000Y-78613000D01*
X126695999Y-75400001D02*
X123483000Y-78613000D01*
X135600001Y-75400001D02*
X126695999Y-75400001D01*
X136000000Y-75800000D02*
X135600001Y-75400001D01*
D30*
X111375000Y-92850000D02*
X111375000Y-86850000D01*
X117690001Y-83879999D02*
X118540000Y-83030000D01*
X117239999Y-84330001D02*
X117690001Y-83879999D01*
X114794999Y-84330001D02*
X117239999Y-84330001D01*
X112275000Y-86850000D02*
X114794999Y-84330001D01*
X111375000Y-86850000D02*
X112275000Y-86850000D01*
D31*
X138173000Y-88773000D02*
X139183000Y-88773000D01*
X136350000Y-86950000D02*
X133750000Y-86950000D01*
X138173000Y-88773000D02*
X136350000Y-86950000D01*
X134417122Y-79200000D02*
X133600000Y-79200000D01*
X136274122Y-77343000D02*
X134417122Y-79200000D01*
X139183000Y-77343000D02*
X136274122Y-77343000D01*
X134960002Y-77950000D02*
X133600000Y-77950000D01*
X136837002Y-76073000D02*
X134960002Y-77950000D01*
X139183000Y-76073000D02*
X136837002Y-76073000D01*
X145772200Y-100549000D02*
X146372200Y-100549000D01*
X145266295Y-100549000D02*
X145772200Y-100549000D01*
X144067295Y-99350000D02*
X145266295Y-100549000D01*
X142450000Y-99350000D02*
X144067295Y-99350000D01*
X142450000Y-96700000D02*
X142450000Y-95650000D01*
X145299000Y-99549000D02*
X142450000Y-96700000D01*
X146372200Y-99549000D02*
X145299000Y-99549000D01*
D33*
X124300000Y-98650000D02*
X124300000Y-100500000D01*
D30*
X132350000Y-101000000D02*
X131450000Y-100100000D01*
X131450000Y-100100000D02*
X131400000Y-100100000D01*
X132350000Y-102710002D02*
X132350000Y-101000000D01*
X132210001Y-102850001D02*
X132350000Y-102710002D01*
X129538799Y-102850001D02*
X132210001Y-102850001D01*
X126441200Y-105947600D02*
X129538799Y-102850001D01*
X126441200Y-106977600D02*
X126441200Y-105947600D01*
X120068599Y-86263800D02*
X120063199Y-86258400D01*
X120068599Y-87817999D02*
X120068599Y-86263800D01*
D31*
X120832999Y-82473001D02*
X120883000Y-82423000D01*
X120832999Y-86013600D02*
X120832999Y-82473001D01*
X120883000Y-82423000D02*
X122183000Y-82423000D01*
X120588199Y-86258400D02*
X120832999Y-86013600D01*
X120063199Y-86258400D02*
X120588199Y-86258400D01*
X144774999Y-74770999D02*
X144800000Y-74796000D01*
X142206000Y-74770999D02*
X144774999Y-74770999D01*
X139215001Y-74770999D02*
X139183000Y-74803000D01*
X142206000Y-74770999D02*
X139215001Y-74770999D01*
X141725000Y-76450000D02*
X142200000Y-76450000D01*
X141374990Y-76800010D02*
X141725000Y-76450000D01*
X141374990Y-77721010D02*
X141374990Y-76800010D01*
X140483000Y-78613000D02*
X141374990Y-77721010D01*
X139183000Y-78613000D02*
X140483000Y-78613000D01*
X144300000Y-77596000D02*
X144800000Y-77596000D01*
X143821000Y-77596000D02*
X144300000Y-77596000D01*
X142675000Y-76450000D02*
X143821000Y-77596000D01*
X142200000Y-76450000D02*
X142675000Y-76450000D01*
D30*
X127413600Y-107000000D02*
X127391200Y-106977600D01*
X129700001Y-107000000D02*
X127413600Y-107000000D01*
D31*
X127391200Y-106358800D02*
X128300000Y-105450000D01*
X127391200Y-106977600D02*
X127391200Y-106358800D01*
X123483000Y-79883000D02*
X122183000Y-79883000D01*
X127465999Y-75900001D02*
X123483000Y-79883000D01*
X134650001Y-75900001D02*
X127465999Y-75900001D01*
X135050000Y-76300000D02*
X134650001Y-75900001D01*
D32*
X129550000Y-104200000D02*
X128300000Y-105450000D01*
X130350001Y-104200000D02*
X129550000Y-104200000D01*
D31*
X148068000Y-81153000D02*
X150158000Y-79063000D01*
X139183000Y-81153000D02*
X148068000Y-81153000D01*
X149338000Y-82423000D02*
X150158000Y-81603000D01*
X139183000Y-82423000D02*
X149338000Y-82423000D01*
X148438000Y-84963000D02*
X150158000Y-86683000D01*
X139183000Y-84963000D02*
X148438000Y-84963000D01*
X147168000Y-86233000D02*
X150158000Y-89223000D01*
X139183000Y-86233000D02*
X147168000Y-86233000D01*
X149708000Y-83693000D02*
X150158000Y-84143000D01*
X139183000Y-83693000D02*
X149708000Y-83693000D01*
X145898000Y-87503000D02*
X150158000Y-91763000D01*
X139183000Y-87503000D02*
X145898000Y-87503000D01*
X149172200Y-102304000D02*
X149172200Y-101049000D01*
X148633200Y-102843000D02*
X149172200Y-102304000D01*
X150636000Y-100549000D02*
X150700000Y-100485000D01*
X149172200Y-100549000D02*
X150636000Y-100549000D01*
X149172200Y-100049000D02*
X149172200Y-101049000D01*
X126639999Y-95150001D02*
X125790000Y-96000000D01*
X126990001Y-94799999D02*
X126639999Y-95150001D01*
X126990001Y-93059999D02*
X126990001Y-94799999D01*
X129281002Y-91350000D02*
X128700000Y-91350000D01*
X128700000Y-91350000D02*
X126990001Y-93059999D01*
X130048000Y-90583002D02*
X129281002Y-91350000D01*
X130048000Y-89773000D02*
X130048000Y-90583002D01*
X128250000Y-93380000D02*
X128330000Y-93460000D01*
X128250000Y-92507120D02*
X128250000Y-93380000D01*
X128907112Y-91850008D02*
X128250000Y-92507120D01*
X130050994Y-91850008D02*
X128907112Y-91850008D01*
X131318000Y-90583002D02*
X130050994Y-91850008D01*
X131318000Y-89773000D02*
X131318000Y-90583002D01*
X124099999Y-92610001D02*
X123250000Y-93460000D01*
X124099999Y-88560999D02*
X124099999Y-92610001D01*
X124237999Y-88422999D02*
X124099999Y-88560999D01*
X126238000Y-88962998D02*
X125698001Y-88422999D01*
X125698001Y-88422999D02*
X124237999Y-88422999D01*
X126238000Y-89773000D02*
X126238000Y-88962998D01*
X135128000Y-91742000D02*
X130870000Y-96000000D01*
X135128000Y-89773000D02*
X135128000Y-91742000D01*
X125828120Y-93460000D02*
X125790000Y-93460000D01*
X128778000Y-90510120D02*
X125828120Y-93460000D01*
X128778000Y-89773000D02*
X128778000Y-90510120D01*
X124400000Y-96000000D02*
X123250000Y-96000000D01*
X124450001Y-95949999D02*
X124400000Y-96000000D01*
X124450001Y-93023997D02*
X124450001Y-95949999D01*
X125213999Y-92259999D02*
X124450001Y-93023997D01*
X126321001Y-92259999D02*
X125213999Y-92259999D01*
X127508000Y-91073000D02*
X126321001Y-92259999D01*
X127508000Y-89773000D02*
X127508000Y-91073000D01*
X132072081Y-93460000D02*
X130870000Y-93460000D01*
X133858000Y-91674081D02*
X132072081Y-93460000D01*
X133858000Y-89773000D02*
X133858000Y-91674081D01*
X129179999Y-95150001D02*
X128330000Y-96000000D01*
X129530001Y-93078121D02*
X129530001Y-94799999D01*
X129530001Y-94799999D02*
X129179999Y-95150001D01*
X131458122Y-91150000D02*
X129530001Y-93078121D01*
X132511000Y-91150000D02*
X131458122Y-91150000D01*
X132588000Y-91073000D02*
X132511000Y-91150000D01*
X132588000Y-89773000D02*
X132588000Y-91073000D01*
D30*
X122423400Y-107575800D02*
X122423400Y-112550800D01*
X122423400Y-106550800D02*
X122423400Y-107575800D01*
X127917199Y-112550800D02*
X128066799Y-112700400D01*
X122423400Y-112550800D02*
X127917199Y-112550800D01*
X128066799Y-112700400D02*
X128066799Y-111125600D01*
X128066799Y-109853199D02*
X127391200Y-109177600D01*
X128066799Y-111125600D02*
X128066799Y-109853199D01*
D31*
X129816799Y-112700400D02*
X129816799Y-111125600D01*
X130629599Y-111887600D02*
X129816799Y-112700400D01*
X131368800Y-111887600D02*
X130629599Y-111887600D01*
X129816799Y-111600600D02*
X129816799Y-111125600D01*
X130103799Y-111887600D02*
X129816799Y-111600600D01*
X130629599Y-111887600D02*
X130103799Y-111887600D01*
D32*
X150700000Y-97125000D02*
X151400000Y-97125000D01*
X150655000Y-97125000D02*
X150700000Y-97125000D01*
X149100000Y-98680000D02*
X150655000Y-97125000D01*
X149100000Y-99050000D02*
X149100000Y-98680000D01*
X151400000Y-97700000D02*
X151400000Y-97125000D01*
X151425001Y-97725001D02*
X151400000Y-97700000D01*
X151425001Y-101174999D02*
X151425001Y-97725001D01*
X151100000Y-101500000D02*
X151425001Y-101174999D01*
X151100000Y-102075000D02*
X151100000Y-101500000D01*
M02*
