M48
; DRILL file {KiCad 8.0.9-8.0.9-0~ubuntu24.04.1} date 2025-04-11T12:42:34+0200
; FORMAT={-:-/ absolute / inch / decimal}
; #@! TF.CreationDate,2025-04-11T12:42:34+02:00
; #@! TF.GenerationSoftware,Kicad,Pcbnew,8.0.9-8.0.9-0~ubuntu24.04.1
; #@! TF.FileFunction,Plated,1,4,PTH
FMAT,2
INCH
; #@! TA.AperFunction,Plated,PTH,ViaDrill
T1C0.0039
; #@! TA.AperFunction,Plated,PTH,ComponentDrill
T2C0.0079
; #@! TA.AperFunction,Plated,PTH,ViaDrill
T3C0.0118
; #@! TA.AperFunction,Plated,PTH,ComponentDrill
T4C0.0118
; #@! TA.AperFunction,Plated,PTH,ViaDrill
T5C0.0157
; #@! TA.AperFunction,Plated,PTH,ComponentDrill
T6C0.0197
; #@! TA.AperFunction,Plated,PTH,ComponentDrill
T7C0.0236
; #@! TA.AperFunction,Plated,PTH,ComponentDrill
T8C0.0315
; #@! TA.AperFunction,Plated,PTH,ComponentDrill
T9C0.0394
; #@! TA.AperFunction,Plated,PTH,ComponentDrill
T10C0.0984
%
G90
G05
T1
X4.063Y-3.5886
X4.122Y-3.5886
X4.2083Y-3.3729
X4.2106Y-3.5
X4.2106Y-3.5197
X4.2106Y-3.5469
X4.211Y-3.4806
T2
X3.4378Y-3.2011
X3.4614Y-3.2011
X4.151Y-4.1327
X4.151Y-4.1721
X4.151Y-4.2115
X4.1904Y-4.1327
X4.1904Y-4.1721
X4.1904Y-4.2115
X4.2297Y-4.1327
X4.2297Y-4.1721
X4.2297Y-4.2115
T3
X3.3783Y-3.4418
X3.4028Y-3.0615
X3.4327Y-3.5611
X3.4626Y-4.3945
X3.4965Y-3.0615
X3.5073Y-3.4402
X3.522Y-4.2544
X3.5307Y-3.7634
X3.6311Y-4.0973
X3.6311Y-4.2863
X3.6563Y-4.1918
X3.6709Y-3.5465
X3.6752Y-3.5107
X3.7079Y-5.0674
X3.7272Y-3.5579
X3.7465Y-4.1922
X3.7642Y-3.4311
X3.7669Y-3.7646
X3.811Y-4.3343
X3.8122Y-4.5181
X3.826Y-3.7016
X3.8291Y-3.4607
X3.8295Y-3.5
X3.8311Y-3.2465
X3.8821Y-4.154
X3.8862Y-3.2713
X3.9093Y-4.2426
X3.9262Y-3.3987
X3.9264Y-4.9079
X3.9264Y-4.993
X3.9354Y-3.2071
X3.9449Y-3.5918
X3.9449Y-3.7544
X3.9543Y-4.0646
X3.9629Y-4.276
X3.9748Y-3.2067
X3.9748Y-4.9079
X3.9748Y-4.9496
X3.9748Y-4.993
X3.9846Y-3.6489
X3.9846Y-3.754
X3.9858Y-3.0772
X3.9858Y-3.1162
X3.9858Y-3.1556
X4.0004Y-4.3339
X4.011Y-4.1622
X4.0145Y-3.3127
X4.0146Y-3.2437
X4.0154Y-4.2032
X4.0177Y-4.2737
X4.024Y-3.4804
X4.0252Y-3.754
X4.0398Y-3.9512
X4.0634Y-3.4804
X4.0736Y-3.9583
X4.0925Y-3.878
X4.098Y-3.6433
X4.1028Y-3.4016
X4.1028Y-3.441
X4.1028Y-3.4804
X4.1028Y-3.5197
X4.1028Y-3.5591
X4.1126Y-3.2075
X4.122Y-3.7378
X4.1421Y-3.4804
X4.1465Y-3.6823
X4.1476Y-3.6508
X4.1665Y-4.3351
X4.1713Y-3.7493
X4.1815Y-3.4804
X4.2307Y-3.6402
X4.2417Y-3.9867
X4.2512Y-3.7469
X4.2575Y-3.9575
X4.2713Y-3.4705
X4.2732Y-4.3012
X4.2791Y-3.5469
X4.2854Y-4.0079
X4.313Y-3.2843
X4.3248Y-4.1469
X4.3335Y-3.7563
X4.3346Y-3.6221
X4.3665Y-4.315
X4.3799Y-3.3721
X4.3815Y-3.5969
X4.4094Y-3.3185
X4.4406Y-3.552
X4.4621Y-3.985
X4.4677Y-4.1229
X4.4685Y-4.28
X4.472Y-3.8095
X4.4728Y-3.9107
X4.4815Y-4.663
X4.5043Y-3.4961
X4.5555Y-3.7689
X4.5872Y-3.1367
X4.5872Y-3.1878
X4.5949Y-3.7681
X4.6433Y-3.3989
X4.6433Y-3.4489
X4.6555Y-3.478
X4.6642Y-3.6433
X4.7012Y-3.3241
X4.7012Y-3.4221
X4.7228Y-4.0768
X4.7244Y-3.8402
X4.7264Y-3.3489
X4.7472Y-3.478
X4.7594Y-3.4489
T4
X3.9697Y-3.0372
T5
X3.7024Y-3.7902
X4.1138Y-3.1642
X4.1315Y-3.1248
X4.5409Y-4.9292
T6
X3.3904Y-2.9282
X3.3909Y-5.0692
X3.412Y-2.876
X3.412Y-2.9804
X3.4125Y-5.017
X3.4125Y-5.1214
X3.4642Y-2.8544
X3.4642Y-3.002
X3.4647Y-4.9953
X3.4647Y-5.143
X3.5164Y-2.876
X3.5164Y-2.9804
X3.5169Y-5.017
X3.5169Y-5.1214
X3.538Y-2.9282
X3.5386Y-5.0692
X4.7441Y-5.0689
X4.7445Y-2.9286
X4.7657Y-5.0167
X4.7657Y-5.1211
X4.7661Y-2.8764
X4.7661Y-2.9808
X4.8179Y-4.9951
X4.8179Y-5.1428
X4.8183Y-2.8548
X4.8183Y-3.0024
X4.8701Y-5.0167
X4.8701Y-5.1211
X4.8705Y-2.8764
X4.8705Y-2.9808
X4.8917Y-5.0689
X4.8921Y-2.9286
T8
X4.1508Y-4.8115
X4.2199Y-4.4083
X4.4929Y-4.202
T9
X3.7323Y-2.913
X3.7323Y-3.013
X3.7323Y-3.113
X3.8323Y-2.913
X3.8323Y-3.013
X3.8323Y-3.113
T10
X3.4642Y-2.9282
X3.4647Y-5.0692
X4.8179Y-5.0689
X4.8183Y-2.9286
T7
G00X3.4126Y-4.0217
M15
G01X3.3811Y-4.0217
M16
G05
G00X3.4126Y-4.3619
M15
G01X3.3811Y-4.3619
M16
G05
G00X3.5839Y-4.0217
M15
G01X3.5406Y-4.0217
M16
G05
G00X3.5839Y-4.3619
M15
G01X3.5406Y-4.3619
M16
G05
M30
