G04 #@! TF.GenerationSoftware,KiCad,Pcbnew,5.1.5+dfsg1-2build2*
G04 #@! TF.CreationDate,2021-08-01T10:53:42+02:00*
G04 #@! TF.ProjectId,Sensor_Nodes,53656e73-6f72-45f4-9e6f-6465732e6b69,rev?*
G04 #@! TF.SameCoordinates,Original*
G04 #@! TF.FileFunction,Copper,L3,Inr*
G04 #@! TF.FilePolarity,Positive*
%FSLAX46Y46*%
G04 Gerber Fmt 4.6, Leading zero omitted, Abs format (unit mm)*
G04 Created by KiCad (PCBNEW 5.1.5+dfsg1-2build2) date 2021-08-01 10:53:42*
%MOMM*%
%LPD*%
G04 APERTURE LIST*
%ADD10O,1.700000X1.700000*%
%ADD11R,1.700000X1.700000*%
%ADD12C,0.800000*%
%ADD13C,6.400000*%
%ADD14C,0.500000*%
%ADD15C,0.254000*%
G04 APERTURE END LIST*
D10*
X130870000Y-93460000D03*
X130870000Y-96000000D03*
X128330000Y-93460000D03*
X128330000Y-96000000D03*
X125790000Y-93460000D03*
X125790000Y-96000000D03*
X123250000Y-93460000D03*
D11*
X123250000Y-96000000D03*
D10*
X150158000Y-79063000D03*
X150158000Y-81603000D03*
X150158000Y-84143000D03*
X150158000Y-86683000D03*
X150158000Y-89223000D03*
D11*
X150158000Y-91763000D03*
D10*
X118540000Y-83030000D03*
X116000000Y-83030000D03*
X118540000Y-80490000D03*
X116000000Y-80490000D03*
X118540000Y-77950000D03*
D11*
X116000000Y-77950000D03*
D12*
X114772057Y-108294200D03*
X113075001Y-107591256D03*
X111377945Y-108294200D03*
X110675001Y-109991256D03*
X111377945Y-111688312D03*
X113075001Y-112391256D03*
X114772057Y-111688312D03*
X115475001Y-109991256D03*
D13*
X113075001Y-109991256D03*
D12*
X150200000Y-108294200D03*
X148502944Y-107591256D03*
X146805888Y-108294200D03*
X146102944Y-109991256D03*
X146805888Y-111688312D03*
X148502944Y-112391256D03*
X150200000Y-111688312D03*
X150902944Y-109991256D03*
D13*
X148502944Y-109991256D03*
D12*
X114497056Y-67202944D03*
X112800000Y-66500000D03*
X111102944Y-67202944D03*
X110400000Y-68900000D03*
X111102944Y-70597056D03*
X112800000Y-71300000D03*
X114497056Y-70597056D03*
X115200000Y-68900000D03*
D13*
X112800000Y-68900000D03*
D12*
X150200000Y-66950000D03*
X148502944Y-66247056D03*
X146805888Y-66950000D03*
X146102944Y-68647056D03*
X146805888Y-70344112D03*
X148502944Y-71047056D03*
X150200000Y-70344112D03*
X150902944Y-68647056D03*
D13*
X148502944Y-68647056D03*
D14*
X147700000Y-101000000D03*
X147125000Y-100050000D03*
X148275000Y-100050000D03*
X147700000Y-99100000D03*
D12*
X131350000Y-108600000D03*
X124350000Y-104100000D03*
X126500000Y-111700000D03*
X115150000Y-89700000D03*
X118350000Y-88950000D03*
X124950000Y-91550000D03*
X150700000Y-98650000D03*
X147800000Y-94800000D03*
X141650000Y-104300000D03*
X129700000Y-79750000D03*
X117400000Y-74350000D03*
X119750000Y-72350000D03*
X139200000Y-71200000D03*
X145750000Y-78400000D03*
X133200000Y-103400000D03*
X113150000Y-75250000D03*
X119700000Y-74050000D03*
X142200000Y-79300000D03*
X145750000Y-73850000D03*
X142200000Y-71800000D03*
X147800000Y-96950000D03*
X135950000Y-104250000D03*
X136000000Y-75800000D03*
X133750000Y-86950000D03*
X133600000Y-79200000D03*
X133600000Y-77950000D03*
X128300000Y-105450000D03*
X135050000Y-76300000D03*
D15*
G36*
X146686390Y-65248523D02*
G01*
X146058274Y-65668217D01*
X145524105Y-66202386D01*
X145104411Y-66830502D01*
X144815321Y-67528428D01*
X144667944Y-68269341D01*
X144667944Y-69024771D01*
X144815321Y-69765684D01*
X145104411Y-70463610D01*
X145524105Y-71091726D01*
X146058274Y-71625895D01*
X146686390Y-72045589D01*
X147384316Y-72334679D01*
X148125229Y-72482056D01*
X148880659Y-72482056D01*
X149621572Y-72334679D01*
X150319498Y-72045589D01*
X150947614Y-71625895D01*
X151481783Y-71091726D01*
X151901477Y-70463610D01*
X152093140Y-70000895D01*
X152177952Y-105113415D01*
X152070901Y-104953202D01*
X151896798Y-104779099D01*
X151692074Y-104642307D01*
X151464598Y-104548083D01*
X151223110Y-104500048D01*
X150976890Y-104500048D01*
X150735402Y-104548083D01*
X150507926Y-104642307D01*
X150303202Y-104779099D01*
X150129099Y-104953202D01*
X149992307Y-105157926D01*
X149898083Y-105385402D01*
X149850048Y-105626890D01*
X149850048Y-105873110D01*
X149898083Y-106114598D01*
X149992307Y-106342074D01*
X150098666Y-106501251D01*
X149621572Y-106303633D01*
X148880659Y-106156256D01*
X148125229Y-106156256D01*
X147384316Y-106303633D01*
X146686390Y-106592723D01*
X146058274Y-107012417D01*
X145524105Y-107546586D01*
X145104411Y-108174702D01*
X144815321Y-108872628D01*
X144667944Y-109613541D01*
X144667944Y-110368971D01*
X144815321Y-111109884D01*
X145104411Y-111807810D01*
X145524105Y-112435926D01*
X146058274Y-112970095D01*
X146686390Y-113389789D01*
X146934250Y-113492456D01*
X117730072Y-113533073D01*
X117857693Y-113342074D01*
X117951917Y-113114598D01*
X117999952Y-112873110D01*
X117999952Y-112626890D01*
X117951917Y-112385402D01*
X117857693Y-112157926D01*
X117720901Y-111953202D01*
X117546798Y-111779099D01*
X117342074Y-111642307D01*
X117235256Y-111598061D01*
X125465000Y-111598061D01*
X125465000Y-111801939D01*
X125504774Y-112001898D01*
X125582795Y-112190256D01*
X125696063Y-112359774D01*
X125840226Y-112503937D01*
X126009744Y-112617205D01*
X126198102Y-112695226D01*
X126398061Y-112735000D01*
X126601939Y-112735000D01*
X126801898Y-112695226D01*
X126990256Y-112617205D01*
X127159774Y-112503937D01*
X127303937Y-112359774D01*
X127417205Y-112190256D01*
X127495226Y-112001898D01*
X127535000Y-111801939D01*
X127535000Y-111598061D01*
X127495226Y-111398102D01*
X127417205Y-111209744D01*
X127303937Y-111040226D01*
X127159774Y-110896063D01*
X126990256Y-110782795D01*
X126801898Y-110704774D01*
X126601939Y-110665000D01*
X126398061Y-110665000D01*
X126198102Y-110704774D01*
X126009744Y-110782795D01*
X125840226Y-110896063D01*
X125696063Y-111040226D01*
X125582795Y-111209744D01*
X125504774Y-111398102D01*
X125465000Y-111598061D01*
X117235256Y-111598061D01*
X117114598Y-111548083D01*
X116873110Y-111500048D01*
X116626890Y-111500048D01*
X116598690Y-111505657D01*
X116762624Y-111109884D01*
X116910001Y-110368971D01*
X116910001Y-109613541D01*
X116762624Y-108872628D01*
X116607474Y-108498061D01*
X130315000Y-108498061D01*
X130315000Y-108701939D01*
X130354774Y-108901898D01*
X130432795Y-109090256D01*
X130546063Y-109259774D01*
X130690226Y-109403937D01*
X130859744Y-109517205D01*
X131048102Y-109595226D01*
X131248061Y-109635000D01*
X131451939Y-109635000D01*
X131651898Y-109595226D01*
X131840256Y-109517205D01*
X132009774Y-109403937D01*
X132153937Y-109259774D01*
X132267205Y-109090256D01*
X132345226Y-108901898D01*
X132385000Y-108701939D01*
X132385000Y-108498061D01*
X132345226Y-108298102D01*
X132267205Y-108109744D01*
X132153937Y-107940226D01*
X132009774Y-107796063D01*
X131840256Y-107682795D01*
X131651898Y-107604774D01*
X131451939Y-107565000D01*
X131248061Y-107565000D01*
X131048102Y-107604774D01*
X130859744Y-107682795D01*
X130690226Y-107796063D01*
X130546063Y-107940226D01*
X130432795Y-108109744D01*
X130354774Y-108298102D01*
X130315000Y-108498061D01*
X116607474Y-108498061D01*
X116473534Y-108174702D01*
X116053840Y-107546586D01*
X115519671Y-107012417D01*
X114891555Y-106592723D01*
X114193629Y-106303633D01*
X113452716Y-106156256D01*
X112697286Y-106156256D01*
X111956373Y-106303633D01*
X111258447Y-106592723D01*
X110630331Y-107012417D01*
X110096162Y-107546586D01*
X109676468Y-108174702D01*
X109387378Y-108872628D01*
X109359999Y-109010271D01*
X109359999Y-105348061D01*
X127265000Y-105348061D01*
X127265000Y-105551939D01*
X127304774Y-105751898D01*
X127382795Y-105940256D01*
X127496063Y-106109774D01*
X127640226Y-106253937D01*
X127809744Y-106367205D01*
X127998102Y-106445226D01*
X128198061Y-106485000D01*
X128401939Y-106485000D01*
X128601898Y-106445226D01*
X128790256Y-106367205D01*
X128959774Y-106253937D01*
X129103937Y-106109774D01*
X129217205Y-105940256D01*
X129295226Y-105751898D01*
X129335000Y-105551939D01*
X129335000Y-105348061D01*
X129295226Y-105148102D01*
X129217205Y-104959744D01*
X129103937Y-104790226D01*
X128959774Y-104646063D01*
X128790256Y-104532795D01*
X128601898Y-104454774D01*
X128401939Y-104415000D01*
X128198061Y-104415000D01*
X127998102Y-104454774D01*
X127809744Y-104532795D01*
X127640226Y-104646063D01*
X127496063Y-104790226D01*
X127382795Y-104959744D01*
X127304774Y-105148102D01*
X127265000Y-105348061D01*
X109359999Y-105348061D01*
X109359999Y-103998061D01*
X123315000Y-103998061D01*
X123315000Y-104201939D01*
X123354774Y-104401898D01*
X123432795Y-104590256D01*
X123546063Y-104759774D01*
X123690226Y-104903937D01*
X123859744Y-105017205D01*
X124048102Y-105095226D01*
X124248061Y-105135000D01*
X124451939Y-105135000D01*
X124651898Y-105095226D01*
X124840256Y-105017205D01*
X125009774Y-104903937D01*
X125153937Y-104759774D01*
X125267205Y-104590256D01*
X125345226Y-104401898D01*
X125385000Y-104201939D01*
X125385000Y-103998061D01*
X125345226Y-103798102D01*
X125267205Y-103609744D01*
X125153937Y-103440226D01*
X125011772Y-103298061D01*
X132165000Y-103298061D01*
X132165000Y-103501939D01*
X132204774Y-103701898D01*
X132282795Y-103890256D01*
X132396063Y-104059774D01*
X132540226Y-104203937D01*
X132709744Y-104317205D01*
X132898102Y-104395226D01*
X133098061Y-104435000D01*
X133301939Y-104435000D01*
X133501898Y-104395226D01*
X133690256Y-104317205D01*
X133859774Y-104203937D01*
X133915650Y-104148061D01*
X134915000Y-104148061D01*
X134915000Y-104351939D01*
X134954774Y-104551898D01*
X135032795Y-104740256D01*
X135146063Y-104909774D01*
X135290226Y-105053937D01*
X135459744Y-105167205D01*
X135648102Y-105245226D01*
X135848061Y-105285000D01*
X136051939Y-105285000D01*
X136251898Y-105245226D01*
X136440256Y-105167205D01*
X136609774Y-105053937D01*
X136753937Y-104909774D01*
X136867205Y-104740256D01*
X136945226Y-104551898D01*
X136985000Y-104351939D01*
X136985000Y-104198061D01*
X140615000Y-104198061D01*
X140615000Y-104401939D01*
X140654774Y-104601898D01*
X140732795Y-104790256D01*
X140846063Y-104959774D01*
X140990226Y-105103937D01*
X141159744Y-105217205D01*
X141348102Y-105295226D01*
X141548061Y-105335000D01*
X141751939Y-105335000D01*
X141951898Y-105295226D01*
X142140256Y-105217205D01*
X142309774Y-105103937D01*
X142453937Y-104959774D01*
X142567205Y-104790256D01*
X142645226Y-104601898D01*
X142685000Y-104401939D01*
X142685000Y-104198061D01*
X142645226Y-103998102D01*
X142567205Y-103809744D01*
X142453937Y-103640226D01*
X142309774Y-103496063D01*
X142140256Y-103382795D01*
X141951898Y-103304774D01*
X141751939Y-103265000D01*
X141548061Y-103265000D01*
X141348102Y-103304774D01*
X141159744Y-103382795D01*
X140990226Y-103496063D01*
X140846063Y-103640226D01*
X140732795Y-103809744D01*
X140654774Y-103998102D01*
X140615000Y-104198061D01*
X136985000Y-104198061D01*
X136985000Y-104148061D01*
X136945226Y-103948102D01*
X136867205Y-103759744D01*
X136753937Y-103590226D01*
X136609774Y-103446063D01*
X136440256Y-103332795D01*
X136251898Y-103254774D01*
X136051939Y-103215000D01*
X135848061Y-103215000D01*
X135648102Y-103254774D01*
X135459744Y-103332795D01*
X135290226Y-103446063D01*
X135146063Y-103590226D01*
X135032795Y-103759744D01*
X134954774Y-103948102D01*
X134915000Y-104148061D01*
X133915650Y-104148061D01*
X134003937Y-104059774D01*
X134117205Y-103890256D01*
X134195226Y-103701898D01*
X134235000Y-103501939D01*
X134235000Y-103298061D01*
X134195226Y-103098102D01*
X134117205Y-102909744D01*
X134003937Y-102740226D01*
X133859774Y-102596063D01*
X133690256Y-102482795D01*
X133501898Y-102404774D01*
X133301939Y-102365000D01*
X133098061Y-102365000D01*
X132898102Y-102404774D01*
X132709744Y-102482795D01*
X132540226Y-102596063D01*
X132396063Y-102740226D01*
X132282795Y-102909744D01*
X132204774Y-103098102D01*
X132165000Y-103298061D01*
X125011772Y-103298061D01*
X125009774Y-103296063D01*
X124840256Y-103182795D01*
X124651898Y-103104774D01*
X124451939Y-103065000D01*
X124248061Y-103065000D01*
X124048102Y-103104774D01*
X123859744Y-103182795D01*
X123690226Y-103296063D01*
X123546063Y-103440226D01*
X123432795Y-103609744D01*
X123354774Y-103798102D01*
X123315000Y-103998061D01*
X109359999Y-103998061D01*
X109359999Y-99962835D01*
X146240000Y-99962835D01*
X146240000Y-100137165D01*
X146274010Y-100308145D01*
X146340723Y-100469205D01*
X146437576Y-100614155D01*
X146560845Y-100737424D01*
X146705795Y-100834277D01*
X146821124Y-100882048D01*
X146815000Y-100912835D01*
X146815000Y-101087165D01*
X146849010Y-101258145D01*
X146915723Y-101419205D01*
X147012576Y-101564155D01*
X147135845Y-101687424D01*
X147280795Y-101784277D01*
X147441855Y-101850990D01*
X147612835Y-101885000D01*
X147787165Y-101885000D01*
X147958145Y-101850990D01*
X148119205Y-101784277D01*
X148264155Y-101687424D01*
X148387424Y-101564155D01*
X148484277Y-101419205D01*
X148550990Y-101258145D01*
X148585000Y-101087165D01*
X148585000Y-100912835D01*
X148578876Y-100882048D01*
X148694205Y-100834277D01*
X148839155Y-100737424D01*
X148962424Y-100614155D01*
X149059277Y-100469205D01*
X149125990Y-100308145D01*
X149160000Y-100137165D01*
X149160000Y-99962835D01*
X149125990Y-99791855D01*
X149059277Y-99630795D01*
X148962424Y-99485845D01*
X148839155Y-99362576D01*
X148694205Y-99265723D01*
X148578876Y-99217952D01*
X148585000Y-99187165D01*
X148585000Y-99012835D01*
X148550990Y-98841855D01*
X148484277Y-98680795D01*
X148395587Y-98548061D01*
X149665000Y-98548061D01*
X149665000Y-98751939D01*
X149704774Y-98951898D01*
X149782795Y-99140256D01*
X149896063Y-99309774D01*
X150040226Y-99453937D01*
X150209744Y-99567205D01*
X150398102Y-99645226D01*
X150598061Y-99685000D01*
X150801939Y-99685000D01*
X151001898Y-99645226D01*
X151190256Y-99567205D01*
X151359774Y-99453937D01*
X151503937Y-99309774D01*
X151617205Y-99140256D01*
X151695226Y-98951898D01*
X151735000Y-98751939D01*
X151735000Y-98548061D01*
X151695226Y-98348102D01*
X151617205Y-98159744D01*
X151503937Y-97990226D01*
X151359774Y-97846063D01*
X151190256Y-97732795D01*
X151001898Y-97654774D01*
X150801939Y-97615000D01*
X150598061Y-97615000D01*
X150398102Y-97654774D01*
X150209744Y-97732795D01*
X150040226Y-97846063D01*
X149896063Y-97990226D01*
X149782795Y-98159744D01*
X149704774Y-98348102D01*
X149665000Y-98548061D01*
X148395587Y-98548061D01*
X148387424Y-98535845D01*
X148264155Y-98412576D01*
X148119205Y-98315723D01*
X147958145Y-98249010D01*
X147787165Y-98215000D01*
X147612835Y-98215000D01*
X147441855Y-98249010D01*
X147280795Y-98315723D01*
X147135845Y-98412576D01*
X147012576Y-98535845D01*
X146915723Y-98680795D01*
X146849010Y-98841855D01*
X146815000Y-99012835D01*
X146815000Y-99187165D01*
X146821124Y-99217952D01*
X146705795Y-99265723D01*
X146560845Y-99362576D01*
X146437576Y-99485845D01*
X146340723Y-99630795D01*
X146274010Y-99791855D01*
X146240000Y-99962835D01*
X109359999Y-99962835D01*
X109359999Y-95150000D01*
X121761928Y-95150000D01*
X121761928Y-96850000D01*
X121774188Y-96974482D01*
X121810498Y-97094180D01*
X121869463Y-97204494D01*
X121948815Y-97301185D01*
X122045506Y-97380537D01*
X122155820Y-97439502D01*
X122275518Y-97475812D01*
X122400000Y-97488072D01*
X124100000Y-97488072D01*
X124224482Y-97475812D01*
X124344180Y-97439502D01*
X124454494Y-97380537D01*
X124551185Y-97301185D01*
X124630537Y-97204494D01*
X124689502Y-97094180D01*
X124711513Y-97021620D01*
X124843368Y-97153475D01*
X125086589Y-97315990D01*
X125356842Y-97427932D01*
X125643740Y-97485000D01*
X125936260Y-97485000D01*
X126223158Y-97427932D01*
X126493411Y-97315990D01*
X126736632Y-97153475D01*
X126943475Y-96946632D01*
X127060000Y-96772240D01*
X127176525Y-96946632D01*
X127383368Y-97153475D01*
X127626589Y-97315990D01*
X127896842Y-97427932D01*
X128183740Y-97485000D01*
X128476260Y-97485000D01*
X128763158Y-97427932D01*
X129033411Y-97315990D01*
X129276632Y-97153475D01*
X129483475Y-96946632D01*
X129600000Y-96772240D01*
X129716525Y-96946632D01*
X129923368Y-97153475D01*
X130166589Y-97315990D01*
X130436842Y-97427932D01*
X130723740Y-97485000D01*
X131016260Y-97485000D01*
X131303158Y-97427932D01*
X131573411Y-97315990D01*
X131816632Y-97153475D01*
X132023475Y-96946632D01*
X132185990Y-96703411D01*
X132297932Y-96433158D01*
X132355000Y-96146260D01*
X132355000Y-95853740D01*
X132297932Y-95566842D01*
X132185990Y-95296589D01*
X132023475Y-95053368D01*
X131816632Y-94846525D01*
X131642240Y-94730000D01*
X131690040Y-94698061D01*
X146765000Y-94698061D01*
X146765000Y-94901939D01*
X146804774Y-95101898D01*
X146882795Y-95290256D01*
X146996063Y-95459774D01*
X147140226Y-95603937D01*
X147309744Y-95717205D01*
X147498102Y-95795226D01*
X147698061Y-95835000D01*
X147901939Y-95835000D01*
X148101898Y-95795226D01*
X148290256Y-95717205D01*
X148459774Y-95603937D01*
X148603937Y-95459774D01*
X148717205Y-95290256D01*
X148795226Y-95101898D01*
X148835000Y-94901939D01*
X148835000Y-94698061D01*
X148795226Y-94498102D01*
X148717205Y-94309744D01*
X148603937Y-94140226D01*
X148459774Y-93996063D01*
X148290256Y-93882795D01*
X148101898Y-93804774D01*
X147901939Y-93765000D01*
X147698061Y-93765000D01*
X147498102Y-93804774D01*
X147309744Y-93882795D01*
X147140226Y-93996063D01*
X146996063Y-94140226D01*
X146882795Y-94309744D01*
X146804774Y-94498102D01*
X146765000Y-94698061D01*
X131690040Y-94698061D01*
X131816632Y-94613475D01*
X132023475Y-94406632D01*
X132185990Y-94163411D01*
X132297932Y-93893158D01*
X132355000Y-93606260D01*
X132355000Y-93313740D01*
X132297932Y-93026842D01*
X132185990Y-92756589D01*
X132023475Y-92513368D01*
X131816632Y-92306525D01*
X131573411Y-92144010D01*
X131303158Y-92032068D01*
X131016260Y-91975000D01*
X130723740Y-91975000D01*
X130436842Y-92032068D01*
X130166589Y-92144010D01*
X129923368Y-92306525D01*
X129716525Y-92513368D01*
X129600000Y-92687760D01*
X129483475Y-92513368D01*
X129276632Y-92306525D01*
X129033411Y-92144010D01*
X128763158Y-92032068D01*
X128476260Y-91975000D01*
X128183740Y-91975000D01*
X127896842Y-92032068D01*
X127626589Y-92144010D01*
X127383368Y-92306525D01*
X127176525Y-92513368D01*
X127060000Y-92687760D01*
X126943475Y-92513368D01*
X126736632Y-92306525D01*
X126493411Y-92144010D01*
X126223158Y-92032068D01*
X125936260Y-91975000D01*
X125894235Y-91975000D01*
X125945226Y-91851898D01*
X125985000Y-91651939D01*
X125985000Y-91448061D01*
X125945226Y-91248102D01*
X125867205Y-91059744D01*
X125769155Y-90913000D01*
X148669928Y-90913000D01*
X148669928Y-92613000D01*
X148682188Y-92737482D01*
X148718498Y-92857180D01*
X148777463Y-92967494D01*
X148856815Y-93064185D01*
X148953506Y-93143537D01*
X149063820Y-93202502D01*
X149183518Y-93238812D01*
X149308000Y-93251072D01*
X151008000Y-93251072D01*
X151132482Y-93238812D01*
X151252180Y-93202502D01*
X151362494Y-93143537D01*
X151459185Y-93064185D01*
X151538537Y-92967494D01*
X151597502Y-92857180D01*
X151633812Y-92737482D01*
X151646072Y-92613000D01*
X151646072Y-90913000D01*
X151633812Y-90788518D01*
X151597502Y-90668820D01*
X151538537Y-90558506D01*
X151459185Y-90461815D01*
X151362494Y-90382463D01*
X151252180Y-90323498D01*
X151179620Y-90301487D01*
X151311475Y-90169632D01*
X151473990Y-89926411D01*
X151585932Y-89656158D01*
X151643000Y-89369260D01*
X151643000Y-89076740D01*
X151585932Y-88789842D01*
X151473990Y-88519589D01*
X151311475Y-88276368D01*
X151104632Y-88069525D01*
X150930240Y-87953000D01*
X151104632Y-87836475D01*
X151311475Y-87629632D01*
X151473990Y-87386411D01*
X151585932Y-87116158D01*
X151643000Y-86829260D01*
X151643000Y-86536740D01*
X151585932Y-86249842D01*
X151473990Y-85979589D01*
X151311475Y-85736368D01*
X151104632Y-85529525D01*
X150930240Y-85413000D01*
X151104632Y-85296475D01*
X151311475Y-85089632D01*
X151473990Y-84846411D01*
X151585932Y-84576158D01*
X151643000Y-84289260D01*
X151643000Y-83996740D01*
X151585932Y-83709842D01*
X151473990Y-83439589D01*
X151311475Y-83196368D01*
X151104632Y-82989525D01*
X150930240Y-82873000D01*
X151104632Y-82756475D01*
X151311475Y-82549632D01*
X151473990Y-82306411D01*
X151585932Y-82036158D01*
X151643000Y-81749260D01*
X151643000Y-81456740D01*
X151585932Y-81169842D01*
X151473990Y-80899589D01*
X151311475Y-80656368D01*
X151104632Y-80449525D01*
X150930240Y-80333000D01*
X151104632Y-80216475D01*
X151311475Y-80009632D01*
X151473990Y-79766411D01*
X151585932Y-79496158D01*
X151643000Y-79209260D01*
X151643000Y-78916740D01*
X151585932Y-78629842D01*
X151473990Y-78359589D01*
X151311475Y-78116368D01*
X151104632Y-77909525D01*
X150861411Y-77747010D01*
X150591158Y-77635068D01*
X150304260Y-77578000D01*
X150011740Y-77578000D01*
X149724842Y-77635068D01*
X149454589Y-77747010D01*
X149211368Y-77909525D01*
X149004525Y-78116368D01*
X148842010Y-78359589D01*
X148730068Y-78629842D01*
X148673000Y-78916740D01*
X148673000Y-79209260D01*
X148730068Y-79496158D01*
X148842010Y-79766411D01*
X149004525Y-80009632D01*
X149211368Y-80216475D01*
X149385760Y-80333000D01*
X149211368Y-80449525D01*
X149004525Y-80656368D01*
X148842010Y-80899589D01*
X148730068Y-81169842D01*
X148673000Y-81456740D01*
X148673000Y-81749260D01*
X148730068Y-82036158D01*
X148842010Y-82306411D01*
X149004525Y-82549632D01*
X149211368Y-82756475D01*
X149385760Y-82873000D01*
X149211368Y-82989525D01*
X149004525Y-83196368D01*
X148842010Y-83439589D01*
X148730068Y-83709842D01*
X148673000Y-83996740D01*
X148673000Y-84289260D01*
X148730068Y-84576158D01*
X148842010Y-84846411D01*
X149004525Y-85089632D01*
X149211368Y-85296475D01*
X149385760Y-85413000D01*
X149211368Y-85529525D01*
X149004525Y-85736368D01*
X148842010Y-85979589D01*
X148730068Y-86249842D01*
X148673000Y-86536740D01*
X148673000Y-86829260D01*
X148730068Y-87116158D01*
X148842010Y-87386411D01*
X149004525Y-87629632D01*
X149211368Y-87836475D01*
X149385760Y-87953000D01*
X149211368Y-88069525D01*
X149004525Y-88276368D01*
X148842010Y-88519589D01*
X148730068Y-88789842D01*
X148673000Y-89076740D01*
X148673000Y-89369260D01*
X148730068Y-89656158D01*
X148842010Y-89926411D01*
X149004525Y-90169632D01*
X149136380Y-90301487D01*
X149063820Y-90323498D01*
X148953506Y-90382463D01*
X148856815Y-90461815D01*
X148777463Y-90558506D01*
X148718498Y-90668820D01*
X148682188Y-90788518D01*
X148669928Y-90913000D01*
X125769155Y-90913000D01*
X125753937Y-90890226D01*
X125609774Y-90746063D01*
X125440256Y-90632795D01*
X125251898Y-90554774D01*
X125051939Y-90515000D01*
X124848061Y-90515000D01*
X124648102Y-90554774D01*
X124459744Y-90632795D01*
X124290226Y-90746063D01*
X124146063Y-90890226D01*
X124032795Y-91059744D01*
X123954774Y-91248102D01*
X123915000Y-91448061D01*
X123915000Y-91651939D01*
X123954774Y-91851898D01*
X124032795Y-92040256D01*
X124146063Y-92209774D01*
X124290226Y-92353937D01*
X124459744Y-92467205D01*
X124622362Y-92534564D01*
X124520000Y-92687760D01*
X124403475Y-92513368D01*
X124196632Y-92306525D01*
X123953411Y-92144010D01*
X123683158Y-92032068D01*
X123396260Y-91975000D01*
X123103740Y-91975000D01*
X122816842Y-92032068D01*
X122546589Y-92144010D01*
X122303368Y-92306525D01*
X122096525Y-92513368D01*
X121934010Y-92756589D01*
X121822068Y-93026842D01*
X121765000Y-93313740D01*
X121765000Y-93606260D01*
X121822068Y-93893158D01*
X121934010Y-94163411D01*
X122096525Y-94406632D01*
X122228380Y-94538487D01*
X122155820Y-94560498D01*
X122045506Y-94619463D01*
X121948815Y-94698815D01*
X121869463Y-94795506D01*
X121810498Y-94905820D01*
X121774188Y-95025518D01*
X121761928Y-95150000D01*
X109359999Y-95150000D01*
X109360000Y-89598061D01*
X114115000Y-89598061D01*
X114115000Y-89801939D01*
X114154774Y-90001898D01*
X114232795Y-90190256D01*
X114346063Y-90359774D01*
X114490226Y-90503937D01*
X114659744Y-90617205D01*
X114848102Y-90695226D01*
X115048061Y-90735000D01*
X115251939Y-90735000D01*
X115451898Y-90695226D01*
X115640256Y-90617205D01*
X115809774Y-90503937D01*
X115953937Y-90359774D01*
X116067205Y-90190256D01*
X116145226Y-90001898D01*
X116185000Y-89801939D01*
X116185000Y-89598061D01*
X116145226Y-89398102D01*
X116067205Y-89209744D01*
X115953937Y-89040226D01*
X115809774Y-88896063D01*
X115737934Y-88848061D01*
X117315000Y-88848061D01*
X117315000Y-89051939D01*
X117354774Y-89251898D01*
X117432795Y-89440256D01*
X117546063Y-89609774D01*
X117690226Y-89753937D01*
X117859744Y-89867205D01*
X118048102Y-89945226D01*
X118248061Y-89985000D01*
X118451939Y-89985000D01*
X118651898Y-89945226D01*
X118840256Y-89867205D01*
X119009774Y-89753937D01*
X119153937Y-89609774D01*
X119267205Y-89440256D01*
X119345226Y-89251898D01*
X119385000Y-89051939D01*
X119385000Y-88848061D01*
X119345226Y-88648102D01*
X119267205Y-88459744D01*
X119153937Y-88290226D01*
X119009774Y-88146063D01*
X118840256Y-88032795D01*
X118651898Y-87954774D01*
X118451939Y-87915000D01*
X118248061Y-87915000D01*
X118048102Y-87954774D01*
X117859744Y-88032795D01*
X117690226Y-88146063D01*
X117546063Y-88290226D01*
X117432795Y-88459744D01*
X117354774Y-88648102D01*
X117315000Y-88848061D01*
X115737934Y-88848061D01*
X115640256Y-88782795D01*
X115451898Y-88704774D01*
X115251939Y-88665000D01*
X115048061Y-88665000D01*
X114848102Y-88704774D01*
X114659744Y-88782795D01*
X114490226Y-88896063D01*
X114346063Y-89040226D01*
X114232795Y-89209744D01*
X114154774Y-89398102D01*
X114115000Y-89598061D01*
X109360000Y-89598061D01*
X109360000Y-86848061D01*
X132715000Y-86848061D01*
X132715000Y-87051939D01*
X132754774Y-87251898D01*
X132832795Y-87440256D01*
X132946063Y-87609774D01*
X133090226Y-87753937D01*
X133259744Y-87867205D01*
X133448102Y-87945226D01*
X133648061Y-87985000D01*
X133851939Y-87985000D01*
X134051898Y-87945226D01*
X134240256Y-87867205D01*
X134409774Y-87753937D01*
X134553937Y-87609774D01*
X134667205Y-87440256D01*
X134745226Y-87251898D01*
X134785000Y-87051939D01*
X134785000Y-86848061D01*
X134745226Y-86648102D01*
X134667205Y-86459744D01*
X134553937Y-86290226D01*
X134409774Y-86146063D01*
X134240256Y-86032795D01*
X134051898Y-85954774D01*
X133851939Y-85915000D01*
X133648061Y-85915000D01*
X133448102Y-85954774D01*
X133259744Y-86032795D01*
X133090226Y-86146063D01*
X132946063Y-86290226D01*
X132832795Y-86459744D01*
X132754774Y-86648102D01*
X132715000Y-86848061D01*
X109360000Y-86848061D01*
X109360000Y-77100000D01*
X114511928Y-77100000D01*
X114511928Y-78800000D01*
X114524188Y-78924482D01*
X114560498Y-79044180D01*
X114619463Y-79154494D01*
X114698815Y-79251185D01*
X114795506Y-79330537D01*
X114905820Y-79389502D01*
X114978380Y-79411513D01*
X114846525Y-79543368D01*
X114684010Y-79786589D01*
X114572068Y-80056842D01*
X114515000Y-80343740D01*
X114515000Y-80636260D01*
X114572068Y-80923158D01*
X114684010Y-81193411D01*
X114846525Y-81436632D01*
X115053368Y-81643475D01*
X115227760Y-81760000D01*
X115053368Y-81876525D01*
X114846525Y-82083368D01*
X114684010Y-82326589D01*
X114572068Y-82596842D01*
X114515000Y-82883740D01*
X114515000Y-83176260D01*
X114572068Y-83463158D01*
X114684010Y-83733411D01*
X114846525Y-83976632D01*
X115053368Y-84183475D01*
X115296589Y-84345990D01*
X115566842Y-84457932D01*
X115853740Y-84515000D01*
X116146260Y-84515000D01*
X116433158Y-84457932D01*
X116703411Y-84345990D01*
X116946632Y-84183475D01*
X117153475Y-83976632D01*
X117270000Y-83802240D01*
X117386525Y-83976632D01*
X117593368Y-84183475D01*
X117836589Y-84345990D01*
X118106842Y-84457932D01*
X118393740Y-84515000D01*
X118686260Y-84515000D01*
X118973158Y-84457932D01*
X119243411Y-84345990D01*
X119486632Y-84183475D01*
X119693475Y-83976632D01*
X119855990Y-83733411D01*
X119967932Y-83463158D01*
X120025000Y-83176260D01*
X120025000Y-82883740D01*
X119967932Y-82596842D01*
X119855990Y-82326589D01*
X119693475Y-82083368D01*
X119486632Y-81876525D01*
X119312240Y-81760000D01*
X119486632Y-81643475D01*
X119693475Y-81436632D01*
X119855990Y-81193411D01*
X119967932Y-80923158D01*
X120025000Y-80636260D01*
X120025000Y-80343740D01*
X119967932Y-80056842D01*
X119855990Y-79786589D01*
X119763429Y-79648061D01*
X128665000Y-79648061D01*
X128665000Y-79851939D01*
X128704774Y-80051898D01*
X128782795Y-80240256D01*
X128896063Y-80409774D01*
X129040226Y-80553937D01*
X129209744Y-80667205D01*
X129398102Y-80745226D01*
X129598061Y-80785000D01*
X129801939Y-80785000D01*
X130001898Y-80745226D01*
X130190256Y-80667205D01*
X130359774Y-80553937D01*
X130503937Y-80409774D01*
X130617205Y-80240256D01*
X130695226Y-80051898D01*
X130735000Y-79851939D01*
X130735000Y-79648061D01*
X130695226Y-79448102D01*
X130617205Y-79259744D01*
X130503937Y-79090226D01*
X130359774Y-78946063D01*
X130190256Y-78832795D01*
X130001898Y-78754774D01*
X129801939Y-78715000D01*
X129598061Y-78715000D01*
X129398102Y-78754774D01*
X129209744Y-78832795D01*
X129040226Y-78946063D01*
X128896063Y-79090226D01*
X128782795Y-79259744D01*
X128704774Y-79448102D01*
X128665000Y-79648061D01*
X119763429Y-79648061D01*
X119693475Y-79543368D01*
X119486632Y-79336525D01*
X119304466Y-79214805D01*
X119421355Y-79145178D01*
X119637588Y-78950269D01*
X119811641Y-78716920D01*
X119936825Y-78454099D01*
X119981476Y-78306890D01*
X119860155Y-78077000D01*
X118667000Y-78077000D01*
X118667000Y-78097000D01*
X118413000Y-78097000D01*
X118413000Y-78077000D01*
X118393000Y-78077000D01*
X118393000Y-77848061D01*
X132565000Y-77848061D01*
X132565000Y-78051939D01*
X132604774Y-78251898D01*
X132682795Y-78440256D01*
X132772828Y-78575000D01*
X132682795Y-78709744D01*
X132604774Y-78898102D01*
X132565000Y-79098061D01*
X132565000Y-79301939D01*
X132604774Y-79501898D01*
X132682795Y-79690256D01*
X132796063Y-79859774D01*
X132940226Y-80003937D01*
X133109744Y-80117205D01*
X133298102Y-80195226D01*
X133498061Y-80235000D01*
X133701939Y-80235000D01*
X133901898Y-80195226D01*
X134090256Y-80117205D01*
X134259774Y-80003937D01*
X134403937Y-79859774D01*
X134517205Y-79690256D01*
X134595226Y-79501898D01*
X134635000Y-79301939D01*
X134635000Y-79098061D01*
X134595226Y-78898102D01*
X134517205Y-78709744D01*
X134427172Y-78575000D01*
X134517205Y-78440256D01*
X134576104Y-78298061D01*
X144715000Y-78298061D01*
X144715000Y-78501939D01*
X144754774Y-78701898D01*
X144832795Y-78890256D01*
X144946063Y-79059774D01*
X145090226Y-79203937D01*
X145259744Y-79317205D01*
X145448102Y-79395226D01*
X145648061Y-79435000D01*
X145851939Y-79435000D01*
X146051898Y-79395226D01*
X146240256Y-79317205D01*
X146409774Y-79203937D01*
X146553937Y-79059774D01*
X146667205Y-78890256D01*
X146745226Y-78701898D01*
X146785000Y-78501939D01*
X146785000Y-78298061D01*
X146745226Y-78098102D01*
X146667205Y-77909744D01*
X146553937Y-77740226D01*
X146409774Y-77596063D01*
X146240256Y-77482795D01*
X146051898Y-77404774D01*
X145851939Y-77365000D01*
X145648061Y-77365000D01*
X145448102Y-77404774D01*
X145259744Y-77482795D01*
X145090226Y-77596063D01*
X144946063Y-77740226D01*
X144832795Y-77909744D01*
X144754774Y-78098102D01*
X144715000Y-78298061D01*
X134576104Y-78298061D01*
X134595226Y-78251898D01*
X134635000Y-78051939D01*
X134635000Y-77848061D01*
X134595226Y-77648102D01*
X134517205Y-77459744D01*
X134403937Y-77290226D01*
X134259774Y-77146063D01*
X134090256Y-77032795D01*
X133901898Y-76954774D01*
X133701939Y-76915000D01*
X133498061Y-76915000D01*
X133298102Y-76954774D01*
X133109744Y-77032795D01*
X132940226Y-77146063D01*
X132796063Y-77290226D01*
X132682795Y-77459744D01*
X132604774Y-77648102D01*
X132565000Y-77848061D01*
X118393000Y-77848061D01*
X118393000Y-77823000D01*
X118413000Y-77823000D01*
X118413000Y-76629186D01*
X118667000Y-76629186D01*
X118667000Y-77823000D01*
X119860155Y-77823000D01*
X119981476Y-77593110D01*
X119936825Y-77445901D01*
X119811641Y-77183080D01*
X119637588Y-76949731D01*
X119421355Y-76754822D01*
X119171252Y-76605843D01*
X118896891Y-76508519D01*
X118667000Y-76629186D01*
X118413000Y-76629186D01*
X118183109Y-76508519D01*
X117908748Y-76605843D01*
X117658645Y-76754822D01*
X117462498Y-76931626D01*
X117439502Y-76855820D01*
X117380537Y-76745506D01*
X117301185Y-76648815D01*
X117204494Y-76569463D01*
X117094180Y-76510498D01*
X116974482Y-76474188D01*
X116850000Y-76461928D01*
X115150000Y-76461928D01*
X115025518Y-76474188D01*
X114905820Y-76510498D01*
X114795506Y-76569463D01*
X114698815Y-76648815D01*
X114619463Y-76745506D01*
X114560498Y-76855820D01*
X114524188Y-76975518D01*
X114511928Y-77100000D01*
X109360000Y-77100000D01*
X109360000Y-76198061D01*
X134015000Y-76198061D01*
X134015000Y-76401939D01*
X134054774Y-76601898D01*
X134132795Y-76790256D01*
X134246063Y-76959774D01*
X134390226Y-77103937D01*
X134559744Y-77217205D01*
X134748102Y-77295226D01*
X134948061Y-77335000D01*
X135151939Y-77335000D01*
X135351898Y-77295226D01*
X135540256Y-77217205D01*
X135709774Y-77103937D01*
X135853937Y-76959774D01*
X135937308Y-76835000D01*
X136101939Y-76835000D01*
X136301898Y-76795226D01*
X136490256Y-76717205D01*
X136659774Y-76603937D01*
X136803937Y-76459774D01*
X136917205Y-76290256D01*
X136995226Y-76101898D01*
X137035000Y-75901939D01*
X137035000Y-75698061D01*
X136995226Y-75498102D01*
X136917205Y-75309744D01*
X136895253Y-75276890D01*
X149000048Y-75276890D01*
X149000048Y-75523110D01*
X149048083Y-75764598D01*
X149142307Y-75992074D01*
X149279099Y-76196798D01*
X149453202Y-76370901D01*
X149657926Y-76507693D01*
X149885402Y-76601917D01*
X150126890Y-76649952D01*
X150373110Y-76649952D01*
X150614598Y-76601917D01*
X150842074Y-76507693D01*
X151046798Y-76370901D01*
X151220901Y-76196798D01*
X151357693Y-75992074D01*
X151451917Y-75764598D01*
X151499952Y-75523110D01*
X151499952Y-75276890D01*
X151451917Y-75035402D01*
X151357693Y-74807926D01*
X151220901Y-74603202D01*
X151046798Y-74429099D01*
X150842074Y-74292307D01*
X150614598Y-74198083D01*
X150373110Y-74150048D01*
X150126890Y-74150048D01*
X149885402Y-74198083D01*
X149657926Y-74292307D01*
X149453202Y-74429099D01*
X149279099Y-74603202D01*
X149142307Y-74807926D01*
X149048083Y-75035402D01*
X149000048Y-75276890D01*
X136895253Y-75276890D01*
X136803937Y-75140226D01*
X136659774Y-74996063D01*
X136490256Y-74882795D01*
X136301898Y-74804774D01*
X136101939Y-74765000D01*
X135898061Y-74765000D01*
X135698102Y-74804774D01*
X135509744Y-74882795D01*
X135340226Y-74996063D01*
X135196063Y-75140226D01*
X135112692Y-75265000D01*
X134948061Y-75265000D01*
X134748102Y-75304774D01*
X134559744Y-75382795D01*
X134390226Y-75496063D01*
X134246063Y-75640226D01*
X134132795Y-75809744D01*
X134054774Y-75998102D01*
X134015000Y-76198061D01*
X109360000Y-76198061D01*
X109360001Y-73676890D01*
X109650048Y-73676890D01*
X109650048Y-73923110D01*
X109698083Y-74164598D01*
X109792307Y-74392074D01*
X109929099Y-74596798D01*
X110103202Y-74770901D01*
X110307926Y-74907693D01*
X110535402Y-75001917D01*
X110776890Y-75049952D01*
X111023110Y-75049952D01*
X111264598Y-75001917D01*
X111492074Y-74907693D01*
X111696798Y-74770901D01*
X111870901Y-74596798D01*
X112007693Y-74392074D01*
X112067345Y-74248061D01*
X116365000Y-74248061D01*
X116365000Y-74451939D01*
X116404774Y-74651898D01*
X116482795Y-74840256D01*
X116596063Y-75009774D01*
X116740226Y-75153937D01*
X116909744Y-75267205D01*
X117098102Y-75345226D01*
X117298061Y-75385000D01*
X117501939Y-75385000D01*
X117701898Y-75345226D01*
X117890256Y-75267205D01*
X118059774Y-75153937D01*
X118203937Y-75009774D01*
X118317205Y-74840256D01*
X118395226Y-74651898D01*
X118435000Y-74451939D01*
X118435000Y-74248061D01*
X118395226Y-74048102D01*
X118317205Y-73859744D01*
X118203937Y-73690226D01*
X118059774Y-73546063D01*
X117890256Y-73432795D01*
X117701898Y-73354774D01*
X117501939Y-73315000D01*
X117298061Y-73315000D01*
X117098102Y-73354774D01*
X116909744Y-73432795D01*
X116740226Y-73546063D01*
X116596063Y-73690226D01*
X116482795Y-73859744D01*
X116404774Y-74048102D01*
X116365000Y-74248061D01*
X112067345Y-74248061D01*
X112101917Y-74164598D01*
X112149952Y-73923110D01*
X112149952Y-73676890D01*
X112101917Y-73435402D01*
X112007693Y-73207926D01*
X111870901Y-73003202D01*
X111696798Y-72829099D01*
X111492074Y-72692307D01*
X111264598Y-72598083D01*
X111023110Y-72550048D01*
X110776890Y-72550048D01*
X110535402Y-72598083D01*
X110307926Y-72692307D01*
X110103202Y-72829099D01*
X109929099Y-73003202D01*
X109792307Y-73207926D01*
X109698083Y-73435402D01*
X109650048Y-73676890D01*
X109360001Y-73676890D01*
X109360002Y-70616448D01*
X109401467Y-70716554D01*
X109821161Y-71344670D01*
X110355330Y-71878839D01*
X110983446Y-72298533D01*
X111681372Y-72587623D01*
X112422285Y-72735000D01*
X113177715Y-72735000D01*
X113918628Y-72587623D01*
X114616554Y-72298533D01*
X114692090Y-72248061D01*
X118715000Y-72248061D01*
X118715000Y-72451939D01*
X118754774Y-72651898D01*
X118832795Y-72840256D01*
X118946063Y-73009774D01*
X119090226Y-73153937D01*
X119259744Y-73267205D01*
X119448102Y-73345226D01*
X119648061Y-73385000D01*
X119851939Y-73385000D01*
X120051898Y-73345226D01*
X120240256Y-73267205D01*
X120409774Y-73153937D01*
X120553937Y-73009774D01*
X120667205Y-72840256D01*
X120745226Y-72651898D01*
X120785000Y-72451939D01*
X120785000Y-72248061D01*
X120745226Y-72048102D01*
X120667205Y-71859744D01*
X120553937Y-71690226D01*
X120409774Y-71546063D01*
X120240256Y-71432795D01*
X120051898Y-71354774D01*
X119851939Y-71315000D01*
X119648061Y-71315000D01*
X119448102Y-71354774D01*
X119259744Y-71432795D01*
X119090226Y-71546063D01*
X118946063Y-71690226D01*
X118832795Y-71859744D01*
X118754774Y-72048102D01*
X118715000Y-72248061D01*
X114692090Y-72248061D01*
X115244670Y-71878839D01*
X115778839Y-71344670D01*
X115943617Y-71098061D01*
X138165000Y-71098061D01*
X138165000Y-71301939D01*
X138204774Y-71501898D01*
X138282795Y-71690256D01*
X138396063Y-71859774D01*
X138540226Y-72003937D01*
X138709744Y-72117205D01*
X138898102Y-72195226D01*
X139098061Y-72235000D01*
X139301939Y-72235000D01*
X139501898Y-72195226D01*
X139690256Y-72117205D01*
X139859774Y-72003937D01*
X140003937Y-71859774D01*
X140117205Y-71690256D01*
X140195226Y-71501898D01*
X140235000Y-71301939D01*
X140235000Y-71098061D01*
X140195226Y-70898102D01*
X140117205Y-70709744D01*
X140003937Y-70540226D01*
X139859774Y-70396063D01*
X139690256Y-70282795D01*
X139501898Y-70204774D01*
X139301939Y-70165000D01*
X139098061Y-70165000D01*
X138898102Y-70204774D01*
X138709744Y-70282795D01*
X138540226Y-70396063D01*
X138396063Y-70540226D01*
X138282795Y-70709744D01*
X138204774Y-70898102D01*
X138165000Y-71098061D01*
X115943617Y-71098061D01*
X116198533Y-70716554D01*
X116487623Y-70018628D01*
X116635000Y-69277715D01*
X116635000Y-68522285D01*
X116487623Y-67781372D01*
X116198533Y-67083446D01*
X115778839Y-66455330D01*
X115244670Y-65921161D01*
X114616554Y-65501467D01*
X114145591Y-65306388D01*
X146766363Y-65215397D01*
X146686390Y-65248523D01*
G37*
X146686390Y-65248523D02*
X146058274Y-65668217D01*
X145524105Y-66202386D01*
X145104411Y-66830502D01*
X144815321Y-67528428D01*
X144667944Y-68269341D01*
X144667944Y-69024771D01*
X144815321Y-69765684D01*
X145104411Y-70463610D01*
X145524105Y-71091726D01*
X146058274Y-71625895D01*
X146686390Y-72045589D01*
X147384316Y-72334679D01*
X148125229Y-72482056D01*
X148880659Y-72482056D01*
X149621572Y-72334679D01*
X150319498Y-72045589D01*
X150947614Y-71625895D01*
X151481783Y-71091726D01*
X151901477Y-70463610D01*
X152093140Y-70000895D01*
X152177952Y-105113415D01*
X152070901Y-104953202D01*
X151896798Y-104779099D01*
X151692074Y-104642307D01*
X151464598Y-104548083D01*
X151223110Y-104500048D01*
X150976890Y-104500048D01*
X150735402Y-104548083D01*
X150507926Y-104642307D01*
X150303202Y-104779099D01*
X150129099Y-104953202D01*
X149992307Y-105157926D01*
X149898083Y-105385402D01*
X149850048Y-105626890D01*
X149850048Y-105873110D01*
X149898083Y-106114598D01*
X149992307Y-106342074D01*
X150098666Y-106501251D01*
X149621572Y-106303633D01*
X148880659Y-106156256D01*
X148125229Y-106156256D01*
X147384316Y-106303633D01*
X146686390Y-106592723D01*
X146058274Y-107012417D01*
X145524105Y-107546586D01*
X145104411Y-108174702D01*
X144815321Y-108872628D01*
X144667944Y-109613541D01*
X144667944Y-110368971D01*
X144815321Y-111109884D01*
X145104411Y-111807810D01*
X145524105Y-112435926D01*
X146058274Y-112970095D01*
X146686390Y-113389789D01*
X146934250Y-113492456D01*
X117730072Y-113533073D01*
X117857693Y-113342074D01*
X117951917Y-113114598D01*
X117999952Y-112873110D01*
X117999952Y-112626890D01*
X117951917Y-112385402D01*
X117857693Y-112157926D01*
X117720901Y-111953202D01*
X117546798Y-111779099D01*
X117342074Y-111642307D01*
X117235256Y-111598061D01*
X125465000Y-111598061D01*
X125465000Y-111801939D01*
X125504774Y-112001898D01*
X125582795Y-112190256D01*
X125696063Y-112359774D01*
X125840226Y-112503937D01*
X126009744Y-112617205D01*
X126198102Y-112695226D01*
X126398061Y-112735000D01*
X126601939Y-112735000D01*
X126801898Y-112695226D01*
X126990256Y-112617205D01*
X127159774Y-112503937D01*
X127303937Y-112359774D01*
X127417205Y-112190256D01*
X127495226Y-112001898D01*
X127535000Y-111801939D01*
X127535000Y-111598061D01*
X127495226Y-111398102D01*
X127417205Y-111209744D01*
X127303937Y-111040226D01*
X127159774Y-110896063D01*
X126990256Y-110782795D01*
X126801898Y-110704774D01*
X126601939Y-110665000D01*
X126398061Y-110665000D01*
X126198102Y-110704774D01*
X126009744Y-110782795D01*
X125840226Y-110896063D01*
X125696063Y-111040226D01*
X125582795Y-111209744D01*
X125504774Y-111398102D01*
X125465000Y-111598061D01*
X117235256Y-111598061D01*
X117114598Y-111548083D01*
X116873110Y-111500048D01*
X116626890Y-111500048D01*
X116598690Y-111505657D01*
X116762624Y-111109884D01*
X116910001Y-110368971D01*
X116910001Y-109613541D01*
X116762624Y-108872628D01*
X116607474Y-108498061D01*
X130315000Y-108498061D01*
X130315000Y-108701939D01*
X130354774Y-108901898D01*
X130432795Y-109090256D01*
X130546063Y-109259774D01*
X130690226Y-109403937D01*
X130859744Y-109517205D01*
X131048102Y-109595226D01*
X131248061Y-109635000D01*
X131451939Y-109635000D01*
X131651898Y-109595226D01*
X131840256Y-109517205D01*
X132009774Y-109403937D01*
X132153937Y-109259774D01*
X132267205Y-109090256D01*
X132345226Y-108901898D01*
X132385000Y-108701939D01*
X132385000Y-108498061D01*
X132345226Y-108298102D01*
X132267205Y-108109744D01*
X132153937Y-107940226D01*
X132009774Y-107796063D01*
X131840256Y-107682795D01*
X131651898Y-107604774D01*
X131451939Y-107565000D01*
X131248061Y-107565000D01*
X131048102Y-107604774D01*
X130859744Y-107682795D01*
X130690226Y-107796063D01*
X130546063Y-107940226D01*
X130432795Y-108109744D01*
X130354774Y-108298102D01*
X130315000Y-108498061D01*
X116607474Y-108498061D01*
X116473534Y-108174702D01*
X116053840Y-107546586D01*
X115519671Y-107012417D01*
X114891555Y-106592723D01*
X114193629Y-106303633D01*
X113452716Y-106156256D01*
X112697286Y-106156256D01*
X111956373Y-106303633D01*
X111258447Y-106592723D01*
X110630331Y-107012417D01*
X110096162Y-107546586D01*
X109676468Y-108174702D01*
X109387378Y-108872628D01*
X109359999Y-109010271D01*
X109359999Y-105348061D01*
X127265000Y-105348061D01*
X127265000Y-105551939D01*
X127304774Y-105751898D01*
X127382795Y-105940256D01*
X127496063Y-106109774D01*
X127640226Y-106253937D01*
X127809744Y-106367205D01*
X127998102Y-106445226D01*
X128198061Y-106485000D01*
X128401939Y-106485000D01*
X128601898Y-106445226D01*
X128790256Y-106367205D01*
X128959774Y-106253937D01*
X129103937Y-106109774D01*
X129217205Y-105940256D01*
X129295226Y-105751898D01*
X129335000Y-105551939D01*
X129335000Y-105348061D01*
X129295226Y-105148102D01*
X129217205Y-104959744D01*
X129103937Y-104790226D01*
X128959774Y-104646063D01*
X128790256Y-104532795D01*
X128601898Y-104454774D01*
X128401939Y-104415000D01*
X128198061Y-104415000D01*
X127998102Y-104454774D01*
X127809744Y-104532795D01*
X127640226Y-104646063D01*
X127496063Y-104790226D01*
X127382795Y-104959744D01*
X127304774Y-105148102D01*
X127265000Y-105348061D01*
X109359999Y-105348061D01*
X109359999Y-103998061D01*
X123315000Y-103998061D01*
X123315000Y-104201939D01*
X123354774Y-104401898D01*
X123432795Y-104590256D01*
X123546063Y-104759774D01*
X123690226Y-104903937D01*
X123859744Y-105017205D01*
X124048102Y-105095226D01*
X124248061Y-105135000D01*
X124451939Y-105135000D01*
X124651898Y-105095226D01*
X124840256Y-105017205D01*
X125009774Y-104903937D01*
X125153937Y-104759774D01*
X125267205Y-104590256D01*
X125345226Y-104401898D01*
X125385000Y-104201939D01*
X125385000Y-103998061D01*
X125345226Y-103798102D01*
X125267205Y-103609744D01*
X125153937Y-103440226D01*
X125011772Y-103298061D01*
X132165000Y-103298061D01*
X132165000Y-103501939D01*
X132204774Y-103701898D01*
X132282795Y-103890256D01*
X132396063Y-104059774D01*
X132540226Y-104203937D01*
X132709744Y-104317205D01*
X132898102Y-104395226D01*
X133098061Y-104435000D01*
X133301939Y-104435000D01*
X133501898Y-104395226D01*
X133690256Y-104317205D01*
X133859774Y-104203937D01*
X133915650Y-104148061D01*
X134915000Y-104148061D01*
X134915000Y-104351939D01*
X134954774Y-104551898D01*
X135032795Y-104740256D01*
X135146063Y-104909774D01*
X135290226Y-105053937D01*
X135459744Y-105167205D01*
X135648102Y-105245226D01*
X135848061Y-105285000D01*
X136051939Y-105285000D01*
X136251898Y-105245226D01*
X136440256Y-105167205D01*
X136609774Y-105053937D01*
X136753937Y-104909774D01*
X136867205Y-104740256D01*
X136945226Y-104551898D01*
X136985000Y-104351939D01*
X136985000Y-104198061D01*
X140615000Y-104198061D01*
X140615000Y-104401939D01*
X140654774Y-104601898D01*
X140732795Y-104790256D01*
X140846063Y-104959774D01*
X140990226Y-105103937D01*
X141159744Y-105217205D01*
X141348102Y-105295226D01*
X141548061Y-105335000D01*
X141751939Y-105335000D01*
X141951898Y-105295226D01*
X142140256Y-105217205D01*
X142309774Y-105103937D01*
X142453937Y-104959774D01*
X142567205Y-104790256D01*
X142645226Y-104601898D01*
X142685000Y-104401939D01*
X142685000Y-104198061D01*
X142645226Y-103998102D01*
X142567205Y-103809744D01*
X142453937Y-103640226D01*
X142309774Y-103496063D01*
X142140256Y-103382795D01*
X141951898Y-103304774D01*
X141751939Y-103265000D01*
X141548061Y-103265000D01*
X141348102Y-103304774D01*
X141159744Y-103382795D01*
X140990226Y-103496063D01*
X140846063Y-103640226D01*
X140732795Y-103809744D01*
X140654774Y-103998102D01*
X140615000Y-104198061D01*
X136985000Y-104198061D01*
X136985000Y-104148061D01*
X136945226Y-103948102D01*
X136867205Y-103759744D01*
X136753937Y-103590226D01*
X136609774Y-103446063D01*
X136440256Y-103332795D01*
X136251898Y-103254774D01*
X136051939Y-103215000D01*
X135848061Y-103215000D01*
X135648102Y-103254774D01*
X135459744Y-103332795D01*
X135290226Y-103446063D01*
X135146063Y-103590226D01*
X135032795Y-103759744D01*
X134954774Y-103948102D01*
X134915000Y-104148061D01*
X133915650Y-104148061D01*
X134003937Y-104059774D01*
X134117205Y-103890256D01*
X134195226Y-103701898D01*
X134235000Y-103501939D01*
X134235000Y-103298061D01*
X134195226Y-103098102D01*
X134117205Y-102909744D01*
X134003937Y-102740226D01*
X133859774Y-102596063D01*
X133690256Y-102482795D01*
X133501898Y-102404774D01*
X133301939Y-102365000D01*
X133098061Y-102365000D01*
X132898102Y-102404774D01*
X132709744Y-102482795D01*
X132540226Y-102596063D01*
X132396063Y-102740226D01*
X132282795Y-102909744D01*
X132204774Y-103098102D01*
X132165000Y-103298061D01*
X125011772Y-103298061D01*
X125009774Y-103296063D01*
X124840256Y-103182795D01*
X124651898Y-103104774D01*
X124451939Y-103065000D01*
X124248061Y-103065000D01*
X124048102Y-103104774D01*
X123859744Y-103182795D01*
X123690226Y-103296063D01*
X123546063Y-103440226D01*
X123432795Y-103609744D01*
X123354774Y-103798102D01*
X123315000Y-103998061D01*
X109359999Y-103998061D01*
X109359999Y-99962835D01*
X146240000Y-99962835D01*
X146240000Y-100137165D01*
X146274010Y-100308145D01*
X146340723Y-100469205D01*
X146437576Y-100614155D01*
X146560845Y-100737424D01*
X146705795Y-100834277D01*
X146821124Y-100882048D01*
X146815000Y-100912835D01*
X146815000Y-101087165D01*
X146849010Y-101258145D01*
X146915723Y-101419205D01*
X147012576Y-101564155D01*
X147135845Y-101687424D01*
X147280795Y-101784277D01*
X147441855Y-101850990D01*
X147612835Y-101885000D01*
X147787165Y-101885000D01*
X147958145Y-101850990D01*
X148119205Y-101784277D01*
X148264155Y-101687424D01*
X148387424Y-101564155D01*
X148484277Y-101419205D01*
X148550990Y-101258145D01*
X148585000Y-101087165D01*
X148585000Y-100912835D01*
X148578876Y-100882048D01*
X148694205Y-100834277D01*
X148839155Y-100737424D01*
X148962424Y-100614155D01*
X149059277Y-100469205D01*
X149125990Y-100308145D01*
X149160000Y-100137165D01*
X149160000Y-99962835D01*
X149125990Y-99791855D01*
X149059277Y-99630795D01*
X148962424Y-99485845D01*
X148839155Y-99362576D01*
X148694205Y-99265723D01*
X148578876Y-99217952D01*
X148585000Y-99187165D01*
X148585000Y-99012835D01*
X148550990Y-98841855D01*
X148484277Y-98680795D01*
X148395587Y-98548061D01*
X149665000Y-98548061D01*
X149665000Y-98751939D01*
X149704774Y-98951898D01*
X149782795Y-99140256D01*
X149896063Y-99309774D01*
X150040226Y-99453937D01*
X150209744Y-99567205D01*
X150398102Y-99645226D01*
X150598061Y-99685000D01*
X150801939Y-99685000D01*
X151001898Y-99645226D01*
X151190256Y-99567205D01*
X151359774Y-99453937D01*
X151503937Y-99309774D01*
X151617205Y-99140256D01*
X151695226Y-98951898D01*
X151735000Y-98751939D01*
X151735000Y-98548061D01*
X151695226Y-98348102D01*
X151617205Y-98159744D01*
X151503937Y-97990226D01*
X151359774Y-97846063D01*
X151190256Y-97732795D01*
X151001898Y-97654774D01*
X150801939Y-97615000D01*
X150598061Y-97615000D01*
X150398102Y-97654774D01*
X150209744Y-97732795D01*
X150040226Y-97846063D01*
X149896063Y-97990226D01*
X149782795Y-98159744D01*
X149704774Y-98348102D01*
X149665000Y-98548061D01*
X148395587Y-98548061D01*
X148387424Y-98535845D01*
X148264155Y-98412576D01*
X148119205Y-98315723D01*
X147958145Y-98249010D01*
X147787165Y-98215000D01*
X147612835Y-98215000D01*
X147441855Y-98249010D01*
X147280795Y-98315723D01*
X147135845Y-98412576D01*
X147012576Y-98535845D01*
X146915723Y-98680795D01*
X146849010Y-98841855D01*
X146815000Y-99012835D01*
X146815000Y-99187165D01*
X146821124Y-99217952D01*
X146705795Y-99265723D01*
X146560845Y-99362576D01*
X146437576Y-99485845D01*
X146340723Y-99630795D01*
X146274010Y-99791855D01*
X146240000Y-99962835D01*
X109359999Y-99962835D01*
X109359999Y-95150000D01*
X121761928Y-95150000D01*
X121761928Y-96850000D01*
X121774188Y-96974482D01*
X121810498Y-97094180D01*
X121869463Y-97204494D01*
X121948815Y-97301185D01*
X122045506Y-97380537D01*
X122155820Y-97439502D01*
X122275518Y-97475812D01*
X122400000Y-97488072D01*
X124100000Y-97488072D01*
X124224482Y-97475812D01*
X124344180Y-97439502D01*
X124454494Y-97380537D01*
X124551185Y-97301185D01*
X124630537Y-97204494D01*
X124689502Y-97094180D01*
X124711513Y-97021620D01*
X124843368Y-97153475D01*
X125086589Y-97315990D01*
X125356842Y-97427932D01*
X125643740Y-97485000D01*
X125936260Y-97485000D01*
X126223158Y-97427932D01*
X126493411Y-97315990D01*
X126736632Y-97153475D01*
X126943475Y-96946632D01*
X127060000Y-96772240D01*
X127176525Y-96946632D01*
X127383368Y-97153475D01*
X127626589Y-97315990D01*
X127896842Y-97427932D01*
X128183740Y-97485000D01*
X128476260Y-97485000D01*
X128763158Y-97427932D01*
X129033411Y-97315990D01*
X129276632Y-97153475D01*
X129483475Y-96946632D01*
X129600000Y-96772240D01*
X129716525Y-96946632D01*
X129923368Y-97153475D01*
X130166589Y-97315990D01*
X130436842Y-97427932D01*
X130723740Y-97485000D01*
X131016260Y-97485000D01*
X131303158Y-97427932D01*
X131573411Y-97315990D01*
X131816632Y-97153475D01*
X132023475Y-96946632D01*
X132185990Y-96703411D01*
X132297932Y-96433158D01*
X132355000Y-96146260D01*
X132355000Y-95853740D01*
X132297932Y-95566842D01*
X132185990Y-95296589D01*
X132023475Y-95053368D01*
X131816632Y-94846525D01*
X131642240Y-94730000D01*
X131690040Y-94698061D01*
X146765000Y-94698061D01*
X146765000Y-94901939D01*
X146804774Y-95101898D01*
X146882795Y-95290256D01*
X146996063Y-95459774D01*
X147140226Y-95603937D01*
X147309744Y-95717205D01*
X147498102Y-95795226D01*
X147698061Y-95835000D01*
X147901939Y-95835000D01*
X148101898Y-95795226D01*
X148290256Y-95717205D01*
X148459774Y-95603937D01*
X148603937Y-95459774D01*
X148717205Y-95290256D01*
X148795226Y-95101898D01*
X148835000Y-94901939D01*
X148835000Y-94698061D01*
X148795226Y-94498102D01*
X148717205Y-94309744D01*
X148603937Y-94140226D01*
X148459774Y-93996063D01*
X148290256Y-93882795D01*
X148101898Y-93804774D01*
X147901939Y-93765000D01*
X147698061Y-93765000D01*
X147498102Y-93804774D01*
X147309744Y-93882795D01*
X147140226Y-93996063D01*
X146996063Y-94140226D01*
X146882795Y-94309744D01*
X146804774Y-94498102D01*
X146765000Y-94698061D01*
X131690040Y-94698061D01*
X131816632Y-94613475D01*
X132023475Y-94406632D01*
X132185990Y-94163411D01*
X132297932Y-93893158D01*
X132355000Y-93606260D01*
X132355000Y-93313740D01*
X132297932Y-93026842D01*
X132185990Y-92756589D01*
X132023475Y-92513368D01*
X131816632Y-92306525D01*
X131573411Y-92144010D01*
X131303158Y-92032068D01*
X131016260Y-91975000D01*
X130723740Y-91975000D01*
X130436842Y-92032068D01*
X130166589Y-92144010D01*
X129923368Y-92306525D01*
X129716525Y-92513368D01*
X129600000Y-92687760D01*
X129483475Y-92513368D01*
X129276632Y-92306525D01*
X129033411Y-92144010D01*
X128763158Y-92032068D01*
X128476260Y-91975000D01*
X128183740Y-91975000D01*
X127896842Y-92032068D01*
X127626589Y-92144010D01*
X127383368Y-92306525D01*
X127176525Y-92513368D01*
X127060000Y-92687760D01*
X126943475Y-92513368D01*
X126736632Y-92306525D01*
X126493411Y-92144010D01*
X126223158Y-92032068D01*
X125936260Y-91975000D01*
X125894235Y-91975000D01*
X125945226Y-91851898D01*
X125985000Y-91651939D01*
X125985000Y-91448061D01*
X125945226Y-91248102D01*
X125867205Y-91059744D01*
X125769155Y-90913000D01*
X148669928Y-90913000D01*
X148669928Y-92613000D01*
X148682188Y-92737482D01*
X148718498Y-92857180D01*
X148777463Y-92967494D01*
X148856815Y-93064185D01*
X148953506Y-93143537D01*
X149063820Y-93202502D01*
X149183518Y-93238812D01*
X149308000Y-93251072D01*
X151008000Y-93251072D01*
X151132482Y-93238812D01*
X151252180Y-93202502D01*
X151362494Y-93143537D01*
X151459185Y-93064185D01*
X151538537Y-92967494D01*
X151597502Y-92857180D01*
X151633812Y-92737482D01*
X151646072Y-92613000D01*
X151646072Y-90913000D01*
X151633812Y-90788518D01*
X151597502Y-90668820D01*
X151538537Y-90558506D01*
X151459185Y-90461815D01*
X151362494Y-90382463D01*
X151252180Y-90323498D01*
X151179620Y-90301487D01*
X151311475Y-90169632D01*
X151473990Y-89926411D01*
X151585932Y-89656158D01*
X151643000Y-89369260D01*
X151643000Y-89076740D01*
X151585932Y-88789842D01*
X151473990Y-88519589D01*
X151311475Y-88276368D01*
X151104632Y-88069525D01*
X150930240Y-87953000D01*
X151104632Y-87836475D01*
X151311475Y-87629632D01*
X151473990Y-87386411D01*
X151585932Y-87116158D01*
X151643000Y-86829260D01*
X151643000Y-86536740D01*
X151585932Y-86249842D01*
X151473990Y-85979589D01*
X151311475Y-85736368D01*
X151104632Y-85529525D01*
X150930240Y-85413000D01*
X151104632Y-85296475D01*
X151311475Y-85089632D01*
X151473990Y-84846411D01*
X151585932Y-84576158D01*
X151643000Y-84289260D01*
X151643000Y-83996740D01*
X151585932Y-83709842D01*
X151473990Y-83439589D01*
X151311475Y-83196368D01*
X151104632Y-82989525D01*
X150930240Y-82873000D01*
X151104632Y-82756475D01*
X151311475Y-82549632D01*
X151473990Y-82306411D01*
X151585932Y-82036158D01*
X151643000Y-81749260D01*
X151643000Y-81456740D01*
X151585932Y-81169842D01*
X151473990Y-80899589D01*
X151311475Y-80656368D01*
X151104632Y-80449525D01*
X150930240Y-80333000D01*
X151104632Y-80216475D01*
X151311475Y-80009632D01*
X151473990Y-79766411D01*
X151585932Y-79496158D01*
X151643000Y-79209260D01*
X151643000Y-78916740D01*
X151585932Y-78629842D01*
X151473990Y-78359589D01*
X151311475Y-78116368D01*
X151104632Y-77909525D01*
X150861411Y-77747010D01*
X150591158Y-77635068D01*
X150304260Y-77578000D01*
X150011740Y-77578000D01*
X149724842Y-77635068D01*
X149454589Y-77747010D01*
X149211368Y-77909525D01*
X149004525Y-78116368D01*
X148842010Y-78359589D01*
X148730068Y-78629842D01*
X148673000Y-78916740D01*
X148673000Y-79209260D01*
X148730068Y-79496158D01*
X148842010Y-79766411D01*
X149004525Y-80009632D01*
X149211368Y-80216475D01*
X149385760Y-80333000D01*
X149211368Y-80449525D01*
X149004525Y-80656368D01*
X148842010Y-80899589D01*
X148730068Y-81169842D01*
X148673000Y-81456740D01*
X148673000Y-81749260D01*
X148730068Y-82036158D01*
X148842010Y-82306411D01*
X149004525Y-82549632D01*
X149211368Y-82756475D01*
X149385760Y-82873000D01*
X149211368Y-82989525D01*
X149004525Y-83196368D01*
X148842010Y-83439589D01*
X148730068Y-83709842D01*
X148673000Y-83996740D01*
X148673000Y-84289260D01*
X148730068Y-84576158D01*
X148842010Y-84846411D01*
X149004525Y-85089632D01*
X149211368Y-85296475D01*
X149385760Y-85413000D01*
X149211368Y-85529525D01*
X149004525Y-85736368D01*
X148842010Y-85979589D01*
X148730068Y-86249842D01*
X148673000Y-86536740D01*
X148673000Y-86829260D01*
X148730068Y-87116158D01*
X148842010Y-87386411D01*
X149004525Y-87629632D01*
X149211368Y-87836475D01*
X149385760Y-87953000D01*
X149211368Y-88069525D01*
X149004525Y-88276368D01*
X148842010Y-88519589D01*
X148730068Y-88789842D01*
X148673000Y-89076740D01*
X148673000Y-89369260D01*
X148730068Y-89656158D01*
X148842010Y-89926411D01*
X149004525Y-90169632D01*
X149136380Y-90301487D01*
X149063820Y-90323498D01*
X148953506Y-90382463D01*
X148856815Y-90461815D01*
X148777463Y-90558506D01*
X148718498Y-90668820D01*
X148682188Y-90788518D01*
X148669928Y-90913000D01*
X125769155Y-90913000D01*
X125753937Y-90890226D01*
X125609774Y-90746063D01*
X125440256Y-90632795D01*
X125251898Y-90554774D01*
X125051939Y-90515000D01*
X124848061Y-90515000D01*
X124648102Y-90554774D01*
X124459744Y-90632795D01*
X124290226Y-90746063D01*
X124146063Y-90890226D01*
X124032795Y-91059744D01*
X123954774Y-91248102D01*
X123915000Y-91448061D01*
X123915000Y-91651939D01*
X123954774Y-91851898D01*
X124032795Y-92040256D01*
X124146063Y-92209774D01*
X124290226Y-92353937D01*
X124459744Y-92467205D01*
X124622362Y-92534564D01*
X124520000Y-92687760D01*
X124403475Y-92513368D01*
X124196632Y-92306525D01*
X123953411Y-92144010D01*
X123683158Y-92032068D01*
X123396260Y-91975000D01*
X123103740Y-91975000D01*
X122816842Y-92032068D01*
X122546589Y-92144010D01*
X122303368Y-92306525D01*
X122096525Y-92513368D01*
X121934010Y-92756589D01*
X121822068Y-93026842D01*
X121765000Y-93313740D01*
X121765000Y-93606260D01*
X121822068Y-93893158D01*
X121934010Y-94163411D01*
X122096525Y-94406632D01*
X122228380Y-94538487D01*
X122155820Y-94560498D01*
X122045506Y-94619463D01*
X121948815Y-94698815D01*
X121869463Y-94795506D01*
X121810498Y-94905820D01*
X121774188Y-95025518D01*
X121761928Y-95150000D01*
X109359999Y-95150000D01*
X109360000Y-89598061D01*
X114115000Y-89598061D01*
X114115000Y-89801939D01*
X114154774Y-90001898D01*
X114232795Y-90190256D01*
X114346063Y-90359774D01*
X114490226Y-90503937D01*
X114659744Y-90617205D01*
X114848102Y-90695226D01*
X115048061Y-90735000D01*
X115251939Y-90735000D01*
X115451898Y-90695226D01*
X115640256Y-90617205D01*
X115809774Y-90503937D01*
X115953937Y-90359774D01*
X116067205Y-90190256D01*
X116145226Y-90001898D01*
X116185000Y-89801939D01*
X116185000Y-89598061D01*
X116145226Y-89398102D01*
X116067205Y-89209744D01*
X115953937Y-89040226D01*
X115809774Y-88896063D01*
X115737934Y-88848061D01*
X117315000Y-88848061D01*
X117315000Y-89051939D01*
X117354774Y-89251898D01*
X117432795Y-89440256D01*
X117546063Y-89609774D01*
X117690226Y-89753937D01*
X117859744Y-89867205D01*
X118048102Y-89945226D01*
X118248061Y-89985000D01*
X118451939Y-89985000D01*
X118651898Y-89945226D01*
X118840256Y-89867205D01*
X119009774Y-89753937D01*
X119153937Y-89609774D01*
X119267205Y-89440256D01*
X119345226Y-89251898D01*
X119385000Y-89051939D01*
X119385000Y-88848061D01*
X119345226Y-88648102D01*
X119267205Y-88459744D01*
X119153937Y-88290226D01*
X119009774Y-88146063D01*
X118840256Y-88032795D01*
X118651898Y-87954774D01*
X118451939Y-87915000D01*
X118248061Y-87915000D01*
X118048102Y-87954774D01*
X117859744Y-88032795D01*
X117690226Y-88146063D01*
X117546063Y-88290226D01*
X117432795Y-88459744D01*
X117354774Y-88648102D01*
X117315000Y-88848061D01*
X115737934Y-88848061D01*
X115640256Y-88782795D01*
X115451898Y-88704774D01*
X115251939Y-88665000D01*
X115048061Y-88665000D01*
X114848102Y-88704774D01*
X114659744Y-88782795D01*
X114490226Y-88896063D01*
X114346063Y-89040226D01*
X114232795Y-89209744D01*
X114154774Y-89398102D01*
X114115000Y-89598061D01*
X109360000Y-89598061D01*
X109360000Y-86848061D01*
X132715000Y-86848061D01*
X132715000Y-87051939D01*
X132754774Y-87251898D01*
X132832795Y-87440256D01*
X132946063Y-87609774D01*
X133090226Y-87753937D01*
X133259744Y-87867205D01*
X133448102Y-87945226D01*
X133648061Y-87985000D01*
X133851939Y-87985000D01*
X134051898Y-87945226D01*
X134240256Y-87867205D01*
X134409774Y-87753937D01*
X134553937Y-87609774D01*
X134667205Y-87440256D01*
X134745226Y-87251898D01*
X134785000Y-87051939D01*
X134785000Y-86848061D01*
X134745226Y-86648102D01*
X134667205Y-86459744D01*
X134553937Y-86290226D01*
X134409774Y-86146063D01*
X134240256Y-86032795D01*
X134051898Y-85954774D01*
X133851939Y-85915000D01*
X133648061Y-85915000D01*
X133448102Y-85954774D01*
X133259744Y-86032795D01*
X133090226Y-86146063D01*
X132946063Y-86290226D01*
X132832795Y-86459744D01*
X132754774Y-86648102D01*
X132715000Y-86848061D01*
X109360000Y-86848061D01*
X109360000Y-77100000D01*
X114511928Y-77100000D01*
X114511928Y-78800000D01*
X114524188Y-78924482D01*
X114560498Y-79044180D01*
X114619463Y-79154494D01*
X114698815Y-79251185D01*
X114795506Y-79330537D01*
X114905820Y-79389502D01*
X114978380Y-79411513D01*
X114846525Y-79543368D01*
X114684010Y-79786589D01*
X114572068Y-80056842D01*
X114515000Y-80343740D01*
X114515000Y-80636260D01*
X114572068Y-80923158D01*
X114684010Y-81193411D01*
X114846525Y-81436632D01*
X115053368Y-81643475D01*
X115227760Y-81760000D01*
X115053368Y-81876525D01*
X114846525Y-82083368D01*
X114684010Y-82326589D01*
X114572068Y-82596842D01*
X114515000Y-82883740D01*
X114515000Y-83176260D01*
X114572068Y-83463158D01*
X114684010Y-83733411D01*
X114846525Y-83976632D01*
X115053368Y-84183475D01*
X115296589Y-84345990D01*
X115566842Y-84457932D01*
X115853740Y-84515000D01*
X116146260Y-84515000D01*
X116433158Y-84457932D01*
X116703411Y-84345990D01*
X116946632Y-84183475D01*
X117153475Y-83976632D01*
X117270000Y-83802240D01*
X117386525Y-83976632D01*
X117593368Y-84183475D01*
X117836589Y-84345990D01*
X118106842Y-84457932D01*
X118393740Y-84515000D01*
X118686260Y-84515000D01*
X118973158Y-84457932D01*
X119243411Y-84345990D01*
X119486632Y-84183475D01*
X119693475Y-83976632D01*
X119855990Y-83733411D01*
X119967932Y-83463158D01*
X120025000Y-83176260D01*
X120025000Y-82883740D01*
X119967932Y-82596842D01*
X119855990Y-82326589D01*
X119693475Y-82083368D01*
X119486632Y-81876525D01*
X119312240Y-81760000D01*
X119486632Y-81643475D01*
X119693475Y-81436632D01*
X119855990Y-81193411D01*
X119967932Y-80923158D01*
X120025000Y-80636260D01*
X120025000Y-80343740D01*
X119967932Y-80056842D01*
X119855990Y-79786589D01*
X119763429Y-79648061D01*
X128665000Y-79648061D01*
X128665000Y-79851939D01*
X128704774Y-80051898D01*
X128782795Y-80240256D01*
X128896063Y-80409774D01*
X129040226Y-80553937D01*
X129209744Y-80667205D01*
X129398102Y-80745226D01*
X129598061Y-80785000D01*
X129801939Y-80785000D01*
X130001898Y-80745226D01*
X130190256Y-80667205D01*
X130359774Y-80553937D01*
X130503937Y-80409774D01*
X130617205Y-80240256D01*
X130695226Y-80051898D01*
X130735000Y-79851939D01*
X130735000Y-79648061D01*
X130695226Y-79448102D01*
X130617205Y-79259744D01*
X130503937Y-79090226D01*
X130359774Y-78946063D01*
X130190256Y-78832795D01*
X130001898Y-78754774D01*
X129801939Y-78715000D01*
X129598061Y-78715000D01*
X129398102Y-78754774D01*
X129209744Y-78832795D01*
X129040226Y-78946063D01*
X128896063Y-79090226D01*
X128782795Y-79259744D01*
X128704774Y-79448102D01*
X128665000Y-79648061D01*
X119763429Y-79648061D01*
X119693475Y-79543368D01*
X119486632Y-79336525D01*
X119304466Y-79214805D01*
X119421355Y-79145178D01*
X119637588Y-78950269D01*
X119811641Y-78716920D01*
X119936825Y-78454099D01*
X119981476Y-78306890D01*
X119860155Y-78077000D01*
X118667000Y-78077000D01*
X118667000Y-78097000D01*
X118413000Y-78097000D01*
X118413000Y-78077000D01*
X118393000Y-78077000D01*
X118393000Y-77848061D01*
X132565000Y-77848061D01*
X132565000Y-78051939D01*
X132604774Y-78251898D01*
X132682795Y-78440256D01*
X132772828Y-78575000D01*
X132682795Y-78709744D01*
X132604774Y-78898102D01*
X132565000Y-79098061D01*
X132565000Y-79301939D01*
X132604774Y-79501898D01*
X132682795Y-79690256D01*
X132796063Y-79859774D01*
X132940226Y-80003937D01*
X133109744Y-80117205D01*
X133298102Y-80195226D01*
X133498061Y-80235000D01*
X133701939Y-80235000D01*
X133901898Y-80195226D01*
X134090256Y-80117205D01*
X134259774Y-80003937D01*
X134403937Y-79859774D01*
X134517205Y-79690256D01*
X134595226Y-79501898D01*
X134635000Y-79301939D01*
X134635000Y-79098061D01*
X134595226Y-78898102D01*
X134517205Y-78709744D01*
X134427172Y-78575000D01*
X134517205Y-78440256D01*
X134576104Y-78298061D01*
X144715000Y-78298061D01*
X144715000Y-78501939D01*
X144754774Y-78701898D01*
X144832795Y-78890256D01*
X144946063Y-79059774D01*
X145090226Y-79203937D01*
X145259744Y-79317205D01*
X145448102Y-79395226D01*
X145648061Y-79435000D01*
X145851939Y-79435000D01*
X146051898Y-79395226D01*
X146240256Y-79317205D01*
X146409774Y-79203937D01*
X146553937Y-79059774D01*
X146667205Y-78890256D01*
X146745226Y-78701898D01*
X146785000Y-78501939D01*
X146785000Y-78298061D01*
X146745226Y-78098102D01*
X146667205Y-77909744D01*
X146553937Y-77740226D01*
X146409774Y-77596063D01*
X146240256Y-77482795D01*
X146051898Y-77404774D01*
X145851939Y-77365000D01*
X145648061Y-77365000D01*
X145448102Y-77404774D01*
X145259744Y-77482795D01*
X145090226Y-77596063D01*
X144946063Y-77740226D01*
X144832795Y-77909744D01*
X144754774Y-78098102D01*
X144715000Y-78298061D01*
X134576104Y-78298061D01*
X134595226Y-78251898D01*
X134635000Y-78051939D01*
X134635000Y-77848061D01*
X134595226Y-77648102D01*
X134517205Y-77459744D01*
X134403937Y-77290226D01*
X134259774Y-77146063D01*
X134090256Y-77032795D01*
X133901898Y-76954774D01*
X133701939Y-76915000D01*
X133498061Y-76915000D01*
X133298102Y-76954774D01*
X133109744Y-77032795D01*
X132940226Y-77146063D01*
X132796063Y-77290226D01*
X132682795Y-77459744D01*
X132604774Y-77648102D01*
X132565000Y-77848061D01*
X118393000Y-77848061D01*
X118393000Y-77823000D01*
X118413000Y-77823000D01*
X118413000Y-76629186D01*
X118667000Y-76629186D01*
X118667000Y-77823000D01*
X119860155Y-77823000D01*
X119981476Y-77593110D01*
X119936825Y-77445901D01*
X119811641Y-77183080D01*
X119637588Y-76949731D01*
X119421355Y-76754822D01*
X119171252Y-76605843D01*
X118896891Y-76508519D01*
X118667000Y-76629186D01*
X118413000Y-76629186D01*
X118183109Y-76508519D01*
X117908748Y-76605843D01*
X117658645Y-76754822D01*
X117462498Y-76931626D01*
X117439502Y-76855820D01*
X117380537Y-76745506D01*
X117301185Y-76648815D01*
X117204494Y-76569463D01*
X117094180Y-76510498D01*
X116974482Y-76474188D01*
X116850000Y-76461928D01*
X115150000Y-76461928D01*
X115025518Y-76474188D01*
X114905820Y-76510498D01*
X114795506Y-76569463D01*
X114698815Y-76648815D01*
X114619463Y-76745506D01*
X114560498Y-76855820D01*
X114524188Y-76975518D01*
X114511928Y-77100000D01*
X109360000Y-77100000D01*
X109360000Y-76198061D01*
X134015000Y-76198061D01*
X134015000Y-76401939D01*
X134054774Y-76601898D01*
X134132795Y-76790256D01*
X134246063Y-76959774D01*
X134390226Y-77103937D01*
X134559744Y-77217205D01*
X134748102Y-77295226D01*
X134948061Y-77335000D01*
X135151939Y-77335000D01*
X135351898Y-77295226D01*
X135540256Y-77217205D01*
X135709774Y-77103937D01*
X135853937Y-76959774D01*
X135937308Y-76835000D01*
X136101939Y-76835000D01*
X136301898Y-76795226D01*
X136490256Y-76717205D01*
X136659774Y-76603937D01*
X136803937Y-76459774D01*
X136917205Y-76290256D01*
X136995226Y-76101898D01*
X137035000Y-75901939D01*
X137035000Y-75698061D01*
X136995226Y-75498102D01*
X136917205Y-75309744D01*
X136895253Y-75276890D01*
X149000048Y-75276890D01*
X149000048Y-75523110D01*
X149048083Y-75764598D01*
X149142307Y-75992074D01*
X149279099Y-76196798D01*
X149453202Y-76370901D01*
X149657926Y-76507693D01*
X149885402Y-76601917D01*
X150126890Y-76649952D01*
X150373110Y-76649952D01*
X150614598Y-76601917D01*
X150842074Y-76507693D01*
X151046798Y-76370901D01*
X151220901Y-76196798D01*
X151357693Y-75992074D01*
X151451917Y-75764598D01*
X151499952Y-75523110D01*
X151499952Y-75276890D01*
X151451917Y-75035402D01*
X151357693Y-74807926D01*
X151220901Y-74603202D01*
X151046798Y-74429099D01*
X150842074Y-74292307D01*
X150614598Y-74198083D01*
X150373110Y-74150048D01*
X150126890Y-74150048D01*
X149885402Y-74198083D01*
X149657926Y-74292307D01*
X149453202Y-74429099D01*
X149279099Y-74603202D01*
X149142307Y-74807926D01*
X149048083Y-75035402D01*
X149000048Y-75276890D01*
X136895253Y-75276890D01*
X136803937Y-75140226D01*
X136659774Y-74996063D01*
X136490256Y-74882795D01*
X136301898Y-74804774D01*
X136101939Y-74765000D01*
X135898061Y-74765000D01*
X135698102Y-74804774D01*
X135509744Y-74882795D01*
X135340226Y-74996063D01*
X135196063Y-75140226D01*
X135112692Y-75265000D01*
X134948061Y-75265000D01*
X134748102Y-75304774D01*
X134559744Y-75382795D01*
X134390226Y-75496063D01*
X134246063Y-75640226D01*
X134132795Y-75809744D01*
X134054774Y-75998102D01*
X134015000Y-76198061D01*
X109360000Y-76198061D01*
X109360001Y-73676890D01*
X109650048Y-73676890D01*
X109650048Y-73923110D01*
X109698083Y-74164598D01*
X109792307Y-74392074D01*
X109929099Y-74596798D01*
X110103202Y-74770901D01*
X110307926Y-74907693D01*
X110535402Y-75001917D01*
X110776890Y-75049952D01*
X111023110Y-75049952D01*
X111264598Y-75001917D01*
X111492074Y-74907693D01*
X111696798Y-74770901D01*
X111870901Y-74596798D01*
X112007693Y-74392074D01*
X112067345Y-74248061D01*
X116365000Y-74248061D01*
X116365000Y-74451939D01*
X116404774Y-74651898D01*
X116482795Y-74840256D01*
X116596063Y-75009774D01*
X116740226Y-75153937D01*
X116909744Y-75267205D01*
X117098102Y-75345226D01*
X117298061Y-75385000D01*
X117501939Y-75385000D01*
X117701898Y-75345226D01*
X117890256Y-75267205D01*
X118059774Y-75153937D01*
X118203937Y-75009774D01*
X118317205Y-74840256D01*
X118395226Y-74651898D01*
X118435000Y-74451939D01*
X118435000Y-74248061D01*
X118395226Y-74048102D01*
X118317205Y-73859744D01*
X118203937Y-73690226D01*
X118059774Y-73546063D01*
X117890256Y-73432795D01*
X117701898Y-73354774D01*
X117501939Y-73315000D01*
X117298061Y-73315000D01*
X117098102Y-73354774D01*
X116909744Y-73432795D01*
X116740226Y-73546063D01*
X116596063Y-73690226D01*
X116482795Y-73859744D01*
X116404774Y-74048102D01*
X116365000Y-74248061D01*
X112067345Y-74248061D01*
X112101917Y-74164598D01*
X112149952Y-73923110D01*
X112149952Y-73676890D01*
X112101917Y-73435402D01*
X112007693Y-73207926D01*
X111870901Y-73003202D01*
X111696798Y-72829099D01*
X111492074Y-72692307D01*
X111264598Y-72598083D01*
X111023110Y-72550048D01*
X110776890Y-72550048D01*
X110535402Y-72598083D01*
X110307926Y-72692307D01*
X110103202Y-72829099D01*
X109929099Y-73003202D01*
X109792307Y-73207926D01*
X109698083Y-73435402D01*
X109650048Y-73676890D01*
X109360001Y-73676890D01*
X109360002Y-70616448D01*
X109401467Y-70716554D01*
X109821161Y-71344670D01*
X110355330Y-71878839D01*
X110983446Y-72298533D01*
X111681372Y-72587623D01*
X112422285Y-72735000D01*
X113177715Y-72735000D01*
X113918628Y-72587623D01*
X114616554Y-72298533D01*
X114692090Y-72248061D01*
X118715000Y-72248061D01*
X118715000Y-72451939D01*
X118754774Y-72651898D01*
X118832795Y-72840256D01*
X118946063Y-73009774D01*
X119090226Y-73153937D01*
X119259744Y-73267205D01*
X119448102Y-73345226D01*
X119648061Y-73385000D01*
X119851939Y-73385000D01*
X120051898Y-73345226D01*
X120240256Y-73267205D01*
X120409774Y-73153937D01*
X120553937Y-73009774D01*
X120667205Y-72840256D01*
X120745226Y-72651898D01*
X120785000Y-72451939D01*
X120785000Y-72248061D01*
X120745226Y-72048102D01*
X120667205Y-71859744D01*
X120553937Y-71690226D01*
X120409774Y-71546063D01*
X120240256Y-71432795D01*
X120051898Y-71354774D01*
X119851939Y-71315000D01*
X119648061Y-71315000D01*
X119448102Y-71354774D01*
X119259744Y-71432795D01*
X119090226Y-71546063D01*
X118946063Y-71690226D01*
X118832795Y-71859744D01*
X118754774Y-72048102D01*
X118715000Y-72248061D01*
X114692090Y-72248061D01*
X115244670Y-71878839D01*
X115778839Y-71344670D01*
X115943617Y-71098061D01*
X138165000Y-71098061D01*
X138165000Y-71301939D01*
X138204774Y-71501898D01*
X138282795Y-71690256D01*
X138396063Y-71859774D01*
X138540226Y-72003937D01*
X138709744Y-72117205D01*
X138898102Y-72195226D01*
X139098061Y-72235000D01*
X139301939Y-72235000D01*
X139501898Y-72195226D01*
X139690256Y-72117205D01*
X139859774Y-72003937D01*
X140003937Y-71859774D01*
X140117205Y-71690256D01*
X140195226Y-71501898D01*
X140235000Y-71301939D01*
X140235000Y-71098061D01*
X140195226Y-70898102D01*
X140117205Y-70709744D01*
X140003937Y-70540226D01*
X139859774Y-70396063D01*
X139690256Y-70282795D01*
X139501898Y-70204774D01*
X139301939Y-70165000D01*
X139098061Y-70165000D01*
X138898102Y-70204774D01*
X138709744Y-70282795D01*
X138540226Y-70396063D01*
X138396063Y-70540226D01*
X138282795Y-70709744D01*
X138204774Y-70898102D01*
X138165000Y-71098061D01*
X115943617Y-71098061D01*
X116198533Y-70716554D01*
X116487623Y-70018628D01*
X116635000Y-69277715D01*
X116635000Y-68522285D01*
X116487623Y-67781372D01*
X116198533Y-67083446D01*
X115778839Y-66455330D01*
X115244670Y-65921161D01*
X114616554Y-65501467D01*
X114145591Y-65306388D01*
X146766363Y-65215397D01*
X146686390Y-65248523D01*
M02*
