G04 #@! TF.GenerationSoftware,KiCad,Pcbnew,7.0.6-7.0.6~ubuntu22.04.1*
G04 #@! TF.CreationDate,2023-08-08T18:58:17+02:00*
G04 #@! TF.ProjectId,Sensor_Nodes,53656e73-6f72-45f4-9e6f-6465732e6b69,rev?*
G04 #@! TF.SameCoordinates,Original*
G04 #@! TF.FileFunction,Copper,L4,Bot*
G04 #@! TF.FilePolarity,Positive*
%FSLAX46Y46*%
G04 Gerber Fmt 4.6, Leading zero omitted, Abs format (unit mm)*
G04 Created by KiCad (PCBNEW 7.0.6-7.0.6~ubuntu22.04.1) date 2023-08-08 18:58:17*
%MOMM*%
%LPD*%
G01*
G04 APERTURE LIST*
G04 #@! TA.AperFunction,ComponentPad*
%ADD10R,1.700000X1.700000*%
G04 #@! TD*
G04 #@! TA.AperFunction,ComponentPad*
%ADD11O,1.700000X1.700000*%
G04 #@! TD*
G04 #@! TA.AperFunction,ComponentPad*
%ADD12C,0.800000*%
G04 #@! TD*
G04 #@! TA.AperFunction,ComponentPad*
%ADD13C,6.400000*%
G04 #@! TD*
G04 #@! TA.AperFunction,ComponentPad*
%ADD14C,1.000000*%
G04 #@! TD*
G04 #@! TA.AperFunction,ComponentPad*
%ADD15C,0.500000*%
G04 #@! TD*
G04 #@! TA.AperFunction,SMDPad,CuDef*
%ADD16R,2.500000X2.500000*%
G04 #@! TD*
G04 #@! TA.AperFunction,ComponentPad*
%ADD17O,1.800000X1.000000*%
G04 #@! TD*
G04 #@! TA.AperFunction,ComponentPad*
%ADD18O,2.100000X1.000000*%
G04 #@! TD*
G04 #@! TA.AperFunction,ViaPad*
%ADD19C,0.500000*%
G04 #@! TD*
G04 #@! TA.AperFunction,ViaPad*
%ADD20C,0.800000*%
G04 #@! TD*
G04 #@! TA.AperFunction,Conductor*
%ADD21C,0.500000*%
G04 #@! TD*
G04 #@! TA.AperFunction,Conductor*
%ADD22C,0.250000*%
G04 #@! TD*
G04 #@! TA.AperFunction,Conductor*
%ADD23C,0.750000*%
G04 #@! TD*
G04 #@! TA.AperFunction,Conductor*
%ADD24C,0.300000*%
G04 #@! TD*
G04 #@! TA.AperFunction,Conductor*
%ADD25C,0.150000*%
G04 #@! TD*
G04 #@! TA.AperFunction,Conductor*
%ADD26C,0.200000*%
G04 #@! TD*
G04 APERTURE END LIST*
D10*
X109500000Y-48780000D03*
D11*
X109500000Y-51320000D03*
X109500000Y-53860000D03*
X109500000Y-56400000D03*
D12*
X105370000Y-66702944D03*
X106072944Y-65005888D03*
X106072944Y-68400000D03*
X107770000Y-64302944D03*
D13*
X107770000Y-66702944D03*
D12*
X107770000Y-69102944D03*
X109467056Y-65005888D03*
X109467056Y-68400000D03*
X110170000Y-66702944D03*
D10*
X113100000Y-45220000D03*
D11*
X113100000Y-47760000D03*
X113100000Y-50300000D03*
X113100000Y-52840000D03*
X113100000Y-55380000D03*
X113100000Y-57920000D03*
X113100000Y-60460000D03*
X113100000Y-63000000D03*
X113100000Y-65540000D03*
X113100000Y-68080000D03*
D12*
X75575000Y-35525000D03*
X76277944Y-33827944D03*
X76277944Y-37222056D03*
X77975000Y-33125000D03*
D13*
X77975000Y-35525000D03*
D12*
X77975000Y-37925000D03*
X79672056Y-33827944D03*
X79672056Y-37222056D03*
X80375000Y-35525000D03*
X111150000Y-35625000D03*
X111852944Y-33927944D03*
X111852944Y-37322056D03*
X113550000Y-33225000D03*
D13*
X113550000Y-35625000D03*
D12*
X113550000Y-38025000D03*
X115247056Y-33927944D03*
X115247056Y-37322056D03*
X115950000Y-35625000D03*
D14*
X101800000Y-58600000D03*
X89650000Y-69175000D03*
D15*
X93485000Y-54335000D03*
X93485000Y-55335000D03*
X93485000Y-56335000D03*
X94485000Y-54335000D03*
D16*
X94485000Y-55335000D03*
D15*
X94485000Y-55335000D03*
X94485000Y-56335000D03*
X95485000Y-54335000D03*
X95485000Y-55335000D03*
X95485000Y-56335000D03*
D14*
X92825000Y-60275000D03*
X85525000Y-59400000D03*
D17*
X77065000Y-57895000D03*
D18*
X81265000Y-57895000D03*
D17*
X77065000Y-49255000D03*
D18*
X81265000Y-49255000D03*
D10*
X88500000Y-43905000D03*
D11*
X88500000Y-41365000D03*
X88500000Y-38825000D03*
X88500000Y-36285000D03*
D14*
X84250000Y-57550000D03*
D19*
X95660000Y-60330000D03*
X94710000Y-60340000D03*
X98220000Y-53550000D03*
X87950000Y-55900000D03*
X101850000Y-54190000D03*
X108375000Y-39450000D03*
X112950000Y-42375000D03*
X101550000Y-41475000D03*
X94075000Y-64325000D03*
X102700000Y-41500000D03*
X91700000Y-49600000D03*
X107550000Y-40425000D03*
X106625000Y-46450000D03*
X102975000Y-35525000D03*
X94075000Y-65925000D03*
X113025000Y-40325000D03*
X100850000Y-53225000D03*
X93000000Y-44000000D03*
X76750000Y-46275000D03*
X96325000Y-42425000D03*
X108950000Y-40400000D03*
X82575000Y-40325000D03*
X104947500Y-47925000D03*
X96675000Y-43125000D03*
X95970000Y-38850000D03*
X88050000Y-57400000D03*
X93275000Y-65125000D03*
X102960000Y-33830000D03*
X107525000Y-37100000D03*
X93275000Y-65925000D03*
X94075000Y-65125000D03*
X100875000Y-36600000D03*
X101000000Y-40100000D03*
X115275000Y-39600000D03*
X93625000Y-34250000D03*
X75075000Y-40275000D03*
X93275000Y-64325000D03*
X92750000Y-49575000D03*
X85950000Y-53700000D03*
X100225000Y-64350000D03*
X94725000Y-49600000D03*
X104050000Y-34350000D03*
X107650000Y-35750000D03*
X101975000Y-35525000D03*
D20*
X87100000Y-61325000D03*
D19*
X108425000Y-42350000D03*
X108375000Y-38425000D03*
X94075000Y-66725000D03*
X101550000Y-42550000D03*
X81800000Y-45325000D03*
X93275000Y-66725000D03*
X102700000Y-42575000D03*
X104900000Y-45825000D03*
X94000000Y-58700000D03*
X94735000Y-51975000D03*
X102550000Y-46200000D03*
X92950000Y-42425000D03*
X97340000Y-38100000D03*
X99075000Y-52425000D03*
X97175000Y-57800000D03*
X103850000Y-37825000D03*
X97625000Y-43175000D03*
X96500000Y-34300000D03*
X91750000Y-48750000D03*
X91500000Y-37900000D03*
D20*
X90975000Y-61575000D03*
X88400000Y-63575000D03*
D19*
X91040873Y-54819564D03*
X96250000Y-58775000D03*
X98850000Y-37575000D03*
X100375000Y-40775000D03*
X83475000Y-52725000D03*
X90775000Y-56875000D03*
X83300000Y-55050000D03*
X91100000Y-57950000D03*
X88275000Y-58925000D03*
X91100000Y-52690000D03*
X89175000Y-58925000D03*
X104775000Y-44675000D03*
X104300000Y-43600000D03*
X97575000Y-52950000D03*
X104350000Y-52625000D03*
X86475000Y-46350000D03*
X103900000Y-47600000D03*
X93225000Y-52000000D03*
X80750000Y-46300000D03*
X100700500Y-43902988D03*
X96425000Y-47575000D03*
X103800000Y-51625000D03*
X102150000Y-44275000D03*
X102100000Y-43550000D03*
X101650000Y-48625000D03*
X103825000Y-50350000D03*
X103150000Y-44275000D03*
X103638800Y-43847300D03*
X101300000Y-49800000D03*
X104150000Y-42750000D03*
X111700000Y-52250000D03*
X104575000Y-42075000D03*
X99850000Y-43600000D03*
X95100000Y-46950000D03*
X95755000Y-48625000D03*
D21*
X91390580Y-54819564D02*
X92650001Y-56078985D01*
X92650001Y-56078985D02*
X92650001Y-56575001D01*
X91040873Y-54819564D02*
X91390580Y-54819564D01*
X92650001Y-56575001D02*
X93925000Y-57850000D01*
X93925000Y-57850000D02*
X95375000Y-57850000D01*
X98450000Y-53780000D02*
X98220000Y-53550000D01*
X98450000Y-55075000D02*
X98450000Y-53780000D01*
D22*
X83475000Y-52725000D02*
X87625000Y-56875000D01*
X87625000Y-56875000D02*
X90775000Y-56875000D01*
D23*
X91100000Y-52690000D02*
X90025000Y-53765000D01*
X90025000Y-53765000D02*
X90025000Y-55671016D01*
X90025000Y-55671016D02*
X90278984Y-55925000D01*
X90278984Y-55925000D02*
X91400000Y-55925000D01*
X91400000Y-55925000D02*
X91875000Y-56400000D01*
X91550000Y-58925000D02*
X88275000Y-58925000D01*
X91875000Y-56400000D02*
X91875000Y-58600000D01*
X91875000Y-58600000D02*
X91550000Y-58925000D01*
D22*
X97650000Y-50520000D02*
X95755000Y-48625000D01*
X99840000Y-54190000D02*
X97650000Y-52000000D01*
X101850000Y-54190000D02*
X99840000Y-54190000D01*
X97650000Y-52000000D02*
X97650000Y-50520000D01*
D24*
X95100000Y-34300000D02*
X96500000Y-34300000D01*
X91500000Y-37900000D02*
X95100000Y-34300000D01*
X88400000Y-63575000D02*
X90400000Y-61575000D01*
X90400000Y-61575000D02*
X90975000Y-61575000D01*
D21*
X96250000Y-58725000D02*
X96250000Y-58775000D01*
X95675000Y-57850000D02*
X98450000Y-55075000D01*
X95375000Y-57850000D02*
X95675000Y-57850000D01*
X95375000Y-57850000D02*
X96250000Y-58725000D01*
D25*
X99570000Y-39970000D02*
X100375000Y-40775000D01*
X99570000Y-38295000D02*
X99570000Y-39970000D01*
X98850000Y-37575000D02*
X99570000Y-38295000D01*
D22*
X87325000Y-58200000D02*
X90850000Y-58200000D01*
X83300000Y-55050000D02*
X84175000Y-55050000D01*
X84175000Y-55050000D02*
X87325000Y-58200000D01*
X90850000Y-58200000D02*
X91100000Y-57950000D01*
D25*
X104775000Y-44675000D02*
X105226472Y-44675000D01*
X105226472Y-44675000D02*
X105626472Y-45075000D01*
X110750000Y-63190000D02*
X113100000Y-65540000D01*
X105626472Y-45075000D02*
X108000000Y-45075000D01*
X108000000Y-45075000D02*
X110750000Y-47825000D01*
X110750000Y-47825000D02*
X110750000Y-63190000D01*
X105500736Y-44525000D02*
X104575736Y-43600000D01*
X108375000Y-44525000D02*
X105500736Y-44525000D01*
X113100000Y-60460000D02*
X111225000Y-58585000D01*
X104575736Y-43600000D02*
X104300000Y-43600000D01*
X111250000Y-49250000D02*
X111250000Y-47400000D01*
X111225000Y-49275000D02*
X111250000Y-49250000D01*
X111250000Y-47400000D02*
X108375000Y-44525000D01*
X111225000Y-58585000D02*
X111225000Y-49275000D01*
X97575000Y-52950000D02*
X95825000Y-51200000D01*
X104350000Y-48050000D02*
X103900000Y-47600000D01*
X95825000Y-51200000D02*
X95825000Y-49875000D01*
X104350000Y-52625000D02*
X104350000Y-48050000D01*
X95825000Y-49875000D02*
X92300000Y-46350000D01*
X92300000Y-46350000D02*
X86475000Y-46350000D01*
D26*
X93225000Y-52000000D02*
X90700000Y-52000000D01*
X90700000Y-52000000D02*
X85000000Y-46300000D01*
X85000000Y-46300000D02*
X80750000Y-46300000D01*
D25*
X97028488Y-47575000D02*
X96425000Y-47575000D01*
X100700500Y-43902988D02*
X97028488Y-47575000D01*
X102125000Y-48428248D02*
X102125000Y-48821752D01*
X102000000Y-49825000D02*
X103800000Y-51625000D01*
X102150000Y-44275000D02*
X102000000Y-44425000D01*
X102000000Y-48946752D02*
X102000000Y-49825000D01*
X102000000Y-44425000D02*
X102000000Y-48303248D01*
X102000000Y-48303248D02*
X102125000Y-48428248D01*
X102125000Y-48821752D02*
X102000000Y-48946752D01*
X102100000Y-43550000D02*
X101650000Y-44000000D01*
X101650000Y-44000000D02*
X101650000Y-48625000D01*
X103150000Y-44275000D02*
X103150000Y-49675000D01*
X103150000Y-49675000D02*
X103825000Y-50350000D01*
X101928248Y-43050000D02*
X102841500Y-43050000D01*
X101175000Y-43803248D02*
X101928248Y-43050000D01*
X101175000Y-49675000D02*
X101175000Y-43803248D01*
X102841500Y-43050000D02*
X103638800Y-43847300D01*
X101300000Y-49800000D02*
X101175000Y-49675000D01*
X111550000Y-46650000D02*
X111000000Y-46650000D01*
X111000000Y-46650000D02*
X108275000Y-43925000D01*
X111700000Y-52250000D02*
X111700000Y-46800000D01*
X111700000Y-46800000D02*
X111550000Y-46650000D01*
X105325000Y-43925000D02*
X104150000Y-42750000D01*
X108275000Y-43925000D02*
X105325000Y-43925000D01*
X107400000Y-42075000D02*
X111875000Y-46550000D01*
X112025000Y-46685000D02*
X112025000Y-49225000D01*
X112025000Y-49225000D02*
X113100000Y-50300000D01*
X111875000Y-46550000D02*
X111890000Y-46550000D01*
X104575000Y-42075000D02*
X107400000Y-42075000D01*
X111890000Y-46550000D02*
X112025000Y-46685000D01*
X99850000Y-43625000D02*
X99850000Y-43600000D01*
X95100000Y-46950000D02*
X96525000Y-46950000D01*
X96525000Y-46950000D02*
X99850000Y-43625000D01*
M02*
