G04 #@! TF.GenerationSoftware,KiCad,Pcbnew,8.0.9-8.0.9-0~ubuntu24.04.1*
G04 #@! TF.CreationDate,2025-04-11T12:42:36+02:00*
G04 #@! TF.ProjectId,Sensor_Nodes,53656e73-6f72-45f4-9e6f-6465732e6b69,rev?*
G04 #@! TF.SameCoordinates,Original*
G04 #@! TF.FileFunction,Copper,L1,Top*
G04 #@! TF.FilePolarity,Positive*
%FSLAX46Y46*%
G04 Gerber Fmt 4.6, Leading zero omitted, Abs format (unit mm)*
G04 Created by KiCad (PCBNEW 8.0.9-8.0.9-0~ubuntu24.04.1) date 2025-04-11 12:42:36*
%MOMM*%
%LPD*%
G01*
G04 APERTURE LIST*
G04 Aperture macros list*
%AMRoundRect*
0 Rectangle with rounded corners*
0 $1 Rounding radius*
0 $2 $3 $4 $5 $6 $7 $8 $9 X,Y pos of 4 corners*
0 Add a 4 corners polygon primitive as box body*
4,1,4,$2,$3,$4,$5,$6,$7,$8,$9,$2,$3,0*
0 Add four circle primitives for the rounded corners*
1,1,$1+$1,$2,$3*
1,1,$1+$1,$4,$5*
1,1,$1+$1,$6,$7*
1,1,$1+$1,$8,$9*
0 Add four rect primitives between the rounded corners*
20,1,$1+$1,$2,$3,$4,$5,0*
20,1,$1+$1,$4,$5,$6,$7,0*
20,1,$1+$1,$6,$7,$8,$9,0*
20,1,$1+$1,$8,$9,$2,$3,0*%
%AMOutline5P*
0 Free polygon, 5 corners , with rotation*
0 The origin of the aperture is its center*
0 number of corners: always 5*
0 $1 to $10 corner X, Y*
0 $11 Rotation angle, in degrees counterclockwise*
0 create outline with 5 corners*
4,1,5,$1,$2,$3,$4,$5,$6,$7,$8,$9,$10,$1,$2,$11*%
%AMOutline6P*
0 Free polygon, 6 corners , with rotation*
0 The origin of the aperture is its center*
0 number of corners: always 6*
0 $1 to $12 corner X, Y*
0 $13 Rotation angle, in degrees counterclockwise*
0 create outline with 6 corners*
4,1,6,$1,$2,$3,$4,$5,$6,$7,$8,$9,$10,$11,$12,$1,$2,$13*%
%AMOutline7P*
0 Free polygon, 7 corners , with rotation*
0 The origin of the aperture is its center*
0 number of corners: always 7*
0 $1 to $14 corner X, Y*
0 $15 Rotation angle, in degrees counterclockwise*
0 create outline with 7 corners*
4,1,7,$1,$2,$3,$4,$5,$6,$7,$8,$9,$10,$11,$12,$13,$14,$1,$2,$15*%
%AMOutline8P*
0 Free polygon, 8 corners , with rotation*
0 The origin of the aperture is its center*
0 number of corners: always 8*
0 $1 to $16 corner X, Y*
0 $17 Rotation angle, in degrees counterclockwise*
0 create outline with 8 corners*
4,1,8,$1,$2,$3,$4,$5,$6,$7,$8,$9,$10,$11,$12,$13,$14,$15,$16,$1,$2,$17*%
G04 Aperture macros list end*
G04 #@! TA.AperFunction,EtchedComponent*
%ADD10C,0.000000*%
G04 #@! TD*
G04 #@! TA.AperFunction,SMDPad,CuDef*
%ADD11RoundRect,0.140000X0.140000X0.170000X-0.140000X0.170000X-0.140000X-0.170000X0.140000X-0.170000X0*%
G04 #@! TD*
G04 #@! TA.AperFunction,SMDPad,CuDef*
%ADD12RoundRect,0.140000X0.170000X-0.140000X0.170000X0.140000X-0.170000X0.140000X-0.170000X-0.140000X0*%
G04 #@! TD*
G04 #@! TA.AperFunction,SMDPad,CuDef*
%ADD13RoundRect,0.140000X-0.170000X0.140000X-0.170000X-0.140000X0.170000X-0.140000X0.170000X0.140000X0*%
G04 #@! TD*
G04 #@! TA.AperFunction,SMDPad,CuDef*
%ADD14RoundRect,0.140000X-0.140000X-0.170000X0.140000X-0.170000X0.140000X0.170000X-0.140000X0.170000X0*%
G04 #@! TD*
G04 #@! TA.AperFunction,SMDPad,CuDef*
%ADD15C,0.900000*%
G04 #@! TD*
G04 #@! TA.AperFunction,SMDPad,CuDef*
%ADD16RoundRect,0.150000X-0.150000X0.512500X-0.150000X-0.512500X0.150000X-0.512500X0.150000X0.512500X0*%
G04 #@! TD*
G04 #@! TA.AperFunction,SMDPad,CuDef*
%ADD17R,1.000000X0.750000*%
G04 #@! TD*
G04 #@! TA.AperFunction,SMDPad,CuDef*
%ADD18RoundRect,0.147500X0.172500X-0.147500X0.172500X0.147500X-0.172500X0.147500X-0.172500X-0.147500X0*%
G04 #@! TD*
G04 #@! TA.AperFunction,SMDPad,CuDef*
%ADD19RoundRect,0.135000X0.185000X-0.135000X0.185000X0.135000X-0.185000X0.135000X-0.185000X-0.135000X0*%
G04 #@! TD*
G04 #@! TA.AperFunction,SMDPad,CuDef*
%ADD20RoundRect,0.200000X-0.200000X0.700000X-0.200000X-0.700000X0.200000X-0.700000X0.200000X0.700000X0*%
G04 #@! TD*
G04 #@! TA.AperFunction,BGAPad,CuDef*
%ADD21C,0.250000*%
G04 #@! TD*
G04 #@! TA.AperFunction,SMDPad,CuDef*
%ADD22R,4.850000X4.850000*%
G04 #@! TD*
G04 #@! TA.AperFunction,SMDPad,CuDef*
%ADD23RoundRect,0.135000X-0.135000X-0.185000X0.135000X-0.185000X0.135000X0.185000X-0.135000X0.185000X0*%
G04 #@! TD*
G04 #@! TA.AperFunction,SMDPad,CuDef*
%ADD24RoundRect,0.150000X-0.587500X-0.150000X0.587500X-0.150000X0.587500X0.150000X-0.587500X0.150000X0*%
G04 #@! TD*
G04 #@! TA.AperFunction,ComponentPad*
%ADD25C,1.300000*%
G04 #@! TD*
G04 #@! TA.AperFunction,SMDPad,CuDef*
%ADD26RoundRect,0.150000X0.512500X0.150000X-0.512500X0.150000X-0.512500X-0.150000X0.512500X-0.150000X0*%
G04 #@! TD*
G04 #@! TA.AperFunction,ComponentPad*
%ADD27C,0.800000*%
G04 #@! TD*
G04 #@! TA.AperFunction,ComponentPad*
%ADD28C,5.000000*%
G04 #@! TD*
G04 #@! TA.AperFunction,SMDPad,CuDef*
%ADD29RoundRect,0.225000X0.225000X0.250000X-0.225000X0.250000X-0.225000X-0.250000X0.225000X-0.250000X0*%
G04 #@! TD*
G04 #@! TA.AperFunction,SMDPad,CuDef*
%ADD30RoundRect,0.135000X-0.185000X0.135000X-0.185000X-0.135000X0.185000X-0.135000X0.185000X0.135000X0*%
G04 #@! TD*
G04 #@! TA.AperFunction,SMDPad,CuDef*
%ADD31RoundRect,0.135000X0.135000X0.185000X-0.135000X0.185000X-0.135000X-0.185000X0.135000X-0.185000X0*%
G04 #@! TD*
G04 #@! TA.AperFunction,SMDPad,CuDef*
%ADD32C,1.000000*%
G04 #@! TD*
G04 #@! TA.AperFunction,SMDPad,CuDef*
%ADD33C,0.787400*%
G04 #@! TD*
G04 #@! TA.AperFunction,SMDPad,CuDef*
%ADD34RoundRect,0.062500X0.337500X0.062500X-0.337500X0.062500X-0.337500X-0.062500X0.337500X-0.062500X0*%
G04 #@! TD*
G04 #@! TA.AperFunction,SMDPad,CuDef*
%ADD35RoundRect,0.062500X0.062500X0.337500X-0.062500X0.337500X-0.062500X-0.337500X0.062500X-0.337500X0*%
G04 #@! TD*
G04 #@! TA.AperFunction,HeatsinkPad*
%ADD36C,0.500000*%
G04 #@! TD*
G04 #@! TA.AperFunction,HeatsinkPad*
%ADD37R,3.600000X3.600000*%
G04 #@! TD*
G04 #@! TA.AperFunction,SMDPad,CuDef*
%ADD38R,0.300000X0.500000*%
G04 #@! TD*
G04 #@! TA.AperFunction,ComponentPad*
%ADD39C,0.400000*%
G04 #@! TD*
G04 #@! TA.AperFunction,SMDPad,CuDef*
%ADD40RoundRect,0.100000X-0.400000X-0.100000X0.400000X-0.100000X0.400000X0.100000X-0.400000X0.100000X0*%
G04 #@! TD*
G04 #@! TA.AperFunction,SMDPad,CuDef*
%ADD41RoundRect,0.200000X0.275000X-0.200000X0.275000X0.200000X-0.275000X0.200000X-0.275000X-0.200000X0*%
G04 #@! TD*
G04 #@! TA.AperFunction,SMDPad,CuDef*
%ADD42RoundRect,0.200000X-1.250000X0.200000X-1.250000X-0.200000X1.250000X-0.200000X1.250000X0.200000X0*%
G04 #@! TD*
G04 #@! TA.AperFunction,SMDPad,CuDef*
%ADD43RoundRect,0.250000X-1.650000X0.650000X-1.650000X-0.650000X1.650000X-0.650000X1.650000X0.650000X0*%
G04 #@! TD*
G04 #@! TA.AperFunction,SMDPad,CuDef*
%ADD44RoundRect,0.070000X-0.070000X-0.355000X0.070000X-0.355000X0.070000X0.355000X-0.070000X0.355000X0*%
G04 #@! TD*
G04 #@! TA.AperFunction,SMDPad,CuDef*
%ADD45RoundRect,0.070000X-0.070000X-0.305000X0.070000X-0.305000X0.070000X0.305000X-0.070000X0.305000X0*%
G04 #@! TD*
G04 #@! TA.AperFunction,ConnectorPad*
%ADD46R,0.500000X0.500000*%
G04 #@! TD*
G04 #@! TA.AperFunction,ComponentPad*
%ADD47R,0.900000X0.500000*%
G04 #@! TD*
G04 #@! TA.AperFunction,SMDPad,CuDef*
%ADD48RoundRect,0.218750X-0.256250X0.218750X-0.256250X-0.218750X0.256250X-0.218750X0.256250X0.218750X0*%
G04 #@! TD*
G04 #@! TA.AperFunction,SMDPad,CuDef*
%ADD49R,1.200000X1.400000*%
G04 #@! TD*
G04 #@! TA.AperFunction,SMDPad,CuDef*
%ADD50RoundRect,0.225000X-0.225000X-0.250000X0.225000X-0.250000X0.225000X0.250000X-0.225000X0.250000X0*%
G04 #@! TD*
G04 #@! TA.AperFunction,SMDPad,CuDef*
%ADD51R,0.750000X1.000000*%
G04 #@! TD*
G04 #@! TA.AperFunction,SMDPad,CuDef*
%ADD52Outline5P,-0.300000X0.575000X0.300000X0.575000X0.300000X-0.365000X0.090000X-0.575000X-0.300000X-0.575000X270.000000*%
G04 #@! TD*
G04 #@! TA.AperFunction,SMDPad,CuDef*
%ADD53Outline5P,-0.300000X0.620000X0.300000X0.620000X0.300000X-0.620000X-0.090000X-0.620000X-0.300000X-0.410000X270.000000*%
G04 #@! TD*
G04 #@! TA.AperFunction,SMDPad,CuDef*
%ADD54R,1.240000X0.300000*%
G04 #@! TD*
G04 #@! TA.AperFunction,SMDPad,CuDef*
%ADD55Outline5P,-0.300000X0.620000X0.300000X0.620000X0.300000X-0.410000X0.090000X-0.620000X-0.300000X-0.620000X270.000000*%
G04 #@! TD*
G04 #@! TA.AperFunction,SMDPad,CuDef*
%ADD56Outline5P,-0.300000X0.575000X0.300000X0.575000X0.300000X-0.575000X-0.090000X-0.575000X-0.300000X-0.365000X270.000000*%
G04 #@! TD*
G04 #@! TA.AperFunction,ComponentPad*
%ADD57O,2.100000X1.000000*%
G04 #@! TD*
G04 #@! TA.AperFunction,ComponentPad*
%ADD58O,1.800000X1.000000*%
G04 #@! TD*
G04 #@! TA.AperFunction,SMDPad,CuDef*
%ADD59RoundRect,0.200000X-0.200000X-1.250000X0.200000X-1.250000X0.200000X1.250000X-0.200000X1.250000X0*%
G04 #@! TD*
G04 #@! TA.AperFunction,SMDPad,CuDef*
%ADD60RoundRect,0.250000X-0.650000X-1.650000X0.650000X-1.650000X0.650000X1.650000X-0.650000X1.650000X0*%
G04 #@! TD*
G04 #@! TA.AperFunction,ComponentPad*
%ADD61R,1.700000X1.700000*%
G04 #@! TD*
G04 #@! TA.AperFunction,ComponentPad*
%ADD62O,1.700000X1.700000*%
G04 #@! TD*
G04 #@! TA.AperFunction,SMDPad,CuDef*
%ADD63RoundRect,0.218750X-0.218750X-0.256250X0.218750X-0.256250X0.218750X0.256250X-0.218750X0.256250X0*%
G04 #@! TD*
G04 #@! TA.AperFunction,ViaPad*
%ADD64C,0.500000*%
G04 #@! TD*
G04 #@! TA.AperFunction,ViaPad*
%ADD65C,0.800000*%
G04 #@! TD*
G04 #@! TA.AperFunction,ViaPad*
%ADD66C,0.200000*%
G04 #@! TD*
G04 #@! TA.AperFunction,Conductor*
%ADD67C,0.500000*%
G04 #@! TD*
G04 #@! TA.AperFunction,Conductor*
%ADD68C,0.300000*%
G04 #@! TD*
G04 #@! TA.AperFunction,Conductor*
%ADD69C,0.150000*%
G04 #@! TD*
G04 #@! TA.AperFunction,Conductor*
%ADD70C,0.200000*%
G04 #@! TD*
G04 #@! TA.AperFunction,Conductor*
%ADD71C,0.750000*%
G04 #@! TD*
G04 #@! TA.AperFunction,Conductor*
%ADD72C,0.250000*%
G04 #@! TD*
G04 APERTURE END LIST*
D10*
G04 #@! TA.AperFunction,EtchedComponent*
G36*
X105380000Y-74636000D02*
G01*
X107380000Y-74636000D01*
X107380000Y-71996000D01*
X110080000Y-71996000D01*
X110080000Y-74636000D01*
X112080000Y-74636000D01*
X112080000Y-71996000D01*
X114780000Y-71996000D01*
X114780000Y-76436000D01*
X114280000Y-76436000D01*
X114280000Y-72496000D01*
X112580000Y-72496000D01*
X112580000Y-75136000D01*
X109580000Y-75136000D01*
X109580000Y-72496000D01*
X107880000Y-72496000D01*
X107880000Y-75136000D01*
X104880000Y-75136000D01*
X104880000Y-72496000D01*
X103180000Y-72496000D01*
X103180000Y-77396000D01*
X102680000Y-77396000D01*
X102680000Y-72496000D01*
X101280000Y-72496000D01*
X101280000Y-77396000D01*
X100380000Y-77396000D01*
X100380000Y-77152785D01*
X100682417Y-77152785D01*
X100692258Y-77200395D01*
X100716326Y-77242797D01*
X100754269Y-77275581D01*
X100762181Y-77279935D01*
X100804844Y-77292043D01*
X100853363Y-77291300D01*
X100898878Y-77278400D01*
X100917489Y-77267787D01*
X100951132Y-77232553D01*
X100971691Y-77187368D01*
X100978222Y-77137842D01*
X100969782Y-77089583D01*
X100952888Y-77057357D01*
X100917628Y-77024687D01*
X100872318Y-77004592D01*
X100822733Y-76998018D01*
X100774647Y-77005908D01*
X100741755Y-77022814D01*
X100706815Y-77059584D01*
X100687153Y-77104378D01*
X100682417Y-77152785D01*
X100380000Y-77152785D01*
X100380000Y-71996000D01*
X105380000Y-71996000D01*
X105380000Y-74636000D01*
G37*
G04 #@! TD.AperFunction*
D11*
X100940000Y-107761000D03*
X99980000Y-107761000D03*
D12*
X98710000Y-84786000D03*
X98710000Y-83826000D03*
D13*
X116710000Y-94051000D03*
X116710000Y-95011000D03*
D11*
X98960000Y-88906000D03*
X98000000Y-88906000D03*
D14*
X106780000Y-101861000D03*
X107740000Y-101861000D03*
D15*
X86540000Y-88133500D03*
D16*
X99730000Y-125721000D03*
X98780000Y-125721000D03*
X97830000Y-125721000D03*
X97830000Y-127996000D03*
X98780000Y-127996000D03*
X99730000Y-127996000D03*
D17*
X95680000Y-94821000D03*
X89680000Y-94821000D03*
X89680000Y-91071000D03*
X95680000Y-91071000D03*
D18*
X102930000Y-82136000D03*
X102930000Y-81166000D03*
D12*
X102910000Y-102141000D03*
X102910000Y-101181000D03*
D19*
X115710000Y-95031000D03*
X115710000Y-94011000D03*
D15*
X96160000Y-121751000D03*
D11*
X98960000Y-87906000D03*
X98000000Y-87906000D03*
D20*
X112435000Y-106721000D03*
X110935000Y-106721000D03*
D12*
X95930000Y-125731000D03*
X95930000Y-124771000D03*
D21*
X100950000Y-89650000D03*
X100950000Y-89150000D03*
X100950000Y-88650000D03*
X100950000Y-88150000D03*
X100950000Y-87650000D03*
X100950000Y-87150000D03*
X100950000Y-86650000D03*
X100950000Y-86150000D03*
X100950000Y-85650000D03*
X106450000Y-85150000D03*
X106700000Y-91150000D03*
X106950000Y-90400000D03*
X106950000Y-89400000D03*
X106950000Y-88900000D03*
X106950000Y-88400000D03*
X106950000Y-87900000D03*
X106950000Y-87400000D03*
X106950000Y-86900000D03*
X106950000Y-86400000D03*
X106950000Y-85150000D03*
X107450000Y-91150000D03*
X107450000Y-90650000D03*
X107450000Y-90150000D03*
X107450000Y-89650000D03*
X107450000Y-89150000D03*
X107450000Y-88650000D03*
X107450000Y-88150000D03*
X107450000Y-87650000D03*
X107450000Y-87150000D03*
X107450000Y-86650000D03*
X107450000Y-86150000D03*
X107450000Y-85650000D03*
X101450000Y-91650000D03*
X101450000Y-90900000D03*
X101450000Y-90400000D03*
X101450000Y-89900000D03*
X101450000Y-89400000D03*
X101450000Y-88900000D03*
X101450000Y-88400000D03*
X101450000Y-87900000D03*
X101450000Y-87400000D03*
X101450000Y-86900000D03*
X101450000Y-85150000D03*
X101950000Y-91650000D03*
X102200000Y-91150000D03*
X102200000Y-85650000D03*
X102450000Y-85150000D03*
D22*
X104200000Y-88400000D03*
D21*
X102700000Y-91150000D03*
X102700000Y-85650000D03*
X102950000Y-91650000D03*
X103200000Y-91150000D03*
X103200000Y-85650000D03*
X103450000Y-91650000D03*
X103450000Y-85150000D03*
X103700000Y-91150000D03*
X103950000Y-91650000D03*
X103950000Y-85150000D03*
X104200000Y-91150000D03*
X104450000Y-91650000D03*
X104450000Y-85150000D03*
X104700000Y-91150000D03*
X104700000Y-85650000D03*
X104950000Y-91650000D03*
X104950000Y-85150000D03*
X105200000Y-91150000D03*
X105200000Y-85650000D03*
X105450000Y-91650000D03*
X105450000Y-85150000D03*
X105700000Y-85650000D03*
X105950000Y-91650000D03*
X105950000Y-85150000D03*
X106200000Y-91150000D03*
X106200000Y-85650000D03*
D23*
X86145000Y-86708500D03*
X87165000Y-86708500D03*
X93900000Y-125733500D03*
X94920000Y-125733500D03*
D24*
X97842500Y-120811000D03*
X97842500Y-122711000D03*
X99717500Y-121761000D03*
D23*
X104670000Y-98501000D03*
X105690000Y-98501000D03*
D25*
X114120000Y-106731000D03*
D15*
X88040000Y-88133500D03*
D25*
X107185000Y-111971000D03*
D26*
X96247500Y-107421000D03*
X96247500Y-106471000D03*
X96247500Y-105521000D03*
X93972500Y-105521000D03*
X93972500Y-106471000D03*
X93972500Y-107421000D03*
D13*
X98710000Y-85826000D03*
X98710000Y-86786000D03*
D27*
X86115000Y-74376000D03*
X86664175Y-73050175D03*
X86664175Y-75701825D03*
X87990000Y-72501000D03*
D28*
X87990000Y-74376000D03*
D27*
X87990000Y-76251000D03*
X89315825Y-73050175D03*
X89315825Y-75701825D03*
X89865000Y-74376000D03*
D14*
X106710000Y-109991000D03*
X107670000Y-109991000D03*
D29*
X101020000Y-105511000D03*
X99470000Y-105511000D03*
D30*
X94180000Y-126941000D03*
X94180000Y-127961000D03*
D31*
X113830000Y-119291000D03*
X112810000Y-119291000D03*
D30*
X106970000Y-93511000D03*
X106970000Y-94531000D03*
D32*
X122370000Y-78581000D03*
D15*
X108990000Y-99401000D03*
X109550000Y-82391000D03*
D11*
X100940000Y-106761000D03*
X99980000Y-106761000D03*
D33*
X120050000Y-88871000D03*
X120050000Y-87601000D03*
X120050000Y-86331000D03*
X120050000Y-85061000D03*
X120050000Y-83791000D03*
X118780000Y-83791000D03*
X118780000Y-85061000D03*
X118780000Y-86331000D03*
X118780000Y-87601000D03*
X118780000Y-88871000D03*
D23*
X112820000Y-120291000D03*
X113840000Y-120291000D03*
D34*
X108885000Y-107721000D03*
X108885000Y-107221000D03*
X108885000Y-106721000D03*
X108885000Y-106221000D03*
X108885000Y-105721000D03*
X108885000Y-105221000D03*
X108885000Y-104721000D03*
X108885000Y-104221000D03*
D35*
X108185000Y-103521000D03*
X107685000Y-103521000D03*
X107185000Y-103521000D03*
X106685000Y-103521000D03*
X106185000Y-103521000D03*
X105685000Y-103521000D03*
X105185000Y-103521000D03*
X104685000Y-103521000D03*
D34*
X103985000Y-104221000D03*
X103985000Y-104721000D03*
X103985000Y-105221000D03*
X103985000Y-105721000D03*
X103985000Y-106221000D03*
X103985000Y-106721000D03*
X103985000Y-107221000D03*
X103985000Y-107721000D03*
D35*
X104685000Y-108421000D03*
X105185000Y-108421000D03*
X105685000Y-108421000D03*
X106185000Y-108421000D03*
X106685000Y-108421000D03*
X107185000Y-108421000D03*
X107685000Y-108421000D03*
X108185000Y-108421000D03*
D36*
X107435000Y-106971000D03*
X107435000Y-105971000D03*
X107435000Y-104971000D03*
X106435000Y-106971000D03*
X106435000Y-105971000D03*
D37*
X106435000Y-105971000D03*
D36*
X106435000Y-104971000D03*
X105435000Y-106971000D03*
X105435000Y-105971000D03*
X105435000Y-104971000D03*
D13*
X107980000Y-93521000D03*
X107980000Y-94481000D03*
D38*
X87220000Y-82008500D03*
X88020000Y-82008500D03*
X88020000Y-80608500D03*
X87220000Y-80608500D03*
D39*
X87320000Y-81308500D03*
D40*
X87620000Y-81308500D03*
D39*
X87920000Y-81308500D03*
D41*
X101630000Y-102006000D03*
X101630000Y-100356000D03*
D42*
X93510000Y-120261000D03*
X93510000Y-121761000D03*
D43*
X88810000Y-117661000D03*
X88810000Y-124361000D03*
D13*
X101210000Y-93676000D03*
X101210000Y-94636000D03*
D44*
X95430000Y-128041000D03*
D45*
X95930000Y-128091000D03*
X96430000Y-128091000D03*
X96430000Y-126941000D03*
X95930000Y-126941000D03*
X95430000Y-126941000D03*
D30*
X97840000Y-118391000D03*
X97840000Y-119411000D03*
D46*
X102930000Y-77146000D03*
D47*
X100830000Y-77146000D03*
D11*
X102930000Y-79151000D03*
X101970000Y-79151000D03*
D32*
X91250000Y-76901000D03*
D48*
X105185000Y-111396000D03*
X105185000Y-112971000D03*
D15*
X99570000Y-109061000D03*
D11*
X102930000Y-78151000D03*
X101970000Y-78151000D03*
D14*
X109550000Y-85651000D03*
X110510000Y-85651000D03*
D13*
X105947500Y-93538500D03*
X105947500Y-94498500D03*
D49*
X95610000Y-83706000D03*
X95610000Y-85906000D03*
X97310000Y-85906000D03*
X97310000Y-83706000D03*
D50*
X110910000Y-108721000D03*
X112460000Y-108721000D03*
D27*
X120509175Y-74386825D03*
X121058350Y-73061000D03*
X121058350Y-75712650D03*
X122384175Y-72511825D03*
D28*
X122384175Y-74386825D03*
D27*
X122384175Y-76261825D03*
X123710000Y-73061000D03*
X123710000Y-75712650D03*
X124259175Y-74386825D03*
D11*
X102930000Y-80151000D03*
X101970000Y-80151000D03*
D13*
X100200000Y-93681000D03*
X100200000Y-94641000D03*
X102235000Y-93676000D03*
X102235000Y-94636000D03*
D51*
X119140000Y-103546000D03*
X119140000Y-97546000D03*
X122890000Y-97546000D03*
X122890000Y-103546000D03*
D15*
X104460000Y-99801000D03*
D12*
X101270000Y-104201000D03*
X101270000Y-103241000D03*
D31*
X107280000Y-100521000D03*
X106260000Y-100521000D03*
D27*
X86129175Y-128756825D03*
X86678350Y-127431000D03*
X86678350Y-130082650D03*
X88004175Y-126881825D03*
D28*
X88004175Y-128756825D03*
D27*
X88004175Y-130631825D03*
X89330000Y-127431000D03*
X89330000Y-130082650D03*
X89879175Y-128756825D03*
D11*
X102930000Y-83151000D03*
X101970000Y-83151000D03*
D12*
X104460000Y-83136000D03*
X104460000Y-82176000D03*
D52*
X91130000Y-103271000D03*
D53*
X91080000Y-104071000D03*
D54*
X91080000Y-105221000D03*
X91080000Y-106221000D03*
X91080000Y-106721000D03*
X91080000Y-107721000D03*
D55*
X91080000Y-108871000D03*
D56*
X91130000Y-109671000D03*
X91130000Y-109671000D03*
D55*
X91080000Y-108871000D03*
D54*
X91080000Y-108221000D03*
X91080000Y-107221000D03*
X91080000Y-105721000D03*
X91080000Y-104721000D03*
D53*
X91080000Y-104071000D03*
D52*
X91130000Y-103271000D03*
D57*
X90480000Y-102151000D03*
D58*
X86280000Y-102151000D03*
D57*
X90480000Y-110791000D03*
D58*
X86280000Y-110791000D03*
D19*
X96830000Y-116451000D03*
X96830000Y-115431000D03*
D12*
X100960000Y-83136000D03*
X100960000Y-82176000D03*
D23*
X94670000Y-89611000D03*
X95690000Y-89611000D03*
D59*
X113840000Y-123211000D03*
X115340000Y-123211000D03*
D60*
X111240000Y-127911000D03*
X117940000Y-127911000D03*
D50*
X109745000Y-90421000D03*
X111295000Y-90421000D03*
D15*
X111585000Y-102971000D03*
D50*
X110910000Y-104721000D03*
X112460000Y-104721000D03*
D19*
X103920000Y-102186000D03*
X103920000Y-101166000D03*
D25*
X105430000Y-122211000D03*
D15*
X109030000Y-97771000D03*
D61*
X97340000Y-79071000D03*
D62*
X94800000Y-79071000D03*
X97340000Y-76531000D03*
X94800000Y-76531000D03*
X97340000Y-73991000D03*
X94800000Y-73991000D03*
D31*
X89085000Y-86708500D03*
X88065000Y-86708500D03*
D12*
X99960000Y-83156000D03*
X99960000Y-82196000D03*
D63*
X105352500Y-96361000D03*
X106927500Y-96361000D03*
D19*
X96830000Y-118391000D03*
X96830000Y-117371000D03*
D50*
X109547500Y-84293500D03*
X111097500Y-84293500D03*
D48*
X103440000Y-111411000D03*
X103440000Y-112986000D03*
D32*
X91980000Y-128591000D03*
D11*
X88100000Y-77758500D03*
X87140000Y-77758500D03*
D15*
X95980000Y-119251000D03*
D27*
X120500000Y-128751000D03*
X121049175Y-127425175D03*
X121049175Y-130076825D03*
X122375000Y-126876000D03*
D28*
X122375000Y-128751000D03*
D27*
X122375000Y-130626000D03*
X123700825Y-127425175D03*
X123700825Y-130076825D03*
X124250000Y-128751000D03*
D32*
X122340000Y-124651000D03*
D15*
X89540000Y-88133500D03*
X122890000Y-95131000D03*
D64*
X100960000Y-125721000D03*
X100440000Y-103241000D03*
X113480000Y-104721000D03*
X98710000Y-83091000D03*
X101240000Y-78161000D03*
X104210000Y-90401000D03*
X97270000Y-88901000D03*
X89680000Y-95591000D03*
X100960000Y-124661000D03*
X100200000Y-95361000D03*
D65*
X115340000Y-125201000D03*
D64*
X104210000Y-87401000D03*
X104210000Y-88401000D03*
X98605000Y-105511000D03*
X107740000Y-101261000D03*
X99295000Y-107761000D03*
X107980000Y-95171000D03*
X94180000Y-128711000D03*
X104210000Y-89401000D03*
X113500000Y-108711000D03*
X111290000Y-91361000D03*
X116710000Y-95711000D03*
X120890000Y-87601000D03*
X120000000Y-97541000D03*
X96830000Y-114761000D03*
X99730000Y-126821000D03*
X100960000Y-81451000D03*
X95610000Y-87151000D03*
X101970000Y-82391000D03*
X102240000Y-95351000D03*
X118250000Y-88341000D03*
X105950000Y-95231000D03*
X100960000Y-126821000D03*
X101240000Y-79151000D03*
X117940000Y-86331000D03*
X97260000Y-87901000D03*
X99730000Y-124661000D03*
X104210000Y-86401000D03*
X86430000Y-77761000D03*
X106210000Y-88401000D03*
X103210000Y-88401000D03*
X105210000Y-88401000D03*
X101240000Y-80151000D03*
X95160000Y-106481000D03*
X97310000Y-82461000D03*
X101210000Y-95351000D03*
X95680000Y-95621000D03*
X99960000Y-81461000D03*
X111250000Y-85651000D03*
X119960000Y-103551000D03*
X112000000Y-84291000D03*
X104460000Y-81471000D03*
X103470000Y-100541000D03*
X117940000Y-87601000D03*
X119410000Y-84431000D03*
X102610000Y-100361000D03*
X102210000Y-88401000D03*
X115710000Y-95731000D03*
X113830000Y-118441000D03*
X108490000Y-88151000D03*
X101210000Y-92681000D03*
X99725000Y-86326000D03*
X103950000Y-98501000D03*
X110910000Y-109601000D03*
X105830000Y-110111000D03*
X109550000Y-83421000D03*
X108140000Y-100521000D03*
X120580000Y-88341000D03*
X94670000Y-90371000D03*
X105320000Y-93531000D03*
X88810000Y-77761000D03*
X85810000Y-87421000D03*
X89085000Y-87381000D03*
X87190000Y-90451000D03*
X87950000Y-111621000D03*
X114410000Y-88801000D03*
D66*
X106960000Y-88406000D03*
D64*
X100200000Y-91231000D03*
X101967500Y-84143500D03*
X108690000Y-90091000D03*
D66*
X106950000Y-90091000D03*
D64*
X101990000Y-106761000D03*
X92230000Y-104071000D03*
X92230000Y-108871000D03*
X92870000Y-106471000D03*
X109850000Y-105331000D03*
X108540000Y-109251000D03*
X101880000Y-105721000D03*
X107460000Y-92461000D03*
X100658198Y-108609198D03*
X101610000Y-110081000D03*
X96800000Y-110091000D03*
X102050000Y-108551000D03*
X89460000Y-108061000D03*
X113590000Y-96761000D03*
X113610000Y-99331000D03*
X116515000Y-79671000D03*
X116515000Y-80971000D03*
X120050000Y-85061000D03*
X104090000Y-92541000D03*
X105350000Y-92731000D03*
X119410000Y-86921000D03*
X104700000Y-94941000D03*
D66*
X104700000Y-91151000D03*
D64*
X110070000Y-95411000D03*
D66*
X106950000Y-88901000D03*
D64*
X108850000Y-101801000D03*
X110100000Y-92001000D03*
X97180000Y-94021000D03*
X93240000Y-90081000D03*
X93350000Y-89171000D03*
D66*
X103200000Y-91150000D03*
D64*
X113337500Y-101218500D03*
X118470000Y-92541000D03*
D66*
X106950000Y-89400000D03*
D64*
X112790000Y-90221000D03*
D65*
X104490000Y-80371000D03*
X104940000Y-79371000D03*
D66*
X106890000Y-85671000D03*
D65*
X94040000Y-96271000D03*
D67*
X111997500Y-84293500D02*
X112000000Y-84291000D01*
X103470000Y-101181000D02*
X103905000Y-101181000D01*
D68*
X107685000Y-105221000D02*
X107435000Y-104971000D01*
D67*
X111097500Y-84293500D02*
X111997500Y-84293500D01*
X105947500Y-94498500D02*
X105947500Y-95228500D01*
D69*
X102710000Y-85656000D02*
X102710000Y-86906000D01*
D67*
X115340000Y-123211000D02*
X115340000Y-125201000D01*
X104460000Y-82176000D02*
X104460000Y-81471000D01*
D68*
X107685000Y-107221000D02*
X106435000Y-105971000D01*
D67*
X100200000Y-94641000D02*
X100200000Y-95361000D01*
D69*
X101460000Y-89906000D02*
X102710000Y-89906000D01*
D67*
X96830000Y-115431000D02*
X96830000Y-114761000D01*
D69*
X87220000Y-77838500D02*
X87220000Y-80608500D01*
D67*
X91130000Y-110141000D02*
X90480000Y-110791000D01*
D69*
X87140000Y-77758500D02*
X87220000Y-77838500D01*
D67*
X112460000Y-108721000D02*
X113490000Y-108721000D01*
X97310000Y-83706000D02*
X97310000Y-82461000D01*
X119140000Y-103546000D02*
X119955000Y-103546000D01*
X103470000Y-101181000D02*
X103470000Y-100541000D01*
X110510000Y-85651000D02*
X111250000Y-85651000D01*
X96247500Y-106471000D02*
X95170000Y-106471000D01*
X87140000Y-77758500D02*
X86432500Y-77758500D01*
X99960000Y-82196000D02*
X99960000Y-81461000D01*
X118780000Y-85061000D02*
X119410000Y-84431000D01*
X89680000Y-94821000D02*
X89680000Y-95591000D01*
X105947500Y-95228500D02*
X105950000Y-95231000D01*
X101250000Y-78151000D02*
X101240000Y-78161000D01*
D68*
X107185000Y-106721000D02*
X106435000Y-105971000D01*
D67*
X94180000Y-127961000D02*
X94180000Y-128711000D01*
X111295000Y-90421000D02*
X111295000Y-91356000D01*
X102910000Y-101181000D02*
X103470000Y-101181000D01*
X99730000Y-125721000D02*
X99730000Y-124661000D01*
D70*
X107685000Y-109976000D02*
X107670000Y-109991000D01*
D67*
X101970000Y-79151000D02*
X101240000Y-79151000D01*
X98000000Y-87906000D02*
X98000000Y-87496000D01*
X95170000Y-106471000D02*
X95160000Y-106481000D01*
D69*
X102710000Y-86906000D02*
X104210000Y-88406000D01*
D68*
X107670000Y-109991000D02*
X107670000Y-107206000D01*
X107670000Y-107206000D02*
X106435000Y-105971000D01*
D67*
X98000000Y-87906000D02*
X97265000Y-87906000D01*
D68*
X108885000Y-105221000D02*
X107685000Y-105221000D01*
D67*
X116710000Y-95011000D02*
X116710000Y-95711000D01*
X119955000Y-103546000D02*
X119960000Y-103551000D01*
X101270000Y-103241000D02*
X100440000Y-103241000D01*
D69*
X102710000Y-89906000D02*
X104210000Y-88406000D01*
D67*
X100960000Y-82176000D02*
X100960000Y-81451000D01*
X118780000Y-88871000D02*
X118250000Y-88341000D01*
D68*
X107185000Y-108421000D02*
X107185000Y-106721000D01*
D67*
X99980000Y-107761000D02*
X99980000Y-106761000D01*
X86432500Y-77758500D02*
X86430000Y-77761000D01*
X102605000Y-100356000D02*
X102610000Y-100361000D01*
X91130000Y-103271000D02*
X91130000Y-102801000D01*
X118780000Y-86331000D02*
X117940000Y-86331000D01*
X99470000Y-105511000D02*
X98605000Y-105511000D01*
X107740000Y-101861000D02*
X107740000Y-101261000D01*
X118780000Y-87601000D02*
X117940000Y-87601000D01*
X101970000Y-78151000D02*
X101250000Y-78151000D01*
X98000000Y-88906000D02*
X98000000Y-87906000D01*
X102235000Y-95346000D02*
X102240000Y-95351000D01*
X101970000Y-83151000D02*
X101970000Y-82391000D01*
X101630000Y-100356000D02*
X102605000Y-100356000D01*
X102235000Y-94636000D02*
X102235000Y-95346000D01*
X111295000Y-91356000D02*
X111290000Y-91361000D01*
X120050000Y-87601000D02*
X120890000Y-87601000D01*
X98000000Y-87496000D02*
X98710000Y-86786000D01*
X103905000Y-101181000D02*
X103920000Y-101166000D01*
X101210000Y-94636000D02*
X101210000Y-95351000D01*
X95610000Y-85906000D02*
X95610000Y-87151000D01*
X97265000Y-87906000D02*
X97260000Y-87901000D01*
X98710000Y-83826000D02*
X98710000Y-83091000D01*
X119140000Y-97546000D02*
X119995000Y-97546000D01*
X107980000Y-94481000D02*
X107980000Y-95171000D01*
X91130000Y-109671000D02*
X91130000Y-110141000D01*
X91130000Y-102801000D02*
X90480000Y-102151000D01*
X101970000Y-80151000D02*
X101240000Y-80151000D01*
X119995000Y-97546000D02*
X120000000Y-97541000D01*
D70*
X107685000Y-107221000D02*
X107435000Y-106971000D01*
D67*
X97275000Y-88906000D02*
X97270000Y-88901000D01*
X113490000Y-108721000D02*
X113500000Y-108711000D01*
D68*
X108885000Y-107221000D02*
X107685000Y-107221000D01*
D67*
X99980000Y-107761000D02*
X99295000Y-107761000D01*
X112460000Y-104721000D02*
X113480000Y-104721000D01*
X95680000Y-94821000D02*
X95680000Y-95621000D01*
X98000000Y-88906000D02*
X97275000Y-88906000D01*
D70*
X105947500Y-93538500D02*
X105947500Y-91418500D01*
D68*
X106685000Y-101956000D02*
X106780000Y-101861000D01*
D70*
X108489000Y-88150000D02*
X108490000Y-88151000D01*
X99620000Y-87751000D02*
X99620000Y-86431000D01*
D67*
X120050000Y-88871000D02*
X120580000Y-88341000D01*
X106980000Y-100821000D02*
X107280000Y-100521000D01*
D70*
X101460000Y-91656000D02*
X101460000Y-92431000D01*
X107450000Y-88150000D02*
X108489000Y-88150000D01*
X105947500Y-91418500D02*
X106210000Y-91156000D01*
D68*
X109930000Y-108391000D02*
X109930000Y-107981000D01*
D70*
X98960000Y-87906000D02*
X99465000Y-87906000D01*
D67*
X109547500Y-84293500D02*
X109547500Y-85648500D01*
D68*
X109670000Y-107721000D02*
X108885000Y-107721000D01*
X109930000Y-107981000D02*
X109670000Y-107721000D01*
D70*
X99725000Y-86326000D02*
X99800000Y-86251000D01*
D67*
X115710000Y-95031000D02*
X115710000Y-95731000D01*
D68*
X110260000Y-108721000D02*
X109930000Y-108391000D01*
D70*
X106130000Y-109811000D02*
X105830000Y-110111000D01*
D67*
X109547500Y-85648500D02*
X109550000Y-85651000D01*
D70*
X105947500Y-93538500D02*
X105327500Y-93538500D01*
X99895000Y-86156000D02*
X99725000Y-86326000D01*
D68*
X106685000Y-103521000D02*
X106685000Y-101956000D01*
D67*
X104670000Y-98501000D02*
X103950000Y-98501000D01*
D70*
X106685000Y-101866000D02*
X106690000Y-101861000D01*
D67*
X106780000Y-101861000D02*
X106780000Y-101811000D01*
X114110000Y-106721000D02*
X114120000Y-106731000D01*
D70*
X107460000Y-85656000D02*
X109545000Y-85656000D01*
X99620000Y-86431000D02*
X99725000Y-86326000D01*
X105327500Y-93538500D02*
X105320000Y-93531000D01*
X100960000Y-86156000D02*
X99895000Y-86156000D01*
D67*
X106980000Y-101611000D02*
X106980000Y-100821000D01*
X106780000Y-101811000D02*
X106980000Y-101611000D01*
D70*
X99465000Y-87906000D02*
X99620000Y-87751000D01*
D68*
X110910000Y-108721000D02*
X110260000Y-108721000D01*
D67*
X107280000Y-100521000D02*
X108140000Y-100521000D01*
D70*
X109545000Y-85656000D02*
X109550000Y-85651000D01*
D67*
X109550000Y-83421000D02*
X109550000Y-82391000D01*
D70*
X101210000Y-93676000D02*
X101210000Y-92681000D01*
X94670000Y-89611000D02*
X94670000Y-90371000D01*
X106185000Y-108421000D02*
X106130000Y-108476000D01*
D67*
X110910000Y-108721000D02*
X110910000Y-109601000D01*
D70*
X101460000Y-92431000D02*
X101210000Y-92681000D01*
D67*
X112435000Y-106721000D02*
X114110000Y-106721000D01*
D70*
X106130000Y-108476000D02*
X106130000Y-109811000D01*
D67*
X109547500Y-83423500D02*
X109550000Y-83421000D01*
D70*
X113830000Y-119291000D02*
X113830000Y-118441000D01*
D67*
X109547500Y-84293500D02*
X109547500Y-83423500D01*
X87190000Y-96451000D02*
X87190000Y-90451000D01*
X106710000Y-111496000D02*
X107185000Y-111971000D01*
X87950000Y-111621000D02*
X87950000Y-98701000D01*
X106710000Y-109991000D02*
X106710000Y-111496000D01*
X86145000Y-86708500D02*
X86145000Y-87086000D01*
X87950000Y-97211000D02*
X87190000Y-96451000D01*
D68*
X106685000Y-109966000D02*
X106710000Y-109991000D01*
D67*
X88100000Y-77758500D02*
X88807500Y-77758500D01*
D69*
X88100000Y-77758500D02*
X88020000Y-77838500D01*
D67*
X87950000Y-98701000D02*
X87950000Y-97211000D01*
X86145000Y-87086000D02*
X85810000Y-87421000D01*
X89085000Y-87678500D02*
X89540000Y-88133500D01*
X88807500Y-77758500D02*
X88810000Y-77761000D01*
D69*
X88020000Y-77838500D02*
X88020000Y-80608500D01*
D68*
X106685000Y-108421000D02*
X106685000Y-109966000D01*
D67*
X89085000Y-86708500D02*
X89085000Y-87678500D01*
D70*
X102930000Y-77146000D02*
X102930000Y-81166000D01*
D69*
X100855000Y-85156000D02*
X101460000Y-85156000D01*
X100485000Y-84786000D02*
X100855000Y-85156000D01*
X96690000Y-84786000D02*
X95610000Y-83706000D01*
X98710000Y-84786000D02*
X96690000Y-84786000D01*
X98710000Y-84786000D02*
X100485000Y-84786000D01*
D70*
X114410000Y-88801000D02*
X115190000Y-89581000D01*
X122890000Y-97546000D02*
X122890000Y-95131000D01*
X121770000Y-94011000D02*
X115710000Y-94011000D01*
X115190000Y-93491000D02*
X115710000Y-94011000D01*
X122890000Y-95131000D02*
X121770000Y-94011000D01*
X115190000Y-89581000D02*
X115190000Y-93491000D01*
X122890000Y-103546000D02*
X122890000Y-97546000D01*
D69*
X97310000Y-85906000D02*
X98630000Y-85906000D01*
X98880000Y-85656000D02*
X100960000Y-85656000D01*
X98630000Y-85906000D02*
X98710000Y-85826000D01*
X98710000Y-85826000D02*
X98880000Y-85656000D01*
D70*
X102930000Y-85274959D02*
X103210000Y-85554959D01*
D69*
X103210000Y-85590314D02*
X103210000Y-85656000D01*
D70*
X103210000Y-85554959D02*
X103210000Y-85656000D01*
X102930000Y-82136000D02*
X102930000Y-85274959D01*
X100200000Y-93681000D02*
X100200000Y-91231000D01*
X100200000Y-91231000D02*
X101025000Y-90406000D01*
X102460000Y-85156000D02*
X102460000Y-84636000D01*
X101025000Y-90406000D02*
X101460000Y-90406000D01*
X102460000Y-84636000D02*
X100960000Y-83136000D01*
X104460000Y-83136000D02*
X104460000Y-85156000D01*
D69*
X102060000Y-85190314D02*
X100025686Y-83156000D01*
X100025686Y-83156000D02*
X99960000Y-83156000D01*
X102210000Y-85656000D02*
X102060000Y-85506000D01*
X102060000Y-85506000D02*
X102060000Y-85190314D01*
D70*
X100205000Y-87156000D02*
X100960000Y-87156000D01*
X99970000Y-87391000D02*
X100205000Y-87156000D01*
X99970000Y-87896000D02*
X99970000Y-87391000D01*
X98960000Y-88906000D02*
X99970000Y-87896000D01*
X101960000Y-92431000D02*
X101960000Y-91656000D01*
X102235000Y-93676000D02*
X102235000Y-92706000D01*
X102235000Y-92706000D02*
X101960000Y-92431000D01*
D69*
X106950000Y-90400000D02*
X106950000Y-90091000D01*
X109020000Y-90421000D02*
X109745000Y-90421000D01*
X108690000Y-90091000D02*
X109020000Y-90421000D01*
D68*
X95927500Y-125733500D02*
X95930000Y-125731000D01*
X95930000Y-125731000D02*
X95930000Y-126941000D01*
X94920000Y-125733500D02*
X95927500Y-125733500D01*
D70*
X94922500Y-125731000D02*
X94920000Y-125733500D01*
D71*
X97842500Y-122711000D02*
X97842500Y-124251000D01*
X97842500Y-124781000D02*
X97842500Y-125708500D01*
D68*
X95930000Y-124771000D02*
X97832500Y-124771000D01*
X97830000Y-126771000D02*
X97830000Y-125721000D01*
D71*
X97842500Y-124251000D02*
X97842500Y-124781000D01*
X97842500Y-125708500D02*
X97830000Y-125721000D01*
D68*
X96430000Y-126941000D02*
X97660000Y-126941000D01*
X97660000Y-126941000D02*
X97830000Y-126771000D01*
X97832500Y-124771000D02*
X97842500Y-124781000D01*
D67*
X93972500Y-106471000D02*
X92870000Y-106471000D01*
D68*
X103985000Y-106221000D02*
X102530000Y-106221000D01*
X102530000Y-106221000D02*
X101990000Y-106761000D01*
X100940000Y-106761000D02*
X101990000Y-106761000D01*
D67*
X92230000Y-104071000D02*
X91080000Y-104071000D01*
X91080000Y-108871000D02*
X92230000Y-108871000D01*
D68*
X93900000Y-123421000D02*
X93620000Y-123141000D01*
D67*
X97830000Y-105253624D02*
X97830000Y-118381000D01*
D71*
X94960000Y-120261000D02*
X96830000Y-118391000D01*
D67*
X101270000Y-104201000D02*
X98882624Y-104201000D01*
D68*
X102860000Y-105221000D02*
X103985000Y-105221000D01*
X91850000Y-123141000D02*
X91350000Y-122641000D01*
D71*
X93510000Y-120261000D02*
X94960000Y-120261000D01*
X96830000Y-118391000D02*
X97840000Y-118391000D01*
D68*
X91350000Y-122641000D02*
X91350000Y-120641000D01*
X91350000Y-120641000D02*
X91730000Y-120261000D01*
X93900000Y-125733500D02*
X93900000Y-123421000D01*
D67*
X98882624Y-104201000D02*
X97830000Y-105253624D01*
D72*
X103985000Y-105221000D02*
X103980000Y-105226000D01*
D68*
X93620000Y-123141000D02*
X91850000Y-123141000D01*
X101270000Y-104201000D02*
X101840000Y-104201000D01*
D67*
X97830000Y-118381000D02*
X97840000Y-118391000D01*
D68*
X91730000Y-120261000D02*
X93510000Y-120261000D01*
X101840000Y-104201000D02*
X102860000Y-105221000D01*
D72*
X101270000Y-105761000D02*
X101020000Y-105511000D01*
D67*
X108540000Y-109251000D02*
X108540000Y-112551000D01*
D68*
X109850000Y-105331000D02*
X109850000Y-105061000D01*
X108885000Y-106221000D02*
X109370096Y-106221000D01*
D67*
X103440000Y-113961000D02*
X103440000Y-112986000D01*
X103450000Y-113971000D02*
X103440000Y-113961000D01*
D68*
X109370096Y-106221000D02*
X109850000Y-105741096D01*
D67*
X108540000Y-112551000D02*
X107120000Y-113971000D01*
X105170000Y-112986000D02*
X105185000Y-112971000D01*
D68*
X109850000Y-105741096D02*
X109850000Y-105331000D01*
D67*
X105185000Y-113966000D02*
X105190000Y-113971000D01*
D68*
X109850000Y-105061000D02*
X110190000Y-104721000D01*
X110190000Y-104721000D02*
X110910000Y-104721000D01*
X108185000Y-108421000D02*
X108185000Y-108896000D01*
X103985000Y-105721000D02*
X101880000Y-105721000D01*
X101020000Y-105511000D02*
X101230000Y-105721000D01*
D67*
X105185000Y-112971000D02*
X105185000Y-113966000D01*
D68*
X101230000Y-105721000D02*
X101880000Y-105721000D01*
D67*
X107120000Y-113971000D02*
X103450000Y-113971000D01*
D68*
X108185000Y-108896000D02*
X108540000Y-109251000D01*
D67*
X99570000Y-109061000D02*
X100206396Y-109061000D01*
X100940000Y-108327396D02*
X100940000Y-107761000D01*
D70*
X107980000Y-93521000D02*
X106980000Y-93521000D01*
X107460000Y-93001000D02*
X107460000Y-92461000D01*
X106980000Y-93521000D02*
X106970000Y-93511000D01*
D68*
X101890000Y-107761000D02*
X102930000Y-106721000D01*
X102930000Y-106721000D02*
X103985000Y-106721000D01*
D70*
X107460000Y-91156000D02*
X107460000Y-92461000D01*
D67*
X100206396Y-109061000D02*
X100940000Y-108327396D01*
D70*
X107980000Y-93521000D02*
X107460000Y-93001000D01*
D68*
X100940000Y-107761000D02*
X101890000Y-107761000D01*
D70*
X92720000Y-107421000D02*
X93972500Y-107421000D01*
X90070000Y-106976000D02*
X90315000Y-107221000D01*
X91080000Y-107221000D02*
X92520000Y-107221000D01*
X90070000Y-106411000D02*
X90070000Y-106976000D01*
X90315000Y-107221000D02*
X91080000Y-107221000D01*
X90260000Y-106221000D02*
X90070000Y-106411000D01*
X92520000Y-107221000D02*
X92720000Y-107421000D01*
X91080000Y-106221000D02*
X90260000Y-106221000D01*
X101625000Y-110081000D02*
X101610000Y-110081000D01*
X96800000Y-110091000D02*
X94930000Y-108221000D01*
X94930000Y-108221000D02*
X91080000Y-108221000D01*
X103985000Y-107721000D02*
X101625000Y-110081000D01*
X92310000Y-105721000D02*
X93772500Y-105721000D01*
X91080000Y-106721000D02*
X91900000Y-106721000D01*
X93772500Y-105721000D02*
X93972500Y-105521000D01*
X91080000Y-105721000D02*
X92310000Y-105721000D01*
X91900000Y-106721000D02*
X92310000Y-106311000D01*
X92310000Y-106311000D02*
X92310000Y-105721000D01*
X90260000Y-105221000D02*
X89460000Y-106021000D01*
X91080000Y-105221000D02*
X90260000Y-105221000D01*
X102050000Y-108551000D02*
X103380000Y-107221000D01*
X103380000Y-107221000D02*
X103985000Y-107221000D01*
X89460000Y-106021000D02*
X89460000Y-108061000D01*
X113610000Y-91511000D02*
X113610000Y-96741000D01*
X115070000Y-118111000D02*
X114770000Y-118411000D01*
X113840000Y-123211000D02*
X113840000Y-120291000D01*
X107450000Y-89150000D02*
X112539244Y-89150000D01*
X115070000Y-100791000D02*
X115070000Y-118111000D01*
X113610000Y-90220756D02*
X113610000Y-91511000D01*
X113610000Y-96741000D02*
X113590000Y-96761000D01*
X114770000Y-118411000D02*
X114770000Y-119841000D01*
X112539244Y-89150000D02*
X113610000Y-90220756D01*
X114770000Y-119841000D02*
X114320000Y-120291000D01*
X113610000Y-99331000D02*
X115070000Y-100791000D01*
X114320000Y-120291000D02*
X113840000Y-120291000D01*
D71*
X93510000Y-121761000D02*
X99717500Y-121761000D01*
D69*
X107890000Y-80346000D02*
X106960000Y-81276000D01*
X119390000Y-80996000D02*
X118740000Y-80346000D01*
X120050000Y-83791000D02*
X119864889Y-83791000D01*
X106960000Y-81276000D02*
X106960000Y-85156000D01*
X118740000Y-80346000D02*
X107890000Y-80346000D01*
X119390000Y-83316111D02*
X119390000Y-80996000D01*
X119864889Y-83791000D02*
X119390000Y-83316111D01*
X107765000Y-79671000D02*
X106460000Y-80976000D01*
X118378927Y-83791000D02*
X116515000Y-81927073D01*
X118780000Y-83791000D02*
X118378927Y-83791000D01*
X116515000Y-79671000D02*
X107765000Y-79671000D01*
X106460000Y-80976000D02*
X106460000Y-85156000D01*
X116515000Y-81927073D02*
X116515000Y-80971000D01*
X103950000Y-91650000D02*
X103950000Y-92401000D01*
X103950000Y-92401000D02*
X104090000Y-92541000D01*
X104450000Y-91650000D02*
X104450000Y-91831000D01*
X119460000Y-86921000D02*
X120050000Y-86331000D01*
X119410000Y-86921000D02*
X119460000Y-86921000D01*
X104450000Y-91831000D02*
X105350000Y-92731000D01*
X108150000Y-91173224D02*
X108150000Y-92181000D01*
X107240000Y-97331000D02*
X100120000Y-97331000D01*
X107626776Y-90650000D02*
X108150000Y-91173224D01*
D70*
X96247500Y-105521000D02*
X98390000Y-103378500D01*
D69*
X98390000Y-99061000D02*
X98390000Y-102641000D01*
D70*
X98390000Y-103378500D02*
X98390000Y-102641000D01*
D69*
X108150000Y-92181000D02*
X108760000Y-92791000D01*
X100120000Y-97331000D02*
X98390000Y-99061000D01*
X107450000Y-90650000D02*
X107626776Y-90650000D01*
X108760000Y-92791000D02*
X108760000Y-95811000D01*
X108760000Y-95811000D02*
X107240000Y-97331000D01*
D70*
X98890000Y-103340948D02*
X97210000Y-105020948D01*
D69*
X98890000Y-99231000D02*
X100215000Y-97906000D01*
D70*
X97210000Y-106811552D02*
X96600552Y-107421000D01*
D69*
X107205000Y-97906000D02*
X109037000Y-96074000D01*
D70*
X98890000Y-102548000D02*
X98890000Y-103340948D01*
D69*
X108710000Y-90941000D02*
X107919000Y-90150000D01*
X109037000Y-96074000D02*
X109037000Y-92398000D01*
D70*
X97210000Y-105020948D02*
X97210000Y-106811552D01*
D69*
X107919000Y-90150000D02*
X107450000Y-90150000D01*
X98890000Y-102548000D02*
X98890000Y-99231000D01*
X108710000Y-92071000D02*
X108710000Y-90941000D01*
D70*
X96600552Y-107421000D02*
X96247500Y-107421000D01*
D69*
X100215000Y-97906000D02*
X107205000Y-97906000D01*
X109037000Y-92398000D02*
X108710000Y-92071000D01*
D70*
X104700000Y-94941000D02*
X105352500Y-95593500D01*
X104700000Y-91150000D02*
X104700000Y-91151000D01*
X105352500Y-95593500D02*
X105352500Y-96361000D01*
X106927500Y-94573500D02*
X106970000Y-94531000D01*
X106970000Y-96318500D02*
X106927500Y-96361000D01*
X106927500Y-96361000D02*
X106927500Y-94573500D01*
X105185000Y-108421000D02*
X105185000Y-111396000D01*
X104685000Y-109566000D02*
X104685000Y-108421000D01*
X103440000Y-110811000D02*
X104685000Y-109566000D01*
X103440000Y-111411000D02*
X103440000Y-110811000D01*
X110100000Y-95381000D02*
X110070000Y-95411000D01*
X108850000Y-101801000D02*
X108850000Y-102856000D01*
X108850000Y-102856000D02*
X108185000Y-103521000D01*
X110100000Y-92001000D02*
X110100000Y-95381000D01*
X109030000Y-97771000D02*
X112045000Y-94756000D01*
X105685000Y-103521000D02*
X105690000Y-103516000D01*
X112045000Y-94756000D02*
X112045000Y-89926000D01*
X107525878Y-89725878D02*
X107450000Y-89650000D01*
X112045000Y-89926000D02*
X111600000Y-89481000D01*
X108479756Y-89481000D02*
X108234878Y-89725878D01*
X105690000Y-98501000D02*
X108300000Y-98501000D01*
X105690000Y-103516000D02*
X105690000Y-98501000D01*
X108234878Y-89725878D02*
X107525878Y-89725878D01*
X111600000Y-89481000D02*
X108479756Y-89481000D01*
X108300000Y-98501000D02*
X109030000Y-97771000D01*
X95680000Y-91071000D02*
X95680000Y-89621000D01*
X99350000Y-89611000D02*
X99680000Y-89281000D01*
X89680000Y-91071000D02*
X95680000Y-91071000D01*
X100251000Y-88150000D02*
X100950000Y-88150000D01*
X99680000Y-89281000D02*
X99680000Y-88721000D01*
X95680000Y-89621000D02*
X95690000Y-89611000D01*
X95690000Y-89611000D02*
X99350000Y-89611000D01*
X99680000Y-88721000D02*
X100251000Y-88150000D01*
X100230000Y-88891000D02*
X100230000Y-89911000D01*
X100230000Y-89911000D02*
X99650000Y-90491000D01*
X96800000Y-90831000D02*
X96800000Y-92961000D01*
X99650000Y-90491000D02*
X97140000Y-90491000D01*
X92770000Y-97591000D02*
X92430000Y-97931000D01*
X100471000Y-88650000D02*
X100230000Y-88891000D01*
X96830000Y-117371000D02*
X96830000Y-116451000D01*
X92770000Y-93891000D02*
X92770000Y-97591000D01*
X96370000Y-93391000D02*
X93270000Y-93391000D01*
X100950000Y-88650000D02*
X100471000Y-88650000D01*
X90720000Y-97931000D02*
X88720000Y-99931000D01*
X96830000Y-116451000D02*
X93780000Y-116451000D01*
X92430000Y-97931000D02*
X90720000Y-97931000D01*
X88720000Y-99931000D02*
X88720000Y-111241000D01*
X96800000Y-92961000D02*
X96370000Y-93391000D01*
X88720000Y-111391000D02*
X88720000Y-111241000D01*
X97140000Y-90491000D02*
X96800000Y-90831000D01*
X93270000Y-93391000D02*
X92770000Y-93891000D01*
X93780000Y-116451000D02*
X88720000Y-111391000D01*
D69*
X87220000Y-82008500D02*
X87220000Y-86653500D01*
X87220000Y-86653500D02*
X87165000Y-86708500D01*
D72*
X92070000Y-89651000D02*
X92810000Y-89651000D01*
X87165000Y-86708500D02*
X87165000Y-87508500D01*
X102430000Y-96161000D02*
X102950000Y-95641000D01*
X88057500Y-89651000D02*
X92070000Y-89651000D01*
X97180000Y-94021000D02*
X99320000Y-96161000D01*
X92810000Y-89651000D02*
X93240000Y-90081000D01*
X102950000Y-95641000D02*
X102950000Y-91650000D01*
X86540000Y-88133500D02*
X88057500Y-89651000D01*
X87165000Y-87508500D02*
X86540000Y-88133500D01*
X99320000Y-96161000D02*
X102430000Y-96161000D01*
X89077500Y-89171000D02*
X92080000Y-89171000D01*
D69*
X88020000Y-82008500D02*
X88020000Y-86663500D01*
D72*
X92080000Y-89171000D02*
X93350000Y-89171000D01*
X88065000Y-86708500D02*
X88065000Y-88108500D01*
X88040000Y-88133500D02*
X89077500Y-89171000D01*
X88065000Y-88108500D02*
X88040000Y-88133500D01*
D69*
X103200000Y-91150000D02*
X103200000Y-91151000D01*
X88020000Y-86663500D02*
X88065000Y-86708500D01*
D70*
X109820000Y-103831000D02*
X109820000Y-101981000D01*
X114460000Y-97341000D02*
X114460000Y-89771000D01*
X109820000Y-101981000D02*
X114460000Y-97341000D01*
X107531000Y-88731000D02*
X107450000Y-88650000D01*
X108885000Y-104221000D02*
X109430000Y-104221000D01*
X113420000Y-88731000D02*
X107531000Y-88731000D01*
X109430000Y-104221000D02*
X109820000Y-103831000D01*
X114460000Y-89771000D02*
X113420000Y-88731000D01*
D69*
X97735000Y-128091000D02*
X97830000Y-127996000D01*
X96430000Y-128091000D02*
X97735000Y-128091000D01*
D70*
X94180000Y-126941000D02*
X95430000Y-126941000D01*
D69*
X96240000Y-129221000D02*
X99430000Y-129221000D01*
X95930000Y-128091000D02*
X95930000Y-128911000D01*
X99730000Y-128921000D02*
X99730000Y-127996000D01*
X95930000Y-128911000D02*
X96240000Y-129221000D01*
X99430000Y-129221000D02*
X99730000Y-128921000D01*
D68*
X108885000Y-106721000D02*
X110935000Y-106721000D01*
D70*
X102240000Y-103761000D02*
X102240000Y-102616000D01*
X103200000Y-104721000D02*
X102240000Y-103761000D01*
X103985000Y-104721000D02*
X103200000Y-104721000D01*
X102240000Y-102616000D02*
X101630000Y-102006000D01*
X103300000Y-104221000D02*
X102910000Y-103831000D01*
X103985000Y-104221000D02*
X103300000Y-104221000D01*
X102910000Y-103831000D02*
X102910000Y-102161000D01*
X104460000Y-99801000D02*
X105185000Y-100526000D01*
X105185000Y-100526000D02*
X105185000Y-103521000D01*
X104230000Y-103521000D02*
X103920000Y-103211000D01*
X104685000Y-103521000D02*
X104230000Y-103521000D01*
X103920000Y-103211000D02*
X103920000Y-102186000D01*
X112820000Y-120291000D02*
X112820000Y-119301000D01*
X112820000Y-119301000D02*
X112810000Y-119291000D01*
D71*
X97842500Y-120811000D02*
X97842500Y-119413500D01*
X97842500Y-119413500D02*
X97840000Y-119411000D01*
D67*
X98780000Y-125721000D02*
X98780000Y-127996000D01*
D70*
X107450000Y-86650000D02*
X115558283Y-86650000D01*
X113337500Y-101218500D02*
X113012500Y-101218500D01*
X113012500Y-101218500D02*
X109510000Y-104721000D01*
X118470000Y-89561717D02*
X118470000Y-92541000D01*
X109510000Y-104721000D02*
X108885000Y-104721000D01*
X115558283Y-86650000D02*
X118470000Y-89561717D01*
X106190000Y-100521000D02*
X106190000Y-103516000D01*
X106190000Y-103516000D02*
X106185000Y-103521000D01*
X112790000Y-95601000D02*
X108990000Y-99401000D01*
X112790000Y-90221000D02*
X112790000Y-95601000D01*
X107380000Y-99401000D02*
X108990000Y-99401000D01*
X106260000Y-100521000D02*
X107380000Y-99401000D01*
X105090000Y-83442134D02*
X105090000Y-80971000D01*
X105090000Y-80971000D02*
X104490000Y-80371000D01*
X104950000Y-85150000D02*
X104950000Y-83582134D01*
X104950000Y-83582134D02*
X105090000Y-83442134D01*
X105950000Y-80381000D02*
X104940000Y-79371000D01*
X105950000Y-85150000D02*
X105950000Y-80381000D01*
X106890000Y-85691041D02*
X106890000Y-85671000D01*
X107348959Y-86150000D02*
X106890000Y-85691041D01*
X107450000Y-86150000D02*
X107348959Y-86150000D01*
D72*
X103450000Y-95674159D02*
X102586159Y-96538000D01*
X103450000Y-91650000D02*
X103450000Y-95674159D01*
X102586159Y-96538000D02*
X94307000Y-96538000D01*
X94307000Y-96538000D02*
X94040000Y-96271000D01*
D69*
X103700000Y-91150000D02*
X103700000Y-91151000D01*
G04 #@! TA.AperFunction,Conductor*
G36*
X101203039Y-124340685D02*
G01*
X101248794Y-124393489D01*
X101260000Y-124445000D01*
X101260000Y-127017000D01*
X101240315Y-127084039D01*
X101187511Y-127129794D01*
X101136000Y-127141000D01*
X99384000Y-127141000D01*
X99316961Y-127121315D01*
X99271206Y-127068511D01*
X99260000Y-127017000D01*
X99260000Y-126880722D01*
X99279685Y-126813683D01*
X99332489Y-126767928D01*
X99401647Y-126757984D01*
X99429490Y-126765368D01*
X99448553Y-126772885D01*
X99530000Y-126782665D01*
X99930000Y-126782665D01*
X100011442Y-126772886D01*
X100152095Y-126717420D01*
X100272564Y-126626064D01*
X100363920Y-126505595D01*
X100419386Y-126364943D01*
X100430000Y-126276553D01*
X100430000Y-125921000D01*
X99930000Y-125921000D01*
X99930000Y-126782665D01*
X99530000Y-126782665D01*
X99530000Y-125521000D01*
X99930000Y-125521000D01*
X100430000Y-125521000D01*
X100430000Y-125165446D01*
X100419386Y-125077056D01*
X100363920Y-124936404D01*
X100272564Y-124815935D01*
X100152095Y-124724579D01*
X100011443Y-124669113D01*
X99930000Y-124659332D01*
X99930000Y-125521000D01*
X99530000Y-125521000D01*
X99530000Y-124659332D01*
X99448557Y-124669113D01*
X99448553Y-124669114D01*
X99429487Y-124676633D01*
X99359900Y-124682912D01*
X99297965Y-124650574D01*
X99263345Y-124589884D01*
X99260000Y-124561277D01*
X99260000Y-124445000D01*
X99279685Y-124377961D01*
X99332489Y-124332206D01*
X99384000Y-124321000D01*
X101136000Y-124321000D01*
X101203039Y-124340685D01*
G37*
G04 #@! TD.AperFunction*
M02*
