G04 #@! TF.GenerationSoftware,KiCad,Pcbnew,7.0.6-7.0.6~ubuntu22.04.1*
G04 #@! TF.CreationDate,2023-08-08T18:58:17+02:00*
G04 #@! TF.ProjectId,Sensor_Nodes,53656e73-6f72-45f4-9e6f-6465732e6b69,rev?*
G04 #@! TF.SameCoordinates,Original*
G04 #@! TF.FileFunction,Legend,Top*
G04 #@! TF.FilePolarity,Positive*
%FSLAX46Y46*%
G04 Gerber Fmt 4.6, Leading zero omitted, Abs format (unit mm)*
G04 Created by KiCad (PCBNEW 7.0.6-7.0.6~ubuntu22.04.1) date 2023-08-08 18:58:17*
%MOMM*%
%LPD*%
G01*
G04 APERTURE LIST*
%ADD10C,0.100000*%
%ADD11C,0.080000*%
%ADD12C,0.150000*%
%ADD13C,0.120000*%
G04 APERTURE END LIST*
D10*
G36*
X110117351Y-58018643D02*
G01*
X110160409Y-58061702D01*
X110182898Y-58106679D01*
X110208646Y-58209669D01*
X110208646Y-58283072D01*
X110182898Y-58386062D01*
X110160409Y-58431039D01*
X110117351Y-58474098D01*
X110050533Y-58496371D01*
X109965789Y-58496371D01*
X109965789Y-57996371D01*
X110050533Y-57996371D01*
X110117351Y-58018643D01*
G37*
G36*
X110394360Y-58682085D02*
G01*
X108494360Y-58682085D01*
X108494360Y-58117800D01*
X108580074Y-58117800D01*
X108584527Y-58128552D01*
X108585353Y-58140161D01*
X108613925Y-58197303D01*
X108620140Y-58202693D01*
X108623290Y-58210297D01*
X108651861Y-58238869D01*
X108659464Y-58242018D01*
X108664857Y-58248236D01*
X108722000Y-58276807D01*
X108727668Y-58277209D01*
X108732233Y-58280592D01*
X108841193Y-58307832D01*
X108886170Y-58330320D01*
X108903267Y-58347418D01*
X108922931Y-58386745D01*
X108922931Y-58420282D01*
X108903266Y-58459610D01*
X108886170Y-58476707D01*
X108846842Y-58496371D01*
X108723902Y-58496371D01*
X108645885Y-58470366D01*
X108607713Y-58473079D01*
X108582640Y-58501989D01*
X108585353Y-58540161D01*
X108614263Y-58565234D01*
X108699978Y-58593805D01*
X108708185Y-58593221D01*
X108715789Y-58596371D01*
X108858646Y-58596371D01*
X108869396Y-58591917D01*
X108881006Y-58591093D01*
X108938150Y-58562521D01*
X108943541Y-58556304D01*
X108951145Y-58553155D01*
X108979716Y-58524583D01*
X108982864Y-58516980D01*
X108989082Y-58511588D01*
X109017653Y-58454445D01*
X109018477Y-58442835D01*
X109022931Y-58432085D01*
X109022931Y-58374942D01*
X109018476Y-58364189D01*
X109017652Y-58352582D01*
X108989081Y-58295439D01*
X108982864Y-58290047D01*
X108979716Y-58282445D01*
X108951145Y-58253873D01*
X108943541Y-58250723D01*
X108938150Y-58244507D01*
X108881006Y-58215935D01*
X108875337Y-58215532D01*
X108870773Y-58212150D01*
X108761811Y-58184909D01*
X108716835Y-58162421D01*
X108699737Y-58145323D01*
X108680074Y-58105996D01*
X108680074Y-58072460D01*
X108699738Y-58033132D01*
X108716835Y-58016034D01*
X108756163Y-57996371D01*
X108879104Y-57996371D01*
X108957119Y-58022376D01*
X108995291Y-58019663D01*
X109020365Y-57990753D01*
X109018033Y-57957952D01*
X109124292Y-57957952D01*
X109267149Y-58557952D01*
X109271532Y-58564009D01*
X109272518Y-58571423D01*
X109282336Y-58578938D01*
X109289584Y-58588953D01*
X109296966Y-58590136D01*
X109302906Y-58594683D01*
X109315164Y-58593054D01*
X109327370Y-58595011D01*
X109333427Y-58590627D01*
X109340841Y-58589642D01*
X109348357Y-58579821D01*
X109358371Y-58572575D01*
X109359554Y-58565193D01*
X109364101Y-58559254D01*
X109430074Y-58311853D01*
X109496048Y-58559254D01*
X109500593Y-58565192D01*
X109501777Y-58572576D01*
X109511793Y-58579824D01*
X109519308Y-58589642D01*
X109526721Y-58590627D01*
X109532779Y-58595011D01*
X109544986Y-58593054D01*
X109557243Y-58594683D01*
X109563181Y-58590137D01*
X109570565Y-58588954D01*
X109577814Y-58578936D01*
X109587631Y-58571422D01*
X109588615Y-58564010D01*
X109593000Y-58557952D01*
X109595757Y-58546371D01*
X109865789Y-58546371D01*
X109880434Y-58581726D01*
X109915789Y-58596371D01*
X110058646Y-58596371D01*
X110066248Y-58593221D01*
X110074457Y-58593805D01*
X110160171Y-58565234D01*
X110168962Y-58557608D01*
X110179715Y-58553155D01*
X110236858Y-58496013D01*
X110240007Y-58488409D01*
X110246225Y-58483017D01*
X110274796Y-58425874D01*
X110275198Y-58420205D01*
X110278581Y-58415641D01*
X110307153Y-58301355D01*
X110306219Y-58295084D01*
X110308646Y-58289228D01*
X110308646Y-58203514D01*
X110306219Y-58197657D01*
X110307153Y-58191387D01*
X110278581Y-58077101D01*
X110275198Y-58072536D01*
X110274796Y-58066868D01*
X110246225Y-58009725D01*
X110240007Y-58004332D01*
X110236858Y-57996729D01*
X110179715Y-57939587D01*
X110168962Y-57935133D01*
X110160171Y-57927508D01*
X110074457Y-57898937D01*
X110066248Y-57899520D01*
X110058646Y-57896371D01*
X109915789Y-57896371D01*
X109880434Y-57911016D01*
X109865789Y-57946371D01*
X109865789Y-58546370D01*
X109865789Y-58546371D01*
X109595757Y-58546371D01*
X109735858Y-57957952D01*
X109729801Y-57920166D01*
X109698799Y-57897730D01*
X109661014Y-57903788D01*
X109638578Y-57934789D01*
X109541616Y-58342027D01*
X109478387Y-58104917D01*
X109474243Y-58099504D01*
X109473346Y-58092748D01*
X109463026Y-58084848D01*
X109455127Y-58074529D01*
X109448370Y-58073631D01*
X109442958Y-58069488D01*
X109430075Y-58071199D01*
X109417192Y-58069488D01*
X109411778Y-58073631D01*
X109405024Y-58074529D01*
X109397124Y-58084848D01*
X109386804Y-58092748D01*
X109385906Y-58099503D01*
X109381763Y-58104916D01*
X109318533Y-58342027D01*
X109221572Y-57934790D01*
X109199137Y-57903788D01*
X109161351Y-57897731D01*
X109130349Y-57920166D01*
X109124292Y-57957952D01*
X109018033Y-57957952D01*
X109017651Y-57952581D01*
X108988742Y-57927508D01*
X108903028Y-57898937D01*
X108894819Y-57899520D01*
X108887217Y-57896371D01*
X108744360Y-57896371D01*
X108733609Y-57900824D01*
X108722000Y-57901649D01*
X108664857Y-57930220D01*
X108659464Y-57936437D01*
X108651861Y-57939587D01*
X108623290Y-57968159D01*
X108620140Y-57975762D01*
X108613925Y-57981153D01*
X108585353Y-58038296D01*
X108584527Y-58049904D01*
X108580074Y-58060657D01*
X108580074Y-58117800D01*
X108494360Y-58117800D01*
X108494360Y-57810657D01*
X110394360Y-57810657D01*
X110394360Y-58682085D01*
G37*
D11*
X107107392Y-56265935D02*
X107069297Y-56246887D01*
X107069297Y-56246887D02*
X107012154Y-56246887D01*
X107012154Y-56246887D02*
X106955011Y-56265935D01*
X106955011Y-56265935D02*
X106916916Y-56304030D01*
X106916916Y-56304030D02*
X106897869Y-56342125D01*
X106897869Y-56342125D02*
X106878821Y-56418316D01*
X106878821Y-56418316D02*
X106878821Y-56475459D01*
X106878821Y-56475459D02*
X106897869Y-56551649D01*
X106897869Y-56551649D02*
X106916916Y-56589744D01*
X106916916Y-56589744D02*
X106955011Y-56627840D01*
X106955011Y-56627840D02*
X107012154Y-56646887D01*
X107012154Y-56646887D02*
X107050250Y-56646887D01*
X107050250Y-56646887D02*
X107107392Y-56627840D01*
X107107392Y-56627840D02*
X107126440Y-56608792D01*
X107126440Y-56608792D02*
X107126440Y-56475459D01*
X107126440Y-56475459D02*
X107050250Y-56475459D01*
X107297869Y-56646887D02*
X107297869Y-56246887D01*
X107297869Y-56246887D02*
X107526440Y-56646887D01*
X107526440Y-56646887D02*
X107526440Y-56246887D01*
X107716917Y-56646887D02*
X107716917Y-56246887D01*
X107716917Y-56246887D02*
X107812155Y-56246887D01*
X107812155Y-56246887D02*
X107869298Y-56265935D01*
X107869298Y-56265935D02*
X107907393Y-56304030D01*
X107907393Y-56304030D02*
X107926440Y-56342125D01*
X107926440Y-56342125D02*
X107945488Y-56418316D01*
X107945488Y-56418316D02*
X107945488Y-56475459D01*
X107945488Y-56475459D02*
X107926440Y-56551649D01*
X107926440Y-56551649D02*
X107907393Y-56589744D01*
X107907393Y-56589744D02*
X107869298Y-56627840D01*
X107869298Y-56627840D02*
X107812155Y-56646887D01*
X107812155Y-56646887D02*
X107716917Y-56646887D01*
X114732392Y-44965935D02*
X114694297Y-44946887D01*
X114694297Y-44946887D02*
X114637154Y-44946887D01*
X114637154Y-44946887D02*
X114580011Y-44965935D01*
X114580011Y-44965935D02*
X114541916Y-45004030D01*
X114541916Y-45004030D02*
X114522869Y-45042125D01*
X114522869Y-45042125D02*
X114503821Y-45118316D01*
X114503821Y-45118316D02*
X114503821Y-45175459D01*
X114503821Y-45175459D02*
X114522869Y-45251649D01*
X114522869Y-45251649D02*
X114541916Y-45289744D01*
X114541916Y-45289744D02*
X114580011Y-45327840D01*
X114580011Y-45327840D02*
X114637154Y-45346887D01*
X114637154Y-45346887D02*
X114675250Y-45346887D01*
X114675250Y-45346887D02*
X114732392Y-45327840D01*
X114732392Y-45327840D02*
X114751440Y-45308792D01*
X114751440Y-45308792D02*
X114751440Y-45175459D01*
X114751440Y-45175459D02*
X114675250Y-45175459D01*
X114922869Y-45346887D02*
X114922869Y-44946887D01*
X114922869Y-44946887D02*
X115151440Y-45346887D01*
X115151440Y-45346887D02*
X115151440Y-44946887D01*
X115341917Y-45346887D02*
X115341917Y-44946887D01*
X115341917Y-44946887D02*
X115437155Y-44946887D01*
X115437155Y-44946887D02*
X115494298Y-44965935D01*
X115494298Y-44965935D02*
X115532393Y-45004030D01*
X115532393Y-45004030D02*
X115551440Y-45042125D01*
X115551440Y-45042125D02*
X115570488Y-45118316D01*
X115570488Y-45118316D02*
X115570488Y-45175459D01*
X115570488Y-45175459D02*
X115551440Y-45251649D01*
X115551440Y-45251649D02*
X115532393Y-45289744D01*
X115532393Y-45289744D02*
X115494298Y-45327840D01*
X115494298Y-45327840D02*
X115437155Y-45346887D01*
X115437155Y-45346887D02*
X115341917Y-45346887D01*
X114597869Y-65746887D02*
X114597869Y-65346887D01*
X114597869Y-65346887D02*
X114750250Y-65346887D01*
X114750250Y-65346887D02*
X114788345Y-65365935D01*
X114788345Y-65365935D02*
X114807392Y-65384982D01*
X114807392Y-65384982D02*
X114826440Y-65423078D01*
X114826440Y-65423078D02*
X114826440Y-65480220D01*
X114826440Y-65480220D02*
X114807392Y-65518316D01*
X114807392Y-65518316D02*
X114788345Y-65537363D01*
X114788345Y-65537363D02*
X114750250Y-65556411D01*
X114750250Y-65556411D02*
X114597869Y-65556411D01*
X115207392Y-65746887D02*
X114978821Y-65746887D01*
X115093107Y-65746887D02*
X115093107Y-65346887D01*
X115093107Y-65346887D02*
X115055011Y-65404030D01*
X115055011Y-65404030D02*
X115016916Y-65442125D01*
X115016916Y-65442125D02*
X114978821Y-65461173D01*
X115378821Y-65708792D02*
X115397868Y-65727840D01*
X115397868Y-65727840D02*
X115378821Y-65746887D01*
X115378821Y-65746887D02*
X115359773Y-65727840D01*
X115359773Y-65727840D02*
X115378821Y-65708792D01*
X115378821Y-65708792D02*
X115378821Y-65746887D01*
X115645487Y-65346887D02*
X115683582Y-65346887D01*
X115683582Y-65346887D02*
X115721678Y-65365935D01*
X115721678Y-65365935D02*
X115740725Y-65384982D01*
X115740725Y-65384982D02*
X115759773Y-65423078D01*
X115759773Y-65423078D02*
X115778820Y-65499268D01*
X115778820Y-65499268D02*
X115778820Y-65594506D01*
X115778820Y-65594506D02*
X115759773Y-65670697D01*
X115759773Y-65670697D02*
X115740725Y-65708792D01*
X115740725Y-65708792D02*
X115721678Y-65727840D01*
X115721678Y-65727840D02*
X115683582Y-65746887D01*
X115683582Y-65746887D02*
X115645487Y-65746887D01*
X115645487Y-65746887D02*
X115607392Y-65727840D01*
X115607392Y-65727840D02*
X115588344Y-65708792D01*
X115588344Y-65708792D02*
X115569297Y-65670697D01*
X115569297Y-65670697D02*
X115550249Y-65594506D01*
X115550249Y-65594506D02*
X115550249Y-65499268D01*
X115550249Y-65499268D02*
X115569297Y-65423078D01*
X115569297Y-65423078D02*
X115588344Y-65384982D01*
X115588344Y-65384982D02*
X115607392Y-65365935D01*
X115607392Y-65365935D02*
X115645487Y-65346887D01*
X116159772Y-65746887D02*
X115931201Y-65746887D01*
X116045487Y-65746887D02*
X116045487Y-65346887D01*
X116045487Y-65346887D02*
X116007391Y-65404030D01*
X116007391Y-65404030D02*
X115969296Y-65442125D01*
X115969296Y-65442125D02*
X115931201Y-65461173D01*
D10*
G36*
X83264741Y-39916034D02*
G01*
X83281838Y-39933132D01*
X83301503Y-39972460D01*
X83301503Y-40034567D01*
X83281838Y-40073895D01*
X83264742Y-40090992D01*
X83225414Y-40110657D01*
X83058646Y-40110657D01*
X83058646Y-39896371D01*
X83225413Y-39896371D01*
X83264741Y-39916034D01*
G37*
G36*
X84572932Y-40582085D02*
G01*
X82872932Y-40582085D01*
X82872932Y-40446371D01*
X82958646Y-40446371D01*
X82973291Y-40481726D01*
X83008646Y-40496371D01*
X83044001Y-40481726D01*
X83058646Y-40446371D01*
X83058646Y-40210657D01*
X83125470Y-40210657D01*
X83310541Y-40475044D01*
X83342814Y-40495609D01*
X83380176Y-40487332D01*
X83400741Y-40455060D01*
X83392464Y-40417697D01*
X83245216Y-40207343D01*
X83247969Y-40206203D01*
X83259578Y-40205378D01*
X83316721Y-40176806D01*
X83322112Y-40170589D01*
X83329715Y-40167440D01*
X83358286Y-40138870D01*
X83361435Y-40131266D01*
X83367652Y-40125875D01*
X83396224Y-40068732D01*
X83397049Y-40057123D01*
X83401503Y-40046371D01*
X83401503Y-40017800D01*
X83530074Y-40017800D01*
X83534527Y-40028552D01*
X83535353Y-40040161D01*
X83563925Y-40097303D01*
X83570140Y-40102693D01*
X83573290Y-40110297D01*
X83601861Y-40138869D01*
X83609464Y-40142018D01*
X83614857Y-40148236D01*
X83672000Y-40176807D01*
X83677668Y-40177209D01*
X83682233Y-40180592D01*
X83791193Y-40207832D01*
X83836170Y-40230320D01*
X83853267Y-40247418D01*
X83872931Y-40286745D01*
X83872931Y-40320281D01*
X83853266Y-40359610D01*
X83836170Y-40376707D01*
X83796842Y-40396371D01*
X83673902Y-40396371D01*
X83595885Y-40370366D01*
X83557713Y-40373079D01*
X83532640Y-40401989D01*
X83535353Y-40440161D01*
X83564263Y-40465234D01*
X83649978Y-40493805D01*
X83658185Y-40493221D01*
X83665789Y-40496371D01*
X83808646Y-40496371D01*
X83819396Y-40491917D01*
X83831006Y-40491093D01*
X83888150Y-40462521D01*
X83893541Y-40456304D01*
X83901145Y-40453155D01*
X83929716Y-40424583D01*
X83932864Y-40416980D01*
X83939082Y-40411588D01*
X83967653Y-40354445D01*
X83968477Y-40342835D01*
X83972931Y-40332085D01*
X83972931Y-40274942D01*
X83968476Y-40264189D01*
X83967652Y-40252582D01*
X83939081Y-40195439D01*
X83932864Y-40190047D01*
X83929716Y-40182445D01*
X83901145Y-40153873D01*
X83893541Y-40150723D01*
X83888150Y-40144507D01*
X83831006Y-40115935D01*
X83825337Y-40115532D01*
X83820773Y-40112150D01*
X83711811Y-40084909D01*
X83666835Y-40062421D01*
X83649737Y-40045323D01*
X83630074Y-40005996D01*
X83630074Y-39972460D01*
X83649738Y-39933132D01*
X83666835Y-39916034D01*
X83706163Y-39896371D01*
X83829104Y-39896371D01*
X83907119Y-39922376D01*
X83945291Y-39919663D01*
X83970365Y-39890753D01*
X83967651Y-39852581D01*
X83960491Y-39846371D01*
X84044360Y-39846371D01*
X84059005Y-39881726D01*
X84094360Y-39896371D01*
X84215789Y-39896371D01*
X84215789Y-40446371D01*
X84230434Y-40481726D01*
X84265789Y-40496371D01*
X84301144Y-40481726D01*
X84315789Y-40446371D01*
X84315789Y-39896371D01*
X84437218Y-39896371D01*
X84472573Y-39881726D01*
X84487218Y-39846371D01*
X84472573Y-39811016D01*
X84437218Y-39796371D01*
X84094360Y-39796371D01*
X84059005Y-39811016D01*
X84044360Y-39846371D01*
X83960491Y-39846371D01*
X83938742Y-39827508D01*
X83853028Y-39798937D01*
X83844819Y-39799520D01*
X83837217Y-39796371D01*
X83694360Y-39796371D01*
X83683609Y-39800824D01*
X83672000Y-39801649D01*
X83614857Y-39830220D01*
X83609464Y-39836437D01*
X83601861Y-39839587D01*
X83573290Y-39868159D01*
X83570140Y-39875762D01*
X83563925Y-39881153D01*
X83535353Y-39938296D01*
X83534527Y-39949904D01*
X83530074Y-39960657D01*
X83530074Y-40017800D01*
X83401503Y-40017800D01*
X83401503Y-39960657D01*
X83397049Y-39949904D01*
X83396224Y-39938296D01*
X83367652Y-39881153D01*
X83361435Y-39875761D01*
X83358287Y-39868159D01*
X83329716Y-39839587D01*
X83322112Y-39836437D01*
X83316721Y-39830221D01*
X83259577Y-39801649D01*
X83247967Y-39800824D01*
X83237217Y-39796371D01*
X83008646Y-39796371D01*
X82973291Y-39811016D01*
X82958646Y-39846371D01*
X82958646Y-40446371D01*
X82872932Y-40446371D01*
X82872932Y-39710657D01*
X84572932Y-39710657D01*
X84572932Y-40582085D01*
G37*
D11*
X114597869Y-53071887D02*
X114597869Y-52671887D01*
X114597869Y-52671887D02*
X114750250Y-52671887D01*
X114750250Y-52671887D02*
X114788345Y-52690935D01*
X114788345Y-52690935D02*
X114807392Y-52709982D01*
X114807392Y-52709982D02*
X114826440Y-52748078D01*
X114826440Y-52748078D02*
X114826440Y-52805220D01*
X114826440Y-52805220D02*
X114807392Y-52843316D01*
X114807392Y-52843316D02*
X114788345Y-52862363D01*
X114788345Y-52862363D02*
X114750250Y-52881411D01*
X114750250Y-52881411D02*
X114597869Y-52881411D01*
X115207392Y-53071887D02*
X114978821Y-53071887D01*
X115093107Y-53071887D02*
X115093107Y-52671887D01*
X115093107Y-52671887D02*
X115055011Y-52729030D01*
X115055011Y-52729030D02*
X115016916Y-52767125D01*
X115016916Y-52767125D02*
X114978821Y-52786173D01*
X115378821Y-53033792D02*
X115397868Y-53052840D01*
X115397868Y-53052840D02*
X115378821Y-53071887D01*
X115378821Y-53071887D02*
X115359773Y-53052840D01*
X115359773Y-53052840D02*
X115378821Y-53033792D01*
X115378821Y-53033792D02*
X115378821Y-53071887D01*
X115645487Y-52671887D02*
X115683582Y-52671887D01*
X115683582Y-52671887D02*
X115721678Y-52690935D01*
X115721678Y-52690935D02*
X115740725Y-52709982D01*
X115740725Y-52709982D02*
X115759773Y-52748078D01*
X115759773Y-52748078D02*
X115778820Y-52824268D01*
X115778820Y-52824268D02*
X115778820Y-52919506D01*
X115778820Y-52919506D02*
X115759773Y-52995697D01*
X115759773Y-52995697D02*
X115740725Y-53033792D01*
X115740725Y-53033792D02*
X115721678Y-53052840D01*
X115721678Y-53052840D02*
X115683582Y-53071887D01*
X115683582Y-53071887D02*
X115645487Y-53071887D01*
X115645487Y-53071887D02*
X115607392Y-53052840D01*
X115607392Y-53052840D02*
X115588344Y-53033792D01*
X115588344Y-53033792D02*
X115569297Y-52995697D01*
X115569297Y-52995697D02*
X115550249Y-52919506D01*
X115550249Y-52919506D02*
X115550249Y-52824268D01*
X115550249Y-52824268D02*
X115569297Y-52748078D01*
X115569297Y-52748078D02*
X115588344Y-52709982D01*
X115588344Y-52709982D02*
X115607392Y-52690935D01*
X115607392Y-52690935D02*
X115645487Y-52671887D01*
X116121677Y-52671887D02*
X116045487Y-52671887D01*
X116045487Y-52671887D02*
X116007391Y-52690935D01*
X116007391Y-52690935D02*
X115988344Y-52709982D01*
X115988344Y-52709982D02*
X115950249Y-52767125D01*
X115950249Y-52767125D02*
X115931201Y-52843316D01*
X115931201Y-52843316D02*
X115931201Y-52995697D01*
X115931201Y-52995697D02*
X115950249Y-53033792D01*
X115950249Y-53033792D02*
X115969296Y-53052840D01*
X115969296Y-53052840D02*
X116007391Y-53071887D01*
X116007391Y-53071887D02*
X116083582Y-53071887D01*
X116083582Y-53071887D02*
X116121677Y-53052840D01*
X116121677Y-53052840D02*
X116140725Y-53033792D01*
X116140725Y-53033792D02*
X116159772Y-52995697D01*
X116159772Y-52995697D02*
X116159772Y-52900459D01*
X116159772Y-52900459D02*
X116140725Y-52862363D01*
X116140725Y-52862363D02*
X116121677Y-52843316D01*
X116121677Y-52843316D02*
X116083582Y-52824268D01*
X116083582Y-52824268D02*
X116007391Y-52824268D01*
X116007391Y-52824268D02*
X115969296Y-52843316D01*
X115969296Y-52843316D02*
X115950249Y-52862363D01*
X115950249Y-52862363D02*
X115931201Y-52900459D01*
D12*
X96637969Y-69543771D02*
X96637969Y-69972342D01*
X96637969Y-69972342D02*
X96609398Y-70058057D01*
X96609398Y-70058057D02*
X96552255Y-70115200D01*
X96552255Y-70115200D02*
X96466541Y-70143771D01*
X96466541Y-70143771D02*
X96409398Y-70143771D01*
X97209398Y-70143771D02*
X96923684Y-70143771D01*
X96923684Y-70143771D02*
X96923684Y-69543771D01*
X97752255Y-70086628D02*
X97723683Y-70115200D01*
X97723683Y-70115200D02*
X97637969Y-70143771D01*
X97637969Y-70143771D02*
X97580826Y-70143771D01*
X97580826Y-70143771D02*
X97495112Y-70115200D01*
X97495112Y-70115200D02*
X97437969Y-70058057D01*
X97437969Y-70058057D02*
X97409398Y-70000914D01*
X97409398Y-70000914D02*
X97380826Y-69886628D01*
X97380826Y-69886628D02*
X97380826Y-69800914D01*
X97380826Y-69800914D02*
X97409398Y-69686628D01*
X97409398Y-69686628D02*
X97437969Y-69629485D01*
X97437969Y-69629485D02*
X97495112Y-69572342D01*
X97495112Y-69572342D02*
X97580826Y-69543771D01*
X97580826Y-69543771D02*
X97637969Y-69543771D01*
X97637969Y-69543771D02*
X97723683Y-69572342D01*
X97723683Y-69572342D02*
X97752255Y-69600914D01*
X98180826Y-69543771D02*
X98180826Y-69972342D01*
X98180826Y-69972342D02*
X98152255Y-70058057D01*
X98152255Y-70058057D02*
X98095112Y-70115200D01*
X98095112Y-70115200D02*
X98009398Y-70143771D01*
X98009398Y-70143771D02*
X97952255Y-70143771D01*
X98752255Y-70143771D02*
X98466541Y-70143771D01*
X98466541Y-70143771D02*
X98466541Y-69543771D01*
X99295112Y-70086628D02*
X99266540Y-70115200D01*
X99266540Y-70115200D02*
X99180826Y-70143771D01*
X99180826Y-70143771D02*
X99123683Y-70143771D01*
X99123683Y-70143771D02*
X99037969Y-70115200D01*
X99037969Y-70115200D02*
X98980826Y-70058057D01*
X98980826Y-70058057D02*
X98952255Y-70000914D01*
X98952255Y-70000914D02*
X98923683Y-69886628D01*
X98923683Y-69886628D02*
X98923683Y-69800914D01*
X98923683Y-69800914D02*
X98952255Y-69686628D01*
X98952255Y-69686628D02*
X98980826Y-69629485D01*
X98980826Y-69629485D02*
X99037969Y-69572342D01*
X99037969Y-69572342D02*
X99123683Y-69543771D01*
X99123683Y-69543771D02*
X99180826Y-69543771D01*
X99180826Y-69543771D02*
X99266540Y-69572342D01*
X99266540Y-69572342D02*
X99295112Y-69600914D01*
X99723683Y-69543771D02*
X99723683Y-69972342D01*
X99723683Y-69972342D02*
X99695112Y-70058057D01*
X99695112Y-70058057D02*
X99637969Y-70115200D01*
X99637969Y-70115200D02*
X99552255Y-70143771D01*
X99552255Y-70143771D02*
X99495112Y-70143771D01*
X100295112Y-70143771D02*
X100009398Y-70143771D01*
X100009398Y-70143771D02*
X100009398Y-69543771D01*
X100837969Y-70086628D02*
X100809397Y-70115200D01*
X100809397Y-70115200D02*
X100723683Y-70143771D01*
X100723683Y-70143771D02*
X100666540Y-70143771D01*
X100666540Y-70143771D02*
X100580826Y-70115200D01*
X100580826Y-70115200D02*
X100523683Y-70058057D01*
X100523683Y-70058057D02*
X100495112Y-70000914D01*
X100495112Y-70000914D02*
X100466540Y-69886628D01*
X100466540Y-69886628D02*
X100466540Y-69800914D01*
X100466540Y-69800914D02*
X100495112Y-69686628D01*
X100495112Y-69686628D02*
X100523683Y-69629485D01*
X100523683Y-69629485D02*
X100580826Y-69572342D01*
X100580826Y-69572342D02*
X100666540Y-69543771D01*
X100666540Y-69543771D02*
X100723683Y-69543771D01*
X100723683Y-69543771D02*
X100809397Y-69572342D01*
X100809397Y-69572342D02*
X100837969Y-69600914D01*
X101266540Y-69543771D02*
X101266540Y-69972342D01*
X101266540Y-69972342D02*
X101237969Y-70058057D01*
X101237969Y-70058057D02*
X101180826Y-70115200D01*
X101180826Y-70115200D02*
X101095112Y-70143771D01*
X101095112Y-70143771D02*
X101037969Y-70143771D01*
X101837969Y-70143771D02*
X101552255Y-70143771D01*
X101552255Y-70143771D02*
X101552255Y-69543771D01*
X102380826Y-70086628D02*
X102352254Y-70115200D01*
X102352254Y-70115200D02*
X102266540Y-70143771D01*
X102266540Y-70143771D02*
X102209397Y-70143771D01*
X102209397Y-70143771D02*
X102123683Y-70115200D01*
X102123683Y-70115200D02*
X102066540Y-70058057D01*
X102066540Y-70058057D02*
X102037969Y-70000914D01*
X102037969Y-70000914D02*
X102009397Y-69886628D01*
X102009397Y-69886628D02*
X102009397Y-69800914D01*
X102009397Y-69800914D02*
X102037969Y-69686628D01*
X102037969Y-69686628D02*
X102066540Y-69629485D01*
X102066540Y-69629485D02*
X102123683Y-69572342D01*
X102123683Y-69572342D02*
X102209397Y-69543771D01*
X102209397Y-69543771D02*
X102266540Y-69543771D01*
X102266540Y-69543771D02*
X102352254Y-69572342D01*
X102352254Y-69572342D02*
X102380826Y-69600914D01*
D10*
G36*
X81042350Y-59929358D02*
G01*
X81056838Y-59943846D01*
X81076503Y-59983174D01*
X81076503Y-60045281D01*
X81056838Y-60084609D01*
X81039741Y-60101707D01*
X81000413Y-60121371D01*
X80833646Y-60121371D01*
X80833646Y-59907085D01*
X80975532Y-59907085D01*
X81042350Y-59929358D01*
G37*
G36*
X81011170Y-59641034D02*
G01*
X81028266Y-59658131D01*
X81047931Y-59697460D01*
X81047931Y-59730997D01*
X81028267Y-59770323D01*
X81011170Y-59787421D01*
X80971842Y-59807085D01*
X80833646Y-59807085D01*
X80833646Y-59621371D01*
X80971842Y-59621371D01*
X81011170Y-59641034D01*
G37*
G36*
X81571417Y-59949942D02*
G01*
X81424445Y-59949942D01*
X81497930Y-59729484D01*
X81571417Y-59949942D01*
G37*
G36*
X82290789Y-60307085D02*
G01*
X80647932Y-60307085D01*
X80647932Y-60171371D01*
X80733646Y-60171371D01*
X80748291Y-60206726D01*
X80783646Y-60221371D01*
X81012217Y-60221371D01*
X81022967Y-60216917D01*
X81034577Y-60216093D01*
X81091721Y-60187521D01*
X81097112Y-60181304D01*
X81104716Y-60178155D01*
X81127310Y-60155560D01*
X81250497Y-60155560D01*
X81253210Y-60193731D01*
X81282120Y-60218805D01*
X81320291Y-60216092D01*
X81345365Y-60187182D01*
X81391112Y-60049942D01*
X81604750Y-60049942D01*
X81650497Y-60187183D01*
X81675571Y-60216092D01*
X81713743Y-60218806D01*
X81742652Y-60193732D01*
X81745365Y-60155560D01*
X81550635Y-59571371D01*
X81762217Y-59571371D01*
X81776862Y-59606726D01*
X81812217Y-59621371D01*
X81933646Y-59621371D01*
X81933646Y-60171371D01*
X81948291Y-60206726D01*
X81983646Y-60221371D01*
X82019001Y-60206726D01*
X82033646Y-60171371D01*
X82033646Y-59621371D01*
X82155075Y-59621371D01*
X82190430Y-59606726D01*
X82205075Y-59571371D01*
X82190430Y-59536016D01*
X82155075Y-59521371D01*
X81812217Y-59521371D01*
X81776862Y-59536016D01*
X81762217Y-59571371D01*
X81550635Y-59571371D01*
X81545365Y-59555560D01*
X81542916Y-59552737D01*
X81542652Y-59549010D01*
X81530672Y-59538619D01*
X81520291Y-59526650D01*
X81516566Y-59526385D01*
X81513743Y-59523936D01*
X81497927Y-59525060D01*
X81482120Y-59523937D01*
X81479297Y-59526385D01*
X81475571Y-59526650D01*
X81465183Y-59538626D01*
X81453210Y-59549011D01*
X81452945Y-59552736D01*
X81450497Y-59555559D01*
X81250497Y-60155560D01*
X81127310Y-60155560D01*
X81133287Y-60149583D01*
X81136435Y-60141980D01*
X81142652Y-60136589D01*
X81171224Y-60079446D01*
X81172049Y-60067837D01*
X81176503Y-60057085D01*
X81176503Y-59971371D01*
X81172049Y-59960618D01*
X81171224Y-59949010D01*
X81142652Y-59891867D01*
X81136435Y-59886475D01*
X81133286Y-59878872D01*
X81104715Y-59850302D01*
X81094105Y-59845907D01*
X81104716Y-59835297D01*
X81107864Y-59827694D01*
X81114081Y-59822303D01*
X81142652Y-59765160D01*
X81143476Y-59753552D01*
X81147931Y-59742800D01*
X81147931Y-59685657D01*
X81143477Y-59674906D01*
X81142653Y-59663297D01*
X81114082Y-59606154D01*
X81107864Y-59600761D01*
X81104716Y-59593159D01*
X81076145Y-59564587D01*
X81068541Y-59561437D01*
X81063150Y-59555221D01*
X81006006Y-59526649D01*
X80994396Y-59525824D01*
X80983646Y-59521371D01*
X80783646Y-59521371D01*
X80748291Y-59536016D01*
X80733646Y-59571371D01*
X80733646Y-60171370D01*
X80733646Y-60171371D01*
X80647932Y-60171371D01*
X80647932Y-59435657D01*
X82290789Y-59435657D01*
X82290789Y-60307085D01*
G37*
G36*
X101960208Y-60943643D02*
G01*
X102003266Y-60986702D01*
X102025755Y-61031679D01*
X102051503Y-61134669D01*
X102051503Y-61208072D01*
X102025755Y-61311062D01*
X102003266Y-61356039D01*
X101960208Y-61399098D01*
X101893390Y-61421371D01*
X101808646Y-61421371D01*
X101808646Y-60921371D01*
X101893390Y-60921371D01*
X101960208Y-60943643D01*
G37*
G36*
X102614743Y-60941036D02*
G01*
X102656354Y-60982647D01*
X102680074Y-61077524D01*
X102680074Y-61265217D01*
X102656354Y-61360094D01*
X102614743Y-61401705D01*
X102575413Y-61421371D01*
X102484734Y-61421371D01*
X102445407Y-61401707D01*
X102403794Y-61360095D01*
X102380074Y-61265215D01*
X102380074Y-61077526D01*
X102403794Y-60982646D01*
X102445407Y-60941034D01*
X102484734Y-60921371D01*
X102575413Y-60921371D01*
X102614743Y-60941036D01*
G37*
G36*
X103243314Y-60941036D02*
G01*
X103284925Y-60982647D01*
X103308645Y-61077524D01*
X103308645Y-61265217D01*
X103284925Y-61360094D01*
X103243314Y-61401705D01*
X103203984Y-61421371D01*
X103113305Y-61421371D01*
X103073978Y-61401707D01*
X103032365Y-61360095D01*
X103008645Y-61265215D01*
X103008645Y-61077526D01*
X103032365Y-60982646D01*
X103073978Y-60941034D01*
X103113305Y-60921371D01*
X103203984Y-60921371D01*
X103243314Y-60941036D01*
G37*
G36*
X103871883Y-60941034D02*
G01*
X103888980Y-60958132D01*
X103908645Y-60997460D01*
X103908645Y-61059567D01*
X103888980Y-61098895D01*
X103871884Y-61115992D01*
X103832556Y-61135657D01*
X103665788Y-61135657D01*
X103665788Y-60921371D01*
X103832555Y-60921371D01*
X103871883Y-60941034D01*
G37*
G36*
X104094359Y-61607085D02*
G01*
X101622932Y-61607085D01*
X101622932Y-61471371D01*
X101708646Y-61471371D01*
X101723291Y-61506726D01*
X101758646Y-61521371D01*
X101901503Y-61521371D01*
X101909105Y-61518221D01*
X101917314Y-61518805D01*
X102003028Y-61490234D01*
X102011819Y-61482608D01*
X102022572Y-61478155D01*
X102079715Y-61421013D01*
X102082864Y-61413409D01*
X102089082Y-61408017D01*
X102117653Y-61350874D01*
X102118055Y-61345205D01*
X102121438Y-61340641D01*
X102138756Y-61271371D01*
X102280074Y-61271371D01*
X102282500Y-61277227D01*
X102281567Y-61283498D01*
X102310139Y-61397784D01*
X102318144Y-61408588D01*
X102323291Y-61421012D01*
X102380433Y-61478155D01*
X102388036Y-61481304D01*
X102393428Y-61487521D01*
X102450571Y-61516092D01*
X102462178Y-61516916D01*
X102472931Y-61521371D01*
X102587217Y-61521371D01*
X102597967Y-61516917D01*
X102609577Y-61516093D01*
X102666721Y-61487521D01*
X102672112Y-61481304D01*
X102679715Y-61478155D01*
X102736858Y-61421013D01*
X102742003Y-61408589D01*
X102750010Y-61397784D01*
X102778581Y-61283498D01*
X102777647Y-61277227D01*
X102780074Y-61271371D01*
X102908645Y-61271371D01*
X102911071Y-61277227D01*
X102910138Y-61283498D01*
X102938710Y-61397784D01*
X102946715Y-61408588D01*
X102951862Y-61421012D01*
X103009004Y-61478155D01*
X103016607Y-61481304D01*
X103021999Y-61487521D01*
X103079142Y-61516092D01*
X103090749Y-61516916D01*
X103101502Y-61521371D01*
X103215788Y-61521371D01*
X103226538Y-61516917D01*
X103238148Y-61516093D01*
X103295292Y-61487521D01*
X103300683Y-61481304D01*
X103308286Y-61478155D01*
X103315070Y-61471371D01*
X103565788Y-61471371D01*
X103580433Y-61506726D01*
X103615788Y-61521371D01*
X103651143Y-61506726D01*
X103665788Y-61471371D01*
X103665788Y-61235657D01*
X103732612Y-61235657D01*
X103917683Y-61500044D01*
X103949956Y-61520609D01*
X103987318Y-61512332D01*
X104007883Y-61480060D01*
X103999606Y-61442697D01*
X103852358Y-61232343D01*
X103855111Y-61231203D01*
X103866720Y-61230378D01*
X103923863Y-61201806D01*
X103929254Y-61195589D01*
X103936857Y-61192440D01*
X103965428Y-61163870D01*
X103968577Y-61156266D01*
X103974794Y-61150875D01*
X104003366Y-61093732D01*
X104004191Y-61082123D01*
X104008645Y-61071371D01*
X104008645Y-60985657D01*
X104004191Y-60974904D01*
X104003366Y-60963296D01*
X103974794Y-60906153D01*
X103968577Y-60900761D01*
X103965429Y-60893159D01*
X103936858Y-60864587D01*
X103929254Y-60861437D01*
X103923863Y-60855221D01*
X103866719Y-60826649D01*
X103855109Y-60825824D01*
X103844359Y-60821371D01*
X103615788Y-60821371D01*
X103580433Y-60836016D01*
X103565788Y-60871371D01*
X103565788Y-61471371D01*
X103315070Y-61471371D01*
X103365429Y-61421013D01*
X103370574Y-61408589D01*
X103378581Y-61397784D01*
X103407152Y-61283498D01*
X103406218Y-61277227D01*
X103408645Y-61271371D01*
X103408645Y-61071371D01*
X103406218Y-61065514D01*
X103407152Y-61059244D01*
X103378581Y-60944958D01*
X103370574Y-60934152D01*
X103365429Y-60921729D01*
X103308286Y-60864587D01*
X103300683Y-60861437D01*
X103295292Y-60855221D01*
X103238148Y-60826649D01*
X103226538Y-60825824D01*
X103215788Y-60821371D01*
X103101502Y-60821371D01*
X103090749Y-60825825D01*
X103079142Y-60826650D01*
X103021999Y-60855221D01*
X103016607Y-60861437D01*
X103009004Y-60864587D01*
X102951862Y-60921730D01*
X102946715Y-60934153D01*
X102938710Y-60944958D01*
X102910138Y-61059244D01*
X102911071Y-61065514D01*
X102908645Y-61071371D01*
X102908645Y-61271371D01*
X102780074Y-61271371D01*
X102780074Y-61071371D01*
X102777647Y-61065514D01*
X102778581Y-61059244D01*
X102750010Y-60944958D01*
X102742003Y-60934152D01*
X102736858Y-60921729D01*
X102679715Y-60864587D01*
X102672112Y-60861437D01*
X102666721Y-60855221D01*
X102609577Y-60826649D01*
X102597967Y-60825824D01*
X102587217Y-60821371D01*
X102472931Y-60821371D01*
X102462178Y-60825825D01*
X102450571Y-60826650D01*
X102393428Y-60855221D01*
X102388036Y-60861437D01*
X102380433Y-60864587D01*
X102323291Y-60921730D01*
X102318144Y-60934153D01*
X102310139Y-60944958D01*
X102281567Y-61059244D01*
X102282500Y-61065514D01*
X102280074Y-61071371D01*
X102280074Y-61271371D01*
X102138756Y-61271371D01*
X102150010Y-61226355D01*
X102149076Y-61220084D01*
X102151503Y-61214228D01*
X102151503Y-61128514D01*
X102149076Y-61122657D01*
X102150010Y-61116387D01*
X102121438Y-61002101D01*
X102118055Y-60997536D01*
X102117653Y-60991868D01*
X102089082Y-60934725D01*
X102082864Y-60929332D01*
X102079715Y-60921729D01*
X102022572Y-60864587D01*
X102011819Y-60860133D01*
X102003028Y-60852508D01*
X101917314Y-60823937D01*
X101909105Y-60824520D01*
X101901503Y-60821371D01*
X101758646Y-60821371D01*
X101723291Y-60836016D01*
X101708646Y-60871371D01*
X101708646Y-61471370D01*
X101708646Y-61471371D01*
X101622932Y-61471371D01*
X101622932Y-60735657D01*
X104094359Y-60735657D01*
X104094359Y-61607085D01*
G37*
D11*
X114857392Y-48021887D02*
X114628821Y-48021887D01*
X114743107Y-48021887D02*
X114743107Y-47621887D01*
X114743107Y-47621887D02*
X114705011Y-47679030D01*
X114705011Y-47679030D02*
X114666916Y-47717125D01*
X114666916Y-47717125D02*
X114628821Y-47736173D01*
X115028821Y-47983792D02*
X115047868Y-48002840D01*
X115047868Y-48002840D02*
X115028821Y-48021887D01*
X115028821Y-48021887D02*
X115009773Y-48002840D01*
X115009773Y-48002840D02*
X115028821Y-47983792D01*
X115028821Y-47983792D02*
X115028821Y-48021887D01*
X115276439Y-47793316D02*
X115238344Y-47774268D01*
X115238344Y-47774268D02*
X115219297Y-47755220D01*
X115219297Y-47755220D02*
X115200249Y-47717125D01*
X115200249Y-47717125D02*
X115200249Y-47698078D01*
X115200249Y-47698078D02*
X115219297Y-47659982D01*
X115219297Y-47659982D02*
X115238344Y-47640935D01*
X115238344Y-47640935D02*
X115276439Y-47621887D01*
X115276439Y-47621887D02*
X115352630Y-47621887D01*
X115352630Y-47621887D02*
X115390725Y-47640935D01*
X115390725Y-47640935D02*
X115409773Y-47659982D01*
X115409773Y-47659982D02*
X115428820Y-47698078D01*
X115428820Y-47698078D02*
X115428820Y-47717125D01*
X115428820Y-47717125D02*
X115409773Y-47755220D01*
X115409773Y-47755220D02*
X115390725Y-47774268D01*
X115390725Y-47774268D02*
X115352630Y-47793316D01*
X115352630Y-47793316D02*
X115276439Y-47793316D01*
X115276439Y-47793316D02*
X115238344Y-47812363D01*
X115238344Y-47812363D02*
X115219297Y-47831411D01*
X115219297Y-47831411D02*
X115200249Y-47869506D01*
X115200249Y-47869506D02*
X115200249Y-47945697D01*
X115200249Y-47945697D02*
X115219297Y-47983792D01*
X115219297Y-47983792D02*
X115238344Y-48002840D01*
X115238344Y-48002840D02*
X115276439Y-48021887D01*
X115276439Y-48021887D02*
X115352630Y-48021887D01*
X115352630Y-48021887D02*
X115390725Y-48002840D01*
X115390725Y-48002840D02*
X115409773Y-47983792D01*
X115409773Y-47983792D02*
X115428820Y-47945697D01*
X115428820Y-47945697D02*
X115428820Y-47869506D01*
X115428820Y-47869506D02*
X115409773Y-47831411D01*
X115409773Y-47831411D02*
X115390725Y-47812363D01*
X115390725Y-47812363D02*
X115352630Y-47793316D01*
X115543106Y-47621887D02*
X115676439Y-48021887D01*
X115676439Y-48021887D02*
X115809772Y-47621887D01*
X106253821Y-54102840D02*
X106310964Y-54121887D01*
X106310964Y-54121887D02*
X106406202Y-54121887D01*
X106406202Y-54121887D02*
X106444297Y-54102840D01*
X106444297Y-54102840D02*
X106463345Y-54083792D01*
X106463345Y-54083792D02*
X106482392Y-54045697D01*
X106482392Y-54045697D02*
X106482392Y-54007601D01*
X106482392Y-54007601D02*
X106463345Y-53969506D01*
X106463345Y-53969506D02*
X106444297Y-53950459D01*
X106444297Y-53950459D02*
X106406202Y-53931411D01*
X106406202Y-53931411D02*
X106330011Y-53912363D01*
X106330011Y-53912363D02*
X106291916Y-53893316D01*
X106291916Y-53893316D02*
X106272869Y-53874268D01*
X106272869Y-53874268D02*
X106253821Y-53836173D01*
X106253821Y-53836173D02*
X106253821Y-53798078D01*
X106253821Y-53798078D02*
X106272869Y-53759982D01*
X106272869Y-53759982D02*
X106291916Y-53740935D01*
X106291916Y-53740935D02*
X106330011Y-53721887D01*
X106330011Y-53721887D02*
X106425250Y-53721887D01*
X106425250Y-53721887D02*
X106482392Y-53740935D01*
X106615725Y-53721887D02*
X106710963Y-54121887D01*
X106710963Y-54121887D02*
X106787154Y-53836173D01*
X106787154Y-53836173D02*
X106863344Y-54121887D01*
X106863344Y-54121887D02*
X106958583Y-53721887D01*
X107110964Y-54121887D02*
X107110964Y-53721887D01*
X107110964Y-53721887D02*
X107206202Y-53721887D01*
X107206202Y-53721887D02*
X107263345Y-53740935D01*
X107263345Y-53740935D02*
X107301440Y-53779030D01*
X107301440Y-53779030D02*
X107320487Y-53817125D01*
X107320487Y-53817125D02*
X107339535Y-53893316D01*
X107339535Y-53893316D02*
X107339535Y-53950459D01*
X107339535Y-53950459D02*
X107320487Y-54026649D01*
X107320487Y-54026649D02*
X107301440Y-54064744D01*
X107301440Y-54064744D02*
X107263345Y-54102840D01*
X107263345Y-54102840D02*
X107206202Y-54121887D01*
X107206202Y-54121887D02*
X107110964Y-54121887D01*
X107510964Y-54121887D02*
X107510964Y-53721887D01*
X107777630Y-53721887D02*
X107853821Y-53721887D01*
X107853821Y-53721887D02*
X107891916Y-53740935D01*
X107891916Y-53740935D02*
X107930011Y-53779030D01*
X107930011Y-53779030D02*
X107949059Y-53855220D01*
X107949059Y-53855220D02*
X107949059Y-53988554D01*
X107949059Y-53988554D02*
X107930011Y-54064744D01*
X107930011Y-54064744D02*
X107891916Y-54102840D01*
X107891916Y-54102840D02*
X107853821Y-54121887D01*
X107853821Y-54121887D02*
X107777630Y-54121887D01*
X107777630Y-54121887D02*
X107739535Y-54102840D01*
X107739535Y-54102840D02*
X107701440Y-54064744D01*
X107701440Y-54064744D02*
X107682392Y-53988554D01*
X107682392Y-53988554D02*
X107682392Y-53855220D01*
X107682392Y-53855220D02*
X107701440Y-53779030D01*
X107701440Y-53779030D02*
X107739535Y-53740935D01*
X107739535Y-53740935D02*
X107777630Y-53721887D01*
D10*
G36*
X103372931Y-53582085D02*
G01*
X101472932Y-53582085D01*
X101472932Y-53446371D01*
X101558646Y-53446371D01*
X101573291Y-53481726D01*
X101608646Y-53496371D01*
X101644001Y-53481726D01*
X101658646Y-53446371D01*
X101658646Y-53071748D01*
X101763337Y-53296086D01*
X101775950Y-53307637D01*
X101787502Y-53320251D01*
X101789836Y-53320353D01*
X101791559Y-53321931D01*
X101808646Y-53321180D01*
X101825733Y-53321931D01*
X101827455Y-53320353D01*
X101829790Y-53320251D01*
X101841341Y-53307637D01*
X101853955Y-53296086D01*
X101958646Y-53071748D01*
X101958646Y-53446371D01*
X101973291Y-53481726D01*
X102008646Y-53496371D01*
X102044001Y-53481726D01*
X102058646Y-53446371D01*
X102244360Y-53446371D01*
X102259005Y-53481726D01*
X102294360Y-53496371D01*
X102580074Y-53496371D01*
X102615429Y-53481726D01*
X102630074Y-53446371D01*
X102787217Y-53446371D01*
X102801862Y-53481726D01*
X102837217Y-53496371D01*
X102872572Y-53481726D01*
X102887217Y-53446371D01*
X102887217Y-53071748D01*
X102991908Y-53296086D01*
X103004521Y-53307637D01*
X103016073Y-53320251D01*
X103018407Y-53320353D01*
X103020130Y-53321931D01*
X103037217Y-53321180D01*
X103054304Y-53321931D01*
X103056026Y-53320353D01*
X103058361Y-53320251D01*
X103069912Y-53307637D01*
X103082526Y-53296086D01*
X103187217Y-53071748D01*
X103187217Y-53446371D01*
X103201862Y-53481726D01*
X103237217Y-53496371D01*
X103272572Y-53481726D01*
X103287217Y-53446371D01*
X103287217Y-52846371D01*
X103283815Y-52838160D01*
X103284206Y-52829284D01*
X103276780Y-52821175D01*
X103272572Y-52811016D01*
X103264362Y-52807615D01*
X103258361Y-52801062D01*
X103247376Y-52800579D01*
X103237217Y-52796371D01*
X103229006Y-52799772D01*
X103220130Y-52799382D01*
X103212021Y-52806807D01*
X103201862Y-52811016D01*
X103198461Y-52819225D01*
X103191908Y-52825227D01*
X103037217Y-53156707D01*
X102882526Y-52825227D01*
X102875972Y-52819225D01*
X102872572Y-52811016D01*
X102862412Y-52806807D01*
X102854304Y-52799382D01*
X102845427Y-52799772D01*
X102837217Y-52796371D01*
X102827057Y-52800579D01*
X102816073Y-52801062D01*
X102810071Y-52807615D01*
X102801862Y-52811016D01*
X102797653Y-52821175D01*
X102790228Y-52829284D01*
X102790618Y-52838160D01*
X102787217Y-52846371D01*
X102787217Y-53446371D01*
X102630074Y-53446371D01*
X102615429Y-53411016D01*
X102580074Y-53396371D01*
X102344360Y-53396371D01*
X102344360Y-53182085D01*
X102494360Y-53182085D01*
X102529715Y-53167440D01*
X102544360Y-53132085D01*
X102529715Y-53096730D01*
X102494360Y-53082085D01*
X102344360Y-53082085D01*
X102344360Y-52896371D01*
X102580074Y-52896371D01*
X102615429Y-52881726D01*
X102630074Y-52846371D01*
X102615429Y-52811016D01*
X102580074Y-52796371D01*
X102294360Y-52796371D01*
X102259005Y-52811016D01*
X102244360Y-52846371D01*
X102244360Y-53446370D01*
X102244360Y-53446371D01*
X102058646Y-53446371D01*
X102058646Y-52846371D01*
X102055244Y-52838160D01*
X102055635Y-52829284D01*
X102048209Y-52821175D01*
X102044001Y-52811016D01*
X102035791Y-52807615D01*
X102029790Y-52801062D01*
X102018805Y-52800579D01*
X102008646Y-52796371D01*
X102000435Y-52799772D01*
X101991559Y-52799382D01*
X101983450Y-52806807D01*
X101973291Y-52811016D01*
X101969890Y-52819225D01*
X101963337Y-52825227D01*
X101808645Y-53156707D01*
X101653955Y-52825227D01*
X101647401Y-52819225D01*
X101644001Y-52811016D01*
X101633841Y-52806807D01*
X101625733Y-52799382D01*
X101616856Y-52799772D01*
X101608646Y-52796371D01*
X101598486Y-52800579D01*
X101587502Y-52801062D01*
X101581500Y-52807615D01*
X101573291Y-52811016D01*
X101569082Y-52821175D01*
X101561657Y-52829284D01*
X101562047Y-52838160D01*
X101558646Y-52846371D01*
X101558646Y-53446371D01*
X101472932Y-53446371D01*
X101472932Y-52710657D01*
X103372931Y-52710657D01*
X103372931Y-53582085D01*
G37*
D11*
X114597869Y-58171887D02*
X114597869Y-57771887D01*
X114597869Y-57771887D02*
X114750250Y-57771887D01*
X114750250Y-57771887D02*
X114788345Y-57790935D01*
X114788345Y-57790935D02*
X114807392Y-57809982D01*
X114807392Y-57809982D02*
X114826440Y-57848078D01*
X114826440Y-57848078D02*
X114826440Y-57905220D01*
X114826440Y-57905220D02*
X114807392Y-57943316D01*
X114807392Y-57943316D02*
X114788345Y-57962363D01*
X114788345Y-57962363D02*
X114750250Y-57981411D01*
X114750250Y-57981411D02*
X114597869Y-57981411D01*
X115207392Y-58171887D02*
X114978821Y-58171887D01*
X115093107Y-58171887D02*
X115093107Y-57771887D01*
X115093107Y-57771887D02*
X115055011Y-57829030D01*
X115055011Y-57829030D02*
X115016916Y-57867125D01*
X115016916Y-57867125D02*
X114978821Y-57886173D01*
X115378821Y-58133792D02*
X115397868Y-58152840D01*
X115397868Y-58152840D02*
X115378821Y-58171887D01*
X115378821Y-58171887D02*
X115359773Y-58152840D01*
X115359773Y-58152840D02*
X115378821Y-58133792D01*
X115378821Y-58133792D02*
X115378821Y-58171887D01*
X115645487Y-57771887D02*
X115683582Y-57771887D01*
X115683582Y-57771887D02*
X115721678Y-57790935D01*
X115721678Y-57790935D02*
X115740725Y-57809982D01*
X115740725Y-57809982D02*
X115759773Y-57848078D01*
X115759773Y-57848078D02*
X115778820Y-57924268D01*
X115778820Y-57924268D02*
X115778820Y-58019506D01*
X115778820Y-58019506D02*
X115759773Y-58095697D01*
X115759773Y-58095697D02*
X115740725Y-58133792D01*
X115740725Y-58133792D02*
X115721678Y-58152840D01*
X115721678Y-58152840D02*
X115683582Y-58171887D01*
X115683582Y-58171887D02*
X115645487Y-58171887D01*
X115645487Y-58171887D02*
X115607392Y-58152840D01*
X115607392Y-58152840D02*
X115588344Y-58133792D01*
X115588344Y-58133792D02*
X115569297Y-58095697D01*
X115569297Y-58095697D02*
X115550249Y-58019506D01*
X115550249Y-58019506D02*
X115550249Y-57924268D01*
X115550249Y-57924268D02*
X115569297Y-57848078D01*
X115569297Y-57848078D02*
X115588344Y-57809982D01*
X115588344Y-57809982D02*
X115607392Y-57790935D01*
X115607392Y-57790935D02*
X115645487Y-57771887D01*
X116121677Y-57905220D02*
X116121677Y-58171887D01*
X116026439Y-57752840D02*
X115931201Y-58038554D01*
X115931201Y-58038554D02*
X116178820Y-58038554D01*
X114597869Y-60646887D02*
X114597869Y-60246887D01*
X114597869Y-60246887D02*
X114750250Y-60246887D01*
X114750250Y-60246887D02*
X114788345Y-60265935D01*
X114788345Y-60265935D02*
X114807392Y-60284982D01*
X114807392Y-60284982D02*
X114826440Y-60323078D01*
X114826440Y-60323078D02*
X114826440Y-60380220D01*
X114826440Y-60380220D02*
X114807392Y-60418316D01*
X114807392Y-60418316D02*
X114788345Y-60437363D01*
X114788345Y-60437363D02*
X114750250Y-60456411D01*
X114750250Y-60456411D02*
X114597869Y-60456411D01*
X115207392Y-60646887D02*
X114978821Y-60646887D01*
X115093107Y-60646887D02*
X115093107Y-60246887D01*
X115093107Y-60246887D02*
X115055011Y-60304030D01*
X115055011Y-60304030D02*
X115016916Y-60342125D01*
X115016916Y-60342125D02*
X114978821Y-60361173D01*
X115378821Y-60608792D02*
X115397868Y-60627840D01*
X115397868Y-60627840D02*
X115378821Y-60646887D01*
X115378821Y-60646887D02*
X115359773Y-60627840D01*
X115359773Y-60627840D02*
X115378821Y-60608792D01*
X115378821Y-60608792D02*
X115378821Y-60646887D01*
X115645487Y-60246887D02*
X115683582Y-60246887D01*
X115683582Y-60246887D02*
X115721678Y-60265935D01*
X115721678Y-60265935D02*
X115740725Y-60284982D01*
X115740725Y-60284982D02*
X115759773Y-60323078D01*
X115759773Y-60323078D02*
X115778820Y-60399268D01*
X115778820Y-60399268D02*
X115778820Y-60494506D01*
X115778820Y-60494506D02*
X115759773Y-60570697D01*
X115759773Y-60570697D02*
X115740725Y-60608792D01*
X115740725Y-60608792D02*
X115721678Y-60627840D01*
X115721678Y-60627840D02*
X115683582Y-60646887D01*
X115683582Y-60646887D02*
X115645487Y-60646887D01*
X115645487Y-60646887D02*
X115607392Y-60627840D01*
X115607392Y-60627840D02*
X115588344Y-60608792D01*
X115588344Y-60608792D02*
X115569297Y-60570697D01*
X115569297Y-60570697D02*
X115550249Y-60494506D01*
X115550249Y-60494506D02*
X115550249Y-60399268D01*
X115550249Y-60399268D02*
X115569297Y-60323078D01*
X115569297Y-60323078D02*
X115588344Y-60284982D01*
X115588344Y-60284982D02*
X115607392Y-60265935D01*
X115607392Y-60265935D02*
X115645487Y-60246887D01*
X115912153Y-60246887D02*
X116159772Y-60246887D01*
X116159772Y-60246887D02*
X116026439Y-60399268D01*
X116026439Y-60399268D02*
X116083582Y-60399268D01*
X116083582Y-60399268D02*
X116121677Y-60418316D01*
X116121677Y-60418316D02*
X116140725Y-60437363D01*
X116140725Y-60437363D02*
X116159772Y-60475459D01*
X116159772Y-60475459D02*
X116159772Y-60570697D01*
X116159772Y-60570697D02*
X116140725Y-60608792D01*
X116140725Y-60608792D02*
X116121677Y-60627840D01*
X116121677Y-60627840D02*
X116083582Y-60646887D01*
X116083582Y-60646887D02*
X115969296Y-60646887D01*
X115969296Y-60646887D02*
X115931201Y-60627840D01*
X115931201Y-60627840D02*
X115912153Y-60608792D01*
X114597869Y-68321887D02*
X114597869Y-67921887D01*
X114597869Y-67921887D02*
X114750250Y-67921887D01*
X114750250Y-67921887D02*
X114788345Y-67940935D01*
X114788345Y-67940935D02*
X114807392Y-67959982D01*
X114807392Y-67959982D02*
X114826440Y-67998078D01*
X114826440Y-67998078D02*
X114826440Y-68055220D01*
X114826440Y-68055220D02*
X114807392Y-68093316D01*
X114807392Y-68093316D02*
X114788345Y-68112363D01*
X114788345Y-68112363D02*
X114750250Y-68131411D01*
X114750250Y-68131411D02*
X114597869Y-68131411D01*
X115207392Y-68321887D02*
X114978821Y-68321887D01*
X115093107Y-68321887D02*
X115093107Y-67921887D01*
X115093107Y-67921887D02*
X115055011Y-67979030D01*
X115055011Y-67979030D02*
X115016916Y-68017125D01*
X115016916Y-68017125D02*
X114978821Y-68036173D01*
X115378821Y-68283792D02*
X115397868Y-68302840D01*
X115397868Y-68302840D02*
X115378821Y-68321887D01*
X115378821Y-68321887D02*
X115359773Y-68302840D01*
X115359773Y-68302840D02*
X115378821Y-68283792D01*
X115378821Y-68283792D02*
X115378821Y-68321887D01*
X115645487Y-67921887D02*
X115683582Y-67921887D01*
X115683582Y-67921887D02*
X115721678Y-67940935D01*
X115721678Y-67940935D02*
X115740725Y-67959982D01*
X115740725Y-67959982D02*
X115759773Y-67998078D01*
X115759773Y-67998078D02*
X115778820Y-68074268D01*
X115778820Y-68074268D02*
X115778820Y-68169506D01*
X115778820Y-68169506D02*
X115759773Y-68245697D01*
X115759773Y-68245697D02*
X115740725Y-68283792D01*
X115740725Y-68283792D02*
X115721678Y-68302840D01*
X115721678Y-68302840D02*
X115683582Y-68321887D01*
X115683582Y-68321887D02*
X115645487Y-68321887D01*
X115645487Y-68321887D02*
X115607392Y-68302840D01*
X115607392Y-68302840D02*
X115588344Y-68283792D01*
X115588344Y-68283792D02*
X115569297Y-68245697D01*
X115569297Y-68245697D02*
X115550249Y-68169506D01*
X115550249Y-68169506D02*
X115550249Y-68074268D01*
X115550249Y-68074268D02*
X115569297Y-67998078D01*
X115569297Y-67998078D02*
X115588344Y-67959982D01*
X115588344Y-67959982D02*
X115607392Y-67940935D01*
X115607392Y-67940935D02*
X115645487Y-67921887D01*
X116026439Y-67921887D02*
X116064534Y-67921887D01*
X116064534Y-67921887D02*
X116102630Y-67940935D01*
X116102630Y-67940935D02*
X116121677Y-67959982D01*
X116121677Y-67959982D02*
X116140725Y-67998078D01*
X116140725Y-67998078D02*
X116159772Y-68074268D01*
X116159772Y-68074268D02*
X116159772Y-68169506D01*
X116159772Y-68169506D02*
X116140725Y-68245697D01*
X116140725Y-68245697D02*
X116121677Y-68283792D01*
X116121677Y-68283792D02*
X116102630Y-68302840D01*
X116102630Y-68302840D02*
X116064534Y-68321887D01*
X116064534Y-68321887D02*
X116026439Y-68321887D01*
X116026439Y-68321887D02*
X115988344Y-68302840D01*
X115988344Y-68302840D02*
X115969296Y-68283792D01*
X115969296Y-68283792D02*
X115950249Y-68245697D01*
X115950249Y-68245697D02*
X115931201Y-68169506D01*
X115931201Y-68169506D02*
X115931201Y-68074268D01*
X115931201Y-68074268D02*
X115950249Y-67998078D01*
X115950249Y-67998078D02*
X115969296Y-67959982D01*
X115969296Y-67959982D02*
X115988344Y-67940935D01*
X115988344Y-67940935D02*
X116026439Y-67921887D01*
X114597869Y-50546887D02*
X114597869Y-50146887D01*
X114597869Y-50146887D02*
X114750250Y-50146887D01*
X114750250Y-50146887D02*
X114788345Y-50165935D01*
X114788345Y-50165935D02*
X114807392Y-50184982D01*
X114807392Y-50184982D02*
X114826440Y-50223078D01*
X114826440Y-50223078D02*
X114826440Y-50280220D01*
X114826440Y-50280220D02*
X114807392Y-50318316D01*
X114807392Y-50318316D02*
X114788345Y-50337363D01*
X114788345Y-50337363D02*
X114750250Y-50356411D01*
X114750250Y-50356411D02*
X114597869Y-50356411D01*
X115207392Y-50546887D02*
X114978821Y-50546887D01*
X115093107Y-50546887D02*
X115093107Y-50146887D01*
X115093107Y-50146887D02*
X115055011Y-50204030D01*
X115055011Y-50204030D02*
X115016916Y-50242125D01*
X115016916Y-50242125D02*
X114978821Y-50261173D01*
X115378821Y-50508792D02*
X115397868Y-50527840D01*
X115397868Y-50527840D02*
X115378821Y-50546887D01*
X115378821Y-50546887D02*
X115359773Y-50527840D01*
X115359773Y-50527840D02*
X115378821Y-50508792D01*
X115378821Y-50508792D02*
X115378821Y-50546887D01*
X115645487Y-50146887D02*
X115683582Y-50146887D01*
X115683582Y-50146887D02*
X115721678Y-50165935D01*
X115721678Y-50165935D02*
X115740725Y-50184982D01*
X115740725Y-50184982D02*
X115759773Y-50223078D01*
X115759773Y-50223078D02*
X115778820Y-50299268D01*
X115778820Y-50299268D02*
X115778820Y-50394506D01*
X115778820Y-50394506D02*
X115759773Y-50470697D01*
X115759773Y-50470697D02*
X115740725Y-50508792D01*
X115740725Y-50508792D02*
X115721678Y-50527840D01*
X115721678Y-50527840D02*
X115683582Y-50546887D01*
X115683582Y-50546887D02*
X115645487Y-50546887D01*
X115645487Y-50546887D02*
X115607392Y-50527840D01*
X115607392Y-50527840D02*
X115588344Y-50508792D01*
X115588344Y-50508792D02*
X115569297Y-50470697D01*
X115569297Y-50470697D02*
X115550249Y-50394506D01*
X115550249Y-50394506D02*
X115550249Y-50299268D01*
X115550249Y-50299268D02*
X115569297Y-50223078D01*
X115569297Y-50223078D02*
X115588344Y-50184982D01*
X115588344Y-50184982D02*
X115607392Y-50165935D01*
X115607392Y-50165935D02*
X115645487Y-50146887D01*
X115912153Y-50146887D02*
X116178820Y-50146887D01*
X116178820Y-50146887D02*
X116007391Y-50546887D01*
D10*
G36*
X88907598Y-45566034D02*
G01*
X88924695Y-45583132D01*
X88944360Y-45622460D01*
X88944360Y-45684567D01*
X88924695Y-45723895D01*
X88907599Y-45740992D01*
X88868271Y-45760657D01*
X88701503Y-45760657D01*
X88701503Y-45546371D01*
X88868270Y-45546371D01*
X88907598Y-45566034D01*
G37*
G36*
X88324988Y-45874942D02*
G01*
X88178016Y-45874942D01*
X88251501Y-45654484D01*
X88324988Y-45874942D01*
G37*
G36*
X89644360Y-46232085D02*
G01*
X87372932Y-46232085D01*
X87372932Y-45982085D01*
X87458646Y-45982085D01*
X87463099Y-45992835D01*
X87463924Y-46004445D01*
X87492496Y-46061589D01*
X87498712Y-46066980D01*
X87501862Y-46074583D01*
X87530434Y-46103155D01*
X87538036Y-46106304D01*
X87543428Y-46112521D01*
X87600571Y-46141092D01*
X87612178Y-46141916D01*
X87622931Y-46146371D01*
X87737217Y-46146371D01*
X87747967Y-46141917D01*
X87759577Y-46141093D01*
X87816721Y-46112521D01*
X87822112Y-46106304D01*
X87829716Y-46103155D01*
X87852310Y-46080560D01*
X88004068Y-46080560D01*
X88006781Y-46118731D01*
X88035691Y-46143805D01*
X88073862Y-46141092D01*
X88098936Y-46112182D01*
X88144683Y-45974942D01*
X88358321Y-45974942D01*
X88404068Y-46112183D01*
X88429142Y-46141092D01*
X88467314Y-46143806D01*
X88496223Y-46118732D01*
X88497812Y-46096371D01*
X88601503Y-46096371D01*
X88616148Y-46131726D01*
X88651503Y-46146371D01*
X88686858Y-46131726D01*
X88701503Y-46096371D01*
X88701503Y-45860657D01*
X88768327Y-45860657D01*
X88953398Y-46125044D01*
X88985671Y-46145609D01*
X89023033Y-46137332D01*
X89043598Y-46105060D01*
X89035321Y-46067697D01*
X88888073Y-45857343D01*
X88890826Y-45856203D01*
X88902435Y-45855378D01*
X88959578Y-45826806D01*
X88964969Y-45820589D01*
X88972572Y-45817440D01*
X89001143Y-45788870D01*
X89004292Y-45781266D01*
X89010509Y-45775875D01*
X89039081Y-45718732D01*
X89039906Y-45707123D01*
X89044360Y-45696371D01*
X89044360Y-45610657D01*
X89039906Y-45599904D01*
X89039081Y-45588296D01*
X89010509Y-45531153D01*
X89004292Y-45525761D01*
X89001144Y-45518159D01*
X88979357Y-45496371D01*
X89115788Y-45496371D01*
X89130433Y-45531726D01*
X89165788Y-45546371D01*
X89287217Y-45546371D01*
X89287217Y-46096371D01*
X89301862Y-46131726D01*
X89337217Y-46146371D01*
X89372572Y-46131726D01*
X89387217Y-46096371D01*
X89387217Y-45546371D01*
X89508646Y-45546371D01*
X89544001Y-45531726D01*
X89558646Y-45496371D01*
X89544001Y-45461016D01*
X89508646Y-45446371D01*
X89165788Y-45446371D01*
X89130433Y-45461016D01*
X89115788Y-45496371D01*
X88979357Y-45496371D01*
X88972573Y-45489587D01*
X88964969Y-45486437D01*
X88959578Y-45480221D01*
X88902434Y-45451649D01*
X88890824Y-45450824D01*
X88880074Y-45446371D01*
X88651503Y-45446371D01*
X88616148Y-45461016D01*
X88601503Y-45496371D01*
X88601503Y-46096371D01*
X88497812Y-46096371D01*
X88498936Y-46080560D01*
X88298936Y-45480560D01*
X88296487Y-45477737D01*
X88296223Y-45474010D01*
X88284243Y-45463619D01*
X88273862Y-45451650D01*
X88270137Y-45451385D01*
X88267314Y-45448936D01*
X88251498Y-45450060D01*
X88235691Y-45448937D01*
X88232868Y-45451385D01*
X88229142Y-45451650D01*
X88218754Y-45463626D01*
X88206781Y-45474011D01*
X88206516Y-45477736D01*
X88204068Y-45480559D01*
X88004068Y-46080560D01*
X87852310Y-46080560D01*
X87858287Y-46074583D01*
X87861435Y-46066980D01*
X87867652Y-46061589D01*
X87896224Y-46004446D01*
X87897049Y-45992837D01*
X87901503Y-45982085D01*
X87901503Y-45496371D01*
X87886858Y-45461016D01*
X87851503Y-45446371D01*
X87816148Y-45461016D01*
X87801503Y-45496371D01*
X87801503Y-45970281D01*
X87781838Y-46009609D01*
X87764741Y-46026707D01*
X87725413Y-46046371D01*
X87634734Y-46046371D01*
X87595406Y-46026707D01*
X87578311Y-46009612D01*
X87558646Y-45970281D01*
X87558646Y-45496371D01*
X87544001Y-45461016D01*
X87508646Y-45446371D01*
X87473291Y-45461016D01*
X87458646Y-45496371D01*
X87458646Y-45982085D01*
X87372932Y-45982085D01*
X87372932Y-45360657D01*
X89644360Y-45360657D01*
X89644360Y-46232085D01*
G37*
D11*
X90351440Y-41221887D02*
X90218107Y-41031411D01*
X90122869Y-41221887D02*
X90122869Y-40821887D01*
X90122869Y-40821887D02*
X90275250Y-40821887D01*
X90275250Y-40821887D02*
X90313345Y-40840935D01*
X90313345Y-40840935D02*
X90332392Y-40859982D01*
X90332392Y-40859982D02*
X90351440Y-40898078D01*
X90351440Y-40898078D02*
X90351440Y-40955220D01*
X90351440Y-40955220D02*
X90332392Y-40993316D01*
X90332392Y-40993316D02*
X90313345Y-41012363D01*
X90313345Y-41012363D02*
X90275250Y-41031411D01*
X90275250Y-41031411D02*
X90122869Y-41031411D01*
X90484773Y-40821887D02*
X90751440Y-41221887D01*
X90751440Y-40821887D02*
X90484773Y-41221887D01*
X108982392Y-47246887D02*
X108753821Y-47246887D01*
X108868107Y-47246887D02*
X108868107Y-46846887D01*
X108868107Y-46846887D02*
X108830011Y-46904030D01*
X108830011Y-46904030D02*
X108791916Y-46942125D01*
X108791916Y-46942125D02*
X108753821Y-46961173D01*
X109153821Y-47208792D02*
X109172868Y-47227840D01*
X109172868Y-47227840D02*
X109153821Y-47246887D01*
X109153821Y-47246887D02*
X109134773Y-47227840D01*
X109134773Y-47227840D02*
X109153821Y-47208792D01*
X109153821Y-47208792D02*
X109153821Y-47246887D01*
X109401439Y-47018316D02*
X109363344Y-46999268D01*
X109363344Y-46999268D02*
X109344297Y-46980220D01*
X109344297Y-46980220D02*
X109325249Y-46942125D01*
X109325249Y-46942125D02*
X109325249Y-46923078D01*
X109325249Y-46923078D02*
X109344297Y-46884982D01*
X109344297Y-46884982D02*
X109363344Y-46865935D01*
X109363344Y-46865935D02*
X109401439Y-46846887D01*
X109401439Y-46846887D02*
X109477630Y-46846887D01*
X109477630Y-46846887D02*
X109515725Y-46865935D01*
X109515725Y-46865935D02*
X109534773Y-46884982D01*
X109534773Y-46884982D02*
X109553820Y-46923078D01*
X109553820Y-46923078D02*
X109553820Y-46942125D01*
X109553820Y-46942125D02*
X109534773Y-46980220D01*
X109534773Y-46980220D02*
X109515725Y-46999268D01*
X109515725Y-46999268D02*
X109477630Y-47018316D01*
X109477630Y-47018316D02*
X109401439Y-47018316D01*
X109401439Y-47018316D02*
X109363344Y-47037363D01*
X109363344Y-47037363D02*
X109344297Y-47056411D01*
X109344297Y-47056411D02*
X109325249Y-47094506D01*
X109325249Y-47094506D02*
X109325249Y-47170697D01*
X109325249Y-47170697D02*
X109344297Y-47208792D01*
X109344297Y-47208792D02*
X109363344Y-47227840D01*
X109363344Y-47227840D02*
X109401439Y-47246887D01*
X109401439Y-47246887D02*
X109477630Y-47246887D01*
X109477630Y-47246887D02*
X109515725Y-47227840D01*
X109515725Y-47227840D02*
X109534773Y-47208792D01*
X109534773Y-47208792D02*
X109553820Y-47170697D01*
X109553820Y-47170697D02*
X109553820Y-47094506D01*
X109553820Y-47094506D02*
X109534773Y-47056411D01*
X109534773Y-47056411D02*
X109515725Y-47037363D01*
X109515725Y-47037363D02*
X109477630Y-47018316D01*
X109668106Y-46846887D02*
X109801439Y-47246887D01*
X109801439Y-47246887D02*
X109934772Y-46846887D01*
X114597869Y-63196887D02*
X114597869Y-62796887D01*
X114597869Y-62796887D02*
X114750250Y-62796887D01*
X114750250Y-62796887D02*
X114788345Y-62815935D01*
X114788345Y-62815935D02*
X114807392Y-62834982D01*
X114807392Y-62834982D02*
X114826440Y-62873078D01*
X114826440Y-62873078D02*
X114826440Y-62930220D01*
X114826440Y-62930220D02*
X114807392Y-62968316D01*
X114807392Y-62968316D02*
X114788345Y-62987363D01*
X114788345Y-62987363D02*
X114750250Y-63006411D01*
X114750250Y-63006411D02*
X114597869Y-63006411D01*
X115207392Y-63196887D02*
X114978821Y-63196887D01*
X115093107Y-63196887D02*
X115093107Y-62796887D01*
X115093107Y-62796887D02*
X115055011Y-62854030D01*
X115055011Y-62854030D02*
X115016916Y-62892125D01*
X115016916Y-62892125D02*
X114978821Y-62911173D01*
X115378821Y-63158792D02*
X115397868Y-63177840D01*
X115397868Y-63177840D02*
X115378821Y-63196887D01*
X115378821Y-63196887D02*
X115359773Y-63177840D01*
X115359773Y-63177840D02*
X115378821Y-63158792D01*
X115378821Y-63158792D02*
X115378821Y-63196887D01*
X115645487Y-62796887D02*
X115683582Y-62796887D01*
X115683582Y-62796887D02*
X115721678Y-62815935D01*
X115721678Y-62815935D02*
X115740725Y-62834982D01*
X115740725Y-62834982D02*
X115759773Y-62873078D01*
X115759773Y-62873078D02*
X115778820Y-62949268D01*
X115778820Y-62949268D02*
X115778820Y-63044506D01*
X115778820Y-63044506D02*
X115759773Y-63120697D01*
X115759773Y-63120697D02*
X115740725Y-63158792D01*
X115740725Y-63158792D02*
X115721678Y-63177840D01*
X115721678Y-63177840D02*
X115683582Y-63196887D01*
X115683582Y-63196887D02*
X115645487Y-63196887D01*
X115645487Y-63196887D02*
X115607392Y-63177840D01*
X115607392Y-63177840D02*
X115588344Y-63158792D01*
X115588344Y-63158792D02*
X115569297Y-63120697D01*
X115569297Y-63120697D02*
X115550249Y-63044506D01*
X115550249Y-63044506D02*
X115550249Y-62949268D01*
X115550249Y-62949268D02*
X115569297Y-62873078D01*
X115569297Y-62873078D02*
X115588344Y-62834982D01*
X115588344Y-62834982D02*
X115607392Y-62815935D01*
X115607392Y-62815935D02*
X115645487Y-62796887D01*
X115931201Y-62834982D02*
X115950249Y-62815935D01*
X115950249Y-62815935D02*
X115988344Y-62796887D01*
X115988344Y-62796887D02*
X116083582Y-62796887D01*
X116083582Y-62796887D02*
X116121677Y-62815935D01*
X116121677Y-62815935D02*
X116140725Y-62834982D01*
X116140725Y-62834982D02*
X116159772Y-62873078D01*
X116159772Y-62873078D02*
X116159772Y-62911173D01*
X116159772Y-62911173D02*
X116140725Y-62968316D01*
X116140725Y-62968316D02*
X115912153Y-63196887D01*
X115912153Y-63196887D02*
X116159772Y-63196887D01*
X90307392Y-36165935D02*
X90269297Y-36146887D01*
X90269297Y-36146887D02*
X90212154Y-36146887D01*
X90212154Y-36146887D02*
X90155011Y-36165935D01*
X90155011Y-36165935D02*
X90116916Y-36204030D01*
X90116916Y-36204030D02*
X90097869Y-36242125D01*
X90097869Y-36242125D02*
X90078821Y-36318316D01*
X90078821Y-36318316D02*
X90078821Y-36375459D01*
X90078821Y-36375459D02*
X90097869Y-36451649D01*
X90097869Y-36451649D02*
X90116916Y-36489744D01*
X90116916Y-36489744D02*
X90155011Y-36527840D01*
X90155011Y-36527840D02*
X90212154Y-36546887D01*
X90212154Y-36546887D02*
X90250250Y-36546887D01*
X90250250Y-36546887D02*
X90307392Y-36527840D01*
X90307392Y-36527840D02*
X90326440Y-36508792D01*
X90326440Y-36508792D02*
X90326440Y-36375459D01*
X90326440Y-36375459D02*
X90250250Y-36375459D01*
X90497869Y-36546887D02*
X90497869Y-36146887D01*
X90497869Y-36146887D02*
X90726440Y-36546887D01*
X90726440Y-36546887D02*
X90726440Y-36146887D01*
X90916917Y-36546887D02*
X90916917Y-36146887D01*
X90916917Y-36146887D02*
X91012155Y-36146887D01*
X91012155Y-36146887D02*
X91069298Y-36165935D01*
X91069298Y-36165935D02*
X91107393Y-36204030D01*
X91107393Y-36204030D02*
X91126440Y-36242125D01*
X91126440Y-36242125D02*
X91145488Y-36318316D01*
X91145488Y-36318316D02*
X91145488Y-36375459D01*
X91145488Y-36375459D02*
X91126440Y-36451649D01*
X91126440Y-36451649D02*
X91107393Y-36489744D01*
X91107393Y-36489744D02*
X91069298Y-36527840D01*
X91069298Y-36527840D02*
X91012155Y-36546887D01*
X91012155Y-36546887D02*
X90916917Y-36546887D01*
D10*
G36*
X78264741Y-39866034D02*
G01*
X78281838Y-39883132D01*
X78301503Y-39922460D01*
X78301503Y-39984567D01*
X78281838Y-40023895D01*
X78264742Y-40040992D01*
X78225414Y-40060657D01*
X78058646Y-40060657D01*
X78058646Y-39846371D01*
X78225413Y-39846371D01*
X78264741Y-39866034D01*
G37*
G36*
X79087217Y-40532085D02*
G01*
X76644360Y-40532085D01*
X76644360Y-39967800D01*
X76730074Y-39967800D01*
X76734527Y-39978552D01*
X76735353Y-39990161D01*
X76763925Y-40047303D01*
X76770140Y-40052693D01*
X76773290Y-40060297D01*
X76801861Y-40088869D01*
X76809464Y-40092018D01*
X76814857Y-40098236D01*
X76872000Y-40126807D01*
X76877668Y-40127209D01*
X76882233Y-40130592D01*
X76991193Y-40157832D01*
X77036170Y-40180320D01*
X77053267Y-40197418D01*
X77072931Y-40236744D01*
X77072931Y-40270281D01*
X77053266Y-40309610D01*
X77036170Y-40326707D01*
X76996842Y-40346371D01*
X76873902Y-40346371D01*
X76795885Y-40320366D01*
X76757713Y-40323079D01*
X76732640Y-40351989D01*
X76735353Y-40390161D01*
X76764263Y-40415234D01*
X76849978Y-40443805D01*
X76858185Y-40443221D01*
X76865789Y-40446371D01*
X77008646Y-40446371D01*
X77019396Y-40441917D01*
X77031006Y-40441093D01*
X77088150Y-40412521D01*
X77093541Y-40406304D01*
X77101145Y-40403155D01*
X77107929Y-40396371D01*
X77330075Y-40396371D01*
X77344720Y-40431726D01*
X77380075Y-40446371D01*
X77415430Y-40431726D01*
X77430075Y-40396371D01*
X77430075Y-40132085D01*
X77672932Y-40132085D01*
X77672932Y-40396371D01*
X77687577Y-40431726D01*
X77722932Y-40446371D01*
X77758287Y-40431726D01*
X77772932Y-40396371D01*
X77958646Y-40396371D01*
X77973291Y-40431726D01*
X78008646Y-40446371D01*
X78044001Y-40431726D01*
X78058646Y-40396371D01*
X78558646Y-40396371D01*
X78573291Y-40431726D01*
X78608646Y-40446371D01*
X78644001Y-40431726D01*
X78658646Y-40396371D01*
X78658646Y-40132085D01*
X78901503Y-40132085D01*
X78901503Y-40396371D01*
X78916148Y-40431726D01*
X78951503Y-40446371D01*
X78986858Y-40431726D01*
X79001503Y-40396371D01*
X79001503Y-39796371D01*
X78986858Y-39761016D01*
X78951503Y-39746371D01*
X78916148Y-39761016D01*
X78901503Y-39796371D01*
X78901503Y-40032085D01*
X78658646Y-40032085D01*
X78658646Y-39796371D01*
X78644001Y-39761016D01*
X78608646Y-39746371D01*
X78573291Y-39761016D01*
X78558646Y-39796371D01*
X78558646Y-40396371D01*
X78058646Y-40396371D01*
X78058646Y-40160657D01*
X78237217Y-40160657D01*
X78247969Y-40156203D01*
X78259578Y-40155378D01*
X78316721Y-40126806D01*
X78322112Y-40120589D01*
X78329715Y-40117440D01*
X78358286Y-40088870D01*
X78361435Y-40081266D01*
X78367652Y-40075875D01*
X78396224Y-40018732D01*
X78397049Y-40007123D01*
X78401503Y-39996371D01*
X78401503Y-39910657D01*
X78397049Y-39899904D01*
X78396224Y-39888296D01*
X78367652Y-39831153D01*
X78361435Y-39825761D01*
X78358287Y-39818159D01*
X78329716Y-39789587D01*
X78322112Y-39786437D01*
X78316721Y-39780221D01*
X78259577Y-39751649D01*
X78247967Y-39750824D01*
X78237217Y-39746371D01*
X78008646Y-39746371D01*
X77973291Y-39761016D01*
X77958646Y-39796371D01*
X77958646Y-40396371D01*
X77772932Y-40396371D01*
X77772932Y-39796371D01*
X77758287Y-39761016D01*
X77722932Y-39746371D01*
X77687577Y-39761016D01*
X77672932Y-39796371D01*
X77672932Y-40032085D01*
X77430075Y-40032085D01*
X77430075Y-39796371D01*
X77415430Y-39761016D01*
X77380075Y-39746371D01*
X77344720Y-39761016D01*
X77330075Y-39796371D01*
X77330075Y-40396371D01*
X77107929Y-40396371D01*
X77129716Y-40374583D01*
X77132864Y-40366980D01*
X77139082Y-40361588D01*
X77167653Y-40304445D01*
X77168477Y-40292835D01*
X77172931Y-40282085D01*
X77172931Y-40224942D01*
X77168476Y-40214189D01*
X77167652Y-40202582D01*
X77139081Y-40145439D01*
X77132864Y-40140047D01*
X77129716Y-40132445D01*
X77101145Y-40103873D01*
X77093541Y-40100723D01*
X77088150Y-40094507D01*
X77031006Y-40065935D01*
X77025337Y-40065532D01*
X77020773Y-40062150D01*
X76911811Y-40034909D01*
X76866835Y-40012421D01*
X76849737Y-39995323D01*
X76830074Y-39955996D01*
X76830074Y-39922460D01*
X76849738Y-39883132D01*
X76866835Y-39866034D01*
X76906163Y-39846371D01*
X77029104Y-39846371D01*
X77107119Y-39872376D01*
X77145291Y-39869663D01*
X77170365Y-39840753D01*
X77167651Y-39802581D01*
X77138742Y-39777508D01*
X77053028Y-39748937D01*
X77044819Y-39749520D01*
X77037217Y-39746371D01*
X76894360Y-39746371D01*
X76883609Y-39750824D01*
X76872000Y-39751649D01*
X76814857Y-39780220D01*
X76809464Y-39786437D01*
X76801861Y-39789587D01*
X76773290Y-39818159D01*
X76770140Y-39825762D01*
X76763925Y-39831153D01*
X76735353Y-39888296D01*
X76734527Y-39899904D01*
X76730074Y-39910657D01*
X76730074Y-39967800D01*
X76644360Y-39967800D01*
X76644360Y-39660657D01*
X79087217Y-39660657D01*
X79087217Y-40532085D01*
G37*
G36*
X84442350Y-49304358D02*
G01*
X84456838Y-49318846D01*
X84476503Y-49358174D01*
X84476503Y-49420281D01*
X84456838Y-49459609D01*
X84439741Y-49476707D01*
X84400413Y-49496371D01*
X84233646Y-49496371D01*
X84233646Y-49282085D01*
X84375532Y-49282085D01*
X84442350Y-49304358D01*
G37*
G36*
X84411170Y-49016034D02*
G01*
X84428266Y-49033131D01*
X84447931Y-49072460D01*
X84447931Y-49105997D01*
X84428267Y-49145323D01*
X84411170Y-49162421D01*
X84371842Y-49182085D01*
X84233646Y-49182085D01*
X84233646Y-48996371D01*
X84371842Y-48996371D01*
X84411170Y-49016034D01*
G37*
G36*
X84662217Y-49682085D02*
G01*
X82847932Y-49682085D01*
X82847932Y-49432085D01*
X82933646Y-49432085D01*
X82938099Y-49442835D01*
X82938924Y-49454445D01*
X82967496Y-49511589D01*
X82973712Y-49516980D01*
X82976862Y-49524583D01*
X83005434Y-49553155D01*
X83013036Y-49556304D01*
X83018428Y-49562521D01*
X83075571Y-49591092D01*
X83087178Y-49591916D01*
X83097931Y-49596371D01*
X83212217Y-49596371D01*
X83222967Y-49591917D01*
X83234577Y-49591093D01*
X83291721Y-49562521D01*
X83297112Y-49556304D01*
X83304716Y-49553155D01*
X83333287Y-49524583D01*
X83336435Y-49516980D01*
X83342652Y-49511589D01*
X83371224Y-49454446D01*
X83372049Y-49442837D01*
X83376503Y-49432085D01*
X83376503Y-49117800D01*
X83533645Y-49117800D01*
X83538098Y-49128552D01*
X83538924Y-49140161D01*
X83567496Y-49197303D01*
X83573711Y-49202693D01*
X83576861Y-49210297D01*
X83605432Y-49238869D01*
X83613035Y-49242018D01*
X83618428Y-49248236D01*
X83675571Y-49276807D01*
X83681239Y-49277209D01*
X83685804Y-49280592D01*
X83794764Y-49307832D01*
X83839741Y-49330320D01*
X83856838Y-49347418D01*
X83876502Y-49386745D01*
X83876502Y-49420281D01*
X83856837Y-49459610D01*
X83839741Y-49476707D01*
X83800413Y-49496371D01*
X83677473Y-49496371D01*
X83599456Y-49470366D01*
X83561284Y-49473079D01*
X83536211Y-49501989D01*
X83538924Y-49540161D01*
X83567834Y-49565234D01*
X83653549Y-49593805D01*
X83661756Y-49593221D01*
X83669360Y-49596371D01*
X83812217Y-49596371D01*
X83822967Y-49591917D01*
X83834577Y-49591093D01*
X83891721Y-49562521D01*
X83897112Y-49556304D01*
X83904716Y-49553155D01*
X83911500Y-49546371D01*
X84133646Y-49546371D01*
X84148291Y-49581726D01*
X84183646Y-49596371D01*
X84412217Y-49596371D01*
X84422967Y-49591917D01*
X84434577Y-49591093D01*
X84491721Y-49562521D01*
X84497112Y-49556304D01*
X84504716Y-49553155D01*
X84533287Y-49524583D01*
X84536435Y-49516980D01*
X84542652Y-49511589D01*
X84571224Y-49454446D01*
X84572049Y-49442837D01*
X84576503Y-49432085D01*
X84576503Y-49346371D01*
X84572049Y-49335618D01*
X84571224Y-49324010D01*
X84542652Y-49266867D01*
X84536435Y-49261475D01*
X84533286Y-49253872D01*
X84504715Y-49225302D01*
X84494105Y-49220907D01*
X84504716Y-49210297D01*
X84507864Y-49202694D01*
X84514081Y-49197303D01*
X84542652Y-49140160D01*
X84543476Y-49128552D01*
X84547931Y-49117800D01*
X84547931Y-49060657D01*
X84543477Y-49049906D01*
X84542653Y-49038297D01*
X84514082Y-48981154D01*
X84507864Y-48975761D01*
X84504716Y-48968159D01*
X84476145Y-48939587D01*
X84468541Y-48936437D01*
X84463150Y-48930221D01*
X84406006Y-48901649D01*
X84394396Y-48900824D01*
X84383646Y-48896371D01*
X84183646Y-48896371D01*
X84148291Y-48911016D01*
X84133646Y-48946371D01*
X84133646Y-49546370D01*
X84133646Y-49546371D01*
X83911500Y-49546371D01*
X83933287Y-49524583D01*
X83936435Y-49516980D01*
X83942653Y-49511588D01*
X83971224Y-49454445D01*
X83972048Y-49442835D01*
X83976502Y-49432085D01*
X83976502Y-49374942D01*
X83972047Y-49364189D01*
X83971223Y-49352582D01*
X83942652Y-49295439D01*
X83936435Y-49290047D01*
X83933287Y-49282445D01*
X83904716Y-49253873D01*
X83897112Y-49250723D01*
X83891721Y-49244507D01*
X83834577Y-49215935D01*
X83828908Y-49215532D01*
X83824344Y-49212150D01*
X83715382Y-49184909D01*
X83670406Y-49162421D01*
X83653308Y-49145323D01*
X83633645Y-49105996D01*
X83633645Y-49072460D01*
X83653309Y-49033132D01*
X83670406Y-49016034D01*
X83709734Y-48996371D01*
X83832675Y-48996371D01*
X83910690Y-49022376D01*
X83948862Y-49019663D01*
X83973936Y-48990753D01*
X83971222Y-48952581D01*
X83942313Y-48927508D01*
X83856599Y-48898937D01*
X83848390Y-48899520D01*
X83840788Y-48896371D01*
X83697931Y-48896371D01*
X83687180Y-48900824D01*
X83675571Y-48901649D01*
X83618428Y-48930220D01*
X83613035Y-48936437D01*
X83605432Y-48939587D01*
X83576861Y-48968159D01*
X83573711Y-48975762D01*
X83567496Y-48981153D01*
X83538924Y-49038296D01*
X83538098Y-49049904D01*
X83533645Y-49060657D01*
X83533645Y-49117800D01*
X83376503Y-49117800D01*
X83376503Y-48946371D01*
X83361858Y-48911016D01*
X83326503Y-48896371D01*
X83291148Y-48911016D01*
X83276503Y-48946371D01*
X83276503Y-49420281D01*
X83256838Y-49459609D01*
X83239741Y-49476707D01*
X83200413Y-49496371D01*
X83109734Y-49496371D01*
X83070406Y-49476707D01*
X83053311Y-49459612D01*
X83033646Y-49420281D01*
X83033646Y-48946371D01*
X83019001Y-48911016D01*
X82983646Y-48896371D01*
X82948291Y-48911016D01*
X82933646Y-48946371D01*
X82933646Y-49432085D01*
X82847932Y-49432085D01*
X82847932Y-48810657D01*
X84662217Y-48810657D01*
X84662217Y-49682085D01*
G37*
D11*
X114597869Y-55621887D02*
X114597869Y-55221887D01*
X114597869Y-55221887D02*
X114750250Y-55221887D01*
X114750250Y-55221887D02*
X114788345Y-55240935D01*
X114788345Y-55240935D02*
X114807392Y-55259982D01*
X114807392Y-55259982D02*
X114826440Y-55298078D01*
X114826440Y-55298078D02*
X114826440Y-55355220D01*
X114826440Y-55355220D02*
X114807392Y-55393316D01*
X114807392Y-55393316D02*
X114788345Y-55412363D01*
X114788345Y-55412363D02*
X114750250Y-55431411D01*
X114750250Y-55431411D02*
X114597869Y-55431411D01*
X115207392Y-55621887D02*
X114978821Y-55621887D01*
X115093107Y-55621887D02*
X115093107Y-55221887D01*
X115093107Y-55221887D02*
X115055011Y-55279030D01*
X115055011Y-55279030D02*
X115016916Y-55317125D01*
X115016916Y-55317125D02*
X114978821Y-55336173D01*
X115378821Y-55583792D02*
X115397868Y-55602840D01*
X115397868Y-55602840D02*
X115378821Y-55621887D01*
X115378821Y-55621887D02*
X115359773Y-55602840D01*
X115359773Y-55602840D02*
X115378821Y-55583792D01*
X115378821Y-55583792D02*
X115378821Y-55621887D01*
X115645487Y-55221887D02*
X115683582Y-55221887D01*
X115683582Y-55221887D02*
X115721678Y-55240935D01*
X115721678Y-55240935D02*
X115740725Y-55259982D01*
X115740725Y-55259982D02*
X115759773Y-55298078D01*
X115759773Y-55298078D02*
X115778820Y-55374268D01*
X115778820Y-55374268D02*
X115778820Y-55469506D01*
X115778820Y-55469506D02*
X115759773Y-55545697D01*
X115759773Y-55545697D02*
X115740725Y-55583792D01*
X115740725Y-55583792D02*
X115721678Y-55602840D01*
X115721678Y-55602840D02*
X115683582Y-55621887D01*
X115683582Y-55621887D02*
X115645487Y-55621887D01*
X115645487Y-55621887D02*
X115607392Y-55602840D01*
X115607392Y-55602840D02*
X115588344Y-55583792D01*
X115588344Y-55583792D02*
X115569297Y-55545697D01*
X115569297Y-55545697D02*
X115550249Y-55469506D01*
X115550249Y-55469506D02*
X115550249Y-55374268D01*
X115550249Y-55374268D02*
X115569297Y-55298078D01*
X115569297Y-55298078D02*
X115588344Y-55259982D01*
X115588344Y-55259982D02*
X115607392Y-55240935D01*
X115607392Y-55240935D02*
X115645487Y-55221887D01*
X116140725Y-55221887D02*
X115950249Y-55221887D01*
X115950249Y-55221887D02*
X115931201Y-55412363D01*
X115931201Y-55412363D02*
X115950249Y-55393316D01*
X115950249Y-55393316D02*
X115988344Y-55374268D01*
X115988344Y-55374268D02*
X116083582Y-55374268D01*
X116083582Y-55374268D02*
X116121677Y-55393316D01*
X116121677Y-55393316D02*
X116140725Y-55412363D01*
X116140725Y-55412363D02*
X116159772Y-55450459D01*
X116159772Y-55450459D02*
X116159772Y-55545697D01*
X116159772Y-55545697D02*
X116140725Y-55583792D01*
X116140725Y-55583792D02*
X116121677Y-55602840D01*
X116121677Y-55602840D02*
X116083582Y-55621887D01*
X116083582Y-55621887D02*
X115988344Y-55621887D01*
X115988344Y-55621887D02*
X115950249Y-55602840D01*
X115950249Y-55602840D02*
X115931201Y-55583792D01*
D10*
G36*
X109846417Y-39524942D02*
G01*
X109699445Y-39524942D01*
X109772930Y-39304484D01*
X109846417Y-39524942D01*
G37*
G36*
X111194360Y-39882085D02*
G01*
X109439783Y-39882085D01*
X109439783Y-39730560D01*
X109525497Y-39730560D01*
X109528210Y-39768731D01*
X109557120Y-39793805D01*
X109595291Y-39791092D01*
X109620365Y-39762182D01*
X109666112Y-39624942D01*
X109879750Y-39624942D01*
X109925497Y-39762183D01*
X109950571Y-39791092D01*
X109988743Y-39793806D01*
X110017652Y-39768732D01*
X110019241Y-39746371D01*
X110122932Y-39746371D01*
X110137577Y-39781726D01*
X110172932Y-39796371D01*
X110208287Y-39781726D01*
X110222932Y-39746371D01*
X110222932Y-39334649D01*
X110472377Y-39771178D01*
X110477806Y-39775382D01*
X110480434Y-39781726D01*
X110492395Y-39786680D01*
X110502633Y-39794609D01*
X110509445Y-39793743D01*
X110515789Y-39796371D01*
X110527749Y-39791416D01*
X110540596Y-39789784D01*
X110544801Y-39784353D01*
X110551144Y-39781726D01*
X110556098Y-39769765D01*
X110564027Y-39759527D01*
X110563161Y-39752715D01*
X110565789Y-39746371D01*
X110565789Y-39146371D01*
X110665788Y-39146371D01*
X110680433Y-39181726D01*
X110715788Y-39196371D01*
X110837217Y-39196371D01*
X110837217Y-39746371D01*
X110851862Y-39781726D01*
X110887217Y-39796371D01*
X110922572Y-39781726D01*
X110937217Y-39746371D01*
X110937217Y-39196371D01*
X111058646Y-39196371D01*
X111094001Y-39181726D01*
X111108646Y-39146371D01*
X111094001Y-39111016D01*
X111058646Y-39096371D01*
X110715788Y-39096371D01*
X110680433Y-39111016D01*
X110665788Y-39146371D01*
X110565789Y-39146371D01*
X110551144Y-39111016D01*
X110515789Y-39096371D01*
X110480434Y-39111016D01*
X110465789Y-39146371D01*
X110465789Y-39558092D01*
X110216344Y-39121564D01*
X110210914Y-39117359D01*
X110208287Y-39111016D01*
X110196325Y-39106061D01*
X110186088Y-39098133D01*
X110179276Y-39098998D01*
X110172932Y-39096371D01*
X110160969Y-39101326D01*
X110148125Y-39102959D01*
X110143920Y-39108388D01*
X110137577Y-39111016D01*
X110132622Y-39122977D01*
X110124694Y-39133215D01*
X110125559Y-39140026D01*
X110122932Y-39146371D01*
X110122932Y-39746371D01*
X110019241Y-39746371D01*
X110020365Y-39730560D01*
X109820365Y-39130560D01*
X109817916Y-39127737D01*
X109817652Y-39124010D01*
X109805672Y-39113619D01*
X109795291Y-39101650D01*
X109791566Y-39101385D01*
X109788743Y-39098936D01*
X109772927Y-39100060D01*
X109757120Y-39098937D01*
X109754297Y-39101385D01*
X109750571Y-39101650D01*
X109740183Y-39113626D01*
X109728210Y-39124011D01*
X109727945Y-39127736D01*
X109725497Y-39130559D01*
X109525497Y-39730560D01*
X109439783Y-39730560D01*
X109439783Y-39010657D01*
X111194360Y-39010657D01*
X111194360Y-39882085D01*
G37*
G36*
X113804027Y-69691034D02*
G01*
X113821124Y-69708132D01*
X113840789Y-69747460D01*
X113840789Y-69809567D01*
X113821124Y-69848895D01*
X113804028Y-69865992D01*
X113764700Y-69885657D01*
X113597932Y-69885657D01*
X113597932Y-69671371D01*
X113764699Y-69671371D01*
X113804027Y-69691034D01*
G37*
G36*
X114026503Y-70357085D02*
G01*
X112297932Y-70357085D01*
X112297932Y-70221371D01*
X112383646Y-70221371D01*
X112398291Y-70256726D01*
X112433646Y-70271371D01*
X112719360Y-70271371D01*
X112754715Y-70256726D01*
X112765298Y-70231177D01*
X112870331Y-70231177D01*
X112891625Y-70262974D01*
X112929166Y-70270400D01*
X112960963Y-70249106D01*
X113119359Y-70011510D01*
X113277757Y-70249106D01*
X113309554Y-70270399D01*
X113347095Y-70262973D01*
X113368388Y-70231177D01*
X113366448Y-70221371D01*
X113497932Y-70221371D01*
X113512577Y-70256726D01*
X113547932Y-70271371D01*
X113583287Y-70256726D01*
X113597932Y-70221371D01*
X113597932Y-69985657D01*
X113776503Y-69985657D01*
X113787255Y-69981203D01*
X113798864Y-69980378D01*
X113856007Y-69951806D01*
X113861398Y-69945589D01*
X113869001Y-69942440D01*
X113897572Y-69913870D01*
X113900721Y-69906266D01*
X113906938Y-69900875D01*
X113935510Y-69843732D01*
X113936335Y-69832123D01*
X113940789Y-69821371D01*
X113940789Y-69735657D01*
X113936335Y-69724904D01*
X113935510Y-69713296D01*
X113906938Y-69656153D01*
X113900721Y-69650761D01*
X113897573Y-69643159D01*
X113869002Y-69614587D01*
X113861398Y-69611437D01*
X113856007Y-69605221D01*
X113798863Y-69576649D01*
X113787253Y-69575824D01*
X113776503Y-69571371D01*
X113547932Y-69571371D01*
X113512577Y-69586016D01*
X113497932Y-69621371D01*
X113497932Y-70221371D01*
X113366448Y-70221371D01*
X113360962Y-70193636D01*
X113179452Y-69921371D01*
X113360962Y-69649106D01*
X113368388Y-69611565D01*
X113347095Y-69579769D01*
X113309554Y-69572343D01*
X113277757Y-69593636D01*
X113119359Y-69831231D01*
X112960963Y-69593636D01*
X112929166Y-69572342D01*
X112891625Y-69579768D01*
X112870331Y-69611565D01*
X112877757Y-69649106D01*
X113059267Y-69921370D01*
X112877757Y-70193636D01*
X112870331Y-70231177D01*
X112765298Y-70231177D01*
X112769360Y-70221371D01*
X112754715Y-70186016D01*
X112719360Y-70171371D01*
X112483646Y-70171371D01*
X112483646Y-69957085D01*
X112633646Y-69957085D01*
X112669001Y-69942440D01*
X112683646Y-69907085D01*
X112669001Y-69871730D01*
X112633646Y-69857085D01*
X112483646Y-69857085D01*
X112483646Y-69671371D01*
X112719360Y-69671371D01*
X112754715Y-69656726D01*
X112769360Y-69621371D01*
X112754715Y-69586016D01*
X112719360Y-69571371D01*
X112433646Y-69571371D01*
X112398291Y-69586016D01*
X112383646Y-69621371D01*
X112383646Y-70221371D01*
X112297932Y-70221371D01*
X112297932Y-69485657D01*
X114026503Y-69485657D01*
X114026503Y-70357085D01*
G37*
D11*
X90090726Y-38296887D02*
X90319297Y-38296887D01*
X90205011Y-38696887D02*
X90205011Y-38296887D01*
X90414535Y-38296887D02*
X90681202Y-38696887D01*
X90681202Y-38296887D02*
X90414535Y-38696887D01*
D12*
X84629819Y-64973333D02*
X85344104Y-64973333D01*
X85344104Y-64973333D02*
X85486961Y-65020952D01*
X85486961Y-65020952D02*
X85582200Y-65116190D01*
X85582200Y-65116190D02*
X85629819Y-65259047D01*
X85629819Y-65259047D02*
X85629819Y-65354285D01*
X85629819Y-63973333D02*
X85629819Y-64544761D01*
X85629819Y-64259047D02*
X84629819Y-64259047D01*
X84629819Y-64259047D02*
X84772676Y-64354285D01*
X84772676Y-64354285D02*
X84867914Y-64449523D01*
X84867914Y-64449523D02*
X84915533Y-64544761D01*
D13*
X82090000Y-60780000D02*
X82090000Y-63230000D01*
X79990000Y-60780000D02*
X82090000Y-60780000D01*
X75670000Y-60780000D02*
X74370000Y-60780000D01*
X74370000Y-60780000D02*
X74370000Y-68500000D01*
X82090000Y-63230000D02*
X83980000Y-63230000D01*
X82090000Y-68500000D02*
X82090000Y-66050000D01*
X79990000Y-68500000D02*
X82090000Y-68500000D01*
X74370000Y-68500000D02*
X75670000Y-68500000D01*
X95610000Y-62820000D02*
X98060000Y-62820000D01*
X95610000Y-64920000D02*
X95610000Y-62820000D01*
X95610000Y-69240000D02*
X95610000Y-70540000D01*
X95610000Y-70540000D02*
X103330000Y-70540000D01*
X98060000Y-62820000D02*
X98060000Y-60930000D01*
X103330000Y-62820000D02*
X100880000Y-62820000D01*
X103330000Y-64920000D02*
X103330000Y-62820000D01*
X103330000Y-70540000D02*
X103330000Y-69240000D01*
X95072164Y-59210000D02*
X95287836Y-59210000D01*
X95072164Y-59930000D02*
X95287836Y-59930000D01*
X98115000Y-37010000D02*
X99585000Y-37010000D01*
X99585000Y-37010000D02*
X99585000Y-34725000D01*
X98115000Y-34725000D02*
X98115000Y-37010000D01*
X108170000Y-47450000D02*
X109500000Y-47450000D01*
X108170000Y-48780000D02*
X108170000Y-47450000D01*
X108170000Y-50050000D02*
X108170000Y-57730000D01*
X108170000Y-50050000D02*
X110830000Y-50050000D01*
X108170000Y-57730000D02*
X110830000Y-57730000D01*
X110830000Y-50050000D02*
X110830000Y-57730000D01*
X93811359Y-37545000D02*
X94118641Y-37545000D01*
X93811359Y-38305000D02*
X94118641Y-38305000D01*
X101615000Y-36782836D02*
X101615000Y-36567164D01*
X102335000Y-36782836D02*
X102335000Y-36567164D01*
X97257836Y-44210000D02*
X97042164Y-44210000D01*
X97257836Y-43490000D02*
X97042164Y-43490000D01*
X85900000Y-55610000D02*
X87700000Y-55610000D01*
X85900000Y-55610000D02*
X85100000Y-55610000D01*
X85900000Y-52490000D02*
X86700000Y-52490000D01*
X85900000Y-52490000D02*
X85100000Y-52490000D01*
X89357836Y-56260000D02*
X89142164Y-56260000D01*
X89357836Y-55540000D02*
X89142164Y-55540000D01*
X88900000Y-63845000D02*
X88900000Y-62145000D01*
X90600000Y-63695000D02*
X90600000Y-62145000D01*
X93571359Y-48445000D02*
X93878641Y-48445000D01*
X93571359Y-49205000D02*
X93878641Y-49205000D01*
X89642164Y-60515000D02*
X89857836Y-60515000D01*
X89642164Y-61235000D02*
X89857836Y-61235000D01*
X89407836Y-57760000D02*
X89192164Y-57760000D01*
X89407836Y-57040000D02*
X89192164Y-57040000D01*
X111770000Y-43890000D02*
X113100000Y-43890000D01*
X111770000Y-45220000D02*
X111770000Y-43890000D01*
X111770000Y-46490000D02*
X111770000Y-69410000D01*
X111770000Y-46490000D02*
X114430000Y-46490000D01*
X111770000Y-69410000D02*
X114430000Y-69410000D01*
X114430000Y-46490000D02*
X114430000Y-69410000D01*
X88621359Y-59420000D02*
X88928641Y-59420000D01*
X88621359Y-60180000D02*
X88928641Y-60180000D01*
X102615000Y-36777836D02*
X102615000Y-36562164D01*
X103335000Y-36777836D02*
X103335000Y-36562164D01*
X91325000Y-50963641D02*
X91325000Y-50656359D01*
X92085000Y-50963641D02*
X92085000Y-50656359D01*
X89770580Y-55140000D02*
X89489420Y-55140000D01*
X89770580Y-54120000D02*
X89489420Y-54120000D01*
X105292164Y-46090000D02*
X105507836Y-46090000D01*
X105292164Y-46810000D02*
X105507836Y-46810000D01*
X99019420Y-58065000D02*
X99300580Y-58065000D01*
X99019420Y-59085000D02*
X99300580Y-59085000D01*
X107445000Y-36450000D02*
X107445000Y-33650000D01*
X107445000Y-33650000D02*
X104145000Y-33650000D01*
X90875000Y-64365000D02*
X89075000Y-64365000D01*
X90875000Y-64365000D02*
X91675000Y-64365000D01*
X90875000Y-67485000D02*
X90075000Y-67485000D01*
X90875000Y-67485000D02*
X91675000Y-67485000D01*
X96870000Y-36146359D02*
X96870000Y-36453641D01*
X96110000Y-36146359D02*
X96110000Y-36453641D01*
X98540000Y-38486000D02*
X99100000Y-38486000D01*
X98540000Y-45706000D02*
X98540000Y-45146000D01*
X98540000Y-45706000D02*
X99100000Y-45706000D01*
X105760000Y-38486000D02*
X105200000Y-38486000D01*
X105760000Y-38486000D02*
X105760000Y-39046000D01*
X105760000Y-45706000D02*
X105200000Y-45706000D01*
X105760000Y-45706000D02*
X105760000Y-45146000D01*
X107087164Y-38065000D02*
X107302836Y-38065000D01*
X107087164Y-38785000D02*
X107302836Y-38785000D01*
X106390000Y-41007836D02*
X106390000Y-40792164D01*
X107110000Y-41007836D02*
X107110000Y-40792164D01*
X97252836Y-39210000D02*
X97037164Y-39210000D01*
X97252836Y-38490000D02*
X97037164Y-38490000D01*
X102296359Y-34110000D02*
X102603641Y-34110000D01*
X102296359Y-34870000D02*
X102603641Y-34870000D01*
X99437164Y-52865000D02*
X99652836Y-52865000D01*
X99437164Y-53585000D02*
X99652836Y-53585000D01*
X105405000Y-52555000D02*
X105405000Y-52295000D01*
X105405000Y-52295000D02*
X107055000Y-52295000D01*
X105405000Y-47105000D02*
X105405000Y-47365000D01*
X102655000Y-52555000D02*
X105405000Y-52555000D01*
X102655000Y-52555000D02*
X99905000Y-52555000D01*
X102655000Y-47105000D02*
X105405000Y-47105000D01*
X102655000Y-47105000D02*
X99905000Y-47105000D01*
X99905000Y-52555000D02*
X99905000Y-52295000D01*
X99905000Y-47105000D02*
X99905000Y-47365000D01*
X102500000Y-58600000D02*
G75*
G03*
X102500000Y-58600000I-700000J0D01*
G01*
X104522836Y-37460000D02*
X104307164Y-37460000D01*
X104522836Y-36740000D02*
X104307164Y-36740000D01*
X94375000Y-50872836D02*
X94375000Y-50657164D01*
X95095000Y-50872836D02*
X95095000Y-50657164D01*
X107072164Y-41990000D02*
X107287836Y-41990000D01*
X107072164Y-42710000D02*
X107287836Y-42710000D01*
X90350000Y-69175000D02*
G75*
G03*
X90350000Y-69175000I-700000J0D01*
G01*
X110340000Y-40977836D02*
X110340000Y-40762164D01*
X111060000Y-40977836D02*
X111060000Y-40762164D01*
X94902836Y-34610000D02*
X94687164Y-34610000D01*
X94902836Y-33890000D02*
X94687164Y-33890000D01*
X114915000Y-40977836D02*
X114915000Y-40762164D01*
X115635000Y-40977836D02*
X115635000Y-40762164D01*
X107087164Y-39090000D02*
X107302836Y-39090000D01*
X107087164Y-39810000D02*
X107302836Y-39810000D01*
X91875000Y-52725000D02*
X91875000Y-53200000D01*
X91875000Y-57945000D02*
X91875000Y-57470000D01*
X92350000Y-52725000D02*
X91875000Y-52725000D01*
X92350000Y-57945000D02*
X91875000Y-57945000D01*
X96620000Y-52725000D02*
X97095000Y-52725000D01*
X96620000Y-57945000D02*
X97095000Y-57945000D01*
X97095000Y-52725000D02*
X97095000Y-53200000D01*
X95735000Y-36840000D02*
X95735000Y-35340000D01*
X94015000Y-36090000D02*
X94015000Y-35340000D01*
D12*
X113300000Y-42650000D02*
X112700000Y-42650000D01*
X112300000Y-41800000D02*
X112500000Y-41600000D01*
X113550000Y-41800000D02*
X113550000Y-40900000D01*
X114200000Y-41800000D02*
X113550000Y-41800000D01*
X112300000Y-40900000D02*
X112500000Y-41100000D01*
X113550000Y-40900000D02*
X114200000Y-40900000D01*
X113300000Y-40050000D02*
X112700000Y-40050000D01*
D13*
X86412742Y-67977500D02*
X86887258Y-67977500D01*
X86412742Y-69022500D02*
X86887258Y-69022500D01*
X94484420Y-41915000D02*
X94765580Y-41915000D01*
X94484420Y-42935000D02*
X94765580Y-42935000D01*
X94790580Y-44510000D02*
X94509420Y-44510000D01*
X94790580Y-43490000D02*
X94509420Y-43490000D01*
X93021359Y-47320000D02*
X93328641Y-47320000D01*
X93021359Y-48080000D02*
X93328641Y-48080000D01*
X93525000Y-60275000D02*
G75*
G03*
X93525000Y-60275000I-700000J0D01*
G01*
X86550000Y-67470000D02*
X88225000Y-67470000D01*
X86550000Y-67470000D02*
X85900000Y-67470000D01*
X86550000Y-64350000D02*
X87200000Y-64350000D01*
X86550000Y-64350000D02*
X85900000Y-64350000D01*
X86225000Y-59400000D02*
G75*
G03*
X86225000Y-59400000I-700000J0D01*
G01*
X106237164Y-36740000D02*
X106452836Y-36740000D01*
X106237164Y-37460000D02*
X106452836Y-37460000D01*
X99790000Y-37182836D02*
X99790000Y-36967164D01*
X100510000Y-37182836D02*
X100510000Y-36967164D01*
X92355000Y-50948641D02*
X92355000Y-50641359D01*
X93115000Y-50948641D02*
X93115000Y-50641359D01*
X101330000Y-34836359D02*
X101330000Y-35143641D01*
X100570000Y-34836359D02*
X100570000Y-35143641D01*
X97145000Y-35406141D02*
X97145000Y-35098859D01*
X97905000Y-35406141D02*
X97905000Y-35098859D01*
X74355000Y-58155000D02*
X74355000Y-48995000D01*
X76060000Y-58155000D02*
X74355000Y-58155000D01*
X78070000Y-58155000D02*
X79990000Y-58155000D01*
X74355000Y-48995000D02*
X76060000Y-48995000D01*
X79990000Y-48995000D02*
X78070000Y-48995000D01*
X88555000Y-61671359D02*
X88555000Y-61978641D01*
X87795000Y-61671359D02*
X87795000Y-61978641D01*
X86821359Y-63220000D02*
X87128641Y-63220000D01*
X86821359Y-63980000D02*
X87128641Y-63980000D01*
X89830000Y-45235000D02*
X88500000Y-45235000D01*
X89830000Y-43905000D02*
X89830000Y-45235000D01*
X89830000Y-42635000D02*
X89830000Y-34955000D01*
X89830000Y-42635000D02*
X87170000Y-42635000D01*
X89830000Y-34955000D02*
X87170000Y-34955000D01*
X87170000Y-42635000D02*
X87170000Y-34955000D01*
X96135000Y-50606359D02*
X96135000Y-50913641D01*
X95375000Y-50606359D02*
X95375000Y-50913641D01*
X100266359Y-33120000D02*
X100573641Y-33120000D01*
X100266359Y-33880000D02*
X100573641Y-33880000D01*
X90307836Y-53700000D02*
X90092164Y-53700000D01*
X90307836Y-52980000D02*
X90092164Y-52980000D01*
X84950000Y-57550000D02*
G75*
G03*
X84950000Y-57550000I-700000J0D01*
G01*
X99084420Y-54015000D02*
X99365580Y-54015000D01*
X99084420Y-55035000D02*
X99365580Y-55035000D01*
X97042164Y-39490000D02*
X97257836Y-39490000D01*
X97042164Y-40210000D02*
X97257836Y-40210000D01*
X109340000Y-40982836D02*
X109340000Y-40767164D01*
X110060000Y-40982836D02*
X110060000Y-40767164D01*
M02*
