G04 #@! TF.GenerationSoftware,KiCad,Pcbnew,5.1.5+dfsg1-2build2*
G04 #@! TF.CreationDate,2021-08-01T10:53:42+02:00*
G04 #@! TF.ProjectId,Sensor_Nodes,53656e73-6f72-45f4-9e6f-6465732e6b69,rev?*
G04 #@! TF.SameCoordinates,Original*
G04 #@! TF.FileFunction,Soldermask,Top*
G04 #@! TF.FilePolarity,Negative*
%FSLAX46Y46*%
G04 Gerber Fmt 4.6, Leading zero omitted, Abs format (unit mm)*
G04 Created by KiCad (PCBNEW 5.1.5+dfsg1-2build2) date 2021-08-01 10:53:42*
%MOMM*%
%LPD*%
G04 APERTURE LIST*
%ADD10C,0.100000*%
G04 APERTURE END LIST*
D10*
G36*
X144251000Y-114143000D02*
G01*
X142349000Y-114143000D01*
X142349000Y-110141000D01*
X144251000Y-110141000D01*
X144251000Y-114143000D01*
G37*
G36*
X135351000Y-114143000D02*
G01*
X133449000Y-114143000D01*
X133449000Y-110141000D01*
X135351000Y-110141000D01*
X135351000Y-114143000D01*
G37*
G36*
X113709240Y-106802723D02*
G01*
X114023283Y-106865190D01*
X114614927Y-107110257D01*
X114927874Y-107319362D01*
X115121845Y-107448969D01*
X115147393Y-107466040D01*
X115600217Y-107918864D01*
X115956000Y-108451330D01*
X116201067Y-109042974D01*
X116201067Y-109042975D01*
X116326001Y-109671059D01*
X116326001Y-110311453D01*
X116298323Y-110450600D01*
X116201067Y-110939538D01*
X115956000Y-111531182D01*
X115600217Y-112063648D01*
X115147393Y-112516472D01*
X114614927Y-112872255D01*
X114023283Y-113117322D01*
X113772293Y-113167247D01*
X113395198Y-113242256D01*
X112754804Y-113242256D01*
X112377709Y-113167247D01*
X112126719Y-113117322D01*
X111535075Y-112872255D01*
X111002609Y-112516472D01*
X110549785Y-112063648D01*
X110194002Y-111531182D01*
X109948935Y-110939538D01*
X109851679Y-110450600D01*
X109824001Y-110311453D01*
X109824001Y-109671059D01*
X109948935Y-109042975D01*
X109948935Y-109042974D01*
X110194002Y-108451330D01*
X110549785Y-107918864D01*
X111002609Y-107466040D01*
X111028158Y-107448969D01*
X111222128Y-107319362D01*
X111535075Y-107110257D01*
X112126719Y-106865190D01*
X112440762Y-106802723D01*
X112754804Y-106740256D01*
X113395198Y-106740256D01*
X113709240Y-106802723D01*
G37*
G36*
X149137183Y-106802723D02*
G01*
X149451226Y-106865190D01*
X150042870Y-107110257D01*
X150355817Y-107319362D01*
X150549788Y-107448969D01*
X150575336Y-107466040D01*
X151028160Y-107918864D01*
X151383943Y-108451330D01*
X151629010Y-109042974D01*
X151629010Y-109042975D01*
X151753944Y-109671059D01*
X151753944Y-110311453D01*
X151726266Y-110450600D01*
X151629010Y-110939538D01*
X151383943Y-111531182D01*
X151028160Y-112063648D01*
X150575336Y-112516472D01*
X150042870Y-112872255D01*
X149451226Y-113117322D01*
X149200236Y-113167247D01*
X148823141Y-113242256D01*
X148182747Y-113242256D01*
X147805652Y-113167247D01*
X147554662Y-113117322D01*
X146963018Y-112872255D01*
X146430552Y-112516472D01*
X145977728Y-112063648D01*
X145621945Y-111531182D01*
X145376878Y-110939538D01*
X145279622Y-110450600D01*
X145251944Y-110311453D01*
X145251944Y-109671059D01*
X145376878Y-109042975D01*
X145376878Y-109042974D01*
X145621945Y-108451330D01*
X145977728Y-107918864D01*
X146430552Y-107466040D01*
X146456101Y-107448969D01*
X146650071Y-107319362D01*
X146963018Y-107110257D01*
X147554662Y-106865190D01*
X147868705Y-106802723D01*
X148182747Y-106740256D01*
X148823141Y-106740256D01*
X149137183Y-106802723D01*
G37*
G36*
X128481298Y-112178845D02*
G01*
X128518794Y-112190220D01*
X128553353Y-112208692D01*
X128583646Y-112233553D01*
X128608507Y-112263846D01*
X128626979Y-112298405D01*
X128638354Y-112335901D01*
X128642799Y-112381038D01*
X128642799Y-113019762D01*
X128638354Y-113064899D01*
X128626979Y-113102395D01*
X128608507Y-113136954D01*
X128583646Y-113167247D01*
X128553353Y-113192108D01*
X128518794Y-113210580D01*
X128481298Y-113221955D01*
X128436161Y-113226400D01*
X127697437Y-113226400D01*
X127652300Y-113221955D01*
X127614804Y-113210580D01*
X127580245Y-113192108D01*
X127549952Y-113167247D01*
X127525091Y-113136954D01*
X127506619Y-113102395D01*
X127495244Y-113064899D01*
X127490799Y-113019762D01*
X127490799Y-112381038D01*
X127495244Y-112335901D01*
X127506619Y-112298405D01*
X127525091Y-112263846D01*
X127549952Y-112233553D01*
X127580245Y-112208692D01*
X127614804Y-112190220D01*
X127652300Y-112178845D01*
X127697437Y-112174400D01*
X128436161Y-112174400D01*
X128481298Y-112178845D01*
G37*
G36*
X130231298Y-112178845D02*
G01*
X130268794Y-112190220D01*
X130303353Y-112208692D01*
X130333646Y-112233553D01*
X130358507Y-112263846D01*
X130376979Y-112298405D01*
X130388354Y-112335901D01*
X130392799Y-112381038D01*
X130392799Y-113019762D01*
X130388354Y-113064899D01*
X130376979Y-113102395D01*
X130358507Y-113136954D01*
X130333646Y-113167247D01*
X130303353Y-113192108D01*
X130268794Y-113210580D01*
X130231298Y-113221955D01*
X130186161Y-113226400D01*
X129447437Y-113226400D01*
X129402300Y-113221955D01*
X129364804Y-113210580D01*
X129330245Y-113192108D01*
X129299952Y-113167247D01*
X129275091Y-113136954D01*
X129256619Y-113102395D01*
X129245244Y-113064899D01*
X129240799Y-113019762D01*
X129240799Y-112381038D01*
X129245244Y-112335901D01*
X129256619Y-112298405D01*
X129275091Y-112263846D01*
X129299952Y-112233553D01*
X129330245Y-112208692D01*
X129364804Y-112190220D01*
X129402300Y-112178845D01*
X129447437Y-112174400D01*
X130186161Y-112174400D01*
X130231298Y-112178845D01*
G37*
G36*
X122874400Y-113126800D02*
G01*
X121972400Y-113126800D01*
X121972400Y-111974800D01*
X122874400Y-111974800D01*
X122874400Y-113126800D01*
G37*
G36*
X119124400Y-113126800D02*
G01*
X118222400Y-113126800D01*
X118222400Y-111974800D01*
X119124400Y-111974800D01*
X119124400Y-113126800D01*
G37*
G36*
X131733299Y-111316045D02*
G01*
X131770795Y-111327420D01*
X131805354Y-111345892D01*
X131835647Y-111370753D01*
X131860508Y-111401046D01*
X131878980Y-111435605D01*
X131890355Y-111473101D01*
X131894800Y-111518238D01*
X131894800Y-112256962D01*
X131890355Y-112302099D01*
X131878980Y-112339595D01*
X131860508Y-112374154D01*
X131835647Y-112404447D01*
X131805354Y-112429308D01*
X131770795Y-112447780D01*
X131733299Y-112459155D01*
X131688162Y-112463600D01*
X131049438Y-112463600D01*
X131004301Y-112459155D01*
X130966805Y-112447780D01*
X130932246Y-112429308D01*
X130901953Y-112404447D01*
X130877092Y-112374154D01*
X130858620Y-112339595D01*
X130847245Y-112302099D01*
X130842800Y-112256962D01*
X130842800Y-111518238D01*
X130847245Y-111473101D01*
X130858620Y-111435605D01*
X130877092Y-111401046D01*
X130901953Y-111370753D01*
X130932246Y-111345892D01*
X130966805Y-111327420D01*
X131004301Y-111316045D01*
X131049438Y-111311600D01*
X131688162Y-111311600D01*
X131733299Y-111316045D01*
G37*
G36*
X128481298Y-110604045D02*
G01*
X128518794Y-110615420D01*
X128553353Y-110633892D01*
X128583646Y-110658753D01*
X128608507Y-110689046D01*
X128626979Y-110723605D01*
X128638354Y-110761101D01*
X128642799Y-110806238D01*
X128642799Y-111444962D01*
X128638354Y-111490099D01*
X128626979Y-111527595D01*
X128608507Y-111562154D01*
X128583646Y-111592447D01*
X128553353Y-111617308D01*
X128518794Y-111635780D01*
X128481298Y-111647155D01*
X128436161Y-111651600D01*
X127697437Y-111651600D01*
X127652300Y-111647155D01*
X127614804Y-111635780D01*
X127580245Y-111617308D01*
X127549952Y-111592447D01*
X127525091Y-111562154D01*
X127506619Y-111527595D01*
X127495244Y-111490099D01*
X127490799Y-111444962D01*
X127490799Y-110806238D01*
X127495244Y-110761101D01*
X127506619Y-110723605D01*
X127525091Y-110689046D01*
X127549952Y-110658753D01*
X127580245Y-110633892D01*
X127614804Y-110615420D01*
X127652300Y-110604045D01*
X127697437Y-110599600D01*
X128436161Y-110599600D01*
X128481298Y-110604045D01*
G37*
G36*
X130231298Y-110604045D02*
G01*
X130268794Y-110615420D01*
X130303353Y-110633892D01*
X130333646Y-110658753D01*
X130358507Y-110689046D01*
X130376979Y-110723605D01*
X130388354Y-110761101D01*
X130392799Y-110806238D01*
X130392799Y-111444962D01*
X130388354Y-111490099D01*
X130376979Y-111527595D01*
X130358507Y-111562154D01*
X130333646Y-111592447D01*
X130303353Y-111617308D01*
X130268794Y-111635780D01*
X130231298Y-111647155D01*
X130186161Y-111651600D01*
X129447437Y-111651600D01*
X129402300Y-111647155D01*
X129364804Y-111635780D01*
X129330245Y-111617308D01*
X129299952Y-111592447D01*
X129275091Y-111562154D01*
X129256619Y-111527595D01*
X129245244Y-111490099D01*
X129240799Y-111444962D01*
X129240799Y-110806238D01*
X129245244Y-110761101D01*
X129256619Y-110723605D01*
X129275091Y-110689046D01*
X129299952Y-110658753D01*
X129330245Y-110633892D01*
X129364804Y-110615420D01*
X129402300Y-110604045D01*
X129447437Y-110599600D01*
X130186161Y-110599600D01*
X130231298Y-110604045D01*
G37*
G36*
X126706938Y-110281716D02*
G01*
X126727557Y-110287971D01*
X126746553Y-110298124D01*
X126763208Y-110311792D01*
X126776876Y-110328447D01*
X126787029Y-110347443D01*
X126793284Y-110368062D01*
X126796000Y-110395640D01*
X126796000Y-110904360D01*
X126793284Y-110931938D01*
X126787029Y-110952557D01*
X126776876Y-110971553D01*
X126763208Y-110988208D01*
X126746553Y-111001876D01*
X126727557Y-111012029D01*
X126706938Y-111018284D01*
X126679360Y-111021000D01*
X126220640Y-111021000D01*
X126193062Y-111018284D01*
X126172443Y-111012029D01*
X126153447Y-111001876D01*
X126136792Y-110988208D01*
X126123124Y-110971553D01*
X126112971Y-110952557D01*
X126106716Y-110931938D01*
X126104000Y-110904360D01*
X126104000Y-110395640D01*
X126106716Y-110368062D01*
X126112971Y-110347443D01*
X126123124Y-110328447D01*
X126136792Y-110311792D01*
X126153447Y-110298124D01*
X126172443Y-110287971D01*
X126193062Y-110281716D01*
X126220640Y-110279000D01*
X126679360Y-110279000D01*
X126706938Y-110281716D01*
G37*
G36*
X125736938Y-110281716D02*
G01*
X125757557Y-110287971D01*
X125776553Y-110298124D01*
X125793208Y-110311792D01*
X125806876Y-110328447D01*
X125817029Y-110347443D01*
X125823284Y-110368062D01*
X125826000Y-110395640D01*
X125826000Y-110904360D01*
X125823284Y-110931938D01*
X125817029Y-110952557D01*
X125806876Y-110971553D01*
X125793208Y-110988208D01*
X125776553Y-111001876D01*
X125757557Y-111012029D01*
X125736938Y-111018284D01*
X125709360Y-111021000D01*
X125250640Y-111021000D01*
X125223062Y-111018284D01*
X125202443Y-111012029D01*
X125183447Y-111001876D01*
X125166792Y-110988208D01*
X125153124Y-110971553D01*
X125142971Y-110952557D01*
X125136716Y-110931938D01*
X125134000Y-110904360D01*
X125134000Y-110395640D01*
X125136716Y-110368062D01*
X125142971Y-110347443D01*
X125153124Y-110328447D01*
X125166792Y-110311792D01*
X125183447Y-110298124D01*
X125202443Y-110287971D01*
X125223062Y-110281716D01*
X125250640Y-110279000D01*
X125709360Y-110279000D01*
X125736938Y-110281716D01*
G37*
G36*
X131733299Y-109566045D02*
G01*
X131770795Y-109577420D01*
X131805354Y-109595892D01*
X131835647Y-109620753D01*
X131860508Y-109651046D01*
X131878980Y-109685605D01*
X131890355Y-109723101D01*
X131894800Y-109768238D01*
X131894800Y-110506962D01*
X131890355Y-110552099D01*
X131878980Y-110589595D01*
X131860508Y-110624154D01*
X131835647Y-110654447D01*
X131805354Y-110679308D01*
X131770795Y-110697780D01*
X131733299Y-110709155D01*
X131688162Y-110713600D01*
X131049438Y-110713600D01*
X131004301Y-110709155D01*
X130966805Y-110697780D01*
X130932246Y-110679308D01*
X130901953Y-110654447D01*
X130877092Y-110624154D01*
X130858620Y-110589595D01*
X130847245Y-110552099D01*
X130842800Y-110506962D01*
X130842800Y-109768238D01*
X130847245Y-109723101D01*
X130858620Y-109685605D01*
X130877092Y-109651046D01*
X130901953Y-109620753D01*
X130932246Y-109595892D01*
X130966805Y-109577420D01*
X131004301Y-109566045D01*
X131049438Y-109561600D01*
X131688162Y-109561600D01*
X131733299Y-109566045D01*
G37*
G36*
X127767200Y-109758600D02*
G01*
X125115200Y-109758600D01*
X125115200Y-108596600D01*
X127767200Y-108596600D01*
X127767200Y-109758600D01*
G37*
G36*
X127767200Y-107558600D02*
G01*
X125115200Y-107558600D01*
X125115200Y-106396600D01*
X127767200Y-106396600D01*
X127767200Y-107558600D01*
G37*
G36*
X130114500Y-106478445D02*
G01*
X130151996Y-106489820D01*
X130186555Y-106508292D01*
X130216848Y-106533153D01*
X130241709Y-106563446D01*
X130260181Y-106598005D01*
X130271556Y-106635501D01*
X130276001Y-106680638D01*
X130276001Y-107319362D01*
X130271556Y-107364499D01*
X130260181Y-107401995D01*
X130241709Y-107436554D01*
X130216848Y-107466847D01*
X130186555Y-107491708D01*
X130151996Y-107510180D01*
X130114500Y-107521555D01*
X130069363Y-107526000D01*
X129330639Y-107526000D01*
X129285502Y-107521555D01*
X129248006Y-107510180D01*
X129213447Y-107491708D01*
X129183154Y-107466847D01*
X129158293Y-107436554D01*
X129139821Y-107401995D01*
X129128446Y-107364499D01*
X129124001Y-107319362D01*
X129124001Y-106680638D01*
X129128446Y-106635501D01*
X129139821Y-106598005D01*
X129158293Y-106563446D01*
X129183154Y-106533153D01*
X129213447Y-106508292D01*
X129248006Y-106489820D01*
X129285502Y-106478445D01*
X129330639Y-106474000D01*
X130069363Y-106474000D01*
X130114500Y-106478445D01*
G37*
G36*
X131864500Y-106478445D02*
G01*
X131901996Y-106489820D01*
X131936555Y-106508292D01*
X131966848Y-106533153D01*
X131991709Y-106563446D01*
X132010181Y-106598005D01*
X132021556Y-106635501D01*
X132026001Y-106680638D01*
X132026001Y-107319362D01*
X132021556Y-107364499D01*
X132010181Y-107401995D01*
X131991709Y-107436554D01*
X131966848Y-107466847D01*
X131936555Y-107491708D01*
X131901996Y-107510180D01*
X131864500Y-107521555D01*
X131819363Y-107526000D01*
X131080639Y-107526000D01*
X131035502Y-107521555D01*
X130998006Y-107510180D01*
X130963447Y-107491708D01*
X130933154Y-107466847D01*
X130908293Y-107436554D01*
X130889821Y-107401995D01*
X130878446Y-107364499D01*
X130874001Y-107319362D01*
X130874001Y-106680638D01*
X130878446Y-106635501D01*
X130889821Y-106598005D01*
X130908293Y-106563446D01*
X130933154Y-106533153D01*
X130963447Y-106508292D01*
X130998006Y-106489820D01*
X131035502Y-106478445D01*
X131080639Y-106474000D01*
X131819363Y-106474000D01*
X131864500Y-106478445D01*
G37*
G36*
X119124400Y-107126800D02*
G01*
X118222400Y-107126800D01*
X118222400Y-105974800D01*
X119124400Y-105974800D01*
X119124400Y-107126800D01*
G37*
G36*
X122874400Y-107126800D02*
G01*
X121972400Y-107126800D01*
X121972400Y-105974800D01*
X122874400Y-105974800D01*
X122874400Y-107126800D01*
G37*
G36*
X140851000Y-106601000D02*
G01*
X139349000Y-106601000D01*
X139349000Y-101999000D01*
X140851000Y-101999000D01*
X140851000Y-106601000D01*
G37*
G36*
X138351000Y-106601000D02*
G01*
X136849000Y-106601000D01*
X136849000Y-101999000D01*
X138351000Y-101999000D01*
X138351000Y-106601000D01*
G37*
G36*
X125721938Y-105181716D02*
G01*
X125742557Y-105187971D01*
X125761553Y-105198124D01*
X125778208Y-105211792D01*
X125791876Y-105228447D01*
X125802029Y-105247443D01*
X125808284Y-105268062D01*
X125811000Y-105295640D01*
X125811000Y-105804360D01*
X125808284Y-105831938D01*
X125802029Y-105852557D01*
X125791876Y-105871553D01*
X125778208Y-105888208D01*
X125761553Y-105901876D01*
X125742557Y-105912029D01*
X125721938Y-105918284D01*
X125694360Y-105921000D01*
X125235640Y-105921000D01*
X125208062Y-105918284D01*
X125187443Y-105912029D01*
X125168447Y-105901876D01*
X125151792Y-105888208D01*
X125138124Y-105871553D01*
X125127971Y-105852557D01*
X125121716Y-105831938D01*
X125119000Y-105804360D01*
X125119000Y-105295640D01*
X125121716Y-105268062D01*
X125127971Y-105247443D01*
X125138124Y-105228447D01*
X125151792Y-105211792D01*
X125168447Y-105198124D01*
X125187443Y-105187971D01*
X125208062Y-105181716D01*
X125235640Y-105179000D01*
X125694360Y-105179000D01*
X125721938Y-105181716D01*
G37*
G36*
X124751938Y-105181716D02*
G01*
X124772557Y-105187971D01*
X124791553Y-105198124D01*
X124808208Y-105211792D01*
X124821876Y-105228447D01*
X124832029Y-105247443D01*
X124838284Y-105268062D01*
X124841000Y-105295640D01*
X124841000Y-105804360D01*
X124838284Y-105831938D01*
X124832029Y-105852557D01*
X124821876Y-105871553D01*
X124808208Y-105888208D01*
X124791553Y-105901876D01*
X124772557Y-105912029D01*
X124751938Y-105918284D01*
X124724360Y-105921000D01*
X124265640Y-105921000D01*
X124238062Y-105918284D01*
X124217443Y-105912029D01*
X124198447Y-105901876D01*
X124181792Y-105888208D01*
X124168124Y-105871553D01*
X124157971Y-105852557D01*
X124151716Y-105831938D01*
X124149000Y-105804360D01*
X124149000Y-105295640D01*
X124151716Y-105268062D01*
X124157971Y-105247443D01*
X124168124Y-105228447D01*
X124181792Y-105211792D01*
X124198447Y-105198124D01*
X124217443Y-105187971D01*
X124238062Y-105181716D01*
X124265640Y-105179000D01*
X124724360Y-105179000D01*
X124751938Y-105181716D01*
G37*
G36*
X112763000Y-105668800D02*
G01*
X108761000Y-105668800D01*
X108761000Y-103766800D01*
X112763000Y-103766800D01*
X112763000Y-105668800D01*
G37*
G36*
X149442374Y-103810965D02*
G01*
X149480067Y-103822399D01*
X149514803Y-103840966D01*
X149545248Y-103865952D01*
X149570234Y-103896397D01*
X149588801Y-103931133D01*
X149600235Y-103968826D01*
X149604700Y-104014161D01*
X149604700Y-105100839D01*
X149600235Y-105146174D01*
X149588801Y-105183867D01*
X149570234Y-105218603D01*
X149545248Y-105249048D01*
X149514803Y-105274034D01*
X149480067Y-105292601D01*
X149442374Y-105304035D01*
X149397039Y-105308500D01*
X148560361Y-105308500D01*
X148515026Y-105304035D01*
X148477333Y-105292601D01*
X148442597Y-105274034D01*
X148412152Y-105249048D01*
X148387166Y-105218603D01*
X148368599Y-105183867D01*
X148357165Y-105146174D01*
X148352700Y-105100839D01*
X148352700Y-104014161D01*
X148357165Y-103968826D01*
X148368599Y-103931133D01*
X148387166Y-103896397D01*
X148412152Y-103865952D01*
X148442597Y-103840966D01*
X148477333Y-103822399D01*
X148515026Y-103810965D01*
X148560361Y-103806500D01*
X149397039Y-103806500D01*
X149442374Y-103810965D01*
G37*
G36*
X147392374Y-103810965D02*
G01*
X147430067Y-103822399D01*
X147464803Y-103840966D01*
X147495248Y-103865952D01*
X147520234Y-103896397D01*
X147538801Y-103931133D01*
X147550235Y-103968826D01*
X147554700Y-104014161D01*
X147554700Y-105100839D01*
X147550235Y-105146174D01*
X147538801Y-105183867D01*
X147520234Y-105218603D01*
X147495248Y-105249048D01*
X147464803Y-105274034D01*
X147430067Y-105292601D01*
X147392374Y-105304035D01*
X147347039Y-105308500D01*
X146510361Y-105308500D01*
X146465026Y-105304035D01*
X146427333Y-105292601D01*
X146392597Y-105274034D01*
X146362152Y-105249048D01*
X146337166Y-105218603D01*
X146318599Y-105183867D01*
X146307165Y-105146174D01*
X146302700Y-105100839D01*
X146302700Y-104014161D01*
X146307165Y-103968826D01*
X146318599Y-103931133D01*
X146337166Y-103896397D01*
X146362152Y-103865952D01*
X146392597Y-103840966D01*
X146427333Y-103822399D01*
X146465026Y-103810965D01*
X146510361Y-103806500D01*
X147347039Y-103806500D01*
X147392374Y-103810965D01*
G37*
G36*
X132713675Y-103453465D02*
G01*
X132751368Y-103464899D01*
X132786104Y-103483466D01*
X132816549Y-103508452D01*
X132841535Y-103538897D01*
X132860102Y-103573633D01*
X132871536Y-103611326D01*
X132876001Y-103656661D01*
X132876001Y-104743339D01*
X132871536Y-104788674D01*
X132860102Y-104826367D01*
X132841535Y-104861103D01*
X132816549Y-104891548D01*
X132786104Y-104916534D01*
X132751368Y-104935101D01*
X132713675Y-104946535D01*
X132668340Y-104951000D01*
X131831662Y-104951000D01*
X131786327Y-104946535D01*
X131748634Y-104935101D01*
X131713898Y-104916534D01*
X131683453Y-104891548D01*
X131658467Y-104861103D01*
X131639900Y-104826367D01*
X131628466Y-104788674D01*
X131624001Y-104743339D01*
X131624001Y-103656661D01*
X131628466Y-103611326D01*
X131639900Y-103573633D01*
X131658467Y-103538897D01*
X131683453Y-103508452D01*
X131713898Y-103483466D01*
X131748634Y-103464899D01*
X131786327Y-103453465D01*
X131831662Y-103449000D01*
X132668340Y-103449000D01*
X132713675Y-103453465D01*
G37*
G36*
X130663675Y-103453465D02*
G01*
X130701368Y-103464899D01*
X130736104Y-103483466D01*
X130766549Y-103508452D01*
X130791535Y-103538897D01*
X130810102Y-103573633D01*
X130821536Y-103611326D01*
X130826001Y-103656661D01*
X130826001Y-104743339D01*
X130821536Y-104788674D01*
X130810102Y-104826367D01*
X130791535Y-104861103D01*
X130766549Y-104891548D01*
X130736104Y-104916534D01*
X130701368Y-104935101D01*
X130663675Y-104946535D01*
X130618340Y-104951000D01*
X129781662Y-104951000D01*
X129736327Y-104946535D01*
X129698634Y-104935101D01*
X129663898Y-104916534D01*
X129633453Y-104891548D01*
X129608467Y-104861103D01*
X129589900Y-104826367D01*
X129578466Y-104788674D01*
X129574001Y-104743339D01*
X129574001Y-103656661D01*
X129578466Y-103611326D01*
X129589900Y-103573633D01*
X129608467Y-103538897D01*
X129633453Y-103508452D01*
X129663898Y-103483466D01*
X129698634Y-103464899D01*
X129736327Y-103453465D01*
X129781662Y-103449000D01*
X130618340Y-103449000D01*
X130663675Y-103453465D01*
G37*
G36*
X151688674Y-103503465D02*
G01*
X151726367Y-103514899D01*
X151761103Y-103533466D01*
X151791548Y-103558452D01*
X151816534Y-103588897D01*
X151835101Y-103623633D01*
X151846535Y-103661326D01*
X151851000Y-103706661D01*
X151851000Y-104543339D01*
X151846535Y-104588674D01*
X151835101Y-104626367D01*
X151816534Y-104661103D01*
X151791548Y-104691548D01*
X151761103Y-104716534D01*
X151726367Y-104735101D01*
X151688674Y-104746535D01*
X151643339Y-104751000D01*
X150556661Y-104751000D01*
X150511326Y-104746535D01*
X150473633Y-104735101D01*
X150438897Y-104716534D01*
X150408452Y-104691548D01*
X150383466Y-104661103D01*
X150364899Y-104626367D01*
X150353465Y-104588674D01*
X150349000Y-104543339D01*
X150349000Y-103706661D01*
X150353465Y-103661326D01*
X150364899Y-103623633D01*
X150383466Y-103588897D01*
X150408452Y-103558452D01*
X150438897Y-103533466D01*
X150473633Y-103514899D01*
X150511326Y-103503465D01*
X150556661Y-103499000D01*
X151643339Y-103499000D01*
X151688674Y-103503465D01*
G37*
G36*
X149047699Y-102321445D02*
G01*
X149085195Y-102332820D01*
X149119754Y-102351292D01*
X149150047Y-102376153D01*
X149174908Y-102406446D01*
X149193380Y-102441005D01*
X149204755Y-102478501D01*
X149209200Y-102523638D01*
X149209200Y-103162362D01*
X149204755Y-103207499D01*
X149193380Y-103244995D01*
X149174908Y-103279554D01*
X149150047Y-103309847D01*
X149119754Y-103334708D01*
X149085195Y-103353180D01*
X149047699Y-103364555D01*
X149002562Y-103369000D01*
X148263838Y-103369000D01*
X148218701Y-103364555D01*
X148181205Y-103353180D01*
X148146646Y-103334708D01*
X148116353Y-103309847D01*
X148091492Y-103279554D01*
X148073020Y-103244995D01*
X148061645Y-103207499D01*
X148057200Y-103162362D01*
X148057200Y-102523638D01*
X148061645Y-102478501D01*
X148073020Y-102441005D01*
X148091492Y-102406446D01*
X148116353Y-102376153D01*
X148146646Y-102351292D01*
X148181205Y-102332820D01*
X148218701Y-102321445D01*
X148263838Y-102317000D01*
X149002562Y-102317000D01*
X149047699Y-102321445D01*
G37*
G36*
X147297699Y-102321445D02*
G01*
X147335195Y-102332820D01*
X147369754Y-102351292D01*
X147400047Y-102376153D01*
X147424908Y-102406446D01*
X147443380Y-102441005D01*
X147454755Y-102478501D01*
X147459200Y-102523638D01*
X147459200Y-103162362D01*
X147454755Y-103207499D01*
X147443380Y-103244995D01*
X147424908Y-103279554D01*
X147400047Y-103309847D01*
X147369754Y-103334708D01*
X147335195Y-103353180D01*
X147297699Y-103364555D01*
X147252562Y-103369000D01*
X146513838Y-103369000D01*
X146468701Y-103364555D01*
X146431205Y-103353180D01*
X146396646Y-103334708D01*
X146366353Y-103309847D01*
X146341492Y-103279554D01*
X146323020Y-103244995D01*
X146311645Y-103207499D01*
X146307200Y-103162362D01*
X146307200Y-102523638D01*
X146311645Y-102478501D01*
X146323020Y-102441005D01*
X146341492Y-102406446D01*
X146366353Y-102376153D01*
X146396646Y-102351292D01*
X146431205Y-102332820D01*
X146468701Y-102321445D01*
X146513838Y-102317000D01*
X147252562Y-102317000D01*
X147297699Y-102321445D01*
G37*
G36*
X124801000Y-102851000D02*
G01*
X123799000Y-102851000D01*
X123799000Y-101949000D01*
X124801000Y-101949000D01*
X124801000Y-102851000D01*
G37*
G36*
X151688674Y-101453465D02*
G01*
X151726367Y-101464899D01*
X151761103Y-101483466D01*
X151791548Y-101508452D01*
X151816534Y-101538897D01*
X151835101Y-101573633D01*
X151846535Y-101611326D01*
X151851000Y-101656661D01*
X151851000Y-102493339D01*
X151846535Y-102538674D01*
X151835101Y-102576367D01*
X151816534Y-102611103D01*
X151791548Y-102641548D01*
X151761103Y-102666534D01*
X151726367Y-102685101D01*
X151688674Y-102696535D01*
X151643339Y-102701000D01*
X150556661Y-102701000D01*
X150511326Y-102696535D01*
X150473633Y-102685101D01*
X150438897Y-102666534D01*
X150408452Y-102641548D01*
X150383466Y-102611103D01*
X150364899Y-102576367D01*
X150353465Y-102538674D01*
X150349000Y-102493339D01*
X150349000Y-101656661D01*
X150353465Y-101611326D01*
X150364899Y-101573633D01*
X150383466Y-101538897D01*
X150408452Y-101508452D01*
X150438897Y-101483466D01*
X150473633Y-101464899D01*
X150511326Y-101453465D01*
X150556661Y-101449000D01*
X151643339Y-101449000D01*
X151688674Y-101453465D01*
G37*
G36*
X131901000Y-102451000D02*
G01*
X130899000Y-102451000D01*
X130899000Y-101549000D01*
X131901000Y-101549000D01*
X131901000Y-102451000D01*
G37*
G36*
X120905000Y-102268800D02*
G01*
X116303000Y-102268800D01*
X116303000Y-100766800D01*
X120905000Y-100766800D01*
X120905000Y-102268800D01*
G37*
G36*
X126801000Y-101901000D02*
G01*
X125799000Y-101901000D01*
X125799000Y-100999000D01*
X126801000Y-100999000D01*
X126801000Y-101901000D01*
G37*
G36*
X147584999Y-98299737D02*
G01*
X147594608Y-98302652D01*
X147603472Y-98307390D01*
X147620703Y-98321531D01*
X147641078Y-98335144D01*
X147663717Y-98344521D01*
X147687750Y-98349301D01*
X147712254Y-98349301D01*
X147736287Y-98344520D01*
X147758926Y-98335142D01*
X147779297Y-98321531D01*
X147796528Y-98307390D01*
X147805392Y-98302652D01*
X147815001Y-98299737D01*
X147831140Y-98298148D01*
X148068860Y-98298148D01*
X148084999Y-98299737D01*
X148094608Y-98302652D01*
X148103472Y-98307390D01*
X148111237Y-98313763D01*
X148117610Y-98321528D01*
X148122348Y-98330392D01*
X148125263Y-98340001D01*
X148126852Y-98356140D01*
X148126852Y-98673149D01*
X148129254Y-98697535D01*
X148136367Y-98720984D01*
X148147918Y-98742595D01*
X148163463Y-98761537D01*
X148182405Y-98777082D01*
X148204016Y-98788633D01*
X148227465Y-98795746D01*
X148251851Y-98798148D01*
X148518860Y-98798148D01*
X148534999Y-98799737D01*
X148544608Y-98802652D01*
X148553472Y-98807390D01*
X148561237Y-98813763D01*
X148573803Y-98829075D01*
X148576631Y-98833307D01*
X148593960Y-98850632D01*
X148614335Y-98864245D01*
X148636974Y-98873620D01*
X148673251Y-98879000D01*
X149451000Y-98879000D01*
X149451000Y-101221000D01*
X148673251Y-101221000D01*
X148648865Y-101223402D01*
X148625416Y-101230515D01*
X148603805Y-101242066D01*
X148584863Y-101257611D01*
X148576058Y-101269482D01*
X148575418Y-101268957D01*
X148561237Y-101286237D01*
X148553472Y-101292610D01*
X148544608Y-101297348D01*
X148534999Y-101300263D01*
X148518860Y-101301852D01*
X148251851Y-101301852D01*
X148227465Y-101304254D01*
X148204016Y-101311367D01*
X148182405Y-101322918D01*
X148163463Y-101338463D01*
X148147918Y-101357405D01*
X148136367Y-101379016D01*
X148129254Y-101402465D01*
X148126852Y-101426851D01*
X148126852Y-101743860D01*
X148125263Y-101759999D01*
X148122348Y-101769608D01*
X148117610Y-101778472D01*
X148111237Y-101786237D01*
X148103472Y-101792610D01*
X148094608Y-101797348D01*
X148084999Y-101800263D01*
X148068860Y-101801852D01*
X147831140Y-101801852D01*
X147815001Y-101800263D01*
X147805392Y-101797348D01*
X147796528Y-101792610D01*
X147779297Y-101778469D01*
X147758922Y-101764856D01*
X147736283Y-101755479D01*
X147712250Y-101750699D01*
X147687746Y-101750699D01*
X147663713Y-101755480D01*
X147641074Y-101764858D01*
X147620703Y-101778469D01*
X147603472Y-101792610D01*
X147594608Y-101797348D01*
X147584999Y-101800263D01*
X147568860Y-101801852D01*
X147331140Y-101801852D01*
X147315001Y-101800263D01*
X147305392Y-101797348D01*
X147296528Y-101792610D01*
X147288763Y-101786237D01*
X147282390Y-101778472D01*
X147277652Y-101769608D01*
X147274737Y-101759999D01*
X147273148Y-101743860D01*
X147273148Y-101426851D01*
X147270746Y-101402465D01*
X147263633Y-101379016D01*
X147252082Y-101357405D01*
X147236537Y-101338463D01*
X147217595Y-101322918D01*
X147195984Y-101311367D01*
X147172535Y-101304254D01*
X147148149Y-101301852D01*
X146881140Y-101301852D01*
X146865001Y-101300263D01*
X146855392Y-101297348D01*
X146846528Y-101292610D01*
X146838763Y-101286237D01*
X146826197Y-101270925D01*
X146823369Y-101266693D01*
X146806040Y-101249368D01*
X146785665Y-101235755D01*
X146763026Y-101226380D01*
X146726749Y-101221000D01*
X145949000Y-101221000D01*
X145949000Y-98879000D01*
X146726749Y-98879000D01*
X146751135Y-98876598D01*
X146774584Y-98869485D01*
X146796195Y-98857934D01*
X146815137Y-98842389D01*
X146823942Y-98830518D01*
X146824582Y-98831043D01*
X146838763Y-98813763D01*
X146846528Y-98807390D01*
X146855392Y-98802652D01*
X146865001Y-98799737D01*
X146881140Y-98798148D01*
X147148149Y-98798148D01*
X147172535Y-98795746D01*
X147195984Y-98788633D01*
X147217595Y-98777082D01*
X147236537Y-98761537D01*
X147252082Y-98742595D01*
X147263633Y-98720984D01*
X147270746Y-98697535D01*
X147273148Y-98673149D01*
X147273148Y-98356140D01*
X147274737Y-98340001D01*
X147277652Y-98330392D01*
X147282390Y-98321528D01*
X147288763Y-98313763D01*
X147296528Y-98307390D01*
X147305392Y-98302652D01*
X147315001Y-98299737D01*
X147331140Y-98298148D01*
X147568860Y-98298148D01*
X147584999Y-98299737D01*
G37*
G36*
X133901000Y-101501000D02*
G01*
X132899000Y-101501000D01*
X132899000Y-100599000D01*
X133901000Y-100599000D01*
X133901000Y-101501000D01*
G37*
G36*
X124801000Y-100951000D02*
G01*
X123799000Y-100951000D01*
X123799000Y-100049000D01*
X124801000Y-100049000D01*
X124801000Y-100951000D01*
G37*
G36*
X150981938Y-100141716D02*
G01*
X151002557Y-100147971D01*
X151021553Y-100158124D01*
X151038208Y-100171792D01*
X151051876Y-100188447D01*
X151062029Y-100207443D01*
X151068284Y-100228062D01*
X151071000Y-100255640D01*
X151071000Y-100714360D01*
X151068284Y-100741938D01*
X151062029Y-100762557D01*
X151051876Y-100781553D01*
X151038208Y-100798208D01*
X151021553Y-100811876D01*
X151002557Y-100822029D01*
X150981938Y-100828284D01*
X150954360Y-100831000D01*
X150445640Y-100831000D01*
X150418062Y-100828284D01*
X150397443Y-100822029D01*
X150378447Y-100811876D01*
X150361792Y-100798208D01*
X150348124Y-100781553D01*
X150337971Y-100762557D01*
X150331716Y-100741938D01*
X150329000Y-100714360D01*
X150329000Y-100255640D01*
X150331716Y-100228062D01*
X150337971Y-100207443D01*
X150348124Y-100188447D01*
X150361792Y-100171792D01*
X150378447Y-100158124D01*
X150397443Y-100147971D01*
X150418062Y-100141716D01*
X150445640Y-100139000D01*
X150954360Y-100139000D01*
X150981938Y-100141716D01*
G37*
G36*
X131901000Y-100551000D02*
G01*
X130899000Y-100551000D01*
X130899000Y-99649000D01*
X131901000Y-99649000D01*
X131901000Y-100551000D01*
G37*
G36*
X143751000Y-100151000D02*
G01*
X141149000Y-100151000D01*
X141149000Y-98549000D01*
X143751000Y-98549000D01*
X143751000Y-100151000D01*
G37*
G36*
X150981938Y-99171716D02*
G01*
X151002557Y-99177971D01*
X151021553Y-99188124D01*
X151038208Y-99201792D01*
X151051876Y-99218447D01*
X151062029Y-99237443D01*
X151068284Y-99258062D01*
X151071000Y-99285640D01*
X151071000Y-99744360D01*
X151068284Y-99771938D01*
X151062029Y-99792557D01*
X151051876Y-99811553D01*
X151038208Y-99828208D01*
X151021553Y-99841876D01*
X151002557Y-99852029D01*
X150981938Y-99858284D01*
X150954360Y-99861000D01*
X150445640Y-99861000D01*
X150418062Y-99858284D01*
X150397443Y-99852029D01*
X150378447Y-99841876D01*
X150361792Y-99828208D01*
X150348124Y-99811553D01*
X150337971Y-99792557D01*
X150331716Y-99771938D01*
X150329000Y-99744360D01*
X150329000Y-99285640D01*
X150331716Y-99258062D01*
X150337971Y-99237443D01*
X150348124Y-99218447D01*
X150361792Y-99201792D01*
X150378447Y-99188124D01*
X150397443Y-99177971D01*
X150418062Y-99171716D01*
X150445640Y-99169000D01*
X150954360Y-99169000D01*
X150981938Y-99171716D01*
G37*
G36*
X120905000Y-99768800D02*
G01*
X116303000Y-99768800D01*
X116303000Y-98266800D01*
X120905000Y-98266800D01*
X120905000Y-99768800D01*
G37*
G36*
X122964499Y-98128445D02*
G01*
X123001995Y-98139820D01*
X123036554Y-98158292D01*
X123066847Y-98183153D01*
X123091708Y-98213446D01*
X123110180Y-98248005D01*
X123121555Y-98285501D01*
X123126000Y-98330638D01*
X123126000Y-98969362D01*
X123121555Y-99014499D01*
X123110180Y-99051995D01*
X123091708Y-99086554D01*
X123066847Y-99116847D01*
X123036554Y-99141708D01*
X123001995Y-99160180D01*
X122964499Y-99171555D01*
X122919362Y-99176000D01*
X122180638Y-99176000D01*
X122135501Y-99171555D01*
X122098005Y-99160180D01*
X122063446Y-99141708D01*
X122033153Y-99116847D01*
X122008292Y-99086554D01*
X121989820Y-99051995D01*
X121978445Y-99014499D01*
X121974000Y-98969362D01*
X121974000Y-98330638D01*
X121978445Y-98285501D01*
X121989820Y-98248005D01*
X122008292Y-98213446D01*
X122033153Y-98183153D01*
X122063446Y-98158292D01*
X122098005Y-98139820D01*
X122135501Y-98128445D01*
X122180638Y-98124000D01*
X122919362Y-98124000D01*
X122964499Y-98128445D01*
G37*
G36*
X124714499Y-98128445D02*
G01*
X124751995Y-98139820D01*
X124786554Y-98158292D01*
X124816847Y-98183153D01*
X124841708Y-98213446D01*
X124860180Y-98248005D01*
X124871555Y-98285501D01*
X124876000Y-98330638D01*
X124876000Y-98969362D01*
X124871555Y-99014499D01*
X124860180Y-99051995D01*
X124841708Y-99086554D01*
X124816847Y-99116847D01*
X124786554Y-99141708D01*
X124751995Y-99160180D01*
X124714499Y-99171555D01*
X124669362Y-99176000D01*
X123930638Y-99176000D01*
X123885501Y-99171555D01*
X123848005Y-99160180D01*
X123813446Y-99141708D01*
X123783153Y-99116847D01*
X123758292Y-99086554D01*
X123739820Y-99051995D01*
X123728445Y-99014499D01*
X123724000Y-98969362D01*
X123724000Y-98330638D01*
X123728445Y-98285501D01*
X123739820Y-98248005D01*
X123758292Y-98213446D01*
X123783153Y-98183153D01*
X123813446Y-98158292D01*
X123848005Y-98139820D01*
X123885501Y-98128445D01*
X123930638Y-98124000D01*
X124669362Y-98124000D01*
X124714499Y-98128445D01*
G37*
G36*
X151988674Y-96503465D02*
G01*
X152026367Y-96514899D01*
X152061103Y-96533466D01*
X152091548Y-96558452D01*
X152116534Y-96588897D01*
X152135101Y-96623633D01*
X152146535Y-96661326D01*
X152151000Y-96706661D01*
X152151000Y-97543339D01*
X152146535Y-97588674D01*
X152135101Y-97626367D01*
X152116534Y-97661103D01*
X152091548Y-97691548D01*
X152061103Y-97716534D01*
X152026367Y-97735101D01*
X151988674Y-97746535D01*
X151943339Y-97751000D01*
X150856661Y-97751000D01*
X150811326Y-97746535D01*
X150773633Y-97735101D01*
X150738897Y-97716534D01*
X150708452Y-97691548D01*
X150683466Y-97661103D01*
X150664899Y-97626367D01*
X150653465Y-97588674D01*
X150649000Y-97543339D01*
X150649000Y-96706661D01*
X150653465Y-96661326D01*
X150664899Y-96623633D01*
X150683466Y-96588897D01*
X150708452Y-96558452D01*
X150738897Y-96533466D01*
X150773633Y-96514899D01*
X150811326Y-96503465D01*
X150856661Y-96499000D01*
X151943339Y-96499000D01*
X151988674Y-96503465D01*
G37*
G36*
X149688674Y-96303465D02*
G01*
X149726367Y-96314899D01*
X149761103Y-96333466D01*
X149791548Y-96358452D01*
X149816534Y-96388897D01*
X149835101Y-96423633D01*
X149846535Y-96461326D01*
X149851000Y-96506661D01*
X149851000Y-97343339D01*
X149846535Y-97388674D01*
X149835101Y-97426367D01*
X149816534Y-97461103D01*
X149791548Y-97491548D01*
X149761103Y-97516534D01*
X149726367Y-97535101D01*
X149688674Y-97546535D01*
X149643339Y-97551000D01*
X148556661Y-97551000D01*
X148511326Y-97546535D01*
X148473633Y-97535101D01*
X148438897Y-97516534D01*
X148408452Y-97491548D01*
X148383466Y-97461103D01*
X148364899Y-97426367D01*
X148353465Y-97388674D01*
X148349000Y-97343339D01*
X148349000Y-96506661D01*
X148353465Y-96461326D01*
X148364899Y-96423633D01*
X148383466Y-96388897D01*
X148408452Y-96358452D01*
X148438897Y-96333466D01*
X148473633Y-96314899D01*
X148511326Y-96303465D01*
X148556661Y-96299000D01*
X149643339Y-96299000D01*
X149688674Y-96303465D01*
G37*
G36*
X146963874Y-96278466D02*
G01*
X147001567Y-96289900D01*
X147036303Y-96308467D01*
X147066748Y-96333453D01*
X147091734Y-96363898D01*
X147110301Y-96398634D01*
X147121735Y-96436327D01*
X147126200Y-96481662D01*
X147126200Y-97318340D01*
X147121735Y-97363675D01*
X147110301Y-97401368D01*
X147091734Y-97436104D01*
X147066748Y-97466549D01*
X147036303Y-97491535D01*
X147001567Y-97510102D01*
X146963874Y-97521536D01*
X146918539Y-97526001D01*
X145831861Y-97526001D01*
X145786526Y-97521536D01*
X145748833Y-97510102D01*
X145714097Y-97491535D01*
X145683652Y-97466549D01*
X145658666Y-97436104D01*
X145640099Y-97401368D01*
X145628665Y-97363675D01*
X145624200Y-97318340D01*
X145624200Y-96481662D01*
X145628665Y-96436327D01*
X145640099Y-96398634D01*
X145658666Y-96363898D01*
X145683652Y-96333453D01*
X145714097Y-96308467D01*
X145748833Y-96289900D01*
X145786526Y-96278466D01*
X145831861Y-96274001D01*
X146918539Y-96274001D01*
X146963874Y-96278466D01*
G37*
G36*
X128443512Y-95103927D02*
G01*
X128592812Y-95133624D01*
X128756784Y-95201544D01*
X128904354Y-95300147D01*
X129029853Y-95425646D01*
X129128456Y-95573216D01*
X129196376Y-95737188D01*
X129231000Y-95911259D01*
X129231000Y-96088741D01*
X129196376Y-96262812D01*
X129128456Y-96426784D01*
X129029853Y-96574354D01*
X128904354Y-96699853D01*
X128756784Y-96798456D01*
X128592812Y-96866376D01*
X128443512Y-96896073D01*
X128418742Y-96901000D01*
X128241258Y-96901000D01*
X128216488Y-96896073D01*
X128067188Y-96866376D01*
X127903216Y-96798456D01*
X127755646Y-96699853D01*
X127630147Y-96574354D01*
X127531544Y-96426784D01*
X127463624Y-96262812D01*
X127429000Y-96088741D01*
X127429000Y-95911259D01*
X127463624Y-95737188D01*
X127531544Y-95573216D01*
X127630147Y-95425646D01*
X127755646Y-95300147D01*
X127903216Y-95201544D01*
X128067188Y-95133624D01*
X128216488Y-95103927D01*
X128241258Y-95099000D01*
X128418742Y-95099000D01*
X128443512Y-95103927D01*
G37*
G36*
X125903512Y-95103927D02*
G01*
X126052812Y-95133624D01*
X126216784Y-95201544D01*
X126364354Y-95300147D01*
X126489853Y-95425646D01*
X126588456Y-95573216D01*
X126656376Y-95737188D01*
X126691000Y-95911259D01*
X126691000Y-96088741D01*
X126656376Y-96262812D01*
X126588456Y-96426784D01*
X126489853Y-96574354D01*
X126364354Y-96699853D01*
X126216784Y-96798456D01*
X126052812Y-96866376D01*
X125903512Y-96896073D01*
X125878742Y-96901000D01*
X125701258Y-96901000D01*
X125676488Y-96896073D01*
X125527188Y-96866376D01*
X125363216Y-96798456D01*
X125215646Y-96699853D01*
X125090147Y-96574354D01*
X124991544Y-96426784D01*
X124923624Y-96262812D01*
X124889000Y-96088741D01*
X124889000Y-95911259D01*
X124923624Y-95737188D01*
X124991544Y-95573216D01*
X125090147Y-95425646D01*
X125215646Y-95300147D01*
X125363216Y-95201544D01*
X125527188Y-95133624D01*
X125676488Y-95103927D01*
X125701258Y-95099000D01*
X125878742Y-95099000D01*
X125903512Y-95103927D01*
G37*
G36*
X130983512Y-95103927D02*
G01*
X131132812Y-95133624D01*
X131296784Y-95201544D01*
X131444354Y-95300147D01*
X131569853Y-95425646D01*
X131668456Y-95573216D01*
X131736376Y-95737188D01*
X131771000Y-95911259D01*
X131771000Y-96088741D01*
X131736376Y-96262812D01*
X131668456Y-96426784D01*
X131569853Y-96574354D01*
X131444354Y-96699853D01*
X131296784Y-96798456D01*
X131132812Y-96866376D01*
X130983512Y-96896073D01*
X130958742Y-96901000D01*
X130781258Y-96901000D01*
X130756488Y-96896073D01*
X130607188Y-96866376D01*
X130443216Y-96798456D01*
X130295646Y-96699853D01*
X130170147Y-96574354D01*
X130071544Y-96426784D01*
X130003624Y-96262812D01*
X129969000Y-96088741D01*
X129969000Y-95911259D01*
X130003624Y-95737188D01*
X130071544Y-95573216D01*
X130170147Y-95425646D01*
X130295646Y-95300147D01*
X130443216Y-95201544D01*
X130607188Y-95133624D01*
X130756488Y-95103927D01*
X130781258Y-95099000D01*
X130958742Y-95099000D01*
X130983512Y-95103927D01*
G37*
G36*
X124151000Y-96901000D02*
G01*
X122349000Y-96901000D01*
X122349000Y-95099000D01*
X124151000Y-95099000D01*
X124151000Y-96901000D01*
G37*
G36*
X112763000Y-96768800D02*
G01*
X108761000Y-96768800D01*
X108761000Y-94866800D01*
X112763000Y-94866800D01*
X112763000Y-96768800D01*
G37*
G36*
X143751000Y-96451000D02*
G01*
X141149000Y-96451000D01*
X141149000Y-94849000D01*
X143751000Y-94849000D01*
X143751000Y-96451000D01*
G37*
G36*
X151988674Y-94453465D02*
G01*
X152026367Y-94464899D01*
X152061103Y-94483466D01*
X152091548Y-94508452D01*
X152116534Y-94538897D01*
X152135101Y-94573633D01*
X152146535Y-94611326D01*
X152151000Y-94656661D01*
X152151000Y-95493339D01*
X152146535Y-95538674D01*
X152135101Y-95576367D01*
X152116534Y-95611103D01*
X152091548Y-95641548D01*
X152061103Y-95666534D01*
X152026367Y-95685101D01*
X151988674Y-95696535D01*
X151943339Y-95701000D01*
X150856661Y-95701000D01*
X150811326Y-95696535D01*
X150773633Y-95685101D01*
X150738897Y-95666534D01*
X150708452Y-95641548D01*
X150683466Y-95611103D01*
X150664899Y-95576367D01*
X150653465Y-95538674D01*
X150649000Y-95493339D01*
X150649000Y-94656661D01*
X150653465Y-94611326D01*
X150664899Y-94573633D01*
X150683466Y-94538897D01*
X150708452Y-94508452D01*
X150738897Y-94483466D01*
X150773633Y-94464899D01*
X150811326Y-94453465D01*
X150856661Y-94449000D01*
X151943339Y-94449000D01*
X151988674Y-94453465D01*
G37*
G36*
X149688674Y-94253465D02*
G01*
X149726367Y-94264899D01*
X149761103Y-94283466D01*
X149791548Y-94308452D01*
X149816534Y-94338897D01*
X149835101Y-94373633D01*
X149846535Y-94411326D01*
X149851000Y-94456661D01*
X149851000Y-95293339D01*
X149846535Y-95338674D01*
X149835101Y-95376367D01*
X149816534Y-95411103D01*
X149791548Y-95441548D01*
X149761103Y-95466534D01*
X149726367Y-95485101D01*
X149688674Y-95496535D01*
X149643339Y-95501000D01*
X148556661Y-95501000D01*
X148511326Y-95496535D01*
X148473633Y-95485101D01*
X148438897Y-95466534D01*
X148408452Y-95441548D01*
X148383466Y-95411103D01*
X148364899Y-95376367D01*
X148353465Y-95338674D01*
X148349000Y-95293339D01*
X148349000Y-94456661D01*
X148353465Y-94411326D01*
X148364899Y-94373633D01*
X148383466Y-94338897D01*
X148408452Y-94308452D01*
X148438897Y-94283466D01*
X148473633Y-94264899D01*
X148511326Y-94253465D01*
X148556661Y-94249000D01*
X149643339Y-94249000D01*
X149688674Y-94253465D01*
G37*
G36*
X146963874Y-94228466D02*
G01*
X147001567Y-94239900D01*
X147036303Y-94258467D01*
X147066748Y-94283453D01*
X147091734Y-94313898D01*
X147110301Y-94348634D01*
X147121735Y-94386327D01*
X147126200Y-94431662D01*
X147126200Y-95268340D01*
X147121735Y-95313675D01*
X147110301Y-95351368D01*
X147091734Y-95386104D01*
X147066748Y-95416549D01*
X147036303Y-95441535D01*
X147001567Y-95460102D01*
X146963874Y-95471536D01*
X146918539Y-95476001D01*
X145831861Y-95476001D01*
X145786526Y-95471536D01*
X145748833Y-95460102D01*
X145714097Y-95441535D01*
X145683652Y-95416549D01*
X145658666Y-95386104D01*
X145640099Y-95351368D01*
X145628665Y-95313675D01*
X145624200Y-95268340D01*
X145624200Y-94431662D01*
X145628665Y-94386327D01*
X145640099Y-94348634D01*
X145658666Y-94313898D01*
X145683652Y-94283453D01*
X145714097Y-94258467D01*
X145748833Y-94239900D01*
X145786526Y-94228466D01*
X145831861Y-94224001D01*
X146918539Y-94224001D01*
X146963874Y-94228466D01*
G37*
G36*
X123363512Y-92563927D02*
G01*
X123512812Y-92593624D01*
X123676784Y-92661544D01*
X123824354Y-92760147D01*
X123949853Y-92885646D01*
X124048456Y-93033216D01*
X124116376Y-93197188D01*
X124151000Y-93371259D01*
X124151000Y-93548741D01*
X124116376Y-93722812D01*
X124048456Y-93886784D01*
X123949853Y-94034354D01*
X123824354Y-94159853D01*
X123676784Y-94258456D01*
X123512812Y-94326376D01*
X123363512Y-94356073D01*
X123338742Y-94361000D01*
X123161258Y-94361000D01*
X123136488Y-94356073D01*
X122987188Y-94326376D01*
X122823216Y-94258456D01*
X122675646Y-94159853D01*
X122550147Y-94034354D01*
X122451544Y-93886784D01*
X122383624Y-93722812D01*
X122349000Y-93548741D01*
X122349000Y-93371259D01*
X122383624Y-93197188D01*
X122451544Y-93033216D01*
X122550147Y-92885646D01*
X122675646Y-92760147D01*
X122823216Y-92661544D01*
X122987188Y-92593624D01*
X123136488Y-92563927D01*
X123161258Y-92559000D01*
X123338742Y-92559000D01*
X123363512Y-92563927D01*
G37*
G36*
X130983512Y-92563927D02*
G01*
X131132812Y-92593624D01*
X131296784Y-92661544D01*
X131444354Y-92760147D01*
X131569853Y-92885646D01*
X131668456Y-93033216D01*
X131736376Y-93197188D01*
X131771000Y-93371259D01*
X131771000Y-93548741D01*
X131736376Y-93722812D01*
X131668456Y-93886784D01*
X131569853Y-94034354D01*
X131444354Y-94159853D01*
X131296784Y-94258456D01*
X131132812Y-94326376D01*
X130983512Y-94356073D01*
X130958742Y-94361000D01*
X130781258Y-94361000D01*
X130756488Y-94356073D01*
X130607188Y-94326376D01*
X130443216Y-94258456D01*
X130295646Y-94159853D01*
X130170147Y-94034354D01*
X130071544Y-93886784D01*
X130003624Y-93722812D01*
X129969000Y-93548741D01*
X129969000Y-93371259D01*
X130003624Y-93197188D01*
X130071544Y-93033216D01*
X130170147Y-92885646D01*
X130295646Y-92760147D01*
X130443216Y-92661544D01*
X130607188Y-92593624D01*
X130756488Y-92563927D01*
X130781258Y-92559000D01*
X130958742Y-92559000D01*
X130983512Y-92563927D01*
G37*
G36*
X128443512Y-92563927D02*
G01*
X128592812Y-92593624D01*
X128756784Y-92661544D01*
X128904354Y-92760147D01*
X129029853Y-92885646D01*
X129128456Y-93033216D01*
X129196376Y-93197188D01*
X129231000Y-93371259D01*
X129231000Y-93548741D01*
X129196376Y-93722812D01*
X129128456Y-93886784D01*
X129029853Y-94034354D01*
X128904354Y-94159853D01*
X128756784Y-94258456D01*
X128592812Y-94326376D01*
X128443512Y-94356073D01*
X128418742Y-94361000D01*
X128241258Y-94361000D01*
X128216488Y-94356073D01*
X128067188Y-94326376D01*
X127903216Y-94258456D01*
X127755646Y-94159853D01*
X127630147Y-94034354D01*
X127531544Y-93886784D01*
X127463624Y-93722812D01*
X127429000Y-93548741D01*
X127429000Y-93371259D01*
X127463624Y-93197188D01*
X127531544Y-93033216D01*
X127630147Y-92885646D01*
X127755646Y-92760147D01*
X127903216Y-92661544D01*
X128067188Y-92593624D01*
X128216488Y-92563927D01*
X128241258Y-92559000D01*
X128418742Y-92559000D01*
X128443512Y-92563927D01*
G37*
G36*
X125903512Y-92563927D02*
G01*
X126052812Y-92593624D01*
X126216784Y-92661544D01*
X126364354Y-92760147D01*
X126489853Y-92885646D01*
X126588456Y-93033216D01*
X126656376Y-93197188D01*
X126691000Y-93371259D01*
X126691000Y-93548741D01*
X126656376Y-93722812D01*
X126588456Y-93886784D01*
X126489853Y-94034354D01*
X126364354Y-94159853D01*
X126216784Y-94258456D01*
X126052812Y-94326376D01*
X125903512Y-94356073D01*
X125878742Y-94361000D01*
X125701258Y-94361000D01*
X125676488Y-94356073D01*
X125527188Y-94326376D01*
X125363216Y-94258456D01*
X125215646Y-94159853D01*
X125090147Y-94034354D01*
X124991544Y-93886784D01*
X124923624Y-93722812D01*
X124889000Y-93548741D01*
X124889000Y-93371259D01*
X124923624Y-93197188D01*
X124991544Y-93033216D01*
X125090147Y-92885646D01*
X125215646Y-92760147D01*
X125363216Y-92661544D01*
X125527188Y-92593624D01*
X125676488Y-92563927D01*
X125701258Y-92559000D01*
X125878742Y-92559000D01*
X125903512Y-92563927D01*
G37*
G36*
X111826000Y-93426000D02*
G01*
X110924000Y-93426000D01*
X110924000Y-92274000D01*
X111826000Y-92274000D01*
X111826000Y-93426000D01*
G37*
G36*
X115576000Y-93426000D02*
G01*
X114674000Y-93426000D01*
X114674000Y-92274000D01*
X115576000Y-92274000D01*
X115576000Y-93426000D01*
G37*
G36*
X151059000Y-92664000D02*
G01*
X149257000Y-92664000D01*
X149257000Y-90862000D01*
X151059000Y-90862000D01*
X151059000Y-92664000D01*
G37*
G36*
X130549000Y-90824000D02*
G01*
X129547000Y-90824000D01*
X129547000Y-88722000D01*
X130549000Y-88722000D01*
X130549000Y-90824000D01*
G37*
G36*
X129279000Y-90824000D02*
G01*
X128277000Y-90824000D01*
X128277000Y-88722000D01*
X129279000Y-88722000D01*
X129279000Y-90824000D01*
G37*
G36*
X135629000Y-90824000D02*
G01*
X134627000Y-90824000D01*
X134627000Y-88722000D01*
X135629000Y-88722000D01*
X135629000Y-90824000D01*
G37*
G36*
X128009000Y-90824000D02*
G01*
X127007000Y-90824000D01*
X127007000Y-88722000D01*
X128009000Y-88722000D01*
X128009000Y-90824000D01*
G37*
G36*
X131819000Y-90824000D02*
G01*
X130817000Y-90824000D01*
X130817000Y-88722000D01*
X131819000Y-88722000D01*
X131819000Y-90824000D01*
G37*
G36*
X125469000Y-90824000D02*
G01*
X124467000Y-90824000D01*
X124467000Y-88722000D01*
X125469000Y-88722000D01*
X125469000Y-90824000D01*
G37*
G36*
X126739000Y-90824000D02*
G01*
X125737000Y-90824000D01*
X125737000Y-88722000D01*
X126739000Y-88722000D01*
X126739000Y-90824000D01*
G37*
G36*
X134359000Y-90824000D02*
G01*
X133357000Y-90824000D01*
X133357000Y-88722000D01*
X134359000Y-88722000D01*
X134359000Y-90824000D01*
G37*
G36*
X133089000Y-90824000D02*
G01*
X132087000Y-90824000D01*
X132087000Y-88722000D01*
X133089000Y-88722000D01*
X133089000Y-90824000D01*
G37*
G36*
X136899000Y-90824000D02*
G01*
X135897000Y-90824000D01*
X135897000Y-88722000D01*
X136899000Y-88722000D01*
X136899000Y-90824000D01*
G37*
G36*
X150271512Y-88326927D02*
G01*
X150420812Y-88356624D01*
X150584784Y-88424544D01*
X150732354Y-88523147D01*
X150857853Y-88648646D01*
X150956456Y-88796216D01*
X151024376Y-88960188D01*
X151059000Y-89134259D01*
X151059000Y-89311741D01*
X151024376Y-89485812D01*
X150956456Y-89649784D01*
X150857853Y-89797354D01*
X150732354Y-89922853D01*
X150584784Y-90021456D01*
X150420812Y-90089376D01*
X150271512Y-90119073D01*
X150246742Y-90124000D01*
X150069258Y-90124000D01*
X150044488Y-90119073D01*
X149895188Y-90089376D01*
X149731216Y-90021456D01*
X149583646Y-89922853D01*
X149458147Y-89797354D01*
X149359544Y-89649784D01*
X149291624Y-89485812D01*
X149257000Y-89311741D01*
X149257000Y-89134259D01*
X149291624Y-88960188D01*
X149359544Y-88796216D01*
X149458147Y-88648646D01*
X149583646Y-88523147D01*
X149731216Y-88424544D01*
X149895188Y-88356624D01*
X150044488Y-88326927D01*
X150069258Y-88322000D01*
X150246742Y-88322000D01*
X150271512Y-88326927D01*
G37*
G36*
X140234000Y-89274000D02*
G01*
X138132000Y-89274000D01*
X138132000Y-88272000D01*
X140234000Y-88272000D01*
X140234000Y-89274000D01*
G37*
G36*
X123234000Y-89274000D02*
G01*
X121132000Y-89274000D01*
X121132000Y-88272000D01*
X123234000Y-88272000D01*
X123234000Y-89274000D01*
G37*
G36*
X120483098Y-87296444D02*
G01*
X120520594Y-87307819D01*
X120555153Y-87326291D01*
X120585446Y-87351152D01*
X120610307Y-87381445D01*
X120628779Y-87416004D01*
X120640154Y-87453500D01*
X120644599Y-87498637D01*
X120644599Y-88137361D01*
X120640154Y-88182498D01*
X120628779Y-88219994D01*
X120610307Y-88254553D01*
X120585446Y-88284846D01*
X120555153Y-88309707D01*
X120520594Y-88328179D01*
X120483098Y-88339554D01*
X120437961Y-88343999D01*
X119699237Y-88343999D01*
X119654100Y-88339554D01*
X119616604Y-88328179D01*
X119582045Y-88309707D01*
X119551752Y-88284846D01*
X119526891Y-88254553D01*
X119508419Y-88219994D01*
X119497044Y-88182498D01*
X119492599Y-88137361D01*
X119492599Y-87498637D01*
X119497044Y-87453500D01*
X119508419Y-87416004D01*
X119526891Y-87381445D01*
X119551752Y-87351152D01*
X119582045Y-87326291D01*
X119616604Y-87307819D01*
X119654100Y-87296444D01*
X119699237Y-87291999D01*
X120437961Y-87291999D01*
X120483098Y-87296444D01*
G37*
G36*
X118733098Y-87296444D02*
G01*
X118770594Y-87307819D01*
X118805153Y-87326291D01*
X118835446Y-87351152D01*
X118860307Y-87381445D01*
X118878779Y-87416004D01*
X118890154Y-87453500D01*
X118894599Y-87498637D01*
X118894599Y-88137361D01*
X118890154Y-88182498D01*
X118878779Y-88219994D01*
X118860307Y-88254553D01*
X118835446Y-88284846D01*
X118805153Y-88309707D01*
X118770594Y-88328179D01*
X118733098Y-88339554D01*
X118687961Y-88343999D01*
X117949237Y-88343999D01*
X117904100Y-88339554D01*
X117866604Y-88328179D01*
X117832045Y-88309707D01*
X117801752Y-88284846D01*
X117776891Y-88254553D01*
X117758419Y-88219994D01*
X117747044Y-88182498D01*
X117742599Y-88137361D01*
X117742599Y-87498637D01*
X117747044Y-87453500D01*
X117758419Y-87416004D01*
X117776891Y-87381445D01*
X117801752Y-87351152D01*
X117832045Y-87326291D01*
X117866604Y-87307819D01*
X117904100Y-87296444D01*
X117949237Y-87291999D01*
X118687961Y-87291999D01*
X118733098Y-87296444D01*
G37*
G36*
X140234000Y-88004000D02*
G01*
X138132000Y-88004000D01*
X138132000Y-87002000D01*
X140234000Y-87002000D01*
X140234000Y-88004000D01*
G37*
G36*
X123234000Y-88004000D02*
G01*
X121132000Y-88004000D01*
X121132000Y-87002000D01*
X123234000Y-87002000D01*
X123234000Y-88004000D01*
G37*
G36*
X150271512Y-85786927D02*
G01*
X150420812Y-85816624D01*
X150584784Y-85884544D01*
X150732354Y-85983147D01*
X150857853Y-86108646D01*
X150956456Y-86256216D01*
X151024376Y-86420188D01*
X151059000Y-86594259D01*
X151059000Y-86771741D01*
X151024376Y-86945812D01*
X150956456Y-87109784D01*
X150857853Y-87257354D01*
X150732354Y-87382853D01*
X150584784Y-87481456D01*
X150420812Y-87549376D01*
X150271512Y-87579073D01*
X150246742Y-87584000D01*
X150069258Y-87584000D01*
X150044488Y-87579073D01*
X149895188Y-87549376D01*
X149731216Y-87481456D01*
X149583646Y-87382853D01*
X149458147Y-87257354D01*
X149359544Y-87109784D01*
X149291624Y-86945812D01*
X149257000Y-86771741D01*
X149257000Y-86594259D01*
X149291624Y-86420188D01*
X149359544Y-86256216D01*
X149458147Y-86108646D01*
X149583646Y-85983147D01*
X149731216Y-85884544D01*
X149895188Y-85816624D01*
X150044488Y-85786927D01*
X150069258Y-85782000D01*
X150246742Y-85782000D01*
X150271512Y-85786927D01*
G37*
G36*
X115576000Y-87426000D02*
G01*
X114674000Y-87426000D01*
X114674000Y-86274000D01*
X115576000Y-86274000D01*
X115576000Y-87426000D01*
G37*
G36*
X111826000Y-87426000D02*
G01*
X110924000Y-87426000D01*
X110924000Y-86274000D01*
X111826000Y-86274000D01*
X111826000Y-87426000D01*
G37*
G36*
X120477698Y-85736845D02*
G01*
X120515194Y-85748220D01*
X120549753Y-85766692D01*
X120580046Y-85791553D01*
X120604907Y-85821846D01*
X120623379Y-85856405D01*
X120634754Y-85893901D01*
X120639199Y-85939038D01*
X120639199Y-86577762D01*
X120634754Y-86622899D01*
X120623379Y-86660395D01*
X120604907Y-86694954D01*
X120580046Y-86725247D01*
X120549753Y-86750108D01*
X120515194Y-86768580D01*
X120477698Y-86779955D01*
X120432561Y-86784400D01*
X119693837Y-86784400D01*
X119648700Y-86779955D01*
X119611204Y-86768580D01*
X119576645Y-86750108D01*
X119546352Y-86725247D01*
X119521491Y-86694954D01*
X119503019Y-86660395D01*
X119491644Y-86622899D01*
X119487199Y-86577762D01*
X119487199Y-85939038D01*
X119491644Y-85893901D01*
X119503019Y-85856405D01*
X119521491Y-85821846D01*
X119546352Y-85791553D01*
X119576645Y-85766692D01*
X119611204Y-85748220D01*
X119648700Y-85736845D01*
X119693837Y-85732400D01*
X120432561Y-85732400D01*
X120477698Y-85736845D01*
G37*
G36*
X118727698Y-85736845D02*
G01*
X118765194Y-85748220D01*
X118799753Y-85766692D01*
X118830046Y-85791553D01*
X118854907Y-85821846D01*
X118873379Y-85856405D01*
X118884754Y-85893901D01*
X118889199Y-85939038D01*
X118889199Y-86577762D01*
X118884754Y-86622899D01*
X118873379Y-86660395D01*
X118854907Y-86694954D01*
X118830046Y-86725247D01*
X118799753Y-86750108D01*
X118765194Y-86768580D01*
X118727698Y-86779955D01*
X118682561Y-86784400D01*
X117943837Y-86784400D01*
X117898700Y-86779955D01*
X117861204Y-86768580D01*
X117826645Y-86750108D01*
X117796352Y-86725247D01*
X117771491Y-86694954D01*
X117753019Y-86660395D01*
X117741644Y-86622899D01*
X117737199Y-86577762D01*
X117737199Y-85939038D01*
X117741644Y-85893901D01*
X117753019Y-85856405D01*
X117771491Y-85821846D01*
X117796352Y-85791553D01*
X117826645Y-85766692D01*
X117861204Y-85748220D01*
X117898700Y-85736845D01*
X117943837Y-85732400D01*
X118682561Y-85732400D01*
X118727698Y-85736845D01*
G37*
G36*
X123234000Y-86734000D02*
G01*
X121132000Y-86734000D01*
X121132000Y-85732000D01*
X123234000Y-85732000D01*
X123234000Y-86734000D01*
G37*
G36*
X140234000Y-86734000D02*
G01*
X138132000Y-86734000D01*
X138132000Y-85732000D01*
X140234000Y-85732000D01*
X140234000Y-86734000D01*
G37*
G36*
X123234000Y-85464000D02*
G01*
X121132000Y-85464000D01*
X121132000Y-84462000D01*
X123234000Y-84462000D01*
X123234000Y-85464000D01*
G37*
G36*
X140234000Y-85464000D02*
G01*
X138132000Y-85464000D01*
X138132000Y-84462000D01*
X140234000Y-84462000D01*
X140234000Y-85464000D01*
G37*
G36*
X150271512Y-83246927D02*
G01*
X150420812Y-83276624D01*
X150584784Y-83344544D01*
X150732354Y-83443147D01*
X150857853Y-83568646D01*
X150956456Y-83716216D01*
X151024376Y-83880188D01*
X151059000Y-84054259D01*
X151059000Y-84231741D01*
X151024376Y-84405812D01*
X150956456Y-84569784D01*
X150857853Y-84717354D01*
X150732354Y-84842853D01*
X150584784Y-84941456D01*
X150420812Y-85009376D01*
X150271512Y-85039073D01*
X150246742Y-85044000D01*
X150069258Y-85044000D01*
X150044488Y-85039073D01*
X149895188Y-85009376D01*
X149731216Y-84941456D01*
X149583646Y-84842853D01*
X149458147Y-84717354D01*
X149359544Y-84569784D01*
X149291624Y-84405812D01*
X149257000Y-84231741D01*
X149257000Y-84054259D01*
X149291624Y-83880188D01*
X149359544Y-83716216D01*
X149458147Y-83568646D01*
X149583646Y-83443147D01*
X149731216Y-83344544D01*
X149895188Y-83276624D01*
X150044488Y-83246927D01*
X150069258Y-83242000D01*
X150246742Y-83242000D01*
X150271512Y-83246927D01*
G37*
G36*
X123234000Y-84194000D02*
G01*
X121132000Y-84194000D01*
X121132000Y-83192000D01*
X123234000Y-83192000D01*
X123234000Y-84194000D01*
G37*
G36*
X140234000Y-84194000D02*
G01*
X138132000Y-84194000D01*
X138132000Y-83192000D01*
X140234000Y-83192000D01*
X140234000Y-84194000D01*
G37*
G36*
X116113512Y-82133927D02*
G01*
X116262812Y-82163624D01*
X116426784Y-82231544D01*
X116574354Y-82330147D01*
X116699853Y-82455646D01*
X116798456Y-82603216D01*
X116866376Y-82767188D01*
X116901000Y-82941259D01*
X116901000Y-83118741D01*
X116866376Y-83292812D01*
X116798456Y-83456784D01*
X116699853Y-83604354D01*
X116574354Y-83729853D01*
X116426784Y-83828456D01*
X116262812Y-83896376D01*
X116113512Y-83926073D01*
X116088742Y-83931000D01*
X115911258Y-83931000D01*
X115886488Y-83926073D01*
X115737188Y-83896376D01*
X115573216Y-83828456D01*
X115425646Y-83729853D01*
X115300147Y-83604354D01*
X115201544Y-83456784D01*
X115133624Y-83292812D01*
X115099000Y-83118741D01*
X115099000Y-82941259D01*
X115133624Y-82767188D01*
X115201544Y-82603216D01*
X115300147Y-82455646D01*
X115425646Y-82330147D01*
X115573216Y-82231544D01*
X115737188Y-82163624D01*
X115886488Y-82133927D01*
X115911258Y-82129000D01*
X116088742Y-82129000D01*
X116113512Y-82133927D01*
G37*
G36*
X118653512Y-82133927D02*
G01*
X118802812Y-82163624D01*
X118966784Y-82231544D01*
X119114354Y-82330147D01*
X119239853Y-82455646D01*
X119338456Y-82603216D01*
X119406376Y-82767188D01*
X119441000Y-82941259D01*
X119441000Y-83118741D01*
X119406376Y-83292812D01*
X119338456Y-83456784D01*
X119239853Y-83604354D01*
X119114354Y-83729853D01*
X118966784Y-83828456D01*
X118802812Y-83896376D01*
X118653512Y-83926073D01*
X118628742Y-83931000D01*
X118451258Y-83931000D01*
X118426488Y-83926073D01*
X118277188Y-83896376D01*
X118113216Y-83828456D01*
X117965646Y-83729853D01*
X117840147Y-83604354D01*
X117741544Y-83456784D01*
X117673624Y-83292812D01*
X117639000Y-83118741D01*
X117639000Y-82941259D01*
X117673624Y-82767188D01*
X117741544Y-82603216D01*
X117840147Y-82455646D01*
X117965646Y-82330147D01*
X118113216Y-82231544D01*
X118277188Y-82163624D01*
X118426488Y-82133927D01*
X118451258Y-82129000D01*
X118628742Y-82129000D01*
X118653512Y-82133927D01*
G37*
G36*
X140234000Y-82924000D02*
G01*
X138132000Y-82924000D01*
X138132000Y-81922000D01*
X140234000Y-81922000D01*
X140234000Y-82924000D01*
G37*
G36*
X123234000Y-82924000D02*
G01*
X121132000Y-82924000D01*
X121132000Y-81922000D01*
X123234000Y-81922000D01*
X123234000Y-82924000D01*
G37*
G36*
X150271512Y-80706927D02*
G01*
X150420812Y-80736624D01*
X150584784Y-80804544D01*
X150732354Y-80903147D01*
X150857853Y-81028646D01*
X150956456Y-81176216D01*
X151024376Y-81340188D01*
X151059000Y-81514259D01*
X151059000Y-81691741D01*
X151024376Y-81865812D01*
X150956456Y-82029784D01*
X150857853Y-82177354D01*
X150732354Y-82302853D01*
X150584784Y-82401456D01*
X150420812Y-82469376D01*
X150271512Y-82499073D01*
X150246742Y-82504000D01*
X150069258Y-82504000D01*
X150044488Y-82499073D01*
X149895188Y-82469376D01*
X149731216Y-82401456D01*
X149583646Y-82302853D01*
X149458147Y-82177354D01*
X149359544Y-82029784D01*
X149291624Y-81865812D01*
X149257000Y-81691741D01*
X149257000Y-81514259D01*
X149291624Y-81340188D01*
X149359544Y-81176216D01*
X149458147Y-81028646D01*
X149583646Y-80903147D01*
X149731216Y-80804544D01*
X149895188Y-80736624D01*
X150044488Y-80706927D01*
X150069258Y-80702000D01*
X150246742Y-80702000D01*
X150271512Y-80706927D01*
G37*
G36*
X132234000Y-82314000D02*
G01*
X127132000Y-82314000D01*
X127132000Y-77212000D01*
X132234000Y-77212000D01*
X132234000Y-82314000D01*
G37*
G36*
X140234000Y-81654000D02*
G01*
X138132000Y-81654000D01*
X138132000Y-80652000D01*
X140234000Y-80652000D01*
X140234000Y-81654000D01*
G37*
G36*
X123234000Y-81654000D02*
G01*
X121132000Y-81654000D01*
X121132000Y-80652000D01*
X123234000Y-80652000D01*
X123234000Y-81654000D01*
G37*
G36*
X116113512Y-79593927D02*
G01*
X116262812Y-79623624D01*
X116426784Y-79691544D01*
X116574354Y-79790147D01*
X116699853Y-79915646D01*
X116798456Y-80063216D01*
X116866376Y-80227188D01*
X116901000Y-80401259D01*
X116901000Y-80578741D01*
X116866376Y-80752812D01*
X116798456Y-80916784D01*
X116699853Y-81064354D01*
X116574354Y-81189853D01*
X116426784Y-81288456D01*
X116262812Y-81356376D01*
X116113512Y-81386073D01*
X116088742Y-81391000D01*
X115911258Y-81391000D01*
X115886488Y-81386073D01*
X115737188Y-81356376D01*
X115573216Y-81288456D01*
X115425646Y-81189853D01*
X115300147Y-81064354D01*
X115201544Y-80916784D01*
X115133624Y-80752812D01*
X115099000Y-80578741D01*
X115099000Y-80401259D01*
X115133624Y-80227188D01*
X115201544Y-80063216D01*
X115300147Y-79915646D01*
X115425646Y-79790147D01*
X115573216Y-79691544D01*
X115737188Y-79623624D01*
X115886488Y-79593927D01*
X115911258Y-79589000D01*
X116088742Y-79589000D01*
X116113512Y-79593927D01*
G37*
G36*
X118653512Y-79593927D02*
G01*
X118802812Y-79623624D01*
X118966784Y-79691544D01*
X119114354Y-79790147D01*
X119239853Y-79915646D01*
X119338456Y-80063216D01*
X119406376Y-80227188D01*
X119441000Y-80401259D01*
X119441000Y-80578741D01*
X119406376Y-80752812D01*
X119338456Y-80916784D01*
X119239853Y-81064354D01*
X119114354Y-81189853D01*
X118966784Y-81288456D01*
X118802812Y-81356376D01*
X118653512Y-81386073D01*
X118628742Y-81391000D01*
X118451258Y-81391000D01*
X118426488Y-81386073D01*
X118277188Y-81356376D01*
X118113216Y-81288456D01*
X117965646Y-81189853D01*
X117840147Y-81064354D01*
X117741544Y-80916784D01*
X117673624Y-80752812D01*
X117639000Y-80578741D01*
X117639000Y-80401259D01*
X117673624Y-80227188D01*
X117741544Y-80063216D01*
X117840147Y-79915646D01*
X117965646Y-79790147D01*
X118113216Y-79691544D01*
X118277188Y-79623624D01*
X118426488Y-79593927D01*
X118451258Y-79589000D01*
X118628742Y-79589000D01*
X118653512Y-79593927D01*
G37*
G36*
X140234000Y-80384000D02*
G01*
X138132000Y-80384000D01*
X138132000Y-79382000D01*
X140234000Y-79382000D01*
X140234000Y-80384000D01*
G37*
G36*
X123234000Y-80384000D02*
G01*
X121132000Y-80384000D01*
X121132000Y-79382000D01*
X123234000Y-79382000D01*
X123234000Y-80384000D01*
G37*
G36*
X150271512Y-78166927D02*
G01*
X150420812Y-78196624D01*
X150584784Y-78264544D01*
X150732354Y-78363147D01*
X150857853Y-78488646D01*
X150956456Y-78636216D01*
X151024376Y-78800188D01*
X151059000Y-78974259D01*
X151059000Y-79151741D01*
X151024376Y-79325812D01*
X150956456Y-79489784D01*
X150857853Y-79637354D01*
X150732354Y-79762853D01*
X150584784Y-79861456D01*
X150420812Y-79929376D01*
X150271512Y-79959073D01*
X150246742Y-79964000D01*
X150069258Y-79964000D01*
X150044488Y-79959073D01*
X149895188Y-79929376D01*
X149731216Y-79861456D01*
X149583646Y-79762853D01*
X149458147Y-79637354D01*
X149359544Y-79489784D01*
X149291624Y-79325812D01*
X149257000Y-79151741D01*
X149257000Y-78974259D01*
X149291624Y-78800188D01*
X149359544Y-78636216D01*
X149458147Y-78488646D01*
X149583646Y-78363147D01*
X149731216Y-78264544D01*
X149895188Y-78196624D01*
X150044488Y-78166927D01*
X150069258Y-78162000D01*
X150246742Y-78162000D01*
X150271512Y-78166927D01*
G37*
G36*
X123234000Y-79114000D02*
G01*
X121132000Y-79114000D01*
X121132000Y-78112000D01*
X123234000Y-78112000D01*
X123234000Y-79114000D01*
G37*
G36*
X140234000Y-79114000D02*
G01*
X138132000Y-79114000D01*
X138132000Y-78112000D01*
X140234000Y-78112000D01*
X140234000Y-79114000D01*
G37*
G36*
X118646604Y-77052553D02*
G01*
X118802812Y-77083624D01*
X118966784Y-77151544D01*
X119114354Y-77250147D01*
X119239853Y-77375646D01*
X119338456Y-77523216D01*
X119406376Y-77687188D01*
X119441000Y-77861259D01*
X119441000Y-78038741D01*
X119406376Y-78212812D01*
X119338456Y-78376784D01*
X119239853Y-78524354D01*
X119114354Y-78649853D01*
X118966784Y-78748456D01*
X118802812Y-78816376D01*
X118653512Y-78846073D01*
X118628742Y-78851000D01*
X118451258Y-78851000D01*
X118426488Y-78846073D01*
X118277188Y-78816376D01*
X118113216Y-78748456D01*
X117965646Y-78649853D01*
X117840147Y-78524354D01*
X117741544Y-78376784D01*
X117673624Y-78212812D01*
X117639000Y-78038741D01*
X117639000Y-77861259D01*
X117673624Y-77687188D01*
X117741544Y-77523216D01*
X117840147Y-77375646D01*
X117965646Y-77250147D01*
X118113216Y-77151544D01*
X118277188Y-77083624D01*
X118433396Y-77052553D01*
X118451258Y-77049000D01*
X118628742Y-77049000D01*
X118646604Y-77052553D01*
G37*
G36*
X116901000Y-78851000D02*
G01*
X115099000Y-78851000D01*
X115099000Y-77049000D01*
X116901000Y-77049000D01*
X116901000Y-78851000D01*
G37*
G36*
X142564499Y-77628445D02*
G01*
X142601995Y-77639820D01*
X142636554Y-77658292D01*
X142666847Y-77683153D01*
X142691708Y-77713446D01*
X142710180Y-77748005D01*
X142721555Y-77785501D01*
X142726000Y-77830638D01*
X142726000Y-78569362D01*
X142721555Y-78614499D01*
X142710180Y-78651995D01*
X142691708Y-78686554D01*
X142666847Y-78716847D01*
X142636554Y-78741708D01*
X142601995Y-78760180D01*
X142564499Y-78771555D01*
X142519362Y-78776000D01*
X141880638Y-78776000D01*
X141835501Y-78771555D01*
X141798005Y-78760180D01*
X141763446Y-78741708D01*
X141733153Y-78716847D01*
X141708292Y-78686554D01*
X141689820Y-78651995D01*
X141678445Y-78614499D01*
X141674000Y-78569362D01*
X141674000Y-77830638D01*
X141678445Y-77785501D01*
X141689820Y-77748005D01*
X141708292Y-77713446D01*
X141733153Y-77683153D01*
X141763446Y-77658292D01*
X141798005Y-77639820D01*
X141835501Y-77628445D01*
X141880638Y-77624000D01*
X142519362Y-77624000D01*
X142564499Y-77628445D01*
G37*
G36*
X145051000Y-75270001D02*
G01*
X145053402Y-75294387D01*
X145060515Y-75317836D01*
X145072066Y-75339447D01*
X145087611Y-75358389D01*
X145106553Y-75373934D01*
X145128164Y-75385485D01*
X145151613Y-75392598D01*
X145175999Y-75395000D01*
X145374001Y-75395000D01*
X145398387Y-75392598D01*
X145421836Y-75385485D01*
X145443447Y-75373934D01*
X145462389Y-75358389D01*
X145477934Y-75339447D01*
X145489485Y-75317836D01*
X145496598Y-75294387D01*
X145499000Y-75270001D01*
X145499000Y-74445000D01*
X146001000Y-74445000D01*
X146001000Y-75270001D01*
X146003402Y-75294387D01*
X146010515Y-75317836D01*
X146022066Y-75339447D01*
X146037611Y-75358389D01*
X146056553Y-75373934D01*
X146078164Y-75385485D01*
X146101613Y-75392598D01*
X146125999Y-75395000D01*
X146324001Y-75395000D01*
X146348387Y-75392598D01*
X146371836Y-75385485D01*
X146393447Y-75373934D01*
X146412389Y-75358389D01*
X146427934Y-75339447D01*
X146439485Y-75317836D01*
X146446598Y-75294387D01*
X146449000Y-75270001D01*
X146449000Y-74445000D01*
X146951000Y-74445000D01*
X146951000Y-75270001D01*
X146953402Y-75294387D01*
X146960515Y-75317836D01*
X146972066Y-75339447D01*
X146987611Y-75358389D01*
X147001000Y-75369377D01*
X147001000Y-77022623D01*
X146987611Y-77033611D01*
X146972066Y-77052553D01*
X146960515Y-77074164D01*
X146953402Y-77097613D01*
X146951000Y-77121999D01*
X146951000Y-77947000D01*
X146449000Y-77947000D01*
X146449000Y-77121999D01*
X146446598Y-77097613D01*
X146439485Y-77074164D01*
X146427934Y-77052553D01*
X146412389Y-77033611D01*
X146393447Y-77018066D01*
X146371836Y-77006515D01*
X146348387Y-76999402D01*
X146324001Y-76997000D01*
X146125999Y-76997000D01*
X146101613Y-76999402D01*
X146078164Y-77006515D01*
X146056553Y-77018066D01*
X146037611Y-77033611D01*
X146022066Y-77052553D01*
X146010515Y-77074164D01*
X146003402Y-77097613D01*
X146001000Y-77121999D01*
X146001000Y-77947000D01*
X145499000Y-77947000D01*
X145499000Y-77121999D01*
X145496598Y-77097613D01*
X145489485Y-77074164D01*
X145477934Y-77052553D01*
X145462389Y-77033611D01*
X145443447Y-77018066D01*
X145421836Y-77006515D01*
X145398387Y-76999402D01*
X145374001Y-76997000D01*
X145175999Y-76997000D01*
X145151613Y-76999402D01*
X145128164Y-77006515D01*
X145106553Y-77018066D01*
X145087611Y-77033611D01*
X145072066Y-77052553D01*
X145060515Y-77074164D01*
X145053402Y-77097613D01*
X145051000Y-77121999D01*
X145051000Y-77947000D01*
X144549000Y-77947000D01*
X144549000Y-77121999D01*
X144546598Y-77097613D01*
X144539485Y-77074164D01*
X144527934Y-77052553D01*
X144512389Y-77033611D01*
X144499000Y-77022623D01*
X144499000Y-75369377D01*
X144512389Y-75358389D01*
X144527934Y-75339447D01*
X144539485Y-75317836D01*
X144546598Y-75294387D01*
X144549000Y-75270001D01*
X144549000Y-74445000D01*
X145051000Y-74445000D01*
X145051000Y-75270001D01*
G37*
G36*
X140234000Y-77844000D02*
G01*
X138132000Y-77844000D01*
X138132000Y-76842000D01*
X140234000Y-76842000D01*
X140234000Y-77844000D01*
G37*
G36*
X123234000Y-77844000D02*
G01*
X121132000Y-77844000D01*
X121132000Y-76842000D01*
X123234000Y-76842000D01*
X123234000Y-77844000D01*
G37*
G36*
X142564499Y-75878445D02*
G01*
X142601995Y-75889820D01*
X142636554Y-75908292D01*
X142666847Y-75933153D01*
X142691708Y-75963446D01*
X142710180Y-75998005D01*
X142721555Y-76035501D01*
X142726000Y-76080638D01*
X142726000Y-76819362D01*
X142721555Y-76864499D01*
X142710180Y-76901995D01*
X142691708Y-76936554D01*
X142666847Y-76966847D01*
X142636554Y-76991708D01*
X142601995Y-77010180D01*
X142564499Y-77021555D01*
X142519362Y-77026000D01*
X141880638Y-77026000D01*
X141835501Y-77021555D01*
X141798005Y-77010180D01*
X141763446Y-76991708D01*
X141733153Y-76966847D01*
X141708292Y-76936554D01*
X141689820Y-76901995D01*
X141678445Y-76864499D01*
X141674000Y-76819362D01*
X141674000Y-76080638D01*
X141678445Y-76035501D01*
X141689820Y-75998005D01*
X141708292Y-75963446D01*
X141733153Y-75933153D01*
X141763446Y-75908292D01*
X141798005Y-75889820D01*
X141835501Y-75878445D01*
X141880638Y-75874000D01*
X142519362Y-75874000D01*
X142564499Y-75878445D01*
G37*
G36*
X123234000Y-76574000D02*
G01*
X121132000Y-76574000D01*
X121132000Y-75572000D01*
X123234000Y-75572000D01*
X123234000Y-76574000D01*
G37*
G36*
X140234000Y-76574000D02*
G01*
X138132000Y-76574000D01*
X138132000Y-75572000D01*
X140234000Y-75572000D01*
X140234000Y-76574000D01*
G37*
G36*
X118772938Y-74967716D02*
G01*
X118793557Y-74973971D01*
X118812553Y-74984124D01*
X118829208Y-74997792D01*
X118842876Y-75014447D01*
X118853029Y-75033443D01*
X118859284Y-75054062D01*
X118862000Y-75081640D01*
X118862000Y-75540360D01*
X118859284Y-75567938D01*
X118853029Y-75588557D01*
X118842876Y-75607553D01*
X118829208Y-75624208D01*
X118812553Y-75637876D01*
X118793557Y-75648029D01*
X118772938Y-75654284D01*
X118745360Y-75657000D01*
X118236640Y-75657000D01*
X118209062Y-75654284D01*
X118188443Y-75648029D01*
X118169447Y-75637876D01*
X118152792Y-75624208D01*
X118139124Y-75607553D01*
X118128971Y-75588557D01*
X118122716Y-75567938D01*
X118120000Y-75540360D01*
X118120000Y-75081640D01*
X118122716Y-75054062D01*
X118128971Y-75033443D01*
X118139124Y-75014447D01*
X118152792Y-74997792D01*
X118169447Y-74984124D01*
X118188443Y-74973971D01*
X118209062Y-74967716D01*
X118236640Y-74965000D01*
X118745360Y-74965000D01*
X118772938Y-74967716D01*
G37*
G36*
X142570499Y-74199444D02*
G01*
X142607995Y-74210819D01*
X142642554Y-74229291D01*
X142672847Y-74254152D01*
X142697708Y-74284445D01*
X142716180Y-74319004D01*
X142727555Y-74356500D01*
X142732000Y-74401637D01*
X142732000Y-75140361D01*
X142727555Y-75185498D01*
X142716180Y-75222994D01*
X142697708Y-75257553D01*
X142672847Y-75287846D01*
X142642554Y-75312707D01*
X142607995Y-75331179D01*
X142570499Y-75342554D01*
X142525362Y-75346999D01*
X141886638Y-75346999D01*
X141841501Y-75342554D01*
X141804005Y-75331179D01*
X141769446Y-75312707D01*
X141739153Y-75287846D01*
X141714292Y-75257553D01*
X141695820Y-75222994D01*
X141684445Y-75185498D01*
X141680000Y-75140361D01*
X141680000Y-74401637D01*
X141684445Y-74356500D01*
X141695820Y-74319004D01*
X141714292Y-74284445D01*
X141739153Y-74254152D01*
X141769446Y-74229291D01*
X141804005Y-74210819D01*
X141841501Y-74199444D01*
X141886638Y-74194999D01*
X142525362Y-74194999D01*
X142570499Y-74199444D01*
G37*
G36*
X140234000Y-75304000D02*
G01*
X138132000Y-75304000D01*
X138132000Y-74302000D01*
X140234000Y-74302000D01*
X140234000Y-75304000D01*
G37*
G36*
X123234000Y-75304000D02*
G01*
X121132000Y-75304000D01*
X121132000Y-74302000D01*
X123234000Y-74302000D01*
X123234000Y-75304000D01*
G37*
G36*
X113571499Y-73646445D02*
G01*
X113608995Y-73657820D01*
X113643554Y-73676292D01*
X113673847Y-73701153D01*
X113698708Y-73731446D01*
X113717180Y-73766005D01*
X113728555Y-73803501D01*
X113733000Y-73848638D01*
X113733000Y-74487362D01*
X113728555Y-74532499D01*
X113717180Y-74569995D01*
X113698708Y-74604554D01*
X113673847Y-74634847D01*
X113643554Y-74659708D01*
X113608995Y-74678180D01*
X113571499Y-74689555D01*
X113526362Y-74694000D01*
X112787638Y-74694000D01*
X112742501Y-74689555D01*
X112705005Y-74678180D01*
X112670446Y-74659708D01*
X112640153Y-74634847D01*
X112615292Y-74604554D01*
X112596820Y-74569995D01*
X112585445Y-74532499D01*
X112581000Y-74487362D01*
X112581000Y-73848638D01*
X112585445Y-73803501D01*
X112596820Y-73766005D01*
X112615292Y-73731446D01*
X112640153Y-73701153D01*
X112670446Y-73676292D01*
X112705005Y-73657820D01*
X112742501Y-73646445D01*
X112787638Y-73642000D01*
X113526362Y-73642000D01*
X113571499Y-73646445D01*
G37*
G36*
X115321499Y-73646445D02*
G01*
X115358995Y-73657820D01*
X115393554Y-73676292D01*
X115423847Y-73701153D01*
X115448708Y-73731446D01*
X115467180Y-73766005D01*
X115478555Y-73803501D01*
X115483000Y-73848638D01*
X115483000Y-74487362D01*
X115478555Y-74532499D01*
X115467180Y-74569995D01*
X115448708Y-74604554D01*
X115423847Y-74634847D01*
X115393554Y-74659708D01*
X115358995Y-74678180D01*
X115321499Y-74689555D01*
X115276362Y-74694000D01*
X114537638Y-74694000D01*
X114492501Y-74689555D01*
X114455005Y-74678180D01*
X114420446Y-74659708D01*
X114390153Y-74634847D01*
X114365292Y-74604554D01*
X114346820Y-74569995D01*
X114335445Y-74532499D01*
X114331000Y-74487362D01*
X114331000Y-73848638D01*
X114335445Y-73803501D01*
X114346820Y-73766005D01*
X114365292Y-73731446D01*
X114390153Y-73701153D01*
X114420446Y-73676292D01*
X114455005Y-73657820D01*
X114492501Y-73646445D01*
X114537638Y-73642000D01*
X115276362Y-73642000D01*
X115321499Y-73646445D01*
G37*
G36*
X118772938Y-73997716D02*
G01*
X118793557Y-74003971D01*
X118812553Y-74014124D01*
X118829208Y-74027792D01*
X118842876Y-74044447D01*
X118853029Y-74063443D01*
X118859284Y-74084062D01*
X118862000Y-74111640D01*
X118862000Y-74570360D01*
X118859284Y-74597938D01*
X118853029Y-74618557D01*
X118842876Y-74637553D01*
X118829208Y-74654208D01*
X118812553Y-74667876D01*
X118793557Y-74678029D01*
X118772938Y-74684284D01*
X118745360Y-74687000D01*
X118236640Y-74687000D01*
X118209062Y-74684284D01*
X118188443Y-74678029D01*
X118169447Y-74667876D01*
X118152792Y-74654208D01*
X118139124Y-74637553D01*
X118128971Y-74618557D01*
X118122716Y-74597938D01*
X118120000Y-74570360D01*
X118120000Y-74111640D01*
X118122716Y-74084062D01*
X118128971Y-74063443D01*
X118139124Y-74044447D01*
X118152792Y-74027792D01*
X118169447Y-74014124D01*
X118188443Y-74003971D01*
X118209062Y-73997716D01*
X118236640Y-73995000D01*
X118745360Y-73995000D01*
X118772938Y-73997716D01*
G37*
G36*
X140234000Y-74034000D02*
G01*
X138132000Y-74034000D01*
X138132000Y-73032000D01*
X140234000Y-73032000D01*
X140234000Y-74034000D01*
G37*
G36*
X123234000Y-74034000D02*
G01*
X121132000Y-74034000D01*
X121132000Y-73032000D01*
X123234000Y-73032000D01*
X123234000Y-74034000D01*
G37*
G36*
X120614438Y-72953217D02*
G01*
X120635057Y-72959472D01*
X120654053Y-72969625D01*
X120670708Y-72983293D01*
X120684376Y-72999948D01*
X120694529Y-73018944D01*
X120700784Y-73039563D01*
X120703500Y-73067141D01*
X120703500Y-73525861D01*
X120700784Y-73553439D01*
X120694529Y-73574058D01*
X120684376Y-73593054D01*
X120670708Y-73609709D01*
X120654053Y-73623377D01*
X120635057Y-73633530D01*
X120614438Y-73639785D01*
X120586860Y-73642501D01*
X120078140Y-73642501D01*
X120050562Y-73639785D01*
X120029943Y-73633530D01*
X120010947Y-73623377D01*
X119994292Y-73609709D01*
X119980624Y-73593054D01*
X119970471Y-73574058D01*
X119964216Y-73553439D01*
X119961500Y-73525861D01*
X119961500Y-73067141D01*
X119964216Y-73039563D01*
X119970471Y-73018944D01*
X119980624Y-72999948D01*
X119994292Y-72983293D01*
X120010947Y-72969625D01*
X120029943Y-72959472D01*
X120050562Y-72953217D01*
X120078140Y-72950501D01*
X120586860Y-72950501D01*
X120614438Y-72953217D01*
G37*
G36*
X119344438Y-72953216D02*
G01*
X119365057Y-72959471D01*
X119384053Y-72969624D01*
X119400708Y-72983292D01*
X119414376Y-72999947D01*
X119424529Y-73018943D01*
X119430784Y-73039562D01*
X119433500Y-73067140D01*
X119433500Y-73525860D01*
X119430784Y-73553438D01*
X119424529Y-73574057D01*
X119414376Y-73593053D01*
X119400708Y-73609708D01*
X119384053Y-73623376D01*
X119365057Y-73633529D01*
X119344438Y-73639784D01*
X119316860Y-73642500D01*
X118808140Y-73642500D01*
X118780562Y-73639784D01*
X118759943Y-73633529D01*
X118740947Y-73623376D01*
X118724292Y-73609708D01*
X118710624Y-73593053D01*
X118700471Y-73574057D01*
X118694216Y-73553438D01*
X118691500Y-73525860D01*
X118691500Y-73067140D01*
X118694216Y-73039562D01*
X118700471Y-73018943D01*
X118710624Y-72999947D01*
X118724292Y-72983292D01*
X118740947Y-72969624D01*
X118759943Y-72959471D01*
X118780562Y-72953216D01*
X118808140Y-72950500D01*
X119316860Y-72950500D01*
X119344438Y-72953216D01*
G37*
G36*
X142570499Y-72449444D02*
G01*
X142607995Y-72460819D01*
X142642554Y-72479291D01*
X142672847Y-72504152D01*
X142697708Y-72534445D01*
X142716180Y-72569004D01*
X142727555Y-72606500D01*
X142732000Y-72651637D01*
X142732000Y-73390361D01*
X142727555Y-73435498D01*
X142716180Y-73472994D01*
X142697708Y-73507553D01*
X142672847Y-73537846D01*
X142642554Y-73562707D01*
X142607995Y-73581179D01*
X142570499Y-73592554D01*
X142525362Y-73596999D01*
X141886638Y-73596999D01*
X141841501Y-73592554D01*
X141804005Y-73581179D01*
X141769446Y-73562707D01*
X141739153Y-73537846D01*
X141714292Y-73507553D01*
X141695820Y-73472994D01*
X141684445Y-73435498D01*
X141680000Y-73390361D01*
X141680000Y-72651637D01*
X141684445Y-72606500D01*
X141695820Y-72569004D01*
X141714292Y-72534445D01*
X141739153Y-72504152D01*
X141769446Y-72479291D01*
X141804005Y-72460819D01*
X141841501Y-72449444D01*
X141886638Y-72444999D01*
X142525362Y-72444999D01*
X142570499Y-72449444D01*
G37*
G36*
X140234000Y-72764000D02*
G01*
X138132000Y-72764000D01*
X138132000Y-71762000D01*
X140234000Y-71762000D01*
X140234000Y-72764000D01*
G37*
G36*
X123234000Y-72764000D02*
G01*
X121132000Y-72764000D01*
X121132000Y-71762000D01*
X123234000Y-71762000D01*
X123234000Y-72764000D01*
G37*
G36*
X120614438Y-71983217D02*
G01*
X120635057Y-71989472D01*
X120654053Y-71999625D01*
X120670708Y-72013293D01*
X120684376Y-72029948D01*
X120694529Y-72048944D01*
X120700784Y-72069563D01*
X120703500Y-72097141D01*
X120703500Y-72555861D01*
X120700784Y-72583439D01*
X120694529Y-72604058D01*
X120684376Y-72623054D01*
X120670708Y-72639709D01*
X120654053Y-72653377D01*
X120635057Y-72663530D01*
X120614438Y-72669785D01*
X120586860Y-72672501D01*
X120078140Y-72672501D01*
X120050562Y-72669785D01*
X120029943Y-72663530D01*
X120010947Y-72653377D01*
X119994292Y-72639709D01*
X119980624Y-72623054D01*
X119970471Y-72604058D01*
X119964216Y-72583439D01*
X119961500Y-72555861D01*
X119961500Y-72097141D01*
X119964216Y-72069563D01*
X119970471Y-72048944D01*
X119980624Y-72029948D01*
X119994292Y-72013293D01*
X120010947Y-71999625D01*
X120029943Y-71989472D01*
X120050562Y-71983217D01*
X120078140Y-71980501D01*
X120586860Y-71980501D01*
X120614438Y-71983217D01*
G37*
G36*
X119344438Y-71983216D02*
G01*
X119365057Y-71989471D01*
X119384053Y-71999624D01*
X119400708Y-72013292D01*
X119414376Y-72029947D01*
X119424529Y-72048943D01*
X119430784Y-72069562D01*
X119433500Y-72097140D01*
X119433500Y-72555860D01*
X119430784Y-72583438D01*
X119424529Y-72604057D01*
X119414376Y-72623053D01*
X119400708Y-72639708D01*
X119384053Y-72653376D01*
X119365057Y-72663529D01*
X119344438Y-72669784D01*
X119316860Y-72672500D01*
X118808140Y-72672500D01*
X118780562Y-72669784D01*
X118759943Y-72663529D01*
X118740947Y-72653376D01*
X118724292Y-72639708D01*
X118710624Y-72623053D01*
X118700471Y-72604057D01*
X118694216Y-72583438D01*
X118691500Y-72555860D01*
X118691500Y-72097140D01*
X118694216Y-72069562D01*
X118700471Y-72048943D01*
X118710624Y-72029947D01*
X118724292Y-72013292D01*
X118740947Y-71999624D01*
X118759943Y-71989471D01*
X118780562Y-71983216D01*
X118808140Y-71980500D01*
X119316860Y-71980500D01*
X119344438Y-71983216D01*
G37*
G36*
X113434239Y-65711467D02*
G01*
X113748282Y-65773934D01*
X114339926Y-66019001D01*
X114872392Y-66374784D01*
X115325216Y-66827608D01*
X115680999Y-67360074D01*
X115926066Y-67951718D01*
X115926066Y-67951719D01*
X116051000Y-68579803D01*
X116051000Y-69220197D01*
X115988533Y-69534239D01*
X115926066Y-69848282D01*
X115680999Y-70439926D01*
X115407664Y-70849000D01*
X115363228Y-70915504D01*
X115325216Y-70972392D01*
X114872392Y-71425216D01*
X114339926Y-71780999D01*
X113748282Y-72026066D01*
X113440458Y-72087296D01*
X113120197Y-72151000D01*
X112479803Y-72151000D01*
X112159542Y-72087296D01*
X111851718Y-72026066D01*
X111260074Y-71780999D01*
X110727608Y-71425216D01*
X110274784Y-70972392D01*
X110236773Y-70915504D01*
X110192336Y-70849000D01*
X109919001Y-70439926D01*
X109673934Y-69848282D01*
X109611467Y-69534239D01*
X109549000Y-69220197D01*
X109549000Y-68579803D01*
X109673934Y-67951719D01*
X109673934Y-67951718D01*
X109919001Y-67360074D01*
X110274784Y-66827608D01*
X110727608Y-66374784D01*
X111260074Y-66019001D01*
X111851718Y-65773934D01*
X112165761Y-65711467D01*
X112479803Y-65649000D01*
X113120197Y-65649000D01*
X113434239Y-65711467D01*
G37*
G36*
X149137183Y-65458523D02*
G01*
X149451226Y-65520990D01*
X150042870Y-65766057D01*
X150332467Y-65959560D01*
X150575335Y-66121839D01*
X151028161Y-66574665D01*
X151076311Y-66646727D01*
X151383943Y-67107130D01*
X151629010Y-67698774D01*
X151629010Y-67698775D01*
X151753944Y-68326859D01*
X151753944Y-68967253D01*
X151724828Y-69113629D01*
X151629010Y-69595338D01*
X151383943Y-70186982D01*
X151028160Y-70719448D01*
X150575336Y-71172272D01*
X150042870Y-71528055D01*
X149451226Y-71773122D01*
X149137183Y-71835589D01*
X148823141Y-71898056D01*
X148182747Y-71898056D01*
X147868705Y-71835589D01*
X147554662Y-71773122D01*
X146963018Y-71528055D01*
X146430552Y-71172272D01*
X145977728Y-70719448D01*
X145621945Y-70186982D01*
X145376878Y-69595338D01*
X145281060Y-69113629D01*
X145251944Y-68967253D01*
X145251944Y-68326859D01*
X145376878Y-67698775D01*
X145376878Y-67698774D01*
X145621945Y-67107130D01*
X145929577Y-66646727D01*
X145977727Y-66574665D01*
X146430553Y-66121839D01*
X146673421Y-65959560D01*
X146963018Y-65766057D01*
X147554662Y-65520990D01*
X147868705Y-65458523D01*
X148182747Y-65396056D01*
X148823141Y-65396056D01*
X149137183Y-65458523D01*
G37*
M02*
