G04 #@! TF.GenerationSoftware,KiCad,Pcbnew,8.0.9-8.0.9-0~ubuntu24.04.1*
G04 #@! TF.CreationDate,2025-04-11T12:42:37+02:00*
G04 #@! TF.ProjectId,Sensor_Nodes,53656e73-6f72-45f4-9e6f-6465732e6b69,rev?*
G04 #@! TF.SameCoordinates,Original*
G04 #@! TF.FileFunction,Soldermask,Bot*
G04 #@! TF.FilePolarity,Negative*
%FSLAX46Y46*%
G04 Gerber Fmt 4.6, Leading zero omitted, Abs format (unit mm)*
G04 Created by KiCad (PCBNEW 8.0.9-8.0.9-0~ubuntu24.04.1) date 2025-04-11 12:42:37*
%MOMM*%
%LPD*%
G01*
G04 APERTURE LIST*
G04 Aperture macros list*
%AMRoundRect*
0 Rectangle with rounded corners*
0 $1 Rounding radius*
0 $2 $3 $4 $5 $6 $7 $8 $9 X,Y pos of 4 corners*
0 Add a 4 corners polygon primitive as box body*
4,1,4,$2,$3,$4,$5,$6,$7,$8,$9,$2,$3,0*
0 Add four circle primitives for the rounded corners*
1,1,$1+$1,$2,$3*
1,1,$1+$1,$4,$5*
1,1,$1+$1,$6,$7*
1,1,$1+$1,$8,$9*
0 Add four rect primitives between the rounded corners*
20,1,$1+$1,$2,$3,$4,$5,0*
20,1,$1+$1,$4,$5,$6,$7,0*
20,1,$1+$1,$6,$7,$8,$9,0*
20,1,$1+$1,$8,$9,$2,$3,0*%
G04 Aperture macros list end*
%ADD10C,1.400000*%
%ADD11C,0.900000*%
%ADD12C,5.100000*%
%ADD13C,2.474900*%
%ADD14C,1.090600*%
%ADD15C,0.500000*%
%ADD16RoundRect,0.057000X-0.893000X-0.893000X0.893000X-0.893000X0.893000X0.893000X-0.893000X0.893000X0*%
%ADD17C,0.750000*%
%ADD18O,2.200000X1.100000*%
%ADD19O,1.900000X1.100000*%
%ADD20RoundRect,0.050000X0.850000X0.850000X-0.850000X0.850000X-0.850000X-0.850000X0.850000X-0.850000X0*%
%ADD21O,1.800000X1.800000*%
G04 APERTURE END LIST*
D10*
X114120000Y-106731000D03*
X107185000Y-111971000D03*
D11*
X86115000Y-74376000D03*
X86664175Y-73050175D03*
X86664175Y-75701825D03*
X87990000Y-72501000D03*
D12*
X87990000Y-74376000D03*
D11*
X87990000Y-76251000D03*
X89315825Y-73050175D03*
X89315825Y-75701825D03*
X89865000Y-74376000D03*
D13*
X116875000Y-90141000D03*
D14*
X119415000Y-90141000D03*
D13*
X121955000Y-90141000D03*
X116875000Y-84426000D03*
X121955000Y-84426000D03*
D14*
X118400000Y-82521000D03*
X120430000Y-82521000D03*
D15*
X87320000Y-81308500D03*
D16*
X87620000Y-81308500D03*
D15*
X87920000Y-81308500D03*
D11*
X120509175Y-74386825D03*
X121058350Y-73061000D03*
X121058350Y-75712650D03*
X122384175Y-72511825D03*
D12*
X122384175Y-74386825D03*
D11*
X122384175Y-76261825D03*
X123710000Y-73061000D03*
X123710000Y-75712650D03*
X124259175Y-74386825D03*
X86129175Y-128756825D03*
X86678350Y-127431000D03*
X86678350Y-130082650D03*
X88004175Y-126881825D03*
D12*
X88004175Y-128756825D03*
D11*
X88004175Y-130631825D03*
X89330000Y-127431000D03*
X89330000Y-130082650D03*
X89879175Y-128756825D03*
D17*
X89960000Y-103581000D03*
X89960000Y-109361000D03*
D18*
X90480000Y-102151000D03*
D19*
X86280000Y-102151000D03*
D18*
X90480000Y-110791000D03*
D19*
X86280000Y-110791000D03*
D10*
X105430000Y-122211000D03*
D20*
X97340000Y-79071000D03*
D21*
X94800000Y-79071000D03*
X97340000Y-76531000D03*
X94800000Y-76531000D03*
X97340000Y-73991000D03*
X94800000Y-73991000D03*
D11*
X120500000Y-128751000D03*
X121049175Y-127425175D03*
X121049175Y-130076825D03*
X122375000Y-126876000D03*
D12*
X122375000Y-128751000D03*
D11*
X122375000Y-130626000D03*
X123700825Y-127425175D03*
X123700825Y-130076825D03*
X124250000Y-128751000D03*
M02*
