M48
; DRILL file {KiCad 7.0.6-7.0.6~ubuntu22.04.1} date So 06 Aug 2023 20:13:44
; FORMAT={-:-/ absolute / inch / decimal}
; #@! TF.CreationDate,2023-08-06T20:13:44+02:00
; #@! TF.GenerationSoftware,Kicad,Pcbnew,7.0.6-7.0.6~ubuntu22.04.1
; #@! TF.FileFunction,MixedPlating,1,4
FMAT,2
INCH
; #@! TA.AperFunction,Plated,PTH,ComponentDrill
T1C0.0079
; #@! TA.AperFunction,Plated,PTH,ViaDrill
T2C0.0098
; #@! TA.AperFunction,Plated,PTH,ViaDrill
T3C0.0118
; #@! TA.AperFunction,Plated,PTH,ViaDrill
T4C0.0157
; #@! TA.AperFunction,Plated,PTH,ComponentDrill
T5C0.0197
; #@! TA.AperFunction,Plated,PTH,ComponentDrill
T6C0.0236
; #@! TA.AperFunction,Plated,PTH,ComponentDrill
T7C0.0394
; #@! TA.AperFunction,Plated,PTH,ComponentDrill
T8C0.1260
; #@! TA.AperFunction,NonPlated,NPTH,ComponentDrill
T9C0.0256
%
G90
G05
T1
X3.6805Y-2.1392
X3.6805Y-2.1785
X3.6805Y-2.2179
X3.7199Y-2.1392
X3.7199Y-2.1785
X3.7199Y-2.2179
X3.7593Y-2.1392
X3.7593Y-2.1785
X3.7593Y-2.2179
T2
X4.0906Y-1.874
T3
X2.9557Y-1.5856
X3.0217Y-1.8219
X3.1791Y-1.8228
X3.2205Y-1.7844
X3.251Y-1.5876
X3.2795Y-2.1673
X3.2864Y-2.0758
X3.3839Y-2.1142
X3.4045Y-1.8248
X3.4665Y-2.2598
X3.4754Y-2.3199
X3.4951Y-2.1614
X3.5108Y-2.3199
X3.563Y-2.0827
X3.5738Y-2.2392
X3.5813Y-2.1608
X3.5866Y-2.2815
X3.6024Y-1.4921
X3.6102Y-1.9528
X3.6122Y-1.9193
X3.6516Y-1.9518
X3.6594Y-1.6703
X3.6614Y-1.7323
X3.6703Y-2.0472
X3.6722Y-2.5325
X3.6722Y-2.564
X3.6722Y-2.5955
X3.6722Y-2.627
X3.686Y-1.3484
X3.7008Y-2.311
X3.7037Y-2.5325
X3.7037Y-2.564
X3.7037Y-2.5955
X3.7037Y-2.627
X3.7293Y-1.9528
X3.7297Y-2.0463
X3.7303Y-2.3957
X3.7441Y-1.8484
X3.7699Y-1.9144
X3.7783Y-1.5295
X3.7894Y-2.314
X3.7923Y-1.6703
X3.7963Y-1.873
X3.7992Y-1.3504
X3.8061Y-1.6978
X3.8258Y-2.2756
X3.8323Y-1.5
X3.8415Y-2.0846
X3.8435Y-1.6998
X3.876Y-2.1398
X3.8917Y-1.4793
X3.9006Y-2.064
X3.9075Y-2.1329
X3.9311Y-1.7165
X3.9518Y-1.6053
X3.9646Y-1.7285
X3.9705Y-2.0955
X3.9715Y-1.4409
X3.9764Y-1.5787
X3.9882Y-1.9606
X3.998Y-1.6329
X3.998Y-1.6752
X4.002Y-1.9144
X4.002Y-2.2234
X4.0148Y-1.3986
X4.0197Y-1.7146
X4.0217Y-1.7431
X4.0374Y-1.8189
X4.0433Y-1.6339
X4.0433Y-1.6762
X4.0535Y-1.3319
X4.0541Y-1.3986
X4.061Y-1.7431
X4.0803Y-1.7263
X4.0866Y-2.0325
X4.0876Y-1.9823
X4.0886Y-1.4892
X4.0965Y-1.3524
X4.1004Y-1.6831
X4.1063Y-1.7165
X4.1083Y-2.0719
X4.1171Y-1.6565
X4.125Y-1.7589
X4.1299Y-1.8041
X4.1318Y-1.8868
X4.1978Y-1.8287
X4.2333Y-1.4606
X4.2343Y-1.5915
X4.2382Y-1.4075
X4.2667Y-1.5128
X4.2667Y-1.5531
X4.2687Y-1.6673
X4.2894Y-1.5906
X4.3976Y-2.0571
X4.4469Y-1.6683
X4.4498Y-1.5876
X4.5384Y-1.5591
T4
X3.4291Y-2.4144
X3.4803Y-2.503
X3.5817Y-2.4242
X3.9902Y-2.4567
T5
X2.9754Y-1.3986
X3.0031Y-1.3318
X3.0031Y-1.4654
X3.0699Y-1.3041
X3.0699Y-1.4931
X3.1367Y-1.3318
X3.1367Y-1.4654
X3.1644Y-1.3986
X3.2982Y-2.6969
X3.2989Y-2.4157
X3.3327Y-2.311
X3.6545Y-2.373
X4.0305Y-2.2805
X4.1418Y-2.6261
X4.1695Y-2.5593
X4.1695Y-2.6929
X4.2363Y-2.5316
X4.2363Y-2.7206
X4.3031Y-2.5593
X4.3031Y-2.6929
X4.3308Y-2.6261
X4.376Y-1.4026
X4.4037Y-1.3357
X4.4037Y-1.4694
X4.4705Y-1.3081
X4.4705Y-1.497
X4.5373Y-1.3357
X4.5373Y-1.4694
X4.565Y-1.4026
T7
X3.4843Y-1.4285
X3.4843Y-1.5285
X3.4843Y-1.6285
X3.4843Y-1.7285
X4.311Y-1.9205
X4.311Y-2.0205
X4.311Y-2.1205
X4.311Y-2.2205
X4.4528Y-1.7803
X4.4528Y-1.8803
X4.4528Y-1.9803
X4.4528Y-2.0803
X4.4528Y-2.1803
X4.4528Y-2.2803
X4.4528Y-2.3803
X4.4528Y-2.4803
X4.4528Y-2.5803
X4.4528Y-2.6803
T8
X3.0699Y-1.3986
X4.2363Y-2.6261
X4.4705Y-1.4026
T9
X3.1789Y-1.9955
X3.1789Y-2.223
T6
G00X3.0498Y-1.9392
M15
G01X3.0183Y-1.9392
M16
G05
G00X3.0498Y-2.2793
M15
G01X3.0183Y-2.2793
M16
G05
G00X3.2211Y-1.9392
M15
G01X3.1778Y-1.9392
M16
G05
G00X3.2211Y-2.2793
M15
G01X3.1778Y-2.2793
M16
G05
T0
M30
