G04 #@! TF.GenerationSoftware,KiCad,Pcbnew,7.0.6-7.0.6~ubuntu22.04.1*
G04 #@! TF.CreationDate,2023-08-08T18:58:17+02:00*
G04 #@! TF.ProjectId,Sensor_Nodes,53656e73-6f72-45f4-9e6f-6465732e6b69,rev?*
G04 #@! TF.SameCoordinates,Original*
G04 #@! TF.FileFunction,Copper,L3,Inr*
G04 #@! TF.FilePolarity,Positive*
%FSLAX46Y46*%
G04 Gerber Fmt 4.6, Leading zero omitted, Abs format (unit mm)*
G04 Created by KiCad (PCBNEW 7.0.6-7.0.6~ubuntu22.04.1) date 2023-08-08 18:58:17*
%MOMM*%
%LPD*%
G01*
G04 APERTURE LIST*
G04 #@! TA.AperFunction,ComponentPad*
%ADD10R,1.700000X1.700000*%
G04 #@! TD*
G04 #@! TA.AperFunction,ComponentPad*
%ADD11O,1.700000X1.700000*%
G04 #@! TD*
G04 #@! TA.AperFunction,ComponentPad*
%ADD12C,0.800000*%
G04 #@! TD*
G04 #@! TA.AperFunction,ComponentPad*
%ADD13C,6.400000*%
G04 #@! TD*
G04 #@! TA.AperFunction,ComponentPad*
%ADD14C,1.000000*%
G04 #@! TD*
G04 #@! TA.AperFunction,ComponentPad*
%ADD15C,0.500000*%
G04 #@! TD*
G04 #@! TA.AperFunction,ComponentPad*
%ADD16O,1.800000X1.000000*%
G04 #@! TD*
G04 #@! TA.AperFunction,ComponentPad*
%ADD17O,2.100000X1.000000*%
G04 #@! TD*
G04 #@! TA.AperFunction,ViaPad*
%ADD18C,0.500000*%
G04 #@! TD*
G04 #@! TA.AperFunction,ViaPad*
%ADD19C,0.800000*%
G04 #@! TD*
G04 APERTURE END LIST*
D10*
X109500000Y-48780000D03*
D11*
X109500000Y-51320000D03*
X109500000Y-53860000D03*
X109500000Y-56400000D03*
D12*
X105370000Y-66702944D03*
X106072944Y-65005888D03*
X106072944Y-68400000D03*
X107770000Y-64302944D03*
D13*
X107770000Y-66702944D03*
D12*
X107770000Y-69102944D03*
X109467056Y-65005888D03*
X109467056Y-68400000D03*
X110170000Y-66702944D03*
D10*
X113100000Y-45220000D03*
D11*
X113100000Y-47760000D03*
X113100000Y-50300000D03*
X113100000Y-52840000D03*
X113100000Y-55380000D03*
X113100000Y-57920000D03*
X113100000Y-60460000D03*
X113100000Y-63000000D03*
X113100000Y-65540000D03*
X113100000Y-68080000D03*
D12*
X75575000Y-35525000D03*
X76277944Y-33827944D03*
X76277944Y-37222056D03*
X77975000Y-33125000D03*
D13*
X77975000Y-35525000D03*
D12*
X77975000Y-37925000D03*
X79672056Y-33827944D03*
X79672056Y-37222056D03*
X80375000Y-35525000D03*
X111150000Y-35625000D03*
X111852944Y-33927944D03*
X111852944Y-37322056D03*
X113550000Y-33225000D03*
D13*
X113550000Y-35625000D03*
D12*
X113550000Y-38025000D03*
X115247056Y-33927944D03*
X115247056Y-37322056D03*
X115950000Y-35625000D03*
D14*
X101800000Y-58600000D03*
X89650000Y-69175000D03*
D15*
X93485000Y-54335000D03*
X93485000Y-55335000D03*
X93485000Y-56335000D03*
X94485000Y-54335000D03*
X94485000Y-55335000D03*
X94485000Y-56335000D03*
X95485000Y-54335000D03*
X95485000Y-55335000D03*
X95485000Y-56335000D03*
D14*
X92825000Y-60275000D03*
X85525000Y-59400000D03*
D16*
X77065000Y-57895000D03*
D17*
X81265000Y-57895000D03*
D16*
X77065000Y-49255000D03*
D17*
X81265000Y-49255000D03*
D10*
X88500000Y-43905000D03*
D11*
X88500000Y-41365000D03*
X88500000Y-38825000D03*
X88500000Y-36285000D03*
D14*
X84250000Y-57550000D03*
D18*
X95660000Y-60330000D03*
X94710000Y-60340000D03*
X98220000Y-53550000D03*
X87950000Y-55900000D03*
X101850000Y-54190000D03*
X108375000Y-39450000D03*
X112950000Y-42375000D03*
X101550000Y-41475000D03*
X94075000Y-64325000D03*
X102700000Y-41500000D03*
X91700000Y-49600000D03*
X107550000Y-40425000D03*
X106625000Y-46450000D03*
X102975000Y-35525000D03*
X94075000Y-65925000D03*
X113025000Y-40325000D03*
X100850000Y-53225000D03*
X93000000Y-44000000D03*
X76750000Y-46275000D03*
X96325000Y-42425000D03*
X108950000Y-40400000D03*
X82575000Y-40325000D03*
X104947500Y-47925000D03*
X96675000Y-43125000D03*
X95970000Y-38850000D03*
X88050000Y-57400000D03*
X93275000Y-65125000D03*
X102960000Y-33830000D03*
X107525000Y-37100000D03*
X93275000Y-65925000D03*
X94075000Y-65125000D03*
X100875000Y-36600000D03*
X101000000Y-40100000D03*
X115275000Y-39600000D03*
X93625000Y-34250000D03*
X75075000Y-40275000D03*
X93275000Y-64325000D03*
X92750000Y-49575000D03*
X85950000Y-53700000D03*
X100225000Y-64350000D03*
X94725000Y-49600000D03*
X104050000Y-34350000D03*
X107650000Y-35750000D03*
X101975000Y-35525000D03*
D19*
X87100000Y-61325000D03*
D18*
X108425000Y-42350000D03*
X108375000Y-38425000D03*
X94075000Y-66725000D03*
X101550000Y-42550000D03*
X81800000Y-45325000D03*
X93275000Y-66725000D03*
X102700000Y-42575000D03*
X104900000Y-45825000D03*
X94000000Y-58700000D03*
X94735000Y-51975000D03*
X102550000Y-46200000D03*
X92950000Y-42425000D03*
X97340000Y-38100000D03*
X99075000Y-52425000D03*
X97175000Y-57800000D03*
X103850000Y-37825000D03*
X97625000Y-43175000D03*
X96500000Y-34300000D03*
X91750000Y-48750000D03*
X91500000Y-37900000D03*
D19*
X90975000Y-61575000D03*
X88400000Y-63575000D03*
D18*
X91040873Y-54819564D03*
X96250000Y-58775000D03*
X98850000Y-37575000D03*
X100375000Y-40775000D03*
X83475000Y-52725000D03*
X90775000Y-56875000D03*
X83300000Y-55050000D03*
X91100000Y-57950000D03*
X88275000Y-58925000D03*
X91100000Y-52690000D03*
X89175000Y-58925000D03*
X104775000Y-44675000D03*
X104300000Y-43600000D03*
X97575000Y-52950000D03*
X104350000Y-52625000D03*
X86475000Y-46350000D03*
X103900000Y-47600000D03*
X93225000Y-52000000D03*
X80750000Y-46300000D03*
X100700500Y-43902988D03*
X96425000Y-47575000D03*
X103800000Y-51625000D03*
X102150000Y-44275000D03*
X102100000Y-43550000D03*
X101650000Y-48625000D03*
X103825000Y-50350000D03*
X103150000Y-44275000D03*
X103638800Y-43847300D03*
X101300000Y-49800000D03*
X104150000Y-42750000D03*
X111700000Y-52250000D03*
X104575000Y-42075000D03*
X99850000Y-43600000D03*
X95100000Y-46950000D03*
X95755000Y-48625000D03*
G04 #@! TA.AperFunction,Conductor*
G36*
X91943039Y-34769685D02*
G01*
X91988794Y-34822489D01*
X92000000Y-34874000D01*
X91999999Y-49101016D01*
X91980314Y-49168055D01*
X91927510Y-49213810D01*
X91858352Y-49223754D01*
X91834922Y-49216325D01*
X91834583Y-49217369D01*
X91825300Y-49214352D01*
X91700003Y-49194508D01*
X91699997Y-49194508D01*
X91574699Y-49214352D01*
X91574698Y-49214352D01*
X91510723Y-49246950D01*
X91461658Y-49271950D01*
X91461657Y-49271951D01*
X91461652Y-49271954D01*
X91371954Y-49361652D01*
X91371951Y-49361657D01*
X91314352Y-49474698D01*
X91314352Y-49474699D01*
X91294508Y-49599996D01*
X91294508Y-49600003D01*
X91314352Y-49725300D01*
X91314352Y-49725301D01*
X91314354Y-49725304D01*
X91371950Y-49838342D01*
X91371952Y-49838344D01*
X91371954Y-49838347D01*
X91461652Y-49928045D01*
X91461654Y-49928046D01*
X91461658Y-49928050D01*
X91574696Y-49985646D01*
X91574697Y-49985646D01*
X91574699Y-49985647D01*
X91699997Y-50005492D01*
X91700000Y-50005492D01*
X91700003Y-50005492D01*
X91825300Y-49985647D01*
X91825302Y-49985646D01*
X91825304Y-49985646D01*
X91825305Y-49985645D01*
X91834583Y-49982631D01*
X91835524Y-49985527D01*
X91888373Y-49975603D01*
X91953113Y-50001879D01*
X91993371Y-50058985D01*
X91999999Y-50098984D01*
X91999999Y-58999999D01*
X92000000Y-59000000D01*
X93682760Y-59000000D01*
X93749799Y-59019685D01*
X93755642Y-59023679D01*
X93761653Y-59028045D01*
X93761658Y-59028050D01*
X93874696Y-59085646D01*
X93874697Y-59085646D01*
X93874699Y-59085647D01*
X93999997Y-59105492D01*
X94000000Y-59105492D01*
X94000003Y-59105492D01*
X94125300Y-59085647D01*
X94125301Y-59085647D01*
X94125302Y-59085646D01*
X94125304Y-59085646D01*
X94238342Y-59028050D01*
X94238349Y-59028042D01*
X94244358Y-59023679D01*
X94310165Y-59000202D01*
X94317240Y-59000000D01*
X95857246Y-59000000D01*
X95924285Y-59019685D01*
X95944922Y-59036314D01*
X96011658Y-59103050D01*
X96124696Y-59160646D01*
X96124697Y-59160646D01*
X96124699Y-59160647D01*
X96249997Y-59180492D01*
X96250000Y-59180492D01*
X96250002Y-59180492D01*
X96356602Y-59163608D01*
X96425895Y-59172562D01*
X96479347Y-59217559D01*
X96499987Y-59284310D01*
X96500000Y-59286081D01*
X96500000Y-61876000D01*
X96480315Y-61943039D01*
X96427511Y-61988794D01*
X96376000Y-62000000D01*
X91580395Y-62000000D01*
X91513356Y-61980315D01*
X91467601Y-61927511D01*
X91457657Y-61858353D01*
X91465834Y-61828548D01*
X91479814Y-61794797D01*
X91511330Y-61718709D01*
X91530250Y-61575000D01*
X91511330Y-61431291D01*
X91474350Y-61342013D01*
X91455862Y-61297377D01*
X91455861Y-61297376D01*
X91455861Y-61297375D01*
X91367621Y-61182379D01*
X91308581Y-61137076D01*
X92316476Y-61137076D01*
X92440466Y-61203350D01*
X92628969Y-61260531D01*
X92628965Y-61260531D01*
X92825000Y-61279838D01*
X93021032Y-61260531D01*
X93209537Y-61203348D01*
X93333522Y-61137076D01*
X92825001Y-60628553D01*
X92825000Y-60628553D01*
X92316476Y-61137076D01*
X91308581Y-61137076D01*
X91252625Y-61094139D01*
X91252624Y-61094138D01*
X91252622Y-61094137D01*
X91118712Y-61038671D01*
X91118710Y-61038670D01*
X91118709Y-61038670D01*
X91046854Y-61029210D01*
X90975001Y-61019750D01*
X90974999Y-61019750D01*
X90831291Y-61038670D01*
X90831287Y-61038671D01*
X90697377Y-61094137D01*
X90582379Y-61182379D01*
X90494137Y-61297377D01*
X90438671Y-61431287D01*
X90438670Y-61431291D01*
X90419750Y-61574999D01*
X90419750Y-61575000D01*
X90438670Y-61718708D01*
X90438671Y-61718712D01*
X90484166Y-61828548D01*
X90491635Y-61898017D01*
X90460359Y-61960496D01*
X90400270Y-61996148D01*
X90369605Y-62000000D01*
X87489910Y-62000000D01*
X87422871Y-61980315D01*
X87377116Y-61927511D01*
X87367172Y-61858353D01*
X87396197Y-61794797D01*
X87414423Y-61777625D01*
X87426913Y-61768040D01*
X87492621Y-61717621D01*
X87580861Y-61602625D01*
X87636330Y-61468709D01*
X87655250Y-61325000D01*
X87636330Y-61181291D01*
X87580861Y-61047375D01*
X87492621Y-60932379D01*
X87377625Y-60844139D01*
X87347378Y-60831610D01*
X87326545Y-60822981D01*
X87272142Y-60779139D01*
X87250078Y-60712845D01*
X87250000Y-60708476D01*
X87250000Y-60274999D01*
X91820161Y-60274999D01*
X91839468Y-60471030D01*
X91896652Y-60659538D01*
X91962922Y-60783522D01*
X92471446Y-60275000D01*
X92570102Y-60275000D01*
X92589505Y-60372545D01*
X92644760Y-60455240D01*
X92727455Y-60510495D01*
X92800376Y-60525000D01*
X92849624Y-60525000D01*
X92922545Y-60510495D01*
X93005240Y-60455240D01*
X93060495Y-60372545D01*
X93079898Y-60275000D01*
X93178553Y-60275000D01*
X93687076Y-60783522D01*
X93753348Y-60659537D01*
X93810531Y-60471032D01*
X93824421Y-60330003D01*
X95254508Y-60330003D01*
X95274352Y-60455300D01*
X95274352Y-60455301D01*
X95274354Y-60455304D01*
X95331950Y-60568342D01*
X95331952Y-60568344D01*
X95331954Y-60568347D01*
X95421652Y-60658045D01*
X95421654Y-60658046D01*
X95421658Y-60658050D01*
X95534696Y-60715646D01*
X95534697Y-60715646D01*
X95534699Y-60715647D01*
X95659997Y-60735492D01*
X95660000Y-60735492D01*
X95660003Y-60735492D01*
X95785300Y-60715647D01*
X95785301Y-60715647D01*
X95785302Y-60715646D01*
X95785304Y-60715646D01*
X95898342Y-60658050D01*
X95988050Y-60568342D01*
X96045646Y-60455304D01*
X96045646Y-60455302D01*
X96045647Y-60455301D01*
X96045647Y-60455300D01*
X96065492Y-60330003D01*
X96065492Y-60329996D01*
X96045647Y-60204699D01*
X96045647Y-60204698D01*
X96031766Y-60177455D01*
X95988050Y-60091658D01*
X95988046Y-60091654D01*
X95988045Y-60091652D01*
X95898347Y-60001954D01*
X95898344Y-60001952D01*
X95898342Y-60001950D01*
X95785304Y-59944354D01*
X95785303Y-59944353D01*
X95785300Y-59944352D01*
X95660003Y-59924508D01*
X95659997Y-59924508D01*
X95534699Y-59944352D01*
X95534698Y-59944352D01*
X95459337Y-59982751D01*
X95421658Y-60001950D01*
X95421657Y-60001951D01*
X95421652Y-60001954D01*
X95331954Y-60091652D01*
X95331951Y-60091657D01*
X95331950Y-60091658D01*
X95312751Y-60129337D01*
X95274352Y-60204698D01*
X95274352Y-60204699D01*
X95254508Y-60329996D01*
X95254508Y-60330003D01*
X93824421Y-60330003D01*
X93829838Y-60274999D01*
X93810531Y-60078967D01*
X93753350Y-59890466D01*
X93687076Y-59766476D01*
X93178553Y-60275000D01*
X93079898Y-60275000D01*
X93060495Y-60177455D01*
X93005240Y-60094760D01*
X92922545Y-60039505D01*
X92849624Y-60025000D01*
X92800376Y-60025000D01*
X92727455Y-60039505D01*
X92644760Y-60094760D01*
X92589505Y-60177455D01*
X92570102Y-60275000D01*
X92471446Y-60275000D01*
X92471446Y-60274999D01*
X91962922Y-59766476D01*
X91896652Y-59890461D01*
X91839468Y-60078969D01*
X91820161Y-60274999D01*
X87250000Y-60274999D01*
X87250000Y-59412922D01*
X92316476Y-59412922D01*
X92825000Y-59921446D01*
X92825001Y-59921446D01*
X93333522Y-59412922D01*
X93333522Y-59412921D01*
X93209538Y-59346652D01*
X93021030Y-59289468D01*
X92825000Y-59270161D01*
X92628969Y-59289468D01*
X92440461Y-59346652D01*
X92316476Y-59412922D01*
X87250000Y-59412922D01*
X87250000Y-58925003D01*
X87869508Y-58925003D01*
X87889352Y-59050300D01*
X87889352Y-59050301D01*
X87907362Y-59085646D01*
X87946950Y-59163342D01*
X87946952Y-59163344D01*
X87946954Y-59163347D01*
X88036652Y-59253045D01*
X88036654Y-59253046D01*
X88036658Y-59253050D01*
X88149696Y-59310646D01*
X88149697Y-59310646D01*
X88149699Y-59310647D01*
X88274997Y-59330492D01*
X88275000Y-59330492D01*
X88275003Y-59330492D01*
X88400300Y-59310647D01*
X88400301Y-59310647D01*
X88400302Y-59310646D01*
X88400304Y-59310646D01*
X88513342Y-59253050D01*
X88603050Y-59163342D01*
X88614515Y-59140839D01*
X88662489Y-59090043D01*
X88730310Y-59073248D01*
X88796445Y-59095785D01*
X88835485Y-59140840D01*
X88846949Y-59163340D01*
X88846954Y-59163347D01*
X88936652Y-59253045D01*
X88936654Y-59253046D01*
X88936658Y-59253050D01*
X89049696Y-59310646D01*
X89049697Y-59310646D01*
X89049699Y-59310647D01*
X89174997Y-59330492D01*
X89175000Y-59330492D01*
X89175003Y-59330492D01*
X89300300Y-59310647D01*
X89300301Y-59310647D01*
X89300302Y-59310646D01*
X89300304Y-59310646D01*
X89413342Y-59253050D01*
X89503050Y-59163342D01*
X89560646Y-59050304D01*
X89560646Y-59050302D01*
X89560647Y-59050301D01*
X89560647Y-59050300D01*
X89580492Y-58925003D01*
X89580492Y-58924996D01*
X89560647Y-58799699D01*
X89560647Y-58799698D01*
X89548955Y-58776751D01*
X89503050Y-58686658D01*
X89503046Y-58686654D01*
X89503045Y-58686652D01*
X89413347Y-58596954D01*
X89413344Y-58596952D01*
X89413342Y-58596950D01*
X89300304Y-58539354D01*
X89300303Y-58539353D01*
X89300300Y-58539352D01*
X89175003Y-58519508D01*
X89174997Y-58519508D01*
X89049699Y-58539352D01*
X89049698Y-58539352D01*
X88980334Y-58574696D01*
X88936658Y-58596950D01*
X88936657Y-58596951D01*
X88936652Y-58596954D01*
X88846954Y-58686652D01*
X88846949Y-58686659D01*
X88835484Y-58709161D01*
X88787510Y-58759956D01*
X88719688Y-58776751D01*
X88653554Y-58754213D01*
X88614516Y-58709161D01*
X88609848Y-58700000D01*
X88603050Y-58686658D01*
X88603047Y-58686655D01*
X88603045Y-58686652D01*
X88513347Y-58596954D01*
X88513344Y-58596952D01*
X88513342Y-58596950D01*
X88400304Y-58539354D01*
X88400303Y-58539353D01*
X88400300Y-58539352D01*
X88275003Y-58519508D01*
X88274997Y-58519508D01*
X88149699Y-58539352D01*
X88149698Y-58539352D01*
X88080334Y-58574696D01*
X88036658Y-58596950D01*
X88036656Y-58596951D01*
X88036657Y-58596951D01*
X88036652Y-58596954D01*
X87946954Y-58686652D01*
X87946951Y-58686657D01*
X87946950Y-58686658D01*
X87940152Y-58700000D01*
X87889352Y-58799698D01*
X87889352Y-58799699D01*
X87869508Y-58924996D01*
X87869508Y-58925003D01*
X87250000Y-58925003D01*
X87250000Y-57950003D01*
X90694508Y-57950003D01*
X90714352Y-58075300D01*
X90714352Y-58075301D01*
X90714354Y-58075304D01*
X90771950Y-58188342D01*
X90771952Y-58188344D01*
X90771954Y-58188347D01*
X90861652Y-58278045D01*
X90861654Y-58278046D01*
X90861658Y-58278050D01*
X90974696Y-58335646D01*
X90974697Y-58335646D01*
X90974699Y-58335647D01*
X91099997Y-58355492D01*
X91100000Y-58355492D01*
X91100003Y-58355492D01*
X91225300Y-58335647D01*
X91225301Y-58335647D01*
X91225302Y-58335646D01*
X91225304Y-58335646D01*
X91338342Y-58278050D01*
X91428050Y-58188342D01*
X91485646Y-58075304D01*
X91485646Y-58075302D01*
X91485647Y-58075301D01*
X91485647Y-58075300D01*
X91505492Y-57950003D01*
X91505492Y-57949996D01*
X91485647Y-57824699D01*
X91485647Y-57824698D01*
X91475861Y-57805492D01*
X91428050Y-57711658D01*
X91428046Y-57711654D01*
X91428045Y-57711652D01*
X91338347Y-57621954D01*
X91338344Y-57621952D01*
X91338342Y-57621950D01*
X91225304Y-57564354D01*
X91225303Y-57564353D01*
X91225300Y-57564352D01*
X91100003Y-57544508D01*
X91099997Y-57544508D01*
X90974699Y-57564352D01*
X90974698Y-57564352D01*
X90899337Y-57602751D01*
X90861658Y-57621950D01*
X90861656Y-57621951D01*
X90861657Y-57621951D01*
X90861652Y-57621954D01*
X90771954Y-57711652D01*
X90771951Y-57711657D01*
X90771950Y-57711658D01*
X90763599Y-57728048D01*
X90714352Y-57824698D01*
X90714352Y-57824699D01*
X90694508Y-57949996D01*
X90694508Y-57950003D01*
X87250000Y-57950003D01*
X87250000Y-57400003D01*
X87644508Y-57400003D01*
X87664352Y-57525300D01*
X87664352Y-57525301D01*
X87664354Y-57525304D01*
X87721950Y-57638342D01*
X87721952Y-57638344D01*
X87721954Y-57638347D01*
X87811652Y-57728045D01*
X87811654Y-57728046D01*
X87811658Y-57728050D01*
X87924696Y-57785646D01*
X87924697Y-57785646D01*
X87924699Y-57785647D01*
X88049997Y-57805492D01*
X88050000Y-57805492D01*
X88050003Y-57805492D01*
X88175300Y-57785647D01*
X88175301Y-57785647D01*
X88175302Y-57785646D01*
X88175304Y-57785646D01*
X88288342Y-57728050D01*
X88378050Y-57638342D01*
X88435646Y-57525304D01*
X88435646Y-57525302D01*
X88435647Y-57525301D01*
X88435647Y-57525300D01*
X88455492Y-57400003D01*
X88455492Y-57399996D01*
X88435647Y-57274699D01*
X88435647Y-57274698D01*
X88435646Y-57274696D01*
X88378050Y-57161658D01*
X88378046Y-57161654D01*
X88378045Y-57161652D01*
X88288347Y-57071954D01*
X88288344Y-57071952D01*
X88288342Y-57071950D01*
X88175304Y-57014354D01*
X88175303Y-57014353D01*
X88175300Y-57014352D01*
X88050003Y-56994508D01*
X88049997Y-56994508D01*
X87924699Y-57014352D01*
X87924698Y-57014352D01*
X87849337Y-57052751D01*
X87811658Y-57071950D01*
X87811656Y-57071951D01*
X87811657Y-57071951D01*
X87811652Y-57071954D01*
X87721954Y-57161652D01*
X87721951Y-57161657D01*
X87664352Y-57274698D01*
X87664352Y-57274699D01*
X87644508Y-57399996D01*
X87644508Y-57400003D01*
X87250000Y-57400003D01*
X87250000Y-56875003D01*
X90369508Y-56875003D01*
X90389352Y-57000300D01*
X90389352Y-57000301D01*
X90389354Y-57000304D01*
X90446950Y-57113342D01*
X90446952Y-57113344D01*
X90446954Y-57113347D01*
X90536652Y-57203045D01*
X90536654Y-57203046D01*
X90536658Y-57203050D01*
X90649696Y-57260646D01*
X90649697Y-57260646D01*
X90649699Y-57260647D01*
X90774997Y-57280492D01*
X90775000Y-57280492D01*
X90775003Y-57280492D01*
X90900300Y-57260647D01*
X90900301Y-57260647D01*
X90900302Y-57260646D01*
X90900304Y-57260646D01*
X91013342Y-57203050D01*
X91103050Y-57113342D01*
X91160646Y-57000304D01*
X91160646Y-57000302D01*
X91160647Y-57000301D01*
X91160647Y-57000300D01*
X91180492Y-56875003D01*
X91180492Y-56874996D01*
X91160647Y-56749699D01*
X91160647Y-56749698D01*
X91145844Y-56720646D01*
X91103050Y-56636658D01*
X91103046Y-56636654D01*
X91103045Y-56636652D01*
X91013347Y-56546954D01*
X91013344Y-56546952D01*
X91013342Y-56546950D01*
X90900304Y-56489354D01*
X90900303Y-56489353D01*
X90900300Y-56489352D01*
X90775003Y-56469508D01*
X90774997Y-56469508D01*
X90649699Y-56489352D01*
X90649698Y-56489352D01*
X90574337Y-56527751D01*
X90536658Y-56546950D01*
X90536657Y-56546950D01*
X90536657Y-56546951D01*
X90536652Y-56546954D01*
X90446954Y-56636652D01*
X90446951Y-56636657D01*
X90389352Y-56749698D01*
X90389352Y-56749699D01*
X90369508Y-56874996D01*
X90369508Y-56875003D01*
X87250000Y-56875003D01*
X87250000Y-55900003D01*
X87544508Y-55900003D01*
X87564352Y-56025300D01*
X87564352Y-56025301D01*
X87564354Y-56025304D01*
X87621950Y-56138342D01*
X87621952Y-56138344D01*
X87621954Y-56138347D01*
X87711652Y-56228045D01*
X87711654Y-56228046D01*
X87711658Y-56228050D01*
X87824696Y-56285646D01*
X87824697Y-56285646D01*
X87824699Y-56285647D01*
X87949997Y-56305492D01*
X87950000Y-56305492D01*
X87950003Y-56305492D01*
X88075300Y-56285647D01*
X88075301Y-56285647D01*
X88075302Y-56285646D01*
X88075304Y-56285646D01*
X88188342Y-56228050D01*
X88278050Y-56138342D01*
X88335646Y-56025304D01*
X88335646Y-56025302D01*
X88335647Y-56025301D01*
X88335647Y-56025300D01*
X88355492Y-55900003D01*
X88355492Y-55899996D01*
X88335647Y-55774699D01*
X88335647Y-55774698D01*
X88318218Y-55740492D01*
X88278050Y-55661658D01*
X88278046Y-55661654D01*
X88278045Y-55661652D01*
X88188347Y-55571954D01*
X88188344Y-55571952D01*
X88188342Y-55571950D01*
X88075304Y-55514354D01*
X88075303Y-55514353D01*
X88075300Y-55514352D01*
X87950003Y-55494508D01*
X87949997Y-55494508D01*
X87824699Y-55514352D01*
X87824698Y-55514352D01*
X87749337Y-55552751D01*
X87711658Y-55571950D01*
X87711656Y-55571951D01*
X87711657Y-55571951D01*
X87711652Y-55571954D01*
X87621954Y-55661652D01*
X87621951Y-55661657D01*
X87564352Y-55774698D01*
X87564352Y-55774699D01*
X87544508Y-55899996D01*
X87544508Y-55900003D01*
X87250000Y-55900003D01*
X87250000Y-54819567D01*
X90635381Y-54819567D01*
X90655225Y-54944864D01*
X90655225Y-54944865D01*
X90673678Y-54981081D01*
X90712823Y-55057906D01*
X90712825Y-55057908D01*
X90712827Y-55057911D01*
X90802525Y-55147609D01*
X90802527Y-55147610D01*
X90802531Y-55147614D01*
X90915569Y-55205210D01*
X90915570Y-55205210D01*
X90915572Y-55205211D01*
X91040870Y-55225056D01*
X91040873Y-55225056D01*
X91040876Y-55225056D01*
X91166173Y-55205211D01*
X91166174Y-55205211D01*
X91166175Y-55205210D01*
X91166177Y-55205210D01*
X91279215Y-55147614D01*
X91368923Y-55057906D01*
X91426519Y-54944868D01*
X91426519Y-54944866D01*
X91426520Y-54944865D01*
X91426520Y-54944864D01*
X91446365Y-54819567D01*
X91446365Y-54819560D01*
X91426520Y-54694263D01*
X91426520Y-54694262D01*
X91426519Y-54694260D01*
X91368923Y-54581222D01*
X91368919Y-54581218D01*
X91368918Y-54581216D01*
X91279220Y-54491518D01*
X91279217Y-54491516D01*
X91279215Y-54491514D01*
X91166177Y-54433918D01*
X91166176Y-54433917D01*
X91166173Y-54433916D01*
X91040876Y-54414072D01*
X91040870Y-54414072D01*
X90915572Y-54433916D01*
X90915571Y-54433916D01*
X90840210Y-54472315D01*
X90802531Y-54491514D01*
X90802529Y-54491515D01*
X90802530Y-54491515D01*
X90802525Y-54491518D01*
X90712827Y-54581216D01*
X90712824Y-54581221D01*
X90655225Y-54694262D01*
X90655225Y-54694263D01*
X90635381Y-54819560D01*
X90635381Y-54819567D01*
X87250000Y-54819567D01*
X87250000Y-52690003D01*
X90694508Y-52690003D01*
X90714352Y-52815300D01*
X90714352Y-52815301D01*
X90714354Y-52815304D01*
X90771950Y-52928342D01*
X90771952Y-52928344D01*
X90771954Y-52928347D01*
X90861652Y-53018045D01*
X90861654Y-53018046D01*
X90861658Y-53018050D01*
X90974696Y-53075646D01*
X90974697Y-53075646D01*
X90974699Y-53075647D01*
X91099997Y-53095492D01*
X91100000Y-53095492D01*
X91100003Y-53095492D01*
X91225300Y-53075647D01*
X91225301Y-53075647D01*
X91225302Y-53075646D01*
X91225304Y-53075646D01*
X91338342Y-53018050D01*
X91428050Y-52928342D01*
X91485646Y-52815304D01*
X91485646Y-52815302D01*
X91485647Y-52815301D01*
X91485647Y-52815300D01*
X91505492Y-52690003D01*
X91505492Y-52689996D01*
X91485647Y-52564699D01*
X91485647Y-52564698D01*
X91485646Y-52564696D01*
X91428050Y-52451658D01*
X91428046Y-52451654D01*
X91428045Y-52451652D01*
X91338347Y-52361954D01*
X91338344Y-52361952D01*
X91338342Y-52361950D01*
X91225304Y-52304354D01*
X91225303Y-52304353D01*
X91225300Y-52304352D01*
X91100003Y-52284508D01*
X91099997Y-52284508D01*
X90974699Y-52304352D01*
X90974698Y-52304352D01*
X90899337Y-52342751D01*
X90861658Y-52361950D01*
X90861657Y-52361951D01*
X90861652Y-52361954D01*
X90771954Y-52451652D01*
X90771951Y-52451657D01*
X90714352Y-52564698D01*
X90714352Y-52564699D01*
X90694508Y-52689996D01*
X90694508Y-52690003D01*
X87250000Y-52690003D01*
X87250000Y-44769822D01*
X87499499Y-44769822D01*
X87508231Y-44813717D01*
X87508232Y-44813721D01*
X87508233Y-44813722D01*
X87541496Y-44863504D01*
X87591278Y-44896767D01*
X87591281Y-44896767D01*
X87591282Y-44896768D01*
X87635177Y-44905500D01*
X87635180Y-44905500D01*
X89364822Y-44905500D01*
X89408717Y-44896768D01*
X89408717Y-44896767D01*
X89408722Y-44896767D01*
X89458504Y-44863504D01*
X89491767Y-44813722D01*
X89500500Y-44769820D01*
X89500500Y-43040180D01*
X89500500Y-43040177D01*
X89491768Y-42996282D01*
X89491767Y-42996281D01*
X89491767Y-42996278D01*
X89458504Y-42946496D01*
X89458503Y-42946495D01*
X89408724Y-42913234D01*
X89408717Y-42913231D01*
X89364822Y-42904500D01*
X89364820Y-42904500D01*
X87635180Y-42904500D01*
X87635178Y-42904500D01*
X87591282Y-42913231D01*
X87591275Y-42913234D01*
X87541496Y-42946495D01*
X87541495Y-42946496D01*
X87508234Y-42996275D01*
X87508231Y-42996282D01*
X87499500Y-43040177D01*
X87499500Y-43040180D01*
X87499500Y-44769820D01*
X87499500Y-44769822D01*
X87499499Y-44769822D01*
X87250000Y-44769822D01*
X87250000Y-41405007D01*
X87261410Y-41366147D01*
X87259082Y-41361597D01*
X87487527Y-41361597D01*
X87492976Y-41370076D01*
X87497402Y-41392857D01*
X87513975Y-41561129D01*
X87571188Y-41749733D01*
X87664086Y-41923532D01*
X87664090Y-41923539D01*
X87789116Y-42075883D01*
X87941460Y-42200909D01*
X87941467Y-42200913D01*
X88115266Y-42293811D01*
X88115269Y-42293811D01*
X88115273Y-42293814D01*
X88303868Y-42351024D01*
X88500000Y-42370341D01*
X88696132Y-42351024D01*
X88884727Y-42293814D01*
X89058538Y-42200910D01*
X89210883Y-42075883D01*
X89335910Y-41923538D01*
X89428814Y-41749727D01*
X89486024Y-41561132D01*
X89505341Y-41365000D01*
X89486024Y-41168868D01*
X89428814Y-40980273D01*
X89428811Y-40980269D01*
X89428811Y-40980266D01*
X89335913Y-40806467D01*
X89335909Y-40806460D01*
X89210883Y-40654116D01*
X89058539Y-40529090D01*
X89058532Y-40529086D01*
X88884733Y-40436188D01*
X88884727Y-40436186D01*
X88696132Y-40378976D01*
X88696129Y-40378975D01*
X88500000Y-40359659D01*
X88303870Y-40378975D01*
X88115266Y-40436188D01*
X87941467Y-40529086D01*
X87941460Y-40529090D01*
X87789116Y-40654116D01*
X87664090Y-40806460D01*
X87664086Y-40806467D01*
X87571188Y-40980266D01*
X87513975Y-41168870D01*
X87497402Y-41337142D01*
X87487527Y-41361597D01*
X87259082Y-41361597D01*
X87252171Y-41348093D01*
X87250000Y-41324998D01*
X87250000Y-38865008D01*
X87261411Y-38826146D01*
X87259083Y-38821597D01*
X87487526Y-38821597D01*
X87492976Y-38830077D01*
X87497402Y-38852858D01*
X87513975Y-39021129D01*
X87571188Y-39209733D01*
X87664086Y-39383532D01*
X87664090Y-39383539D01*
X87789116Y-39535883D01*
X87941460Y-39660909D01*
X87941467Y-39660913D01*
X88115266Y-39753811D01*
X88115269Y-39753811D01*
X88115273Y-39753814D01*
X88303868Y-39811024D01*
X88500000Y-39830341D01*
X88696132Y-39811024D01*
X88884727Y-39753814D01*
X89058538Y-39660910D01*
X89210883Y-39535883D01*
X89335910Y-39383538D01*
X89428814Y-39209727D01*
X89486024Y-39021132D01*
X89505341Y-38825000D01*
X89486024Y-38628868D01*
X89428814Y-38440273D01*
X89428811Y-38440269D01*
X89428811Y-38440266D01*
X89335913Y-38266467D01*
X89335909Y-38266460D01*
X89210883Y-38114116D01*
X89058539Y-37989090D01*
X89058532Y-37989086D01*
X88884733Y-37896188D01*
X88884727Y-37896186D01*
X88696132Y-37838976D01*
X88696129Y-37838975D01*
X88500000Y-37819659D01*
X88303870Y-37838975D01*
X88115266Y-37896188D01*
X87941467Y-37989086D01*
X87941460Y-37989090D01*
X87789116Y-38114116D01*
X87664090Y-38266460D01*
X87664086Y-38266467D01*
X87571188Y-38440266D01*
X87513975Y-38628870D01*
X87497402Y-38797141D01*
X87487526Y-38821597D01*
X87259083Y-38821597D01*
X87252171Y-38808091D01*
X87250000Y-38784997D01*
X87250000Y-36325009D01*
X87261411Y-36286147D01*
X87259082Y-36281597D01*
X87487526Y-36281597D01*
X87492976Y-36290078D01*
X87497402Y-36312859D01*
X87513975Y-36481129D01*
X87571188Y-36669733D01*
X87664086Y-36843532D01*
X87664090Y-36843539D01*
X87789116Y-36995883D01*
X87941460Y-37120909D01*
X87941467Y-37120913D01*
X88115266Y-37213811D01*
X88115269Y-37213811D01*
X88115273Y-37213814D01*
X88303868Y-37271024D01*
X88500000Y-37290341D01*
X88696132Y-37271024D01*
X88884727Y-37213814D01*
X89058538Y-37120910D01*
X89210883Y-36995883D01*
X89335910Y-36843538D01*
X89428814Y-36669727D01*
X89486024Y-36481132D01*
X89505341Y-36285000D01*
X89486024Y-36088868D01*
X89428814Y-35900273D01*
X89428811Y-35900269D01*
X89428811Y-35900266D01*
X89335913Y-35726467D01*
X89335909Y-35726460D01*
X89210883Y-35574116D01*
X89058539Y-35449090D01*
X89058532Y-35449086D01*
X88884733Y-35356188D01*
X88884727Y-35356186D01*
X88696132Y-35298976D01*
X88696129Y-35298975D01*
X88500000Y-35279659D01*
X88303870Y-35298975D01*
X88115266Y-35356188D01*
X87941467Y-35449086D01*
X87941460Y-35449090D01*
X87789116Y-35574116D01*
X87664090Y-35726460D01*
X87664086Y-35726467D01*
X87571188Y-35900266D01*
X87513975Y-36088870D01*
X87497402Y-36257141D01*
X87487526Y-36281597D01*
X87259082Y-36281597D01*
X87252170Y-36268090D01*
X87250000Y-36244996D01*
X87250000Y-34874000D01*
X87269685Y-34806960D01*
X87322489Y-34761206D01*
X87374000Y-34750000D01*
X91876000Y-34750000D01*
X91943039Y-34769685D01*
G37*
G04 #@! TD.AperFunction*
G04 #@! TA.AperFunction,Conductor*
G36*
X116173376Y-31725486D02*
G01*
X116173462Y-31725500D01*
X116191715Y-31725500D01*
X116197792Y-31725500D01*
X116202214Y-31725657D01*
X116401001Y-31739875D01*
X116418506Y-31742392D01*
X116606753Y-31783343D01*
X116623712Y-31788322D01*
X116755234Y-31837378D01*
X116804223Y-31855650D01*
X116820316Y-31863000D01*
X116989392Y-31955322D01*
X117004275Y-31964887D01*
X117158492Y-32080332D01*
X117171863Y-32091918D01*
X117308081Y-32228136D01*
X117319667Y-32241507D01*
X117435112Y-32395724D01*
X117444677Y-32410607D01*
X117536999Y-32579683D01*
X117544349Y-32595776D01*
X117611674Y-32776279D01*
X117616658Y-32793255D01*
X117657606Y-32981490D01*
X117660124Y-32999002D01*
X117674342Y-33197789D01*
X117674500Y-33202213D01*
X117674500Y-58876000D01*
X117654815Y-58943039D01*
X117602011Y-58988794D01*
X117550500Y-59000000D01*
X113696915Y-59000000D01*
X113629876Y-58980315D01*
X113584121Y-58927511D01*
X113574177Y-58858353D01*
X113603202Y-58794797D01*
X113638461Y-58766642D01*
X113648552Y-58761247D01*
X113658538Y-58755910D01*
X113810883Y-58630883D01*
X113935910Y-58478538D01*
X114028814Y-58304727D01*
X114086024Y-58116132D01*
X114105341Y-57920000D01*
X114086024Y-57723868D01*
X114028814Y-57535273D01*
X114028811Y-57535269D01*
X114028811Y-57535266D01*
X113935913Y-57361467D01*
X113935909Y-57361460D01*
X113810883Y-57209116D01*
X113658539Y-57084090D01*
X113658532Y-57084086D01*
X113484733Y-56991188D01*
X113484727Y-56991186D01*
X113296132Y-56933976D01*
X113296129Y-56933975D01*
X113100000Y-56914659D01*
X112903870Y-56933975D01*
X112715266Y-56991188D01*
X112541467Y-57084086D01*
X112541460Y-57084090D01*
X112389116Y-57209116D01*
X112264090Y-57361460D01*
X112264086Y-57361467D01*
X112171188Y-57535266D01*
X112113975Y-57723870D01*
X112094659Y-57920000D01*
X112113975Y-58116129D01*
X112171188Y-58304733D01*
X112264086Y-58478532D01*
X112264090Y-58478539D01*
X112389116Y-58630883D01*
X112541460Y-58755909D01*
X112541464Y-58755911D01*
X112561539Y-58766642D01*
X112611383Y-58815605D01*
X112626843Y-58883743D01*
X112603011Y-58949422D01*
X112547453Y-58991791D01*
X112503085Y-59000000D01*
X102890853Y-59000000D01*
X102823814Y-58980315D01*
X102778059Y-58927511D01*
X102768115Y-58858353D01*
X102772193Y-58840004D01*
X102785530Y-58796036D01*
X102785531Y-58796034D01*
X102804838Y-58599999D01*
X102785531Y-58403967D01*
X102728350Y-58215466D01*
X102662076Y-58091476D01*
X101994190Y-58759361D01*
X102035495Y-58697545D01*
X102054898Y-58600000D01*
X102035495Y-58502455D01*
X101980240Y-58419760D01*
X101897545Y-58364505D01*
X101824624Y-58350000D01*
X101775376Y-58350000D01*
X101702455Y-58364505D01*
X101619760Y-58419760D01*
X101564505Y-58502455D01*
X101545102Y-58600000D01*
X101564505Y-58697545D01*
X101605813Y-58759367D01*
X100937922Y-58091476D01*
X100871652Y-58215461D01*
X100814468Y-58403969D01*
X100795161Y-58600000D01*
X100814468Y-58796034D01*
X100814469Y-58796036D01*
X100827807Y-58840004D01*
X100828431Y-58909871D01*
X100791183Y-58968984D01*
X100727890Y-58998575D01*
X100709147Y-59000000D01*
X96765041Y-59000000D01*
X96698002Y-58980315D01*
X96652247Y-58927511D01*
X96642303Y-58858353D01*
X96642568Y-58856602D01*
X96655492Y-58775002D01*
X96655492Y-58774996D01*
X96635647Y-58649699D01*
X96635647Y-58649698D01*
X96626060Y-58630883D01*
X96578050Y-58536658D01*
X96578046Y-58536654D01*
X96578045Y-58536652D01*
X96488347Y-58446954D01*
X96488344Y-58446952D01*
X96488342Y-58446950D01*
X96375304Y-58389354D01*
X96375303Y-58389353D01*
X96375300Y-58389352D01*
X96250003Y-58369508D01*
X96249997Y-58369508D01*
X96124699Y-58389352D01*
X96124698Y-58389352D01*
X96065021Y-58419760D01*
X96011658Y-58446950D01*
X96011656Y-58446950D01*
X96011657Y-58446951D01*
X96011652Y-58446954D01*
X95921954Y-58536652D01*
X95921951Y-58536657D01*
X95864352Y-58649698D01*
X95850067Y-58739898D01*
X95820138Y-58803032D01*
X95760827Y-58839964D01*
X95727594Y-58844500D01*
X94315020Y-58844500D01*
X94305728Y-58844764D01*
X94257915Y-58853742D01*
X94202262Y-58873596D01*
X94198540Y-58873808D01*
X94094150Y-58926997D01*
X94057254Y-58938985D01*
X94019403Y-58944980D01*
X93980609Y-58944981D01*
X93942747Y-58938985D01*
X93905847Y-58926995D01*
X93846200Y-58896603D01*
X93839364Y-58892549D01*
X93837552Y-58891311D01*
X93793608Y-58870483D01*
X93726572Y-58850799D01*
X93726562Y-58850797D01*
X93682763Y-58844500D01*
X93682760Y-58844500D01*
X92279500Y-58844500D01*
X92212461Y-58824815D01*
X92166706Y-58772011D01*
X92155500Y-58720500D01*
X92155500Y-57737922D01*
X101291476Y-57737922D01*
X101800000Y-58246446D01*
X101800001Y-58246446D01*
X102308522Y-57737922D01*
X102308522Y-57737921D01*
X102184538Y-57671652D01*
X101996030Y-57614468D01*
X101800000Y-57595161D01*
X101603969Y-57614468D01*
X101415461Y-57671652D01*
X101291476Y-57737922D01*
X92155500Y-57737922D01*
X92155500Y-56335003D01*
X93079508Y-56335003D01*
X93099352Y-56460300D01*
X93099352Y-56460301D01*
X93099354Y-56460304D01*
X93156950Y-56573342D01*
X93156952Y-56573344D01*
X93156954Y-56573347D01*
X93246652Y-56663045D01*
X93246654Y-56663046D01*
X93246658Y-56663050D01*
X93359696Y-56720646D01*
X93359697Y-56720646D01*
X93359699Y-56720647D01*
X93484997Y-56740492D01*
X93485000Y-56740492D01*
X93485003Y-56740492D01*
X93610300Y-56720647D01*
X93610301Y-56720647D01*
X93610302Y-56720646D01*
X93610304Y-56720646D01*
X93723342Y-56663050D01*
X93813050Y-56573342D01*
X93870646Y-56460304D01*
X93870646Y-56460300D01*
X93874514Y-56452710D01*
X93922488Y-56401914D01*
X93990309Y-56385119D01*
X94056444Y-56407656D01*
X94095483Y-56452709D01*
X94156949Y-56573340D01*
X94156954Y-56573347D01*
X94246652Y-56663045D01*
X94246654Y-56663046D01*
X94246658Y-56663050D01*
X94359696Y-56720646D01*
X94359697Y-56720646D01*
X94359699Y-56720647D01*
X94484997Y-56740492D01*
X94485000Y-56740492D01*
X94485003Y-56740492D01*
X94610300Y-56720647D01*
X94610301Y-56720647D01*
X94610302Y-56720646D01*
X94610304Y-56720646D01*
X94723342Y-56663050D01*
X94813050Y-56573342D01*
X94870646Y-56460304D01*
X94870646Y-56460300D01*
X94874514Y-56452710D01*
X94922488Y-56401914D01*
X94990309Y-56385119D01*
X95056444Y-56407656D01*
X95095483Y-56452709D01*
X95156949Y-56573340D01*
X95156954Y-56573347D01*
X95246652Y-56663045D01*
X95246654Y-56663046D01*
X95246658Y-56663050D01*
X95359696Y-56720646D01*
X95359697Y-56720646D01*
X95359699Y-56720647D01*
X95484997Y-56740492D01*
X95485000Y-56740492D01*
X95485003Y-56740492D01*
X95610300Y-56720647D01*
X95610301Y-56720647D01*
X95610302Y-56720646D01*
X95610304Y-56720646D01*
X95723342Y-56663050D01*
X95813050Y-56573342D01*
X95870646Y-56460304D01*
X95870646Y-56460302D01*
X95870647Y-56460301D01*
X95870647Y-56460300D01*
X95880198Y-56400000D01*
X108494659Y-56400000D01*
X108513975Y-56596129D01*
X108513976Y-56596132D01*
X108554340Y-56729195D01*
X108571188Y-56784733D01*
X108664086Y-56958532D01*
X108664090Y-56958539D01*
X108789116Y-57110883D01*
X108941460Y-57235909D01*
X108941467Y-57235913D01*
X109115266Y-57328811D01*
X109115269Y-57328811D01*
X109115273Y-57328814D01*
X109303868Y-57386024D01*
X109500000Y-57405341D01*
X109696132Y-57386024D01*
X109884727Y-57328814D01*
X109894950Y-57323350D01*
X110058532Y-57235913D01*
X110058538Y-57235910D01*
X110210883Y-57110883D01*
X110335910Y-56958538D01*
X110382362Y-56871632D01*
X110428811Y-56784733D01*
X110428811Y-56784732D01*
X110428814Y-56784727D01*
X110486024Y-56596132D01*
X110505341Y-56400000D01*
X110486024Y-56203868D01*
X110428814Y-56015273D01*
X110428811Y-56015269D01*
X110428811Y-56015266D01*
X110335913Y-55841467D01*
X110335909Y-55841460D01*
X110210883Y-55689116D01*
X110058539Y-55564090D01*
X110058532Y-55564086D01*
X109884733Y-55471188D01*
X109884727Y-55471186D01*
X109696132Y-55413976D01*
X109696129Y-55413975D01*
X109500000Y-55394659D01*
X109303870Y-55413975D01*
X109115266Y-55471188D01*
X108941467Y-55564086D01*
X108941460Y-55564090D01*
X108789116Y-55689116D01*
X108664090Y-55841460D01*
X108664086Y-55841467D01*
X108571188Y-56015266D01*
X108513975Y-56203870D01*
X108494659Y-56400000D01*
X95880198Y-56400000D01*
X95890492Y-56335003D01*
X95890492Y-56334996D01*
X95870647Y-56209698D01*
X95867676Y-56203868D01*
X95813050Y-56096658D01*
X95813046Y-56096654D01*
X95813045Y-56096652D01*
X95723347Y-56006954D01*
X95723344Y-56006952D01*
X95723342Y-56006950D01*
X95610304Y-55949354D01*
X95610302Y-55949353D01*
X95602710Y-55945485D01*
X95551914Y-55897510D01*
X95535119Y-55829689D01*
X95557657Y-55763554D01*
X95602710Y-55724515D01*
X95610302Y-55720646D01*
X95610304Y-55720646D01*
X95723342Y-55663050D01*
X95813050Y-55573342D01*
X95870646Y-55460304D01*
X95870646Y-55460302D01*
X95870647Y-55460301D01*
X95870647Y-55460300D01*
X95883365Y-55380000D01*
X112094659Y-55380000D01*
X112113975Y-55576129D01*
X112113976Y-55576132D01*
X112151345Y-55699322D01*
X112171188Y-55764733D01*
X112264086Y-55938532D01*
X112264090Y-55938539D01*
X112389116Y-56090883D01*
X112541460Y-56215909D01*
X112541467Y-56215913D01*
X112715266Y-56308811D01*
X112715269Y-56308811D01*
X112715273Y-56308814D01*
X112903868Y-56366024D01*
X113100000Y-56385341D01*
X113296132Y-56366024D01*
X113484727Y-56308814D01*
X113529505Y-56284880D01*
X113658532Y-56215913D01*
X113658538Y-56215910D01*
X113810883Y-56090883D01*
X113935910Y-55938538D01*
X113987799Y-55841460D01*
X114028811Y-55764733D01*
X114028811Y-55764732D01*
X114028814Y-55764727D01*
X114086024Y-55576132D01*
X114105341Y-55380000D01*
X114086024Y-55183868D01*
X114028814Y-54995273D01*
X114028811Y-54995269D01*
X114028811Y-54995266D01*
X113935913Y-54821467D01*
X113935909Y-54821460D01*
X113810883Y-54669116D01*
X113658539Y-54544090D01*
X113658532Y-54544086D01*
X113484733Y-54451188D01*
X113484727Y-54451186D01*
X113296132Y-54393976D01*
X113296129Y-54393975D01*
X113100000Y-54374659D01*
X112903870Y-54393975D01*
X112715266Y-54451188D01*
X112541467Y-54544086D01*
X112541460Y-54544090D01*
X112389116Y-54669116D01*
X112264090Y-54821460D01*
X112264086Y-54821467D01*
X112171188Y-54995266D01*
X112113975Y-55183870D01*
X112094659Y-55380000D01*
X95883365Y-55380000D01*
X95890492Y-55335003D01*
X95890492Y-55334996D01*
X95870647Y-55209699D01*
X95870647Y-55209698D01*
X95857486Y-55183868D01*
X95813050Y-55096658D01*
X95813046Y-55096654D01*
X95813045Y-55096652D01*
X95723347Y-55006954D01*
X95723344Y-55006952D01*
X95723342Y-55006950D01*
X95610304Y-54949354D01*
X95610302Y-54949353D01*
X95602710Y-54945485D01*
X95551914Y-54897510D01*
X95535119Y-54829689D01*
X95557657Y-54763554D01*
X95602710Y-54724515D01*
X95610302Y-54720646D01*
X95610304Y-54720646D01*
X95723342Y-54663050D01*
X95813050Y-54573342D01*
X95870646Y-54460304D01*
X95870646Y-54460302D01*
X95870647Y-54460301D01*
X95870647Y-54460300D01*
X95890492Y-54335003D01*
X95890492Y-54334996D01*
X95870647Y-54209699D01*
X95870647Y-54209698D01*
X95860612Y-54190003D01*
X101444508Y-54190003D01*
X101464352Y-54315300D01*
X101464352Y-54315301D01*
X101474391Y-54335003D01*
X101521950Y-54428342D01*
X101521952Y-54428344D01*
X101521954Y-54428347D01*
X101611652Y-54518045D01*
X101611654Y-54518046D01*
X101611658Y-54518050D01*
X101724696Y-54575646D01*
X101724697Y-54575646D01*
X101724699Y-54575647D01*
X101849997Y-54595492D01*
X101850000Y-54595492D01*
X101850003Y-54595492D01*
X101975300Y-54575647D01*
X101975301Y-54575647D01*
X101975302Y-54575646D01*
X101975304Y-54575646D01*
X102088342Y-54518050D01*
X102178050Y-54428342D01*
X102235646Y-54315304D01*
X102235646Y-54315302D01*
X102235647Y-54315301D01*
X102235647Y-54315300D01*
X102255492Y-54190003D01*
X102255492Y-54189996D01*
X102235647Y-54064699D01*
X102235647Y-54064698D01*
X102231281Y-54056129D01*
X102178050Y-53951658D01*
X102178046Y-53951654D01*
X102178045Y-53951652D01*
X102088347Y-53861954D01*
X102088344Y-53861952D01*
X102088342Y-53861950D01*
X102084515Y-53860000D01*
X108494659Y-53860000D01*
X108513975Y-54056129D01*
X108513976Y-54056132D01*
X108560559Y-54209696D01*
X108571188Y-54244733D01*
X108664086Y-54418532D01*
X108664090Y-54418539D01*
X108789116Y-54570883D01*
X108941460Y-54695909D01*
X108941467Y-54695913D01*
X109115266Y-54788811D01*
X109115269Y-54788811D01*
X109115273Y-54788814D01*
X109303868Y-54846024D01*
X109500000Y-54865341D01*
X109696132Y-54846024D01*
X109884727Y-54788814D01*
X110058538Y-54695910D01*
X110210883Y-54570883D01*
X110335910Y-54418538D01*
X110428814Y-54244727D01*
X110486024Y-54056132D01*
X110505341Y-53860000D01*
X110486024Y-53663868D01*
X110428814Y-53475273D01*
X110428811Y-53475269D01*
X110428811Y-53475266D01*
X110335913Y-53301467D01*
X110335909Y-53301460D01*
X110210883Y-53149116D01*
X110058539Y-53024090D01*
X110058532Y-53024086D01*
X109884733Y-52931188D01*
X109884727Y-52931186D01*
X109696132Y-52873976D01*
X109696129Y-52873975D01*
X109500000Y-52854659D01*
X109303870Y-52873975D01*
X109115266Y-52931188D01*
X108941467Y-53024086D01*
X108941460Y-53024090D01*
X108789116Y-53149116D01*
X108664090Y-53301460D01*
X108664086Y-53301467D01*
X108571188Y-53475266D01*
X108513975Y-53663870D01*
X108494659Y-53860000D01*
X102084515Y-53860000D01*
X101975304Y-53804354D01*
X101975303Y-53804353D01*
X101975300Y-53804352D01*
X101850003Y-53784508D01*
X101849997Y-53784508D01*
X101724699Y-53804352D01*
X101724698Y-53804352D01*
X101682166Y-53826024D01*
X101611658Y-53861950D01*
X101611656Y-53861951D01*
X101611657Y-53861951D01*
X101611652Y-53861954D01*
X101521954Y-53951652D01*
X101521951Y-53951657D01*
X101521950Y-53951658D01*
X101502751Y-53989337D01*
X101464352Y-54064698D01*
X101464352Y-54064699D01*
X101444508Y-54189996D01*
X101444508Y-54190003D01*
X95860612Y-54190003D01*
X95860608Y-54189996D01*
X95813050Y-54096658D01*
X95813046Y-54096654D01*
X95813045Y-54096652D01*
X95723347Y-54006954D01*
X95723344Y-54006952D01*
X95723342Y-54006950D01*
X95610304Y-53949354D01*
X95610303Y-53949353D01*
X95610300Y-53949352D01*
X95485003Y-53929508D01*
X95484997Y-53929508D01*
X95359699Y-53949352D01*
X95359698Y-53949352D01*
X95284337Y-53987751D01*
X95246658Y-54006950D01*
X95246657Y-54006951D01*
X95246652Y-54006954D01*
X95156954Y-54096652D01*
X95156949Y-54096659D01*
X95095483Y-54217290D01*
X95047508Y-54268086D01*
X94979687Y-54284880D01*
X94913552Y-54262342D01*
X94874514Y-54217289D01*
X94870646Y-54209698D01*
X94870646Y-54209696D01*
X94813050Y-54096658D01*
X94813046Y-54096654D01*
X94813045Y-54096652D01*
X94723347Y-54006954D01*
X94723344Y-54006952D01*
X94723342Y-54006950D01*
X94610304Y-53949354D01*
X94610303Y-53949353D01*
X94610300Y-53949352D01*
X94485003Y-53929508D01*
X94484997Y-53929508D01*
X94359699Y-53949352D01*
X94359698Y-53949352D01*
X94284337Y-53987751D01*
X94246658Y-54006950D01*
X94246657Y-54006951D01*
X94246652Y-54006954D01*
X94156954Y-54096652D01*
X94156949Y-54096659D01*
X94095483Y-54217290D01*
X94047508Y-54268086D01*
X93979687Y-54284880D01*
X93913552Y-54262342D01*
X93874514Y-54217289D01*
X93870646Y-54209698D01*
X93870646Y-54209696D01*
X93813050Y-54096658D01*
X93813046Y-54096654D01*
X93813045Y-54096652D01*
X93723347Y-54006954D01*
X93723344Y-54006952D01*
X93723342Y-54006950D01*
X93610304Y-53949354D01*
X93610303Y-53949353D01*
X93610300Y-53949352D01*
X93485003Y-53929508D01*
X93484997Y-53929508D01*
X93359699Y-53949352D01*
X93359698Y-53949352D01*
X93284337Y-53987751D01*
X93246658Y-54006950D01*
X93246657Y-54006951D01*
X93246652Y-54006954D01*
X93156954Y-54096652D01*
X93156951Y-54096657D01*
X93156950Y-54096658D01*
X93137751Y-54134337D01*
X93099352Y-54209698D01*
X93099352Y-54209699D01*
X93079508Y-54334996D01*
X93079508Y-54335003D01*
X93099352Y-54460300D01*
X93099352Y-54460301D01*
X93099354Y-54460304D01*
X93156950Y-54573342D01*
X93156952Y-54573344D01*
X93156954Y-54573347D01*
X93246652Y-54663045D01*
X93246655Y-54663047D01*
X93246658Y-54663050D01*
X93267672Y-54673757D01*
X93367290Y-54724516D01*
X93418085Y-54772490D01*
X93434880Y-54840311D01*
X93412342Y-54906446D01*
X93367290Y-54945484D01*
X93246659Y-55006949D01*
X93246652Y-55006954D01*
X93156954Y-55096652D01*
X93156951Y-55096657D01*
X93156950Y-55096658D01*
X93137751Y-55134337D01*
X93099352Y-55209698D01*
X93099352Y-55209699D01*
X93079508Y-55334996D01*
X93079508Y-55335003D01*
X93099352Y-55460300D01*
X93099352Y-55460301D01*
X93117805Y-55496517D01*
X93156950Y-55573342D01*
X93156952Y-55573344D01*
X93156954Y-55573347D01*
X93246652Y-55663045D01*
X93246655Y-55663047D01*
X93246658Y-55663050D01*
X93297815Y-55689116D01*
X93367290Y-55724516D01*
X93418085Y-55772490D01*
X93434880Y-55840311D01*
X93412342Y-55906446D01*
X93367290Y-55945484D01*
X93246659Y-56006949D01*
X93246652Y-56006954D01*
X93156954Y-56096652D01*
X93156951Y-56096657D01*
X93156950Y-56096658D01*
X93130763Y-56148053D01*
X93099353Y-56209698D01*
X93079508Y-56334996D01*
X93079508Y-56335003D01*
X92155500Y-56335003D01*
X92155499Y-52950003D01*
X97169508Y-52950003D01*
X97189352Y-53075300D01*
X97189352Y-53075301D01*
X97189354Y-53075304D01*
X97246950Y-53188342D01*
X97246952Y-53188344D01*
X97246954Y-53188347D01*
X97336652Y-53278045D01*
X97336654Y-53278046D01*
X97336658Y-53278050D01*
X97449696Y-53335646D01*
X97449697Y-53335646D01*
X97449699Y-53335647D01*
X97574997Y-53355492D01*
X97575000Y-53355492D01*
X97575002Y-53355492D01*
X97683699Y-53338276D01*
X97752992Y-53347231D01*
X97806444Y-53392227D01*
X97827084Y-53458978D01*
X97825571Y-53480145D01*
X97814508Y-53550001D01*
X97814508Y-53550003D01*
X97834352Y-53675300D01*
X97834352Y-53675301D01*
X97834664Y-53675913D01*
X97891950Y-53788342D01*
X97891952Y-53788344D01*
X97891954Y-53788347D01*
X97981652Y-53878045D01*
X97981654Y-53878046D01*
X97981658Y-53878050D01*
X98094696Y-53935646D01*
X98094697Y-53935646D01*
X98094699Y-53935647D01*
X98219997Y-53955492D01*
X98220000Y-53955492D01*
X98220003Y-53955492D01*
X98345300Y-53935647D01*
X98345301Y-53935647D01*
X98345302Y-53935646D01*
X98345304Y-53935646D01*
X98458342Y-53878050D01*
X98548050Y-53788342D01*
X98605646Y-53675304D01*
X98605646Y-53675302D01*
X98605647Y-53675301D01*
X98605647Y-53675300D01*
X98625492Y-53550003D01*
X98625492Y-53549996D01*
X98605647Y-53424699D01*
X98605647Y-53424698D01*
X98592318Y-53398539D01*
X98548050Y-53311658D01*
X98548046Y-53311654D01*
X98548045Y-53311652D01*
X98461396Y-53225003D01*
X100444508Y-53225003D01*
X100464352Y-53350300D01*
X100464352Y-53350301D01*
X100464354Y-53350304D01*
X100521950Y-53463342D01*
X100521952Y-53463344D01*
X100521954Y-53463347D01*
X100611652Y-53553045D01*
X100611654Y-53553046D01*
X100611658Y-53553050D01*
X100724696Y-53610646D01*
X100724697Y-53610646D01*
X100724699Y-53610647D01*
X100849997Y-53630492D01*
X100850000Y-53630492D01*
X100850003Y-53630492D01*
X100975300Y-53610647D01*
X100975301Y-53610647D01*
X100975302Y-53610646D01*
X100975304Y-53610646D01*
X101088342Y-53553050D01*
X101178050Y-53463342D01*
X101235646Y-53350304D01*
X101235646Y-53350302D01*
X101235647Y-53350301D01*
X101235647Y-53350300D01*
X101255492Y-53225003D01*
X101255492Y-53224996D01*
X101235647Y-53099699D01*
X101235647Y-53099698D01*
X101235646Y-53099696D01*
X101178050Y-52986658D01*
X101178046Y-52986654D01*
X101178045Y-52986652D01*
X101088347Y-52896954D01*
X101088344Y-52896952D01*
X101088342Y-52896950D01*
X100975304Y-52839354D01*
X100975303Y-52839353D01*
X100975300Y-52839352D01*
X100850003Y-52819508D01*
X100849997Y-52819508D01*
X100724699Y-52839352D01*
X100724698Y-52839352D01*
X100677607Y-52863347D01*
X100611658Y-52896950D01*
X100611657Y-52896950D01*
X100611657Y-52896951D01*
X100611652Y-52896954D01*
X100521954Y-52986652D01*
X100521951Y-52986657D01*
X100521950Y-52986658D01*
X100509727Y-53010647D01*
X100464352Y-53099698D01*
X100464352Y-53099699D01*
X100444508Y-53224996D01*
X100444508Y-53225003D01*
X98461396Y-53225003D01*
X98458347Y-53221954D01*
X98458344Y-53221952D01*
X98458342Y-53221950D01*
X98345304Y-53164354D01*
X98345303Y-53164353D01*
X98345300Y-53164352D01*
X98220003Y-53144508D01*
X98220001Y-53144508D01*
X98220000Y-53144508D01*
X98167848Y-53152768D01*
X98111299Y-53161724D01*
X98042005Y-53152768D01*
X97988554Y-53107771D01*
X97967915Y-53041020D01*
X97969429Y-53019852D01*
X97980492Y-52950002D01*
X97980492Y-52949996D01*
X97960647Y-52824699D01*
X97960647Y-52824698D01*
X97960646Y-52824696D01*
X97903050Y-52711658D01*
X97903046Y-52711654D01*
X97903045Y-52711652D01*
X97816396Y-52625003D01*
X103944508Y-52625003D01*
X103964352Y-52750300D01*
X103964352Y-52750301D01*
X103964354Y-52750304D01*
X104021950Y-52863342D01*
X104021952Y-52863344D01*
X104021954Y-52863347D01*
X104111652Y-52953045D01*
X104111654Y-52953046D01*
X104111658Y-52953050D01*
X104224696Y-53010646D01*
X104224697Y-53010646D01*
X104224699Y-53010647D01*
X104349997Y-53030492D01*
X104350000Y-53030492D01*
X104350003Y-53030492D01*
X104475300Y-53010647D01*
X104475301Y-53010647D01*
X104475302Y-53010646D01*
X104475304Y-53010646D01*
X104588342Y-52953050D01*
X104678050Y-52863342D01*
X104735646Y-52750304D01*
X104735646Y-52750302D01*
X104735647Y-52750301D01*
X104735647Y-52750300D01*
X104755492Y-52625003D01*
X104755492Y-52624996D01*
X104735647Y-52499699D01*
X104735647Y-52499698D01*
X104713011Y-52455273D01*
X104678050Y-52386658D01*
X104678046Y-52386654D01*
X104678045Y-52386652D01*
X104588347Y-52296954D01*
X104588344Y-52296952D01*
X104588342Y-52296950D01*
X104475304Y-52239354D01*
X104475303Y-52239353D01*
X104475300Y-52239352D01*
X104350003Y-52219508D01*
X104349997Y-52219508D01*
X104224699Y-52239352D01*
X104224698Y-52239352D01*
X104175760Y-52264288D01*
X104111658Y-52296950D01*
X104111657Y-52296950D01*
X104111657Y-52296951D01*
X104111652Y-52296954D01*
X104021954Y-52386652D01*
X104021951Y-52386657D01*
X103964352Y-52499698D01*
X103964352Y-52499699D01*
X103944508Y-52624996D01*
X103944508Y-52625003D01*
X97816396Y-52625003D01*
X97813347Y-52621954D01*
X97813344Y-52621952D01*
X97813342Y-52621950D01*
X97700304Y-52564354D01*
X97700303Y-52564353D01*
X97700300Y-52564352D01*
X97575003Y-52544508D01*
X97574997Y-52544508D01*
X97449699Y-52564352D01*
X97449698Y-52564352D01*
X97386388Y-52596611D01*
X97336658Y-52621950D01*
X97336657Y-52621951D01*
X97336652Y-52621954D01*
X97246954Y-52711652D01*
X97246951Y-52711657D01*
X97189352Y-52824698D01*
X97189352Y-52824699D01*
X97169508Y-52949996D01*
X97169508Y-52950003D01*
X92155499Y-52950003D01*
X92155499Y-52000003D01*
X92819508Y-52000003D01*
X92839352Y-52125300D01*
X92839352Y-52125301D01*
X92854948Y-52155909D01*
X92896950Y-52238342D01*
X92896952Y-52238344D01*
X92896954Y-52238347D01*
X92986652Y-52328045D01*
X92986654Y-52328046D01*
X92986658Y-52328050D01*
X93099696Y-52385646D01*
X93099697Y-52385646D01*
X93099699Y-52385647D01*
X93224997Y-52405492D01*
X93225000Y-52405492D01*
X93225003Y-52405492D01*
X93350300Y-52385647D01*
X93350301Y-52385647D01*
X93350302Y-52385646D01*
X93350304Y-52385646D01*
X93463342Y-52328050D01*
X93553050Y-52238342D01*
X93610646Y-52125304D01*
X93610646Y-52125302D01*
X93610647Y-52125301D01*
X93610647Y-52125300D01*
X93630492Y-52000003D01*
X93630492Y-51999996D01*
X93610647Y-51874699D01*
X93610647Y-51874698D01*
X93604861Y-51863342D01*
X93553050Y-51761658D01*
X93553046Y-51761654D01*
X93553045Y-51761652D01*
X93463347Y-51671954D01*
X93463344Y-51671952D01*
X93463342Y-51671950D01*
X93371204Y-51625003D01*
X103394508Y-51625003D01*
X103414352Y-51750300D01*
X103414352Y-51750301D01*
X103420139Y-51761658D01*
X103471950Y-51863342D01*
X103471952Y-51863344D01*
X103471954Y-51863347D01*
X103561652Y-51953045D01*
X103561654Y-51953046D01*
X103561658Y-51953050D01*
X103674696Y-52010646D01*
X103674697Y-52010646D01*
X103674699Y-52010647D01*
X103799997Y-52030492D01*
X103800000Y-52030492D01*
X103800003Y-52030492D01*
X103925300Y-52010647D01*
X103925301Y-52010647D01*
X103925302Y-52010646D01*
X103925304Y-52010646D01*
X104038342Y-51953050D01*
X104128050Y-51863342D01*
X104185646Y-51750304D01*
X104185646Y-51750302D01*
X104185647Y-51750301D01*
X104185647Y-51750300D01*
X104205492Y-51625003D01*
X104205492Y-51624996D01*
X104185647Y-51499699D01*
X104185647Y-51499698D01*
X104185646Y-51499696D01*
X104128050Y-51386658D01*
X104128046Y-51386654D01*
X104128045Y-51386652D01*
X104038347Y-51296954D01*
X104038344Y-51296952D01*
X104038342Y-51296950D01*
X103925304Y-51239354D01*
X103925303Y-51239353D01*
X103925300Y-51239352D01*
X103800003Y-51219508D01*
X103799997Y-51219508D01*
X103674699Y-51239352D01*
X103674698Y-51239352D01*
X103599337Y-51277751D01*
X103561658Y-51296950D01*
X103561656Y-51296950D01*
X103561657Y-51296951D01*
X103561652Y-51296954D01*
X103471954Y-51386652D01*
X103471951Y-51386657D01*
X103414352Y-51499698D01*
X103414352Y-51499699D01*
X103394508Y-51624996D01*
X103394508Y-51625003D01*
X93371204Y-51625003D01*
X93350304Y-51614354D01*
X93350303Y-51614353D01*
X93350300Y-51614352D01*
X93225003Y-51594508D01*
X93224997Y-51594508D01*
X93099699Y-51614352D01*
X93099698Y-51614352D01*
X93024337Y-51652751D01*
X92986658Y-51671950D01*
X92986657Y-51671950D01*
X92986657Y-51671951D01*
X92986652Y-51671954D01*
X92896954Y-51761652D01*
X92896951Y-51761657D01*
X92839352Y-51874698D01*
X92839352Y-51874699D01*
X92819508Y-51999996D01*
X92819508Y-52000003D01*
X92155499Y-52000003D01*
X92155499Y-50350003D01*
X103419508Y-50350003D01*
X103439352Y-50475300D01*
X103439352Y-50475301D01*
X103449965Y-50496129D01*
X103496950Y-50588342D01*
X103496952Y-50588344D01*
X103496954Y-50588347D01*
X103586652Y-50678045D01*
X103586654Y-50678046D01*
X103586658Y-50678050D01*
X103699696Y-50735646D01*
X103699697Y-50735646D01*
X103699699Y-50735647D01*
X103824997Y-50755492D01*
X103825000Y-50755492D01*
X103825003Y-50755492D01*
X103950300Y-50735647D01*
X103950301Y-50735647D01*
X103950302Y-50735646D01*
X103950304Y-50735646D01*
X104063342Y-50678050D01*
X104153050Y-50588342D01*
X104210646Y-50475304D01*
X104210646Y-50475302D01*
X104210647Y-50475301D01*
X104210647Y-50475300D01*
X104230492Y-50350003D01*
X104230492Y-50349996D01*
X104210647Y-50224699D01*
X104210647Y-50224698D01*
X104190749Y-50185647D01*
X104153050Y-50111658D01*
X104153046Y-50111654D01*
X104153045Y-50111652D01*
X104063347Y-50021954D01*
X104063344Y-50021952D01*
X104063342Y-50021950D01*
X103950304Y-49964354D01*
X103950303Y-49964353D01*
X103950300Y-49964352D01*
X103825003Y-49944508D01*
X103824997Y-49944508D01*
X103699699Y-49964352D01*
X103699698Y-49964352D01*
X103624337Y-50002751D01*
X103586658Y-50021950D01*
X103586657Y-50021951D01*
X103586652Y-50021954D01*
X103496954Y-50111652D01*
X103496951Y-50111657D01*
X103496950Y-50111658D01*
X103488599Y-50128048D01*
X103439352Y-50224698D01*
X103439352Y-50224699D01*
X103419508Y-50349996D01*
X103419508Y-50350003D01*
X92155499Y-50350003D01*
X92155499Y-50098984D01*
X92153407Y-50073564D01*
X92146779Y-50033565D01*
X92135268Y-50005492D01*
X92120465Y-49969389D01*
X92120464Y-49969388D01*
X92091322Y-49928050D01*
X92080206Y-49912282D01*
X92075800Y-49906338D01*
X92072703Y-49902159D01*
X92048598Y-49836579D01*
X92061839Y-49772027D01*
X92085646Y-49725304D01*
X92104506Y-49606220D01*
X92111199Y-49592101D01*
X92106995Y-49582896D01*
X92338799Y-49582896D01*
X92349452Y-49606223D01*
X92364352Y-49700300D01*
X92364352Y-49700301D01*
X92364354Y-49700304D01*
X92421950Y-49813342D01*
X92421952Y-49813344D01*
X92421954Y-49813347D01*
X92511652Y-49903045D01*
X92511654Y-49903046D01*
X92511658Y-49903050D01*
X92624696Y-49960646D01*
X92624697Y-49960646D01*
X92624699Y-49960647D01*
X92749997Y-49980492D01*
X92750000Y-49980492D01*
X92750003Y-49980492D01*
X92875300Y-49960647D01*
X92875301Y-49960647D01*
X92875302Y-49960646D01*
X92875304Y-49960646D01*
X92988342Y-49903050D01*
X93078050Y-49813342D01*
X93135646Y-49700304D01*
X93135646Y-49700302D01*
X93135647Y-49700301D01*
X93135647Y-49700300D01*
X93151532Y-49600003D01*
X94319508Y-49600003D01*
X94339352Y-49725300D01*
X94339352Y-49725301D01*
X94347586Y-49741460D01*
X94396950Y-49838342D01*
X94396952Y-49838344D01*
X94396954Y-49838347D01*
X94486652Y-49928045D01*
X94486654Y-49928046D01*
X94486658Y-49928050D01*
X94599696Y-49985646D01*
X94599697Y-49985646D01*
X94599699Y-49985647D01*
X94724997Y-50005492D01*
X94725000Y-50005492D01*
X94725003Y-50005492D01*
X94850300Y-49985647D01*
X94850301Y-49985647D01*
X94850302Y-49985646D01*
X94850304Y-49985646D01*
X94963342Y-49928050D01*
X95053050Y-49838342D01*
X95072585Y-49800003D01*
X100894508Y-49800003D01*
X100914352Y-49925300D01*
X100914352Y-49925301D01*
X100915752Y-49928048D01*
X100971950Y-50038342D01*
X100971952Y-50038344D01*
X100971954Y-50038347D01*
X101061652Y-50128045D01*
X101061654Y-50128046D01*
X101061658Y-50128050D01*
X101174696Y-50185646D01*
X101174697Y-50185646D01*
X101174699Y-50185647D01*
X101299997Y-50205492D01*
X101300000Y-50205492D01*
X101300003Y-50205492D01*
X101425300Y-50185647D01*
X101425301Y-50185647D01*
X101425302Y-50185646D01*
X101425304Y-50185646D01*
X101538342Y-50128050D01*
X101628050Y-50038342D01*
X101685646Y-49925304D01*
X101685646Y-49925302D01*
X101685647Y-49925301D01*
X101685647Y-49925300D01*
X101705492Y-49800003D01*
X101705492Y-49799996D01*
X101686145Y-49677844D01*
X108150000Y-49677844D01*
X108156401Y-49737372D01*
X108156403Y-49737379D01*
X108206645Y-49872086D01*
X108206649Y-49872093D01*
X108292809Y-49987187D01*
X108292812Y-49987190D01*
X108407906Y-50073350D01*
X108407913Y-50073354D01*
X108542620Y-50123596D01*
X108542627Y-50123598D01*
X108602155Y-50129999D01*
X108602172Y-50130000D01*
X109140348Y-50130000D01*
X109207387Y-50149685D01*
X109253142Y-50202489D01*
X109263086Y-50271647D01*
X109234061Y-50335203D01*
X109176344Y-50372660D01*
X109146630Y-50381673D01*
X109115268Y-50391187D01*
X108941467Y-50484086D01*
X108941460Y-50484090D01*
X108789116Y-50609116D01*
X108664090Y-50761460D01*
X108664086Y-50761467D01*
X108571188Y-50935266D01*
X108513975Y-51123870D01*
X108494659Y-51320000D01*
X108513975Y-51516129D01*
X108513976Y-51516132D01*
X108561243Y-51671951D01*
X108571188Y-51704733D01*
X108664086Y-51878532D01*
X108664090Y-51878539D01*
X108789116Y-52030883D01*
X108941460Y-52155909D01*
X108941467Y-52155913D01*
X109115266Y-52248811D01*
X109115269Y-52248811D01*
X109115273Y-52248814D01*
X109303868Y-52306024D01*
X109500000Y-52325341D01*
X109696132Y-52306024D01*
X109880807Y-52250003D01*
X111294508Y-52250003D01*
X111314352Y-52375300D01*
X111314352Y-52375301D01*
X111320139Y-52386658D01*
X111371950Y-52488342D01*
X111371952Y-52488344D01*
X111371954Y-52488347D01*
X111461652Y-52578045D01*
X111461654Y-52578046D01*
X111461658Y-52578050D01*
X111574696Y-52635646D01*
X111574697Y-52635646D01*
X111574699Y-52635647D01*
X111699997Y-52655492D01*
X111700000Y-52655492D01*
X111700003Y-52655492D01*
X111825300Y-52635647D01*
X111825302Y-52635646D01*
X111825304Y-52635646D01*
X111928172Y-52583231D01*
X111996839Y-52570335D01*
X112061580Y-52596611D01*
X112101837Y-52653717D01*
X112107869Y-52705870D01*
X112094659Y-52839999D01*
X112113975Y-53036129D01*
X112171188Y-53224733D01*
X112264086Y-53398532D01*
X112264090Y-53398539D01*
X112389116Y-53550883D01*
X112541460Y-53675909D01*
X112541467Y-53675913D01*
X112715266Y-53768811D01*
X112715269Y-53768811D01*
X112715273Y-53768814D01*
X112903868Y-53826024D01*
X113100000Y-53845341D01*
X113296132Y-53826024D01*
X113484727Y-53768814D01*
X113658538Y-53675910D01*
X113810883Y-53550883D01*
X113935910Y-53398538D01*
X114000315Y-53278045D01*
X114028811Y-53224733D01*
X114028811Y-53224732D01*
X114028814Y-53224727D01*
X114086024Y-53036132D01*
X114105341Y-52840000D01*
X114086024Y-52643868D01*
X114028814Y-52455273D01*
X114028811Y-52455269D01*
X114028811Y-52455266D01*
X113935913Y-52281467D01*
X113935909Y-52281460D01*
X113810883Y-52129116D01*
X113658539Y-52004090D01*
X113658532Y-52004086D01*
X113484733Y-51911188D01*
X113484727Y-51911186D01*
X113358997Y-51873045D01*
X113296129Y-51853975D01*
X113100000Y-51834659D01*
X112903870Y-51853975D01*
X112715266Y-51911188D01*
X112541467Y-52004086D01*
X112541460Y-52004090D01*
X112389115Y-52129117D01*
X112310463Y-52224954D01*
X112252717Y-52264288D01*
X112182873Y-52266157D01*
X112123105Y-52229969D01*
X112092389Y-52167213D01*
X112092157Y-52165807D01*
X112085646Y-52124696D01*
X112028050Y-52011658D01*
X112028046Y-52011654D01*
X112028045Y-52011652D01*
X111938347Y-51921954D01*
X111938344Y-51921952D01*
X111938342Y-51921950D01*
X111825304Y-51864354D01*
X111825303Y-51864353D01*
X111825300Y-51864352D01*
X111700003Y-51844508D01*
X111699997Y-51844508D01*
X111574699Y-51864352D01*
X111574698Y-51864352D01*
X111499337Y-51902751D01*
X111461658Y-51921950D01*
X111461657Y-51921951D01*
X111461652Y-51921954D01*
X111371954Y-52011652D01*
X111371951Y-52011657D01*
X111371950Y-52011658D01*
X111352751Y-52049337D01*
X111314352Y-52124698D01*
X111314352Y-52124699D01*
X111294508Y-52249996D01*
X111294508Y-52250003D01*
X109880807Y-52250003D01*
X109884727Y-52248814D01*
X109902426Y-52239354D01*
X109971632Y-52202362D01*
X110058538Y-52155910D01*
X110210883Y-52030883D01*
X110335910Y-51878538D01*
X110428814Y-51704727D01*
X110486024Y-51516132D01*
X110505341Y-51320000D01*
X110486024Y-51123868D01*
X110428814Y-50935273D01*
X110428811Y-50935269D01*
X110428811Y-50935266D01*
X110335913Y-50761467D01*
X110335909Y-50761460D01*
X110210883Y-50609116D01*
X110058539Y-50484090D01*
X110058532Y-50484086D01*
X109884731Y-50391187D01*
X109866190Y-50385562D01*
X109823655Y-50372660D01*
X109765218Y-50334363D01*
X109736762Y-50270551D01*
X109747322Y-50201484D01*
X109793546Y-50149090D01*
X109859652Y-50130000D01*
X110397828Y-50130000D01*
X110397844Y-50129999D01*
X110457372Y-50123598D01*
X110457379Y-50123596D01*
X110592086Y-50073354D01*
X110592093Y-50073350D01*
X110707187Y-49987190D01*
X110707190Y-49987187D01*
X110793350Y-49872093D01*
X110793354Y-49872086D01*
X110843596Y-49737379D01*
X110843598Y-49737372D01*
X110849999Y-49677844D01*
X110850000Y-49677827D01*
X110850000Y-49030000D01*
X109933686Y-49030000D01*
X109959493Y-48989844D01*
X110000000Y-48851889D01*
X110000000Y-48708111D01*
X109959493Y-48570156D01*
X109933686Y-48530000D01*
X110849999Y-48530000D01*
X110850000Y-48010000D01*
X111769364Y-48010000D01*
X111826567Y-48223486D01*
X111826570Y-48223492D01*
X111926399Y-48437578D01*
X112061894Y-48631082D01*
X112228917Y-48798105D01*
X112422421Y-48933600D01*
X112636507Y-49033429D01*
X112636516Y-49033433D01*
X112850107Y-49090664D01*
X112909768Y-49127029D01*
X112940297Y-49189876D01*
X112932002Y-49259251D01*
X112887517Y-49313129D01*
X112854010Y-49329099D01*
X112715271Y-49371186D01*
X112541467Y-49464086D01*
X112541460Y-49464090D01*
X112389116Y-49589116D01*
X112264090Y-49741460D01*
X112264086Y-49741467D01*
X112171188Y-49915266D01*
X112113975Y-50103870D01*
X112094659Y-50300000D01*
X112113975Y-50496129D01*
X112171188Y-50684733D01*
X112264086Y-50858532D01*
X112264090Y-50858539D01*
X112389116Y-51010883D01*
X112541460Y-51135909D01*
X112541467Y-51135913D01*
X112715266Y-51228811D01*
X112715269Y-51228811D01*
X112715273Y-51228814D01*
X112903868Y-51286024D01*
X113100000Y-51305341D01*
X113296132Y-51286024D01*
X113484727Y-51228814D01*
X113502138Y-51219508D01*
X113658532Y-51135913D01*
X113658538Y-51135910D01*
X113810883Y-51010883D01*
X113935910Y-50858538D01*
X114028814Y-50684727D01*
X114086024Y-50496132D01*
X114105341Y-50300000D01*
X114086024Y-50103868D01*
X114028814Y-49915273D01*
X114028811Y-49915269D01*
X114028811Y-49915266D01*
X113935913Y-49741467D01*
X113935909Y-49741460D01*
X113810883Y-49589116D01*
X113658539Y-49464090D01*
X113658532Y-49464086D01*
X113484728Y-49371186D01*
X113345989Y-49329099D01*
X113287551Y-49290801D01*
X113259094Y-49226989D01*
X113269655Y-49157922D01*
X113315880Y-49105529D01*
X113349892Y-49090664D01*
X113563483Y-49033433D01*
X113563492Y-49033429D01*
X113777578Y-48933600D01*
X113971082Y-48798105D01*
X114138105Y-48631082D01*
X114273600Y-48437578D01*
X114373429Y-48223492D01*
X114373432Y-48223486D01*
X114430636Y-48010000D01*
X113533686Y-48010000D01*
X113559493Y-47969844D01*
X113600000Y-47831889D01*
X113600000Y-47688111D01*
X113559493Y-47550156D01*
X113533686Y-47510000D01*
X114430636Y-47510000D01*
X114430635Y-47509999D01*
X114373432Y-47296513D01*
X114373429Y-47296507D01*
X114273600Y-47082422D01*
X114273599Y-47082420D01*
X114138113Y-46888926D01*
X114138108Y-46888920D01*
X113971082Y-46721894D01*
X113777578Y-46586399D01*
X113563492Y-46486570D01*
X113563483Y-46486566D01*
X113480289Y-46464275D01*
X113420628Y-46427910D01*
X113390099Y-46365063D01*
X113398394Y-46295688D01*
X113442879Y-46241810D01*
X113509431Y-46220535D01*
X113512382Y-46220500D01*
X113964822Y-46220500D01*
X114008717Y-46211768D01*
X114008717Y-46211767D01*
X114008722Y-46211767D01*
X114058504Y-46178504D01*
X114091767Y-46128722D01*
X114100500Y-46084820D01*
X114100500Y-44355180D01*
X114100500Y-44355177D01*
X114091768Y-44311282D01*
X114091767Y-44311281D01*
X114091767Y-44311278D01*
X114058504Y-44261496D01*
X114048290Y-44254671D01*
X114008724Y-44228234D01*
X114008717Y-44228231D01*
X113964822Y-44219500D01*
X113964820Y-44219500D01*
X112235180Y-44219500D01*
X112235178Y-44219500D01*
X112191282Y-44228231D01*
X112191275Y-44228234D01*
X112141496Y-44261495D01*
X112141495Y-44261496D01*
X112108234Y-44311275D01*
X112108231Y-44311282D01*
X112099500Y-44355177D01*
X112099500Y-44355180D01*
X112099500Y-46084820D01*
X112099500Y-46084822D01*
X112099499Y-46084822D01*
X112108231Y-46128717D01*
X112108232Y-46128721D01*
X112108233Y-46128722D01*
X112141496Y-46178504D01*
X112191278Y-46211767D01*
X112191281Y-46211767D01*
X112191282Y-46211768D01*
X112235177Y-46220500D01*
X112687618Y-46220500D01*
X112754657Y-46240185D01*
X112800412Y-46292989D01*
X112810356Y-46362147D01*
X112781331Y-46425703D01*
X112722553Y-46463477D01*
X112719711Y-46464275D01*
X112636516Y-46486566D01*
X112636507Y-46486570D01*
X112422422Y-46586399D01*
X112422420Y-46586400D01*
X112228926Y-46721886D01*
X112228920Y-46721891D01*
X112061891Y-46888920D01*
X112061886Y-46888926D01*
X111926400Y-47082420D01*
X111926399Y-47082422D01*
X111826570Y-47296507D01*
X111826567Y-47296513D01*
X111769364Y-47509999D01*
X111769364Y-47510000D01*
X112666314Y-47510000D01*
X112640507Y-47550156D01*
X112600000Y-47688111D01*
X112600000Y-47831889D01*
X112640507Y-47969844D01*
X112666314Y-48010000D01*
X111769364Y-48010000D01*
X110850000Y-48010000D01*
X110850000Y-47882172D01*
X110849999Y-47882155D01*
X110843598Y-47822627D01*
X110843596Y-47822620D01*
X110793354Y-47687913D01*
X110793350Y-47687906D01*
X110707190Y-47572812D01*
X110707187Y-47572809D01*
X110592093Y-47486649D01*
X110592086Y-47486645D01*
X110457379Y-47436403D01*
X110457372Y-47436401D01*
X110397844Y-47430000D01*
X109750000Y-47430000D01*
X109750000Y-48344498D01*
X109642315Y-48295320D01*
X109535763Y-48280000D01*
X109464237Y-48280000D01*
X109357685Y-48295320D01*
X109250000Y-48344498D01*
X109250000Y-47430000D01*
X108602155Y-47430000D01*
X108542627Y-47436401D01*
X108542620Y-47436403D01*
X108407913Y-47486645D01*
X108407906Y-47486649D01*
X108292812Y-47572809D01*
X108292809Y-47572812D01*
X108206649Y-47687906D01*
X108206645Y-47687913D01*
X108156403Y-47822620D01*
X108156401Y-47822627D01*
X108150000Y-47882155D01*
X108150000Y-48530000D01*
X109066314Y-48530000D01*
X109040507Y-48570156D01*
X109000000Y-48708111D01*
X109000000Y-48851889D01*
X109040507Y-48989844D01*
X109066314Y-49030000D01*
X108150000Y-49030000D01*
X108150000Y-49677844D01*
X101686145Y-49677844D01*
X101685647Y-49674699D01*
X101685647Y-49674698D01*
X101685646Y-49674696D01*
X101628050Y-49561658D01*
X101628046Y-49561654D01*
X101628045Y-49561652D01*
X101538347Y-49471954D01*
X101538344Y-49471952D01*
X101538342Y-49471950D01*
X101425304Y-49414354D01*
X101425303Y-49414353D01*
X101425300Y-49414352D01*
X101300003Y-49394508D01*
X101299997Y-49394508D01*
X101174699Y-49414352D01*
X101174698Y-49414352D01*
X101105334Y-49449696D01*
X101061658Y-49471950D01*
X101061657Y-49471951D01*
X101061652Y-49471954D01*
X100971954Y-49561652D01*
X100971951Y-49561657D01*
X100971950Y-49561658D01*
X100952751Y-49599337D01*
X100914352Y-49674698D01*
X100914352Y-49674699D01*
X100894508Y-49799996D01*
X100894508Y-49800003D01*
X95072585Y-49800003D01*
X95110646Y-49725304D01*
X95110646Y-49725302D01*
X95110647Y-49725301D01*
X95110647Y-49725300D01*
X95130492Y-49600003D01*
X95130492Y-49599996D01*
X95110647Y-49474699D01*
X95110647Y-49474698D01*
X95097909Y-49449699D01*
X95053050Y-49361658D01*
X95053046Y-49361654D01*
X95053045Y-49361652D01*
X94963347Y-49271954D01*
X94963344Y-49271952D01*
X94963342Y-49271950D01*
X94850304Y-49214354D01*
X94850303Y-49214353D01*
X94850300Y-49214352D01*
X94725003Y-49194508D01*
X94724997Y-49194508D01*
X94599699Y-49214352D01*
X94599698Y-49214352D01*
X94535723Y-49246950D01*
X94486658Y-49271950D01*
X94486657Y-49271951D01*
X94486652Y-49271954D01*
X94396954Y-49361652D01*
X94396951Y-49361657D01*
X94396950Y-49361658D01*
X94380212Y-49394508D01*
X94339352Y-49474698D01*
X94339352Y-49474699D01*
X94319508Y-49599996D01*
X94319508Y-49600003D01*
X93151532Y-49600003D01*
X93155492Y-49575003D01*
X93155492Y-49574996D01*
X93135647Y-49449699D01*
X93135647Y-49449698D01*
X93135646Y-49449696D01*
X93078050Y-49336658D01*
X93078046Y-49336654D01*
X93078045Y-49336652D01*
X92988347Y-49246954D01*
X92988344Y-49246952D01*
X92988342Y-49246950D01*
X92875304Y-49189354D01*
X92875303Y-49189353D01*
X92875300Y-49189352D01*
X92750003Y-49169508D01*
X92749997Y-49169508D01*
X92624699Y-49189352D01*
X92624698Y-49189352D01*
X92550833Y-49226989D01*
X92511658Y-49246950D01*
X92511657Y-49246951D01*
X92511652Y-49246954D01*
X92421954Y-49336652D01*
X92421951Y-49336657D01*
X92364352Y-49449698D01*
X92345493Y-49568776D01*
X92338799Y-49582896D01*
X92106995Y-49582896D01*
X92100547Y-49568775D01*
X92085647Y-49474699D01*
X92085646Y-49474697D01*
X92085646Y-49474696D01*
X92061662Y-49427626D01*
X92048767Y-49358959D01*
X92075043Y-49294219D01*
X92086377Y-49282101D01*
X92087622Y-49280593D01*
X92108127Y-49246954D01*
X92129515Y-49211866D01*
X92149200Y-49144827D01*
X92155499Y-49101016D01*
X92155499Y-48625003D01*
X95349508Y-48625003D01*
X95369352Y-48750300D01*
X95369352Y-48750301D01*
X95369354Y-48750304D01*
X95426950Y-48863342D01*
X95426952Y-48863344D01*
X95426954Y-48863347D01*
X95516652Y-48953045D01*
X95516654Y-48953046D01*
X95516658Y-48953050D01*
X95629696Y-49010646D01*
X95629697Y-49010646D01*
X95629699Y-49010647D01*
X95754997Y-49030492D01*
X95755000Y-49030492D01*
X95755003Y-49030492D01*
X95880300Y-49010647D01*
X95880301Y-49010647D01*
X95880302Y-49010646D01*
X95880304Y-49010646D01*
X95993342Y-48953050D01*
X96083050Y-48863342D01*
X96140646Y-48750304D01*
X96140646Y-48750302D01*
X96140647Y-48750301D01*
X96140647Y-48750300D01*
X96160492Y-48625003D01*
X101244508Y-48625003D01*
X101264352Y-48750300D01*
X101264352Y-48750301D01*
X101264354Y-48750304D01*
X101321950Y-48863342D01*
X101321952Y-48863344D01*
X101321954Y-48863347D01*
X101411652Y-48953045D01*
X101411654Y-48953046D01*
X101411658Y-48953050D01*
X101524696Y-49010646D01*
X101524697Y-49010646D01*
X101524699Y-49010647D01*
X101649997Y-49030492D01*
X101650000Y-49030492D01*
X101650003Y-49030492D01*
X101775300Y-49010647D01*
X101775301Y-49010647D01*
X101775302Y-49010646D01*
X101775304Y-49010646D01*
X101888342Y-48953050D01*
X101978050Y-48863342D01*
X102035646Y-48750304D01*
X102035646Y-48750302D01*
X102035647Y-48750301D01*
X102035647Y-48750300D01*
X102055492Y-48625003D01*
X102055492Y-48624996D01*
X102035647Y-48499699D01*
X102035647Y-48499698D01*
X102035646Y-48499696D01*
X101978050Y-48386658D01*
X101978046Y-48386654D01*
X101978045Y-48386652D01*
X101888347Y-48296954D01*
X101888344Y-48296952D01*
X101888342Y-48296950D01*
X101775304Y-48239354D01*
X101775303Y-48239353D01*
X101775300Y-48239352D01*
X101650003Y-48219508D01*
X101649997Y-48219508D01*
X101524699Y-48239352D01*
X101524698Y-48239352D01*
X101449337Y-48277751D01*
X101411658Y-48296950D01*
X101411657Y-48296950D01*
X101411657Y-48296951D01*
X101411652Y-48296954D01*
X101321954Y-48386652D01*
X101321951Y-48386657D01*
X101264352Y-48499698D01*
X101264352Y-48499699D01*
X101244508Y-48624996D01*
X101244508Y-48625003D01*
X96160492Y-48625003D01*
X96160492Y-48624996D01*
X96140647Y-48499699D01*
X96140647Y-48499698D01*
X96140646Y-48499696D01*
X96083050Y-48386658D01*
X96083046Y-48386654D01*
X96083045Y-48386652D01*
X95993347Y-48296954D01*
X95993344Y-48296952D01*
X95993342Y-48296950D01*
X95880304Y-48239354D01*
X95880303Y-48239353D01*
X95880300Y-48239352D01*
X95755003Y-48219508D01*
X95754997Y-48219508D01*
X95629699Y-48239352D01*
X95629698Y-48239352D01*
X95554337Y-48277751D01*
X95516658Y-48296950D01*
X95516657Y-48296951D01*
X95516652Y-48296954D01*
X95426954Y-48386652D01*
X95426951Y-48386657D01*
X95369352Y-48499698D01*
X95369352Y-48499699D01*
X95349508Y-48624996D01*
X95349508Y-48625003D01*
X92155499Y-48625003D01*
X92155499Y-47575003D01*
X96019508Y-47575003D01*
X96039352Y-47700300D01*
X96039352Y-47700301D01*
X96039354Y-47700304D01*
X96096950Y-47813342D01*
X96096952Y-47813344D01*
X96096954Y-47813347D01*
X96186652Y-47903045D01*
X96186654Y-47903046D01*
X96186658Y-47903050D01*
X96299696Y-47960646D01*
X96299697Y-47960646D01*
X96299699Y-47960647D01*
X96424997Y-47980492D01*
X96425000Y-47980492D01*
X96425003Y-47980492D01*
X96550300Y-47960647D01*
X96550301Y-47960647D01*
X96550302Y-47960646D01*
X96550304Y-47960646D01*
X96663342Y-47903050D01*
X96753050Y-47813342D01*
X96810646Y-47700304D01*
X96810646Y-47700302D01*
X96810647Y-47700301D01*
X96810647Y-47700300D01*
X96826532Y-47600003D01*
X103494508Y-47600003D01*
X103514352Y-47725300D01*
X103514352Y-47725301D01*
X103514354Y-47725304D01*
X103571950Y-47838342D01*
X103571952Y-47838344D01*
X103571954Y-47838347D01*
X103661652Y-47928045D01*
X103661654Y-47928046D01*
X103661658Y-47928050D01*
X103774696Y-47985646D01*
X103774697Y-47985646D01*
X103774699Y-47985647D01*
X103899997Y-48005492D01*
X103900000Y-48005492D01*
X103900003Y-48005492D01*
X104025300Y-47985647D01*
X104025301Y-47985647D01*
X104025302Y-47985646D01*
X104025304Y-47985646D01*
X104138342Y-47928050D01*
X104141389Y-47925003D01*
X104542008Y-47925003D01*
X104561852Y-48050300D01*
X104561852Y-48050301D01*
X104561854Y-48050304D01*
X104619450Y-48163342D01*
X104619452Y-48163344D01*
X104619454Y-48163347D01*
X104709152Y-48253045D01*
X104709154Y-48253046D01*
X104709158Y-48253050D01*
X104822196Y-48310646D01*
X104822197Y-48310646D01*
X104822199Y-48310647D01*
X104947497Y-48330492D01*
X104947500Y-48330492D01*
X104947503Y-48330492D01*
X105072800Y-48310647D01*
X105072801Y-48310647D01*
X105072802Y-48310646D01*
X105072804Y-48310646D01*
X105185842Y-48253050D01*
X105275550Y-48163342D01*
X105333146Y-48050304D01*
X105333146Y-48050302D01*
X105333147Y-48050301D01*
X105333147Y-48050300D01*
X105352992Y-47925003D01*
X105352992Y-47924996D01*
X105333147Y-47799699D01*
X105333147Y-47799698D01*
X105333146Y-47799696D01*
X105275550Y-47686658D01*
X105275546Y-47686654D01*
X105275545Y-47686652D01*
X105185847Y-47596954D01*
X105185844Y-47596952D01*
X105185842Y-47596950D01*
X105072804Y-47539354D01*
X105072803Y-47539353D01*
X105072800Y-47539352D01*
X104947503Y-47519508D01*
X104947497Y-47519508D01*
X104822199Y-47539352D01*
X104822198Y-47539352D01*
X104756537Y-47572809D01*
X104709158Y-47596950D01*
X104709156Y-47596951D01*
X104709157Y-47596951D01*
X104709152Y-47596954D01*
X104619454Y-47686652D01*
X104619451Y-47686657D01*
X104619450Y-47686658D01*
X104618811Y-47687913D01*
X104561852Y-47799698D01*
X104561852Y-47799699D01*
X104542008Y-47924996D01*
X104542008Y-47925003D01*
X104141389Y-47925003D01*
X104228050Y-47838342D01*
X104285646Y-47725304D01*
X104285646Y-47725302D01*
X104285647Y-47725301D01*
X104285647Y-47725300D01*
X104305492Y-47600003D01*
X104305492Y-47599996D01*
X104285647Y-47474699D01*
X104285647Y-47474698D01*
X104272909Y-47449699D01*
X104228050Y-47361658D01*
X104228046Y-47361654D01*
X104228045Y-47361652D01*
X104138347Y-47271954D01*
X104138344Y-47271952D01*
X104138342Y-47271950D01*
X104025304Y-47214354D01*
X104025303Y-47214353D01*
X104025300Y-47214352D01*
X103900003Y-47194508D01*
X103899997Y-47194508D01*
X103774699Y-47214352D01*
X103774698Y-47214352D01*
X103710723Y-47246950D01*
X103661658Y-47271950D01*
X103661657Y-47271951D01*
X103661652Y-47271954D01*
X103571954Y-47361652D01*
X103571951Y-47361657D01*
X103514352Y-47474698D01*
X103514352Y-47474699D01*
X103494508Y-47599996D01*
X103494508Y-47600003D01*
X96826532Y-47600003D01*
X96830492Y-47575003D01*
X96830492Y-47574996D01*
X96810647Y-47449699D01*
X96810647Y-47449698D01*
X96800610Y-47430000D01*
X96753050Y-47336658D01*
X96753046Y-47336654D01*
X96753045Y-47336652D01*
X96663347Y-47246954D01*
X96663344Y-47246952D01*
X96663342Y-47246950D01*
X96550304Y-47189354D01*
X96550303Y-47189353D01*
X96550300Y-47189352D01*
X96425003Y-47169508D01*
X96424997Y-47169508D01*
X96299699Y-47189352D01*
X96299698Y-47189352D01*
X96224337Y-47227751D01*
X96186658Y-47246950D01*
X96186656Y-47246951D01*
X96186657Y-47246951D01*
X96186652Y-47246954D01*
X96096954Y-47336652D01*
X96096951Y-47336657D01*
X96039352Y-47449698D01*
X96039352Y-47449699D01*
X96019508Y-47574996D01*
X96019508Y-47575003D01*
X92155499Y-47575003D01*
X92155499Y-46950003D01*
X94694508Y-46950003D01*
X94714352Y-47075300D01*
X94714352Y-47075301D01*
X94732805Y-47111517D01*
X94771950Y-47188342D01*
X94771952Y-47188344D01*
X94771954Y-47188347D01*
X94861652Y-47278045D01*
X94861654Y-47278046D01*
X94861658Y-47278050D01*
X94974696Y-47335646D01*
X94974697Y-47335646D01*
X94974699Y-47335647D01*
X95099997Y-47355492D01*
X95100000Y-47355492D01*
X95100003Y-47355492D01*
X95225300Y-47335647D01*
X95225301Y-47335647D01*
X95225302Y-47335646D01*
X95225304Y-47335646D01*
X95338342Y-47278050D01*
X95428050Y-47188342D01*
X95485646Y-47075304D01*
X95485646Y-47075302D01*
X95485647Y-47075301D01*
X95485647Y-47075300D01*
X95505492Y-46950003D01*
X95505492Y-46949996D01*
X95485647Y-46824699D01*
X95485647Y-46824698D01*
X95485646Y-46824696D01*
X95428050Y-46711658D01*
X95428046Y-46711654D01*
X95428045Y-46711652D01*
X95338347Y-46621954D01*
X95338344Y-46621952D01*
X95338342Y-46621950D01*
X95225304Y-46564354D01*
X95225303Y-46564353D01*
X95225300Y-46564352D01*
X95100003Y-46544508D01*
X95099997Y-46544508D01*
X94974699Y-46564352D01*
X94974698Y-46564352D01*
X94931430Y-46586399D01*
X94861658Y-46621950D01*
X94861656Y-46621951D01*
X94861657Y-46621951D01*
X94861652Y-46621954D01*
X94771954Y-46711652D01*
X94771951Y-46711657D01*
X94771950Y-46711658D01*
X94752751Y-46749337D01*
X94714352Y-46824698D01*
X94714352Y-46824699D01*
X94694508Y-46949996D01*
X94694508Y-46950003D01*
X92155499Y-46950003D01*
X92155499Y-46450003D01*
X106219508Y-46450003D01*
X106239352Y-46575300D01*
X106239352Y-46575301D01*
X106257805Y-46611517D01*
X106296950Y-46688342D01*
X106296952Y-46688344D01*
X106296954Y-46688347D01*
X106386652Y-46778045D01*
X106386654Y-46778046D01*
X106386658Y-46778050D01*
X106499696Y-46835646D01*
X106499697Y-46835646D01*
X106499699Y-46835647D01*
X106624997Y-46855492D01*
X106625000Y-46855492D01*
X106625003Y-46855492D01*
X106750300Y-46835647D01*
X106750301Y-46835647D01*
X106750302Y-46835646D01*
X106750304Y-46835646D01*
X106863342Y-46778050D01*
X106953050Y-46688342D01*
X107010646Y-46575304D01*
X107010646Y-46575302D01*
X107010647Y-46575301D01*
X107010647Y-46575300D01*
X107030492Y-46450003D01*
X107030492Y-46449996D01*
X107010647Y-46324699D01*
X107010647Y-46324698D01*
X107010646Y-46324696D01*
X106953050Y-46211658D01*
X106953046Y-46211654D01*
X106953045Y-46211652D01*
X106863347Y-46121954D01*
X106863344Y-46121952D01*
X106863342Y-46121950D01*
X106750304Y-46064354D01*
X106750303Y-46064353D01*
X106750300Y-46064352D01*
X106625003Y-46044508D01*
X106624997Y-46044508D01*
X106499699Y-46064352D01*
X106499698Y-46064352D01*
X106459525Y-46084822D01*
X106386658Y-46121950D01*
X106386657Y-46121951D01*
X106386652Y-46121954D01*
X106296954Y-46211652D01*
X106296951Y-46211657D01*
X106296950Y-46211658D01*
X106296894Y-46211768D01*
X106239352Y-46324698D01*
X106239352Y-46324699D01*
X106219508Y-46449996D01*
X106219508Y-46450003D01*
X92155499Y-46450003D01*
X92155499Y-44000003D01*
X92594508Y-44000003D01*
X92614352Y-44125300D01*
X92614352Y-44125301D01*
X92622522Y-44141335D01*
X92671950Y-44238342D01*
X92671952Y-44238344D01*
X92671954Y-44238347D01*
X92761652Y-44328045D01*
X92761654Y-44328046D01*
X92761658Y-44328050D01*
X92874696Y-44385646D01*
X92874697Y-44385646D01*
X92874699Y-44385647D01*
X92999997Y-44405492D01*
X93000000Y-44405492D01*
X93000003Y-44405492D01*
X93125300Y-44385647D01*
X93125301Y-44385647D01*
X93125302Y-44385646D01*
X93125304Y-44385646D01*
X93238342Y-44328050D01*
X93328050Y-44238342D01*
X93385646Y-44125304D01*
X93385646Y-44125302D01*
X93385647Y-44125301D01*
X93385647Y-44125300D01*
X93405492Y-44000003D01*
X93405492Y-43999996D01*
X93385647Y-43874699D01*
X93385647Y-43874698D01*
X93383578Y-43870638D01*
X93328050Y-43761658D01*
X93328046Y-43761654D01*
X93328045Y-43761652D01*
X93238347Y-43671954D01*
X93238344Y-43671952D01*
X93238342Y-43671950D01*
X93125304Y-43614354D01*
X93125303Y-43614353D01*
X93125300Y-43614352D01*
X93034699Y-43600003D01*
X99444508Y-43600003D01*
X99464352Y-43725300D01*
X99464352Y-43725301D01*
X99464354Y-43725304D01*
X99521950Y-43838342D01*
X99521952Y-43838344D01*
X99521954Y-43838347D01*
X99611652Y-43928045D01*
X99611654Y-43928046D01*
X99611658Y-43928050D01*
X99724696Y-43985646D01*
X99724697Y-43985646D01*
X99724699Y-43985647D01*
X99849997Y-44005492D01*
X99850000Y-44005492D01*
X99850003Y-44005492D01*
X99975300Y-43985647D01*
X99975301Y-43985647D01*
X99975302Y-43985646D01*
X99975304Y-43985646D01*
X100088342Y-43928050D01*
X100098092Y-43918299D01*
X100159412Y-43884815D01*
X100229104Y-43889797D01*
X100285039Y-43931667D01*
X100308247Y-43986582D01*
X100314852Y-44028288D01*
X100314852Y-44028289D01*
X100319117Y-44036659D01*
X100372450Y-44141330D01*
X100372452Y-44141332D01*
X100372454Y-44141335D01*
X100462152Y-44231033D01*
X100462154Y-44231034D01*
X100462158Y-44231038D01*
X100575196Y-44288634D01*
X100575197Y-44288634D01*
X100575199Y-44288635D01*
X100700497Y-44308480D01*
X100700500Y-44308480D01*
X100700503Y-44308480D01*
X100825800Y-44288635D01*
X100825801Y-44288635D01*
X100825802Y-44288634D01*
X100825804Y-44288634D01*
X100938842Y-44231038D01*
X101028550Y-44141330D01*
X101086146Y-44028292D01*
X101086146Y-44028290D01*
X101086147Y-44028289D01*
X101086147Y-44028288D01*
X101105992Y-43902991D01*
X101105992Y-43902984D01*
X101086147Y-43777687D01*
X101086147Y-43777686D01*
X101077977Y-43761652D01*
X101028550Y-43664646D01*
X101028546Y-43664642D01*
X101028545Y-43664640D01*
X100938847Y-43574942D01*
X100938844Y-43574940D01*
X100938842Y-43574938D01*
X100889905Y-43550003D01*
X101694508Y-43550003D01*
X101714352Y-43675300D01*
X101714352Y-43675301D01*
X101714354Y-43675304D01*
X101771950Y-43788342D01*
X101771952Y-43788344D01*
X101771954Y-43788347D01*
X101833426Y-43849819D01*
X101866911Y-43911142D01*
X101861927Y-43980834D01*
X101833426Y-44025181D01*
X101821954Y-44036652D01*
X101821951Y-44036657D01*
X101821950Y-44036658D01*
X101802751Y-44074337D01*
X101764352Y-44149698D01*
X101764352Y-44149699D01*
X101744508Y-44274996D01*
X101744508Y-44275003D01*
X101764352Y-44400300D01*
X101764352Y-44400301D01*
X101764354Y-44400304D01*
X101821950Y-44513342D01*
X101821952Y-44513344D01*
X101821954Y-44513347D01*
X101911652Y-44603045D01*
X101911654Y-44603046D01*
X101911658Y-44603050D01*
X102024696Y-44660646D01*
X102024697Y-44660646D01*
X102024699Y-44660647D01*
X102149997Y-44680492D01*
X102150000Y-44680492D01*
X102150003Y-44680492D01*
X102275300Y-44660647D01*
X102275301Y-44660647D01*
X102275302Y-44660646D01*
X102275304Y-44660646D01*
X102388342Y-44603050D01*
X102478050Y-44513342D01*
X102535646Y-44400304D01*
X102535646Y-44400302D01*
X102539515Y-44392710D01*
X102587490Y-44341914D01*
X102655311Y-44325119D01*
X102721446Y-44347657D01*
X102760485Y-44392710D01*
X102764353Y-44400302D01*
X102764354Y-44400304D01*
X102821950Y-44513342D01*
X102821952Y-44513344D01*
X102821954Y-44513347D01*
X102911652Y-44603045D01*
X102911654Y-44603046D01*
X102911658Y-44603050D01*
X103024696Y-44660646D01*
X103024697Y-44660646D01*
X103024699Y-44660647D01*
X103149997Y-44680492D01*
X103150000Y-44680492D01*
X103150003Y-44680492D01*
X103184659Y-44675003D01*
X104369508Y-44675003D01*
X104389352Y-44800300D01*
X104389352Y-44800301D01*
X104389354Y-44800304D01*
X104446950Y-44913342D01*
X104446952Y-44913344D01*
X104446954Y-44913347D01*
X104536652Y-45003045D01*
X104536654Y-45003046D01*
X104536658Y-45003050D01*
X104649696Y-45060646D01*
X104649697Y-45060646D01*
X104649699Y-45060647D01*
X104774997Y-45080492D01*
X104775000Y-45080492D01*
X104775003Y-45080492D01*
X104900300Y-45060647D01*
X104900301Y-45060647D01*
X104900302Y-45060646D01*
X104900304Y-45060646D01*
X105013342Y-45003050D01*
X105103050Y-44913342D01*
X105160646Y-44800304D01*
X105160646Y-44800302D01*
X105160647Y-44800301D01*
X105160647Y-44800300D01*
X105180492Y-44675003D01*
X105180492Y-44674996D01*
X105160647Y-44549699D01*
X105160647Y-44549698D01*
X105142125Y-44513347D01*
X105103050Y-44436658D01*
X105103046Y-44436654D01*
X105103045Y-44436652D01*
X105013347Y-44346954D01*
X105013344Y-44346952D01*
X105013342Y-44346950D01*
X104900304Y-44289354D01*
X104900303Y-44289353D01*
X104900300Y-44289352D01*
X104775003Y-44269508D01*
X104774997Y-44269508D01*
X104649699Y-44289352D01*
X104649698Y-44289352D01*
X104574337Y-44327751D01*
X104536658Y-44346950D01*
X104536657Y-44346950D01*
X104536657Y-44346951D01*
X104536652Y-44346954D01*
X104446954Y-44436652D01*
X104446951Y-44436657D01*
X104389352Y-44549698D01*
X104389352Y-44549699D01*
X104369508Y-44674996D01*
X104369508Y-44675003D01*
X103184659Y-44675003D01*
X103275300Y-44660647D01*
X103275301Y-44660647D01*
X103275302Y-44660646D01*
X103275304Y-44660646D01*
X103388342Y-44603050D01*
X103478050Y-44513342D01*
X103535646Y-44400304D01*
X103542863Y-44354735D01*
X103572791Y-44291603D01*
X103632102Y-44254671D01*
X103645916Y-44251664D01*
X103764104Y-44232946D01*
X103877142Y-44175350D01*
X103966850Y-44085642D01*
X103993844Y-44032661D01*
X104041815Y-43981869D01*
X104109636Y-43965073D01*
X104160620Y-43978474D01*
X104174696Y-43985646D01*
X104174698Y-43985646D01*
X104174700Y-43985647D01*
X104174699Y-43985647D01*
X104299997Y-44005492D01*
X104300000Y-44005492D01*
X104300003Y-44005492D01*
X104425300Y-43985647D01*
X104425301Y-43985647D01*
X104425302Y-43985646D01*
X104425304Y-43985646D01*
X104538342Y-43928050D01*
X104628050Y-43838342D01*
X104685646Y-43725304D01*
X104685646Y-43725302D01*
X104685647Y-43725301D01*
X104685647Y-43725300D01*
X104705492Y-43600003D01*
X104705492Y-43599996D01*
X104685647Y-43474699D01*
X104685647Y-43474698D01*
X104685646Y-43474696D01*
X104628050Y-43361658D01*
X104628046Y-43361654D01*
X104628045Y-43361652D01*
X104538347Y-43271954D01*
X104538338Y-43271947D01*
X104462591Y-43233352D01*
X104411795Y-43185378D01*
X104395000Y-43117557D01*
X104417538Y-43051422D01*
X104431206Y-43035186D01*
X104478046Y-42988346D01*
X104478050Y-42988342D01*
X104535646Y-42875304D01*
X104535646Y-42875302D01*
X104535647Y-42875301D01*
X104535647Y-42875300D01*
X104555492Y-42750003D01*
X104555492Y-42749996D01*
X104534120Y-42615056D01*
X104537393Y-42614537D01*
X104535872Y-42561747D01*
X104571937Y-42501905D01*
X104634630Y-42471061D01*
X104636300Y-42470783D01*
X104700304Y-42460646D01*
X104813342Y-42403050D01*
X104866389Y-42350003D01*
X108019508Y-42350003D01*
X108039352Y-42475300D01*
X108039352Y-42475301D01*
X108039354Y-42475304D01*
X108096950Y-42588342D01*
X108096952Y-42588344D01*
X108096954Y-42588347D01*
X108186652Y-42678045D01*
X108186654Y-42678046D01*
X108186658Y-42678050D01*
X108299696Y-42735646D01*
X108299697Y-42735646D01*
X108299699Y-42735647D01*
X108424997Y-42755492D01*
X108425000Y-42755492D01*
X108425003Y-42755492D01*
X108550300Y-42735647D01*
X108550301Y-42735647D01*
X108550302Y-42735646D01*
X108550304Y-42735646D01*
X108663342Y-42678050D01*
X108753050Y-42588342D01*
X108810646Y-42475304D01*
X108810646Y-42475302D01*
X108810647Y-42475301D01*
X108810647Y-42475300D01*
X108826532Y-42375003D01*
X112544508Y-42375003D01*
X112564352Y-42500300D01*
X112564352Y-42500301D01*
X112570139Y-42511658D01*
X112621950Y-42613342D01*
X112621952Y-42613344D01*
X112621954Y-42613347D01*
X112711652Y-42703045D01*
X112711654Y-42703046D01*
X112711658Y-42703050D01*
X112824696Y-42760646D01*
X112824697Y-42760646D01*
X112824699Y-42760647D01*
X112949997Y-42780492D01*
X112950000Y-42780492D01*
X112950003Y-42780492D01*
X113075300Y-42760647D01*
X113075301Y-42760647D01*
X113075302Y-42760646D01*
X113075304Y-42760646D01*
X113188342Y-42703050D01*
X113278050Y-42613342D01*
X113335646Y-42500304D01*
X113335646Y-42500302D01*
X113335647Y-42500301D01*
X113335647Y-42500300D01*
X113355492Y-42375003D01*
X113355492Y-42374996D01*
X113335647Y-42249699D01*
X113335647Y-42249698D01*
X113322909Y-42224699D01*
X113278050Y-42136658D01*
X113278046Y-42136654D01*
X113278045Y-42136652D01*
X113188347Y-42046954D01*
X113188344Y-42046952D01*
X113188342Y-42046950D01*
X113075304Y-41989354D01*
X113075303Y-41989353D01*
X113075300Y-41989352D01*
X112950003Y-41969508D01*
X112949997Y-41969508D01*
X112824699Y-41989352D01*
X112824698Y-41989352D01*
X112760723Y-42021950D01*
X112711658Y-42046950D01*
X112711657Y-42046951D01*
X112711652Y-42046954D01*
X112621954Y-42136652D01*
X112621951Y-42136657D01*
X112621950Y-42136658D01*
X112615430Y-42149455D01*
X112564352Y-42249698D01*
X112564352Y-42249699D01*
X112544508Y-42374996D01*
X112544508Y-42375003D01*
X108826532Y-42375003D01*
X108830492Y-42350003D01*
X108830492Y-42349996D01*
X108810647Y-42224699D01*
X108810647Y-42224698D01*
X108803129Y-42209944D01*
X108753050Y-42111658D01*
X108753046Y-42111654D01*
X108753045Y-42111652D01*
X108663347Y-42021954D01*
X108663344Y-42021952D01*
X108663342Y-42021950D01*
X108550304Y-41964354D01*
X108550303Y-41964353D01*
X108550300Y-41964352D01*
X108425003Y-41944508D01*
X108424997Y-41944508D01*
X108299699Y-41964352D01*
X108299698Y-41964352D01*
X108224337Y-42002751D01*
X108186658Y-42021950D01*
X108186656Y-42021951D01*
X108186657Y-42021951D01*
X108186652Y-42021954D01*
X108096954Y-42111652D01*
X108096951Y-42111657D01*
X108039352Y-42224698D01*
X108039352Y-42224699D01*
X108019508Y-42349996D01*
X108019508Y-42350003D01*
X104866389Y-42350003D01*
X104903050Y-42313342D01*
X104960646Y-42200304D01*
X104960646Y-42200302D01*
X104960647Y-42200301D01*
X104960647Y-42200300D01*
X104980492Y-42075003D01*
X104980492Y-42074996D01*
X104960647Y-41949699D01*
X104960647Y-41949698D01*
X104960646Y-41949696D01*
X104903050Y-41836658D01*
X104903046Y-41836654D01*
X104903045Y-41836652D01*
X104813347Y-41746954D01*
X104813344Y-41746952D01*
X104813342Y-41746950D01*
X104700304Y-41689354D01*
X104700303Y-41689353D01*
X104700300Y-41689352D01*
X104575003Y-41669508D01*
X104574997Y-41669508D01*
X104449699Y-41689352D01*
X104449698Y-41689352D01*
X104402607Y-41713347D01*
X104336658Y-41746950D01*
X104336657Y-41746950D01*
X104336657Y-41746951D01*
X104336652Y-41746954D01*
X104246954Y-41836652D01*
X104246951Y-41836657D01*
X104246950Y-41836658D01*
X104234727Y-41860647D01*
X104189352Y-41949698D01*
X104189352Y-41949699D01*
X104169508Y-42074996D01*
X104169508Y-42075003D01*
X104190880Y-42209944D01*
X104187610Y-42210461D01*
X104189119Y-42263282D01*
X104153039Y-42323115D01*
X104090339Y-42353944D01*
X104088591Y-42354233D01*
X104024699Y-42364352D01*
X104024698Y-42364352D01*
X103978500Y-42387892D01*
X103911658Y-42421950D01*
X103911657Y-42421951D01*
X103911652Y-42421954D01*
X103821954Y-42511652D01*
X103821951Y-42511657D01*
X103764352Y-42624698D01*
X103764352Y-42624699D01*
X103744508Y-42749996D01*
X103744508Y-42750003D01*
X103764352Y-42875300D01*
X103764352Y-42875301D01*
X103778489Y-42903045D01*
X103821950Y-42988342D01*
X103821952Y-42988344D01*
X103821954Y-42988347D01*
X103911652Y-43078045D01*
X103911654Y-43078046D01*
X103911658Y-43078050D01*
X103987409Y-43116647D01*
X104038204Y-43164621D01*
X104054999Y-43232442D01*
X104032462Y-43298577D01*
X104018795Y-43314811D01*
X103971954Y-43361652D01*
X103971949Y-43361659D01*
X103944956Y-43414636D01*
X103896982Y-43465431D01*
X103829161Y-43482226D01*
X103778178Y-43468825D01*
X103764104Y-43461654D01*
X103764103Y-43461653D01*
X103764100Y-43461652D01*
X103638803Y-43441808D01*
X103638797Y-43441808D01*
X103513499Y-43461652D01*
X103513498Y-43461652D01*
X103443152Y-43497496D01*
X103400458Y-43519250D01*
X103400457Y-43519251D01*
X103400452Y-43519254D01*
X103310754Y-43608952D01*
X103310751Y-43608957D01*
X103310750Y-43608958D01*
X103291551Y-43646637D01*
X103253152Y-43721998D01*
X103253152Y-43721999D01*
X103245936Y-43767563D01*
X103216007Y-43830698D01*
X103156695Y-43867629D01*
X103142861Y-43870638D01*
X103024698Y-43889352D01*
X102954270Y-43925238D01*
X102911658Y-43946950D01*
X102911656Y-43946950D01*
X102911657Y-43946951D01*
X102911652Y-43946954D01*
X102821954Y-44036652D01*
X102821949Y-44036659D01*
X102760484Y-44157290D01*
X102712510Y-44208085D01*
X102644689Y-44224880D01*
X102578554Y-44202342D01*
X102539516Y-44157290D01*
X102503009Y-44085642D01*
X102478050Y-44036658D01*
X102478047Y-44036655D01*
X102478045Y-44036652D01*
X102416573Y-43975180D01*
X102383088Y-43913857D01*
X102388072Y-43844165D01*
X102416576Y-43799815D01*
X102428050Y-43788342D01*
X102485646Y-43675304D01*
X102485646Y-43675302D01*
X102485647Y-43675301D01*
X102485647Y-43675300D01*
X102505492Y-43550003D01*
X102505492Y-43549996D01*
X102485647Y-43424699D01*
X102485647Y-43424698D01*
X102480520Y-43414636D01*
X102428050Y-43311658D01*
X102428046Y-43311654D01*
X102428045Y-43311652D01*
X102338347Y-43221954D01*
X102338344Y-43221952D01*
X102338342Y-43221950D01*
X102225304Y-43164354D01*
X102225303Y-43164353D01*
X102225300Y-43164352D01*
X102100003Y-43144508D01*
X102099997Y-43144508D01*
X101974699Y-43164352D01*
X101974698Y-43164352D01*
X101899337Y-43202751D01*
X101861658Y-43221950D01*
X101861656Y-43221951D01*
X101861657Y-43221951D01*
X101861652Y-43221954D01*
X101771954Y-43311652D01*
X101771951Y-43311657D01*
X101771950Y-43311658D01*
X101752751Y-43349337D01*
X101714352Y-43424698D01*
X101714352Y-43424699D01*
X101694508Y-43549996D01*
X101694508Y-43550003D01*
X100889905Y-43550003D01*
X100825804Y-43517342D01*
X100825803Y-43517341D01*
X100825800Y-43517340D01*
X100700503Y-43497496D01*
X100700497Y-43497496D01*
X100575199Y-43517340D01*
X100575198Y-43517340D01*
X100511109Y-43549996D01*
X100462158Y-43574938D01*
X100462157Y-43574939D01*
X100462154Y-43574940D01*
X100452404Y-43584691D01*
X100391079Y-43618174D01*
X100321388Y-43613187D01*
X100265456Y-43571314D01*
X100242252Y-43516405D01*
X100235646Y-43474696D01*
X100178050Y-43361658D01*
X100178046Y-43361654D01*
X100178045Y-43361652D01*
X100088347Y-43271954D01*
X100088344Y-43271952D01*
X100088342Y-43271950D01*
X99975304Y-43214354D01*
X99975303Y-43214353D01*
X99975300Y-43214352D01*
X99850003Y-43194508D01*
X99849997Y-43194508D01*
X99724699Y-43214352D01*
X99724698Y-43214352D01*
X99687410Y-43233352D01*
X99611658Y-43271950D01*
X99611656Y-43271951D01*
X99611657Y-43271951D01*
X99611652Y-43271954D01*
X99521954Y-43361652D01*
X99521951Y-43361657D01*
X99521950Y-43361658D01*
X99502751Y-43399337D01*
X99464352Y-43474698D01*
X99464352Y-43474699D01*
X99444508Y-43599996D01*
X99444508Y-43600003D01*
X93034699Y-43600003D01*
X93000003Y-43594508D01*
X92999997Y-43594508D01*
X92874699Y-43614352D01*
X92874698Y-43614352D01*
X92799337Y-43652751D01*
X92761658Y-43671950D01*
X92761656Y-43671951D01*
X92761657Y-43671951D01*
X92761652Y-43671954D01*
X92671954Y-43761652D01*
X92671951Y-43761657D01*
X92671950Y-43761658D01*
X92663783Y-43777687D01*
X92614352Y-43874698D01*
X92614352Y-43874699D01*
X92594508Y-43999996D01*
X92594508Y-44000003D01*
X92155499Y-44000003D01*
X92155499Y-42425003D01*
X95919508Y-42425003D01*
X95939352Y-42550300D01*
X95939352Y-42550301D01*
X95957805Y-42586517D01*
X95996950Y-42663342D01*
X95996952Y-42663344D01*
X95996954Y-42663347D01*
X96086652Y-42753045D01*
X96086654Y-42753046D01*
X96086658Y-42753050D01*
X96199696Y-42810646D01*
X96199698Y-42810647D01*
X96203221Y-42811205D01*
X96207155Y-42813070D01*
X96208980Y-42813663D01*
X96208903Y-42813898D01*
X96266356Y-42841134D01*
X96303287Y-42900446D01*
X96302289Y-42970308D01*
X96294309Y-42989971D01*
X96289353Y-42999697D01*
X96289352Y-42999699D01*
X96269508Y-43124996D01*
X96269508Y-43125003D01*
X96289352Y-43250300D01*
X96289352Y-43250301D01*
X96289354Y-43250304D01*
X96346950Y-43363342D01*
X96346952Y-43363344D01*
X96346954Y-43363347D01*
X96436652Y-43453045D01*
X96436654Y-43453046D01*
X96436658Y-43453050D01*
X96549696Y-43510646D01*
X96549697Y-43510646D01*
X96549699Y-43510647D01*
X96674997Y-43530492D01*
X96675000Y-43530492D01*
X96675003Y-43530492D01*
X96800300Y-43510647D01*
X96800301Y-43510647D01*
X96800302Y-43510646D01*
X96800304Y-43510646D01*
X96913342Y-43453050D01*
X97003050Y-43363342D01*
X97060646Y-43250304D01*
X97060646Y-43250302D01*
X97060647Y-43250301D01*
X97060647Y-43250300D01*
X97080492Y-43125003D01*
X97080492Y-43124996D01*
X97060647Y-42999699D01*
X97060647Y-42999698D01*
X97040749Y-42960647D01*
X97003050Y-42886658D01*
X97003046Y-42886654D01*
X97003045Y-42886652D01*
X96913347Y-42796954D01*
X96913344Y-42796952D01*
X96913342Y-42796950D01*
X96800304Y-42739354D01*
X96796778Y-42738795D01*
X96792837Y-42736927D01*
X96791020Y-42736337D01*
X96791096Y-42736102D01*
X96733644Y-42708867D01*
X96696712Y-42649556D01*
X96697709Y-42579693D01*
X96705693Y-42560025D01*
X96710645Y-42550305D01*
X96710646Y-42550304D01*
X96710646Y-42550301D01*
X96710647Y-42550300D01*
X96710694Y-42550003D01*
X101144508Y-42550003D01*
X101164352Y-42675300D01*
X101164352Y-42675301D01*
X101165752Y-42678048D01*
X101221950Y-42788342D01*
X101221952Y-42788344D01*
X101221954Y-42788347D01*
X101311652Y-42878045D01*
X101311654Y-42878046D01*
X101311658Y-42878050D01*
X101424696Y-42935646D01*
X101424697Y-42935646D01*
X101424699Y-42935647D01*
X101549997Y-42955492D01*
X101550000Y-42955492D01*
X101550003Y-42955492D01*
X101675300Y-42935647D01*
X101675301Y-42935647D01*
X101675302Y-42935646D01*
X101675304Y-42935646D01*
X101788342Y-42878050D01*
X101878050Y-42788342D01*
X101935646Y-42675304D01*
X101935646Y-42675302D01*
X101935647Y-42675301D01*
X101935647Y-42675300D01*
X101951532Y-42575003D01*
X102294508Y-42575003D01*
X102314352Y-42700300D01*
X102314352Y-42700301D01*
X102315752Y-42703048D01*
X102371950Y-42813342D01*
X102371952Y-42813344D01*
X102371954Y-42813347D01*
X102461652Y-42903045D01*
X102461654Y-42903046D01*
X102461658Y-42903050D01*
X102574696Y-42960646D01*
X102574697Y-42960646D01*
X102574699Y-42960647D01*
X102699997Y-42980492D01*
X102700000Y-42980492D01*
X102700003Y-42980492D01*
X102825300Y-42960647D01*
X102825301Y-42960647D01*
X102825302Y-42960646D01*
X102825304Y-42960646D01*
X102938342Y-42903050D01*
X103028050Y-42813342D01*
X103085646Y-42700304D01*
X103085646Y-42700302D01*
X103085647Y-42700301D01*
X103085647Y-42700300D01*
X103105492Y-42575003D01*
X103105492Y-42574996D01*
X103085647Y-42449699D01*
X103085647Y-42449698D01*
X103085646Y-42449696D01*
X103028050Y-42336658D01*
X103028046Y-42336654D01*
X103028045Y-42336652D01*
X102938347Y-42246954D01*
X102938344Y-42246952D01*
X102938342Y-42246950D01*
X102825304Y-42189354D01*
X102825303Y-42189353D01*
X102825300Y-42189352D01*
X102700003Y-42169508D01*
X102699997Y-42169508D01*
X102574699Y-42189352D01*
X102574698Y-42189352D01*
X102510723Y-42221950D01*
X102461658Y-42246950D01*
X102461657Y-42246950D01*
X102461657Y-42246951D01*
X102461652Y-42246954D01*
X102371954Y-42336652D01*
X102371951Y-42336657D01*
X102371950Y-42336658D01*
X102362995Y-42354233D01*
X102314352Y-42449698D01*
X102314352Y-42449699D01*
X102294508Y-42574996D01*
X102294508Y-42575003D01*
X101951532Y-42575003D01*
X101955492Y-42550003D01*
X101955492Y-42549996D01*
X101935647Y-42424699D01*
X101935647Y-42424698D01*
X101934247Y-42421950D01*
X101878050Y-42311658D01*
X101878046Y-42311654D01*
X101878045Y-42311652D01*
X101788347Y-42221954D01*
X101788344Y-42221952D01*
X101788342Y-42221950D01*
X101675304Y-42164354D01*
X101675303Y-42164353D01*
X101675300Y-42164352D01*
X101550003Y-42144508D01*
X101549997Y-42144508D01*
X101424699Y-42164352D01*
X101424698Y-42164352D01*
X101359106Y-42197774D01*
X101311658Y-42221950D01*
X101311657Y-42221951D01*
X101311652Y-42221954D01*
X101221954Y-42311652D01*
X101221951Y-42311657D01*
X101221950Y-42311658D01*
X101209215Y-42336652D01*
X101164352Y-42424698D01*
X101164352Y-42424699D01*
X101144508Y-42549996D01*
X101144508Y-42550003D01*
X96710694Y-42550003D01*
X96730492Y-42425003D01*
X96730492Y-42424996D01*
X96710647Y-42299699D01*
X96710647Y-42299698D01*
X96692092Y-42263282D01*
X96653050Y-42186658D01*
X96653046Y-42186654D01*
X96653045Y-42186652D01*
X96563347Y-42096954D01*
X96563344Y-42096952D01*
X96563342Y-42096950D01*
X96450304Y-42039354D01*
X96450303Y-42039353D01*
X96450300Y-42039352D01*
X96325003Y-42019508D01*
X96324997Y-42019508D01*
X96199699Y-42039352D01*
X96199698Y-42039352D01*
X96137607Y-42070990D01*
X96086658Y-42096950D01*
X96086657Y-42096950D01*
X96086657Y-42096951D01*
X96086652Y-42096954D01*
X95996954Y-42186652D01*
X95996951Y-42186657D01*
X95996950Y-42186658D01*
X95991286Y-42197774D01*
X95939352Y-42299698D01*
X95939352Y-42299699D01*
X95919508Y-42424996D01*
X95919508Y-42425003D01*
X92155499Y-42425003D01*
X92155499Y-41475003D01*
X101144508Y-41475003D01*
X101164352Y-41600300D01*
X101164352Y-41600301D01*
X101164354Y-41600304D01*
X101221950Y-41713342D01*
X101221952Y-41713344D01*
X101221954Y-41713347D01*
X101311652Y-41803045D01*
X101311654Y-41803046D01*
X101311658Y-41803050D01*
X101424696Y-41860646D01*
X101424697Y-41860646D01*
X101424699Y-41860647D01*
X101549997Y-41880492D01*
X101550000Y-41880492D01*
X101550003Y-41880492D01*
X101675300Y-41860647D01*
X101675301Y-41860647D01*
X101675302Y-41860646D01*
X101675304Y-41860646D01*
X101788342Y-41803050D01*
X101878050Y-41713342D01*
X101935646Y-41600304D01*
X101935646Y-41600302D01*
X101935647Y-41600301D01*
X101935647Y-41600300D01*
X101951532Y-41500003D01*
X102294508Y-41500003D01*
X102314352Y-41625300D01*
X102314352Y-41625301D01*
X102314354Y-41625304D01*
X102371950Y-41738342D01*
X102371952Y-41738344D01*
X102371954Y-41738347D01*
X102461652Y-41828045D01*
X102461654Y-41828046D01*
X102461658Y-41828050D01*
X102574696Y-41885646D01*
X102574697Y-41885646D01*
X102574699Y-41885647D01*
X102699997Y-41905492D01*
X102700000Y-41905492D01*
X102700003Y-41905492D01*
X102825300Y-41885647D01*
X102825301Y-41885647D01*
X102825302Y-41885646D01*
X102825304Y-41885646D01*
X102938342Y-41828050D01*
X103028050Y-41738342D01*
X103085646Y-41625304D01*
X103085646Y-41625302D01*
X103085647Y-41625301D01*
X103085647Y-41625300D01*
X103105492Y-41500003D01*
X103105492Y-41499996D01*
X103085647Y-41374699D01*
X103085647Y-41374698D01*
X103081611Y-41366777D01*
X103028050Y-41261658D01*
X103028046Y-41261654D01*
X103028045Y-41261652D01*
X102938347Y-41171954D01*
X102938344Y-41171952D01*
X102938342Y-41171950D01*
X102825304Y-41114354D01*
X102825303Y-41114353D01*
X102825300Y-41114352D01*
X102700003Y-41094508D01*
X102699997Y-41094508D01*
X102574699Y-41114352D01*
X102574698Y-41114352D01*
X102510723Y-41146950D01*
X102461658Y-41171950D01*
X102461656Y-41171951D01*
X102461657Y-41171951D01*
X102461652Y-41171954D01*
X102371954Y-41261652D01*
X102371951Y-41261657D01*
X102314352Y-41374698D01*
X102314352Y-41374699D01*
X102294508Y-41499996D01*
X102294508Y-41500003D01*
X101951532Y-41500003D01*
X101955492Y-41475003D01*
X101955492Y-41474996D01*
X101935647Y-41349699D01*
X101935647Y-41349698D01*
X101924918Y-41328642D01*
X101878050Y-41236658D01*
X101878046Y-41236654D01*
X101878045Y-41236652D01*
X101788347Y-41146954D01*
X101788344Y-41146952D01*
X101788342Y-41146950D01*
X101675304Y-41089354D01*
X101675303Y-41089353D01*
X101675300Y-41089352D01*
X101550003Y-41069508D01*
X101549997Y-41069508D01*
X101424699Y-41089352D01*
X101424698Y-41089352D01*
X101349337Y-41127751D01*
X101311658Y-41146950D01*
X101311656Y-41146950D01*
X101311657Y-41146951D01*
X101311652Y-41146954D01*
X101221954Y-41236652D01*
X101221951Y-41236657D01*
X101164352Y-41349698D01*
X101164352Y-41349699D01*
X101144508Y-41474996D01*
X101144508Y-41475003D01*
X92155499Y-41475003D01*
X92155499Y-40775003D01*
X99969508Y-40775003D01*
X99989352Y-40900300D01*
X99989352Y-40900301D01*
X99989354Y-40900304D01*
X100046950Y-41013342D01*
X100046952Y-41013344D01*
X100046954Y-41013347D01*
X100136652Y-41103045D01*
X100136654Y-41103046D01*
X100136658Y-41103050D01*
X100249696Y-41160646D01*
X100249697Y-41160646D01*
X100249699Y-41160647D01*
X100374997Y-41180492D01*
X100375000Y-41180492D01*
X100375003Y-41180492D01*
X100500300Y-41160647D01*
X100500301Y-41160647D01*
X100500302Y-41160646D01*
X100500304Y-41160646D01*
X100613342Y-41103050D01*
X100703050Y-41013342D01*
X100760646Y-40900304D01*
X100760646Y-40900302D01*
X100760647Y-40900301D01*
X100760647Y-40900300D01*
X100780492Y-40775003D01*
X100780492Y-40774996D01*
X100759120Y-40640056D01*
X100760500Y-40639837D01*
X100758794Y-40580318D01*
X100794868Y-40520481D01*
X100857566Y-40489647D01*
X100898120Y-40489356D01*
X100899958Y-40489647D01*
X100999998Y-40505492D01*
X101000000Y-40505492D01*
X101000003Y-40505492D01*
X101125300Y-40485647D01*
X101125301Y-40485647D01*
X101125302Y-40485646D01*
X101125304Y-40485646D01*
X101238342Y-40428050D01*
X101241389Y-40425003D01*
X107144508Y-40425003D01*
X107164352Y-40550300D01*
X107164352Y-40550301D01*
X107179647Y-40580318D01*
X107221950Y-40663342D01*
X107221952Y-40663344D01*
X107221954Y-40663347D01*
X107311652Y-40753045D01*
X107311654Y-40753046D01*
X107311658Y-40753050D01*
X107424696Y-40810646D01*
X107424697Y-40810646D01*
X107424699Y-40810647D01*
X107549997Y-40830492D01*
X107550000Y-40830492D01*
X107550003Y-40830492D01*
X107675300Y-40810647D01*
X107675301Y-40810647D01*
X107675302Y-40810646D01*
X107675304Y-40810646D01*
X107788342Y-40753050D01*
X107878050Y-40663342D01*
X107935646Y-40550304D01*
X107935646Y-40550302D01*
X107935647Y-40550301D01*
X107935647Y-40550300D01*
X107955492Y-40425003D01*
X107955492Y-40424996D01*
X107951534Y-40400003D01*
X108544508Y-40400003D01*
X108564352Y-40525300D01*
X108564352Y-40525301D01*
X108570139Y-40536658D01*
X108621950Y-40638342D01*
X108621952Y-40638344D01*
X108621954Y-40638347D01*
X108711652Y-40728045D01*
X108711654Y-40728046D01*
X108711658Y-40728050D01*
X108824696Y-40785646D01*
X108824697Y-40785646D01*
X108824699Y-40785647D01*
X108949997Y-40805492D01*
X108950000Y-40805492D01*
X108950003Y-40805492D01*
X109075300Y-40785647D01*
X109075301Y-40785647D01*
X109075302Y-40785646D01*
X109075304Y-40785646D01*
X109188342Y-40728050D01*
X109278050Y-40638342D01*
X109335646Y-40525304D01*
X109335646Y-40525302D01*
X109335647Y-40525301D01*
X109335647Y-40525300D01*
X109355492Y-40400003D01*
X109355492Y-40399996D01*
X109343614Y-40325003D01*
X112619508Y-40325003D01*
X112639352Y-40450300D01*
X112639352Y-40450301D01*
X112639354Y-40450304D01*
X112696950Y-40563342D01*
X112696952Y-40563344D01*
X112696954Y-40563347D01*
X112786652Y-40653045D01*
X112786654Y-40653046D01*
X112786658Y-40653050D01*
X112899696Y-40710646D01*
X112899697Y-40710646D01*
X112899699Y-40710647D01*
X113024997Y-40730492D01*
X113025000Y-40730492D01*
X113025003Y-40730492D01*
X113150300Y-40710647D01*
X113150301Y-40710647D01*
X113150302Y-40710646D01*
X113150304Y-40710646D01*
X113263342Y-40653050D01*
X113353050Y-40563342D01*
X113410646Y-40450304D01*
X113410646Y-40450302D01*
X113410647Y-40450301D01*
X113410647Y-40450300D01*
X113430492Y-40325003D01*
X113430492Y-40324996D01*
X113410647Y-40199699D01*
X113410647Y-40199698D01*
X113404000Y-40186652D01*
X113353050Y-40086658D01*
X113353046Y-40086654D01*
X113353045Y-40086652D01*
X113263347Y-39996954D01*
X113263344Y-39996952D01*
X113263342Y-39996950D01*
X113150304Y-39939354D01*
X113150303Y-39939353D01*
X113150300Y-39939352D01*
X113025003Y-39919508D01*
X113024997Y-39919508D01*
X112899699Y-39939352D01*
X112899698Y-39939352D01*
X112830334Y-39974696D01*
X112786658Y-39996950D01*
X112786657Y-39996950D01*
X112786657Y-39996951D01*
X112786652Y-39996954D01*
X112696954Y-40086652D01*
X112696951Y-40086657D01*
X112696950Y-40086658D01*
X112677751Y-40124337D01*
X112639352Y-40199698D01*
X112639352Y-40199699D01*
X112619508Y-40324996D01*
X112619508Y-40325003D01*
X109343614Y-40325003D01*
X109335647Y-40274699D01*
X109335647Y-40274698D01*
X109310479Y-40225304D01*
X109278050Y-40161658D01*
X109278046Y-40161654D01*
X109278045Y-40161652D01*
X109188347Y-40071954D01*
X109188344Y-40071952D01*
X109188342Y-40071950D01*
X109075304Y-40014354D01*
X109075303Y-40014353D01*
X109075300Y-40014352D01*
X108950003Y-39994508D01*
X108949997Y-39994508D01*
X108824699Y-40014352D01*
X108824698Y-40014352D01*
X108749337Y-40052751D01*
X108711658Y-40071950D01*
X108711657Y-40071951D01*
X108711652Y-40071954D01*
X108621954Y-40161652D01*
X108621951Y-40161657D01*
X108564352Y-40274698D01*
X108564352Y-40274699D01*
X108544508Y-40399996D01*
X108544508Y-40400003D01*
X107951534Y-40400003D01*
X107935647Y-40299699D01*
X107935647Y-40299698D01*
X107922909Y-40274699D01*
X107878050Y-40186658D01*
X107878046Y-40186654D01*
X107878045Y-40186652D01*
X107788347Y-40096954D01*
X107788344Y-40096952D01*
X107788342Y-40096950D01*
X107675304Y-40039354D01*
X107675303Y-40039353D01*
X107675300Y-40039352D01*
X107550003Y-40019508D01*
X107549997Y-40019508D01*
X107424699Y-40039352D01*
X107424698Y-40039352D01*
X107360723Y-40071950D01*
X107311658Y-40096950D01*
X107311656Y-40096950D01*
X107311657Y-40096951D01*
X107311652Y-40096954D01*
X107221954Y-40186652D01*
X107221951Y-40186657D01*
X107221950Y-40186658D01*
X107202751Y-40224337D01*
X107164352Y-40299698D01*
X107164352Y-40299699D01*
X107144508Y-40424996D01*
X107144508Y-40425003D01*
X101241389Y-40425003D01*
X101328050Y-40338342D01*
X101385646Y-40225304D01*
X101385646Y-40225302D01*
X101385647Y-40225301D01*
X101385647Y-40225300D01*
X101405492Y-40100003D01*
X101405492Y-40099996D01*
X101385647Y-39974699D01*
X101385647Y-39974698D01*
X101367637Y-39939352D01*
X101328050Y-39861658D01*
X101328046Y-39861654D01*
X101328045Y-39861652D01*
X101238347Y-39771954D01*
X101238344Y-39771952D01*
X101238342Y-39771950D01*
X101125304Y-39714354D01*
X101125303Y-39714353D01*
X101125300Y-39714352D01*
X101000003Y-39694508D01*
X100999997Y-39694508D01*
X100874699Y-39714352D01*
X100874698Y-39714352D01*
X100799337Y-39752751D01*
X100761658Y-39771950D01*
X100761657Y-39771951D01*
X100761652Y-39771954D01*
X100671954Y-39861652D01*
X100671951Y-39861657D01*
X100614352Y-39974698D01*
X100614352Y-39974699D01*
X100594508Y-40099996D01*
X100594508Y-40100003D01*
X100615880Y-40234944D01*
X100614500Y-40235162D01*
X100616203Y-40294690D01*
X100580124Y-40354523D01*
X100517424Y-40385353D01*
X100476879Y-40385643D01*
X100375003Y-40369508D01*
X100374997Y-40369508D01*
X100249699Y-40389352D01*
X100249698Y-40389352D01*
X100179745Y-40424996D01*
X100136658Y-40446950D01*
X100136657Y-40446950D01*
X100136657Y-40446951D01*
X100136652Y-40446954D01*
X100046954Y-40536652D01*
X100046951Y-40536657D01*
X99989352Y-40649698D01*
X99989352Y-40649699D01*
X99969508Y-40774996D01*
X99969508Y-40775003D01*
X92155499Y-40775003D01*
X92155500Y-39450003D01*
X107969508Y-39450003D01*
X107989352Y-39575300D01*
X107989352Y-39575301D01*
X107989354Y-39575304D01*
X108046950Y-39688342D01*
X108046952Y-39688344D01*
X108046954Y-39688347D01*
X108136652Y-39778045D01*
X108136654Y-39778046D01*
X108136658Y-39778050D01*
X108249696Y-39835646D01*
X108249697Y-39835646D01*
X108249699Y-39835647D01*
X108374997Y-39855492D01*
X108375000Y-39855492D01*
X108375003Y-39855492D01*
X108500300Y-39835647D01*
X108500301Y-39835647D01*
X108500302Y-39835646D01*
X108500304Y-39835646D01*
X108613342Y-39778050D01*
X108703050Y-39688342D01*
X108748061Y-39600003D01*
X114869508Y-39600003D01*
X114889352Y-39725300D01*
X114889352Y-39725301D01*
X114889354Y-39725304D01*
X114946950Y-39838342D01*
X114946952Y-39838344D01*
X114946954Y-39838347D01*
X115036652Y-39928045D01*
X115036654Y-39928046D01*
X115036658Y-39928050D01*
X115149696Y-39985646D01*
X115149697Y-39985646D01*
X115149699Y-39985647D01*
X115274997Y-40005492D01*
X115275000Y-40005492D01*
X115275003Y-40005492D01*
X115400300Y-39985647D01*
X115400301Y-39985647D01*
X115400302Y-39985646D01*
X115400304Y-39985646D01*
X115513342Y-39928050D01*
X115603050Y-39838342D01*
X115660646Y-39725304D01*
X115660646Y-39725302D01*
X115660647Y-39725301D01*
X115660647Y-39725300D01*
X115680492Y-39600003D01*
X115680492Y-39599996D01*
X115660647Y-39474699D01*
X115660647Y-39474698D01*
X115648064Y-39450003D01*
X115603050Y-39361658D01*
X115603046Y-39361654D01*
X115603045Y-39361652D01*
X115513347Y-39271954D01*
X115513344Y-39271952D01*
X115513342Y-39271950D01*
X115400304Y-39214354D01*
X115400303Y-39214353D01*
X115400300Y-39214352D01*
X115275003Y-39194508D01*
X115274997Y-39194508D01*
X115149699Y-39214352D01*
X115149698Y-39214352D01*
X115074337Y-39252751D01*
X115036658Y-39271950D01*
X115036657Y-39271951D01*
X115036652Y-39271954D01*
X114946954Y-39361652D01*
X114946951Y-39361657D01*
X114889352Y-39474698D01*
X114889352Y-39474699D01*
X114869508Y-39599996D01*
X114869508Y-39600003D01*
X108748061Y-39600003D01*
X108760646Y-39575304D01*
X108760646Y-39575302D01*
X108760647Y-39575301D01*
X108760647Y-39575300D01*
X108780492Y-39450003D01*
X108780492Y-39449996D01*
X108760647Y-39324699D01*
X108760647Y-39324698D01*
X108760646Y-39324696D01*
X108703050Y-39211658D01*
X108703046Y-39211654D01*
X108703045Y-39211652D01*
X108613347Y-39121954D01*
X108613344Y-39121952D01*
X108613342Y-39121950D01*
X108500304Y-39064354D01*
X108500303Y-39064353D01*
X108500300Y-39064352D01*
X108472647Y-39059973D01*
X108409512Y-39030044D01*
X108375531Y-38975472D01*
X108337812Y-39032363D01*
X108277353Y-39059973D01*
X108249698Y-39064352D01*
X108202607Y-39088347D01*
X108136658Y-39121950D01*
X108136657Y-39121950D01*
X108136657Y-39121951D01*
X108136652Y-39121954D01*
X108046954Y-39211652D01*
X108046951Y-39211657D01*
X108046950Y-39211658D01*
X108034727Y-39235647D01*
X107989352Y-39324698D01*
X107989352Y-39324699D01*
X107969508Y-39449996D01*
X107969508Y-39450003D01*
X92155500Y-39450003D01*
X92155500Y-38850003D01*
X95564508Y-38850003D01*
X95584352Y-38975300D01*
X95584352Y-38975301D01*
X95602805Y-39011517D01*
X95641950Y-39088342D01*
X95641952Y-39088344D01*
X95641954Y-39088347D01*
X95731652Y-39178045D01*
X95731654Y-39178046D01*
X95731658Y-39178050D01*
X95844696Y-39235646D01*
X95844697Y-39235646D01*
X95844699Y-39235647D01*
X95969997Y-39255492D01*
X95970000Y-39255492D01*
X95970003Y-39255492D01*
X96095300Y-39235647D01*
X96095301Y-39235647D01*
X96095302Y-39235646D01*
X96095304Y-39235646D01*
X96208342Y-39178050D01*
X96298050Y-39088342D01*
X96355646Y-38975304D01*
X96355646Y-38975302D01*
X96355647Y-38975301D01*
X96355647Y-38975300D01*
X96375492Y-38850003D01*
X96375492Y-38849996D01*
X96355647Y-38724699D01*
X96355647Y-38724698D01*
X96355646Y-38724696D01*
X96298050Y-38611658D01*
X96298046Y-38611654D01*
X96298045Y-38611652D01*
X96208347Y-38521954D01*
X96208344Y-38521952D01*
X96208342Y-38521950D01*
X96095304Y-38464354D01*
X96095303Y-38464353D01*
X96095300Y-38464352D01*
X95970003Y-38444508D01*
X95969997Y-38444508D01*
X95844699Y-38464352D01*
X95844698Y-38464352D01*
X95774615Y-38500062D01*
X95731658Y-38521950D01*
X95731657Y-38521951D01*
X95731652Y-38521954D01*
X95641954Y-38611652D01*
X95641951Y-38611657D01*
X95584352Y-38724698D01*
X95584352Y-38724699D01*
X95564508Y-38849996D01*
X95564508Y-38850003D01*
X92155500Y-38850003D01*
X92155500Y-38425003D01*
X107969508Y-38425003D01*
X107989352Y-38550300D01*
X107989352Y-38550301D01*
X107989354Y-38550304D01*
X108046950Y-38663342D01*
X108046952Y-38663344D01*
X108046954Y-38663347D01*
X108136652Y-38753045D01*
X108136654Y-38753046D01*
X108136658Y-38753050D01*
X108220799Y-38795922D01*
X108249698Y-38810647D01*
X108277353Y-38815027D01*
X108340487Y-38844956D01*
X108374468Y-38899528D01*
X108412187Y-38842638D01*
X108472647Y-38815027D01*
X108500300Y-38810647D01*
X108500301Y-38810647D01*
X108500302Y-38810646D01*
X108500304Y-38810646D01*
X108613342Y-38753050D01*
X108703050Y-38663342D01*
X108760646Y-38550304D01*
X108760646Y-38550302D01*
X108760647Y-38550301D01*
X108760647Y-38550300D01*
X108780492Y-38425003D01*
X108780492Y-38424996D01*
X108760647Y-38299699D01*
X108760647Y-38299698D01*
X108760646Y-38299696D01*
X108703050Y-38186658D01*
X108703046Y-38186654D01*
X108703045Y-38186652D01*
X108613347Y-38096954D01*
X108613344Y-38096952D01*
X108613342Y-38096950D01*
X108500304Y-38039354D01*
X108500303Y-38039353D01*
X108500300Y-38039352D01*
X108375003Y-38019508D01*
X108374997Y-38019508D01*
X108249699Y-38039352D01*
X108249698Y-38039352D01*
X108174337Y-38077751D01*
X108136658Y-38096950D01*
X108136656Y-38096951D01*
X108136657Y-38096951D01*
X108136652Y-38096954D01*
X108046954Y-38186652D01*
X108046951Y-38186657D01*
X107989352Y-38299698D01*
X107989352Y-38299699D01*
X107969508Y-38424996D01*
X107969508Y-38425003D01*
X92155500Y-38425003D01*
X92155500Y-37575003D01*
X98444508Y-37575003D01*
X98464352Y-37700300D01*
X98464352Y-37700301D01*
X98464354Y-37700304D01*
X98521950Y-37813342D01*
X98521952Y-37813344D01*
X98521954Y-37813347D01*
X98611652Y-37903045D01*
X98611654Y-37903046D01*
X98611658Y-37903050D01*
X98724696Y-37960646D01*
X98724697Y-37960646D01*
X98724699Y-37960647D01*
X98849997Y-37980492D01*
X98850000Y-37980492D01*
X98850003Y-37980492D01*
X98975300Y-37960647D01*
X98975301Y-37960647D01*
X98975302Y-37960646D01*
X98975304Y-37960646D01*
X99088342Y-37903050D01*
X99178050Y-37813342D01*
X99235646Y-37700304D01*
X99235646Y-37700302D01*
X99235647Y-37700301D01*
X99235647Y-37700300D01*
X99255492Y-37575003D01*
X99255492Y-37574996D01*
X99235647Y-37449699D01*
X99235647Y-37449698D01*
X99235646Y-37449696D01*
X99178050Y-37336658D01*
X99178046Y-37336654D01*
X99178045Y-37336652D01*
X99088347Y-37246954D01*
X99088344Y-37246952D01*
X99088342Y-37246950D01*
X98975304Y-37189354D01*
X98975303Y-37189353D01*
X98975300Y-37189352D01*
X98850003Y-37169508D01*
X98849997Y-37169508D01*
X98724699Y-37189352D01*
X98724698Y-37189352D01*
X98654148Y-37225300D01*
X98611658Y-37246950D01*
X98611656Y-37246950D01*
X98611657Y-37246951D01*
X98611652Y-37246954D01*
X98521954Y-37336652D01*
X98521951Y-37336657D01*
X98521950Y-37336658D01*
X98512655Y-37354900D01*
X98464352Y-37449698D01*
X98464352Y-37449699D01*
X98444508Y-37574996D01*
X98444508Y-37575003D01*
X92155500Y-37575003D01*
X92155500Y-37100003D01*
X107119508Y-37100003D01*
X107139352Y-37225300D01*
X107139352Y-37225301D01*
X107139354Y-37225304D01*
X107196950Y-37338342D01*
X107196952Y-37338344D01*
X107196954Y-37338347D01*
X107286652Y-37428045D01*
X107286654Y-37428046D01*
X107286658Y-37428050D01*
X107399696Y-37485646D01*
X107399697Y-37485646D01*
X107399699Y-37485647D01*
X107524997Y-37505492D01*
X107525000Y-37505492D01*
X107525003Y-37505492D01*
X107650300Y-37485647D01*
X107650301Y-37485647D01*
X107650302Y-37485646D01*
X107650304Y-37485646D01*
X107763342Y-37428050D01*
X107853050Y-37338342D01*
X107910646Y-37225304D01*
X107910646Y-37225302D01*
X107910647Y-37225301D01*
X107910647Y-37225300D01*
X107930492Y-37100003D01*
X107930492Y-37099996D01*
X107910647Y-36974699D01*
X107910647Y-36974698D01*
X107910646Y-36974696D01*
X107853050Y-36861658D01*
X107853046Y-36861654D01*
X107853045Y-36861652D01*
X107763347Y-36771954D01*
X107763344Y-36771952D01*
X107763342Y-36771950D01*
X107650304Y-36714354D01*
X107650303Y-36714353D01*
X107650300Y-36714352D01*
X107525003Y-36694508D01*
X107524997Y-36694508D01*
X107399699Y-36714352D01*
X107399698Y-36714352D01*
X107324337Y-36752751D01*
X107286658Y-36771950D01*
X107286657Y-36771950D01*
X107286657Y-36771951D01*
X107286652Y-36771954D01*
X107196954Y-36861652D01*
X107196951Y-36861657D01*
X107139352Y-36974698D01*
X107139352Y-36974699D01*
X107119508Y-37099996D01*
X107119508Y-37100003D01*
X92155500Y-37100003D01*
X92155500Y-36600003D01*
X100469508Y-36600003D01*
X100489352Y-36725300D01*
X100489352Y-36725301D01*
X100489354Y-36725304D01*
X100546950Y-36838342D01*
X100546952Y-36838344D01*
X100546954Y-36838347D01*
X100636652Y-36928045D01*
X100636654Y-36928046D01*
X100636658Y-36928050D01*
X100749696Y-36985646D01*
X100749697Y-36985646D01*
X100749699Y-36985647D01*
X100874997Y-37005492D01*
X100875000Y-37005492D01*
X100875003Y-37005492D01*
X101000300Y-36985647D01*
X101000301Y-36985647D01*
X101000302Y-36985646D01*
X101000304Y-36985646D01*
X101113342Y-36928050D01*
X101203050Y-36838342D01*
X101260646Y-36725304D01*
X101260646Y-36725302D01*
X101260647Y-36725301D01*
X101260647Y-36725300D01*
X101280492Y-36600003D01*
X101280492Y-36599996D01*
X101260647Y-36474699D01*
X101260647Y-36474698D01*
X101248391Y-36450644D01*
X101203050Y-36361658D01*
X101203046Y-36361654D01*
X101203045Y-36361652D01*
X101113347Y-36271954D01*
X101113344Y-36271952D01*
X101113342Y-36271950D01*
X101000304Y-36214354D01*
X101000303Y-36214353D01*
X101000300Y-36214352D01*
X100875003Y-36194508D01*
X100874997Y-36194508D01*
X100749699Y-36214352D01*
X100749698Y-36214352D01*
X100682408Y-36248639D01*
X100636658Y-36271950D01*
X100636657Y-36271951D01*
X100636652Y-36271954D01*
X100546954Y-36361652D01*
X100546951Y-36361657D01*
X100489352Y-36474698D01*
X100489352Y-36474699D01*
X100469508Y-36599996D01*
X100469508Y-36600003D01*
X92155500Y-36600003D01*
X92155500Y-35525003D01*
X101569508Y-35525003D01*
X101589352Y-35650300D01*
X101589352Y-35650301D01*
X101589354Y-35650304D01*
X101646950Y-35763342D01*
X101646952Y-35763344D01*
X101646954Y-35763347D01*
X101736652Y-35853045D01*
X101736654Y-35853046D01*
X101736658Y-35853050D01*
X101849696Y-35910646D01*
X101849697Y-35910646D01*
X101849699Y-35910647D01*
X101974997Y-35930492D01*
X101975000Y-35930492D01*
X101975003Y-35930492D01*
X102100300Y-35910647D01*
X102100301Y-35910647D01*
X102100302Y-35910646D01*
X102100304Y-35910646D01*
X102213342Y-35853050D01*
X102303050Y-35763342D01*
X102360646Y-35650304D01*
X102360646Y-35650302D01*
X102364515Y-35642710D01*
X102412490Y-35591914D01*
X102480311Y-35575119D01*
X102546446Y-35597657D01*
X102585485Y-35642710D01*
X102589353Y-35650302D01*
X102589354Y-35650304D01*
X102646950Y-35763342D01*
X102646952Y-35763344D01*
X102646954Y-35763347D01*
X102736652Y-35853045D01*
X102736654Y-35853046D01*
X102736658Y-35853050D01*
X102849696Y-35910646D01*
X102849697Y-35910646D01*
X102849699Y-35910647D01*
X102974997Y-35930492D01*
X102975000Y-35930492D01*
X102975003Y-35930492D01*
X103100300Y-35910647D01*
X103100301Y-35910647D01*
X103100302Y-35910646D01*
X103100304Y-35910646D01*
X103213342Y-35853050D01*
X103303050Y-35763342D01*
X103309847Y-35750003D01*
X107244508Y-35750003D01*
X107264352Y-35875300D01*
X107264352Y-35875301D01*
X107264354Y-35875304D01*
X107321950Y-35988342D01*
X107321952Y-35988344D01*
X107321954Y-35988347D01*
X107411652Y-36078045D01*
X107411654Y-36078046D01*
X107411658Y-36078050D01*
X107524696Y-36135646D01*
X107524697Y-36135646D01*
X107524699Y-36135647D01*
X107649997Y-36155492D01*
X107650000Y-36155492D01*
X107650003Y-36155492D01*
X107775300Y-36135647D01*
X107775301Y-36135647D01*
X107775302Y-36135646D01*
X107775304Y-36135646D01*
X107888342Y-36078050D01*
X107978050Y-35988342D01*
X108035646Y-35875304D01*
X108035646Y-35875302D01*
X108035647Y-35875301D01*
X108035647Y-35875300D01*
X108055492Y-35750003D01*
X108055492Y-35749996D01*
X108035695Y-35625002D01*
X110194579Y-35625002D01*
X110214248Y-35987782D01*
X110214250Y-35987799D01*
X110273024Y-36346303D01*
X110273030Y-36346329D01*
X110370221Y-36696381D01*
X110370226Y-36696396D01*
X110504700Y-37033901D01*
X110504706Y-37033913D01*
X110674878Y-37354892D01*
X110674884Y-37354901D01*
X110878772Y-37655613D01*
X111088945Y-37903048D01*
X111113979Y-37932521D01*
X111377746Y-38182375D01*
X111666981Y-38402245D01*
X111978292Y-38589555D01*
X111978294Y-38589556D01*
X111978296Y-38589557D01*
X111978300Y-38589559D01*
X112137791Y-38663347D01*
X112308031Y-38742108D01*
X112652330Y-38858116D01*
X113007153Y-38936218D01*
X113368341Y-38975500D01*
X113368347Y-38975500D01*
X113731653Y-38975500D01*
X113731659Y-38975500D01*
X114092847Y-38936218D01*
X114447670Y-38858116D01*
X114791969Y-38742108D01*
X115121708Y-38589555D01*
X115433019Y-38402245D01*
X115722254Y-38182375D01*
X115986021Y-37932521D01*
X116221227Y-37655614D01*
X116425117Y-37354900D01*
X116595298Y-37033905D01*
X116729775Y-36696391D01*
X116826973Y-36346316D01*
X116861510Y-36135647D01*
X116885749Y-35987799D01*
X116885751Y-35987782D01*
X116893057Y-35853045D01*
X116905421Y-35625000D01*
X116903938Y-35597657D01*
X116885751Y-35262217D01*
X116885749Y-35262200D01*
X116826975Y-34903696D01*
X116826974Y-34903695D01*
X116826973Y-34903684D01*
X116780318Y-34735647D01*
X116729778Y-34553618D01*
X116729773Y-34553603D01*
X116595299Y-34216098D01*
X116595298Y-34216095D01*
X116486909Y-34011652D01*
X116425121Y-33895107D01*
X116425119Y-33895104D01*
X116425117Y-33895100D01*
X116221227Y-33594386D01*
X115986021Y-33317479D01*
X115722254Y-33067625D01*
X115722244Y-33067617D01*
X115608945Y-32981490D01*
X115433019Y-32847755D01*
X115121708Y-32660445D01*
X115121707Y-32660444D01*
X115121703Y-32660442D01*
X115121699Y-32660440D01*
X114791979Y-32507896D01*
X114791974Y-32507894D01*
X114791969Y-32507892D01*
X114624143Y-32451344D01*
X114447669Y-32391883D01*
X114092845Y-32313781D01*
X113731660Y-32274500D01*
X113731659Y-32274500D01*
X113368341Y-32274500D01*
X113368339Y-32274500D01*
X113007154Y-32313781D01*
X112652330Y-32391883D01*
X112429281Y-32467038D01*
X112308031Y-32507892D01*
X112308028Y-32507893D01*
X112308020Y-32507896D01*
X111978300Y-32660440D01*
X111978296Y-32660442D01*
X111746453Y-32799937D01*
X111666981Y-32847755D01*
X111577332Y-32915903D01*
X111377755Y-33067617D01*
X111377745Y-33067625D01*
X111113978Y-33317479D01*
X110878772Y-33594386D01*
X110674884Y-33895098D01*
X110674878Y-33895107D01*
X110504706Y-34216086D01*
X110504700Y-34216098D01*
X110370226Y-34553603D01*
X110370221Y-34553618D01*
X110273030Y-34903670D01*
X110273024Y-34903696D01*
X110214250Y-35262200D01*
X110214248Y-35262217D01*
X110194579Y-35624997D01*
X110194579Y-35625002D01*
X108035695Y-35625002D01*
X108035647Y-35624699D01*
X108035647Y-35624698D01*
X108021869Y-35597657D01*
X107978050Y-35511658D01*
X107978046Y-35511654D01*
X107978045Y-35511652D01*
X107888347Y-35421954D01*
X107888344Y-35421952D01*
X107888342Y-35421950D01*
X107775304Y-35364354D01*
X107775303Y-35364353D01*
X107775300Y-35364352D01*
X107650003Y-35344508D01*
X107649997Y-35344508D01*
X107524699Y-35364352D01*
X107524698Y-35364352D01*
X107455334Y-35399696D01*
X107411658Y-35421950D01*
X107411656Y-35421951D01*
X107411657Y-35421951D01*
X107411652Y-35421954D01*
X107321954Y-35511652D01*
X107321951Y-35511657D01*
X107321950Y-35511658D01*
X107302751Y-35549337D01*
X107264352Y-35624698D01*
X107264352Y-35624699D01*
X107244508Y-35749996D01*
X107244508Y-35750003D01*
X103309847Y-35750003D01*
X103360646Y-35650304D01*
X103360646Y-35650302D01*
X103360647Y-35650301D01*
X103360647Y-35650300D01*
X103380492Y-35525003D01*
X103380492Y-35524996D01*
X103360647Y-35399699D01*
X103360647Y-35399698D01*
X103342637Y-35364352D01*
X103303050Y-35286658D01*
X103303046Y-35286654D01*
X103303045Y-35286652D01*
X103213347Y-35196954D01*
X103213344Y-35196952D01*
X103213342Y-35196950D01*
X103100304Y-35139354D01*
X103100303Y-35139353D01*
X103100300Y-35139352D01*
X102975003Y-35119508D01*
X102974997Y-35119508D01*
X102849699Y-35139352D01*
X102849698Y-35139352D01*
X102774337Y-35177751D01*
X102736658Y-35196950D01*
X102736657Y-35196951D01*
X102736652Y-35196954D01*
X102646954Y-35286652D01*
X102646949Y-35286659D01*
X102585484Y-35407290D01*
X102537510Y-35458085D01*
X102469689Y-35474880D01*
X102403554Y-35452342D01*
X102364516Y-35407290D01*
X102330150Y-35339845D01*
X102303050Y-35286658D01*
X102303047Y-35286655D01*
X102303045Y-35286652D01*
X102213347Y-35196954D01*
X102213344Y-35196952D01*
X102213342Y-35196950D01*
X102100304Y-35139354D01*
X102100303Y-35139353D01*
X102100300Y-35139352D01*
X101975003Y-35119508D01*
X101974997Y-35119508D01*
X101849699Y-35139352D01*
X101849698Y-35139352D01*
X101774337Y-35177751D01*
X101736658Y-35196950D01*
X101736657Y-35196951D01*
X101736652Y-35196954D01*
X101646954Y-35286652D01*
X101646951Y-35286657D01*
X101646950Y-35286658D01*
X101627751Y-35324337D01*
X101589352Y-35399698D01*
X101589352Y-35399699D01*
X101569508Y-35524996D01*
X101569508Y-35525003D01*
X92155500Y-35525003D01*
X92155500Y-34874000D01*
X92151946Y-34840945D01*
X92140740Y-34789434D01*
X92113816Y-34735647D01*
X92106313Y-34720657D01*
X92060558Y-34667854D01*
X92055579Y-34662378D01*
X92048744Y-34656735D01*
X92050378Y-34654754D01*
X92012461Y-34613040D01*
X92000000Y-34558864D01*
X92000000Y-34250003D01*
X93219508Y-34250003D01*
X93239352Y-34375300D01*
X93239352Y-34375301D01*
X93239354Y-34375304D01*
X93296950Y-34488342D01*
X93296952Y-34488344D01*
X93296954Y-34488347D01*
X93386652Y-34578045D01*
X93386654Y-34578046D01*
X93386658Y-34578050D01*
X93499696Y-34635646D01*
X93499697Y-34635646D01*
X93499699Y-34635647D01*
X93624997Y-34655492D01*
X93625000Y-34655492D01*
X93625003Y-34655492D01*
X93750300Y-34635647D01*
X93750301Y-34635647D01*
X93750302Y-34635646D01*
X93750304Y-34635646D01*
X93863342Y-34578050D01*
X93953050Y-34488342D01*
X94010646Y-34375304D01*
X94010646Y-34375302D01*
X94010647Y-34375301D01*
X94010647Y-34375300D01*
X94022573Y-34300003D01*
X96094508Y-34300003D01*
X96114352Y-34425300D01*
X96114352Y-34425301D01*
X96114354Y-34425304D01*
X96171950Y-34538342D01*
X96171952Y-34538344D01*
X96171954Y-34538347D01*
X96261652Y-34628045D01*
X96261654Y-34628046D01*
X96261658Y-34628050D01*
X96374696Y-34685646D01*
X96374697Y-34685646D01*
X96374699Y-34685647D01*
X96499997Y-34705492D01*
X96500000Y-34705492D01*
X96500003Y-34705492D01*
X96625300Y-34685647D01*
X96625301Y-34685647D01*
X96625302Y-34685646D01*
X96625304Y-34685646D01*
X96738342Y-34628050D01*
X96828050Y-34538342D01*
X96885646Y-34425304D01*
X96885646Y-34425302D01*
X96885647Y-34425301D01*
X96885647Y-34425300D01*
X96897573Y-34350003D01*
X103644508Y-34350003D01*
X103664352Y-34475300D01*
X103664352Y-34475301D01*
X103682805Y-34511517D01*
X103721950Y-34588342D01*
X103721952Y-34588344D01*
X103721954Y-34588347D01*
X103811652Y-34678045D01*
X103811654Y-34678046D01*
X103811658Y-34678050D01*
X103924696Y-34735646D01*
X103924697Y-34735646D01*
X103924699Y-34735647D01*
X104049997Y-34755492D01*
X104050000Y-34755492D01*
X104050003Y-34755492D01*
X104175300Y-34735647D01*
X104175301Y-34735647D01*
X104175302Y-34735646D01*
X104175304Y-34735646D01*
X104288342Y-34678050D01*
X104378050Y-34588342D01*
X104435646Y-34475304D01*
X104435646Y-34475302D01*
X104435647Y-34475301D01*
X104435647Y-34475300D01*
X104455492Y-34350003D01*
X104455492Y-34349996D01*
X104435647Y-34224699D01*
X104435647Y-34224698D01*
X104431265Y-34216098D01*
X104378050Y-34111658D01*
X104378046Y-34111654D01*
X104378045Y-34111652D01*
X104288347Y-34021954D01*
X104288344Y-34021952D01*
X104288342Y-34021950D01*
X104175304Y-33964354D01*
X104175303Y-33964353D01*
X104175300Y-33964352D01*
X104050003Y-33944508D01*
X104049997Y-33944508D01*
X103924699Y-33964352D01*
X103924698Y-33964352D01*
X103849337Y-34002751D01*
X103811658Y-34021950D01*
X103811656Y-34021951D01*
X103811657Y-34021951D01*
X103811652Y-34021954D01*
X103721954Y-34111652D01*
X103721951Y-34111657D01*
X103721950Y-34111658D01*
X103702751Y-34149337D01*
X103664352Y-34224698D01*
X103664352Y-34224699D01*
X103644508Y-34349996D01*
X103644508Y-34350003D01*
X96897573Y-34350003D01*
X96905492Y-34300003D01*
X96905492Y-34299996D01*
X96885647Y-34174699D01*
X96885647Y-34174698D01*
X96877162Y-34158045D01*
X96828050Y-34061658D01*
X96828046Y-34061654D01*
X96828045Y-34061652D01*
X96738347Y-33971954D01*
X96738344Y-33971952D01*
X96738342Y-33971950D01*
X96625304Y-33914354D01*
X96625303Y-33914353D01*
X96625300Y-33914352D01*
X96500003Y-33894508D01*
X96499997Y-33894508D01*
X96374699Y-33914352D01*
X96374698Y-33914352D01*
X96299337Y-33952751D01*
X96261658Y-33971950D01*
X96261656Y-33971951D01*
X96261657Y-33971951D01*
X96261652Y-33971954D01*
X96171954Y-34061652D01*
X96171951Y-34061657D01*
X96171950Y-34061658D01*
X96168542Y-34068347D01*
X96114352Y-34174698D01*
X96114352Y-34174699D01*
X96094508Y-34299996D01*
X96094508Y-34300003D01*
X94022573Y-34300003D01*
X94030492Y-34250003D01*
X94030492Y-34249996D01*
X94010647Y-34124699D01*
X94010647Y-34124698D01*
X94004000Y-34111652D01*
X93953050Y-34011658D01*
X93953046Y-34011654D01*
X93953045Y-34011652D01*
X93863347Y-33921954D01*
X93863344Y-33921952D01*
X93863342Y-33921950D01*
X93750304Y-33864354D01*
X93750303Y-33864353D01*
X93750300Y-33864352D01*
X93625003Y-33844508D01*
X93624997Y-33844508D01*
X93499699Y-33864352D01*
X93499698Y-33864352D01*
X93439340Y-33895107D01*
X93386658Y-33921950D01*
X93386657Y-33921951D01*
X93386652Y-33921954D01*
X93296954Y-34011652D01*
X93296951Y-34011657D01*
X93296950Y-34011658D01*
X93291704Y-34021954D01*
X93239352Y-34124698D01*
X93239352Y-34124699D01*
X93219508Y-34249996D01*
X93219508Y-34250003D01*
X92000000Y-34250003D01*
X92000000Y-33830003D01*
X102554508Y-33830003D01*
X102574352Y-33955300D01*
X102574352Y-33955301D01*
X102592805Y-33991517D01*
X102631950Y-34068342D01*
X102631952Y-34068344D01*
X102631954Y-34068347D01*
X102721652Y-34158045D01*
X102721654Y-34158046D01*
X102721658Y-34158050D01*
X102834696Y-34215646D01*
X102834697Y-34215646D01*
X102834699Y-34215647D01*
X102959997Y-34235492D01*
X102960000Y-34235492D01*
X102960003Y-34235492D01*
X103085300Y-34215647D01*
X103085301Y-34215647D01*
X103085302Y-34215646D01*
X103085304Y-34215646D01*
X103198342Y-34158050D01*
X103288050Y-34068342D01*
X103345646Y-33955304D01*
X103345646Y-33955302D01*
X103345647Y-33955301D01*
X103345647Y-33955300D01*
X103365492Y-33830003D01*
X103365492Y-33829996D01*
X103345647Y-33704699D01*
X103345647Y-33704698D01*
X103345646Y-33704696D01*
X103288050Y-33591658D01*
X103288046Y-33591654D01*
X103288045Y-33591652D01*
X103198347Y-33501954D01*
X103198344Y-33501952D01*
X103198342Y-33501950D01*
X103085304Y-33444354D01*
X103085303Y-33444353D01*
X103085300Y-33444352D01*
X102960003Y-33424508D01*
X102959997Y-33424508D01*
X102834699Y-33444352D01*
X102834698Y-33444352D01*
X102759337Y-33482751D01*
X102721658Y-33501950D01*
X102721657Y-33501951D01*
X102721652Y-33501954D01*
X102631954Y-33591652D01*
X102631951Y-33591657D01*
X102574352Y-33704698D01*
X102574352Y-33704699D01*
X102554508Y-33829996D01*
X102554508Y-33830003D01*
X92000000Y-33830003D01*
X92000000Y-31837378D01*
X92019685Y-31770339D01*
X92072489Y-31724584D01*
X92124056Y-31713379D01*
X116173376Y-31725486D01*
G37*
G04 #@! TD.AperFunction*
G04 #@! TA.AperFunction,Conductor*
G36*
X101702455Y-58835495D02*
G01*
X101775376Y-58850000D01*
X101824624Y-58850000D01*
X101897545Y-58835495D01*
X101959361Y-58794190D01*
X101887680Y-58865872D01*
X101826357Y-58899357D01*
X101756665Y-58894373D01*
X101712318Y-58865872D01*
X101640632Y-58794186D01*
X101702455Y-58835495D01*
G37*
G04 #@! TD.AperFunction*
M02*
