G04 #@! TF.GenerationSoftware,KiCad,Pcbnew,8.0.9-8.0.9-0~ubuntu24.04.1*
G04 #@! TF.CreationDate,2025-04-11T12:42:37+02:00*
G04 #@! TF.ProjectId,Sensor_Nodes,53656e73-6f72-45f4-9e6f-6465732e6b69,rev?*
G04 #@! TF.SameCoordinates,Original*
G04 #@! TF.FileFunction,Paste,Top*
G04 #@! TF.FilePolarity,Positive*
%FSLAX46Y46*%
G04 Gerber Fmt 4.6, Leading zero omitted, Abs format (unit mm)*
G04 Created by KiCad (PCBNEW 8.0.9-8.0.9-0~ubuntu24.04.1) date 2025-04-11 12:42:37*
%MOMM*%
%LPD*%
G01*
G04 APERTURE LIST*
G04 Aperture macros list*
%AMRoundRect*
0 Rectangle with rounded corners*
0 $1 Rounding radius*
0 $2 $3 $4 $5 $6 $7 $8 $9 X,Y pos of 4 corners*
0 Add a 4 corners polygon primitive as box body*
4,1,4,$2,$3,$4,$5,$6,$7,$8,$9,$2,$3,0*
0 Add four circle primitives for the rounded corners*
1,1,$1+$1,$2,$3*
1,1,$1+$1,$4,$5*
1,1,$1+$1,$6,$7*
1,1,$1+$1,$8,$9*
0 Add four rect primitives between the rounded corners*
20,1,$1+$1,$2,$3,$4,$5,0*
20,1,$1+$1,$4,$5,$6,$7,0*
20,1,$1+$1,$6,$7,$8,$9,0*
20,1,$1+$1,$8,$9,$2,$3,0*%
%AMOutline5P*
0 Free polygon, 5 corners , with rotation*
0 The origin of the aperture is its center*
0 number of corners: always 5*
0 $1 to $10 corner X, Y*
0 $11 Rotation angle, in degrees counterclockwise*
0 create outline with 5 corners*
4,1,5,$1,$2,$3,$4,$5,$6,$7,$8,$9,$10,$1,$2,$11*%
%AMOutline6P*
0 Free polygon, 6 corners , with rotation*
0 The origin of the aperture is its center*
0 number of corners: always 6*
0 $1 to $12 corner X, Y*
0 $13 Rotation angle, in degrees counterclockwise*
0 create outline with 6 corners*
4,1,6,$1,$2,$3,$4,$5,$6,$7,$8,$9,$10,$11,$12,$1,$2,$13*%
%AMOutline7P*
0 Free polygon, 7 corners , with rotation*
0 The origin of the aperture is its center*
0 number of corners: always 7*
0 $1 to $14 corner X, Y*
0 $15 Rotation angle, in degrees counterclockwise*
0 create outline with 7 corners*
4,1,7,$1,$2,$3,$4,$5,$6,$7,$8,$9,$10,$11,$12,$13,$14,$1,$2,$15*%
%AMOutline8P*
0 Free polygon, 8 corners , with rotation*
0 The origin of the aperture is its center*
0 number of corners: always 8*
0 $1 to $16 corner X, Y*
0 $17 Rotation angle, in degrees counterclockwise*
0 create outline with 8 corners*
4,1,8,$1,$2,$3,$4,$5,$6,$7,$8,$9,$10,$11,$12,$13,$14,$15,$16,$1,$2,$17*%
%AMFreePoly0*
4,1,19,0.290204,0.301344,0.321117,0.247801,0.322490,0.232106,0.322490,-0.157228,0.301344,-0.215326,0.296017,-0.221139,0.221139,-0.296017,0.165105,-0.322146,0.157228,-0.322490,-0.232106,-0.322490,-0.290204,-0.301344,-0.321117,-0.247801,-0.322490,-0.232106,-0.322490,0.232106,-0.301344,0.290204,-0.247801,0.321117,-0.232106,0.322490,0.232106,0.322490,0.290204,0.301344,0.290204,0.301344,
$1*%
%AMFreePoly1*
4,1,21,0.231572,0.385173,0.236504,0.380653,0.300030,0.317127,0.322198,0.269587,0.322490,0.262904,0.322490,-0.262904,0.304550,-0.312195,0.300030,-0.317127,0.236504,-0.380653,0.188964,-0.402821,0.182281,-0.403113,-0.245807,-0.403113,-0.295098,-0.385173,-0.321325,-0.339746,-0.322490,-0.326430,-0.322490,0.326430,-0.304550,0.375721,-0.259123,0.401948,-0.245807,0.403113,0.182281,0.403113,
0.231572,0.385173,0.231572,0.385173,$1*%
%AMFreePoly2*
4,1,19,0.215326,0.301344,0.221139,0.296017,0.296017,0.221139,0.322146,0.165105,0.322490,0.157228,0.322490,-0.232106,0.301344,-0.290204,0.247801,-0.321117,0.232106,-0.322490,-0.232106,-0.322490,-0.290204,-0.301344,-0.321117,-0.247801,-0.322490,-0.232106,-0.322490,0.232106,-0.301344,0.290204,-0.247801,0.321117,-0.232106,0.322490,0.157228,0.322490,0.215326,0.301344,0.215326,0.301344,
$1*%
%AMFreePoly3*
4,1,21,0.375721,0.304550,0.401948,0.259123,0.403113,0.245807,0.403113,-0.182281,0.385173,-0.231572,0.380653,-0.236504,0.317127,-0.300030,0.269587,-0.322198,0.262904,-0.322490,-0.262904,-0.322490,-0.312195,-0.304550,-0.317127,-0.300030,-0.380653,-0.236504,-0.402821,-0.188964,-0.403113,-0.182281,-0.403113,0.245807,-0.385173,0.295098,-0.339746,0.321325,-0.326430,0.322490,0.326430,0.322490,
0.375721,0.304550,0.375721,0.304550,$1*%
%AMFreePoly4*
4,1,21,0.312195,0.304550,0.317127,0.300030,0.380653,0.236504,0.402821,0.188964,0.403113,0.182281,0.403113,-0.245807,0.385173,-0.295098,0.339746,-0.321325,0.326430,-0.322490,-0.326430,-0.322490,-0.375721,-0.304550,-0.401948,-0.259123,-0.403113,-0.245807,-0.403113,0.182281,-0.385173,0.231572,-0.380653,0.236504,-0.317127,0.300030,-0.269587,0.322198,-0.262904,0.322490,0.262904,0.322490,
0.312195,0.304550,0.312195,0.304550,$1*%
%AMFreePoly5*
4,1,19,0.290204,0.301344,0.321117,0.247801,0.322490,0.232106,0.322490,-0.232106,0.301344,-0.290204,0.247801,-0.321117,0.232106,-0.322490,-0.157228,-0.322490,-0.215326,-0.301344,-0.221139,-0.296017,-0.296017,-0.221139,-0.322146,-0.165105,-0.322490,-0.157228,-0.322490,0.232106,-0.301344,0.290204,-0.247801,0.321117,-0.232106,0.322490,0.232106,0.322490,0.290204,0.301344,0.290204,0.301344,
$1*%
%AMFreePoly6*
4,1,21,0.295098,0.385173,0.321325,0.339746,0.322490,0.326430,0.322490,-0.326430,0.304550,-0.375721,0.259123,-0.401948,0.245807,-0.403113,-0.182281,-0.403113,-0.231572,-0.385173,-0.236504,-0.380653,-0.300030,-0.317127,-0.322198,-0.269587,-0.322490,-0.262904,-0.322490,0.262904,-0.304550,0.312195,-0.300030,0.317127,-0.236504,0.380653,-0.188964,0.402821,-0.182281,0.403113,0.245807,0.403113,
0.295098,0.385173,0.295098,0.385173,$1*%
%AMFreePoly7*
4,1,19,0.290204,0.301344,0.321117,0.247801,0.322490,0.232106,0.322490,-0.232106,0.301344,-0.290204,0.247801,-0.321117,0.232106,-0.322490,-0.232106,-0.322490,-0.290204,-0.301344,-0.321117,-0.247801,-0.322490,-0.232106,-0.322490,0.157228,-0.301344,0.215326,-0.296017,0.221139,-0.221139,0.296017,-0.165105,0.322146,-0.157228,0.322490,0.232106,0.322490,0.290204,0.301344,0.290204,0.301344,
$1*%
G04 Aperture macros list end*
%ADD10RoundRect,0.140000X0.140000X0.170000X-0.140000X0.170000X-0.140000X-0.170000X0.140000X-0.170000X0*%
%ADD11RoundRect,0.140000X0.170000X-0.140000X0.170000X0.140000X-0.170000X0.140000X-0.170000X-0.140000X0*%
%ADD12RoundRect,0.140000X-0.170000X0.140000X-0.170000X-0.140000X0.170000X-0.140000X0.170000X0.140000X0*%
%ADD13RoundRect,0.140000X-0.140000X-0.170000X0.140000X-0.170000X0.140000X0.170000X-0.140000X0.170000X0*%
%ADD14RoundRect,0.150000X-0.150000X0.512500X-0.150000X-0.512500X0.150000X-0.512500X0.150000X0.512500X0*%
%ADD15R,1.000000X0.750000*%
%ADD16RoundRect,0.147500X0.172500X-0.147500X0.172500X0.147500X-0.172500X0.147500X-0.172500X-0.147500X0*%
%ADD17RoundRect,0.135000X0.185000X-0.135000X0.185000X0.135000X-0.185000X0.135000X-0.185000X-0.135000X0*%
%ADD18RoundRect,0.200000X-0.200000X0.700000X-0.200000X-0.700000X0.200000X-0.700000X0.200000X0.700000X0*%
%ADD19R,2.000000X2.000000*%
%ADD20C,0.250000*%
%ADD21RoundRect,0.135000X-0.135000X-0.185000X0.135000X-0.185000X0.135000X0.185000X-0.135000X0.185000X0*%
%ADD22RoundRect,0.150000X-0.587500X-0.150000X0.587500X-0.150000X0.587500X0.150000X-0.587500X0.150000X0*%
%ADD23RoundRect,0.150000X0.512500X0.150000X-0.512500X0.150000X-0.512500X-0.150000X0.512500X-0.150000X0*%
%ADD24RoundRect,0.225000X0.225000X0.250000X-0.225000X0.250000X-0.225000X-0.250000X0.225000X-0.250000X0*%
%ADD25RoundRect,0.135000X-0.185000X0.135000X-0.185000X-0.135000X0.185000X-0.135000X0.185000X0.135000X0*%
%ADD26RoundRect,0.135000X0.135000X0.185000X-0.135000X0.185000X-0.135000X-0.185000X0.135000X-0.185000X0*%
%ADD27FreePoly0,180.000000*%
%ADD28FreePoly1,180.000000*%
%ADD29FreePoly2,180.000000*%
%ADD30FreePoly3,180.000000*%
%ADD31RoundRect,0.201557X0.201556X0.201556X-0.201556X0.201556X-0.201556X-0.201556X0.201556X-0.201556X0*%
%ADD32FreePoly4,180.000000*%
%ADD33FreePoly5,180.000000*%
%ADD34FreePoly6,180.000000*%
%ADD35FreePoly7,180.000000*%
%ADD36RoundRect,0.062500X0.337500X0.062500X-0.337500X0.062500X-0.337500X-0.062500X0.337500X-0.062500X0*%
%ADD37RoundRect,0.062500X0.062500X0.337500X-0.062500X0.337500X-0.062500X-0.337500X0.062500X-0.337500X0*%
%ADD38R,0.300000X0.500000*%
%ADD39RoundRect,0.100000X-0.400000X-0.100000X0.400000X-0.100000X0.400000X0.100000X-0.400000X0.100000X0*%
%ADD40RoundRect,0.200000X0.275000X-0.200000X0.275000X0.200000X-0.275000X0.200000X-0.275000X-0.200000X0*%
%ADD41RoundRect,0.200000X-1.250000X0.200000X-1.250000X-0.200000X1.250000X-0.200000X1.250000X0.200000X0*%
%ADD42RoundRect,0.250000X-1.650000X0.650000X-1.650000X-0.650000X1.650000X-0.650000X1.650000X0.650000X0*%
%ADD43RoundRect,0.070000X-0.070000X-0.355000X0.070000X-0.355000X0.070000X0.355000X-0.070000X0.355000X0*%
%ADD44RoundRect,0.070000X-0.070000X-0.305000X0.070000X-0.305000X0.070000X0.305000X-0.070000X0.305000X0*%
%ADD45RoundRect,0.218750X-0.256250X0.218750X-0.256250X-0.218750X0.256250X-0.218750X0.256250X0.218750X0*%
%ADD46R,1.200000X1.400000*%
%ADD47RoundRect,0.225000X-0.225000X-0.250000X0.225000X-0.250000X0.225000X0.250000X-0.225000X0.250000X0*%
%ADD48R,0.750000X1.000000*%
%ADD49Outline5P,-0.300000X0.575000X0.300000X0.575000X0.300000X-0.365000X0.090000X-0.575000X-0.300000X-0.575000X270.000000*%
%ADD50Outline5P,-0.300000X0.620000X0.300000X0.620000X0.300000X-0.620000X-0.090000X-0.620000X-0.300000X-0.410000X270.000000*%
%ADD51R,1.240000X0.300000*%
%ADD52Outline5P,-0.300000X0.620000X0.300000X0.620000X0.300000X-0.410000X0.090000X-0.620000X-0.300000X-0.620000X270.000000*%
%ADD53Outline5P,-0.300000X0.575000X0.300000X0.575000X0.300000X-0.575000X-0.090000X-0.575000X-0.300000X-0.365000X270.000000*%
%ADD54RoundRect,0.200000X-0.200000X-1.250000X0.200000X-1.250000X0.200000X1.250000X-0.200000X1.250000X0*%
%ADD55RoundRect,0.250000X-0.650000X-1.650000X0.650000X-1.650000X0.650000X1.650000X-0.650000X1.650000X0*%
%ADD56RoundRect,0.218750X-0.218750X-0.256250X0.218750X-0.256250X0.218750X0.256250X-0.218750X0.256250X0*%
G04 APERTURE END LIST*
D10*
X100940000Y-107761000D03*
X99980000Y-107761000D03*
D11*
X98710000Y-84786000D03*
X98710000Y-83826000D03*
D12*
X116710000Y-94051000D03*
X116710000Y-95011000D03*
D10*
X98960000Y-88906000D03*
X98000000Y-88906000D03*
D13*
X106780000Y-101861000D03*
X107740000Y-101861000D03*
D14*
X99730000Y-125721000D03*
X98780000Y-125721000D03*
X97830000Y-125721000D03*
X97830000Y-127996000D03*
X98780000Y-127996000D03*
X99730000Y-127996000D03*
D15*
X95680000Y-94821000D03*
X89680000Y-94821000D03*
X89680000Y-91071000D03*
X95680000Y-91071000D03*
D16*
X102930000Y-82136000D03*
X102930000Y-81166000D03*
D11*
X102910000Y-102141000D03*
X102910000Y-101181000D03*
D17*
X115710000Y-95031000D03*
X115710000Y-94011000D03*
D10*
X98960000Y-87906000D03*
X98000000Y-87906000D03*
D18*
X112435000Y-106721000D03*
X110935000Y-106721000D03*
D11*
X95930000Y-125731000D03*
X95930000Y-124771000D03*
D19*
X102987500Y-89612500D03*
X105412500Y-89612500D03*
X102987500Y-87187500D03*
X105412500Y-87187500D03*
D20*
X100950000Y-89650000D03*
X100950000Y-89150000D03*
X100950000Y-88650000D03*
X100950000Y-88150000D03*
X100950000Y-87650000D03*
X100950000Y-87150000D03*
X100950000Y-86650000D03*
X100950000Y-86150000D03*
X100950000Y-85650000D03*
X106450000Y-85150000D03*
X106700000Y-91150000D03*
X106950000Y-90400000D03*
X106950000Y-89400000D03*
X106950000Y-88900000D03*
X106950000Y-88400000D03*
X106950000Y-87900000D03*
X106950000Y-87400000D03*
X106950000Y-86900000D03*
X106950000Y-86400000D03*
X106950000Y-85150000D03*
X107450000Y-91150000D03*
X107450000Y-90650000D03*
X107450000Y-90150000D03*
X107450000Y-89650000D03*
X107450000Y-89150000D03*
X107450000Y-88650000D03*
X107450000Y-88150000D03*
X107450000Y-87650000D03*
X107450000Y-87150000D03*
X107450000Y-86650000D03*
X107450000Y-86150000D03*
X107450000Y-85650000D03*
X101450000Y-91650000D03*
X101450000Y-90900000D03*
X101450000Y-90400000D03*
X101450000Y-89900000D03*
X101450000Y-89400000D03*
X101450000Y-88900000D03*
X101450000Y-88400000D03*
X101450000Y-87900000D03*
X101450000Y-87400000D03*
X101450000Y-86900000D03*
X101450000Y-85150000D03*
X101950000Y-91650000D03*
X102200000Y-91150000D03*
X102200000Y-85650000D03*
X102450000Y-85150000D03*
X102700000Y-91150000D03*
X102700000Y-85650000D03*
X102950000Y-91650000D03*
X103200000Y-91150000D03*
X103200000Y-85650000D03*
X103450000Y-91650000D03*
X103450000Y-85150000D03*
X103700000Y-91150000D03*
X103950000Y-91650000D03*
X103950000Y-85150000D03*
X104200000Y-91150000D03*
X104450000Y-91650000D03*
X104450000Y-85150000D03*
X104700000Y-91150000D03*
X104700000Y-85650000D03*
X104950000Y-91650000D03*
X104950000Y-85150000D03*
X105200000Y-91150000D03*
X105200000Y-85650000D03*
X105450000Y-91650000D03*
X105450000Y-85150000D03*
X105700000Y-85650000D03*
X105950000Y-91650000D03*
X105950000Y-85150000D03*
X106200000Y-91150000D03*
X106200000Y-85650000D03*
D21*
X86145000Y-86708500D03*
X87165000Y-86708500D03*
X93900000Y-125733500D03*
X94920000Y-125733500D03*
D22*
X97842500Y-120811000D03*
X97842500Y-122711000D03*
X99717500Y-121761000D03*
D21*
X104670000Y-98501000D03*
X105690000Y-98501000D03*
D23*
X96247500Y-107421000D03*
X96247500Y-106471000D03*
X96247500Y-105521000D03*
X93972500Y-105521000D03*
X93972500Y-106471000D03*
X93972500Y-107421000D03*
D12*
X98710000Y-85826000D03*
X98710000Y-86786000D03*
D13*
X106710000Y-109991000D03*
X107670000Y-109991000D03*
D24*
X101020000Y-105511000D03*
X99470000Y-105511000D03*
D25*
X94180000Y-126941000D03*
X94180000Y-127961000D03*
D26*
X113830000Y-119291000D03*
X112810000Y-119291000D03*
D25*
X106970000Y-93511000D03*
X106970000Y-94531000D03*
D10*
X100940000Y-106761000D03*
X99980000Y-106761000D03*
D21*
X112820000Y-120291000D03*
X113840000Y-120291000D03*
D27*
X107835000Y-107371000D03*
D28*
X107835000Y-106471000D03*
X107835000Y-105471000D03*
D29*
X107835000Y-104571000D03*
D30*
X106935000Y-107371000D03*
D31*
X106935000Y-106471000D03*
X106935000Y-105471000D03*
D32*
X106935000Y-104571000D03*
D30*
X105935000Y-107371000D03*
D31*
X105935000Y-106471000D03*
X105935000Y-105471000D03*
D32*
X105935000Y-104571000D03*
D33*
X105035000Y-107371000D03*
D34*
X105035000Y-106471000D03*
X105035000Y-105471000D03*
D35*
X105035000Y-104571000D03*
D36*
X108885000Y-107721000D03*
X108885000Y-107221000D03*
X108885000Y-106721000D03*
X108885000Y-106221000D03*
X108885000Y-105721000D03*
X108885000Y-105221000D03*
X108885000Y-104721000D03*
X108885000Y-104221000D03*
D37*
X108185000Y-103521000D03*
X107685000Y-103521000D03*
X107185000Y-103521000D03*
X106685000Y-103521000D03*
X106185000Y-103521000D03*
X105685000Y-103521000D03*
X105185000Y-103521000D03*
X104685000Y-103521000D03*
D36*
X103985000Y-104221000D03*
X103985000Y-104721000D03*
X103985000Y-105221000D03*
X103985000Y-105721000D03*
X103985000Y-106221000D03*
X103985000Y-106721000D03*
X103985000Y-107221000D03*
X103985000Y-107721000D03*
D37*
X104685000Y-108421000D03*
X105185000Y-108421000D03*
X105685000Y-108421000D03*
X106185000Y-108421000D03*
X106685000Y-108421000D03*
X107185000Y-108421000D03*
X107685000Y-108421000D03*
X108185000Y-108421000D03*
D12*
X107980000Y-93521000D03*
X107980000Y-94481000D03*
D38*
X87220000Y-82008500D03*
X88020000Y-82008500D03*
X88020000Y-80608500D03*
X87220000Y-80608500D03*
D39*
X87620000Y-81308500D03*
D40*
X101630000Y-102006000D03*
X101630000Y-100356000D03*
D41*
X93510000Y-120261000D03*
X93510000Y-121761000D03*
D42*
X88810000Y-117661000D03*
X88810000Y-124361000D03*
D12*
X101210000Y-93676000D03*
X101210000Y-94636000D03*
D43*
X95430000Y-128041000D03*
D44*
X95930000Y-128091000D03*
X96430000Y-128091000D03*
X96430000Y-126941000D03*
X95930000Y-126941000D03*
X95430000Y-126941000D03*
D25*
X97840000Y-118391000D03*
X97840000Y-119411000D03*
D10*
X102930000Y-79151000D03*
X101970000Y-79151000D03*
D45*
X105185000Y-111396000D03*
X105185000Y-112971000D03*
D10*
X102930000Y-78151000D03*
X101970000Y-78151000D03*
D13*
X109550000Y-85651000D03*
X110510000Y-85651000D03*
D12*
X105947500Y-93538500D03*
X105947500Y-94498500D03*
D46*
X95610000Y-83706000D03*
X95610000Y-85906000D03*
X97310000Y-85906000D03*
X97310000Y-83706000D03*
D47*
X110910000Y-108721000D03*
X112460000Y-108721000D03*
D10*
X102930000Y-80151000D03*
X101970000Y-80151000D03*
D12*
X100200000Y-93681000D03*
X100200000Y-94641000D03*
X102235000Y-93676000D03*
X102235000Y-94636000D03*
D48*
X119140000Y-103546000D03*
X119140000Y-97546000D03*
X122890000Y-97546000D03*
X122890000Y-103546000D03*
D11*
X101270000Y-104201000D03*
X101270000Y-103241000D03*
D26*
X107280000Y-100521000D03*
X106260000Y-100521000D03*
D10*
X102930000Y-83151000D03*
X101970000Y-83151000D03*
D11*
X104460000Y-83136000D03*
X104460000Y-82176000D03*
D49*
X91130000Y-103271000D03*
D50*
X91080000Y-104071000D03*
D51*
X91080000Y-105221000D03*
X91080000Y-106221000D03*
X91080000Y-106721000D03*
X91080000Y-107721000D03*
D52*
X91080000Y-108871000D03*
D53*
X91130000Y-109671000D03*
X91130000Y-109671000D03*
D52*
X91080000Y-108871000D03*
D51*
X91080000Y-108221000D03*
X91080000Y-107221000D03*
X91080000Y-105721000D03*
X91080000Y-104721000D03*
D50*
X91080000Y-104071000D03*
D49*
X91130000Y-103271000D03*
D17*
X96830000Y-116451000D03*
X96830000Y-115431000D03*
D11*
X100960000Y-83136000D03*
X100960000Y-82176000D03*
D21*
X94670000Y-89611000D03*
X95690000Y-89611000D03*
D54*
X113840000Y-123211000D03*
X115340000Y-123211000D03*
D55*
X111240000Y-127911000D03*
X117940000Y-127911000D03*
D47*
X109745000Y-90421000D03*
X111295000Y-90421000D03*
X110910000Y-104721000D03*
X112460000Y-104721000D03*
D17*
X103920000Y-102186000D03*
X103920000Y-101166000D03*
D26*
X89085000Y-86708500D03*
X88065000Y-86708500D03*
D11*
X99960000Y-83156000D03*
X99960000Y-82196000D03*
D56*
X105352500Y-96361000D03*
X106927500Y-96361000D03*
D17*
X96830000Y-118391000D03*
X96830000Y-117371000D03*
D47*
X109547500Y-84293500D03*
X111097500Y-84293500D03*
D45*
X103440000Y-111411000D03*
X103440000Y-112986000D03*
D10*
X88100000Y-77758500D03*
X87140000Y-77758500D03*
M02*
